G04 #@! TF.FileFunction,Copper,L1,Top,Signal*
%FSLAX46Y46*%
G04 Gerber Fmt 4.6, Leading zero omitted, Abs format (unit mm)*
G04 Created by KiCad (PCBNEW 4.0.7) date Thursday, December 07, 2017 'PMt' 10:45:11 PM*
%MOMM*%
%LPD*%
G01*
G04 APERTURE LIST*
%ADD10C,0.100000*%
%ADD11R,1.250000X1.500000*%
%ADD12R,1.500000X1.300000*%
%ADD13R,1.300000X1.500000*%
%ADD14R,0.600000X1.550000*%
%ADD15C,1.524000*%
%ADD16C,1.650000*%
%ADD17R,2.000000X2.100000*%
%ADD18R,1.700000X1.700000*%
%ADD19O,1.700000X1.700000*%
%ADD20C,0.635000*%
%ADD21C,0.508000*%
%ADD22C,1.016000*%
G04 APERTURE END LIST*
D10*
D11*
X118110000Y-71775000D03*
X118110000Y-74275000D03*
X118110000Y-78125000D03*
X118110000Y-80625000D03*
D12*
X134540000Y-63500000D03*
X137240000Y-63500000D03*
D13*
X121920000Y-74375000D03*
X121920000Y-71675000D03*
X121920000Y-80725000D03*
X121920000Y-78025000D03*
D12*
X137240000Y-84455000D03*
X134540000Y-84455000D03*
X126920000Y-84455000D03*
X129620000Y-84455000D03*
D14*
X127000000Y-63660000D03*
X128270000Y-63660000D03*
X129540000Y-63660000D03*
X130810000Y-63660000D03*
X130810000Y-58260000D03*
X129540000Y-58260000D03*
X128270000Y-58260000D03*
X127000000Y-58260000D03*
D11*
X121920000Y-60305000D03*
X121920000Y-57805000D03*
X118110000Y-65425000D03*
X118110000Y-67925000D03*
D13*
X118110000Y-60405000D03*
X118110000Y-57705000D03*
D12*
X134540000Y-59055000D03*
X137240000Y-59055000D03*
D13*
X121920000Y-68025000D03*
X121920000Y-65325000D03*
D15*
X132080000Y-67295000D03*
X130080000Y-67295000D03*
X128080000Y-67295000D03*
X134080000Y-67295000D03*
X136080000Y-67295000D03*
D16*
X132080000Y-81795000D03*
X129580000Y-81795000D03*
X134580000Y-81795000D03*
D17*
X126480000Y-74295000D03*
X137680000Y-74295000D03*
D18*
X137160000Y-55245000D03*
D19*
X134620000Y-55245000D03*
X132080000Y-55245000D03*
X129540000Y-55245000D03*
X127000000Y-55245000D03*
D18*
X113665000Y-75565000D03*
D19*
X113665000Y-73025000D03*
X113665000Y-70485000D03*
X113665000Y-67945000D03*
D18*
X113665000Y-62865000D03*
D19*
X113665000Y-60325000D03*
X113665000Y-57785000D03*
X113665000Y-55245000D03*
D20*
X121920000Y-62230000D03*
X132080000Y-83820000D03*
X137160000Y-65405000D03*
X132080000Y-63500000D03*
X118110000Y-82550000D03*
X118110000Y-76200000D03*
X118110000Y-69850000D03*
X135890000Y-86360000D03*
X124460000Y-85090000D03*
X133350000Y-64770000D03*
D21*
X118110000Y-71775000D02*
X116860000Y-71775000D01*
X116860000Y-71775000D02*
X115570000Y-70485000D01*
X115570000Y-70485000D02*
X113665000Y-70485000D01*
X118110000Y-71775000D02*
X121820000Y-71775000D01*
X121820000Y-71775000D02*
X121920000Y-71675000D01*
D22*
X121920000Y-60305000D02*
X121920000Y-62230000D01*
X132080000Y-81795000D02*
X132080000Y-83820000D01*
X137240000Y-63500000D02*
X137240000Y-65325000D01*
X137240000Y-65325000D02*
X137160000Y-65405000D01*
X130810000Y-63660000D02*
X131920000Y-63660000D01*
X131920000Y-63660000D02*
X132080000Y-63500000D01*
X118110000Y-80625000D02*
X118110000Y-82550000D01*
X118110000Y-74275000D02*
X118110000Y-76200000D01*
X118110000Y-67925000D02*
X118110000Y-69850000D01*
D21*
X116205000Y-73660000D02*
X115570000Y-73025000D01*
X115570000Y-73025000D02*
X114867081Y-73025000D01*
X114867081Y-73025000D02*
X113665000Y-73025000D01*
X116205000Y-73660000D02*
X116205000Y-76095000D01*
X116205000Y-76095000D02*
X118110000Y-78000000D01*
X118110000Y-78000000D02*
X118110000Y-78125000D01*
X118110000Y-78125000D02*
X121820000Y-78125000D01*
X121820000Y-78125000D02*
X121920000Y-78025000D01*
X137240000Y-84455000D02*
X137240000Y-80090000D01*
X137240000Y-80090000D02*
X134620000Y-77470000D01*
X134620000Y-77470000D02*
X134620000Y-70485000D01*
X134620000Y-70485000D02*
X135890000Y-69215000D01*
X135890000Y-69215000D02*
X135890000Y-67485000D01*
X135890000Y-67485000D02*
X136080000Y-67295000D01*
X136525000Y-86360000D02*
X137240000Y-85645000D01*
X137240000Y-85645000D02*
X137240000Y-85613000D01*
X137240000Y-85613000D02*
X137240000Y-84455000D01*
X135890000Y-86360000D02*
X136525000Y-86360000D01*
X126920000Y-84455000D02*
X125095000Y-84455000D01*
X125095000Y-84455000D02*
X124460000Y-85090000D01*
X127000000Y-55245000D02*
X115570000Y-55245000D01*
X115570000Y-55245000D02*
X114935000Y-55880000D01*
D22*
X113665000Y-55245000D02*
X114300000Y-55880000D01*
X114300000Y-55880000D02*
X114935000Y-55880000D01*
X114935000Y-55880000D02*
X115570000Y-56515000D01*
X115570000Y-56515000D02*
X115570000Y-59531000D01*
X115570000Y-59531000D02*
X116444000Y-60405000D01*
X116444000Y-60405000D02*
X118110000Y-60405000D01*
D21*
X129580000Y-81795000D02*
X129580000Y-84415000D01*
X129580000Y-84415000D02*
X129620000Y-84455000D01*
X121920000Y-74375000D02*
X121920000Y-74475000D01*
X129240000Y-81795000D02*
X129580000Y-81795000D01*
X121920000Y-74475000D02*
X129240000Y-81795000D01*
X123190000Y-86360000D02*
X121920000Y-85090000D01*
X121920000Y-85090000D02*
X121920000Y-81983000D01*
X121920000Y-81983000D02*
X121920000Y-80725000D01*
X133793000Y-86360000D02*
X123190000Y-86360000D01*
X134540000Y-84455000D02*
X134540000Y-85613000D01*
X134540000Y-85613000D02*
X133793000Y-86360000D01*
X134580000Y-81795000D02*
X134580000Y-84415000D01*
X134580000Y-84415000D02*
X134540000Y-84455000D01*
X128270000Y-63660000D02*
X128270000Y-64770000D01*
X128270000Y-64770000D02*
X130080000Y-66580000D01*
X130080000Y-66580000D02*
X130080000Y-67295000D01*
X127000000Y-63660000D02*
X127000000Y-66215000D01*
X127000000Y-66215000D02*
X128080000Y-67295000D01*
X129540000Y-63660000D02*
X129540000Y-64770000D01*
X129540000Y-64770000D02*
X130365502Y-65595502D01*
X130365502Y-65595502D02*
X132905502Y-65595502D01*
X133350000Y-66040000D02*
X133985000Y-66040000D01*
X132905502Y-65595502D02*
X133350000Y-66040000D01*
X133985000Y-67200000D02*
X134080000Y-67295000D01*
X133985000Y-66040000D02*
X133985000Y-67200000D01*
D22*
X123665000Y-58260000D02*
X123665000Y-57909000D01*
X127000000Y-58260000D02*
X123665000Y-58260000D01*
X123665000Y-57909000D02*
X123561000Y-57805000D01*
X123561000Y-57805000D02*
X121920000Y-57805000D01*
X118110000Y-57705000D02*
X121820000Y-57705000D01*
X121820000Y-57705000D02*
X121920000Y-57805000D01*
D21*
X113665000Y-67945000D02*
X114935000Y-67945000D01*
X117455000Y-65425000D02*
X118110000Y-65425000D01*
X114935000Y-67945000D02*
X117455000Y-65425000D01*
X118110000Y-65425000D02*
X121820000Y-65425000D01*
X121820000Y-65425000D02*
X121920000Y-65325000D01*
X134428000Y-64770000D02*
X133799012Y-64770000D01*
X134540000Y-64658000D02*
X134428000Y-64770000D01*
X134540000Y-63500000D02*
X134540000Y-64658000D01*
X133799012Y-64770000D02*
X133350000Y-64770000D01*
X121920000Y-68025000D02*
X125175000Y-68025000D01*
X125175000Y-68025000D02*
X127000000Y-69850000D01*
X127000000Y-69850000D02*
X130810000Y-69850000D01*
X130810000Y-69850000D02*
X132080000Y-68580000D01*
X132080000Y-68580000D02*
X132080000Y-67295000D01*
X130175000Y-60178000D02*
X132159000Y-60178000D01*
X132159000Y-60178000D02*
X133282000Y-59055000D01*
X133282000Y-59055000D02*
X134540000Y-59055000D01*
X129540000Y-58260000D02*
X129540000Y-59543000D01*
X129540000Y-59543000D02*
X130175000Y-60178000D01*
X134620000Y-55245000D02*
X134620000Y-55880000D01*
X134620000Y-55880000D02*
X137240000Y-58500000D01*
X137240000Y-58500000D02*
X137240000Y-59055000D01*
X113665000Y-75565000D02*
X112307000Y-75565000D01*
X111125000Y-74383000D02*
X111125000Y-66040000D01*
X114935000Y-65405000D02*
X116840000Y-63500000D01*
X112307000Y-75565000D02*
X111125000Y-74383000D01*
X140970000Y-56515000D02*
X139700000Y-55245000D01*
X111125000Y-66040000D02*
X111760000Y-65405000D01*
X125730000Y-61595000D02*
X139700000Y-61595000D01*
X111760000Y-65405000D02*
X114935000Y-65405000D01*
X140970000Y-60325000D02*
X140970000Y-56515000D01*
X116840000Y-63500000D02*
X123825000Y-63500000D01*
X123825000Y-63500000D02*
X125730000Y-61595000D01*
X139700000Y-61595000D02*
X140970000Y-60325000D01*
X139700000Y-55245000D02*
X137160000Y-55245000D01*
X129540000Y-55245000D02*
X128270000Y-56515000D01*
X128270000Y-56515000D02*
X128270000Y-58260000D01*
X132080000Y-55245000D02*
X132080000Y-56990000D01*
X132080000Y-56990000D02*
X130810000Y-58260000D01*
M02*
