  0
SECTION
  2
HEADER
  9
$ANGBASE
  50
0.0
  9
$ANGDIR
  70
  1
  9
$MEASUREMENT
  70
0
  0
ENDSEC
  0
SECTION
  2
TABLES
  0
TABLE
  2
LTYPE
  70
1
  0
LTYPE
  2
CONTINUOUS
  70
0
  3
Solid line
  72
65
  73
0
  40
0.0
  0
ENDTAB
  0
TABLE
  2
STYLE
  70
4
  0
STYLE
  2
KICAD
  70
0
  40
0
  41
1
  42
1
  50
0
  71
0
  3
isocp.shx
  0
STYLE
  2
KICADB
  70
0
  40
0
  41
1
  42
1
  50
0
  71
0
  3
isocp.shx
  0
STYLE
  2
KICADI
  70
0
  40
0
  41
1
  42
1
  50
15
  71
0
  3
isocp.shx
  0
STYLE
  2
KICADBI
  70
0
  40
0
  41
1
  42
1
  50
15
  71
0
  3
isocp.shx
  0
ENDTAB
  0
TABLE
  2
LAYER
  70
30
  0
LAYER
  2
BLACK
  70
0
  62
7
  6
CONTINUOUS
  0
LAYER
  2
GRAY1
  70
0
  62
251
  6
CONTINUOUS
  0
LAYER
  2
GRAY2
  70
0
  62
8
  6
CONTINUOUS
  0
LAYER
  2
GRAY3
  70
0
  62
9
  6
CONTINUOUS
  0
LAYER
  2
WHITE
  70
0
  62
7
  6
CONTINUOUS
  0
LAYER
  2
LYELLOW
  70
0
  62
51
  6
CONTINUOUS
  0
LAYER
  2
BLUE1
  70
0
  62
178
  6
CONTINUOUS
  0
LAYER
  2
GREEN1
  70
0
  62
98
  6
CONTINUOUS
  0
LAYER
  2
CYAN1
  70
0
  62
138
  6
CONTINUOUS
  0
LAYER
  2
RED1
  70
0
  62
18
  6
CONTINUOUS
  0
LAYER
  2
MAGENTA1
  70
0
  62
228
  6
CONTINUOUS
  0
LAYER
  2
BROWN1
  70
0
  62
58
  6
CONTINUOUS
  0
LAYER
  2
BLUE2
  70
0
  62
5
  6
CONTINUOUS
  0
LAYER
  2
GREEN2
  70
0
  62
3
  6
CONTINUOUS
  0
LAYER
  2
CYAN2
  70
0
  62
4
  6
CONTINUOUS
  0
LAYER
  2
RED2
  70
0
  62
1
  6
CONTINUOUS
  0
LAYER
  2
MAGENTA2
  70
0
  62
6
  6
CONTINUOUS
  0
LAYER
  2
BROWN2
  70
0
  62
54
  6
CONTINUOUS
  0
LAYER
  2
BLUE3
  70
0
  62
171
  6
CONTINUOUS
  0
LAYER
  2
GREEN3
  70
0
  62
91
  6
CONTINUOUS
  0
LAYER
  2
CYAN3
  70
0
  62
131
  6
CONTINUOUS
  0
LAYER
  2
RED3
  70
0
  62
11
  6
CONTINUOUS
  0
LAYER
  2
MAGENTA3
  70
0
  62
221
  6
CONTINUOUS
  0
LAYER
  2
YELLOW3
  70
0
  62
2
  6
CONTINUOUS
  0
LAYER
  2
BLUE4
  70
0
  62
5
  6
CONTINUOUS
  0
LAYER
  2
GREEN4
  70
0
  62
3
  6
CONTINUOUS
  0
LAYER
  2
CYAN4
  70
0
  62
4
  6
CONTINUOUS
  0
LAYER
  2
RED4
  70
0
  62
1
  6
CONTINUOUS
  0
LAYER
  2
MAGENTA4
  70
0
  62
6
  6
CONTINUOUS
  0
LAYER
  2
YELLOW4
  70
0
  62
2
  6
CONTINUOUS
  0
ENDTAB
  0
ENDSEC
  0
SECTION
  2
ENTITIES
0
LINE
8
Black
10
112.732
20
-53.9762
11
112.739
21
-53.9758
0
LINE
8
Black
10
112.739
20
-53.9758
11
112.753
21
-53.98
0
LINE
8
Black
10
112.753
20
-53.98
11
112.768
21
-53.9827
0
LINE
8
Black
10
112.768
20
-53.9827
11
112.774
21
-53.9861
0
LINE
8
Black
10
112.774
20
-53.9861
11
112.781
21
-53.9881
0
LINE
8
Black
10
112.781
20
-53.9881
11
112.793
21
-53.9971
0
LINE
8
Black
10
112.793
20
-53.9971
11
112.807
21
-54.0047
0
LINE
8
Black
10
112.807
20
-54.0047
11
112.811
21
-54.0101
0
LINE
8
Black
10
112.811
20
-54.0101
11
112.817
21
-54.0142
0
LINE
8
Black
10
112.817
20
-54.0142
11
112.825
21
-54.0268
0
LINE
8
Black
10
112.825
20
-54.0268
11
112.835
21
-54.0385
0
LINE
8
Black
10
112.835
20
-54.0385
11
112.837
21
-54.0451
0
LINE
8
Black
10
112.837
20
-54.0451
11
112.841
21
-54.0509
0
LINE
8
Black
10
112.841
20
-54.0509
11
112.845
21
-54.0656
0
LINE
8
Black
10
112.845
20
-54.0656
11
112.85
21
-54.0799
0
LINE
8
Black
10
112.85
20
-54.0799
11
112.85
21
-54.0869
0
LINE
8
Black
10
112.85
20
-54.0869
11
112.852
21
-54.0937
0
LINE
8
Black
10
112.852
20
-54.0937
11
112.85
21
-54.1088
0
LINE
8
Black
10
112.85
20
-54.1088
11
112.85
21
-54.1241
0
LINE
8
Black
10
112.85
20
-54.1241
11
112.848
21
-54.1306
0
LINE
8
Black
10
112.848
20
-54.1306
11
112.847
21
-54.1375
0
LINE
8
Black
10
112.847
20
-54.1375
11
112.84
21
-54.1512
0
LINE
8
Black
10
112.84
20
-54.1512
11
112.835
21
-54.1655
0
LINE
8
Black
10
112.835
20
-54.1655
11
112.83
21
-54.1708
0
LINE
8
Black
10
112.83
20
-54.1708
11
112.827
21
-54.1771
0
LINE
8
Black
10
112.827
20
-54.1771
11
112.816
21
-54.1876
0
LINE
8
Black
10
112.816
20
-54.1876
11
112.807
21
-54.1993
0
LINE
8
Black
10
112.807
20
-54.1993
11
112.801
21
-54.2028
0
LINE
8
Black
10
112.801
20
-54.2028
11
112.796
21
-54.2076
0
LINE
8
Black
10
112.796
20
-54.2076
11
112.677
21
-54.2865
0
LINE
8
Black
10
112.677
20
-54.2865
11
112.384
21
-54.7263
0
LINE
8
Black
10
112.384
20
-54.7263
11
112.28
21
-55.245
0
LINE
8
Black
10
112.28
20
-55.245
11
112.384
21
-55.7637
0
LINE
8
Black
10
112.384
20
-55.7637
11
112.677
21
-56.2035
0
LINE
8
Black
10
112.677
20
-56.2035
11
112.997
21
-56.4171
0
LINE
8
Black
10
112.997
20
-56.4171
11
112.998
21
-56.418
0
LINE
8
Black
10
112.998
20
-56.418
11
112.999
21
-56.4185
0
LINE
8
Black
10
112.999
20
-56.4185
11
113.014
21
-56.4332
0
LINE
8
Black
10
113.014
20
-56.4332
11
113.029
21
-56.4476
0
LINE
8
Black
10
113.029
20
-56.4476
11
113.03
21
-56.4487
0
LINE
8
Black
10
113.03
20
-56.4487
11
113.03
21
-56.4496
0
LINE
8
Black
10
113.03
20
-56.4496
11
113.039
21
-56.4685
0
LINE
8
Black
10
113.039
20
-56.4685
11
113.048
21
-56.4872
0
LINE
8
Black
10
113.048
20
-56.4872
11
113.049
21
-56.4884
0
LINE
8
Black
10
113.049
20
-56.4884
11
113.049
21
-56.4895
0
LINE
8
Black
10
113.049
20
-56.4895
11
113.051
21
-56.5103
0
LINE
8
Black
10
113.051
20
-56.5103
11
113.053
21
-56.531
0
LINE
8
Black
10
113.053
20
-56.531
11
113.053
21
-56.5322
0
LINE
8
Black
10
113.053
20
-56.5322
11
113.053
21
-56.5334
0
LINE
8
Black
10
113.053
20
-56.5334
11
113.048
21
-56.5536
0
LINE
8
Black
10
113.048
20
-56.5536
11
113.043
21
-56.5739
0
LINE
8
Black
10
113.043
20
-56.5739
11
113.042
21
-56.5749
0
LINE
8
Black
10
113.042
20
-56.5749
11
113.042
21
-56.5761
0
LINE
8
Black
10
113.042
20
-56.5761
11
113.03
21
-56.5932
0
LINE
8
Black
10
113.03
20
-56.5932
11
113.018
21
-56.6105
0
LINE
8
Black
10
113.018
20
-56.6105
11
113.017
21
-56.6113
0
LINE
8
Black
10
113.017
20
-56.6113
11
113.017
21
-56.6123
0
LINE
8
Black
10
113.017
20
-56.6123
11
113
21
-56.6243
0
LINE
8
Black
10
113
20
-56.6243
11
112.983
21
-56.6366
0
LINE
8
Black
10
112.983
20
-56.6366
11
112.982
21
-56.6369
0
LINE
8
Black
10
112.982
20
-56.6369
11
112.981
21
-56.6377
0
LINE
8
Black
10
112.981
20
-56.6377
11
112.86
21
-56.694
0
LINE
8
Black
10
112.86
20
-56.694
11
112.502
21
-57.0872
0
LINE
8
Black
10
112.502
20
-57.0872
11
112.364
21
-57.4216
0
LINE
8
Black
10
112.364
20
-57.4216
11
112.421
21
-57.531
0
LINE
8
Black
10
112.421
20
-57.531
11
112.863
21
-57.531
0
LINE
8
Black
10
112.863
20
-57.531
11
112.926
21
-57.36
0
LINE
8
Black
10
112.926
20
-57.36
11
113.115
21
-57.1339
0
LINE
8
Black
10
113.115
20
-57.1339
11
113.371
21
-56.9863
0
LINE
8
Black
10
113.371
20
-56.9863
11
113.662
21
-56.935
0
LINE
8
Black
10
113.662
20
-56.935
11
113.668
21
-56.935
0
LINE
8
Black
10
113.668
20
-56.935
11
113.959
21
-56.9863
0
LINE
8
Black
10
113.959
20
-56.9863
11
114.215
21
-57.1339
0
LINE
8
Black
10
114.215
20
-57.1339
11
114.404
21
-57.36
0
LINE
8
Black
10
114.404
20
-57.36
11
114.467
21
-57.531
0
LINE
8
Black
10
114.467
20
-57.531
11
114.909
21
-57.531
0
LINE
8
Black
10
114.909
20
-57.531
11
114.966
21
-57.4216
0
LINE
8
Black
10
114.966
20
-57.4216
11
114.828
21
-57.0872
0
LINE
8
Black
10
114.828
20
-57.0872
11
114.47
21
-56.694
0
LINE
8
Black
10
114.47
20
-56.694
11
114.349
21
-56.6377
0
LINE
8
Black
10
114.349
20
-56.6377
11
114.348
21
-56.6369
0
LINE
8
Black
10
114.348
20
-56.6369
11
114.347
21
-56.6366
0
LINE
8
Black
10
114.347
20
-56.6366
11
114.33
21
-56.6242
0
LINE
8
Black
10
114.33
20
-56.6242
11
114.313
21
-56.6123
0
LINE
8
Black
10
114.313
20
-56.6123
11
114.313
21
-56.6113
0
LINE
8
Black
10
114.313
20
-56.6113
11
114.312
21
-56.6105
0
LINE
8
Black
10
114.312
20
-56.6105
11
114.3
21
-56.5932
0
LINE
8
Black
10
114.3
20
-56.5932
11
114.288
21
-56.5761
0
LINE
8
Black
10
114.288
20
-56.5761
11
114.288
21
-56.5749
0
LINE
8
Black
10
114.288
20
-56.5749
11
114.287
21
-56.5739
0
LINE
8
Black
10
114.287
20
-56.5739
11
114.282
21
-56.5536
0
LINE
8
Black
10
114.282
20
-56.5536
11
114.277
21
-56.5334
0
LINE
8
Black
10
114.277
20
-56.5334
11
114.277
21
-56.5322
0
LINE
8
Black
10
114.277
20
-56.5322
11
114.277
21
-56.531
0
LINE
8
Black
10
114.277
20
-56.531
11
114.279
21
-56.5103
0
LINE
8
Black
10
114.279
20
-56.5103
11
114.281
21
-56.4895
0
LINE
8
Black
10
114.281
20
-56.4895
11
114.281
21
-56.4884
0
LINE
8
Black
10
114.281
20
-56.4884
11
114.282
21
-56.4872
0
LINE
8
Black
10
114.282
20
-56.4872
11
114.291
21
-56.4685
0
LINE
8
Black
10
114.291
20
-56.4685
11
114.3
21
-56.4496
0
LINE
8
Black
10
114.3
20
-56.4496
11
114.3
21
-56.4487
0
LINE
8
Black
10
114.3
20
-56.4487
11
114.301
21
-56.4476
0
LINE
8
Black
10
114.301
20
-56.4476
11
114.316
21
-56.4332
0
LINE
8
Black
10
114.316
20
-56.4332
11
114.331
21
-56.4185
0
LINE
8
Black
10
114.331
20
-56.4185
11
114.332
21
-56.418
0
LINE
8
Black
10
114.332
20
-56.418
11
114.333
21
-56.4171
0
LINE
8
Black
10
114.333
20
-56.4171
11
114.653
21
-56.2035
0
LINE
8
Black
10
114.653
20
-56.2035
11
114.746
21
-56.0634
0
LINE
8
Black
10
114.746
20
-56.0634
11
114.759
21
-56.0505
0
LINE
8
Black
10
114.759
20
-56.0505
11
114.77
21
-56.0367
0
LINE
8
Black
10
114.77
20
-56.0367
11
114.774
21
-56.0346
0
LINE
8
Black
10
114.774
20
-56.0346
11
114.777
21
-56.0316
0
LINE
8
Black
10
114.777
20
-56.0316
11
114.793
21
-56.0236
0
LINE
8
Black
10
114.793
20
-56.0236
11
114.808
21
-56.0147
0
LINE
8
Black
10
114.808
20
-56.0147
11
114.812
21
-56.0139
0
LINE
8
Black
10
114.812
20
-56.0139
11
114.816
21
-56.0121
0
LINE
8
Black
10
114.816
20
-56.0121
11
114.834
21
-56.0101
0
LINE
8
Black
10
114.834
20
-56.0101
11
114.852
21
-56.007
0
LINE
8
Black
10
114.852
20
-56.007
11
117.107
21
-56.007
0
LINE
8
Black
10
117.107
20
-56.007
11
117.112
21
-56.008
0
LINE
8
Black
10
117.112
20
-56.008
11
117.118
21
-56.0075
0
LINE
8
Black
10
117.118
20
-56.0075
11
117.134
21
-56.0118
0
LINE
8
Black
10
117.134
20
-56.0118
11
117.15
21
-56.0147
0
LINE
8
Black
10
117.15
20
-56.0147
11
117.155
21
-56.0175
0
LINE
8
Black
10
117.155
20
-56.0175
11
117.16
21
-56.0189
0
LINE
8
Black
10
117.16
20
-56.0189
11
117.174
21
-56.0284
0
LINE
8
Black
10
117.174
20
-56.0284
11
117.188
21
-56.0367
0
LINE
8
Black
10
117.188
20
-56.0367
11
117.192
21
-56.041
0
LINE
8
Black
10
117.192
20
-56.041
11
117.197
21
-56.0442
0
LINE
8
Black
10
117.197
20
-56.0442
11
119.467
21
-58.315
0
LINE
8
Black
10
119.467
20
-58.315
11
119.724
21
-58.4867
0
LINE
8
Black
10
119.724
20
-58.4867
11
120.028
21
-58.547
0
LINE
8
Black
10
120.028
20
-58.547
11
138.697
21
-58.547
0
LINE
8
Black
10
138.697
20
-58.547
11
138.702
21
-58.548
0
LINE
8
Black
10
138.702
20
-58.548
11
138.708
21
-58.5475
0
LINE
8
Black
10
138.708
20
-58.5475
11
138.724
21
-58.5518
0
LINE
8
Black
10
138.724
20
-58.5518
11
138.74
21
-58.5547
0
LINE
8
Black
10
138.74
20
-58.5547
11
138.745
21
-58.5575
0
LINE
8
Black
10
138.745
20
-58.5575
11
138.75
21
-58.5589
0
LINE
8
Black
10
138.75
20
-58.5589
11
138.764
21
-58.5684
0
LINE
8
Black
10
138.764
20
-58.5684
11
138.778
21
-58.5767
0
LINE
8
Black
10
138.778
20
-58.5767
11
138.782
21
-58.581
0
LINE
8
Black
10
138.782
20
-58.581
11
138.787
21
-58.5842
0
LINE
8
Black
10
138.787
20
-58.5842
11
138.901
21
-58.6984
0
LINE
8
Black
10
138.901
20
-58.6984
11
138.904
21
-58.703
0
LINE
8
Black
10
138.904
20
-58.703
11
138.908
21
-58.7066
0
LINE
8
Black
10
138.908
20
-58.7066
11
138.917
21
-58.721
0
LINE
8
Black
10
138.917
20
-58.721
11
138.926
21
-58.7346
0
LINE
8
Black
10
138.926
20
-58.7346
11
138.928
21
-58.74
0
LINE
8
Black
10
138.928
20
-58.74
11
138.93
21
-58.7448
0
LINE
8
Black
10
138.93
20
-58.7448
11
138.933
21
-58.7611
0
LINE
8
Black
10
138.933
20
-58.7611
11
138.938
21
-58.7772
0
LINE
8
Black
10
138.938
20
-58.7772
11
138.937
21
-58.7827
0
LINE
8
Black
10
138.937
20
-58.7827
11
138.938
21
-58.7882
0
LINE
8
Black
10
138.938
20
-58.7882
11
138.938
21
-65.6718
0
LINE
8
Black
10
138.938
20
-65.6718
11
138.937
21
-65.6773
0
LINE
8
Black
10
138.937
20
-65.6773
11
138.938
21
-65.6828
0
LINE
8
Black
10
138.938
20
-65.6828
11
138.933
21
-65.6989
0
LINE
8
Black
10
138.933
20
-65.6989
11
138.93
21
-65.7152
0
LINE
8
Black
10
138.93
20
-65.7152
11
138.928
21
-65.72
0
LINE
8
Black
10
138.928
20
-65.72
11
138.926
21
-65.7254
0
LINE
8
Black
10
138.926
20
-65.7254
11
138.917
21
-65.739
0
LINE
8
Black
10
138.917
20
-65.739
11
138.908
21
-65.7534
0
LINE
8
Black
10
138.908
20
-65.7534
11
138.904
21
-65.757
0
LINE
8
Black
10
138.904
20
-65.757
11
138.901
21
-65.7616
0
LINE
8
Black
10
138.901
20
-65.7616
11
138.167
21
-66.4958
0
LINE
8
Black
10
138.167
20
-66.4958
11
138.162
21
-66.499
0
LINE
8
Black
10
138.162
20
-66.499
11
138.158
21
-66.5033
0
LINE
8
Black
10
138.158
20
-66.5033
11
138.144
21
-66.5116
0
LINE
8
Black
10
138.144
20
-66.5116
11
138.13
21
-66.5211
0
LINE
8
Black
10
138.13
20
-66.5211
11
138.125
21
-66.5225
0
LINE
8
Black
10
138.125
20
-66.5225
11
138.12
21
-66.5253
0
LINE
8
Black
10
138.12
20
-66.5253
11
138.104
21
-66.5282
0
LINE
8
Black
10
138.104
20
-66.5282
11
138.088
21
-66.5325
0
LINE
8
Black
10
138.088
20
-66.5325
11
138.082
21
-66.532
0
LINE
8
Black
10
138.082
20
-66.532
11
138.077
21
-66.533
0
LINE
8
Black
10
138.077
20
-66.533
11
137.166
21
-66.533
0
LINE
8
Black
10
137.166
20
-66.533
11
137.161
21
-66.532
0
LINE
8
Black
10
137.161
20
-66.532
11
137.155
21
-66.5325
0
LINE
8
Black
10
137.155
20
-66.5325
11
137.139
21
-66.5282
0
LINE
8
Black
10
137.139
20
-66.5282
11
137.123
21
-66.5253
0
LINE
8
Black
10
137.123
20
-66.5253
11
137.118
21
-66.5225
0
LINE
8
Black
10
137.118
20
-66.5225
11
137.113
21
-66.5211
0
LINE
8
Black
10
137.113
20
-66.5211
11
137.099
21
-66.5116
0
LINE
8
Black
10
137.099
20
-66.5116
11
137.085
21
-66.5033
0
LINE
8
Black
10
137.085
20
-66.5033
11
137.081
21
-66.499
0
LINE
8
Black
10
137.081
20
-66.499
11
137.077
21
-66.4957
0
LINE
8
Black
10
137.077
20
-66.4957
11
136.8
21
-66.219
0
LINE
8
Black
10
136.8
20
-66.219
11
136.334
21
-66.0252
0
LINE
8
Black
10
136.334
20
-66.0252
11
135.828
21
-66.0248
0
LINE
8
Black
10
135.828
20
-66.0248
11
135.362
21
-66.2177
0
LINE
8
Black
10
135.362
20
-66.2177
11
135.17
21
-66.4092
0
LINE
8
Black
10
135.17
20
-66.4092
11
135.161
21
-66.4156
0
LINE
8
Black
10
135.161
20
-66.4156
11
135.153
21
-66.4234
0
LINE
8
Black
10
135.153
20
-66.4234
11
135.143
21
-66.4281
0
LINE
8
Black
10
135.143
20
-66.4281
11
135.134
21
-66.4345
0
LINE
8
Black
10
135.134
20
-66.4345
11
135.123
21
-66.4374
0
LINE
8
Black
10
135.123
20
-66.4374
11
135.113
21
-66.442
0
LINE
8
Black
10
135.113
20
-66.442
11
135.102
21
-66.443
0
LINE
8
Black
10
135.102
20
-66.443
11
135.091
21
-66.4459
0
LINE
8
Black
10
135.091
20
-66.4459
11
135.08
21
-66.4449
0
LINE
8
Black
10
135.08
20
-66.4449
11
135.069
21
-66.4458
0
LINE
8
Black
10
135.069
20
-66.4458
11
135.058
21
-66.443
0
LINE
8
Black
10
135.058
20
-66.443
11
135.047
21
-66.442
0
LINE
8
Black
10
135.047
20
-66.442
11
135.037
21
-66.4373
0
LINE
8
Black
10
135.037
20
-66.4373
11
135.026
21
-66.4344
0
LINE
8
Black
10
135.026
20
-66.4344
11
135.017
21
-66.428
0
LINE
8
Black
10
135.017
20
-66.428
11
135.007
21
-66.4233
0
LINE
8
Black
10
135.007
20
-66.4233
11
134.999
21
-66.4154
0
LINE
8
Black
10
134.999
20
-66.4154
11
134.99
21
-66.4091
0
LINE
8
Black
10
134.99
20
-66.4091
11
134.8
21
-66.219
0
LINE
8
Black
10
134.8
20
-66.219
11
134.334
21
-66.0252
0
LINE
8
Black
10
134.334
20
-66.0252
11
133.828
21
-66.0248
0
LINE
8
Black
10
133.828
20
-66.0248
11
133.362
21
-66.2177
0
LINE
8
Black
10
133.362
20
-66.2177
11
133.17
21
-66.4092
0
LINE
8
Black
10
133.17
20
-66.4092
11
133.161
21
-66.4156
0
LINE
8
Black
10
133.161
20
-66.4156
11
133.153
21
-66.4234
0
LINE
8
Black
10
133.153
20
-66.4234
11
133.143
21
-66.4281
0
LINE
8
Black
10
133.143
20
-66.4281
11
133.134
21
-66.4345
0
LINE
8
Black
10
133.134
20
-66.4345
11
133.123
21
-66.4374
0
LINE
8
Black
10
133.123
20
-66.4374
11
133.113
21
-66.442
0
LINE
8
Black
10
133.113
20
-66.442
11
133.102
21
-66.443
0
LINE
8
Black
10
133.102
20
-66.443
11
133.091
21
-66.4459
0
LINE
8
Black
10
133.091
20
-66.4459
11
133.08
21
-66.4449
0
LINE
8
Black
10
133.08
20
-66.4449
11
133.069
21
-66.4458
0
LINE
8
Black
10
133.069
20
-66.4458
11
133.058
21
-66.443
0
LINE
8
Black
10
133.058
20
-66.443
11
133.047
21
-66.442
0
LINE
8
Black
10
133.047
20
-66.442
11
133.037
21
-66.4373
0
LINE
8
Black
10
133.037
20
-66.4373
11
133.026
21
-66.4344
0
LINE
8
Black
10
133.026
20
-66.4344
11
133.017
21
-66.428
0
LINE
8
Black
10
133.017
20
-66.428
11
133.007
21
-66.4233
0
LINE
8
Black
10
133.007
20
-66.4233
11
132.999
21
-66.4154
0
LINE
8
Black
10
132.999
20
-66.4154
11
132.99
21
-66.4091
0
LINE
8
Black
10
132.99
20
-66.4091
11
132.979
21
-66.398
0
LINE
8
Black
10
132.979
20
-66.398
11
132.973
21
-66.389
0
LINE
8
Black
10
132.973
20
-66.389
11
132.965
21
-66.3811
0
LINE
8
Black
10
132.965
20
-66.3811
11
132.96
21
-66.371
0
LINE
8
Black
10
132.96
20
-66.371
11
132.954
21
-66.3619
0
LINE
8
Black
10
132.954
20
-66.3619
11
132.951
21
-66.3512
0
LINE
8
Black
10
132.951
20
-66.3512
11
132.946
21
-66.3412
0
LINE
8
Black
10
132.946
20
-66.3412
11
132.945
21
-66.33
0
LINE
8
Black
10
132.945
20
-66.33
11
132.942
21
-66.3192
0
LINE
8
Black
10
132.942
20
-66.3192
11
132.943
21
-66.3082
0
LINE
8
Black
10
132.943
20
-66.3082
11
132.942
21
-66.2972
0
LINE
8
Black
10
132.942
20
-66.2972
11
132.945
21
-66.2864
0
LINE
8
Black
10
132.945
20
-66.2864
11
132.946
21
-66.2753
0
LINE
8
Black
10
132.946
20
-66.2753
11
132.951
21
-66.2653
0
LINE
8
Black
10
132.951
20
-66.2653
11
132.954
21
-66.2546
0
LINE
8
Black
10
132.954
20
-66.2546
11
132.96
21
-66.2455
0
LINE
8
Black
10
132.96
20
-66.2455
11
132.965
21
-66.2354
0
LINE
8
Black
10
132.965
20
-66.2354
11
132.973
21
-66.2275
0
LINE
8
Black
10
132.973
20
-66.2275
11
132.979
21
-66.2185
0
LINE
8
Black
10
132.979
20
-66.2185
11
133.646
21
-65.5512
0
LINE
8
Black
10
133.646
20
-65.5512
11
133.649
21
-65.5496
0
LINE
8
Black
10
133.649
20
-65.5496
11
133.65
21
-65.5473
0
LINE
8
Black
10
133.65
20
-65.5473
11
133.667
21
-65.537
0
LINE
8
Black
10
133.667
20
-65.537
11
133.683
21
-65.5259
0
LINE
8
Black
10
133.683
20
-65.5259
11
133.685
21
-65.5252
0
LINE
8
Black
10
133.685
20
-65.5252
11
133.688
21
-65.5237
0
LINE
8
Black
10
133.688
20
-65.5237
11
133.817
21
-65.4702
0
LINE
8
Black
10
133.817
20
-65.4702
11
134.049
21
-65.2382
0
LINE
8
Black
10
134.049
20
-65.2382
11
134.175
21
-64.9349
0
LINE
8
Black
10
134.175
20
-64.9349
11
134.176
21
-64.6065
0
LINE
8
Black
10
134.176
20
-64.6065
11
134.05
21
-64.303
0
LINE
8
Black
10
134.05
20
-64.303
11
133.818
21
-64.0706
0
LINE
8
Black
10
133.818
20
-64.0706
11
133.515
21
-63.9446
0
LINE
8
Black
10
133.515
20
-63.9446
11
133.187
21
-63.9444
0
LINE
8
Black
10
133.187
20
-63.9444
11
132.883
21
-64.0698
0
LINE
8
Black
10
132.883
20
-64.0698
11
132.651
21
-64.3018
0
LINE
8
Black
10
132.651
20
-64.3018
11
132.596
21
-64.4324
0
LINE
8
Black
10
132.596
20
-64.4324
11
132.595
21
-64.4347
0
LINE
8
Black
10
132.595
20
-64.4347
11
132.594
21
-64.4374
0
LINE
8
Black
10
132.594
20
-64.4374
11
132.583
21
-64.4533
0
LINE
8
Black
10
132.583
20
-64.4533
11
132.573
21
-64.4696
0
LINE
8
Black
10
132.573
20
-64.4696
11
132.57
21
-64.4713
0
LINE
8
Black
10
132.57
20
-64.4713
11
132.569
21
-64.4735
0
LINE
8
Black
10
132.569
20
-64.4735
11
131.55
21
-65.4923
0
LINE
8
Black
10
131.55
20
-65.4923
11
131.378
21
-65.7493
0
LINE
8
Black
10
131.378
20
-65.7493
11
131.318
21
-66.0525
0
LINE
8
Black
10
131.318
20
-66.0525
11
131.318
21
-66.2085
0
LINE
8
Black
10
131.318
20
-66.2085
11
131.317
21
-66.2141
0
LINE
8
Black
10
131.317
20
-66.2141
11
131.318
21
-66.2197
0
LINE
8
Black
10
131.318
20
-66.2197
11
131.313
21
-66.2357
0
LINE
8
Black
10
131.313
20
-66.2357
11
131.31
21
-66.252
0
LINE
8
Black
10
131.31
20
-66.252
11
131.308
21
-66.2568
0
LINE
8
Black
10
131.308
20
-66.2568
11
131.306
21
-66.2623
0
LINE
8
Black
10
131.306
20
-66.2623
11
131.297
21
-66.2758
0
LINE
8
Black
10
131.297
20
-66.2758
11
131.288
21
-66.2901
0
LINE
8
Black
10
131.288
20
-66.2901
11
131.284
21
-66.2938
0
LINE
8
Black
10
131.284
20
-66.2938
11
131.281
21
-66.2984
0
LINE
8
Black
10
131.281
20
-66.2984
11
131.17
21
-66.4092
0
LINE
8
Black
10
131.17
20
-66.4092
11
131.161
21
-66.4156
0
LINE
8
Black
10
131.161
20
-66.4156
11
131.153
21
-66.4234
0
LINE
8
Black
10
131.153
20
-66.4234
11
131.143
21
-66.4281
0
LINE
8
Black
10
131.143
20
-66.4281
11
131.134
21
-66.4345
0
LINE
8
Black
10
131.134
20
-66.4345
11
131.123
21
-66.4374
0
LINE
8
Black
10
131.123
20
-66.4374
11
131.113
21
-66.442
0
LINE
8
Black
10
131.113
20
-66.442
11
131.102
21
-66.443
0
LINE
8
Black
10
131.102
20
-66.443
11
131.091
21
-66.4459
0
LINE
8
Black
10
131.091
20
-66.4459
11
131.08
21
-66.4449
0
LINE
8
Black
10
131.08
20
-66.4449
11
131.069
21
-66.4458
0
LINE
8
Black
10
131.069
20
-66.4458
11
131.058
21
-66.443
0
LINE
8
Black
10
131.058
20
-66.443
11
131.047
21
-66.442
0
LINE
8
Black
10
131.047
20
-66.442
11
131.037
21
-66.4373
0
LINE
8
Black
10
131.037
20
-66.4373
11
131.026
21
-66.4344
0
LINE
8
Black
10
131.026
20
-66.4344
11
131.017
21
-66.428
0
LINE
8
Black
10
131.017
20
-66.428
11
131.007
21
-66.4233
0
LINE
8
Black
10
131.007
20
-66.4233
11
130.999
21
-66.4154
0
LINE
8
Black
10
130.999
20
-66.4154
11
130.99
21
-66.4091
0
LINE
8
Black
10
130.99
20
-66.4091
11
130.8
21
-66.219
0
LINE
8
Black
10
130.8
20
-66.219
11
130.334
21
-66.0252
0
LINE
8
Black
10
130.334
20
-66.0252
11
129.828
21
-66.0248
0
LINE
8
Black
10
129.828
20
-66.0248
11
129.362
21
-66.2177
0
LINE
8
Black
10
129.362
20
-66.2177
11
129.17
21
-66.4092
0
LINE
8
Black
10
129.17
20
-66.4092
11
129.161
21
-66.4156
0
LINE
8
Black
10
129.161
20
-66.4156
11
129.153
21
-66.4234
0
LINE
8
Black
10
129.153
20
-66.4234
11
129.143
21
-66.4281
0
LINE
8
Black
10
129.143
20
-66.4281
11
129.134
21
-66.4345
0
LINE
8
Black
10
129.134
20
-66.4345
11
129.123
21
-66.4374
0
LINE
8
Black
10
129.123
20
-66.4374
11
129.113
21
-66.442
0
LINE
8
Black
10
129.113
20
-66.442
11
129.102
21
-66.443
0
LINE
8
Black
10
129.102
20
-66.443
11
129.091
21
-66.4459
0
LINE
8
Black
10
129.091
20
-66.4459
11
129.08
21
-66.4449
0
LINE
8
Black
10
129.08
20
-66.4449
11
129.069
21
-66.4458
0
LINE
8
Black
10
129.069
20
-66.4458
11
129.058
21
-66.443
0
LINE
8
Black
10
129.058
20
-66.443
11
129.047
21
-66.442
0
LINE
8
Black
10
129.047
20
-66.442
11
129.037
21
-66.4373
0
LINE
8
Black
10
129.037
20
-66.4373
11
129.026
21
-66.4344
0
LINE
8
Black
10
129.026
20
-66.4344
11
129.017
21
-66.428
0
LINE
8
Black
10
129.017
20
-66.428
11
129.007
21
-66.4233
0
LINE
8
Black
10
129.007
20
-66.4233
11
128.999
21
-66.4154
0
LINE
8
Black
10
128.999
20
-66.4154
11
128.99
21
-66.4091
0
LINE
8
Black
10
128.99
20
-66.4091
11
128.8
21
-66.219
0
LINE
8
Black
10
128.8
20
-66.219
11
128.334
21
-66.0252
0
LINE
8
Black
10
128.334
20
-66.0252
11
127.828
21
-66.0248
0
LINE
8
Black
10
127.828
20
-66.0248
11
127.362
21
-66.2177
0
LINE
8
Black
10
127.362
20
-66.2177
11
127.004
21
-66.5747
0
LINE
8
Black
10
127.004
20
-66.5747
11
126.81
21
-67.0413
0
LINE
8
Black
10
126.81
20
-67.0413
11
126.81
21
-67.5465
0
LINE
8
Black
10
126.81
20
-67.5465
11
127.003
21
-68.0135
0
LINE
8
Black
10
127.003
20
-68.0135
11
127.36
21
-68.371
0
LINE
8
Black
10
127.36
20
-68.371
11
127.826
21
-68.5648
0
LINE
8
Black
10
127.826
20
-68.5648
11
128.332
21
-68.5652
0
LINE
8
Black
10
128.332
20
-68.5652
11
128.798
21
-68.3723
0
LINE
8
Black
10
128.798
20
-68.3723
11
128.99
21
-68.1808
0
LINE
8
Black
10
128.99
20
-68.1808
11
128.999
21
-68.1744
0
LINE
8
Black
10
128.999
20
-68.1744
11
129.007
21
-68.1666
0
LINE
8
Black
10
129.007
20
-68.1666
11
129.017
21
-68.1619
0
LINE
8
Black
10
129.017
20
-68.1619
11
129.026
21
-68.1555
0
LINE
8
Black
10
129.026
20
-68.1555
11
129.037
21
-68.1526
0
LINE
8
Black
10
129.037
20
-68.1526
11
129.047
21
-68.148
0
LINE
8
Black
10
129.047
20
-68.148
11
129.058
21
-68.147
0
LINE
8
Black
10
129.058
20
-68.147
11
129.069
21
-68.1441
0
LINE
8
Black
10
129.069
20
-68.1441
11
129.08
21
-68.1451
0
LINE
8
Black
10
129.08
20
-68.1451
11
129.091
21
-68.1442
0
LINE
8
Black
10
129.091
20
-68.1442
11
129.102
21
-68.147
0
LINE
8
Black
10
129.102
20
-68.147
11
129.113
21
-68.148
0
LINE
8
Black
10
129.113
20
-68.148
11
129.123
21
-68.1527
0
LINE
8
Black
10
129.123
20
-68.1527
11
129.134
21
-68.1556
0
LINE
8
Black
10
129.134
20
-68.1556
11
129.143
21
-68.162
0
LINE
8
Black
10
129.143
20
-68.162
11
129.153
21
-68.1667
0
LINE
8
Black
10
129.153
20
-68.1667
11
129.161
21
-68.1746
0
LINE
8
Black
10
129.161
20
-68.1746
11
129.17
21
-68.1809
0
LINE
8
Black
10
129.17
20
-68.1809
11
129.36
21
-68.371
0
LINE
8
Black
10
129.36
20
-68.371
11
129.826
21
-68.5648
0
LINE
8
Black
10
129.826
20
-68.5648
11
130.332
21
-68.5652
0
LINE
8
Black
10
130.332
20
-68.5652
11
130.798
21
-68.3723
0
LINE
8
Black
10
130.798
20
-68.3723
11
130.99
21
-68.1808
0
LINE
8
Black
10
130.99
20
-68.1808
11
130.999
21
-68.1744
0
LINE
8
Black
10
130.999
20
-68.1744
11
131.007
21
-68.1666
0
LINE
8
Black
10
131.007
20
-68.1666
11
131.017
21
-68.1619
0
LINE
8
Black
10
131.017
20
-68.1619
11
131.026
21
-68.1555
0
LINE
8
Black
10
131.026
20
-68.1555
11
131.037
21
-68.1526
0
LINE
8
Black
10
131.037
20
-68.1526
11
131.047
21
-68.148
0
LINE
8
Black
10
131.047
20
-68.148
11
131.058
21
-68.147
0
LINE
8
Black
10
131.058
20
-68.147
11
131.069
21
-68.1441
0
LINE
8
Black
10
131.069
20
-68.1441
11
131.08
21
-68.1451
0
LINE
8
Black
10
131.08
20
-68.1451
11
131.091
21
-68.1442
0
LINE
8
Black
10
131.091
20
-68.1442
11
131.102
21
-68.147
0
LINE
8
Black
10
131.102
20
-68.147
11
131.113
21
-68.148
0
LINE
8
Black
10
131.113
20
-68.148
11
131.123
21
-68.1527
0
LINE
8
Black
10
131.123
20
-68.1527
11
131.134
21
-68.1556
0
LINE
8
Black
10
131.134
20
-68.1556
11
131.143
21
-68.162
0
LINE
8
Black
10
131.143
20
-68.162
11
131.153
21
-68.1667
0
LINE
8
Black
10
131.153
20
-68.1667
11
131.161
21
-68.1746
0
LINE
8
Black
10
131.161
20
-68.1746
11
131.17
21
-68.1809
0
LINE
8
Black
10
131.17
20
-68.1809
11
131.36
21
-68.371
0
LINE
8
Black
10
131.36
20
-68.371
11
131.826
21
-68.5648
0
LINE
8
Black
10
131.826
20
-68.5648
11
132.332
21
-68.5652
0
LINE
8
Black
10
132.332
20
-68.5652
11
132.798
21
-68.3723
0
LINE
8
Black
10
132.798
20
-68.3723
11
132.99
21
-68.1808
0
LINE
8
Black
10
132.99
20
-68.1808
11
132.999
21
-68.1744
0
LINE
8
Black
10
132.999
20
-68.1744
11
133.007
21
-68.1666
0
LINE
8
Black
10
133.007
20
-68.1666
11
133.017
21
-68.1619
0
LINE
8
Black
10
133.017
20
-68.1619
11
133.026
21
-68.1555
0
LINE
8
Black
10
133.026
20
-68.1555
11
133.037
21
-68.1526
0
LINE
8
Black
10
133.037
20
-68.1526
11
133.047
21
-68.148
0
LINE
8
Black
10
133.047
20
-68.148
11
133.058
21
-68.147
0
LINE
8
Black
10
133.058
20
-68.147
11
133.069
21
-68.1441
0
LINE
8
Black
10
133.069
20
-68.1441
11
133.08
21
-68.1451
0
LINE
8
Black
10
133.08
20
-68.1451
11
133.091
21
-68.1442
0
LINE
8
Black
10
133.091
20
-68.1442
11
133.102
21
-68.147
0
LINE
8
Black
10
133.102
20
-68.147
11
133.113
21
-68.148
0
LINE
8
Black
10
133.113
20
-68.148
11
133.123
21
-68.1527
0
LINE
8
Black
10
133.123
20
-68.1527
11
133.134
21
-68.1556
0
LINE
8
Black
10
133.134
20
-68.1556
11
133.143
21
-68.162
0
LINE
8
Black
10
133.143
20
-68.162
11
133.153
21
-68.1667
0
LINE
8
Black
10
133.153
20
-68.1667
11
133.161
21
-68.1746
0
LINE
8
Black
10
133.161
20
-68.1746
11
133.17
21
-68.1809
0
LINE
8
Black
10
133.17
20
-68.1809
11
133.36
21
-68.371
0
LINE
8
Black
10
133.36
20
-68.371
11
133.826
21
-68.5648
0
LINE
8
Black
10
133.826
20
-68.5648
11
134.332
21
-68.5652
0
LINE
8
Black
10
134.332
20
-68.5652
11
134.798
21
-68.3723
0
LINE
8
Black
10
134.798
20
-68.3723
11
134.99
21
-68.1808
0
LINE
8
Black
10
134.99
20
-68.1808
11
134.999
21
-68.1744
0
LINE
8
Black
10
134.999
20
-68.1744
11
135.007
21
-68.1666
0
LINE
8
Black
10
135.007
20
-68.1666
11
135.017
21
-68.1619
0
LINE
8
Black
10
135.017
20
-68.1619
11
135.026
21
-68.1555
0
LINE
8
Black
10
135.026
20
-68.1555
11
135.037
21
-68.1526
0
LINE
8
Black
10
135.037
20
-68.1526
11
135.047
21
-68.148
0
LINE
8
Black
10
135.047
20
-68.148
11
135.058
21
-68.147
0
LINE
8
Black
10
135.058
20
-68.147
11
135.069
21
-68.1441
0
LINE
8
Black
10
135.069
20
-68.1441
11
135.08
21
-68.1451
0
LINE
8
Black
10
135.08
20
-68.1451
11
135.091
21
-68.1442
0
LINE
8
Black
10
135.091
20
-68.1442
11
135.102
21
-68.147
0
LINE
8
Black
10
135.102
20
-68.147
11
135.113
21
-68.148
0
LINE
8
Black
10
135.113
20
-68.148
11
135.123
21
-68.1527
0
LINE
8
Black
10
135.123
20
-68.1527
11
135.134
21
-68.1556
0
LINE
8
Black
10
135.134
20
-68.1556
11
135.143
21
-68.162
0
LINE
8
Black
10
135.143
20
-68.162
11
135.153
21
-68.1667
0
LINE
8
Black
10
135.153
20
-68.1667
11
135.161
21
-68.1746
0
LINE
8
Black
10
135.161
20
-68.1746
11
135.17
21
-68.1809
0
LINE
8
Black
10
135.17
20
-68.1809
11
135.36
21
-68.371
0
LINE
8
Black
10
135.36
20
-68.371
11
135.826
21
-68.5648
0
LINE
8
Black
10
135.826
20
-68.5648
11
136.332
21
-68.5652
0
LINE
8
Black
10
136.332
20
-68.5652
11
136.798
21
-68.3723
0
LINE
8
Black
10
136.798
20
-68.3723
11
137.077
21
-68.0941
0
LINE
8
Black
10
137.077
20
-68.0941
11
137.082
21
-68.0909
0
LINE
8
Black
10
137.082
20
-68.0909
11
137.085
21
-68.0867
0
LINE
8
Black
10
137.085
20
-68.0867
11
137.1
21
-68.0784
0
LINE
8
Black
10
137.1
20
-68.0784
11
137.113
21
-68.0689
0
LINE
8
Black
10
137.113
20
-68.0689
11
137.119
21
-68.0674
0
LINE
8
Black
10
137.119
20
-68.0674
11
137.123
21
-68.0647
0
LINE
8
Black
10
137.123
20
-68.0647
11
137.14
21
-68.0618
0
LINE
8
Black
10
137.14
20
-68.0618
11
137.156
21
-68.0575
0
LINE
8
Black
10
137.156
20
-68.0575
11
137.161
21
-68.058
0
LINE
8
Black
10
137.161
20
-68.058
11
137.167
21
-68.057
0
LINE
8
Black
10
137.167
20
-68.057
11
138.432
21
-68.057
0
LINE
8
Black
10
138.432
20
-68.057
11
138.736
21
-67.9967
0
LINE
8
Black
10
138.736
20
-67.9967
11
138.993
21
-67.825
0
LINE
8
Black
10
138.993
20
-67.825
11
140.23
21
-66.5877
0
LINE
8
Black
10
140.23
20
-66.5877
11
140.287
21
-66.5025
0
LINE
8
Black
10
140.287
20
-66.5025
11
140.287
21
-66.5025
0
LINE
8
Black
10
140.287
20
-66.5025
11
140.402
21
-66.3307
0
LINE
8
Black
10
140.402
20
-66.3307
11
140.462
21
-66.0275
0
LINE
8
Black
10
140.462
20
-66.0275
11
140.462
21
-58.4325
0
LINE
8
Black
10
140.462
20
-58.4325
11
140.409
21
-58.1667
0
LINE
8
Black
10
140.409
20
-58.1667
11
140.409
21
-58.1667
0
LINE
8
Black
10
140.409
20
-58.1667
11
140.402
21
-58.1293
0
LINE
8
Black
10
140.402
20
-58.1293
11
140.23
21
-57.8723
0
LINE
8
Black
10
140.23
20
-57.8723
11
139.613
21
-57.255
0
LINE
8
Black
10
139.613
20
-57.255
11
139.356
21
-57.0833
0
LINE
8
Black
10
139.356
20
-57.0833
11
139.052
21
-57.023
0
LINE
8
Black
10
139.052
20
-57.023
11
120.383
21
-57.023
0
LINE
8
Black
10
120.383
20
-57.023
11
120.378
21
-57.022
0
LINE
8
Black
10
120.378
20
-57.022
11
120.372
21
-57.0225
0
LINE
8
Black
10
120.372
20
-57.0225
11
120.356
21
-57.0182
0
LINE
8
Black
10
120.356
20
-57.0182
11
120.34
21
-57.0153
0
LINE
8
Black
10
120.34
20
-57.0153
11
120.335
21
-57.0125
0
LINE
8
Black
10
120.335
20
-57.0125
11
120.33
21
-57.0111
0
LINE
8
Black
10
120.33
20
-57.0111
11
120.316
21
-57.0016
0
LINE
8
Black
10
120.316
20
-57.0016
11
120.302
21
-56.9933
0
LINE
8
Black
10
120.302
20
-56.9933
11
120.298
21
-56.989
0
LINE
8
Black
10
120.298
20
-56.989
11
120.293
21
-56.9858
0
LINE
8
Black
10
120.293
20
-56.9858
11
118.023
21
-54.715
0
LINE
8
Black
10
118.023
20
-54.715
11
117.766
21
-54.5433
0
LINE
8
Black
10
117.766
20
-54.5433
11
117.462
21
-54.483
0
LINE
8
Black
10
117.462
20
-54.483
11
114.852
21
-54.483
0
LINE
8
Black
10
114.852
20
-54.483
11
114.834
21
-54.4799
0
LINE
8
Black
10
114.834
20
-54.4799
11
114.816
21
-54.4779
0
LINE
8
Black
10
114.816
20
-54.4779
11
114.812
21
-54.4761
0
LINE
8
Black
10
114.812
20
-54.4761
11
114.808
21
-54.4753
0
LINE
8
Black
10
114.808
20
-54.4753
11
114.793
21
-54.4664
0
LINE
8
Black
10
114.793
20
-54.4664
11
114.777
21
-54.4584
0
LINE
8
Black
10
114.777
20
-54.4584
11
114.774
21
-54.4554
0
LINE
8
Black
10
114.774
20
-54.4554
11
114.77
21
-54.4533
0
LINE
8
Black
10
114.77
20
-54.4533
11
114.759
21
-54.4395
0
LINE
8
Black
10
114.759
20
-54.4395
11
114.746
21
-54.4266
0
LINE
8
Black
10
114.746
20
-54.4266
11
114.653
21
-54.2865
0
LINE
8
Black
10
114.653
20
-54.2865
11
114.534
21
-54.2076
0
LINE
8
Black
10
114.534
20
-54.2076
11
114.529
21
-54.2028
0
LINE
8
Black
10
114.529
20
-54.2028
11
114.523
21
-54.1993
0
LINE
8
Black
10
114.523
20
-54.1993
11
114.514
21
-54.1876
0
LINE
8
Black
10
114.514
20
-54.1876
11
114.503
21
-54.1771
0
LINE
8
Black
10
114.503
20
-54.1771
11
114.5
21
-54.1708
0
LINE
8
Black
10
114.5
20
-54.1708
11
114.495
21
-54.1655
0
LINE
8
Black
10
114.495
20
-54.1655
11
114.49
21
-54.1512
0
LINE
8
Black
10
114.49
20
-54.1512
11
114.483
21
-54.1375
0
LINE
8
Black
10
114.483
20
-54.1375
11
114.482
21
-54.1306
0
LINE
8
Black
10
114.482
20
-54.1306
11
114.48
21
-54.1241
0
LINE
8
Black
10
114.48
20
-54.1241
11
114.48
21
-54.1088
0
LINE
8
Black
10
114.48
20
-54.1088
11
114.478
21
-54.0937
0
LINE
8
Black
10
114.478
20
-54.0937
11
114.48
21
-54.0869
0
LINE
8
Black
10
114.48
20
-54.0869
11
114.48
21
-54.0799
0
LINE
8
Black
10
114.48
20
-54.0799
11
114.485
21
-54.0656
0
LINE
8
Black
10
114.485
20
-54.0656
11
114.489
21
-54.0509
0
LINE
8
Black
10
114.489
20
-54.0509
11
114.493
21
-54.0451
0
LINE
8
Black
10
114.493
20
-54.0451
11
114.495
21
-54.0385
0
LINE
8
Black
10
114.495
20
-54.0385
11
114.505
21
-54.0268
0
LINE
8
Black
10
114.505
20
-54.0268
11
114.513
21
-54.0142
0
LINE
8
Black
10
114.513
20
-54.0142
11
114.519
21
-54.0101
0
LINE
8
Black
10
114.519
20
-54.0101
11
114.523
21
-54.0047
0
LINE
8
Black
10
114.523
20
-54.0047
11
114.537
21
-53.9971
0
LINE
8
Black
10
114.537
20
-53.9971
11
114.549
21
-53.9881
0
LINE
8
Black
10
114.549
20
-53.9881
11
114.556
21
-53.9861
0
LINE
8
Black
10
114.556
20
-53.9861
11
114.562
21
-53.9827
0
LINE
8
Black
10
114.562
20
-53.9827
11
114.577
21
-53.98
0
LINE
8
Black
10
114.577
20
-53.98
11
114.591
21
-53.9758
0
LINE
8
Black
10
114.591
20
-53.9758
11
114.598
21
-53.9762
0
LINE
8
Black
10
114.598
20
-53.9762
11
114.605
21
-53.975
0
LINE
8
Black
10
114.605
20
-53.975
11
126.046
21
-53.975
0
LINE
8
Black
10
126.046
20
-53.975
11
126.052
21
-53.9762
0
LINE
8
Black
10
126.052
20
-53.9762
11
126.059
21
-53.9758
0
LINE
8
Black
10
126.059
20
-53.9758
11
126.074
21
-53.98
0
LINE
8
Black
10
126.074
20
-53.98
11
126.089
21
-53.9827
0
LINE
8
Black
10
126.089
20
-53.9827
11
126.095
21
-53.9861
0
LINE
8
Black
10
126.095
20
-53.9861
11
126.102
21
-53.9881
0
LINE
8
Black
10
126.102
20
-53.9881
11
126.114
21
-53.9971
0
LINE
8
Black
10
126.114
20
-53.9971
11
126.127
21
-54.0047
0
LINE
8
Black
10
126.127
20
-54.0047
11
126.132
21
-54.0101
0
LINE
8
Black
10
126.132
20
-54.0101
11
126.137
21
-54.0142
0
LINE
8
Black
10
126.137
20
-54.0142
11
126.146
21
-54.0268
0
LINE
8
Black
10
126.146
20
-54.0268
11
126.155
21
-54.0385
0
LINE
8
Black
10
126.155
20
-54.0385
11
126.158
21
-54.0451
0
LINE
8
Black
10
126.158
20
-54.0451
11
126.162
21
-54.0509
0
LINE
8
Black
10
126.162
20
-54.0509
11
126.165
21
-54.0656
0
LINE
8
Black
10
126.165
20
-54.0656
11
126.171
21
-54.0799
0
LINE
8
Black
10
126.171
20
-54.0799
11
126.171
21
-54.0869
0
LINE
8
Black
10
126.171
20
-54.0869
11
126.172
21
-54.0937
0
LINE
8
Black
10
126.172
20
-54.0937
11
126.171
21
-54.1088
0
LINE
8
Black
10
126.171
20
-54.1088
11
126.171
21
-54.1241
0
LINE
8
Black
10
126.171
20
-54.1241
11
126.168
21
-54.1306
0
LINE
8
Black
10
126.168
20
-54.1306
11
126.167
21
-54.1375
0
LINE
8
Black
10
126.167
20
-54.1375
11
126.161
21
-54.1512
0
LINE
8
Black
10
126.161
20
-54.1512
11
126.155
21
-54.1655
0
LINE
8
Black
10
126.155
20
-54.1655
11
126.151
21
-54.1708
0
LINE
8
Black
10
126.151
20
-54.1708
11
126.148
21
-54.1771
0
LINE
8
Black
10
126.148
20
-54.1771
11
126.137
21
-54.1876
0
LINE
8
Black
10
126.137
20
-54.1876
11
126.127
21
-54.1993
0
LINE
8
Black
10
126.127
20
-54.1993
11
126.121
21
-54.2028
0
LINE
8
Black
10
126.121
20
-54.2028
11
126.116
21
-54.2076
0
LINE
8
Black
10
126.116
20
-54.2076
11
126.042
21
-54.2574
0
LINE
8
Black
10
126.042
20
-54.2574
11
125.748
21
-54.6972
0
LINE
8
Black
10
125.748
20
-54.6972
11
125.642
21
-55.2284
0
LINE
8
Black
10
125.642
20
-55.2284
11
125.642
21
-55.2616
0
LINE
8
Black
10
125.642
20
-55.2616
11
125.748
21
-55.7928
0
LINE
8
Black
10
125.748
20
-55.7928
11
126.042
21
-56.2326
0
LINE
8
Black
10
126.042
20
-56.2326
11
126.481
21
-56.5264
0
LINE
8
Black
10
126.481
20
-56.5264
11
127
21
-56.6296
0
LINE
8
Black
10
127
20
-56.6296
11
127.519
21
-56.5264
0
LINE
8
Black
10
127.519
20
-56.5264
11
127.958
21
-56.2326
0
LINE
8
Black
10
127.958
20
-56.2326
11
128.164
21
-55.9244
0
LINE
8
Black
10
128.164
20
-55.9244
11
128.174
21
-55.9144
0
LINE
8
Black
10
128.174
20
-55.9144
11
128.182
21
-55.9032
0
LINE
8
Black
10
128.182
20
-55.9032
11
128.189
21
-55.8986
0
LINE
8
Black
10
128.189
20
-55.8986
11
128.195
21
-55.8926
0
LINE
8
Black
10
128.195
20
-55.8926
11
128.207
21
-55.8864
0
LINE
8
Black
10
128.207
20
-55.8864
11
128.219
21
-55.8787
0
LINE
8
Black
10
128.219
20
-55.8787
11
128.227
21
-55.8767
0
LINE
8
Black
10
128.227
20
-55.8767
11
128.234
21
-55.873
0
LINE
8
Black
10
128.234
20
-55.873
11
128.248
21
-55.8715
0
LINE
8
Black
10
128.248
20
-55.8715
11
128.262
21
-55.8682
0
LINE
8
Black
10
128.262
20
-55.8682
11
128.27
21
-55.8692
0
LINE
8
Black
10
128.27
20
-55.8692
11
128.278
21
-55.8682
0
LINE
8
Black
10
128.278
20
-55.8682
11
128.292
21
-55.8715
0
LINE
8
Black
10
128.292
20
-55.8715
11
128.306
21
-55.873
0
LINE
8
Black
10
128.306
20
-55.873
11
128.313
21
-55.8767
0
LINE
8
Black
10
128.313
20
-55.8767
11
128.321
21
-55.8787
0
LINE
8
Black
10
128.321
20
-55.8787
11
128.333
21
-55.8864
0
LINE
8
Black
10
128.333
20
-55.8864
11
128.345
21
-55.8926
0
LINE
8
Black
10
128.345
20
-55.8926
11
128.351
21
-55.8986
0
LINE
8
Black
10
128.351
20
-55.8986
11
128.358
21
-55.9032
0
LINE
8
Black
10
128.358
20
-55.9032
11
128.366
21
-55.9144
0
LINE
8
Black
10
128.366
20
-55.9144
11
128.376
21
-55.9244
0
LINE
8
Black
10
128.376
20
-55.9244
11
128.582
21
-56.2326
0
LINE
8
Black
10
128.582
20
-56.2326
11
129.021
21
-56.5264
0
LINE
8
Black
10
129.021
20
-56.5264
11
129.54
21
-56.6296
0
LINE
8
Black
10
129.54
20
-56.6296
11
130.059
21
-56.5264
0
LINE
8
Black
10
130.059
20
-56.5264
11
130.498
21
-56.2326
0
LINE
8
Black
10
130.498
20
-56.2326
11
130.704
21
-55.9244
0
LINE
8
Black
10
130.704
20
-55.9244
11
130.714
21
-55.9144
0
LINE
8
Black
10
130.714
20
-55.9144
11
130.722
21
-55.9032
0
LINE
8
Black
10
130.722
20
-55.9032
11
130.729
21
-55.8986
0
LINE
8
Black
10
130.729
20
-55.8986
11
130.735
21
-55.8926
0
LINE
8
Black
10
130.735
20
-55.8926
11
130.747
21
-55.8864
0
LINE
8
Black
10
130.747
20
-55.8864
11
130.759
21
-55.8787
0
LINE
8
Black
10
130.759
20
-55.8787
11
130.767
21
-55.8767
0
LINE
8
Black
10
130.767
20
-55.8767
11
130.774
21
-55.873
0
LINE
8
Black
10
130.774
20
-55.873
11
130.788
21
-55.8715
0
LINE
8
Black
10
130.788
20
-55.8715
11
130.802
21
-55.8682
0
LINE
8
Black
10
130.802
20
-55.8682
11
130.81
21
-55.8692
0
LINE
8
Black
10
130.81
20
-55.8692
11
130.818
21
-55.8682
0
LINE
8
Black
10
130.818
20
-55.8682
11
130.832
21
-55.8715
0
LINE
8
Black
10
130.832
20
-55.8715
11
130.846
21
-55.873
0
LINE
8
Black
10
130.846
20
-55.873
11
130.853
21
-55.8767
0
LINE
8
Black
10
130.853
20
-55.8767
11
130.861
21
-55.8787
0
LINE
8
Black
10
130.861
20
-55.8787
11
130.873
21
-55.8864
0
LINE
8
Black
10
130.873
20
-55.8864
11
130.885
21
-55.8926
0
LINE
8
Black
10
130.885
20
-55.8926
11
130.891
21
-55.8986
0
LINE
8
Black
10
130.891
20
-55.8986
11
130.898
21
-55.9032
0
LINE
8
Black
10
130.898
20
-55.9032
11
130.906
21
-55.9144
0
LINE
8
Black
10
130.906
20
-55.9144
11
130.916
21
-55.9244
0
LINE
8
Black
10
130.916
20
-55.9244
11
131.122
21
-56.2326
0
LINE
8
Black
10
131.122
20
-56.2326
11
131.561
21
-56.5264
0
LINE
8
Black
10
131.561
20
-56.5264
11
132.08
21
-56.6296
0
LINE
8
Black
10
132.08
20
-56.6296
11
132.599
21
-56.5264
0
LINE
8
Black
10
132.599
20
-56.5264
11
133.038
21
-56.2326
0
LINE
8
Black
10
133.038
20
-56.2326
11
133.244
21
-55.9244
0
LINE
8
Black
10
133.244
20
-55.9244
11
133.254
21
-55.9144
0
LINE
8
Black
10
133.254
20
-55.9144
11
133.262
21
-55.9032
0
LINE
8
Black
10
133.262
20
-55.9032
11
133.269
21
-55.8986
0
LINE
8
Black
10
133.269
20
-55.8986
11
133.275
21
-55.8926
0
LINE
8
Black
10
133.275
20
-55.8926
11
133.287
21
-55.8864
0
LINE
8
Black
10
133.287
20
-55.8864
11
133.299
21
-55.8787
0
LINE
8
Black
10
133.299
20
-55.8787
11
133.307
21
-55.8767
0
LINE
8
Black
10
133.307
20
-55.8767
11
133.314
21
-55.873
0
LINE
8
Black
10
133.314
20
-55.873
11
133.328
21
-55.8715
0
LINE
8
Black
10
133.328
20
-55.8715
11
133.342
21
-55.8682
0
LINE
8
Black
10
133.342
20
-55.8682
11
133.35
21
-55.8692
0
LINE
8
Black
10
133.35
20
-55.8692
11
133.358
21
-55.8682
0
LINE
8
Black
10
133.358
20
-55.8682
11
133.372
21
-55.8715
0
LINE
8
Black
10
133.372
20
-55.8715
11
133.386
21
-55.873
0
LINE
8
Black
10
133.386
20
-55.873
11
133.393
21
-55.8767
0
LINE
8
Black
10
133.393
20
-55.8767
11
133.401
21
-55.8787
0
LINE
8
Black
10
133.401
20
-55.8787
11
133.413
21
-55.8864
0
LINE
8
Black
10
133.413
20
-55.8864
11
133.425
21
-55.8926
0
LINE
8
Black
10
133.425
20
-55.8926
11
133.431
21
-55.8986
0
LINE
8
Black
10
133.431
20
-55.8986
11
133.438
21
-55.9032
0
LINE
8
Black
10
133.438
20
-55.9032
11
133.446
21
-55.9144
0
LINE
8
Black
10
133.446
20
-55.9144
11
133.456
21
-55.9244
0
LINE
8
Black
10
133.456
20
-55.9244
11
133.662
21
-56.2326
0
LINE
8
Black
10
133.662
20
-56.2326
11
134.101
21
-56.5264
0
LINE
8
Black
10
134.101
20
-56.5264
11
134.62
21
-56.6296
0
LINE
8
Black
10
134.62
20
-56.6296
11
135.139
21
-56.5264
0
LINE
8
Black
10
135.139
20
-56.5264
11
135.578
21
-56.2326
0
LINE
8
Black
10
135.578
20
-56.2326
11
135.592
21
-56.212
0
LINE
8
Black
10
135.592
20
-56.212
11
135.604
21
-56.1995
0
LINE
8
Black
10
135.604
20
-56.1995
11
135.615
21
-56.1862
0
LINE
8
Black
10
135.615
20
-56.1862
11
135.619
21
-56.1837
0
LINE
8
Black
10
135.619
20
-56.1837
11
135.623
21
-56.1801
0
LINE
8
Black
10
135.623
20
-56.1801
11
135.638
21
-56.1725
0
LINE
8
Black
10
135.638
20
-56.1725
11
135.653
21
-56.1637
0
LINE
8
Black
10
135.653
20
-56.1637
11
135.658
21
-56.1628
0
LINE
8
Black
10
135.658
20
-56.1628
11
135.662
21
-56.1606
0
LINE
8
Black
10
135.662
20
-56.1606
11
135.679
21
-56.1587
0
LINE
8
Black
10
135.679
20
-56.1587
11
135.696
21
-56.1556
0
LINE
8
Black
10
135.696
20
-56.1556
11
135.701
21
-56.1564
0
LINE
8
Black
10
135.701
20
-56.1564
11
135.706
21
-56.1558
0
LINE
8
Black
10
135.706
20
-56.1558
11
135.723
21
-56.1599
0
LINE
8
Black
10
135.723
20
-56.1599
11
135.74
21
-56.1627
0
LINE
8
Black
10
135.74
20
-56.1627
11
135.744
21
-56.1651
0
LINE
8
Black
10
135.744
20
-56.1651
11
135.749
21
-56.1663
0
LINE
8
Black
10
135.749
20
-56.1663
11
135.763
21
-56.1759
0
LINE
8
Black
10
135.763
20
-56.1759
11
135.778
21
-56.1843
0
LINE
8
Black
10
135.778
20
-56.1843
11
135.782
21
-56.1881
0
LINE
8
Black
10
135.782
20
-56.1881
11
135.786
21
-56.1908
0
LINE
8
Black
10
135.786
20
-56.1908
11
135.796
21
-56.2047
0
LINE
8
Black
10
135.796
20
-56.2047
11
135.807
21
-56.2178
0
LINE
8
Black
10
135.807
20
-56.2178
11
135.809
21
-56.2224
0
LINE
8
Black
10
135.809
20
-56.2224
11
135.812
21
-56.2264
0
LINE
8
Black
10
135.812
20
-56.2264
11
135.817
21
-56.2429
0
LINE
8
Black
10
135.817
20
-56.2429
11
135.823
21
-56.2591
0
LINE
8
Black
10
135.823
20
-56.2591
11
135.827
21
-56.2825
0
LINE
8
Black
10
135.827
20
-56.2825
11
135.939
21
-56.4561
0
LINE
8
Black
10
135.939
20
-56.4561
11
136.109
21
-56.5721
0
LINE
8
Black
10
136.109
20
-56.5721
11
136.323
21
-56.6154
0
LINE
8
Black
10
136.323
20
-56.6154
11
137.998
21
-56.6154
0
LINE
8
Black
10
137.998
20
-56.6154
11
138.197
21
-56.5779
0
LINE
8
Black
10
138.197
20
-56.5779
11
138.371
21
-56.4662
0
LINE
8
Black
10
138.371
20
-56.4662
11
138.487
21
-56.2965
0
LINE
8
Black
10
138.487
20
-56.2965
11
138.53
21
-56.0823
0
LINE
8
Black
10
138.53
20
-56.0823
11
138.53
21
-54.4068
0
LINE
8
Black
10
138.53
20
-54.4068
11
138.493
21
-54.2075
0
LINE
8
Black
10
138.493
20
-54.2075
11
138.469
21
-54.1707
0
LINE
8
Black
10
138.469
20
-54.1707
11
138.468
21
-54.1679
0
LINE
8
Black
10
138.468
20
-54.1679
11
138.466
21
-54.1655
0
LINE
8
Black
10
138.466
20
-54.1655
11
138.46
21
-54.1476
0
LINE
8
Black
10
138.46
20
-54.1476
11
138.452
21
-54.1301
0
LINE
8
Black
10
138.452
20
-54.1301
11
138.452
21
-54.127
0
LINE
8
Black
10
138.452
20
-54.127
11
138.451
21
-54.1241
0
LINE
8
Black
10
138.451
20
-54.1241
11
138.451
21
-54.105
0
LINE
8
Black
10
138.451
20
-54.105
11
138.45
21
-54.086
0
LINE
8
Black
10
138.45
20
-54.086
11
138.451
21
-54.083
0
LINE
8
Black
10
138.451
20
-54.083
11
138.451
21
-54.0799
0
LINE
8
Black
10
138.451
20
-54.0799
11
138.457
21
-54.0621
0
LINE
8
Black
10
138.457
20
-54.0621
11
138.463
21
-54.0439
0
LINE
8
Black
10
138.463
20
-54.0439
11
138.465
21
-54.0414
0
LINE
8
Black
10
138.465
20
-54.0414
11
138.466
21
-54.0385
0
LINE
8
Black
10
138.466
20
-54.0385
11
138.478
21
-54.0239
0
LINE
8
Black
10
138.478
20
-54.0239
11
138.49
21
-54.0088
0
LINE
8
Black
10
138.49
20
-54.0088
11
138.492
21
-54.0071
0
LINE
8
Black
10
138.492
20
-54.0071
11
138.494
21
-54.0047
0
LINE
8
Black
10
138.494
20
-54.0047
11
138.511
21
-53.9952
0
LINE
8
Black
10
138.511
20
-53.9952
11
138.527
21
-53.9849
0
LINE
8
Black
10
138.527
20
-53.9849
11
138.53
21
-53.9842
0
LINE
8
Black
10
138.53
20
-53.9842
11
138.533
21
-53.9827
0
LINE
8
Black
10
138.533
20
-53.9827
11
138.551
21
-53.9794
0
LINE
8
Black
10
138.551
20
-53.9794
11
138.57
21
-53.9751
0
LINE
8
Black
10
138.57
20
-53.9751
11
138.573
21
-53.9755
0
LINE
8
Black
10
138.573
20
-53.9755
11
138.576
21
-53.975
0
LINE
8
Black
10
138.576
20
-53.975
11
142.113
21
-53.975
0
LINE
8
Black
10
142.113
20
-53.975
11
142.124
21
-53.9769
0
LINE
8
Black
10
142.124
20
-53.9769
11
142.135
21
-53.9769
0
LINE
8
Black
10
142.135
20
-53.9769
11
142.145
21
-53.9807
0
LINE
8
Black
10
142.145
20
-53.9807
11
142.156
21
-53.9827
0
LINE
8
Black
10
142.156
20
-53.9827
11
142.166
21
-53.9882
0
LINE
8
Black
10
142.166
20
-53.9882
11
142.177
21
-53.992
0
LINE
8
Black
10
142.177
20
-53.992
11
142.185
21
-53.9992
0
LINE
8
Black
10
142.185
20
-53.9992
11
142.195
21
-54.0047
0
LINE
8
Black
10
142.195
20
-54.0047
11
142.202
21
-54.0132
0
LINE
8
Black
10
142.202
20
-54.0132
11
142.21
21
-54.0204
0
LINE
8
Black
10
142.21
20
-54.0204
11
142.216
21
-54.03
0
LINE
8
Black
10
142.216
20
-54.03
11
142.223
21
-54.0385
0
LINE
8
Black
10
142.223
20
-54.0385
11
142.227
21
-54.0489
0
LINE
8
Black
10
142.227
20
-54.0489
11
142.232
21
-54.0586
0
LINE
8
Black
10
142.232
20
-54.0586
11
142.234
21
-54.0695
0
LINE
8
Black
10
142.234
20
-54.0695
11
142.238
21
-54.0799
0
LINE
8
Black
10
142.238
20
-54.0799
11
142.238
21
-54.0911
0
LINE
8
Black
10
142.238
20
-54.0911
11
142.24
21
-54.102
0
LINE
8
Black
10
142.24
20
-54.102
11
142.24
21
-86.868
0
LINE
8
Black
10
142.24
20
-86.868
11
142.238
21
-86.8789
0
LINE
8
Black
10
142.238
20
-86.8789
11
142.238
21
-86.8901
0
LINE
8
Black
10
142.238
20
-86.8901
11
142.234
21
-86.9005
0
LINE
8
Black
10
142.234
20
-86.9005
11
142.232
21
-86.9114
0
LINE
8
Black
10
142.232
20
-86.9114
11
142.227
21
-86.9211
0
LINE
8
Black
10
142.227
20
-86.9211
11
142.223
21
-86.9315
0
LINE
8
Black
10
142.223
20
-86.9315
11
142.216
21
-86.94
0
LINE
8
Black
10
142.216
20
-86.94
11
142.21
21
-86.9496
0
LINE
8
Black
10
142.21
20
-86.9496
11
142.202
21
-86.9568
0
LINE
8
Black
10
142.202
20
-86.9568
11
142.195
21
-86.9653
0
LINE
8
Black
10
142.195
20
-86.9653
11
142.185
21
-86.9708
0
LINE
8
Black
10
142.185
20
-86.9708
11
142.177
21
-86.978
0
LINE
8
Black
10
142.177
20
-86.978
11
142.166
21
-86.9818
0
LINE
8
Black
10
142.166
20
-86.9818
11
142.156
21
-86.9873
0
LINE
8
Black
10
142.156
20
-86.9873
11
142.145
21
-86.9893
0
LINE
8
Black
10
142.145
20
-86.9893
11
142.135
21
-86.9931
0
LINE
8
Black
10
142.135
20
-86.9931
11
142.124
21
-86.9931
0
LINE
8
Black
10
142.124
20
-86.9931
11
142.113
21
-86.995
0
LINE
8
Black
10
142.113
20
-86.995
11
136.71
21
-86.995
0
LINE
8
Black
10
136.71
20
-86.995
11
136.697
21
-86.9926
0
LINE
8
Black
10
136.697
20
-86.9926
11
136.683
21
-86.992
0
LINE
8
Black
10
136.683
20
-86.992
11
136.675
21
-86.9888
0
LINE
8
Black
10
136.675
20
-86.9888
11
136.667
21
-86.9873
0
LINE
8
Black
10
136.667
20
-86.9873
11
136.655
21
-86.9804
0
LINE
8
Black
10
136.655
20
-86.9804
11
136.642
21
-86.9751
0
LINE
8
Black
10
136.642
20
-86.9751
11
136.636
21
-86.9694
0
LINE
8
Black
10
136.636
20
-86.9694
11
136.629
21
-86.9653
0
LINE
8
Black
10
136.629
20
-86.9653
11
136.62
21
-86.9546
0
LINE
8
Black
10
136.62
20
-86.9546
11
136.61
21
-86.9452
0
LINE
8
Black
10
136.61
20
-86.9452
11
136.606
21
-86.9379
0
LINE
8
Black
10
136.606
20
-86.9379
11
136.6
21
-86.9315
0
LINE
8
Black
10
136.6
20
-86.9315
11
136.596
21
-86.9184
0
LINE
8
Black
10
136.596
20
-86.9184
11
136.589
21
-86.9061
0
LINE
8
Black
10
136.589
20
-86.9061
11
136.588
21
-86.8979
0
LINE
8
Black
10
136.588
20
-86.8979
11
136.585
21
-86.8901
0
LINE
8
Black
10
136.585
20
-86.8901
11
136.585
21
-86.8761
0
LINE
8
Black
10
136.585
20
-86.8761
11
136.584
21
-86.8623
0
LINE
8
Black
10
136.584
20
-86.8623
11
136.585
21
-86.8543
0
LINE
8
Black
10
136.585
20
-86.8543
11
136.585
21
-86.8459
0
LINE
8
Black
10
136.585
20
-86.8459
11
136.59
21
-86.8329
0
LINE
8
Black
10
136.59
20
-86.8329
11
136.593
21
-86.8193
0
LINE
8
Black
10
136.593
20
-86.8193
11
136.715
21
-86.5249
0
LINE
8
Black
10
136.715
20
-86.5249
11
136.716
21
-86.1965
0
LINE
8
Black
10
136.716
20
-86.1965
11
136.59
21
-85.893
0
LINE
8
Black
10
136.59
20
-85.893
11
136.358
21
-85.6606
0
LINE
8
Black
10
136.358
20
-85.6606
11
136.055
21
-85.5346
0
LINE
8
Black
10
136.055
20
-85.5346
11
135.727
21
-85.5344
0
LINE
8
Black
10
135.727
20
-85.5344
11
135.596
21
-85.5884
0
LINE
8
Black
10
135.596
20
-85.5884
11
135.593
21
-85.589
0
LINE
8
Black
10
135.593
20
-85.589
11
135.591
21
-85.5903
0
LINE
8
Black
10
135.591
20
-85.5903
11
135.572
21
-85.5937
0
LINE
8
Black
10
135.572
20
-85.5937
11
135.553
21
-85.5979
0
LINE
8
Black
10
135.553
20
-85.5979
11
135.55
21
-85.5975
0
LINE
8
Black
10
135.55
20
-85.5975
11
135.547
21
-85.598
0
LINE
8
Black
10
135.547
20
-85.598
11
126.098
21
-85.598
0
LINE
8
Black
10
126.098
20
-85.598
11
126.093
21
-85.597
0
LINE
8
Black
10
126.093
20
-85.597
11
126.087
21
-85.5975
0
LINE
8
Black
10
126.087
20
-85.5975
11
126.071
21
-85.5932
0
LINE
8
Black
10
126.071
20
-85.5932
11
126.055
21
-85.5903
0
LINE
8
Black
10
126.055
20
-85.5903
11
126.05
21
-85.5875
0
LINE
8
Black
10
126.05
20
-85.5875
11
126.045
21
-85.5861
0
LINE
8
Black
10
126.045
20
-85.5861
11
126.031
21
-85.5766
0
LINE
8
Black
10
126.031
20
-85.5766
11
126.017
21
-85.5683
0
LINE
8
Black
10
126.017
20
-85.5683
11
126.013
21
-85.564
0
LINE
8
Black
10
126.013
20
-85.564
11
126.008
21
-85.5608
0
LINE
8
Black
10
126.008
20
-85.5608
11
125.241
21
-84.7936
0
LINE
8
Black
10
125.241
20
-84.7936
11
125.24
21
-84.7913
0
LINE
8
Black
10
125.24
20
-84.7913
11
125.237
21
-84.7895
0
LINE
8
Black
10
125.237
20
-84.7895
11
125.227
21
-84.7733
0
LINE
8
Black
10
125.227
20
-84.7733
11
125.216
21
-84.7575
0
LINE
8
Black
10
125.216
20
-84.7575
11
125.215
21
-84.7547
0
LINE
8
Black
10
125.215
20
-84.7547
11
125.214
21
-84.7523
0
LINE
8
Black
10
125.214
20
-84.7523
11
125.16
21
-84.623
0
LINE
8
Black
10
125.16
20
-84.623
11
124.928
21
-84.3906
0
LINE
8
Black
10
124.928
20
-84.3906
11
124.625
21
-84.2646
0
LINE
8
Black
10
124.625
20
-84.2646
11
124.297
21
-84.2644
0
LINE
8
Black
10
124.297
20
-84.2644
11
123.993
21
-84.3898
0
LINE
8
Black
10
123.993
20
-84.3898
11
123.761
21
-84.6218
0
LINE
8
Black
10
123.761
20
-84.6218
11
123.635
21
-84.9251
0
LINE
8
Black
10
123.635
20
-84.9251
11
123.634
21
-85.2535
0
LINE
8
Black
10
123.634
20
-85.2535
11
123.76
21
-85.557
0
LINE
8
Black
10
123.76
20
-85.557
11
123.992
21
-85.7894
0
LINE
8
Black
10
123.992
20
-85.7894
11
124.122
21
-85.8437
0
LINE
8
Black
10
124.122
20
-85.8437
11
124.125
21
-85.8451
0
LINE
8
Black
10
124.125
20
-85.8451
11
124.127
21
-85.8459
0
LINE
8
Black
10
124.127
20
-85.8459
11
124.143
21
-85.857
0
LINE
8
Black
10
124.143
20
-85.857
11
124.16
21
-85.8674
0
LINE
8
Black
10
124.16
20
-85.8674
11
124.161
21
-85.8696
0
LINE
8
Black
10
124.161
20
-85.8696
11
124.164
21
-85.8712
0
LINE
8
Black
10
124.164
20
-85.8712
11
125.071
21
-86.7782
0
LINE
8
Black
10
125.071
20
-86.7782
11
125.08
21
-86.7918
0
LINE
8
Black
10
125.08
20
-86.7918
11
125.091
21
-86.8045
0
LINE
8
Black
10
125.091
20
-86.8045
11
125.093
21
-86.8097
0
LINE
8
Black
10
125.093
20
-86.8097
11
125.096
21
-86.8143
0
LINE
8
Black
10
125.096
20
-86.8143
11
125.1
21
-86.8304
0
LINE
8
Black
10
125.1
20
-86.8304
11
125.106
21
-86.8459
0
LINE
8
Black
10
125.106
20
-86.8459
11
125.106
21
-86.8515
0
LINE
8
Black
10
125.106
20
-86.8515
11
125.107
21
-86.8569
0
LINE
8
Black
10
125.107
20
-86.8569
11
125.106
21
-86.8735
0
LINE
8
Black
10
125.106
20
-86.8735
11
125.106
21
-86.8901
0
LINE
8
Black
10
125.106
20
-86.8901
11
125.104
21
-86.8953
0
LINE
8
Black
10
125.104
20
-86.8953
11
125.103
21
-86.9009
0
LINE
8
Black
10
125.103
20
-86.9009
11
125.096
21
-86.9159
0
LINE
8
Black
10
125.096
20
-86.9159
11
125.091
21
-86.9315
0
LINE
8
Black
10
125.091
20
-86.9315
11
125.087
21
-86.9358
0
LINE
8
Black
10
125.087
20
-86.9358
11
125.085
21
-86.9408
0
LINE
8
Black
10
125.085
20
-86.9408
11
125.073
21
-86.9526
0
LINE
8
Black
10
125.073
20
-86.9526
11
125.062
21
-86.9653
0
LINE
8
Black
10
125.062
20
-86.9653
11
125.058
21
-86.9681
0
LINE
8
Black
10
125.058
20
-86.9681
11
125.054
21
-86.972
0
LINE
8
Black
10
125.054
20
-86.972
11
125.039
21
-86.979
0
LINE
8
Black
10
125.039
20
-86.979
11
125.024
21
-86.9873
0
LINE
8
Black
10
125.024
20
-86.9873
11
125.019
21
-86.9883
0
LINE
8
Black
10
125.019
20
-86.9883
11
125.014
21
-86.9907
0
LINE
8
Black
10
125.014
20
-86.9907
11
124.997
21
-86.9921
0
LINE
8
Black
10
124.997
20
-86.9921
11
124.981
21
-86.995
0
LINE
8
Black
10
124.981
20
-86.995
11
116.967
21
-86.995
0
LINE
8
Black
10
116.967
20
-86.995
11
116.956
21
-86.9931
0
LINE
8
Black
10
116.956
20
-86.9931
11
116.945
21
-86.9931
0
LINE
8
Black
10
116.945
20
-86.9931
11
116.935
21
-86.9893
0
LINE
8
Black
10
116.935
20
-86.9893
11
116.924
21
-86.9873
0
LINE
8
Black
10
116.924
20
-86.9873
11
116.914
21
-86.9818
0
LINE
8
Black
10
116.914
20
-86.9818
11
116.903
21
-86.978
0
LINE
8
Black
10
116.903
20
-86.978
11
116.895
21
-86.9708
0
LINE
8
Black
10
116.895
20
-86.9708
11
116.885
21
-86.9653
0
LINE
8
Black
10
116.885
20
-86.9653
11
116.878
21
-86.9568
0
LINE
8
Black
10
116.878
20
-86.9568
11
116.87
21
-86.9496
0
LINE
8
Black
10
116.87
20
-86.9496
11
116.864
21
-86.94
0
LINE
8
Black
10
116.864
20
-86.94
11
116.857
21
-86.9315
0
LINE
8
Black
10
116.857
20
-86.9315
11
116.853
21
-86.9211
0
LINE
8
Black
10
116.853
20
-86.9211
11
116.848
21
-86.9114
0
LINE
8
Black
10
116.848
20
-86.9114
11
116.846
21
-86.9005
0
LINE
8
Black
10
116.846
20
-86.9005
11
116.842
21
-86.8901
0
LINE
8
Black
10
116.842
20
-86.8901
11
116.842
21
-86.8789
0
LINE
8
Black
10
116.842
20
-86.8789
11
116.84
21
-86.868
0
LINE
8
Black
10
116.84
20
-86.868
11
116.84
21
-82.0841
0
LINE
8
Black
10
116.84
20
-82.0841
11
116.84
21
-77.4827
0
LINE
8
Black
10
116.84
20
-77.4827
11
116.838
21
-77.4718
0
LINE
8
Black
10
116.838
20
-77.4718
11
116.828
21
-77.47
0
LINE
8
Black
10
116.828
20
-77.47
11
116.174
21
-77.47
0
LINE
8
Black
10
116.174
20
-77.47
11
116.159
21
-77.4674
0
LINE
8
Black
10
116.159
20
-77.4674
11
116.144
21
-77.4664
0
LINE
8
Black
10
116.144
20
-77.4664
11
116.138
21
-77.4636
0
LINE
8
Black
10
116.138
20
-77.4636
11
116.131
21
-77.4623
0
LINE
8
Black
10
116.131
20
-77.4623
11
116.118
21
-77.4547
0
LINE
8
Black
10
116.118
20
-77.4547
11
116.104
21
-77.4486
0
LINE
8
Black
10
116.104
20
-77.4486
11
115.755
21
-77.2159
0
LINE
8
Black
10
115.755
20
-77.2159
11
115.661
21
-77.1767
0
LINE
8
Black
10
115.661
20
-77.1767
11
115.661
21
-77.1767
0
LINE
8
Black
10
115.661
20
-77.1767
11
115.522
21
-77.1194
0
LINE
8
Black
10
115.522
20
-77.1194
11
115.061
21
-77.0276
0
LINE
8
Black
10
115.061
20
-77.0276
11
115.004
21
-77.0276
0
LINE
8
Black
10
115.004
20
-77.0276
11
114.991
21
-77.0255
0
LINE
8
Black
10
114.991
20
-77.0255
11
114.979
21
-77.0252
0
LINE
8
Black
10
114.979
20
-77.0252
11
114.925
21
-77.0145
0
LINE
8
Black
10
114.925
20
-77.0145
11
114.908
21
-77.0081
0
LINE
8
Black
10
114.908
20
-77.0081
11
114.891
21
-77.0028
0
LINE
8
Black
10
114.891
20
-77.0028
11
114.888
21
-77.0001
0
LINE
8
Black
10
114.888
20
-77.0001
11
114.884
21
-76.9985
0
LINE
8
Black
10
114.884
20
-76.9985
11
114.87
21
-76.9868
0
LINE
8
Black
10
114.87
20
-76.9868
11
114.856
21
-76.9761
0
LINE
8
Black
10
114.856
20
-76.9761
11
114.854
21
-76.9724
0
LINE
8
Black
10
114.854
20
-76.9724
11
114.851
21
-76.9694
0
LINE
8
Black
10
114.851
20
-76.9694
11
114.842
21
-76.9539
0
LINE
8
Black
10
114.842
20
-76.9539
11
114.833
21
-76.939
0
LINE
8
Black
10
114.833
20
-76.939
11
114.832
21
-76.9347
0
LINE
8
Black
10
114.832
20
-76.9347
11
114.829
21
-76.9307
0
LINE
8
Black
10
114.829
20
-76.9307
11
114.827
21
-76.9133
0
LINE
8
Black
10
114.827
20
-76.9133
11
114.823
21
-76.896
0
LINE
8
Black
10
114.823
20
-76.896
11
114.823
21
-76.8916
0
LINE
8
Black
10
114.823
20
-76.8916
11
114.823
21
-76.8871
0
LINE
8
Black
10
114.823
20
-76.8871
11
114.826
21
-76.8698
0
LINE
8
Black
10
114.826
20
-76.8698
11
114.828
21
-76.8523
0
LINE
8
Black
10
114.828
20
-76.8523
11
114.83
21
-76.8483
0
LINE
8
Black
10
114.83
20
-76.8483
11
114.831
21
-76.8439
0
LINE
8
Black
10
114.831
20
-76.8439
11
114.84
21
-76.8288
0
LINE
8
Black
10
114.84
20
-76.8288
11
114.849
21
-76.8131
0
LINE
8
Black
10
114.849
20
-76.8131
11
114.852
21
-76.81
0
LINE
8
Black
10
114.852
20
-76.81
11
114.854
21
-76.8062
0
LINE
8
Black
10
114.854
20
-76.8062
11
114.868
21
-76.7951
0
LINE
8
Black
10
114.868
20
-76.7951
11
114.874
21
-76.7899
0
LINE
8
Black
10
114.874
20
-76.7899
11
114.992
21
-76.6165
0
LINE
8
Black
10
114.992
20
-76.6165
11
115.035
21
-76.4023
0
LINE
8
Black
10
115.035
20
-76.4023
11
115.035
21
-74.7268
0
LINE
8
Black
10
115.035
20
-74.7268
11
114.998
21
-74.5275
0
LINE
8
Black
10
114.998
20
-74.5275
11
114.886
21
-74.3539
0
LINE
8
Black
10
114.886
20
-74.3539
11
114.716
21
-74.2379
0
LINE
8
Black
10
114.716
20
-74.2379
11
114.674
21
-74.2294
0
LINE
8
Black
10
114.674
20
-74.2294
11
114.659
21
-74.2234
0
LINE
8
Black
10
114.659
20
-74.2234
11
114.643
21
-74.2188
0
LINE
8
Black
10
114.643
20
-74.2188
11
114.639
21
-74.2154
0
LINE
8
Black
10
114.639
20
-74.2154
11
114.633
21
-74.2133
0
LINE
8
Black
10
114.633
20
-74.2133
11
114.621
21
-74.2024
0
LINE
8
Black
10
114.621
20
-74.2024
11
114.608
21
-74.1927
0
LINE
8
Black
10
114.608
20
-74.1927
11
114.604
21
-74.1879
0
LINE
8
Black
10
114.604
20
-74.1879
11
114.6
21
-74.1841
0
LINE
8
Black
10
114.6
20
-74.1841
11
114.592
21
-74.1697
0
LINE
8
Black
10
114.592
20
-74.1697
11
114.583
21
-74.1561
0
LINE
8
Black
10
114.583
20
-74.1561
11
114.582
21
-74.1504
0
LINE
8
Black
10
114.582
20
-74.1504
11
114.579
21
-74.1453
0
LINE
8
Black
10
114.579
20
-74.1453
11
114.577
21
-74.1291
0
LINE
8
Black
10
114.577
20
-74.1291
11
114.573
21
-74.1132
0
LINE
8
Black
10
114.573
20
-74.1132
11
114.573
21
-74.1074
0
LINE
8
Black
10
114.573
20
-74.1074
11
114.572
21
-74.1017
0
LINE
8
Black
10
114.572
20
-74.1017
11
114.576
21
-74.0857
0
LINE
8
Black
10
114.576
20
-74.0857
11
114.578
21
-74.0694
0
LINE
8
Black
10
114.578
20
-74.0694
11
114.58
21
-74.0642
0
LINE
8
Black
10
114.58
20
-74.0642
11
114.581
21
-74.0585
0
LINE
8
Black
10
114.581
20
-74.0585
11
114.59
21
-74.0445
0
LINE
8
Black
10
114.59
20
-74.0445
11
114.597
21
-74.0298
0
LINE
8
Black
10
114.597
20
-74.0298
11
114.601
21
-74.0258
0
LINE
8
Black
10
114.601
20
-74.0258
11
114.604
21
-74.0208
0
LINE
8
Black
10
114.604
20
-74.0208
11
114.617
21
-74.0106
0
LINE
8
Black
10
114.617
20
-74.0106
11
114.629
21
-73.9993
0
LINE
8
Black
10
114.629
20
-73.9993
11
114.653
21
-73.9835
0
LINE
8
Black
10
114.653
20
-73.9835
11
114.946
21
-73.5437
0
LINE
8
Black
10
114.946
20
-73.5437
11
115.011
21
-73.2202
0
LINE
8
Black
10
115.011
20
-73.2202
11
115.011
21
-73.2202
0
LINE
8
Black
10
115.011
20
-73.2202
11
115.05
21
-73.025
0
LINE
8
Black
10
115.05
20
-73.025
11
114.946
21
-72.5063
0
LINE
8
Black
10
114.946
20
-72.5063
11
114.653
21
-72.0665
0
LINE
8
Black
10
114.653
20
-72.0665
11
114.344
21
-71.8606
0
LINE
8
Black
10
114.344
20
-71.8606
11
114.334
21
-71.851
0
LINE
8
Black
10
114.334
20
-71.851
11
114.323
21
-71.8428
0
LINE
8
Black
10
114.323
20
-71.8428
11
114.319
21
-71.8359
0
LINE
8
Black
10
114.319
20
-71.8359
11
114.313
21
-71.8301
0
LINE
8
Black
10
114.313
20
-71.8301
11
114.306
21
-71.8177
0
LINE
8
Black
10
114.306
20
-71.8177
11
114.299
21
-71.8061
0
LINE
8
Black
10
114.299
20
-71.8061
11
114.297
21
-71.798
0
LINE
8
Black
10
114.297
20
-71.798
11
114.293
21
-71.7905
0
LINE
8
Black
10
114.293
20
-71.7905
11
114.292
21
-71.7768
0
LINE
8
Black
10
114.292
20
-71.7768
11
114.288
21
-71.7633
0
LINE
8
Black
10
114.288
20
-71.7633
11
114.289
21
-71.755
0
LINE
8
Black
10
114.289
20
-71.755
11
114.288
21
-71.7467
0
LINE
8
Black
10
114.288
20
-71.7467
11
114.292
21
-71.7332
0
LINE
8
Black
10
114.292
20
-71.7332
11
114.293
21
-71.7195
0
LINE
8
Black
10
114.293
20
-71.7195
11
114.297
21
-71.712
0
LINE
8
Black
10
114.297
20
-71.712
11
114.299
21
-71.7039
0
LINE
8
Black
10
114.299
20
-71.7039
11
114.306
21
-71.6923
0
LINE
8
Black
10
114.306
20
-71.6923
11
114.313
21
-71.6799
0
LINE
8
Black
10
114.313
20
-71.6799
11
114.319
21
-71.6741
0
LINE
8
Black
10
114.319
20
-71.6741
11
114.323
21
-71.6672
0
LINE
8
Black
10
114.323
20
-71.6672
11
114.334
21
-71.659
0
LINE
8
Black
10
114.334
20
-71.659
11
114.344
21
-71.6494
0
LINE
8
Black
10
114.344
20
-71.6494
11
114.653
21
-71.4435
0
LINE
8
Black
10
114.653
20
-71.4435
11
114.946
21
-71.0037
0
LINE
8
Black
10
114.946
20
-71.0037
11
115.05
21
-70.485
0
LINE
8
Black
10
115.05
20
-70.485
11
114.946
21
-69.9663
0
LINE
8
Black
10
114.946
20
-69.9663
11
114.653
21
-69.5265
0
LINE
8
Black
10
114.653
20
-69.5265
11
114.344
21
-69.3206
0
LINE
8
Black
10
114.344
20
-69.3206
11
114.334
21
-69.311
0
LINE
8
Black
10
114.334
20
-69.311
11
114.323
21
-69.3028
0
LINE
8
Black
10
114.323
20
-69.3028
11
114.319
21
-69.2959
0
LINE
8
Black
10
114.319
20
-69.2959
11
114.313
21
-69.2901
0
LINE
8
Black
10
114.313
20
-69.2901
11
114.306
21
-69.2777
0
LINE
8
Black
10
114.306
20
-69.2777
11
114.299
21
-69.2661
0
LINE
8
Black
10
114.299
20
-69.2661
11
114.297
21
-69.258
0
LINE
8
Black
10
114.297
20
-69.258
11
114.293
21
-69.2505
0
LINE
8
Black
10
114.293
20
-69.2505
11
114.292
21
-69.2368
0
LINE
8
Black
10
114.292
20
-69.2368
11
114.288
21
-69.2233
0
LINE
8
Black
10
114.288
20
-69.2233
11
114.289
21
-69.215
0
LINE
8
Black
10
114.289
20
-69.215
11
114.288
21
-69.2067
0
LINE
8
Black
10
114.288
20
-69.2067
11
114.292
21
-69.1932
0
LINE
8
Black
10
114.292
20
-69.1932
11
114.293
21
-69.1795
0
LINE
8
Black
10
114.293
20
-69.1795
11
114.297
21
-69.172
0
LINE
8
Black
10
114.297
20
-69.172
11
114.299
21
-69.1639
0
LINE
8
Black
10
114.299
20
-69.1639
11
114.306
21
-69.1523
0
LINE
8
Black
10
114.306
20
-69.1523
11
114.313
21
-69.1399
0
LINE
8
Black
10
114.313
20
-69.1399
11
114.319
21
-69.1341
0
LINE
8
Black
10
114.319
20
-69.1341
11
114.323
21
-69.1272
0
LINE
8
Black
10
114.323
20
-69.1272
11
114.334
21
-69.119
0
LINE
8
Black
10
114.334
20
-69.119
11
114.344
21
-69.1094
0
LINE
8
Black
10
114.344
20
-69.1094
11
114.653
21
-68.9035
0
LINE
8
Black
10
114.653
20
-68.9035
11
114.946
21
-68.4637
0
LINE
8
Black
10
114.946
20
-68.4637
11
115.05
21
-67.945
0
LINE
8
Black
10
115.05
20
-67.945
11
114.946
21
-67.4263
0
LINE
8
Black
10
114.946
20
-67.4263
11
114.653
21
-66.9865
0
LINE
8
Black
10
114.653
20
-66.9865
11
114.213
21
-66.6927
0
LINE
8
Black
10
114.213
20
-66.6927
11
113.682
21
-66.587
0
LINE
8
Black
10
113.682
20
-66.587
11
113.648
21
-66.587
0
LINE
8
Black
10
113.648
20
-66.587
11
113.117
21
-66.6927
0
LINE
8
Black
10
113.117
20
-66.6927
11
112.677
21
-66.9865
0
LINE
8
Black
10
112.677
20
-66.9865
11
112.384
21
-67.4263
0
LINE
8
Black
10
112.384
20
-67.4263
11
112.28
21
-67.945
0
LINE
8
Black
10
112.28
20
-67.945
11
112.384
21
-68.4637
0
LINE
8
Black
10
112.384
20
-68.4637
11
112.677
21
-68.9035
0
LINE
8
Black
10
112.677
20
-68.9035
11
112.986
21
-69.1094
0
LINE
8
Black
10
112.986
20
-69.1094
11
112.996
21
-69.119
0
LINE
8
Black
10
112.996
20
-69.119
11
113.007
21
-69.1272
0
LINE
8
Black
10
113.007
20
-69.1272
11
113.011
21
-69.1341
0
LINE
8
Black
10
113.011
20
-69.1341
11
113.017
21
-69.1399
0
LINE
8
Black
10
113.017
20
-69.1399
11
113.024
21
-69.1523
0
LINE
8
Black
10
113.024
20
-69.1523
11
113.031
21
-69.1639
0
LINE
8
Black
10
113.031
20
-69.1639
11
113.033
21
-69.172
0
LINE
8
Black
10
113.033
20
-69.172
11
113.037
21
-69.1795
0
LINE
8
Black
10
113.037
20
-69.1795
11
113.038
21
-69.1932
0
LINE
8
Black
10
113.038
20
-69.1932
11
113.042
21
-69.2067
0
LINE
8
Black
10
113.042
20
-69.2067
11
113.041
21
-69.215
0
LINE
8
Black
10
113.041
20
-69.215
11
113.042
21
-69.2233
0
LINE
8
Black
10
113.042
20
-69.2233
11
113.038
21
-69.2368
0
LINE
8
Black
10
113.038
20
-69.2368
11
113.037
21
-69.2505
0
LINE
8
Black
10
113.037
20
-69.2505
11
113.033
21
-69.258
0
LINE
8
Black
10
113.033
20
-69.258
11
113.031
21
-69.2661
0
LINE
8
Black
10
113.031
20
-69.2661
11
113.024
21
-69.2777
0
LINE
8
Black
10
113.024
20
-69.2777
11
113.017
21
-69.2901
0
LINE
8
Black
10
113.017
20
-69.2901
11
113.011
21
-69.2959
0
LINE
8
Black
10
113.011
20
-69.2959
11
113.007
21
-69.3028
0
LINE
8
Black
10
113.007
20
-69.3028
11
112.996
21
-69.311
0
LINE
8
Black
10
112.996
20
-69.311
11
112.986
21
-69.3206
0
LINE
8
Black
10
112.986
20
-69.3206
11
112.677
21
-69.5265
0
LINE
8
Black
10
112.677
20
-69.5265
11
112.384
21
-69.9663
0
LINE
8
Black
10
112.384
20
-69.9663
11
112.28
21
-70.485
0
LINE
8
Black
10
112.28
20
-70.485
11
112.384
21
-71.0037
0
LINE
8
Black
10
112.384
20
-71.0037
11
112.677
21
-71.4435
0
LINE
8
Black
10
112.677
20
-71.4435
11
112.986
21
-71.6494
0
LINE
8
Black
10
112.986
20
-71.6494
11
112.996
21
-71.659
0
LINE
8
Black
10
112.996
20
-71.659
11
113.007
21
-71.6672
0
LINE
8
Black
10
113.007
20
-71.6672
11
113.011
21
-71.6741
0
LINE
8
Black
10
113.011
20
-71.6741
11
113.017
21
-71.6799
0
LINE
8
Black
10
113.017
20
-71.6799
11
113.024
21
-71.6923
0
LINE
8
Black
10
113.024
20
-71.6923
11
113.031
21
-71.7039
0
LINE
8
Black
10
113.031
20
-71.7039
11
113.033
21
-71.712
0
LINE
8
Black
10
113.033
20
-71.712
11
113.037
21
-71.7195
0
LINE
8
Black
10
113.037
20
-71.7195
11
113.038
21
-71.7332
0
LINE
8
Black
10
113.038
20
-71.7332
11
113.042
21
-71.7467
0
LINE
8
Black
10
113.042
20
-71.7467
11
113.041
21
-71.755
0
LINE
8
Black
10
113.041
20
-71.755
11
113.042
21
-71.7633
0
LINE
8
Black
10
113.042
20
-71.7633
11
113.038
21
-71.7768
0
LINE
8
Black
10
113.038
20
-71.7768
11
113.037
21
-71.7905
0
LINE
8
Black
10
113.037
20
-71.7905
11
113.033
21
-71.798
0
LINE
8
Black
10
113.033
20
-71.798
11
113.031
21
-71.8061
0
LINE
8
Black
10
113.031
20
-71.8061
11
113.024
21
-71.8177
0
LINE
8
Black
10
113.024
20
-71.8177
11
113.017
21
-71.8301
0
LINE
8
Black
10
113.017
20
-71.8301
11
113.011
21
-71.8359
0
LINE
8
Black
10
113.011
20
-71.8359
11
113.007
21
-71.8428
0
LINE
8
Black
10
113.007
20
-71.8428
11
112.996
21
-71.851
0
LINE
8
Black
10
112.996
20
-71.851
11
112.986
21
-71.8606
0
LINE
8
Black
10
112.986
20
-71.8606
11
112.677
21
-72.0665
0
LINE
8
Black
10
112.677
20
-72.0665
11
112.384
21
-72.5063
0
LINE
8
Black
10
112.384
20
-72.5063
11
112.28
21
-73.025
0
LINE
8
Black
10
112.28
20
-73.025
11
112.384
21
-73.5437
0
LINE
8
Black
10
112.384
20
-73.5437
11
112.677
21
-73.9835
0
LINE
8
Black
10
112.677
20
-73.9835
11
112.698
21
-73.9973
0
LINE
8
Black
10
112.698
20
-73.9973
11
112.71
21
-74.0092
0
LINE
8
Black
10
112.71
20
-74.0092
11
112.724
21
-74.0201
0
LINE
8
Black
10
112.724
20
-74.0201
11
112.726
21
-74.0243
0
LINE
8
Black
10
112.726
20
-74.0243
11
112.73
21
-74.0278
0
LINE
8
Black
10
112.73
20
-74.0278
11
112.737
21
-74.0432
0
LINE
8
Black
10
112.737
20
-74.0432
11
112.746
21
-74.058
0
LINE
8
Black
10
112.746
20
-74.058
11
112.747
21
-74.0629
0
LINE
8
Black
10
112.747
20
-74.0629
11
112.749
21
-74.0673
0
LINE
8
Black
10
112.749
20
-74.0673
11
112.751
21
-74.0845
0
LINE
8
Black
10
112.751
20
-74.0845
11
112.754
21
-74.1014
0
LINE
8
Black
10
112.754
20
-74.1014
11
112.754
21
-74.1063
0
LINE
8
Black
10
112.754
20
-74.1063
11
112.754
21
-74.1112
0
LINE
8
Black
10
112.754
20
-74.1112
11
112.75
21
-74.1279
0
LINE
8
Black
10
112.75
20
-74.1279
11
112.747
21
-74.1449
0
LINE
8
Black
10
112.747
20
-74.1449
11
112.745
21
-74.1492
0
LINE
8
Black
10
112.745
20
-74.1492
11
112.744
21
-74.154
0
LINE
8
Black
10
112.744
20
-74.154
11
112.734
21
-74.1683
0
LINE
8
Black
10
112.734
20
-74.1683
11
112.726
21
-74.1834
0
LINE
8
Black
10
112.726
20
-74.1834
11
112.722
21
-74.1866
0
LINE
8
Black
10
112.722
20
-74.1866
11
112.719
21
-74.1907
0
LINE
8
Black
10
112.719
20
-74.1907
11
112.705
21
-74.2009
0
LINE
8
Black
10
112.705
20
-74.2009
11
112.692
21
-74.2121
0
LINE
8
Black
10
112.692
20
-74.2121
11
112.688
21
-74.2138
0
LINE
8
Black
10
112.688
20
-74.2138
11
112.684
21
-74.2168
0
LINE
8
Black
10
112.684
20
-74.2168
11
112.667
21
-74.2216
0
LINE
8
Black
10
112.667
20
-74.2216
11
112.651
21
-74.2277
0
LINE
8
Black
10
112.651
20
-74.2277
11
112.628
21
-74.2321
0
LINE
8
Black
10
112.628
20
-74.2321
11
112.454
21
-74.3438
0
LINE
8
Black
10
112.454
20
-74.3438
11
112.338
21
-74.5135
0
LINE
8
Black
10
112.338
20
-74.5135
11
112.295
21
-74.7277
0
LINE
8
Black
10
112.295
20
-74.7277
11
112.295
21
-76.4032
0
LINE
8
Black
10
112.295
20
-76.4032
11
112.332
21
-76.6025
0
LINE
8
Black
10
112.332
20
-76.6025
11
112.444
21
-76.7761
0
LINE
8
Black
10
112.444
20
-76.7761
11
112.453
21
-76.7821
0
LINE
8
Black
10
112.453
20
-76.7821
11
112.457
21
-76.7866
0
LINE
8
Black
10
112.457
20
-76.7866
11
112.463
21
-76.7897
0
LINE
8
Black
10
112.463
20
-76.7897
11
112.473
21
-76.8019
0
LINE
8
Black
10
112.473
20
-76.8019
11
112.484
21
-76.813
0
LINE
8
Black
10
112.484
20
-76.813
11
112.487
21
-76.8187
0
LINE
8
Black
10
112.487
20
-76.8187
11
112.491
21
-76.8235
0
LINE
8
Black
10
112.491
20
-76.8235
11
112.496
21
-76.8384
0
LINE
8
Black
10
112.496
20
-76.8384
11
112.503
21
-76.8527
0
LINE
8
Black
10
112.503
20
-76.8527
11
112.504
21
-76.859
0
LINE
8
Black
10
112.504
20
-76.859
11
112.506
21
-76.8649
0
LINE
8
Black
10
112.506
20
-76.8649
11
112.506
21
-76.8808
0
LINE
8
Black
10
112.506
20
-76.8808
11
112.508
21
-76.8966
0
LINE
8
Black
10
112.508
20
-76.8966
11
112.506
21
-76.9027
0
LINE
8
Black
10
112.506
20
-76.9027
11
112.506
21
-76.9091
0
LINE
8
Black
10
112.506
20
-76.9091
11
112.501
21
-76.924
0
LINE
8
Black
10
112.501
20
-76.924
11
112.497
21
-76.9394
0
LINE
8
Black
10
112.497
20
-76.9394
11
112.493
21
-76.9446
0
LINE
8
Black
10
112.493
20
-76.9446
11
112.491
21
-76.9505
0
LINE
8
Black
10
112.491
20
-76.9505
11
112.481
21
-76.9627
0
LINE
8
Black
10
112.481
20
-76.9627
11
112.472
21
-76.9758
0
LINE
8
Black
10
112.472
20
-76.9758
11
112.467
21
-76.9794
0
LINE
8
Black
10
112.467
20
-76.9794
11
112.463
21
-76.9843
0
LINE
8
Black
10
112.463
20
-76.9843
11
112.449
21
-76.9922
0
LINE
8
Black
10
112.449
20
-76.9922
11
112.436
21
-77.0015
0
LINE
8
Black
10
112.436
20
-77.0015
11
112.43
21
-77.0032
0
LINE
8
Black
10
112.43
20
-77.0032
11
112.424
21
-77.0063
0
LINE
8
Black
10
112.424
20
-77.0063
11
112.409
21
-77.0091
0
LINE
8
Black
10
112.409
20
-77.0091
11
112.394
21
-77.0134
0
LINE
8
Black
10
112.394
20
-77.0134
11
112.387
21
-77.0129
0
LINE
8
Black
10
112.387
20
-77.0129
11
112.381
21
-77.014
0
LINE
8
Black
10
112.381
20
-77.014
11
110.617
21
-77.014
0
LINE
8
Black
10
110.617
20
-77.014
11
110.606
21
-77.0121
0
LINE
8
Black
10
110.606
20
-77.0121
11
110.595
21
-77.0121
0
LINE
8
Black
10
110.595
20
-77.0121
11
110.585
21
-77.0083
0
LINE
8
Black
10
110.585
20
-77.0083
11
110.574
21
-77.0063
0
LINE
8
Black
10
110.574
20
-77.0063
11
110.564
21
-77.0008
0
LINE
8
Black
10
110.564
20
-77.0008
11
110.553
21
-76.997
0
LINE
8
Black
10
110.553
20
-76.997
11
110.545
21
-76.9898
0
LINE
8
Black
10
110.545
20
-76.9898
11
110.535
21
-76.9843
0
LINE
8
Black
10
110.535
20
-76.9843
11
110.528
21
-76.9758
0
LINE
8
Black
10
110.528
20
-76.9758
11
110.52
21
-76.9686
0
LINE
8
Black
10
110.52
20
-76.9686
11
110.514
21
-76.959
0
LINE
8
Black
10
110.514
20
-76.959
11
110.507
21
-76.9505
0
LINE
8
Black
10
110.507
20
-76.9505
11
110.503
21
-76.9401
0
LINE
8
Black
10
110.503
20
-76.9401
11
110.498
21
-76.9304
0
LINE
8
Black
10
110.498
20
-76.9304
11
110.496
21
-76.9195
0
LINE
8
Black
10
110.496
20
-76.9195
11
110.492
21
-76.9091
0
LINE
8
Black
10
110.492
20
-76.9091
11
110.492
21
-76.8979
0
LINE
8
Black
10
110.492
20
-76.8979
11
110.49
21
-76.887
0
LINE
8
Black
10
110.49
20
-76.887
11
110.49
21
-62.015
0
LINE
8
Black
10
110.49
20
-62.015
11
110.49
21
-58.1419
0
LINE
8
Black
10
110.49
20
-58.1419
11
110.49
21
-54.102
0
LINE
8
Black
10
110.49
20
-54.102
11
110.492
21
-54.0911
0
LINE
8
Black
10
110.492
20
-54.0911
11
110.492
21
-54.0799
0
LINE
8
Black
10
110.492
20
-54.0799
11
110.496
21
-54.0695
0
LINE
8
Black
10
110.496
20
-54.0695
11
110.498
21
-54.0586
0
LINE
8
Black
10
110.498
20
-54.0586
11
110.503
21
-54.0489
0
LINE
8
Black
10
110.503
20
-54.0489
11
110.507
21
-54.0385
0
LINE
8
Black
10
110.507
20
-54.0385
11
110.514
21
-54.03
0
LINE
8
Black
10
110.514
20
-54.03
11
110.52
21
-54.0204
0
LINE
8
Black
10
110.52
20
-54.0204
11
110.528
21
-54.0132
0
LINE
8
Black
10
110.528
20
-54.0132
11
110.535
21
-54.0047
0
LINE
8
Black
10
110.535
20
-54.0047
11
110.545
21
-53.9992
0
LINE
8
Black
10
110.545
20
-53.9992
11
110.553
21
-53.992
0
LINE
8
Black
10
110.553
20
-53.992
11
110.564
21
-53.9882
0
LINE
8
Black
10
110.564
20
-53.9882
11
110.574
21
-53.9827
0
LINE
8
Black
10
110.574
20
-53.9827
11
110.585
21
-53.9807
0
LINE
8
Black
10
110.585
20
-53.9807
11
110.595
21
-53.9769
0
LINE
8
Black
10
110.595
20
-53.9769
11
110.606
21
-53.9769
0
LINE
8
Black
10
110.606
20
-53.9769
11
110.617
21
-53.975
0
LINE
8
Black
10
110.617
20
-53.975
11
112.725
21
-53.975
0
LINE
8
Black
10
112.725
20
-53.975
11
112.732
21
-53.9762
0
LINE
8
Black
10
132.363
20
-82.5732
11
132.08
21
-82.6232
0
LINE
8
Black
10
132.08
20
-82.6232
11
131.797
21
-82.5732
0
LINE
8
Black
10
131.797
20
-82.5732
11
131.711
21
-82.5235
0
LINE
8
Black
10
131.711
20
-82.5235
11
131.378
21
-82.8564
0
LINE
8
Black
10
131.378
20
-82.8564
11
131.414
21
-82.9716
0
LINE
8
Black
10
131.414
20
-82.9716
11
131.877
21
-83.1388
0
LINE
8
Black
10
131.877
20
-83.1388
11
132.409
21
-83.1142
0
LINE
8
Black
10
132.409
20
-83.1142
11
132.745
21
-82.975
0
LINE
8
Black
10
132.745
20
-82.975
11
132.782
21
-82.8564
0
LINE
8
Black
10
132.782
20
-82.8564
11
132.449
21
-82.5235
0
LINE
8
Black
10
132.449
20
-82.5235
11
132.363
21
-82.5732
0
LINE
8
Black
10
128.826
20
-80.6643
11
128.451
21
-81.0389
0
LINE
8
Black
10
128.451
20
-81.0389
11
128.247
21
-81.5287
0
LINE
8
Black
10
128.247
20
-81.5287
11
128.247
21
-82.059
0
LINE
8
Black
10
128.247
20
-82.059
11
128.449
21
-82.5491
0
LINE
8
Black
10
128.449
20
-82.5491
11
128.824
21
-82.9244
0
LINE
8
Black
10
128.824
20
-82.9244
11
129.314
21
-83.1278
0
LINE
8
Black
10
129.314
20
-83.1278
11
129.844
21
-83.1282
0
LINE
8
Black
10
129.844
20
-83.1282
11
130.334
21
-82.9257
0
LINE
8
Black
10
130.334
20
-82.9257
11
130.529
21
-82.731
0
LINE
8
Black
10
130.529
20
-82.731
11
130.709
21
-82.5511
0
LINE
8
Black
10
130.709
20
-82.5511
11
130.72
21
-82.5253
0
LINE
8
Black
10
130.72
20
-82.5253
11
130.723
21
-82.5208
0
LINE
8
Black
10
130.723
20
-82.5208
11
130.724
21
-82.5158
0
LINE
8
Black
10
130.724
20
-82.5158
11
130.735
21
-82.5024
0
LINE
8
Black
10
130.735
20
-82.5024
11
130.744
21
-82.4881
0
LINE
8
Black
10
130.744
20
-82.4881
11
130.748
21
-82.4849
0
LINE
8
Black
10
130.748
20
-82.4849
11
130.751
21
-82.4807
0
LINE
8
Black
10
130.751
20
-82.4807
11
130.765
21
-82.4716
0
LINE
8
Black
10
130.765
20
-82.4716
11
130.779
21
-82.4613
0
LINE
8
Black
10
130.779
20
-82.4613
11
130.784
21
-82.4597
0
LINE
8
Black
10
130.784
20
-82.4597
11
130.788
21
-82.4569
0
LINE
8
Black
10
130.788
20
-82.4569
11
130.805
21
-82.4531
0
LINE
8
Black
10
130.805
20
-82.4531
11
130.821
21
-82.448
0
LINE
8
Black
10
130.821
20
-82.448
11
130.826
21
-82.4483
0
LINE
8
Black
10
130.826
20
-82.4483
11
130.831
21
-82.4471
0
LINE
8
Black
10
130.831
20
-82.4471
11
130.848
21
-82.4493
0
LINE
8
Black
10
130.848
20
-82.4493
11
130.865
21
-82.45
0
LINE
8
Black
10
130.865
20
-82.45
11
130.87
21
-82.452
0
LINE
8
Black
10
130.87
20
-82.452
11
130.875
21
-82.4527
0
LINE
8
Black
10
130.875
20
-82.4527
11
131.019
21
-82.4972
0
LINE
8
Black
10
131.019
20
-82.4972
11
131.348
21
-82.168
0
LINE
8
Black
10
131.348
20
-82.168
11
131.264
21
-81.9388
0
LINE
8
Black
10
131.264
20
-81.9388
11
131.264
21
-81.6512
0
LINE
8
Black
10
131.264
20
-81.6512
11
131.348
21
-81.422
0
LINE
8
Black
10
131.348
20
-81.422
11
131.019
21
-81.0928
0
LINE
8
Black
10
131.019
20
-81.0928
11
130.875
21
-81.1372
0
LINE
8
Black
10
130.875
20
-81.1372
11
130.87
21
-81.1379
0
LINE
8
Black
10
130.87
20
-81.1379
11
130.865
21
-81.1399
0
LINE
8
Black
10
130.865
20
-81.1399
11
130.848
21
-81.1406
0
LINE
8
Black
10
130.848
20
-81.1406
11
130.832
21
-81.1428
0
LINE
8
Black
10
130.832
20
-81.1428
11
130.826
21
-81.1416
0
LINE
8
Black
10
130.826
20
-81.1416
11
130.821
21
-81.1418
0
LINE
8
Black
10
130.821
20
-81.1418
11
130.805
21
-81.1367
0
LINE
8
Black
10
130.805
20
-81.1367
11
130.789
21
-81.133
0
LINE
8
Black
10
130.789
20
-81.133
11
130.784
21
-81.1301
0
LINE
8
Black
10
130.784
20
-81.1301
11
130.779
21
-81.1285
0
LINE
8
Black
10
130.779
20
-81.1285
11
130.766
21
-81.1183
0
LINE
8
Black
10
130.766
20
-81.1183
11
130.752
21
-81.1092
0
LINE
8
Black
10
130.752
20
-81.1092
11
130.748
21
-81.1049
0
LINE
8
Black
10
130.748
20
-81.1049
11
130.744
21
-81.1016
0
LINE
8
Black
10
130.744
20
-81.1016
11
130.735
21
-81.0874
0
LINE
8
Black
10
130.735
20
-81.0874
11
130.725
21
-81.074
0
LINE
8
Black
10
130.725
20
-81.074
11
130.723
21
-81.0689
0
LINE
8
Black
10
130.723
20
-81.0689
11
130.72
21
-81.0644
0
LINE
8
Black
10
130.72
20
-81.0644
11
130.711
21
-81.0409
0
LINE
8
Black
10
130.711
20
-81.0409
11
130.529
21
-80.8589
0
LINE
8
Black
10
130.529
20
-80.8589
11
130.336
21
-80.6656
0
LINE
8
Black
10
130.336
20
-80.6656
11
129.846
21
-80.4622
0
LINE
8
Black
10
129.846
20
-80.4622
11
129.316
21
-80.4618
0
LINE
8
Black
10
129.316
20
-80.4618
11
128.826
21
-80.6643
0
LINE
8
Black
10
133.826
20
-80.6643
11
133.451
21
-81.0389
0
LINE
8
Black
10
133.451
20
-81.0389
11
133.44
21
-81.0647
0
LINE
8
Black
10
133.44
20
-81.0647
11
133.437
21
-81.0692
0
LINE
8
Black
10
133.437
20
-81.0692
11
133.436
21
-81.0742
0
LINE
8
Black
10
133.436
20
-81.0742
11
133.425
21
-81.0876
0
LINE
8
Black
10
133.425
20
-81.0876
11
133.416
21
-81.1019
0
LINE
8
Black
10
133.416
20
-81.1019
11
133.412
21
-81.1051
0
LINE
8
Black
10
133.412
20
-81.1051
11
133.409
21
-81.1093
0
LINE
8
Black
10
133.409
20
-81.1093
11
133.395
21
-81.1184
0
LINE
8
Black
10
133.395
20
-81.1184
11
133.381
21
-81.1287
0
LINE
8
Black
10
133.381
20
-81.1287
11
133.376
21
-81.1303
0
LINE
8
Black
10
133.376
20
-81.1303
11
133.372
21
-81.1331
0
LINE
8
Black
10
133.372
20
-81.1331
11
133.355
21
-81.1369
0
LINE
8
Black
10
133.355
20
-81.1369
11
133.339
21
-81.142
0
LINE
8
Black
10
133.339
20
-81.142
11
133.334
21
-81.1417
0
LINE
8
Black
10
133.334
20
-81.1417
11
133.329
21
-81.1429
0
LINE
8
Black
10
133.329
20
-81.1429
11
133.312
21
-81.1407
0
LINE
8
Black
10
133.312
20
-81.1407
11
133.295
21
-81.14
0
LINE
8
Black
10
133.295
20
-81.14
11
133.29
21
-81.138
0
LINE
8
Black
10
133.29
20
-81.138
11
133.285
21
-81.1373
0
LINE
8
Black
10
133.285
20
-81.1373
11
133.141
21
-81.0928
0
LINE
8
Black
10
133.141
20
-81.0928
11
132.812
21
-81.422
0
LINE
8
Black
10
132.812
20
-81.422
11
132.896
21
-81.6512
0
LINE
8
Black
10
132.896
20
-81.6512
11
132.896
21
-81.9388
0
LINE
8
Black
10
132.896
20
-81.9388
11
132.812
21
-82.168
0
LINE
8
Black
10
132.812
20
-82.168
11
133.141
21
-82.4972
0
LINE
8
Black
10
133.141
20
-82.4972
11
133.285
21
-82.4528
0
LINE
8
Black
10
133.285
20
-82.4528
11
133.29
21
-82.4521
0
LINE
8
Black
10
133.29
20
-82.4521
11
133.295
21
-82.4501
0
LINE
8
Black
10
133.295
20
-82.4501
11
133.312
21
-82.4494
0
LINE
8
Black
10
133.312
20
-82.4494
11
133.328
21
-82.4472
0
LINE
8
Black
10
133.328
20
-82.4472
11
133.334
21
-82.4484
0
LINE
8
Black
10
133.334
20
-82.4484
11
133.339
21
-82.4482
0
LINE
8
Black
10
133.339
20
-82.4482
11
133.355
21
-82.4533
0
LINE
8
Black
10
133.355
20
-82.4533
11
133.371
21
-82.457
0
LINE
8
Black
10
133.371
20
-82.457
11
133.376
21
-82.4599
0
LINE
8
Black
10
133.376
20
-82.4599
11
133.381
21
-82.4615
0
LINE
8
Black
10
133.381
20
-82.4615
11
133.394
21
-82.4717
0
LINE
8
Black
10
133.394
20
-82.4717
11
133.408
21
-82.4808
0
LINE
8
Black
10
133.408
20
-82.4808
11
133.412
21
-82.4851
0
LINE
8
Black
10
133.412
20
-82.4851
11
133.416
21
-82.4884
0
LINE
8
Black
10
133.416
20
-82.4884
11
133.425
21
-82.5026
0
LINE
8
Black
10
133.425
20
-82.5026
11
133.435
21
-82.516
0
LINE
8
Black
10
133.435
20
-82.516
11
133.437
21
-82.5211
0
LINE
8
Black
10
133.437
20
-82.5211
11
133.44
21
-82.5256
0
LINE
8
Black
10
133.44
20
-82.5256
11
133.449
21
-82.5491
0
LINE
8
Black
10
133.449
20
-82.5491
11
133.824
21
-82.9244
0
LINE
8
Black
10
133.824
20
-82.9244
11
134.314
21
-83.1278
0
LINE
8
Black
10
134.314
20
-83.1278
11
134.844
21
-83.1282
0
LINE
8
Black
10
134.844
20
-83.1282
11
135.334
21
-82.9257
0
LINE
8
Black
10
135.334
20
-82.9257
11
135.709
21
-82.5511
0
LINE
8
Black
10
135.709
20
-82.5511
11
135.913
21
-82.0613
0
LINE
8
Black
10
135.913
20
-82.0613
11
135.913
21
-81.531
0
LINE
8
Black
10
135.913
20
-81.531
11
135.711
21
-81.0409
0
LINE
8
Black
10
135.711
20
-81.0409
11
135.336
21
-80.6656
0
LINE
8
Black
10
135.336
20
-80.6656
11
134.846
21
-80.4622
0
LINE
8
Black
10
134.846
20
-80.4622
11
134.316
21
-80.4618
0
LINE
8
Black
10
134.316
20
-80.4618
11
133.826
21
-80.6643
0
LINE
8
Black
10
131.751
20
-80.4758
11
131.415
21
-80.615
0
LINE
8
Black
10
131.415
20
-80.615
11
131.378
21
-80.7336
0
LINE
8
Black
10
131.378
20
-80.7336
11
131.711
21
-81.0665
0
LINE
8
Black
10
131.711
20
-81.0665
11
131.797
21
-81.0168
0
LINE
8
Black
10
131.797
20
-81.0168
11
132.08
21
-80.9668
0
LINE
8
Black
10
132.08
20
-80.9668
11
132.363
21
-81.0168
0
LINE
8
Black
10
132.363
20
-81.0168
11
132.449
21
-81.0665
0
LINE
8
Black
10
132.449
20
-81.0665
11
132.782
21
-80.7336
0
LINE
8
Black
10
132.782
20
-80.7336
11
132.746
21
-80.6184
0
LINE
8
Black
10
132.746
20
-80.6184
11
132.283
21
-80.4512
0
LINE
8
Black
10
132.283
20
-80.4512
11
131.751
21
-80.4758
0
LINE
8
Black
10
136.692
20
-72.7246
11
136.493
21
-72.7621
0
LINE
8
Black
10
136.493
20
-72.7621
11
136.319
21
-72.8738
0
LINE
8
Black
10
136.319
20
-72.8738
11
136.203
21
-73.0435
0
LINE
8
Black
10
136.203
20
-73.0435
11
136.16
21
-73.2577
0
LINE
8
Black
10
136.16
20
-73.2577
11
136.16
21
-75.3332
0
LINE
8
Black
10
136.16
20
-75.3332
11
136.197
21
-75.5325
0
LINE
8
Black
10
136.197
20
-75.5325
11
136.309
21
-75.7061
0
LINE
8
Black
10
136.309
20
-75.7061
11
136.479
21
-75.8221
0
LINE
8
Black
10
136.479
20
-75.8221
11
136.693
21
-75.8654
0
LINE
8
Black
10
136.693
20
-75.8654
11
138.668
21
-75.8654
0
LINE
8
Black
10
138.668
20
-75.8654
11
138.867
21
-75.8279
0
LINE
8
Black
10
138.867
20
-75.8279
11
139.041
21
-75.7162
0
LINE
8
Black
10
139.041
20
-75.7162
11
139.157
21
-75.5465
0
LINE
8
Black
10
139.157
20
-75.5465
11
139.2
21
-75.3323
0
LINE
8
Black
10
139.2
20
-75.3323
11
139.2
21
-73.2568
0
LINE
8
Black
10
139.2
20
-73.2568
11
139.163
21
-73.0575
0
LINE
8
Black
10
139.163
20
-73.0575
11
139.051
21
-72.8839
0
LINE
8
Black
10
139.051
20
-72.8839
11
138.881
21
-72.7679
0
LINE
8
Black
10
138.881
20
-72.7679
11
138.667
21
-72.7246
0
LINE
8
Black
10
138.667
20
-72.7246
11
136.692
21
-72.7246
0
LINE
8
Black
10
125.492
20
-72.7246
11
125.293
21
-72.7621
0
LINE
8
Black
10
125.293
20
-72.7621
11
125.119
21
-72.8738
0
LINE
8
Black
10
125.119
20
-72.8738
11
125.003
21
-73.0435
0
LINE
8
Black
10
125.003
20
-73.0435
11
124.96
21
-73.2577
0
LINE
8
Black
10
124.96
20
-73.2577
11
124.96
21
-75.3332
0
LINE
8
Black
10
124.96
20
-75.3332
11
124.997
21
-75.5325
0
LINE
8
Black
10
124.997
20
-75.5325
11
125.109
21
-75.7061
0
LINE
8
Black
10
125.109
20
-75.7061
11
125.279
21
-75.8221
0
LINE
8
Black
10
125.279
20
-75.8221
11
125.493
21
-75.8654
0
LINE
8
Black
10
125.493
20
-75.8654
11
127.468
21
-75.8654
0
LINE
8
Black
10
127.468
20
-75.8654
11
127.667
21
-75.8279
0
LINE
8
Black
10
127.667
20
-75.8279
11
127.841
21
-75.7162
0
LINE
8
Black
10
127.841
20
-75.7162
11
127.957
21
-75.5465
0
LINE
8
Black
10
127.957
20
-75.5465
11
128
21
-75.3323
0
LINE
8
Black
10
128
20
-75.3323
11
128
21
-73.2568
0
LINE
8
Black
10
128
20
-73.2568
11
127.963
21
-73.0575
0
LINE
8
Black
10
127.963
20
-73.0575
11
127.851
21
-72.8839
0
LINE
8
Black
10
127.851
20
-72.8839
11
127.681
21
-72.7679
0
LINE
8
Black
10
127.681
20
-72.7679
11
127.467
21
-72.7246
0
LINE
8
Black
10
127.467
20
-72.7246
11
125.492
21
-72.7246
0
LINE
8
Black
10
114.467
20
-60.579
11
114.404
21
-60.75
0
LINE
8
Black
10
114.404
20
-60.75
11
114.215
21
-60.9761
0
LINE
8
Black
10
114.215
20
-60.9761
11
113.959
21
-61.1237
0
LINE
8
Black
10
113.959
20
-61.1237
11
113.668
21
-61.175
0
LINE
8
Black
10
113.668
20
-61.175
11
113.662
21
-61.175
0
LINE
8
Black
10
113.662
20
-61.175
11
113.371
21
-61.1237
0
LINE
8
Black
10
113.371
20
-61.1237
11
113.115
21
-60.9761
0
LINE
8
Black
10
113.115
20
-60.9761
11
112.926
21
-60.75
0
LINE
8
Black
10
112.926
20
-60.75
11
112.863
21
-60.579
0
LINE
8
Black
10
112.863
20
-60.579
11
112.421
21
-60.579
0
LINE
8
Black
10
112.421
20
-60.579
11
112.364
21
-60.6884
0
LINE
8
Black
10
112.364
20
-60.6884
11
112.502
21
-61.0228
0
LINE
8
Black
10
112.502
20
-61.0228
11
112.763
21
-61.3094
0
LINE
8
Black
10
112.763
20
-61.3094
11
112.764
21
-61.311
0
LINE
8
Black
10
112.764
20
-61.311
11
112.766
21
-61.3122
0
LINE
8
Black
10
112.766
20
-61.3122
11
112.776
21
-61.3296
0
LINE
8
Black
10
112.776
20
-61.3296
11
112.787
21
-61.3467
0
LINE
8
Black
10
112.787
20
-61.3467
11
112.787
21
-61.3485
0
LINE
8
Black
10
112.787
20
-61.3485
11
112.788
21
-61.3501
0
LINE
8
Black
10
112.788
20
-61.3501
11
112.792
21
-61.37
0
LINE
8
Black
10
112.792
20
-61.37
11
112.796
21
-61.3897
0
LINE
8
Black
10
112.796
20
-61.3897
11
112.796
21
-61.3916
0
LINE
8
Black
10
112.796
20
-61.3916
11
112.796
21
-61.3935
0
LINE
8
Black
10
112.796
20
-61.3935
11
112.793
21
-61.4134
0
LINE
8
Black
10
112.793
20
-61.4134
11
112.791
21
-61.4335
0
LINE
8
Black
10
112.791
20
-61.4335
11
112.79
21
-61.4351
0
LINE
8
Black
10
112.79
20
-61.4351
11
112.789
21
-61.437
0
LINE
8
Black
10
112.789
20
-61.437
11
112.779
21
-61.4546
0
LINE
8
Black
10
112.779
20
-61.4546
11
112.77
21
-61.4725
0
LINE
8
Black
10
112.77
20
-61.4725
11
112.769
21
-61.4738
0
LINE
8
Black
10
112.769
20
-61.4738
11
112.768
21
-61.4755
0
LINE
8
Black
10
112.768
20
-61.4755
11
112.752
21
-61.4886
0
LINE
8
Black
10
112.752
20
-61.4886
11
112.737
21
-61.5022
0
LINE
8
Black
10
112.737
20
-61.5022
11
112.736
21
-61.503
0
LINE
8
Black
10
112.736
20
-61.503
11
112.734
21
-61.5042
0
LINE
8
Black
10
112.734
20
-61.5042
11
112.715
21
-61.5113
0
LINE
8
Black
10
112.715
20
-61.5113
11
112.697
21
-61.519
0
LINE
8
Black
10
112.697
20
-61.519
11
112.695
21
-61.5191
0
LINE
8
Black
10
112.695
20
-61.5191
11
112.693
21
-61.5197
0
LINE
8
Black
10
112.693
20
-61.5197
11
112.628
21
-61.5321
0
LINE
8
Black
10
112.628
20
-61.5321
11
112.454
21
-61.6438
0
LINE
8
Black
10
112.454
20
-61.6438
11
112.338
21
-61.8135
0
LINE
8
Black
10
112.338
20
-61.8135
11
112.295
21
-62.0277
0
LINE
8
Black
10
112.295
20
-62.0277
11
112.295
21
-63.7032
0
LINE
8
Black
10
112.295
20
-63.7032
11
112.332
21
-63.9025
0
LINE
8
Black
10
112.332
20
-63.9025
11
112.444
21
-64.0761
0
LINE
8
Black
10
112.444
20
-64.0761
11
112.614
21
-64.1921
0
LINE
8
Black
10
112.614
20
-64.1921
11
112.828
21
-64.2354
0
LINE
8
Black
10
112.828
20
-64.2354
11
114.503
21
-64.2354
0
LINE
8
Black
10
114.503
20
-64.2354
11
114.702
21
-64.1979
0
LINE
8
Black
10
114.702
20
-64.1979
11
114.876
21
-64.0862
0
LINE
8
Black
10
114.876
20
-64.0862
11
114.992
21
-63.9165
0
LINE
8
Black
10
114.992
20
-63.9165
11
115.035
21
-63.7023
0
LINE
8
Black
10
115.035
20
-63.7023
11
115.035
21
-62.0268
0
LINE
8
Black
10
115.035
20
-62.0268
11
114.998
21
-61.8275
0
LINE
8
Black
10
114.998
20
-61.8275
11
114.886
21
-61.6539
0
LINE
8
Black
10
114.886
20
-61.6539
11
114.716
21
-61.5379
0
LINE
8
Black
10
114.716
20
-61.5379
11
114.634
21
-61.5212
0
LINE
8
Black
10
114.634
20
-61.5212
11
114.633
21
-61.5208
0
LINE
8
Black
10
114.633
20
-61.5208
11
114.632
21
-61.5208
0
LINE
8
Black
10
114.632
20
-61.5208
11
114.612
21
-61.5128
0
LINE
8
Black
10
114.612
20
-61.5128
11
114.593
21
-61.505
0
LINE
8
Black
10
114.593
20
-61.505
11
114.592
21
-61.5044
0
LINE
8
Black
10
114.592
20
-61.5044
11
114.591
21
-61.504
0
LINE
8
Black
10
114.591
20
-61.504
11
114.575
21
-61.4898
0
LINE
8
Black
10
114.575
20
-61.4898
11
114.56
21
-61.4758
0
LINE
8
Black
10
114.56
20
-61.4758
11
114.559
21
-61.475
0
LINE
8
Black
10
114.559
20
-61.475
11
114.558
21
-61.4743
0
LINE
8
Black
10
114.558
20
-61.4743
11
114.549
21
-61.4556
0
LINE
8
Black
10
114.549
20
-61.4556
11
114.538
21
-61.4371
0
LINE
8
Black
10
114.538
20
-61.4371
11
114.538
21
-61.4361
0
LINE
8
Black
10
114.538
20
-61.4361
11
114.538
21
-61.4352
0
LINE
8
Black
10
114.538
20
-61.4352
11
114.535
21
-61.4143
0
LINE
8
Black
10
114.535
20
-61.4143
11
114.532
21
-61.3935
0
LINE
8
Black
10
114.532
20
-61.3935
11
114.532
21
-61.3925
0
LINE
8
Black
10
114.532
20
-61.3925
11
114.532
21
-61.3915
0
LINE
8
Black
10
114.532
20
-61.3915
11
114.536
21
-61.3709
0
LINE
8
Black
10
114.536
20
-61.3709
11
114.541
21
-61.3503
0
LINE
8
Black
10
114.541
20
-61.3503
11
114.541
21
-61.3494
0
LINE
8
Black
10
114.541
20
-61.3494
11
114.541
21
-61.3484
0
LINE
8
Black
10
114.541
20
-61.3484
11
114.553
21
-61.3306
0
LINE
8
Black
10
114.553
20
-61.3306
11
114.564
21
-61.3126
0
LINE
8
Black
10
114.564
20
-61.3126
11
114.564
21
-61.312
0
LINE
8
Black
10
114.564
20
-61.312
11
114.565
21
-61.3112
0
LINE
8
Black
10
114.565
20
-61.3112
11
114.828
21
-61.0228
0
LINE
8
Black
10
114.828
20
-61.0228
11
114.966
21
-60.6884
0
LINE
8
Black
10
114.966
20
-60.6884
11
114.909
21
-60.579
0
LINE
8
Black
10
114.909
20
-60.579
11
114.467
21
-60.579
0
LINE
8
Black
10
114.467
20
-58.039
11
114.404
21
-58.21
0
LINE
8
Black
10
114.404
20
-58.21
11
114.215
21
-58.4361
0
LINE
8
Black
10
114.215
20
-58.4361
11
113.959
21
-58.5837
0
LINE
8
Black
10
113.959
20
-58.5837
11
113.919
21
-58.5908
0
LINE
8
Black
10
113.919
20
-58.5908
11
113.919
21
-59.5192
0
LINE
8
Black
10
113.919
20
-59.5192
11
113.959
21
-59.5263
0
LINE
8
Black
10
113.959
20
-59.5263
11
114.215
21
-59.6739
0
LINE
8
Black
10
114.215
20
-59.6739
11
114.404
21
-59.9
0
LINE
8
Black
10
114.404
20
-59.9
11
114.467
21
-60.071
0
LINE
8
Black
10
114.467
20
-60.071
11
114.909
21
-60.071
0
LINE
8
Black
10
114.909
20
-60.071
11
114.966
21
-59.9616
0
LINE
8
Black
10
114.966
20
-59.9616
11
114.828
21
-59.6272
0
LINE
8
Black
10
114.828
20
-59.6272
11
114.47
21
-59.234
0
LINE
8
Black
10
114.47
20
-59.234
11
114.333
21
-59.17
0
LINE
8
Black
10
114.333
20
-59.17
11
114.324
21
-59.1638
0
LINE
8
Black
10
114.324
20
-59.1638
11
114.314
21
-59.1592
0
LINE
8
Black
10
114.314
20
-59.1592
11
114.306
21
-59.1512
0
LINE
8
Black
10
114.306
20
-59.1512
11
114.297
21
-59.1446
0
LINE
8
Black
10
114.297
20
-59.1446
11
114.291
21
-59.1357
0
LINE
8
Black
10
114.291
20
-59.1357
11
114.283
21
-59.1281
0
LINE
8
Black
10
114.283
20
-59.1281
11
114.278
21
-59.1178
0
LINE
8
Black
10
114.278
20
-59.1178
11
114.272
21
-59.1084
0
LINE
8
Black
10
114.272
20
-59.1084
11
114.269
21
-59.098
0
LINE
8
Black
10
114.269
20
-59.098
11
114.264
21
-59.0882
0
LINE
8
Black
10
114.264
20
-59.0882
11
114.263
21
-59.0768
0
LINE
8
Black
10
114.263
20
-59.0768
11
114.26
21
-59.0657
0
LINE
8
Black
10
114.26
20
-59.0657
11
114.261
21
-59.055
0
LINE
8
Black
10
114.261
20
-59.055
11
114.26
21
-59.0443
0
LINE
8
Black
10
114.26
20
-59.0443
11
114.263
21
-59.0332
0
LINE
8
Black
10
114.263
20
-59.0332
11
114.264
21
-59.0218
0
LINE
8
Black
10
114.264
20
-59.0218
11
114.269
21
-59.012
0
LINE
8
Black
10
114.269
20
-59.012
11
114.272
21
-59.0016
0
LINE
8
Black
10
114.272
20
-59.0016
11
114.278
21
-58.9922
0
LINE
8
Black
10
114.278
20
-58.9922
11
114.283
21
-58.9819
0
LINE
8
Black
10
114.283
20
-58.9819
11
114.291
21
-58.9743
0
LINE
8
Black
10
114.291
20
-58.9743
11
114.297
21
-58.9654
0
LINE
8
Black
10
114.297
20
-58.9654
11
114.306
21
-58.9588
0
LINE
8
Black
10
114.306
20
-58.9588
11
114.314
21
-58.9508
0
LINE
8
Black
10
114.314
20
-58.9508
11
114.324
21
-58.9462
0
LINE
8
Black
10
114.324
20
-58.9462
11
114.333
21
-58.94
0
LINE
8
Black
10
114.333
20
-58.94
11
114.47
21
-58.876
0
LINE
8
Black
10
114.47
20
-58.876
11
114.828
21
-58.4828
0
LINE
8
Black
10
114.828
20
-58.4828
11
114.966
21
-58.1484
0
LINE
8
Black
10
114.966
20
-58.1484
11
114.909
21
-58.039
0
LINE
8
Black
10
114.909
20
-58.039
11
114.467
21
-58.039
0
LINE
8
Black
10
112.421
20
-58.039
11
112.364
21
-58.1484
0
LINE
8
Black
10
112.364
20
-58.1484
11
112.502
21
-58.4828
0
LINE
8
Black
10
112.502
20
-58.4828
11
112.86
21
-58.876
0
LINE
8
Black
10
112.86
20
-58.876
11
112.997
21
-58.94
0
LINE
8
Black
10
112.997
20
-58.94
11
113.006
21
-58.9462
0
LINE
8
Black
10
113.006
20
-58.9462
11
113.016
21
-58.9508
0
LINE
8
Black
10
113.016
20
-58.9508
11
113.024
21
-58.9588
0
LINE
8
Black
10
113.024
20
-58.9588
11
113.033
21
-58.9654
0
LINE
8
Black
10
113.033
20
-58.9654
11
113.039
21
-58.9743
0
LINE
8
Black
10
113.039
20
-58.9743
11
113.047
21
-58.9819
0
LINE
8
Black
10
113.047
20
-58.9819
11
113.052
21
-58.9922
0
LINE
8
Black
10
113.052
20
-58.9922
11
113.058
21
-59.0016
0
LINE
8
Black
10
113.058
20
-59.0016
11
113.061
21
-59.012
0
LINE
8
Black
10
113.061
20
-59.012
11
113.066
21
-59.0218
0
LINE
8
Black
10
113.066
20
-59.0218
11
113.067
21
-59.0332
0
LINE
8
Black
10
113.067
20
-59.0332
11
113.069
21
-59.0443
0
LINE
8
Black
10
113.069
20
-59.0443
11
113.069
21
-59.055
0
LINE
8
Black
10
113.069
20
-59.055
11
113.069
21
-59.0657
0
LINE
8
Black
10
113.069
20
-59.0657
11
113.067
21
-59.0768
0
LINE
8
Black
10
113.067
20
-59.0768
11
113.066
21
-59.0882
0
LINE
8
Black
10
113.066
20
-59.0882
11
113.061
21
-59.098
0
LINE
8
Black
10
113.061
20
-59.098
11
113.058
21
-59.1084
0
LINE
8
Black
10
113.058
20
-59.1084
11
113.052
21
-59.1178
0
LINE
8
Black
10
113.052
20
-59.1178
11
113.047
21
-59.1281
0
LINE
8
Black
10
113.047
20
-59.1281
11
113.039
21
-59.1357
0
LINE
8
Black
10
113.039
20
-59.1357
11
113.033
21
-59.1446
0
LINE
8
Black
10
113.033
20
-59.1446
11
113.024
21
-59.1512
0
LINE
8
Black
10
113.024
20
-59.1512
11
113.016
21
-59.1592
0
LINE
8
Black
10
113.016
20
-59.1592
11
113.006
21
-59.1638
0
LINE
8
Black
10
113.006
20
-59.1638
11
112.997
21
-59.17
0
LINE
8
Black
10
112.997
20
-59.17
11
112.86
21
-59.234
0
LINE
8
Black
10
112.86
20
-59.234
11
112.502
21
-59.6272
0
LINE
8
Black
10
112.502
20
-59.6272
11
112.364
21
-59.9616
0
LINE
8
Black
10
112.364
20
-59.9616
11
112.421
21
-60.071
0
LINE
8
Black
10
112.421
20
-60.071
11
112.863
21
-60.071
0
LINE
8
Black
10
112.863
20
-60.071
11
112.926
21
-59.9
0
LINE
8
Black
10
112.926
20
-59.9
11
113.115
21
-59.6739
0
LINE
8
Black
10
113.115
20
-59.6739
11
113.371
21
-59.5263
0
LINE
8
Black
10
113.371
20
-59.5263
11
113.411
21
-59.5192
0
LINE
8
Black
10
113.411
20
-59.5192
11
113.411
21
-58.5908
0
LINE
8
Black
10
113.411
20
-58.5908
11
113.371
21
-58.5837
0
LINE
8
Black
10
113.371
20
-58.5837
11
113.115
21
-58.4361
0
LINE
8
Black
10
113.115
20
-58.4361
11
112.926
21
-58.21
0
LINE
8
Black
10
112.926
20
-58.21
11
112.863
21
-58.039
0
LINE
8
Black
10
112.863
20
-58.039
11
112.421
21
-58.039
0
LINE
8
Black
10
129.863
20
-81.0168
11
130.112
21
-81.1606
0
LINE
8
Black
10
130.112
20
-81.1606
11
130.297
21
-81.3809
0
LINE
8
Black
10
130.297
20
-81.3809
11
130.396
21
-81.6512
0
LINE
8
Black
10
130.396
20
-81.6512
11
130.396
21
-81.9388
0
LINE
8
Black
10
130.396
20
-81.9388
11
130.297
21
-82.2091
0
LINE
8
Black
10
130.297
20
-82.2091
11
130.112
21
-82.4294
0
LINE
8
Black
10
130.112
20
-82.4294
11
129.863
21
-82.5732
0
LINE
8
Black
10
129.863
20
-82.5732
11
129.58
21
-82.6232
0
LINE
8
Black
10
129.58
20
-82.6232
11
129.297
21
-82.5732
0
LINE
8
Black
10
129.297
20
-82.5732
11
129.048
21
-82.4294
0
LINE
8
Black
10
129.048
20
-82.4294
11
128.863
21
-82.2091
0
LINE
8
Black
10
128.863
20
-82.2091
11
128.764
21
-81.9388
0
LINE
8
Black
10
128.764
20
-81.9388
11
128.764
21
-81.6512
0
LINE
8
Black
10
128.764
20
-81.6512
11
128.863
21
-81.3809
0
LINE
8
Black
10
128.863
20
-81.3809
11
129.048
21
-81.1606
0
LINE
8
Black
10
129.048
20
-81.1606
11
129.297
21
-81.0168
0
LINE
8
Black
10
129.297
20
-81.0168
11
129.58
21
-80.9668
0
LINE
8
Black
10
129.58
20
-80.9668
11
129.863
21
-81.0168
0
LINE
8
Black
10
134.863
20
-81.0168
11
135.112
21
-81.1606
0
LINE
8
Black
10
135.112
20
-81.1606
11
135.297
21
-81.3809
0
LINE
8
Black
10
135.297
20
-81.3809
11
135.396
21
-81.6512
0
LINE
8
Black
10
135.396
20
-81.6512
11
135.396
21
-81.9388
0
LINE
8
Black
10
135.396
20
-81.9388
11
135.297
21
-82.2091
0
LINE
8
Black
10
135.297
20
-82.2091
11
135.112
21
-82.4294
0
LINE
8
Black
10
135.112
20
-82.4294
11
134.863
21
-82.5732
0
LINE
8
Black
10
134.863
20
-82.5732
11
134.58
21
-82.6232
0
LINE
8
Black
10
134.58
20
-82.6232
11
134.297
21
-82.5732
0
LINE
8
Black
10
134.297
20
-82.5732
11
134.048
21
-82.4294
0
LINE
8
Black
10
134.048
20
-82.4294
11
133.863
21
-82.2091
0
LINE
8
Black
10
133.863
20
-82.2091
11
133.764
21
-81.9388
0
LINE
8
Black
10
133.764
20
-81.9388
11
133.764
21
-81.6512
0
LINE
8
Black
10
133.764
20
-81.6512
11
133.863
21
-81.3809
0
LINE
8
Black
10
133.863
20
-81.3809
11
134.048
21
-81.1606
0
LINE
8
Black
10
134.048
20
-81.1606
11
134.297
21
-81.0168
0
LINE
8
Black
10
134.297
20
-81.0168
11
134.58
21
-80.9668
0
LINE
8
Black
10
134.58
20
-80.9668
11
134.863
21
-81.0168
0
LINE
8
Black
10
138.68
20
-75.345
11
136.68
21
-75.345
0
LINE
8
Black
10
136.68
20
-75.345
11
136.68
21
-73.245
0
LINE
8
Black
10
136.68
20
-73.245
11
138.68
21
-73.245
0
LINE
8
Black
10
138.68
20
-73.245
11
138.68
21
-75.345
0
LINE
8
Black
10
127.48
20
-75.345
11
125.48
21
-75.345
0
LINE
8
Black
10
125.48
20
-75.345
11
125.48
21
-73.245
0
LINE
8
Black
10
125.48
20
-73.245
11
127.48
21
-73.245
0
LINE
8
Black
10
127.48
20
-73.245
11
127.48
21
-75.345
0
LINE
8
Black
10
114.515
20
-63.715
11
112.815
21
-63.715
0
LINE
8
Black
10
112.815
20
-63.715
11
112.815
21
-62.015
0
LINE
8
Black
10
112.815
20
-62.015
11
114.515
21
-62.015
0
LINE
8
Black
10
114.515
20
-62.015
11
114.515
21
-63.715
0
LINE
8
Black
10
124.569
20
-84.7905
11
124.665
21
-84.8459
0
LINE
8
Black
10
124.665
20
-84.8459
11
124.736
21
-84.9306
0
LINE
8
Black
10
124.736
20
-84.9306
11
124.774
21
-85.0347
0
LINE
8
Black
10
124.774
20
-85.0347
11
124.774
21
-85.0447
0
LINE
8
Black
10
124.774
20
-85.0447
11
125.835
21
-86.106
0
LINE
8
Black
10
125.835
20
-86.106
11
135.702
21
-86.106
0
LINE
8
Black
10
135.702
20
-86.106
11
135.781
21
-86.0605
0
LINE
8
Black
10
135.781
20
-86.0605
11
135.89
21
-86.0413
0
LINE
8
Black
10
135.89
20
-86.0413
11
135.999
21
-86.0605
0
LINE
8
Black
10
135.999
20
-86.0605
11
136.095
21
-86.1159
0
LINE
8
Black
10
136.095
20
-86.1159
11
136.166
21
-86.2006
0
LINE
8
Black
10
136.166
20
-86.2006
11
136.204
21
-86.3047
0
LINE
8
Black
10
136.204
20
-86.3047
11
136.204
21
-86.4153
0
LINE
8
Black
10
136.204
20
-86.4153
11
136.166
21
-86.5194
0
LINE
8
Black
10
136.166
20
-86.5194
11
136.095
21
-86.6041
0
LINE
8
Black
10
136.095
20
-86.6041
11
135.999
21
-86.6595
0
LINE
8
Black
10
135.999
20
-86.6595
11
135.89
21
-86.6787
0
LINE
8
Black
10
135.89
20
-86.6787
11
135.781
21
-86.6595
0
LINE
8
Black
10
135.781
20
-86.6595
11
135.702
21
-86.614
0
LINE
8
Black
10
135.702
20
-86.614
11
125.73
21
-86.614
0
LINE
8
Black
10
125.73
20
-86.614
11
125.719
21
-86.6121
0
LINE
8
Black
10
125.719
20
-86.6121
11
125.708
21
-86.613
0
LINE
8
Black
10
125.708
20
-86.613
11
125.676
21
-86.6044
0
LINE
8
Black
10
125.676
20
-86.6044
11
125.643
21
-86.5987
0
LINE
8
Black
10
125.643
20
-86.5987
11
125.633
21
-86.5931
0
LINE
8
Black
10
125.633
20
-86.5931
11
125.623
21
-86.5902
0
LINE
8
Black
10
125.623
20
-86.5902
11
125.595
21
-86.5712
0
LINE
8
Black
10
125.595
20
-86.5712
11
125.567
21
-86.5546
0
LINE
8
Black
10
125.567
20
-86.5546
11
125.56
21
-86.546
0
LINE
8
Black
10
125.56
20
-86.546
11
125.55
21
-86.5396
0
LINE
8
Black
10
125.55
20
-86.5396
11
124.411
21
-85.4
0
LINE
8
Black
10
124.411
20
-85.4
11
124.351
21
-85.3895
0
LINE
8
Black
10
124.351
20
-85.3895
11
124.255
21
-85.3341
0
LINE
8
Black
10
124.255
20
-85.3341
11
124.184
21
-85.2494
0
LINE
8
Black
10
124.184
20
-85.2494
11
124.146
21
-85.1453
0
LINE
8
Black
10
124.146
20
-85.1453
11
124.146
21
-85.0347
0
LINE
8
Black
10
124.146
20
-85.0347
11
124.184
21
-84.9306
0
LINE
8
Black
10
124.184
20
-84.9306
11
124.255
21
-84.8459
0
LINE
8
Black
10
124.255
20
-84.8459
11
124.351
21
-84.7905
0
LINE
8
Black
10
124.351
20
-84.7905
11
124.46
21
-84.7713
0
LINE
8
Black
10
124.46
20
-84.7713
11
124.569
21
-84.7905
0
LINE
8
Black
10
114.515
20
-76.415
11
112.815
21
-76.415
0
LINE
8
Black
10
112.815
20
-76.415
11
112.815
21
-74.715
0
LINE
8
Black
10
112.815
20
-74.715
11
114.515
21
-74.715
0
LINE
8
Black
10
114.515
20
-74.715
11
114.515
21
-76.415
0
LINE
8
Black
10
113.959
20
-72.2263
11
114.215
21
-72.3739
0
LINE
8
Black
10
114.215
20
-72.3739
11
114.404
21
-72.6
0
LINE
8
Black
10
114.404
20
-72.6
11
114.505
21
-72.8774
0
LINE
8
Black
10
114.505
20
-72.8774
11
114.505
21
-73.1726
0
LINE
8
Black
10
114.505
20
-73.1726
11
114.404
21
-73.45
0
LINE
8
Black
10
114.404
20
-73.45
11
114.215
21
-73.6761
0
LINE
8
Black
10
114.215
20
-73.6761
11
113.959
21
-73.8237
0
LINE
8
Black
10
113.959
20
-73.8237
11
113.668
21
-73.875
0
LINE
8
Black
10
113.668
20
-73.875
11
113.662
21
-73.875
0
LINE
8
Black
10
113.662
20
-73.875
11
113.371
21
-73.8237
0
LINE
8
Black
10
113.371
20
-73.8237
11
113.115
21
-73.6761
0
LINE
8
Black
10
113.115
20
-73.6761
11
112.926
21
-73.45
0
LINE
8
Black
10
112.926
20
-73.45
11
112.825
21
-73.1726
0
LINE
8
Black
10
112.825
20
-73.1726
11
112.825
21
-72.8774
0
LINE
8
Black
10
112.825
20
-72.8774
11
112.926
21
-72.6
0
LINE
8
Black
10
112.926
20
-72.6
11
113.115
21
-72.3739
0
LINE
8
Black
10
113.115
20
-72.3739
11
113.371
21
-72.2263
0
LINE
8
Black
10
113.371
20
-72.2263
11
113.662
21
-72.175
0
LINE
8
Black
10
113.662
20
-72.175
11
113.668
21
-72.175
0
LINE
8
Black
10
113.668
20
-72.175
11
113.959
21
-72.2263
0
LINE
8
Black
10
113.959
20
-69.6863
11
114.215
21
-69.8339
0
LINE
8
Black
10
114.215
20
-69.8339
11
114.404
21
-70.06
0
LINE
8
Black
10
114.404
20
-70.06
11
114.505
21
-70.3374
0
LINE
8
Black
10
114.505
20
-70.3374
11
114.505
21
-70.6326
0
LINE
8
Black
10
114.505
20
-70.6326
11
114.404
21
-70.91
0
LINE
8
Black
10
114.404
20
-70.91
11
114.215
21
-71.1361
0
LINE
8
Black
10
114.215
20
-71.1361
11
113.959
21
-71.2837
0
LINE
8
Black
10
113.959
20
-71.2837
11
113.668
21
-71.335
0
LINE
8
Black
10
113.668
20
-71.335
11
113.662
21
-71.335
0
LINE
8
Black
10
113.662
20
-71.335
11
113.371
21
-71.2837
0
LINE
8
Black
10
113.371
20
-71.2837
11
113.115
21
-71.1361
0
LINE
8
Black
10
113.115
20
-71.1361
11
112.926
21
-70.91
0
LINE
8
Black
10
112.926
20
-70.91
11
112.825
21
-70.6326
0
LINE
8
Black
10
112.825
20
-70.6326
11
112.825
21
-70.3374
0
LINE
8
Black
10
112.825
20
-70.3374
11
112.926
21
-70.06
0
LINE
8
Black
10
112.926
20
-70.06
11
113.115
21
-69.8339
0
LINE
8
Black
10
113.115
20
-69.8339
11
113.371
21
-69.6863
0
LINE
8
Black
10
113.371
20
-69.6863
11
113.662
21
-69.635
0
LINE
8
Black
10
113.662
20
-69.635
11
113.668
21
-69.635
0
LINE
8
Black
10
113.668
20
-69.635
11
113.959
21
-69.6863
0
LINE
8
Black
10
113.959
20
-67.1463
11
114.215
21
-67.2939
0
LINE
8
Black
10
114.215
20
-67.2939
11
114.404
21
-67.52
0
LINE
8
Black
10
114.404
20
-67.52
11
114.505
21
-67.7974
0
LINE
8
Black
10
114.505
20
-67.7974
11
114.505
21
-68.0926
0
LINE
8
Black
10
114.505
20
-68.0926
11
114.404
21
-68.37
0
LINE
8
Black
10
114.404
20
-68.37
11
114.215
21
-68.5961
0
LINE
8
Black
10
114.215
20
-68.5961
11
113.959
21
-68.7437
0
LINE
8
Black
10
113.959
20
-68.7437
11
113.668
21
-68.795
0
LINE
8
Black
10
113.668
20
-68.795
11
113.662
21
-68.795
0
LINE
8
Black
10
113.662
20
-68.795
11
113.371
21
-68.7437
0
LINE
8
Black
10
113.371
20
-68.7437
11
113.115
21
-68.5961
0
LINE
8
Black
10
113.115
20
-68.5961
11
112.926
21
-68.37
0
LINE
8
Black
10
112.926
20
-68.37
11
112.825
21
-68.0926
0
LINE
8
Black
10
112.825
20
-68.0926
11
112.825
21
-67.7974
0
LINE
8
Black
10
112.825
20
-67.7974
11
112.926
21
-67.52
0
LINE
8
Black
10
112.926
20
-67.52
11
113.115
21
-67.2939
0
LINE
8
Black
10
113.115
20
-67.2939
11
113.371
21
-67.1463
0
LINE
8
Black
10
113.371
20
-67.1463
11
113.662
21
-67.095
0
LINE
8
Black
10
113.662
20
-67.095
11
113.668
21
-67.095
0
LINE
8
Black
10
113.668
20
-67.095
11
113.959
21
-67.1463
0
LINE
8
Black
10
113.959
20
-54.4463
11
114.215
21
-54.5939
0
LINE
8
Black
10
114.215
20
-54.5939
11
114.404
21
-54.82
0
LINE
8
Black
10
114.404
20
-54.82
11
114.467
21
-54.991
0
LINE
8
Black
10
114.467
20
-54.991
11
117.475
21
-54.991
0
LINE
8
Black
10
117.475
20
-54.991
11
117.486
21
-54.9929
0
LINE
8
Black
10
117.486
20
-54.9929
11
117.497
21
-54.992
0
LINE
8
Black
10
117.497
20
-54.992
11
117.529
21
-55.0006
0
LINE
8
Black
10
117.529
20
-55.0006
11
117.562
21
-55.0063
0
LINE
8
Black
10
117.562
20
-55.0063
11
117.572
21
-55.0119
0
LINE
8
Black
10
117.572
20
-55.0119
11
117.582
21
-55.0148
0
LINE
8
Black
10
117.582
20
-55.0148
11
117.61
21
-55.0338
0
LINE
8
Black
10
117.61
20
-55.0338
11
117.638
21
-55.0504
0
LINE
8
Black
10
117.638
20
-55.0504
11
117.645
21
-55.059
0
LINE
8
Black
10
117.645
20
-55.059
11
117.655
21
-55.0654
0
LINE
8
Black
10
117.655
20
-55.0654
11
120.12
21
-57.531
0
LINE
8
Black
10
120.12
20
-57.531
11
139.065
21
-57.531
0
LINE
8
Black
10
139.065
20
-57.531
11
139.076
21
-57.5329
0
LINE
8
Black
10
139.076
20
-57.5329
11
139.087
21
-57.532
0
LINE
8
Black
10
139.087
20
-57.532
11
139.119
21
-57.5406
0
LINE
8
Black
10
139.119
20
-57.5406
11
139.152
21
-57.5463
0
LINE
8
Black
10
139.152
20
-57.5463
11
139.162
21
-57.5519
0
LINE
8
Black
10
139.162
20
-57.5519
11
139.172
21
-57.5548
0
LINE
8
Black
10
139.172
20
-57.5548
11
139.2
21
-57.5738
0
LINE
8
Black
10
139.2
20
-57.5738
11
139.228
21
-57.5904
0
LINE
8
Black
10
139.228
20
-57.5904
11
139.235
21
-57.599
0
LINE
8
Black
10
139.235
20
-57.599
11
139.245
21
-57.6054
0
LINE
8
Black
10
139.245
20
-57.6054
11
139.88
21
-58.2404
0
LINE
8
Black
10
139.88
20
-58.2404
11
139.886
21
-58.2495
0
LINE
8
Black
10
139.886
20
-58.2495
11
139.895
21
-58.2567
0
LINE
8
Black
10
139.895
20
-58.2567
11
139.911
21
-58.2855
0
LINE
8
Black
10
139.911
20
-58.2855
11
139.93
21
-58.3127
0
LINE
8
Black
10
139.93
20
-58.3127
11
139.933
21
-58.3234
0
LINE
8
Black
10
139.933
20
-58.3234
11
139.939
21
-58.3331
0
LINE
8
Black
10
139.939
20
-58.3331
11
139.944
21
-58.3658
0
LINE
8
Black
10
139.944
20
-58.3658
11
139.953
21
-58.3979
0
LINE
8
Black
10
139.953
20
-58.3979
11
139.952
21
-58.409
0
LINE
8
Black
10
139.952
20
-58.409
11
139.954
21
-58.42
0
LINE
8
Black
10
139.954
20
-58.42
11
139.954
21
-66.04
0
LINE
8
Black
10
139.954
20
-66.04
11
139.952
21
-66.051
0
LINE
8
Black
10
139.952
20
-66.051
11
139.953
21
-66.0621
0
LINE
8
Black
10
139.953
20
-66.0621
11
139.944
21
-66.0942
0
LINE
8
Black
10
139.944
20
-66.0942
11
139.939
21
-66.1269
0
LINE
8
Black
10
139.939
20
-66.1269
11
139.933
21
-66.1366
0
LINE
8
Black
10
139.933
20
-66.1366
11
139.93
21
-66.1473
0
LINE
8
Black
10
139.93
20
-66.1473
11
139.911
21
-66.1745
0
LINE
8
Black
10
139.911
20
-66.1745
11
139.895
21
-66.2033
0
LINE
8
Black
10
139.895
20
-66.2033
11
139.886
21
-66.2105
0
LINE
8
Black
10
139.886
20
-66.2105
11
139.88
21
-66.2196
0
LINE
8
Black
10
139.88
20
-66.2196
11
138.625
21
-67.4746
0
LINE
8
Black
10
138.625
20
-67.4746
11
138.615
21
-67.481
0
LINE
8
Black
10
138.615
20
-67.481
11
138.608
21
-67.4896
0
LINE
8
Black
10
138.608
20
-67.4896
11
138.58
21
-67.5062
0
LINE
8
Black
10
138.58
20
-67.5062
11
138.552
21
-67.5252
0
LINE
8
Black
10
138.552
20
-67.5252
11
138.542
21
-67.5281
0
LINE
8
Black
10
138.542
20
-67.5281
11
138.532
21
-67.5337
0
LINE
8
Black
10
138.532
20
-67.5337
11
138.499
21
-67.5394
0
LINE
8
Black
10
138.499
20
-67.5394
11
138.467
21
-67.548
0
LINE
8
Black
10
138.467
20
-67.548
11
138.456
21
-67.5471
0
LINE
8
Black
10
138.456
20
-67.5471
11
138.445
21
-67.549
0
LINE
8
Black
10
138.445
20
-67.549
11
136.789
21
-67.549
0
LINE
8
Black
10
136.789
20
-67.549
11
136.742
21
-67.6775
0
LINE
8
Black
10
136.742
20
-67.6775
11
136.572
21
-67.881
0
LINE
8
Black
10
136.572
20
-67.881
11
136.342
21
-68.0138
0
LINE
8
Black
10
136.342
20
-68.0138
11
136.08
21
-68.0599
0
LINE
8
Black
10
136.08
20
-68.0599
11
135.818
21
-68.0138
0
LINE
8
Black
10
135.818
20
-68.0138
11
135.588
21
-67.881
0
LINE
8
Black
10
135.588
20
-67.881
11
135.418
21
-67.6775
0
LINE
8
Black
10
135.418
20
-67.6775
11
135.327
21
-67.4278
0
LINE
8
Black
10
135.327
20
-67.4278
11
135.327
21
-67.1622
0
LINE
8
Black
10
135.327
20
-67.1622
11
135.418
21
-66.9125
0
LINE
8
Black
10
135.418
20
-66.9125
11
135.588
21
-66.709
0
LINE
8
Black
10
135.588
20
-66.709
11
135.818
21
-66.5762
0
LINE
8
Black
10
135.818
20
-66.5762
11
136.08
21
-66.5301
0
LINE
8
Black
10
136.08
20
-66.5301
11
136.342
21
-66.5762
0
LINE
8
Black
10
136.342
20
-66.5762
11
136.572
21
-66.709
0
LINE
8
Black
10
136.572
20
-66.709
11
136.742
21
-66.9125
0
LINE
8
Black
10
136.742
20
-66.9125
11
136.789
21
-67.041
0
LINE
8
Black
10
136.789
20
-67.041
11
138.34
21
-67.041
0
LINE
8
Black
10
138.34
20
-67.041
11
139.446
21
-65.9348
0
LINE
8
Black
10
139.446
20
-65.9348
11
139.446
21
-58.5252
0
LINE
8
Black
10
139.446
20
-58.5252
11
138.96
21
-58.039
0
LINE
8
Black
10
138.96
20
-58.039
11
120.015
21
-58.039
0
LINE
8
Black
10
120.015
20
-58.039
11
120.004
21
-58.0371
0
LINE
8
Black
10
120.004
20
-58.0371
11
119.993
21
-58.038
0
LINE
8
Black
10
119.993
20
-58.038
11
119.961
21
-58.0294
0
LINE
8
Black
10
119.961
20
-58.0294
11
119.928
21
-58.0237
0
LINE
8
Black
10
119.928
20
-58.0237
11
119.918
21
-58.0181
0
LINE
8
Black
10
119.918
20
-58.0181
11
119.908
21
-58.0152
0
LINE
8
Black
10
119.908
20
-58.0152
11
119.88
21
-57.9962
0
LINE
8
Black
10
119.88
20
-57.9962
11
119.852
21
-57.9796
0
LINE
8
Black
10
119.852
20
-57.9796
11
119.845
21
-57.971
0
LINE
8
Black
10
119.845
20
-57.971
11
119.835
21
-57.9646
0
LINE
8
Black
10
119.835
20
-57.9646
11
117.37
21
-55.499
0
LINE
8
Black
10
117.37
20
-55.499
11
114.467
21
-55.499
0
LINE
8
Black
10
114.467
20
-55.499
11
114.404
21
-55.67
0
LINE
8
Black
10
114.404
20
-55.67
11
114.215
21
-55.8961
0
LINE
8
Black
10
114.215
20
-55.8961
11
113.959
21
-56.0437
0
LINE
8
Black
10
113.959
20
-56.0437
11
113.668
21
-56.095
0
LINE
8
Black
10
113.668
20
-56.095
11
113.662
21
-56.095
0
LINE
8
Black
10
113.662
20
-56.095
11
113.371
21
-56.0437
0
LINE
8
Black
10
113.371
20
-56.0437
11
113.115
21
-55.8961
0
LINE
8
Black
10
113.115
20
-55.8961
11
112.926
21
-55.67
0
LINE
8
Black
10
112.926
20
-55.67
11
112.825
21
-55.3926
0
LINE
8
Black
10
112.825
20
-55.3926
11
112.825
21
-55.0974
0
LINE
8
Black
10
112.825
20
-55.0974
11
112.926
21
-54.82
0
LINE
8
Black
10
112.926
20
-54.82
11
113.115
21
-54.5939
0
LINE
8
Black
10
113.115
20
-54.5939
11
113.371
21
-54.4463
0
LINE
8
Black
10
113.371
20
-54.4463
11
113.662
21
-54.395
0
LINE
8
Black
10
113.662
20
-54.395
11
113.668
21
-54.395
0
LINE
8
Black
10
113.668
20
-54.395
11
113.959
21
-54.4463
0
LINE
8
Black
10
134.342
20
-66.5762
11
134.572
21
-66.709
0
LINE
8
Black
10
134.572
20
-66.709
11
134.742
21
-66.9125
0
LINE
8
Black
10
134.742
20
-66.9125
11
134.833
21
-67.1622
0
LINE
8
Black
10
134.833
20
-67.1622
11
134.833
21
-67.4278
0
LINE
8
Black
10
134.833
20
-67.4278
11
134.742
21
-67.6775
0
LINE
8
Black
10
134.742
20
-67.6775
11
134.572
21
-67.881
0
LINE
8
Black
10
134.572
20
-67.881
11
134.342
21
-68.0138
0
LINE
8
Black
10
134.342
20
-68.0138
11
134.08
21
-68.0599
0
LINE
8
Black
10
134.08
20
-68.0599
11
133.818
21
-68.0138
0
LINE
8
Black
10
133.818
20
-68.0138
11
133.588
21
-67.881
0
LINE
8
Black
10
133.588
20
-67.881
11
133.418
21
-67.6775
0
LINE
8
Black
10
133.418
20
-67.6775
11
133.327
21
-67.4278
0
LINE
8
Black
10
133.327
20
-67.4278
11
133.327
21
-67.1622
0
LINE
8
Black
10
133.327
20
-67.1622
11
133.418
21
-66.9125
0
LINE
8
Black
10
133.418
20
-66.9125
11
133.588
21
-66.709
0
LINE
8
Black
10
133.588
20
-66.709
11
133.818
21
-66.5762
0
LINE
8
Black
10
133.818
20
-66.5762
11
134.08
21
-66.5301
0
LINE
8
Black
10
134.08
20
-66.5301
11
134.342
21
-66.5762
0
LINE
8
Black
10
128.342
20
-66.5762
11
128.572
21
-66.709
0
LINE
8
Black
10
128.572
20
-66.709
11
128.742
21
-66.9125
0
LINE
8
Black
10
128.742
20
-66.9125
11
128.833
21
-67.1622
0
LINE
8
Black
10
128.833
20
-67.1622
11
128.833
21
-67.4278
0
LINE
8
Black
10
128.833
20
-67.4278
11
128.742
21
-67.6775
0
LINE
8
Black
10
128.742
20
-67.6775
11
128.572
21
-67.881
0
LINE
8
Black
10
128.572
20
-67.881
11
128.342
21
-68.0138
0
LINE
8
Black
10
128.342
20
-68.0138
11
128.08
21
-68.0599
0
LINE
8
Black
10
128.08
20
-68.0599
11
127.818
21
-68.0138
0
LINE
8
Black
10
127.818
20
-68.0138
11
127.588
21
-67.881
0
LINE
8
Black
10
127.588
20
-67.881
11
127.418
21
-67.6775
0
LINE
8
Black
10
127.418
20
-67.6775
11
127.327
21
-67.4278
0
LINE
8
Black
10
127.327
20
-67.4278
11
127.327
21
-67.1622
0
LINE
8
Black
10
127.327
20
-67.1622
11
127.418
21
-66.9125
0
LINE
8
Black
10
127.418
20
-66.9125
11
127.588
21
-66.709
0
LINE
8
Black
10
127.588
20
-66.709
11
127.818
21
-66.5762
0
LINE
8
Black
10
127.818
20
-66.5762
11
128.08
21
-66.5301
0
LINE
8
Black
10
128.08
20
-66.5301
11
128.342
21
-66.5762
0
LINE
8
Black
10
130.342
20
-66.5762
11
130.572
21
-66.709
0
LINE
8
Black
10
130.572
20
-66.709
11
130.742
21
-66.9125
0
LINE
8
Black
10
130.742
20
-66.9125
11
130.833
21
-67.1622
0
LINE
8
Black
10
130.833
20
-67.1622
11
130.833
21
-67.4278
0
LINE
8
Black
10
130.833
20
-67.4278
11
130.742
21
-67.6775
0
LINE
8
Black
10
130.742
20
-67.6775
11
130.572
21
-67.881
0
LINE
8
Black
10
130.572
20
-67.881
11
130.342
21
-68.0138
0
LINE
8
Black
10
130.342
20
-68.0138
11
130.08
21
-68.0599
0
LINE
8
Black
10
130.08
20
-68.0599
11
129.818
21
-68.0138
0
LINE
8
Black
10
129.818
20
-68.0138
11
129.588
21
-67.881
0
LINE
8
Black
10
129.588
20
-67.881
11
129.418
21
-67.6775
0
LINE
8
Black
10
129.418
20
-67.6775
11
129.327
21
-67.4278
0
LINE
8
Black
10
129.327
20
-67.4278
11
129.327
21
-67.1622
0
LINE
8
Black
10
129.327
20
-67.1622
11
129.418
21
-66.9125
0
LINE
8
Black
10
129.418
20
-66.9125
11
129.588
21
-66.709
0
LINE
8
Black
10
129.588
20
-66.709
11
129.818
21
-66.5762
0
LINE
8
Black
10
129.818
20
-66.5762
11
130.08
21
-66.5301
0
LINE
8
Black
10
130.08
20
-66.5301
11
130.342
21
-66.5762
0
LINE
8
Black
10
133.459
20
-64.4705
11
133.555
21
-64.5259
0
LINE
8
Black
10
133.555
20
-64.5259
11
133.626
21
-64.6106
0
LINE
8
Black
10
133.626
20
-64.6106
11
133.664
21
-64.7147
0
LINE
8
Black
10
133.664
20
-64.7147
11
133.664
21
-64.8253
0
LINE
8
Black
10
133.664
20
-64.8253
11
133.626
21
-64.9294
0
LINE
8
Black
10
133.626
20
-64.9294
11
133.555
21
-65.0141
0
LINE
8
Black
10
133.555
20
-65.0141
11
133.459
21
-65.0695
0
LINE
8
Black
10
133.459
20
-65.0695
11
133.399
21
-65.08
0
LINE
8
Black
10
133.399
20
-65.08
11
133.212
21
-65.2671
0
LINE
8
Black
10
133.212
20
-65.2671
11
132.334
21
-66.1452
0
LINE
8
Black
10
132.334
20
-66.1452
11
132.334
21
-66.5749
0
LINE
8
Black
10
132.334
20
-66.5749
11
132.342
21
-66.5762
0
LINE
8
Black
10
132.342
20
-66.5762
11
132.572
21
-66.709
0
LINE
8
Black
10
132.572
20
-66.709
11
132.742
21
-66.9125
0
LINE
8
Black
10
132.742
20
-66.9125
11
132.833
21
-67.1622
0
LINE
8
Black
10
132.833
20
-67.1622
11
132.833
21
-67.4278
0
LINE
8
Black
10
132.833
20
-67.4278
11
132.742
21
-67.6775
0
LINE
8
Black
10
132.742
20
-67.6775
11
132.572
21
-67.881
0
LINE
8
Black
10
132.572
20
-67.881
11
132.342
21
-68.0138
0
LINE
8
Black
10
132.342
20
-68.0138
11
132.08
21
-68.0599
0
LINE
8
Black
10
132.08
20
-68.0599
11
131.818
21
-68.0138
0
LINE
8
Black
10
131.818
20
-68.0138
11
131.588
21
-67.881
0
LINE
8
Black
10
131.588
20
-67.881
11
131.418
21
-67.6775
0
LINE
8
Black
10
131.418
20
-67.6775
11
131.327
21
-67.4278
0
LINE
8
Black
10
131.327
20
-67.4278
11
131.327
21
-67.1622
0
LINE
8
Black
10
131.327
20
-67.1622
11
131.418
21
-66.9125
0
LINE
8
Black
10
131.418
20
-66.9125
11
131.588
21
-66.709
0
LINE
8
Black
10
131.588
20
-66.709
11
131.818
21
-66.5762
0
LINE
8
Black
10
131.818
20
-66.5762
11
131.826
21
-66.5749
0
LINE
8
Black
10
131.826
20
-66.5749
11
131.826
21
-66.04
0
LINE
8
Black
10
131.826
20
-66.04
11
131.828
21
-66.029
0
LINE
8
Black
10
131.828
20
-66.029
11
131.827
21
-66.0179
0
LINE
8
Black
10
131.827
20
-66.0179
11
131.836
21
-65.9858
0
LINE
8
Black
10
131.836
20
-65.9858
11
131.841
21
-65.9531
0
LINE
8
Black
10
131.841
20
-65.9531
11
131.847
21
-65.9434
0
LINE
8
Black
10
131.847
20
-65.9434
11
131.85
21
-65.9327
0
LINE
8
Black
10
131.85
20
-65.9327
11
131.869
21
-65.9055
0
LINE
8
Black
10
131.869
20
-65.9055
11
131.885
21
-65.8767
0
LINE
8
Black
10
131.885
20
-65.8767
11
131.894
21
-65.8695
0
LINE
8
Black
10
131.894
20
-65.8695
11
131.9
21
-65.8604
0
LINE
8
Black
10
131.9
20
-65.8604
11
132.853
21
-64.9079
0
LINE
8
Black
10
132.853
20
-64.9079
11
133.036
21
-64.7247
0
LINE
8
Black
10
133.036
20
-64.7247
11
133.036
21
-64.7147
0
LINE
8
Black
10
133.036
20
-64.7147
11
133.074
21
-64.6106
0
LINE
8
Black
10
133.074
20
-64.6106
11
133.145
21
-64.5259
0
LINE
8
Black
10
133.145
20
-64.5259
11
133.241
21
-64.4705
0
LINE
8
Black
10
133.241
20
-64.4705
11
133.35
21
-64.4513
0
LINE
8
Black
10
133.35
20
-64.4513
11
133.459
21
-64.4705
0
LINE
8
Black
10
138.01
20
-56.095
11
136.31
21
-56.095
0
LINE
8
Black
10
136.31
20
-56.095
11
136.31
21
-54.395
0
LINE
8
Black
10
136.31
20
-54.395
11
138.01
21
-54.395
0
LINE
8
Black
10
138.01
20
-54.395
11
138.01
21
-56.095
0
LINE
8
Black
10
135.045
20
-54.5056
11
135.271
21
-54.6954
0
LINE
8
Black
10
135.271
20
-54.6954
11
135.419
21
-54.951
0
LINE
8
Black
10
135.419
20
-54.951
11
135.47
21
-55.2418
0
LINE
8
Black
10
135.47
20
-55.2418
11
135.47
21
-55.2482
0
LINE
8
Black
10
135.47
20
-55.2482
11
135.419
21
-55.539
0
LINE
8
Black
10
135.419
20
-55.539
11
135.271
21
-55.7946
0
LINE
8
Black
10
135.271
20
-55.7946
11
135.045
21
-55.9844
0
LINE
8
Black
10
135.045
20
-55.9844
11
134.768
21
-56.0853
0
LINE
8
Black
10
134.768
20
-56.0853
11
134.472
21
-56.0853
0
LINE
8
Black
10
134.472
20
-56.0853
11
134.195
21
-55.9844
0
LINE
8
Black
10
134.195
20
-55.9844
11
133.969
21
-55.7946
0
LINE
8
Black
10
133.969
20
-55.7946
11
133.821
21
-55.539
0
LINE
8
Black
10
133.821
20
-55.539
11
133.77
21
-55.2482
0
LINE
8
Black
10
133.77
20
-55.2482
11
133.77
21
-55.2418
0
LINE
8
Black
10
133.77
20
-55.2418
11
133.821
21
-54.951
0
LINE
8
Black
10
133.821
20
-54.951
11
133.969
21
-54.6954
0
LINE
8
Black
10
133.969
20
-54.6954
11
134.195
21
-54.5056
0
LINE
8
Black
10
134.195
20
-54.5056
11
134.472
21
-54.4047
0
LINE
8
Black
10
134.472
20
-54.4047
11
134.768
21
-54.4047
0
LINE
8
Black
10
134.768
20
-54.4047
11
135.045
21
-54.5056
0
LINE
8
Black
10
132.505
20
-54.5056
11
132.731
21
-54.6954
0
LINE
8
Black
10
132.731
20
-54.6954
11
132.879
21
-54.951
0
LINE
8
Black
10
132.879
20
-54.951
11
132.93
21
-55.2418
0
LINE
8
Black
10
132.93
20
-55.2418
11
132.93
21
-55.2482
0
LINE
8
Black
10
132.93
20
-55.2482
11
132.879
21
-55.539
0
LINE
8
Black
10
132.879
20
-55.539
11
132.731
21
-55.7946
0
LINE
8
Black
10
132.731
20
-55.7946
11
132.505
21
-55.9844
0
LINE
8
Black
10
132.505
20
-55.9844
11
132.228
21
-56.0853
0
LINE
8
Black
10
132.228
20
-56.0853
11
131.932
21
-56.0853
0
LINE
8
Black
10
131.932
20
-56.0853
11
131.655
21
-55.9844
0
LINE
8
Black
10
131.655
20
-55.9844
11
131.429
21
-55.7946
0
LINE
8
Black
10
131.429
20
-55.7946
11
131.281
21
-55.539
0
LINE
8
Black
10
131.281
20
-55.539
11
131.23
21
-55.2482
0
LINE
8
Black
10
131.23
20
-55.2482
11
131.23
21
-55.2418
0
LINE
8
Black
10
131.23
20
-55.2418
11
131.281
21
-54.951
0
LINE
8
Black
10
131.281
20
-54.951
11
131.429
21
-54.6954
0
LINE
8
Black
10
131.429
20
-54.6954
11
131.655
21
-54.5056
0
LINE
8
Black
10
131.655
20
-54.5056
11
131.932
21
-54.4047
0
LINE
8
Black
10
131.932
20
-54.4047
11
132.228
21
-54.4047
0
LINE
8
Black
10
132.228
20
-54.4047
11
132.505
21
-54.5056
0
LINE
8
Black
10
129.965
20
-54.5056
11
130.191
21
-54.6954
0
LINE
8
Black
10
130.191
20
-54.6954
11
130.339
21
-54.951
0
LINE
8
Black
10
130.339
20
-54.951
11
130.39
21
-55.2418
0
LINE
8
Black
10
130.39
20
-55.2418
11
130.39
21
-55.2482
0
LINE
8
Black
10
130.39
20
-55.2482
11
130.339
21
-55.539
0
LINE
8
Black
10
130.339
20
-55.539
11
130.191
21
-55.7946
0
LINE
8
Black
10
130.191
20
-55.7946
11
129.965
21
-55.9844
0
LINE
8
Black
10
129.965
20
-55.9844
11
129.688
21
-56.0853
0
LINE
8
Black
10
129.688
20
-56.0853
11
129.392
21
-56.0853
0
LINE
8
Black
10
129.392
20
-56.0853
11
129.115
21
-55.9844
0
LINE
8
Black
10
129.115
20
-55.9844
11
128.889
21
-55.7946
0
LINE
8
Black
10
128.889
20
-55.7946
11
128.741
21
-55.539
0
LINE
8
Black
10
128.741
20
-55.539
11
128.69
21
-55.2482
0
LINE
8
Black
10
128.69
20
-55.2482
11
128.69
21
-55.2418
0
LINE
8
Black
10
128.69
20
-55.2418
11
128.741
21
-54.951
0
LINE
8
Black
10
128.741
20
-54.951
11
128.889
21
-54.6954
0
LINE
8
Black
10
128.889
20
-54.6954
11
129.115
21
-54.5056
0
LINE
8
Black
10
129.115
20
-54.5056
11
129.392
21
-54.4047
0
LINE
8
Black
10
129.392
20
-54.4047
11
129.688
21
-54.4047
0
LINE
8
Black
10
129.688
20
-54.4047
11
129.965
21
-54.5056
0
LINE
8
Black
10
127.425
20
-54.5056
11
127.651
21
-54.6954
0
LINE
8
Black
10
127.651
20
-54.6954
11
127.799
21
-54.951
0
LINE
8
Black
10
127.799
20
-54.951
11
127.85
21
-55.2418
0
LINE
8
Black
10
127.85
20
-55.2418
11
127.85
21
-55.2482
0
LINE
8
Black
10
127.85
20
-55.2482
11
127.799
21
-55.539
0
LINE
8
Black
10
127.799
20
-55.539
11
127.651
21
-55.7946
0
LINE
8
Black
10
127.651
20
-55.7946
11
127.425
21
-55.9844
0
LINE
8
Black
10
127.425
20
-55.9844
11
127.148
21
-56.0853
0
LINE
8
Black
10
127.148
20
-56.0853
11
126.852
21
-56.0853
0
LINE
8
Black
10
126.852
20
-56.0853
11
126.575
21
-55.9844
0
LINE
8
Black
10
126.575
20
-55.9844
11
126.349
21
-55.7946
0
LINE
8
Black
10
126.349
20
-55.7946
11
126.201
21
-55.539
0
LINE
8
Black
10
126.201
20
-55.539
11
126.15
21
-55.2482
0
LINE
8
Black
10
126.15
20
-55.2482
11
126.15
21
-55.2418
0
LINE
8
Black
10
126.15
20
-55.2418
11
126.201
21
-54.951
0
LINE
8
Black
10
126.201
20
-54.951
11
126.349
21
-54.6954
0
LINE
8
Black
10
126.349
20
-54.6954
11
126.575
21
-54.5056
0
LINE
8
Black
10
126.575
20
-54.5056
11
126.852
21
-54.4047
0
LINE
8
Black
10
126.852
20
-54.4047
11
127.148
21
-54.4047
0
LINE
8
Black
10
127.148
20
-54.4047
11
127.425
21
-54.5056
0
CIRCLE
8
Black
10
121.92
20
-62.23
40
0.1905
0
CIRCLE
8
Black
10
132.08
20
-83.82
40
0.1905
0
CIRCLE
8
Black
10
137.16
20
-65.405
40
0.1905
0
CIRCLE
8
Black
10
132.08
20
-63.5
40
0.1905
0
CIRCLE
8
Black
10
118.11
20
-82.55
40
0.1905
0
CIRCLE
8
Black
10
118.11
20
-76.2
40
0.1905
0
CIRCLE
8
Black
10
118.11
20
-69.85
40
0.1905
0
CIRCLE
8
Black
10
135.89
20
-86.36
40
0.1905
0
CIRCLE
8
Black
10
124.46
20
-85.09
40
0.1905
0
CIRCLE
8
Black
10
133.35
20
-64.77
40
0.1905
  0
ENDSEC
  0
EOF
