  0
SECTION
  2
HEADER
  9
$ANGBASE
  50
0.0
  9
$ANGDIR
  70
  1
  9
$MEASUREMENT
  70
0
  0
ENDSEC
  0
SECTION
  2
TABLES
  0
TABLE
  2
LTYPE
  70
1
  0
LTYPE
  2
CONTINUOUS
  70
0
  3
Solid line
  72
65
  73
0
  40
0.0
  0
ENDTAB
  0
TABLE
  2
STYLE
  70
4
  0
STYLE
  2
KICAD
  70
0
  40
0
  41
1
  42
1
  50
0
  71
0
  3
isocp.shx
  0
STYLE
  2
KICADB
  70
0
  40
0
  41
1
  42
1
  50
0
  71
0
  3
isocp.shx
  0
STYLE
  2
KICADI
  70
0
  40
0
  41
1
  42
1
  50
15
  71
0
  3
isocp.shx
  0
STYLE
  2
KICADBI
  70
0
  40
0
  41
1
  42
1
  50
15
  71
0
  3
isocp.shx
  0
ENDTAB
  0
TABLE
  2
LAYER
  70
30
  0
LAYER
  2
BLACK
  70
0
  62
7
  6
CONTINUOUS
  0
LAYER
  2
GRAY1
  70
0
  62
251
  6
CONTINUOUS
  0
LAYER
  2
GRAY2
  70
0
  62
8
  6
CONTINUOUS
  0
LAYER
  2
GRAY3
  70
0
  62
9
  6
CONTINUOUS
  0
LAYER
  2
WHITE
  70
0
  62
7
  6
CONTINUOUS
  0
LAYER
  2
LYELLOW
  70
0
  62
51
  6
CONTINUOUS
  0
LAYER
  2
BLUE1
  70
0
  62
178
  6
CONTINUOUS
  0
LAYER
  2
GREEN1
  70
0
  62
98
  6
CONTINUOUS
  0
LAYER
  2
CYAN1
  70
0
  62
138
  6
CONTINUOUS
  0
LAYER
  2
RED1
  70
0
  62
18
  6
CONTINUOUS
  0
LAYER
  2
MAGENTA1
  70
0
  62
228
  6
CONTINUOUS
  0
LAYER
  2
BROWN1
  70
0
  62
58
  6
CONTINUOUS
  0
LAYER
  2
BLUE2
  70
0
  62
5
  6
CONTINUOUS
  0
LAYER
  2
GREEN2
  70
0
  62
3
  6
CONTINUOUS
  0
LAYER
  2
CYAN2
  70
0
  62
4
  6
CONTINUOUS
  0
LAYER
  2
RED2
  70
0
  62
1
  6
CONTINUOUS
  0
LAYER
  2
MAGENTA2
  70
0
  62
6
  6
CONTINUOUS
  0
LAYER
  2
BROWN2
  70
0
  62
54
  6
CONTINUOUS
  0
LAYER
  2
BLUE3
  70
0
  62
171
  6
CONTINUOUS
  0
LAYER
  2
GREEN3
  70
0
  62
91
  6
CONTINUOUS
  0
LAYER
  2
CYAN3
  70
0
  62
131
  6
CONTINUOUS
  0
LAYER
  2
RED3
  70
0
  62
11
  6
CONTINUOUS
  0
LAYER
  2
MAGENTA3
  70
0
  62
221
  6
CONTINUOUS
  0
LAYER
  2
YELLOW3
  70
0
  62
2
  6
CONTINUOUS
  0
LAYER
  2
BLUE4
  70
0
  62
5
  6
CONTINUOUS
  0
LAYER
  2
GREEN4
  70
0
  62
3
  6
CONTINUOUS
  0
LAYER
  2
CYAN4
  70
0
  62
4
  6
CONTINUOUS
  0
LAYER
  2
RED4
  70
0
  62
1
  6
CONTINUOUS
  0
LAYER
  2
MAGENTA4
  70
0
  62
6
  6
CONTINUOUS
  0
LAYER
  2
YELLOW4
  70
0
  62
2
  6
CONTINUOUS
  0
ENDTAB
  0
ENDSEC
  0
SECTION
  2
ENTITIES
0
ARC
8
Black
10
114.935
20
-78.867
40
1.27
50
-0
51
90
0
LINE
8
Black
10
116.205
20
-78.867
11
116.205
21
-87.63
0
LINE
8
Black
10
109.855
20
-77.597
11
114.935
21
-77.597
0
LINE
8
Black
10
109.855
20
-77.597
11
109.855
21
-53.34
0
LINE
8
Black
10
142.875
20
-87.63
11
116.205
21
-87.63
0
LINE
8
Black
10
142.875
20
-53.34
11
142.875
21
-87.63
0
LINE
8
Black
10
109.855
20
-53.34
11
142.875
21
-53.34
0
LINE
8
Black
10
117.919
20
-69.6595
11
118.3
21
-70.0405
0
LINE
8
Black
10
118.3
20
-69.6595
11
117.919
21
-70.0405
0
LINE
8
Black
10
117.919
20
-76.0095
11
118.3
21
-76.3905
0
LINE
8
Black
10
118.3
20
-76.0095
11
117.919
21
-76.3905
0
LINE
8
Black
10
117.919
20
-82.3595
11
118.3
21
-82.7405
0
LINE
8
Black
10
118.3
20
-82.3595
11
117.919
21
-82.7405
0
LINE
8
Black
10
121.73
20
-62.0395
11
122.11
21
-62.4205
0
LINE
8
Black
10
122.11
20
-62.0395
11
121.73
21
-62.4205
0
LINE
8
Black
10
124.269
20
-84.8995
11
124.65
21
-85.2805
0
LINE
8
Black
10
124.65
20
-84.8995
11
124.269
21
-85.2805
0
LINE
8
Black
10
131.889
20
-63.3095
11
132.27
21
-63.6905
0
LINE
8
Black
10
132.27
20
-63.3095
11
131.889
21
-63.6905
0
LINE
8
Black
10
131.889
20
-83.6295
11
132.27
21
-84.0105
0
LINE
8
Black
10
132.27
20
-83.6295
11
131.889
21
-84.0105
0
LINE
8
Black
10
133.159
20
-64.5795
11
133.54
21
-64.9605
0
LINE
8
Black
10
133.54
20
-64.5795
11
133.159
21
-64.9605
0
LINE
8
Black
10
135.7
20
-86.1695
11
136.081
21
-86.5505
0
LINE
8
Black
10
136.081
20
-86.1695
11
135.7
21
-86.5505
0
LINE
8
Black
10
136.969
20
-65.2145
11
137.35
21
-65.5955
0
LINE
8
Black
10
137.35
20
-65.2145
11
136.969
21
-65.5955
0
CIRCLE
8
Black
10
113.665
20
-55.245
40
0.5
0
CIRCLE
8
Black
10
113.665
20
-57.785
40
0.5
0
CIRCLE
8
Black
10
113.665
20
-60.325
40
0.5
0
CIRCLE
8
Black
10
113.665
20
-62.865
40
0.5
0
CIRCLE
8
Black
10
113.665
20
-67.945
40
0.5
0
CIRCLE
8
Black
10
113.665
20
-70.485
40
0.5
0
CIRCLE
8
Black
10
113.665
20
-73.025
40
0.5
0
CIRCLE
8
Black
10
113.665
20
-75.565
40
0.5
0
CIRCLE
8
Black
10
127
20
-55.245
40
0.5
0
CIRCLE
8
Black
10
128.08
20
-67.295
40
0.5
0
CIRCLE
8
Black
10
129.54
20
-55.245
40
0.5
0
CIRCLE
8
Black
10
130.08
20
-67.295
40
0.5
0
CIRCLE
8
Black
10
132.08
20
-55.245
40
0.5
0
CIRCLE
8
Black
10
132.08
20
-67.295
40
0.5
0
CIRCLE
8
Black
10
134.08
20
-67.295
40
0.5
0
CIRCLE
8
Black
10
134.62
20
-55.245
40
0.5
0
CIRCLE
8
Black
10
136.08
20
-67.295
40
0.5
0
CIRCLE
8
Black
10
137.16
20
-55.245
40
0.5
0
LINE
8
Black
10
129.58
20
-81.245
11
129.58
21
-82.345
0
LINE
8
Black
10
129.03
20
-81.795
11
130.13
21
-81.795
0
LINE
8
Black
10
132.08
20
-81.245
11
132.08
21
-82.345
0
LINE
8
Black
10
131.53
20
-81.795
11
132.63
21
-81.795
0
LINE
8
Black
10
134.58
20
-81.245
11
134.58
21
-82.345
0
LINE
8
Black
10
134.03
20
-81.795
11
135.13
21
-81.795
0
LINE
8
Black
10
127.187
20
-75.0021
11
127.187
21
-73.5879
0
LINE
8
Black
10
127.187
20
-73.5879
11
125.773
21
-73.5879
0
LINE
8
Black
10
125.773
20
-73.5879
11
125.773
21
-75.0021
0
LINE
8
Black
10
125.773
20
-75.0021
11
127.187
21
-75.0021
0
LINE
8
Black
10
125.48
20
-74.245
11
125.48
21
-74.345
0
LINE
8
Black
10
127.48
20
-74.245
11
127.48
21
-74.345
0
ARC
8
Black
10
126.48
20
-74.345
40
1
50
180
51
360
0
ARC
8
Black
10
126.48
20
-74.245
40
1
50
0
51
180
0
LINE
8
Black
10
138.387
20
-75.0021
11
138.387
21
-73.5879
0
LINE
8
Black
10
138.387
20
-73.5879
11
136.973
21
-73.5879
0
LINE
8
Black
10
136.973
20
-73.5879
11
136.973
21
-75.0021
0
LINE
8
Black
10
136.973
20
-75.0021
11
138.387
21
-75.0021
0
LINE
8
Black
10
136.68
20
-74.245
11
136.68
21
-74.345
0
LINE
8
Black
10
138.68
20
-74.245
11
138.68
21
-74.345
0
ARC
8
Black
10
137.68
20
-74.345
40
1
50
180
51
360
0
ARC
8
Black
10
137.68
20
-74.245
40
1
50
0
51
180
0
LINE
8
Black
10
112.494
20
-92.3621
11
112.494
21
-89.3621
0
LINE
8
Black
10
112.494
20
-89.3621
11
113.209
21
-89.3621
0
LINE
8
Black
10
113.209
20
-89.3621
11
113.637
21
-89.505
0
LINE
8
Black
10
113.637
20
-89.505
11
113.923
21
-89.7907
0
LINE
8
Black
10
113.923
20
-89.7907
11
114.066
21
-90.0764
0
LINE
8
Black
10
114.066
20
-90.0764
11
114.209
21
-90.6479
0
LINE
8
Black
10
114.209
20
-90.6479
11
114.209
21
-91.0764
0
LINE
8
Black
10
114.209
20
-91.0764
11
114.066
21
-91.6479
0
LINE
8
Black
10
114.066
20
-91.6479
11
113.923
21
-91.9336
0
LINE
8
Black
10
113.923
20
-91.9336
11
113.637
21
-92.2193
0
LINE
8
Black
10
113.637
20
-92.2193
11
113.209
21
-92.3621
0
LINE
8
Black
10
113.209
20
-92.3621
11
112.494
21
-92.3621
0
LINE
8
Black
10
115.494
20
-92.3621
11
115.494
21
-90.3621
0
LINE
8
Black
10
115.494
20
-90.9336
11
115.637
21
-90.6479
0
LINE
8
Black
10
115.637
20
-90.6479
11
115.78
21
-90.505
0
LINE
8
Black
10
115.78
20
-90.505
11
116.066
21
-90.3621
0
LINE
8
Black
10
116.066
20
-90.3621
11
116.351
21
-90.3621
0
LINE
8
Black
10
117.351
20
-92.3621
11
117.351
21
-90.3621
0
LINE
8
Black
10
117.351
20
-89.3621
11
117.209
21
-89.505
0
LINE
8
Black
10
117.209
20
-89.505
11
117.351
21
-89.6479
0
LINE
8
Black
10
117.351
20
-89.6479
11
117.494
21
-89.505
0
LINE
8
Black
10
117.494
20
-89.505
11
117.351
21
-89.3621
0
LINE
8
Black
10
117.351
20
-89.3621
11
117.351
21
-89.6479
0
LINE
8
Black
10
119.209
20
-92.3621
11
118.923
21
-92.2193
0
LINE
8
Black
10
118.923
20
-92.2193
11
118.78
21
-91.9336
0
LINE
8
Black
10
118.78
20
-91.9336
11
118.78
21
-89.3621
0
LINE
8
Black
10
120.78
20
-92.3621
11
120.494
21
-92.2193
0
LINE
8
Black
10
120.494
20
-92.2193
11
120.351
21
-91.9336
0
LINE
8
Black
10
120.351
20
-91.9336
11
120.351
21
-89.3621
0
LINE
8
Black
10
124.209
20
-92.3621
11
124.209
21
-89.3621
0
LINE
8
Black
10
124.209
20
-89.3621
11
125.209
21
-91.505
0
LINE
8
Black
10
125.209
20
-91.505
11
126.209
21
-89.3621
0
LINE
8
Black
10
126.209
20
-89.3621
11
126.209
21
-92.3621
0
LINE
8
Black
10
128.923
20
-92.3621
11
128.923
21
-90.7907
0
LINE
8
Black
10
128.923
20
-90.7907
11
128.78
21
-90.505
0
LINE
8
Black
10
128.78
20
-90.505
11
128.494
21
-90.3621
0
LINE
8
Black
10
128.494
20
-90.3621
11
127.923
21
-90.3621
0
LINE
8
Black
10
127.923
20
-90.3621
11
127.637
21
-90.505
0
LINE
8
Black
10
128.923
20
-92.2193
11
128.637
21
-92.3621
0
LINE
8
Black
10
128.637
20
-92.3621
11
127.923
21
-92.3621
0
LINE
8
Black
10
127.923
20
-92.3621
11
127.637
21
-92.2193
0
LINE
8
Black
10
127.637
20
-92.2193
11
127.494
21
-91.9336
0
LINE
8
Black
10
127.494
20
-91.9336
11
127.494
21
-91.6479
0
LINE
8
Black
10
127.494
20
-91.6479
11
127.637
21
-91.3621
0
LINE
8
Black
10
127.637
20
-91.3621
11
127.923
21
-91.2193
0
LINE
8
Black
10
127.923
20
-91.2193
11
128.637
21
-91.2193
0
LINE
8
Black
10
128.637
20
-91.2193
11
128.923
21
-91.0764
0
LINE
8
Black
10
130.351
20
-90.3621
11
130.351
21
-93.3621
0
LINE
8
Black
10
130.351
20
-90.505
11
130.637
21
-90.3621
0
LINE
8
Black
10
130.637
20
-90.3621
11
131.209
21
-90.3621
0
LINE
8
Black
10
131.209
20
-90.3621
11
131.494
21
-90.505
0
LINE
8
Black
10
131.494
20
-90.505
11
131.637
21
-90.6479
0
LINE
8
Black
10
131.637
20
-90.6479
11
131.78
21
-90.9336
0
LINE
8
Black
10
131.78
20
-90.9336
11
131.78
21
-91.7907
0
LINE
8
Black
10
131.78
20
-91.7907
11
131.637
21
-92.0764
0
LINE
8
Black
10
131.637
20
-92.0764
11
131.494
21
-92.2193
0
LINE
8
Black
10
131.494
20
-92.2193
11
131.209
21
-92.3621
0
LINE
8
Black
10
131.209
20
-92.3621
11
130.637
21
-92.3621
0
LINE
8
Black
10
130.637
20
-92.3621
11
130.351
21
-92.2193
0
LINE
8
Black
10
133.066
20
-92.0764
11
133.209
21
-92.2193
0
LINE
8
Black
10
133.209
20
-92.2193
11
133.066
21
-92.3621
0
LINE
8
Black
10
133.066
20
-92.3621
11
132.923
21
-92.2193
0
LINE
8
Black
10
132.923
20
-92.2193
11
133.066
21
-92.0764
0
LINE
8
Black
10
133.066
20
-92.0764
11
133.066
21
-92.3621
0
LINE
8
Black
10
133.066
20
-90.505
11
133.209
21
-90.6479
0
LINE
8
Black
10
133.209
20
-90.6479
11
133.066
21
-90.7907
0
LINE
8
Black
10
133.066
20
-90.7907
11
132.923
21
-90.6479
0
LINE
8
Black
10
132.923
20
-90.6479
11
133.066
21
-90.505
0
LINE
8
Black
10
133.066
20
-90.505
11
133.066
21
-90.7907
0
LINE
8
Black
10
109.399
20
-97.1145
11
109.78
21
-97.4955
0
LINE
8
Black
10
109.78
20
-97.1145
11
109.399
21
-97.4955
0
LINE
8
Black
10
113.066
20
-95.6621
11
113.351
21
-95.6621
0
LINE
8
Black
10
113.351
20
-95.6621
11
113.637
21
-95.805
0
LINE
8
Black
10
113.637
20
-95.805
11
113.78
21
-95.9479
0
LINE
8
Black
10
113.78
20
-95.9479
11
113.923
21
-96.2336
0
LINE
8
Black
10
113.923
20
-96.2336
11
114.066
21
-96.805
0
LINE
8
Black
10
114.066
20
-96.805
11
114.066
21
-97.5193
0
LINE
8
Black
10
114.066
20
-97.5193
11
113.923
21
-98.0907
0
LINE
8
Black
10
113.923
20
-98.0907
11
113.78
21
-98.3764
0
LINE
8
Black
10
113.78
20
-98.3764
11
113.637
21
-98.5193
0
LINE
8
Black
10
113.637
20
-98.5193
11
113.351
21
-98.6621
0
LINE
8
Black
10
113.351
20
-98.6621
11
113.066
21
-98.6621
0
LINE
8
Black
10
113.066
20
-98.6621
11
112.78
21
-98.5193
0
LINE
8
Black
10
112.78
20
-98.5193
11
112.637
21
-98.3764
0
LINE
8
Black
10
112.637
20
-98.3764
11
112.494
21
-98.0907
0
LINE
8
Black
10
112.494
20
-98.0907
11
112.351
21
-97.5193
0
LINE
8
Black
10
112.351
20
-97.5193
11
112.351
21
-96.805
0
LINE
8
Black
10
112.351
20
-96.805
11
112.494
21
-96.2336
0
LINE
8
Black
10
112.494
20
-96.2336
11
112.637
21
-95.9479
0
LINE
8
Black
10
112.637
20
-95.9479
11
112.78
21
-95.805
0
LINE
8
Black
10
112.78
20
-95.805
11
113.066
21
-95.6621
0
LINE
8
Black
10
115.351
20
-98.3764
11
115.494
21
-98.5193
0
LINE
8
Black
10
115.494
20
-98.5193
11
115.351
21
-98.6621
0
LINE
8
Black
10
115.351
20
-98.6621
11
115.209
21
-98.5193
0
LINE
8
Black
10
115.209
20
-98.5193
11
115.351
21
-98.3764
0
LINE
8
Black
10
115.351
20
-98.3764
11
115.351
21
-98.6621
0
LINE
8
Black
10
116.494
20
-95.6621
11
118.351
21
-95.6621
0
LINE
8
Black
10
118.351
20
-95.6621
11
117.351
21
-96.805
0
LINE
8
Black
10
117.351
20
-96.805
11
117.78
21
-96.805
0
LINE
8
Black
10
117.78
20
-96.805
11
118.066
21
-96.9479
0
LINE
8
Black
10
118.066
20
-96.9479
11
118.209
21
-97.0907
0
LINE
8
Black
10
118.209
20
-97.0907
11
118.351
21
-97.3764
0
LINE
8
Black
10
118.351
20
-97.3764
11
118.351
21
-98.0907
0
LINE
8
Black
10
118.351
20
-98.0907
11
118.209
21
-98.3764
0
LINE
8
Black
10
118.209
20
-98.3764
11
118.066
21
-98.5193
0
LINE
8
Black
10
118.066
20
-98.5193
11
117.78
21
-98.6621
0
LINE
8
Black
10
117.78
20
-98.6621
11
116.923
21
-98.6621
0
LINE
8
Black
10
116.923
20
-98.6621
11
116.637
21
-98.5193
0
LINE
8
Black
10
116.637
20
-98.5193
11
116.494
21
-98.3764
0
LINE
8
Black
10
120.066
20
-96.9479
11
119.78
21
-96.805
0
LINE
8
Black
10
119.78
20
-96.805
11
119.637
21
-96.6621
0
LINE
8
Black
10
119.637
20
-96.6621
11
119.494
21
-96.3764
0
LINE
8
Black
10
119.494
20
-96.3764
11
119.494
21
-96.2336
0
LINE
8
Black
10
119.494
20
-96.2336
11
119.637
21
-95.9479
0
LINE
8
Black
10
119.637
20
-95.9479
11
119.78
21
-95.805
0
LINE
8
Black
10
119.78
20
-95.805
11
120.066
21
-95.6621
0
LINE
8
Black
10
120.066
20
-95.6621
11
120.637
21
-95.6621
0
LINE
8
Black
10
120.637
20
-95.6621
11
120.923
21
-95.805
0
LINE
8
Black
10
120.923
20
-95.805
11
121.066
21
-95.9479
0
LINE
8
Black
10
121.066
20
-95.9479
11
121.209
21
-96.2336
0
LINE
8
Black
10
121.209
20
-96.2336
11
121.209
21
-96.3764
0
LINE
8
Black
10
121.209
20
-96.3764
11
121.066
21
-96.6621
0
LINE
8
Black
10
121.066
20
-96.6621
11
120.923
21
-96.805
0
LINE
8
Black
10
120.923
20
-96.805
11
120.637
21
-96.9479
0
LINE
8
Black
10
120.637
20
-96.9479
11
120.066
21
-96.9479
0
LINE
8
Black
10
120.066
20
-96.9479
11
119.78
21
-97.0907
0
LINE
8
Black
10
119.78
20
-97.0907
11
119.637
21
-97.2336
0
LINE
8
Black
10
119.637
20
-97.2336
11
119.494
21
-97.5193
0
LINE
8
Black
10
119.494
20
-97.5193
11
119.494
21
-98.0907
0
LINE
8
Black
10
119.494
20
-98.0907
11
119.637
21
-98.3764
0
LINE
8
Black
10
119.637
20
-98.3764
11
119.78
21
-98.5193
0
LINE
8
Black
10
119.78
20
-98.5193
11
120.066
21
-98.6621
0
LINE
8
Black
10
120.066
20
-98.6621
11
120.637
21
-98.6621
0
LINE
8
Black
10
120.637
20
-98.6621
11
120.923
21
-98.5193
0
LINE
8
Black
10
120.923
20
-98.5193
11
121.066
21
-98.3764
0
LINE
8
Black
10
121.066
20
-98.3764
11
121.209
21
-98.0907
0
LINE
8
Black
10
121.209
20
-98.0907
11
121.209
21
-97.5193
0
LINE
8
Black
10
121.209
20
-97.5193
11
121.066
21
-97.2336
0
LINE
8
Black
10
121.066
20
-97.2336
11
120.923
21
-97.0907
0
LINE
8
Black
10
120.923
20
-97.0907
11
120.637
21
-96.9479
0
LINE
8
Black
10
122.494
20
-98.6621
11
122.494
21
-96.6621
0
LINE
8
Black
10
122.494
20
-96.9479
11
122.637
21
-96.805
0
LINE
8
Black
10
122.637
20
-96.805
11
122.923
21
-96.6621
0
LINE
8
Black
10
122.923
20
-96.6621
11
123.351
21
-96.6621
0
LINE
8
Black
10
123.351
20
-96.6621
11
123.637
21
-96.805
0
LINE
8
Black
10
123.637
20
-96.805
11
123.78
21
-97.0907
0
LINE
8
Black
10
123.78
20
-97.0907
11
123.78
21
-98.6621
0
LINE
8
Black
10
123.78
20
-97.0907
11
123.923
21
-96.805
0
LINE
8
Black
10
123.923
20
-96.805
11
124.209
21
-96.6621
0
LINE
8
Black
10
124.209
20
-96.6621
11
124.637
21
-96.6621
0
LINE
8
Black
10
124.637
20
-96.6621
11
124.923
21
-96.805
0
LINE
8
Black
10
124.923
20
-96.805
11
125.066
21
-97.0907
0
LINE
8
Black
10
125.066
20
-97.0907
11
125.066
21
-98.6621
0
LINE
8
Black
10
126.494
20
-98.6621
11
126.494
21
-96.6621
0
LINE
8
Black
10
126.494
20
-96.9479
11
126.637
21
-96.805
0
LINE
8
Black
10
126.637
20
-96.805
11
126.923
21
-96.6621
0
LINE
8
Black
10
126.923
20
-96.6621
11
127.351
21
-96.6621
0
LINE
8
Black
10
127.351
20
-96.6621
11
127.637
21
-96.805
0
LINE
8
Black
10
127.637
20
-96.805
11
127.78
21
-97.0907
0
LINE
8
Black
10
127.78
20
-97.0907
11
127.78
21
-98.6621
0
LINE
8
Black
10
127.78
20
-97.0907
11
127.923
21
-96.805
0
LINE
8
Black
10
127.923
20
-96.805
11
128.209
21
-96.6621
0
LINE
8
Black
10
128.209
20
-96.6621
11
128.637
21
-96.6621
0
LINE
8
Black
10
128.637
20
-96.6621
11
128.923
21
-96.805
0
LINE
8
Black
10
128.923
20
-96.805
11
129.066
21
-97.0907
0
LINE
8
Black
10
129.066
20
-97.0907
11
129.066
21
-98.6621
0
LINE
8
Black
10
134.923
20
-95.5193
11
132.351
21
-99.3764
0
LINE
8
Black
10
138.78
20
-95.6621
11
139.066
21
-95.6621
0
LINE
8
Black
10
139.066
20
-95.6621
11
139.351
21
-95.805
0
LINE
8
Black
10
139.351
20
-95.805
11
139.494
21
-95.9479
0
LINE
8
Black
10
139.494
20
-95.9479
11
139.637
21
-96.2336
0
LINE
8
Black
10
139.637
20
-96.2336
11
139.78
21
-96.805
0
LINE
8
Black
10
139.78
20
-96.805
11
139.78
21
-97.5193
0
LINE
8
Black
10
139.78
20
-97.5193
11
139.637
21
-98.0907
0
LINE
8
Black
10
139.637
20
-98.0907
11
139.494
21
-98.3764
0
LINE
8
Black
10
139.494
20
-98.3764
11
139.351
21
-98.5193
0
LINE
8
Black
10
139.351
20
-98.5193
11
139.066
21
-98.6621
0
LINE
8
Black
10
139.066
20
-98.6621
11
138.78
21
-98.6621
0
LINE
8
Black
10
138.78
20
-98.6621
11
138.494
21
-98.5193
0
LINE
8
Black
10
138.494
20
-98.5193
11
138.351
21
-98.3764
0
LINE
8
Black
10
138.351
20
-98.3764
11
138.209
21
-98.0907
0
LINE
8
Black
10
138.209
20
-98.0907
11
138.066
21
-97.5193
0
LINE
8
Black
10
138.066
20
-97.5193
11
138.066
21
-96.805
0
LINE
8
Black
10
138.066
20
-96.805
11
138.209
21
-96.2336
0
LINE
8
Black
10
138.209
20
-96.2336
11
138.351
21
-95.9479
0
LINE
8
Black
10
138.351
20
-95.9479
11
138.494
21
-95.805
0
LINE
8
Black
10
138.494
20
-95.805
11
138.78
21
-95.6621
0
LINE
8
Black
10
141.066
20
-98.3764
11
141.209
21
-98.5193
0
LINE
8
Black
10
141.209
20
-98.5193
11
141.066
21
-98.6621
0
LINE
8
Black
10
141.066
20
-98.6621
11
140.923
21
-98.5193
0
LINE
8
Black
10
140.923
20
-98.5193
11
141.066
21
-98.3764
0
LINE
8
Black
10
141.066
20
-98.3764
11
141.066
21
-98.6621
0
LINE
8
Black
10
143.066
20
-95.6621
11
143.351
21
-95.6621
0
LINE
8
Black
10
143.351
20
-95.6621
11
143.637
21
-95.805
0
LINE
8
Black
10
143.637
20
-95.805
11
143.78
21
-95.9479
0
LINE
8
Black
10
143.78
20
-95.9479
11
143.923
21
-96.2336
0
LINE
8
Black
10
143.923
20
-96.2336
11
144.066
21
-96.805
0
LINE
8
Black
10
144.066
20
-96.805
11
144.066
21
-97.5193
0
LINE
8
Black
10
144.066
20
-97.5193
11
143.923
21
-98.0907
0
LINE
8
Black
10
143.923
20
-98.0907
11
143.78
21
-98.3764
0
LINE
8
Black
10
143.78
20
-98.3764
11
143.637
21
-98.5193
0
LINE
8
Black
10
143.637
20
-98.5193
11
143.351
21
-98.6621
0
LINE
8
Black
10
143.351
20
-98.6621
11
143.066
21
-98.6621
0
LINE
8
Black
10
143.066
20
-98.6621
11
142.78
21
-98.5193
0
LINE
8
Black
10
142.78
20
-98.5193
11
142.637
21
-98.3764
0
LINE
8
Black
10
142.637
20
-98.3764
11
142.494
21
-98.0907
0
LINE
8
Black
10
142.494
20
-98.0907
11
142.351
21
-97.5193
0
LINE
8
Black
10
142.351
20
-97.5193
11
142.351
21
-96.805
0
LINE
8
Black
10
142.351
20
-96.805
11
142.494
21
-96.2336
0
LINE
8
Black
10
142.494
20
-96.2336
11
142.637
21
-95.9479
0
LINE
8
Black
10
142.637
20
-95.9479
11
142.78
21
-95.805
0
LINE
8
Black
10
142.78
20
-95.805
11
143.066
21
-95.6621
0
LINE
8
Black
10
146.923
20
-98.6621
11
145.209
21
-98.6621
0
LINE
8
Black
10
146.066
20
-98.6621
11
146.066
21
-95.6621
0
LINE
8
Black
10
146.066
20
-95.6621
11
145.78
21
-96.0907
0
LINE
8
Black
10
145.78
20
-96.0907
11
145.494
21
-96.3764
0
LINE
8
Black
10
145.494
20
-96.3764
11
145.209
21
-96.5193
0
LINE
8
Black
10
149.637
20
-95.6621
11
148.209
21
-95.6621
0
LINE
8
Black
10
148.209
20
-95.6621
11
148.066
21
-97.0907
0
LINE
8
Black
10
148.066
20
-97.0907
11
148.209
21
-96.9479
0
LINE
8
Black
10
148.209
20
-96.9479
11
148.494
21
-96.805
0
LINE
8
Black
10
148.494
20
-96.805
11
149.209
21
-96.805
0
LINE
8
Black
10
149.209
20
-96.805
11
149.494
21
-96.9479
0
LINE
8
Black
10
149.494
20
-96.9479
11
149.637
21
-97.0907
0
LINE
8
Black
10
149.637
20
-97.0907
11
149.78
21
-97.3764
0
LINE
8
Black
10
149.78
20
-97.3764
11
149.78
21
-98.0907
0
LINE
8
Black
10
149.78
20
-98.0907
11
149.637
21
-98.3764
0
LINE
8
Black
10
149.637
20
-98.3764
11
149.494
21
-98.5193
0
LINE
8
Black
10
149.494
20
-98.5193
11
149.209
21
-98.6621
0
LINE
8
Black
10
149.209
20
-98.6621
11
148.494
21
-98.6621
0
LINE
8
Black
10
148.494
20
-98.6621
11
148.209
21
-98.5193
0
LINE
8
Black
10
148.209
20
-98.5193
11
148.066
21
-98.3764
0
LINE
8
Black
10
150.923
20
-95.6621
11
150.923
21
-96.2336
0
LINE
8
Black
10
152.066
20
-95.6621
11
152.066
21
-96.2336
0
LINE
8
Black
10
156.494
20
-99.805
11
156.351
21
-99.6621
0
LINE
8
Black
10
156.351
20
-99.6621
11
156.066
21
-99.2336
0
LINE
8
Black
10
156.066
20
-99.2336
11
155.923
21
-98.9479
0
LINE
8
Black
10
155.923
20
-98.9479
11
155.78
21
-98.5193
0
LINE
8
Black
10
155.78
20
-98.5193
11
155.637
21
-97.805
0
LINE
8
Black
10
155.637
20
-97.805
11
155.637
21
-97.2336
0
LINE
8
Black
10
155.637
20
-97.2336
11
155.78
21
-96.5193
0
LINE
8
Black
10
155.78
20
-96.5193
11
155.923
21
-96.0907
0
LINE
8
Black
10
155.923
20
-96.0907
11
156.066
21
-95.805
0
LINE
8
Black
10
156.066
20
-95.805
11
156.351
21
-95.3764
0
LINE
8
Black
10
156.351
20
-95.3764
11
156.494
21
-95.2336
0
LINE
8
Black
10
159.209
20
-98.6621
11
157.494
21
-98.6621
0
LINE
8
Black
10
158.351
20
-98.6621
11
158.351
21
-95.6621
0
LINE
8
Black
10
158.351
20
-95.6621
11
158.066
21
-96.0907
0
LINE
8
Black
10
158.066
20
-96.0907
11
157.78
21
-96.3764
0
LINE
8
Black
10
157.78
20
-96.3764
11
157.494
21
-96.5193
0
LINE
8
Black
10
161.066
20
-95.6621
11
161.351
21
-95.6621
0
LINE
8
Black
10
161.351
20
-95.6621
11
161.637
21
-95.805
0
LINE
8
Black
10
161.637
20
-95.805
11
161.78
21
-95.9479
0
LINE
8
Black
10
161.78
20
-95.9479
11
161.923
21
-96.2336
0
LINE
8
Black
10
161.923
20
-96.2336
11
162.066
21
-96.805
0
LINE
8
Black
10
162.066
20
-96.805
11
162.066
21
-97.5193
0
LINE
8
Black
10
162.066
20
-97.5193
11
161.923
21
-98.0907
0
LINE
8
Black
10
161.923
20
-98.0907
11
161.78
21
-98.3764
0
LINE
8
Black
10
161.78
20
-98.3764
11
161.637
21
-98.5193
0
LINE
8
Black
10
161.637
20
-98.5193
11
161.351
21
-98.6621
0
LINE
8
Black
10
161.351
20
-98.6621
11
161.066
21
-98.6621
0
LINE
8
Black
10
161.066
20
-98.6621
11
160.78
21
-98.5193
0
LINE
8
Black
10
160.78
20
-98.5193
11
160.637
21
-98.3764
0
LINE
8
Black
10
160.637
20
-98.3764
11
160.494
21
-98.0907
0
LINE
8
Black
10
160.494
20
-98.0907
11
160.351
21
-97.5193
0
LINE
8
Black
10
160.351
20
-97.5193
11
160.351
21
-96.805
0
LINE
8
Black
10
160.351
20
-96.805
11
160.494
21
-96.2336
0
LINE
8
Black
10
160.494
20
-96.2336
11
160.637
21
-95.9479
0
LINE
8
Black
10
160.637
20
-95.9479
11
160.78
21
-95.805
0
LINE
8
Black
10
160.78
20
-95.805
11
161.066
21
-95.6621
0
LINE
8
Black
10
165.637
20
-98.6621
11
165.637
21
-95.6621
0
LINE
8
Black
10
166.923
20
-98.6621
11
166.923
21
-97.0907
0
LINE
8
Black
10
166.923
20
-97.0907
11
166.78
21
-96.805
0
LINE
8
Black
10
166.78
20
-96.805
11
166.494
21
-96.6621
0
LINE
8
Black
10
166.494
20
-96.6621
11
166.066
21
-96.6621
0
LINE
8
Black
10
166.066
20
-96.6621
11
165.78
21
-96.805
0
LINE
8
Black
10
165.78
20
-96.805
11
165.637
21
-96.9479
0
LINE
8
Black
10
168.78
20
-98.6621
11
168.494
21
-98.5193
0
LINE
8
Black
10
168.494
20
-98.5193
11
168.351
21
-98.3764
0
LINE
8
Black
10
168.351
20
-98.3764
11
168.209
21
-98.0907
0
LINE
8
Black
10
168.209
20
-98.0907
11
168.209
21
-97.2336
0
LINE
8
Black
10
168.209
20
-97.2336
11
168.351
21
-96.9479
0
LINE
8
Black
10
168.351
20
-96.9479
11
168.494
21
-96.805
0
LINE
8
Black
10
168.494
20
-96.805
11
168.78
21
-96.6621
0
LINE
8
Black
10
168.78
20
-96.6621
11
169.209
21
-96.6621
0
LINE
8
Black
10
169.209
20
-96.6621
11
169.494
21
-96.805
0
LINE
8
Black
10
169.494
20
-96.805
11
169.637
21
-96.9479
0
LINE
8
Black
10
169.637
20
-96.9479
11
169.78
21
-97.2336
0
LINE
8
Black
10
169.78
20
-97.2336
11
169.78
21
-98.0907
0
LINE
8
Black
10
169.78
20
-98.0907
11
169.637
21
-98.3764
0
LINE
8
Black
10
169.637
20
-98.3764
11
169.494
21
-98.5193
0
LINE
8
Black
10
169.494
20
-98.5193
11
169.209
21
-98.6621
0
LINE
8
Black
10
169.209
20
-98.6621
11
168.78
21
-98.6621
0
LINE
8
Black
10
171.494
20
-98.6621
11
171.209
21
-98.5193
0
LINE
8
Black
10
171.209
20
-98.5193
11
171.066
21
-98.2336
0
LINE
8
Black
10
171.066
20
-98.2336
11
171.066
21
-95.6621
0
LINE
8
Black
10
173.78
20
-98.5193
11
173.494
21
-98.6621
0
LINE
8
Black
10
173.494
20
-98.6621
11
172.923
21
-98.6621
0
LINE
8
Black
10
172.923
20
-98.6621
11
172.637
21
-98.5193
0
LINE
8
Black
10
172.637
20
-98.5193
11
172.494
21
-98.2336
0
LINE
8
Black
10
172.494
20
-98.2336
11
172.494
21
-97.0907
0
LINE
8
Black
10
172.494
20
-97.0907
11
172.637
21
-96.805
0
LINE
8
Black
10
172.637
20
-96.805
11
172.923
21
-96.6621
0
LINE
8
Black
10
172.923
20
-96.6621
11
173.494
21
-96.6621
0
LINE
8
Black
10
173.494
20
-96.6621
11
173.78
21
-96.805
0
LINE
8
Black
10
173.78
20
-96.805
11
173.923
21
-97.0907
0
LINE
8
Black
10
173.923
20
-97.0907
11
173.923
21
-97.3764
0
LINE
8
Black
10
173.923
20
-97.3764
11
172.494
21
-97.6621
0
LINE
8
Black
10
175.066
20
-98.5193
11
175.351
21
-98.6621
0
LINE
8
Black
10
175.351
20
-98.6621
11
175.923
21
-98.6621
0
LINE
8
Black
10
175.923
20
-98.6621
11
176.209
21
-98.5193
0
LINE
8
Black
10
176.209
20
-98.5193
11
176.351
21
-98.2336
0
LINE
8
Black
10
176.351
20
-98.2336
11
176.351
21
-98.0907
0
LINE
8
Black
10
176.351
20
-98.0907
11
176.209
21
-97.805
0
LINE
8
Black
10
176.209
20
-97.805
11
175.923
21
-97.6621
0
LINE
8
Black
10
175.923
20
-97.6621
11
175.494
21
-97.6621
0
LINE
8
Black
10
175.494
20
-97.6621
11
175.209
21
-97.5193
0
LINE
8
Black
10
175.209
20
-97.5193
11
175.066
21
-97.2336
0
LINE
8
Black
10
175.066
20
-97.2336
11
175.066
21
-97.0907
0
LINE
8
Black
10
175.066
20
-97.0907
11
175.209
21
-96.805
0
LINE
8
Black
10
175.209
20
-96.805
11
175.494
21
-96.6621
0
LINE
8
Black
10
175.494
20
-96.6621
11
175.923
21
-96.6621
0
LINE
8
Black
10
175.923
20
-96.6621
11
176.209
21
-96.805
0
LINE
8
Black
10
177.351
20
-99.805
11
177.494
21
-99.6621
0
LINE
8
Black
10
177.494
20
-99.6621
11
177.78
21
-99.2336
0
LINE
8
Black
10
177.78
20
-99.2336
11
177.923
21
-98.9479
0
LINE
8
Black
10
177.923
20
-98.9479
11
178.066
21
-98.5193
0
LINE
8
Black
10
178.066
20
-98.5193
11
178.209
21
-97.805
0
LINE
8
Black
10
178.209
20
-97.805
11
178.209
21
-97.2336
0
LINE
8
Black
10
178.209
20
-97.2336
11
178.066
21
-96.5193
0
LINE
8
Black
10
178.066
20
-96.5193
11
177.923
21
-96.0907
0
LINE
8
Black
10
177.923
20
-96.0907
11
177.78
21
-95.805
0
LINE
8
Black
10
177.78
20
-95.805
11
177.494
21
-95.3764
0
LINE
8
Black
10
177.494
20
-95.3764
11
177.351
21
-95.2336
0
CIRCLE
8
Black
10
109.28
20
-101.265
40
0.5
0
LINE
8
Black
10
114.066
20
-102.622
11
112.351
21
-102.622
0
LINE
8
Black
10
113.209
20
-102.622
11
113.209
21
-99.6221
0
LINE
8
Black
10
113.209
20
-99.6221
11
112.923
21
-100.051
0
LINE
8
Black
10
112.923
20
-100.051
11
112.637
21
-100.336
0
LINE
8
Black
10
112.637
20
-100.336
11
112.351
21
-100.479
0
LINE
8
Black
10
115.351
20
-102.336
11
115.494
21
-102.479
0
LINE
8
Black
10
115.494
20
-102.479
11
115.351
21
-102.622
0
LINE
8
Black
10
115.351
20
-102.622
11
115.209
21
-102.479
0
LINE
8
Black
10
115.209
20
-102.479
11
115.351
21
-102.336
0
LINE
8
Black
10
115.351
20
-102.336
11
115.351
21
-102.622
0
LINE
8
Black
10
117.351
20
-99.6221
11
117.637
21
-99.6221
0
LINE
8
Black
10
117.637
20
-99.6221
11
117.923
21
-99.765
0
LINE
8
Black
10
117.923
20
-99.765
11
118.066
21
-99.9079
0
LINE
8
Black
10
118.066
20
-99.9079
11
118.209
21
-100.194
0
LINE
8
Black
10
118.209
20
-100.194
11
118.351
21
-100.765
0
LINE
8
Black
10
118.351
20
-100.765
11
118.351
21
-101.479
0
LINE
8
Black
10
118.351
20
-101.479
11
118.209
21
-102.051
0
LINE
8
Black
10
118.209
20
-102.051
11
118.066
21
-102.336
0
LINE
8
Black
10
118.066
20
-102.336
11
117.923
21
-102.479
0
LINE
8
Black
10
117.923
20
-102.479
11
117.637
21
-102.622
0
LINE
8
Black
10
117.637
20
-102.622
11
117.351
21
-102.622
0
LINE
8
Black
10
117.351
20
-102.622
11
117.066
21
-102.479
0
LINE
8
Black
10
117.066
20
-102.479
11
116.923
21
-102.336
0
LINE
8
Black
10
116.923
20
-102.336
11
116.78
21
-102.051
0
LINE
8
Black
10
116.78
20
-102.051
11
116.637
21
-101.479
0
LINE
8
Black
10
116.637
20
-101.479
11
116.637
21
-100.765
0
LINE
8
Black
10
116.637
20
-100.765
11
116.78
21
-100.194
0
LINE
8
Black
10
116.78
20
-100.194
11
116.923
21
-99.9079
0
LINE
8
Black
10
116.923
20
-99.9079
11
117.066
21
-99.765
0
LINE
8
Black
10
117.066
20
-99.765
11
117.351
21
-99.6221
0
LINE
8
Black
10
120.209
20
-99.6221
11
120.494
21
-99.6221
0
LINE
8
Black
10
120.494
20
-99.6221
11
120.78
21
-99.765
0
LINE
8
Black
10
120.78
20
-99.765
11
120.923
21
-99.9079
0
LINE
8
Black
10
120.923
20
-99.9079
11
121.066
21
-100.194
0
LINE
8
Black
10
121.066
20
-100.194
11
121.209
21
-100.765
0
LINE
8
Black
10
121.209
20
-100.765
11
121.209
21
-101.479
0
LINE
8
Black
10
121.209
20
-101.479
11
121.066
21
-102.051
0
LINE
8
Black
10
121.066
20
-102.051
11
120.923
21
-102.336
0
LINE
8
Black
10
120.923
20
-102.336
11
120.78
21
-102.479
0
LINE
8
Black
10
120.78
20
-102.479
11
120.494
21
-102.622
0
LINE
8
Black
10
120.494
20
-102.622
11
120.209
21
-102.622
0
LINE
8
Black
10
120.209
20
-102.622
11
119.923
21
-102.479
0
LINE
8
Black
10
119.923
20
-102.479
11
119.78
21
-102.336
0
LINE
8
Black
10
119.78
20
-102.336
11
119.637
21
-102.051
0
LINE
8
Black
10
119.637
20
-102.051
11
119.494
21
-101.479
0
LINE
8
Black
10
119.494
20
-101.479
11
119.494
21
-100.765
0
LINE
8
Black
10
119.494
20
-100.765
11
119.637
21
-100.194
0
LINE
8
Black
10
119.637
20
-100.194
11
119.78
21
-99.9079
0
LINE
8
Black
10
119.78
20
-99.9079
11
119.923
21
-99.765
0
LINE
8
Black
10
119.923
20
-99.765
11
120.209
21
-99.6221
0
LINE
8
Black
10
122.494
20
-102.622
11
122.494
21
-100.622
0
LINE
8
Black
10
122.494
20
-100.908
11
122.637
21
-100.765
0
LINE
8
Black
10
122.637
20
-100.765
11
122.923
21
-100.622
0
LINE
8
Black
10
122.923
20
-100.622
11
123.351
21
-100.622
0
LINE
8
Black
10
123.351
20
-100.622
11
123.637
21
-100.765
0
LINE
8
Black
10
123.637
20
-100.765
11
123.78
21
-101.051
0
LINE
8
Black
10
123.78
20
-101.051
11
123.78
21
-102.622
0
LINE
8
Black
10
123.78
20
-101.051
11
123.923
21
-100.765
0
LINE
8
Black
10
123.923
20
-100.765
11
124.209
21
-100.622
0
LINE
8
Black
10
124.209
20
-100.622
11
124.637
21
-100.622
0
LINE
8
Black
10
124.637
20
-100.622
11
124.923
21
-100.765
0
LINE
8
Black
10
124.923
20
-100.765
11
125.066
21
-101.051
0
LINE
8
Black
10
125.066
20
-101.051
11
125.066
21
-102.622
0
LINE
8
Black
10
126.494
20
-102.622
11
126.494
21
-100.622
0
LINE
8
Black
10
126.494
20
-100.908
11
126.637
21
-100.765
0
LINE
8
Black
10
126.637
20
-100.765
11
126.923
21
-100.622
0
LINE
8
Black
10
126.923
20
-100.622
11
127.351
21
-100.622
0
LINE
8
Black
10
127.351
20
-100.622
11
127.637
21
-100.765
0
LINE
8
Black
10
127.637
20
-100.765
11
127.78
21
-101.051
0
LINE
8
Black
10
127.78
20
-101.051
11
127.78
21
-102.622
0
LINE
8
Black
10
127.78
20
-101.051
11
127.923
21
-100.765
0
LINE
8
Black
10
127.923
20
-100.765
11
128.209
21
-100.622
0
LINE
8
Black
10
128.209
20
-100.622
11
128.637
21
-100.622
0
LINE
8
Black
10
128.637
20
-100.622
11
128.923
21
-100.765
0
LINE
8
Black
10
128.923
20
-100.765
11
129.066
21
-101.051
0
LINE
8
Black
10
129.066
20
-101.051
11
129.066
21
-102.622
0
LINE
8
Black
10
134.923
20
-99.4793
11
132.351
21
-103.336
0
LINE
8
Black
10
138.78
20
-99.6221
11
139.066
21
-99.6221
0
LINE
8
Black
10
139.066
20
-99.6221
11
139.351
21
-99.765
0
LINE
8
Black
10
139.351
20
-99.765
11
139.494
21
-99.9079
0
LINE
8
Black
10
139.494
20
-99.9079
11
139.637
21
-100.194
0
LINE
8
Black
10
139.637
20
-100.194
11
139.78
21
-100.765
0
LINE
8
Black
10
139.78
20
-100.765
11
139.78
21
-101.479
0
LINE
8
Black
10
139.78
20
-101.479
11
139.637
21
-102.051
0
LINE
8
Black
10
139.637
20
-102.051
11
139.494
21
-102.336
0
LINE
8
Black
10
139.494
20
-102.336
11
139.351
21
-102.479
0
LINE
8
Black
10
139.351
20
-102.479
11
139.066
21
-102.622
0
LINE
8
Black
10
139.066
20
-102.622
11
138.78
21
-102.622
0
LINE
8
Black
10
138.78
20
-102.622
11
138.494
21
-102.479
0
LINE
8
Black
10
138.494
20
-102.479
11
138.351
21
-102.336
0
LINE
8
Black
10
138.351
20
-102.336
11
138.209
21
-102.051
0
LINE
8
Black
10
138.209
20
-102.051
11
138.066
21
-101.479
0
LINE
8
Black
10
138.066
20
-101.479
11
138.066
21
-100.765
0
LINE
8
Black
10
138.066
20
-100.765
11
138.209
21
-100.194
0
LINE
8
Black
10
138.209
20
-100.194
11
138.351
21
-99.9079
0
LINE
8
Black
10
138.351
20
-99.9079
11
138.494
21
-99.765
0
LINE
8
Black
10
138.494
20
-99.765
11
138.78
21
-99.6221
0
LINE
8
Black
10
141.066
20
-102.336
11
141.209
21
-102.479
0
LINE
8
Black
10
141.209
20
-102.479
11
141.066
21
-102.622
0
LINE
8
Black
10
141.066
20
-102.622
11
140.923
21
-102.479
0
LINE
8
Black
10
140.923
20
-102.479
11
141.066
21
-102.336
0
LINE
8
Black
10
141.066
20
-102.336
11
141.066
21
-102.622
0
LINE
8
Black
10
143.066
20
-99.6221
11
143.351
21
-99.6221
0
LINE
8
Black
10
143.351
20
-99.6221
11
143.637
21
-99.765
0
LINE
8
Black
10
143.637
20
-99.765
11
143.78
21
-99.9079
0
LINE
8
Black
10
143.78
20
-99.9079
11
143.923
21
-100.194
0
LINE
8
Black
10
143.923
20
-100.194
11
144.066
21
-100.765
0
LINE
8
Black
10
144.066
20
-100.765
11
144.066
21
-101.479
0
LINE
8
Black
10
144.066
20
-101.479
11
143.923
21
-102.051
0
LINE
8
Black
10
143.923
20
-102.051
11
143.78
21
-102.336
0
LINE
8
Black
10
143.78
20
-102.336
11
143.637
21
-102.479
0
LINE
8
Black
10
143.637
20
-102.479
11
143.351
21
-102.622
0
LINE
8
Black
10
143.351
20
-102.622
11
143.066
21
-102.622
0
LINE
8
Black
10
143.066
20
-102.622
11
142.78
21
-102.479
0
LINE
8
Black
10
142.78
20
-102.479
11
142.637
21
-102.336
0
LINE
8
Black
10
142.637
20
-102.336
11
142.494
21
-102.051
0
LINE
8
Black
10
142.494
20
-102.051
11
142.351
21
-101.479
0
LINE
8
Black
10
142.351
20
-101.479
11
142.351
21
-100.765
0
LINE
8
Black
10
142.351
20
-100.765
11
142.494
21
-100.194
0
LINE
8
Black
10
142.494
20
-100.194
11
142.637
21
-99.9079
0
LINE
8
Black
10
142.637
20
-99.9079
11
142.78
21
-99.765
0
LINE
8
Black
10
142.78
20
-99.765
11
143.066
21
-99.6221
0
LINE
8
Black
10
145.066
20
-99.6221
11
146.923
21
-99.6221
0
LINE
8
Black
10
146.923
20
-99.6221
11
145.923
21
-100.765
0
LINE
8
Black
10
145.923
20
-100.765
11
146.351
21
-100.765
0
LINE
8
Black
10
146.351
20
-100.765
11
146.637
21
-100.908
0
LINE
8
Black
10
146.637
20
-100.908
11
146.78
21
-101.051
0
LINE
8
Black
10
146.78
20
-101.051
11
146.923
21
-101.336
0
LINE
8
Black
10
146.923
20
-101.336
11
146.923
21
-102.051
0
LINE
8
Black
10
146.923
20
-102.051
11
146.78
21
-102.336
0
LINE
8
Black
10
146.78
20
-102.336
11
146.637
21
-102.479
0
LINE
8
Black
10
146.637
20
-102.479
11
146.351
21
-102.622
0
LINE
8
Black
10
146.351
20
-102.622
11
145.494
21
-102.622
0
LINE
8
Black
10
145.494
20
-102.622
11
145.209
21
-102.479
0
LINE
8
Black
10
145.209
20
-102.479
11
145.066
21
-102.336
0
LINE
8
Black
10
148.351
20
-102.622
11
148.923
21
-102.622
0
LINE
8
Black
10
148.923
20
-102.622
11
149.209
21
-102.479
0
LINE
8
Black
10
149.209
20
-102.479
11
149.351
21
-102.336
0
LINE
8
Black
10
149.351
20
-102.336
11
149.637
21
-101.908
0
LINE
8
Black
10
149.637
20
-101.908
11
149.78
21
-101.336
0
LINE
8
Black
10
149.78
20
-101.336
11
149.78
21
-100.194
0
LINE
8
Black
10
149.78
20
-100.194
11
149.637
21
-99.9079
0
LINE
8
Black
10
149.637
20
-99.9079
11
149.494
21
-99.765
0
LINE
8
Black
10
149.494
20
-99.765
11
149.209
21
-99.6221
0
LINE
8
Black
10
149.209
20
-99.6221
11
148.637
21
-99.6221
0
LINE
8
Black
10
148.637
20
-99.6221
11
148.351
21
-99.765
0
LINE
8
Black
10
148.351
20
-99.765
11
148.209
21
-99.9079
0
LINE
8
Black
10
148.209
20
-99.9079
11
148.066
21
-100.194
0
LINE
8
Black
10
148.066
20
-100.194
11
148.066
21
-100.908
0
LINE
8
Black
10
148.066
20
-100.908
11
148.209
21
-101.194
0
LINE
8
Black
10
148.209
20
-101.194
11
148.351
21
-101.336
0
LINE
8
Black
10
148.351
20
-101.336
11
148.637
21
-101.479
0
LINE
8
Black
10
148.637
20
-101.479
11
149.209
21
-101.479
0
LINE
8
Black
10
149.209
20
-101.479
11
149.494
21
-101.336
0
LINE
8
Black
10
149.494
20
-101.336
11
149.637
21
-101.194
0
LINE
8
Black
10
149.637
20
-101.194
11
149.78
21
-100.908
0
LINE
8
Black
10
150.923
20
-99.6221
11
150.923
21
-100.194
0
LINE
8
Black
10
152.066
20
-99.6221
11
152.066
21
-100.194
0
LINE
8
Black
10
156.494
20
-103.765
11
156.351
21
-103.622
0
LINE
8
Black
10
156.351
20
-103.622
11
156.066
21
-103.194
0
LINE
8
Black
10
156.066
20
-103.194
11
155.923
21
-102.908
0
LINE
8
Black
10
155.923
20
-102.908
11
155.78
21
-102.479
0
LINE
8
Black
10
155.78
20
-102.479
11
155.637
21
-101.765
0
LINE
8
Black
10
155.637
20
-101.765
11
155.637
21
-101.194
0
LINE
8
Black
10
155.637
20
-101.194
11
155.78
21
-100.479
0
LINE
8
Black
10
155.78
20
-100.479
11
155.923
21
-100.051
0
LINE
8
Black
10
155.923
20
-100.051
11
156.066
21
-99.765
0
LINE
8
Black
10
156.066
20
-99.765
11
156.351
21
-99.3364
0
LINE
8
Black
10
156.351
20
-99.3364
11
156.494
21
-99.1936
0
LINE
8
Black
10
159.209
20
-102.622
11
157.494
21
-102.622
0
LINE
8
Black
10
158.351
20
-102.622
11
158.351
21
-99.6221
0
LINE
8
Black
10
158.351
20
-99.6221
11
158.066
21
-100.051
0
LINE
8
Black
10
158.066
20
-100.051
11
157.78
21
-100.336
0
LINE
8
Black
10
157.78
20
-100.336
11
157.494
21
-100.479
0
LINE
8
Black
10
160.923
20
-100.908
11
160.637
21
-100.765
0
LINE
8
Black
10
160.637
20
-100.765
11
160.494
21
-100.622
0
LINE
8
Black
10
160.494
20
-100.622
11
160.351
21
-100.336
0
LINE
8
Black
10
160.351
20
-100.336
11
160.351
21
-100.194
0
LINE
8
Black
10
160.351
20
-100.194
11
160.494
21
-99.9079
0
LINE
8
Black
10
160.494
20
-99.9079
11
160.637
21
-99.765
0
LINE
8
Black
10
160.637
20
-99.765
11
160.923
21
-99.6221
0
LINE
8
Black
10
160.923
20
-99.6221
11
161.494
21
-99.6221
0
LINE
8
Black
10
161.494
20
-99.6221
11
161.78
21
-99.765
0
LINE
8
Black
10
161.78
20
-99.765
11
161.923
21
-99.9079
0
LINE
8
Black
10
161.923
20
-99.9079
11
162.066
21
-100.194
0
LINE
8
Black
10
162.066
20
-100.194
11
162.066
21
-100.336
0
LINE
8
Black
10
162.066
20
-100.336
11
161.923
21
-100.622
0
LINE
8
Black
10
161.923
20
-100.622
11
161.78
21
-100.765
0
LINE
8
Black
10
161.78
20
-100.765
11
161.494
21
-100.908
0
LINE
8
Black
10
161.494
20
-100.908
11
160.923
21
-100.908
0
LINE
8
Black
10
160.923
20
-100.908
11
160.637
21
-101.051
0
LINE
8
Black
10
160.637
20
-101.051
11
160.494
21
-101.194
0
LINE
8
Black
10
160.494
20
-101.194
11
160.351
21
-101.479
0
LINE
8
Black
10
160.351
20
-101.479
11
160.351
21
-102.051
0
LINE
8
Black
10
160.351
20
-102.051
11
160.494
21
-102.336
0
LINE
8
Black
10
160.494
20
-102.336
11
160.637
21
-102.479
0
LINE
8
Black
10
160.637
20
-102.479
11
160.923
21
-102.622
0
LINE
8
Black
10
160.923
20
-102.622
11
161.494
21
-102.622
0
LINE
8
Black
10
161.494
20
-102.622
11
161.78
21
-102.479
0
LINE
8
Black
10
161.78
20
-102.479
11
161.923
21
-102.336
0
LINE
8
Black
10
161.923
20
-102.336
11
162.066
21
-102.051
0
LINE
8
Black
10
162.066
20
-102.051
11
162.066
21
-101.479
0
LINE
8
Black
10
162.066
20
-101.479
11
161.923
21
-101.194
0
LINE
8
Black
10
161.923
20
-101.194
11
161.78
21
-101.051
0
LINE
8
Black
10
161.78
20
-101.051
11
161.494
21
-100.908
0
LINE
8
Black
10
165.637
20
-102.622
11
165.637
21
-99.6221
0
LINE
8
Black
10
166.923
20
-102.622
11
166.923
21
-101.051
0
LINE
8
Black
10
166.923
20
-101.051
11
166.78
21
-100.765
0
LINE
8
Black
10
166.78
20
-100.765
11
166.494
21
-100.622
0
LINE
8
Black
10
166.494
20
-100.622
11
166.066
21
-100.622
0
LINE
8
Black
10
166.066
20
-100.622
11
165.78
21
-100.765
0
LINE
8
Black
10
165.78
20
-100.765
11
165.637
21
-100.908
0
LINE
8
Black
10
168.78
20
-102.622
11
168.494
21
-102.479
0
LINE
8
Black
10
168.494
20
-102.479
11
168.351
21
-102.336
0
LINE
8
Black
10
168.351
20
-102.336
11
168.209
21
-102.051
0
LINE
8
Black
10
168.209
20
-102.051
11
168.209
21
-101.194
0
LINE
8
Black
10
168.209
20
-101.194
11
168.351
21
-100.908
0
LINE
8
Black
10
168.351
20
-100.908
11
168.494
21
-100.765
0
LINE
8
Black
10
168.494
20
-100.765
11
168.78
21
-100.622
0
LINE
8
Black
10
168.78
20
-100.622
11
169.209
21
-100.622
0
LINE
8
Black
10
169.209
20
-100.622
11
169.494
21
-100.765
0
LINE
8
Black
10
169.494
20
-100.765
11
169.637
21
-100.908
0
LINE
8
Black
10
169.637
20
-100.908
11
169.78
21
-101.194
0
LINE
8
Black
10
169.78
20
-101.194
11
169.78
21
-102.051
0
LINE
8
Black
10
169.78
20
-102.051
11
169.637
21
-102.336
0
LINE
8
Black
10
169.637
20
-102.336
11
169.494
21
-102.479
0
LINE
8
Black
10
169.494
20
-102.479
11
169.209
21
-102.622
0
LINE
8
Black
10
169.209
20
-102.622
11
168.78
21
-102.622
0
LINE
8
Black
10
171.494
20
-102.622
11
171.209
21
-102.479
0
LINE
8
Black
10
171.209
20
-102.479
11
171.066
21
-102.194
0
LINE
8
Black
10
171.066
20
-102.194
11
171.066
21
-99.6221
0
LINE
8
Black
10
173.78
20
-102.479
11
173.494
21
-102.622
0
LINE
8
Black
10
173.494
20
-102.622
11
172.923
21
-102.622
0
LINE
8
Black
10
172.923
20
-102.622
11
172.637
21
-102.479
0
LINE
8
Black
10
172.637
20
-102.479
11
172.494
21
-102.194
0
LINE
8
Black
10
172.494
20
-102.194
11
172.494
21
-101.051
0
LINE
8
Black
10
172.494
20
-101.051
11
172.637
21
-100.765
0
LINE
8
Black
10
172.637
20
-100.765
11
172.923
21
-100.622
0
LINE
8
Black
10
172.923
20
-100.622
11
173.494
21
-100.622
0
LINE
8
Black
10
173.494
20
-100.622
11
173.78
21
-100.765
0
LINE
8
Black
10
173.78
20
-100.765
11
173.923
21
-101.051
0
LINE
8
Black
10
173.923
20
-101.051
11
173.923
21
-101.336
0
LINE
8
Black
10
173.923
20
-101.336
11
172.494
21
-101.622
0
LINE
8
Black
10
175.066
20
-102.479
11
175.351
21
-102.622
0
LINE
8
Black
10
175.351
20
-102.622
11
175.923
21
-102.622
0
LINE
8
Black
10
175.923
20
-102.622
11
176.209
21
-102.479
0
LINE
8
Black
10
176.209
20
-102.479
11
176.351
21
-102.194
0
LINE
8
Black
10
176.351
20
-102.194
11
176.351
21
-102.051
0
LINE
8
Black
10
176.351
20
-102.051
11
176.209
21
-101.765
0
LINE
8
Black
10
176.209
20
-101.765
11
175.923
21
-101.622
0
LINE
8
Black
10
175.923
20
-101.622
11
175.494
21
-101.622
0
LINE
8
Black
10
175.494
20
-101.622
11
175.209
21
-101.479
0
LINE
8
Black
10
175.209
20
-101.479
11
175.066
21
-101.194
0
LINE
8
Black
10
175.066
20
-101.194
11
175.066
21
-101.051
0
LINE
8
Black
10
175.066
20
-101.051
11
175.209
21
-100.765
0
LINE
8
Black
10
175.209
20
-100.765
11
175.494
21
-100.622
0
LINE
8
Black
10
175.494
20
-100.622
11
175.923
21
-100.622
0
LINE
8
Black
10
175.923
20
-100.622
11
176.209
21
-100.765
0
LINE
8
Black
10
177.351
20
-103.765
11
177.494
21
-103.622
0
LINE
8
Black
10
177.494
20
-103.622
11
177.78
21
-103.194
0
LINE
8
Black
10
177.78
20
-103.194
11
177.923
21
-102.908
0
LINE
8
Black
10
177.923
20
-102.908
11
178.066
21
-102.479
0
LINE
8
Black
10
178.066
20
-102.479
11
178.209
21
-101.765
0
LINE
8
Black
10
178.209
20
-101.765
11
178.209
21
-101.194
0
LINE
8
Black
10
178.209
20
-101.194
11
178.066
21
-100.479
0
LINE
8
Black
10
178.066
20
-100.479
11
177.923
21
-100.051
0
LINE
8
Black
10
177.923
20
-100.051
11
177.78
21
-99.765
0
LINE
8
Black
10
177.78
20
-99.765
11
177.494
21
-99.3364
0
LINE
8
Black
10
177.494
20
-99.3364
11
177.351
21
-99.1936
0
LINE
8
Black
10
109.23
20
-104.675
11
109.23
21
-105.775
0
LINE
8
Black
10
108.68
20
-105.225
11
109.78
21
-105.225
0
LINE
8
Black
10
114.066
20
-106.582
11
112.351
21
-106.582
0
LINE
8
Black
10
113.209
20
-106.582
11
113.209
21
-103.582
0
LINE
8
Black
10
113.209
20
-103.582
11
112.923
21
-104.011
0
LINE
8
Black
10
112.923
20
-104.011
11
112.637
21
-104.296
0
LINE
8
Black
10
112.637
20
-104.296
11
112.351
21
-104.439
0
LINE
8
Black
10
115.351
20
-106.296
11
115.494
21
-106.439
0
LINE
8
Black
10
115.494
20
-106.439
11
115.351
21
-106.582
0
LINE
8
Black
10
115.351
20
-106.582
11
115.209
21
-106.439
0
LINE
8
Black
10
115.209
20
-106.439
11
115.351
21
-106.296
0
LINE
8
Black
10
115.351
20
-106.296
11
115.351
21
-106.582
0
LINE
8
Black
10
118.351
20
-106.582
11
116.637
21
-106.582
0
LINE
8
Black
10
117.494
20
-106.582
11
117.494
21
-103.582
0
LINE
8
Black
10
117.494
20
-103.582
11
117.209
21
-104.011
0
LINE
8
Black
10
117.209
20
-104.011
11
116.923
21
-104.296
0
LINE
8
Black
10
116.923
20
-104.296
11
116.637
21
-104.439
0
LINE
8
Black
10
120.209
20
-103.582
11
120.494
21
-103.582
0
LINE
8
Black
10
120.494
20
-103.582
11
120.78
21
-103.725
0
LINE
8
Black
10
120.78
20
-103.725
11
120.923
21
-103.868
0
LINE
8
Black
10
120.923
20
-103.868
11
121.066
21
-104.154
0
LINE
8
Black
10
121.066
20
-104.154
11
121.209
21
-104.725
0
LINE
8
Black
10
121.209
20
-104.725
11
121.209
21
-105.439
0
LINE
8
Black
10
121.209
20
-105.439
11
121.066
21
-106.011
0
LINE
8
Black
10
121.066
20
-106.011
11
120.923
21
-106.296
0
LINE
8
Black
10
120.923
20
-106.296
11
120.78
21
-106.439
0
LINE
8
Black
10
120.78
20
-106.439
11
120.494
21
-106.582
0
LINE
8
Black
10
120.494
20
-106.582
11
120.209
21
-106.582
0
LINE
8
Black
10
120.209
20
-106.582
11
119.923
21
-106.439
0
LINE
8
Black
10
119.923
20
-106.439
11
119.78
21
-106.296
0
LINE
8
Black
10
119.78
20
-106.296
11
119.637
21
-106.011
0
LINE
8
Black
10
119.637
20
-106.011
11
119.494
21
-105.439
0
LINE
8
Black
10
119.494
20
-105.439
11
119.494
21
-104.725
0
LINE
8
Black
10
119.494
20
-104.725
11
119.637
21
-104.154
0
LINE
8
Black
10
119.637
20
-104.154
11
119.78
21
-103.868
0
LINE
8
Black
10
119.78
20
-103.868
11
119.923
21
-103.725
0
LINE
8
Black
10
119.923
20
-103.725
11
120.209
21
-103.582
0
LINE
8
Black
10
122.494
20
-106.582
11
122.494
21
-104.582
0
LINE
8
Black
10
122.494
20
-104.868
11
122.637
21
-104.725
0
LINE
8
Black
10
122.637
20
-104.725
11
122.923
21
-104.582
0
LINE
8
Black
10
122.923
20
-104.582
11
123.351
21
-104.582
0
LINE
8
Black
10
123.351
20
-104.582
11
123.637
21
-104.725
0
LINE
8
Black
10
123.637
20
-104.725
11
123.78
21
-105.011
0
LINE
8
Black
10
123.78
20
-105.011
11
123.78
21
-106.582
0
LINE
8
Black
10
123.78
20
-105.011
11
123.923
21
-104.725
0
LINE
8
Black
10
123.923
20
-104.725
11
124.209
21
-104.582
0
LINE
8
Black
10
124.209
20
-104.582
11
124.637
21
-104.582
0
LINE
8
Black
10
124.637
20
-104.582
11
124.923
21
-104.725
0
LINE
8
Black
10
124.923
20
-104.725
11
125.066
21
-105.011
0
LINE
8
Black
10
125.066
20
-105.011
11
125.066
21
-106.582
0
LINE
8
Black
10
126.494
20
-106.582
11
126.494
21
-104.582
0
LINE
8
Black
10
126.494
20
-104.868
11
126.637
21
-104.725
0
LINE
8
Black
10
126.637
20
-104.725
11
126.923
21
-104.582
0
LINE
8
Black
10
126.923
20
-104.582
11
127.351
21
-104.582
0
LINE
8
Black
10
127.351
20
-104.582
11
127.637
21
-104.725
0
LINE
8
Black
10
127.637
20
-104.725
11
127.78
21
-105.011
0
LINE
8
Black
10
127.78
20
-105.011
11
127.78
21
-106.582
0
LINE
8
Black
10
127.78
20
-105.011
11
127.923
21
-104.725
0
LINE
8
Black
10
127.923
20
-104.725
11
128.209
21
-104.582
0
LINE
8
Black
10
128.209
20
-104.582
11
128.637
21
-104.582
0
LINE
8
Black
10
128.637
20
-104.582
11
128.923
21
-104.725
0
LINE
8
Black
10
128.923
20
-104.725
11
129.066
21
-105.011
0
LINE
8
Black
10
129.066
20
-105.011
11
129.066
21
-106.582
0
LINE
8
Black
10
134.923
20
-103.439
11
132.351
21
-107.296
0
LINE
8
Black
10
138.78
20
-103.582
11
139.066
21
-103.582
0
LINE
8
Black
10
139.066
20
-103.582
11
139.351
21
-103.725
0
LINE
8
Black
10
139.351
20
-103.725
11
139.494
21
-103.868
0
LINE
8
Black
10
139.494
20
-103.868
11
139.637
21
-104.154
0
LINE
8
Black
10
139.637
20
-104.154
11
139.78
21
-104.725
0
LINE
8
Black
10
139.78
20
-104.725
11
139.78
21
-105.439
0
LINE
8
Black
10
139.78
20
-105.439
11
139.637
21
-106.011
0
LINE
8
Black
10
139.637
20
-106.011
11
139.494
21
-106.296
0
LINE
8
Black
10
139.494
20
-106.296
11
139.351
21
-106.439
0
LINE
8
Black
10
139.351
20
-106.439
11
139.066
21
-106.582
0
LINE
8
Black
10
139.066
20
-106.582
11
138.78
21
-106.582
0
LINE
8
Black
10
138.78
20
-106.582
11
138.494
21
-106.439
0
LINE
8
Black
10
138.494
20
-106.439
11
138.351
21
-106.296
0
LINE
8
Black
10
138.351
20
-106.296
11
138.209
21
-106.011
0
LINE
8
Black
10
138.209
20
-106.011
11
138.066
21
-105.439
0
LINE
8
Black
10
138.066
20
-105.439
11
138.066
21
-104.725
0
LINE
8
Black
10
138.066
20
-104.725
11
138.209
21
-104.154
0
LINE
8
Black
10
138.209
20
-104.154
11
138.351
21
-103.868
0
LINE
8
Black
10
138.351
20
-103.868
11
138.494
21
-103.725
0
LINE
8
Black
10
138.494
20
-103.725
11
138.78
21
-103.582
0
LINE
8
Black
10
141.066
20
-106.296
11
141.209
21
-106.439
0
LINE
8
Black
10
141.209
20
-106.439
11
141.066
21
-106.582
0
LINE
8
Black
10
141.066
20
-106.582
11
140.923
21
-106.439
0
LINE
8
Black
10
140.923
20
-106.439
11
141.066
21
-106.296
0
LINE
8
Black
10
141.066
20
-106.296
11
141.066
21
-106.582
0
LINE
8
Black
10
143.066
20
-103.582
11
143.351
21
-103.582
0
LINE
8
Black
10
143.351
20
-103.582
11
143.637
21
-103.725
0
LINE
8
Black
10
143.637
20
-103.725
11
143.78
21
-103.868
0
LINE
8
Black
10
143.78
20
-103.868
11
143.923
21
-104.154
0
LINE
8
Black
10
143.923
20
-104.154
11
144.066
21
-104.725
0
LINE
8
Black
10
144.066
20
-104.725
11
144.066
21
-105.439
0
LINE
8
Black
10
144.066
20
-105.439
11
143.923
21
-106.011
0
LINE
8
Black
10
143.923
20
-106.011
11
143.78
21
-106.296
0
LINE
8
Black
10
143.78
20
-106.296
11
143.637
21
-106.439
0
LINE
8
Black
10
143.637
20
-106.439
11
143.351
21
-106.582
0
LINE
8
Black
10
143.351
20
-106.582
11
143.066
21
-106.582
0
LINE
8
Black
10
143.066
20
-106.582
11
142.78
21
-106.439
0
LINE
8
Black
10
142.78
20
-106.439
11
142.637
21
-106.296
0
LINE
8
Black
10
142.637
20
-106.296
11
142.494
21
-106.011
0
LINE
8
Black
10
142.494
20
-106.011
11
142.351
21
-105.439
0
LINE
8
Black
10
142.351
20
-105.439
11
142.351
21
-104.725
0
LINE
8
Black
10
142.351
20
-104.725
11
142.494
21
-104.154
0
LINE
8
Black
10
142.494
20
-104.154
11
142.637
21
-103.868
0
LINE
8
Black
10
142.637
20
-103.868
11
142.78
21
-103.725
0
LINE
8
Black
10
142.78
20
-103.725
11
143.066
21
-103.582
0
LINE
8
Black
10
146.637
20
-104.582
11
146.637
21
-106.582
0
LINE
8
Black
10
145.923
20
-103.439
11
145.209
21
-105.582
0
LINE
8
Black
10
145.209
20
-105.582
11
147.066
21
-105.582
0
LINE
8
Black
10
147.923
20
-103.582
11
149.78
21
-103.582
0
LINE
8
Black
10
149.78
20
-103.582
11
148.78
21
-104.725
0
LINE
8
Black
10
148.78
20
-104.725
11
149.209
21
-104.725
0
LINE
8
Black
10
149.209
20
-104.725
11
149.494
21
-104.868
0
LINE
8
Black
10
149.494
20
-104.868
11
149.637
21
-105.011
0
LINE
8
Black
10
149.637
20
-105.011
11
149.78
21
-105.296
0
LINE
8
Black
10
149.78
20
-105.296
11
149.78
21
-106.011
0
LINE
8
Black
10
149.78
20
-106.011
11
149.637
21
-106.296
0
LINE
8
Black
10
149.637
20
-106.296
11
149.494
21
-106.439
0
LINE
8
Black
10
149.494
20
-106.439
11
149.209
21
-106.582
0
LINE
8
Black
10
149.209
20
-106.582
11
148.351
21
-106.582
0
LINE
8
Black
10
148.351
20
-106.582
11
148.066
21
-106.439
0
LINE
8
Black
10
148.066
20
-106.439
11
147.923
21
-106.296
0
LINE
8
Black
10
150.923
20
-103.582
11
150.923
21
-104.154
0
LINE
8
Black
10
152.066
20
-103.582
11
152.066
21
-104.154
0
LINE
8
Black
10
156.494
20
-107.725
11
156.351
21
-107.582
0
LINE
8
Black
10
156.351
20
-107.582
11
156.066
21
-107.154
0
LINE
8
Black
10
156.066
20
-107.154
11
155.923
21
-106.868
0
LINE
8
Black
10
155.923
20
-106.868
11
155.78
21
-106.439
0
LINE
8
Black
10
155.78
20
-106.439
11
155.637
21
-105.725
0
LINE
8
Black
10
155.637
20
-105.725
11
155.637
21
-105.154
0
LINE
8
Black
10
155.637
20
-105.154
11
155.78
21
-104.439
0
LINE
8
Black
10
155.78
20
-104.439
11
155.923
21
-104.011
0
LINE
8
Black
10
155.923
20
-104.011
11
156.066
21
-103.725
0
LINE
8
Black
10
156.066
20
-103.725
11
156.351
21
-103.296
0
LINE
8
Black
10
156.351
20
-103.296
11
156.494
21
-103.154
0
LINE
8
Black
10
157.351
20
-103.582
11
159.209
21
-103.582
0
LINE
8
Black
10
159.209
20
-103.582
11
158.209
21
-104.725
0
LINE
8
Black
10
158.209
20
-104.725
11
158.637
21
-104.725
0
LINE
8
Black
10
158.637
20
-104.725
11
158.923
21
-104.868
0
LINE
8
Black
10
158.923
20
-104.868
11
159.066
21
-105.011
0
LINE
8
Black
10
159.066
20
-105.011
11
159.209
21
-105.296
0
LINE
8
Black
10
159.209
20
-105.296
11
159.209
21
-106.011
0
LINE
8
Black
10
159.209
20
-106.011
11
159.066
21
-106.296
0
LINE
8
Black
10
159.066
20
-106.296
11
158.923
21
-106.439
0
LINE
8
Black
10
158.923
20
-106.439
11
158.637
21
-106.582
0
LINE
8
Black
10
158.637
20
-106.582
11
157.78
21
-106.582
0
LINE
8
Black
10
157.78
20
-106.582
11
157.494
21
-106.439
0
LINE
8
Black
10
157.494
20
-106.439
11
157.351
21
-106.296
0
LINE
8
Black
10
162.78
20
-106.582
11
162.78
21
-103.582
0
LINE
8
Black
10
164.066
20
-106.582
11
164.066
21
-105.011
0
LINE
8
Black
10
164.066
20
-105.011
11
163.923
21
-104.725
0
LINE
8
Black
10
163.923
20
-104.725
11
163.637
21
-104.582
0
LINE
8
Black
10
163.637
20
-104.582
11
163.209
21
-104.582
0
LINE
8
Black
10
163.209
20
-104.582
11
162.923
21
-104.725
0
LINE
8
Black
10
162.923
20
-104.725
11
162.78
21
-104.868
0
LINE
8
Black
10
165.923
20
-106.582
11
165.637
21
-106.439
0
LINE
8
Black
10
165.637
20
-106.439
11
165.494
21
-106.296
0
LINE
8
Black
10
165.494
20
-106.296
11
165.351
21
-106.011
0
LINE
8
Black
10
165.351
20
-106.011
11
165.351
21
-105.154
0
LINE
8
Black
10
165.351
20
-105.154
11
165.494
21
-104.868
0
LINE
8
Black
10
165.494
20
-104.868
11
165.637
21
-104.725
0
LINE
8
Black
10
165.637
20
-104.725
11
165.923
21
-104.582
0
LINE
8
Black
10
165.923
20
-104.582
11
166.351
21
-104.582
0
LINE
8
Black
10
166.351
20
-104.582
11
166.637
21
-104.725
0
LINE
8
Black
10
166.637
20
-104.725
11
166.78
21
-104.868
0
LINE
8
Black
10
166.78
20
-104.868
11
166.923
21
-105.154
0
LINE
8
Black
10
166.923
20
-105.154
11
166.923
21
-106.011
0
LINE
8
Black
10
166.923
20
-106.011
11
166.78
21
-106.296
0
LINE
8
Black
10
166.78
20
-106.296
11
166.637
21
-106.439
0
LINE
8
Black
10
166.637
20
-106.439
11
166.351
21
-106.582
0
LINE
8
Black
10
166.351
20
-106.582
11
165.923
21
-106.582
0
LINE
8
Black
10
168.637
20
-106.582
11
168.351
21
-106.439
0
LINE
8
Black
10
168.351
20
-106.439
11
168.209
21
-106.154
0
LINE
8
Black
10
168.209
20
-106.154
11
168.209
21
-103.582
0
LINE
8
Black
10
170.923
20
-106.439
11
170.637
21
-106.582
0
LINE
8
Black
10
170.637
20
-106.582
11
170.066
21
-106.582
0
LINE
8
Black
10
170.066
20
-106.582
11
169.78
21
-106.439
0
LINE
8
Black
10
169.78
20
-106.439
11
169.637
21
-106.154
0
LINE
8
Black
10
169.637
20
-106.154
11
169.637
21
-105.011
0
LINE
8
Black
10
169.637
20
-105.011
11
169.78
21
-104.725
0
LINE
8
Black
10
169.78
20
-104.725
11
170.066
21
-104.582
0
LINE
8
Black
10
170.066
20
-104.582
11
170.637
21
-104.582
0
LINE
8
Black
10
170.637
20
-104.582
11
170.923
21
-104.725
0
LINE
8
Black
10
170.923
20
-104.725
11
171.066
21
-105.011
0
LINE
8
Black
10
171.066
20
-105.011
11
171.066
21
-105.296
0
LINE
8
Black
10
171.066
20
-105.296
11
169.637
21
-105.582
0
LINE
8
Black
10
172.209
20
-106.439
11
172.494
21
-106.582
0
LINE
8
Black
10
172.494
20
-106.582
11
173.066
21
-106.582
0
LINE
8
Black
10
173.066
20
-106.582
11
173.351
21
-106.439
0
LINE
8
Black
10
173.351
20
-106.439
11
173.494
21
-106.154
0
LINE
8
Black
10
173.494
20
-106.154
11
173.494
21
-106.011
0
LINE
8
Black
10
173.494
20
-106.011
11
173.351
21
-105.725
0
LINE
8
Black
10
173.351
20
-105.725
11
173.066
21
-105.582
0
LINE
8
Black
10
173.066
20
-105.582
11
172.637
21
-105.582
0
LINE
8
Black
10
172.637
20
-105.582
11
172.351
21
-105.439
0
LINE
8
Black
10
172.351
20
-105.439
11
172.209
21
-105.154
0
LINE
8
Black
10
172.209
20
-105.154
11
172.209
21
-105.011
0
LINE
8
Black
10
172.209
20
-105.011
11
172.351
21
-104.725
0
LINE
8
Black
10
172.351
20
-104.725
11
172.637
21
-104.582
0
LINE
8
Black
10
172.637
20
-104.582
11
173.066
21
-104.582
0
LINE
8
Black
10
173.066
20
-104.582
11
173.351
21
-104.725
0
LINE
8
Black
10
174.494
20
-107.725
11
174.637
21
-107.582
0
LINE
8
Black
10
174.637
20
-107.582
11
174.923
21
-107.154
0
LINE
8
Black
10
174.923
20
-107.154
11
175.066
21
-106.868
0
LINE
8
Black
10
175.066
20
-106.868
11
175.209
21
-106.439
0
LINE
8
Black
10
175.209
20
-106.439
11
175.351
21
-105.725
0
LINE
8
Black
10
175.351
20
-105.725
11
175.351
21
-105.154
0
LINE
8
Black
10
175.351
20
-105.154
11
175.209
21
-104.439
0
LINE
8
Black
10
175.209
20
-104.439
11
175.066
21
-104.011
0
LINE
8
Black
10
175.066
20
-104.011
11
174.923
21
-103.725
0
LINE
8
Black
10
174.923
20
-103.725
11
174.637
21
-103.296
0
LINE
8
Black
10
174.637
20
-103.296
11
174.494
21
-103.154
0
LINE
8
Black
10
109.487
20
-109.892
11
109.487
21
-108.478
0
LINE
8
Black
10
109.487
20
-108.478
11
108.073
21
-108.478
0
LINE
8
Black
10
108.073
20
-108.478
11
108.073
21
-109.892
0
LINE
8
Black
10
108.073
20
-109.892
11
109.487
21
-109.892
0
LINE
8
Black
10
112.351
20
-107.828
11
112.494
21
-107.685
0
LINE
8
Black
10
112.494
20
-107.685
11
112.78
21
-107.542
0
LINE
8
Black
10
112.78
20
-107.542
11
113.494
21
-107.542
0
LINE
8
Black
10
113.494
20
-107.542
11
113.78
21
-107.685
0
LINE
8
Black
10
113.78
20
-107.685
11
113.923
21
-107.828
0
LINE
8
Black
10
113.923
20
-107.828
11
114.066
21
-108.114
0
LINE
8
Black
10
114.066
20
-108.114
11
114.066
21
-108.399
0
LINE
8
Black
10
114.066
20
-108.399
11
113.923
21
-108.828
0
LINE
8
Black
10
113.923
20
-108.828
11
112.209
21
-110.542
0
LINE
8
Black
10
112.209
20
-110.542
11
114.066
21
-110.542
0
LINE
8
Black
10
115.351
20
-110.256
11
115.494
21
-110.399
0
LINE
8
Black
10
115.494
20
-110.399
11
115.351
21
-110.542
0
LINE
8
Black
10
115.351
20
-110.542
11
115.209
21
-110.399
0
LINE
8
Black
10
115.209
20
-110.399
11
115.351
21
-110.256
0
LINE
8
Black
10
115.351
20
-110.256
11
115.351
21
-110.542
0
LINE
8
Black
10
117.351
20
-107.542
11
117.637
21
-107.542
0
LINE
8
Black
10
117.637
20
-107.542
11
117.923
21
-107.685
0
LINE
8
Black
10
117.923
20
-107.685
11
118.066
21
-107.828
0
LINE
8
Black
10
118.066
20
-107.828
11
118.209
21
-108.114
0
LINE
8
Black
10
118.209
20
-108.114
11
118.351
21
-108.685
0
LINE
8
Black
10
118.351
20
-108.685
11
118.351
21
-109.399
0
LINE
8
Black
10
118.351
20
-109.399
11
118.209
21
-109.971
0
LINE
8
Black
10
118.209
20
-109.971
11
118.066
21
-110.256
0
LINE
8
Black
10
118.066
20
-110.256
11
117.923
21
-110.399
0
LINE
8
Black
10
117.923
20
-110.399
11
117.637
21
-110.542
0
LINE
8
Black
10
117.637
20
-110.542
11
117.351
21
-110.542
0
LINE
8
Black
10
117.351
20
-110.542
11
117.066
21
-110.399
0
LINE
8
Black
10
117.066
20
-110.399
11
116.923
21
-110.256
0
LINE
8
Black
10
116.923
20
-110.256
11
116.78
21
-109.971
0
LINE
8
Black
10
116.78
20
-109.971
11
116.637
21
-109.399
0
LINE
8
Black
10
116.637
20
-109.399
11
116.637
21
-108.685
0
LINE
8
Black
10
116.637
20
-108.685
11
116.78
21
-108.114
0
LINE
8
Black
10
116.78
20
-108.114
11
116.923
21
-107.828
0
LINE
8
Black
10
116.923
20
-107.828
11
117.066
21
-107.685
0
LINE
8
Black
10
117.066
20
-107.685
11
117.351
21
-107.542
0
LINE
8
Black
10
120.209
20
-107.542
11
120.494
21
-107.542
0
LINE
8
Black
10
120.494
20
-107.542
11
120.78
21
-107.685
0
LINE
8
Black
10
120.78
20
-107.685
11
120.923
21
-107.828
0
LINE
8
Black
10
120.923
20
-107.828
11
121.066
21
-108.114
0
LINE
8
Black
10
121.066
20
-108.114
11
121.209
21
-108.685
0
LINE
8
Black
10
121.209
20
-108.685
11
121.209
21
-109.399
0
LINE
8
Black
10
121.209
20
-109.399
11
121.066
21
-109.971
0
LINE
8
Black
10
121.066
20
-109.971
11
120.923
21
-110.256
0
LINE
8
Black
10
120.923
20
-110.256
11
120.78
21
-110.399
0
LINE
8
Black
10
120.78
20
-110.399
11
120.494
21
-110.542
0
LINE
8
Black
10
120.494
20
-110.542
11
120.209
21
-110.542
0
LINE
8
Black
10
120.209
20
-110.542
11
119.923
21
-110.399
0
LINE
8
Black
10
119.923
20
-110.399
11
119.78
21
-110.256
0
LINE
8
Black
10
119.78
20
-110.256
11
119.637
21
-109.971
0
LINE
8
Black
10
119.637
20
-109.971
11
119.494
21
-109.399
0
LINE
8
Black
10
119.494
20
-109.399
11
119.494
21
-108.685
0
LINE
8
Black
10
119.494
20
-108.685
11
119.637
21
-108.114
0
LINE
8
Black
10
119.637
20
-108.114
11
119.78
21
-107.828
0
LINE
8
Black
10
119.78
20
-107.828
11
119.923
21
-107.685
0
LINE
8
Black
10
119.923
20
-107.685
11
120.209
21
-107.542
0
LINE
8
Black
10
122.494
20
-110.542
11
122.494
21
-108.542
0
LINE
8
Black
10
122.494
20
-108.828
11
122.637
21
-108.685
0
LINE
8
Black
10
122.637
20
-108.685
11
122.923
21
-108.542
0
LINE
8
Black
10
122.923
20
-108.542
11
123.351
21
-108.542
0
LINE
8
Black
10
123.351
20
-108.542
11
123.637
21
-108.685
0
LINE
8
Black
10
123.637
20
-108.685
11
123.78
21
-108.971
0
LINE
8
Black
10
123.78
20
-108.971
11
123.78
21
-110.542
0
LINE
8
Black
10
123.78
20
-108.971
11
123.923
21
-108.685
0
LINE
8
Black
10
123.923
20
-108.685
11
124.209
21
-108.542
0
LINE
8
Black
10
124.209
20
-108.542
11
124.637
21
-108.542
0
LINE
8
Black
10
124.637
20
-108.542
11
124.923
21
-108.685
0
LINE
8
Black
10
124.923
20
-108.685
11
125.066
21
-108.971
0
LINE
8
Black
10
125.066
20
-108.971
11
125.066
21
-110.542
0
LINE
8
Black
10
126.494
20
-110.542
11
126.494
21
-108.542
0
LINE
8
Black
10
126.494
20
-108.828
11
126.637
21
-108.685
0
LINE
8
Black
10
126.637
20
-108.685
11
126.923
21
-108.542
0
LINE
8
Black
10
126.923
20
-108.542
11
127.351
21
-108.542
0
LINE
8
Black
10
127.351
20
-108.542
11
127.637
21
-108.685
0
LINE
8
Black
10
127.637
20
-108.685
11
127.78
21
-108.971
0
LINE
8
Black
10
127.78
20
-108.971
11
127.78
21
-110.542
0
LINE
8
Black
10
127.78
20
-108.971
11
127.923
21
-108.685
0
LINE
8
Black
10
127.923
20
-108.685
11
128.209
21
-108.542
0
LINE
8
Black
10
128.209
20
-108.542
11
128.637
21
-108.542
0
LINE
8
Black
10
128.637
20
-108.542
11
128.923
21
-108.685
0
LINE
8
Black
10
128.923
20
-108.685
11
129.066
21
-108.971
0
LINE
8
Black
10
129.066
20
-108.971
11
129.066
21
-110.542
0
LINE
8
Black
10
134.923
20
-107.399
11
132.351
21
-111.256
0
LINE
8
Black
10
138.78
20
-107.542
11
139.066
21
-107.542
0
LINE
8
Black
10
139.066
20
-107.542
11
139.351
21
-107.685
0
LINE
8
Black
10
139.351
20
-107.685
11
139.494
21
-107.828
0
LINE
8
Black
10
139.494
20
-107.828
11
139.637
21
-108.114
0
LINE
8
Black
10
139.637
20
-108.114
11
139.78
21
-108.685
0
LINE
8
Black
10
139.78
20
-108.685
11
139.78
21
-109.399
0
LINE
8
Black
10
139.78
20
-109.399
11
139.637
21
-109.971
0
LINE
8
Black
10
139.637
20
-109.971
11
139.494
21
-110.256
0
LINE
8
Black
10
139.494
20
-110.256
11
139.351
21
-110.399
0
LINE
8
Black
10
139.351
20
-110.399
11
139.066
21
-110.542
0
LINE
8
Black
10
139.066
20
-110.542
11
138.78
21
-110.542
0
LINE
8
Black
10
138.78
20
-110.542
11
138.494
21
-110.399
0
LINE
8
Black
10
138.494
20
-110.399
11
138.351
21
-110.256
0
LINE
8
Black
10
138.351
20
-110.256
11
138.209
21
-109.971
0
LINE
8
Black
10
138.209
20
-109.971
11
138.066
21
-109.399
0
LINE
8
Black
10
138.066
20
-109.399
11
138.066
21
-108.685
0
LINE
8
Black
10
138.066
20
-108.685
11
138.209
21
-108.114
0
LINE
8
Black
10
138.209
20
-108.114
11
138.351
21
-107.828
0
LINE
8
Black
10
138.351
20
-107.828
11
138.494
21
-107.685
0
LINE
8
Black
10
138.494
20
-107.685
11
138.78
21
-107.542
0
LINE
8
Black
10
141.066
20
-110.256
11
141.209
21
-110.399
0
LINE
8
Black
10
141.209
20
-110.399
11
141.066
21
-110.542
0
LINE
8
Black
10
141.066
20
-110.542
11
140.923
21
-110.399
0
LINE
8
Black
10
140.923
20
-110.399
11
141.066
21
-110.256
0
LINE
8
Black
10
141.066
20
-110.256
11
141.066
21
-110.542
0
LINE
8
Black
10
143.066
20
-107.542
11
143.351
21
-107.542
0
LINE
8
Black
10
143.351
20
-107.542
11
143.637
21
-107.685
0
LINE
8
Black
10
143.637
20
-107.685
11
143.78
21
-107.828
0
LINE
8
Black
10
143.78
20
-107.828
11
143.923
21
-108.114
0
LINE
8
Black
10
143.923
20
-108.114
11
144.066
21
-108.685
0
LINE
8
Black
10
144.066
20
-108.685
11
144.066
21
-109.399
0
LINE
8
Black
10
144.066
20
-109.399
11
143.923
21
-109.971
0
LINE
8
Black
10
143.923
20
-109.971
11
143.78
21
-110.256
0
LINE
8
Black
10
143.78
20
-110.256
11
143.637
21
-110.399
0
LINE
8
Black
10
143.637
20
-110.399
11
143.351
21
-110.542
0
LINE
8
Black
10
143.351
20
-110.542
11
143.066
21
-110.542
0
LINE
8
Black
10
143.066
20
-110.542
11
142.78
21
-110.399
0
LINE
8
Black
10
142.78
20
-110.399
11
142.637
21
-110.256
0
LINE
8
Black
10
142.637
20
-110.256
11
142.494
21
-109.971
0
LINE
8
Black
10
142.494
20
-109.971
11
142.351
21
-109.399
0
LINE
8
Black
10
142.351
20
-109.399
11
142.351
21
-108.685
0
LINE
8
Black
10
142.351
20
-108.685
11
142.494
21
-108.114
0
LINE
8
Black
10
142.494
20
-108.114
11
142.637
21
-107.828
0
LINE
8
Black
10
142.637
20
-107.828
11
142.78
21
-107.685
0
LINE
8
Black
10
142.78
20
-107.685
11
143.066
21
-107.542
0
LINE
8
Black
10
145.066
20
-107.542
11
147.066
21
-107.542
0
LINE
8
Black
10
147.066
20
-107.542
11
145.78
21
-110.542
0
LINE
8
Black
10
148.351
20
-110.542
11
148.923
21
-110.542
0
LINE
8
Black
10
148.923
20
-110.542
11
149.209
21
-110.399
0
LINE
8
Black
10
149.209
20
-110.399
11
149.351
21
-110.256
0
LINE
8
Black
10
149.351
20
-110.256
11
149.637
21
-109.828
0
LINE
8
Black
10
149.637
20
-109.828
11
149.78
21
-109.256
0
LINE
8
Black
10
149.78
20
-109.256
11
149.78
21
-108.114
0
LINE
8
Black
10
149.78
20
-108.114
11
149.637
21
-107.828
0
LINE
8
Black
10
149.637
20
-107.828
11
149.494
21
-107.685
0
LINE
8
Black
10
149.494
20
-107.685
11
149.209
21
-107.542
0
LINE
8
Black
10
149.209
20
-107.542
11
148.637
21
-107.542
0
LINE
8
Black
10
148.637
20
-107.542
11
148.351
21
-107.685
0
LINE
8
Black
10
148.351
20
-107.685
11
148.209
21
-107.828
0
LINE
8
Black
10
148.209
20
-107.828
11
148.066
21
-108.114
0
LINE
8
Black
10
148.066
20
-108.114
11
148.066
21
-108.828
0
LINE
8
Black
10
148.066
20
-108.828
11
148.209
21
-109.114
0
LINE
8
Black
10
148.209
20
-109.114
11
148.351
21
-109.256
0
LINE
8
Black
10
148.351
20
-109.256
11
148.637
21
-109.399
0
LINE
8
Black
10
148.637
20
-109.399
11
149.209
21
-109.399
0
LINE
8
Black
10
149.209
20
-109.399
11
149.494
21
-109.256
0
LINE
8
Black
10
149.494
20
-109.256
11
149.637
21
-109.114
0
LINE
8
Black
10
149.637
20
-109.114
11
149.78
21
-108.828
0
LINE
8
Black
10
150.923
20
-107.542
11
150.923
21
-108.114
0
LINE
8
Black
10
152.066
20
-107.542
11
152.066
21
-108.114
0
LINE
8
Black
10
156.494
20
-111.685
11
156.351
21
-111.542
0
LINE
8
Black
10
156.351
20
-111.542
11
156.066
21
-111.114
0
LINE
8
Black
10
156.066
20
-111.114
11
155.923
21
-110.828
0
LINE
8
Black
10
155.923
20
-110.828
11
155.78
21
-110.399
0
LINE
8
Black
10
155.78
20
-110.399
11
155.637
21
-109.685
0
LINE
8
Black
10
155.637
20
-109.685
11
155.637
21
-109.114
0
LINE
8
Black
10
155.637
20
-109.114
11
155.78
21
-108.399
0
LINE
8
Black
10
155.78
20
-108.399
11
155.923
21
-107.971
0
LINE
8
Black
10
155.923
20
-107.971
11
156.066
21
-107.685
0
LINE
8
Black
10
156.066
20
-107.685
11
156.351
21
-107.256
0
LINE
8
Black
10
156.351
20
-107.256
11
156.494
21
-107.114
0
LINE
8
Black
10
158.209
20
-107.542
11
158.494
21
-107.542
0
LINE
8
Black
10
158.494
20
-107.542
11
158.78
21
-107.685
0
LINE
8
Black
10
158.78
20
-107.685
11
158.923
21
-107.828
0
LINE
8
Black
10
158.923
20
-107.828
11
159.066
21
-108.114
0
LINE
8
Black
10
159.066
20
-108.114
11
159.209
21
-108.685
0
LINE
8
Black
10
159.209
20
-108.685
11
159.209
21
-109.399
0
LINE
8
Black
10
159.209
20
-109.399
11
159.066
21
-109.971
0
LINE
8
Black
10
159.066
20
-109.971
11
158.923
21
-110.256
0
LINE
8
Black
10
158.923
20
-110.256
11
158.78
21
-110.399
0
LINE
8
Black
10
158.78
20
-110.399
11
158.494
21
-110.542
0
LINE
8
Black
10
158.494
20
-110.542
11
158.209
21
-110.542
0
LINE
8
Black
10
158.209
20
-110.542
11
157.923
21
-110.399
0
LINE
8
Black
10
157.923
20
-110.399
11
157.78
21
-110.256
0
LINE
8
Black
10
157.78
20
-110.256
11
157.637
21
-109.971
0
LINE
8
Black
10
157.637
20
-109.971
11
157.494
21
-109.399
0
LINE
8
Black
10
157.494
20
-109.399
11
157.494
21
-108.685
0
LINE
8
Black
10
157.494
20
-108.685
11
157.637
21
-108.114
0
LINE
8
Black
10
157.637
20
-108.114
11
157.78
21
-107.828
0
LINE
8
Black
10
157.78
20
-107.828
11
157.923
21
-107.685
0
LINE
8
Black
10
157.923
20
-107.685
11
158.209
21
-107.542
0
LINE
8
Black
10
162.78
20
-110.542
11
162.78
21
-107.542
0
LINE
8
Black
10
164.066
20
-110.542
11
164.066
21
-108.971
0
LINE
8
Black
10
164.066
20
-108.971
11
163.923
21
-108.685
0
LINE
8
Black
10
163.923
20
-108.685
11
163.637
21
-108.542
0
LINE
8
Black
10
163.637
20
-108.542
11
163.209
21
-108.542
0
LINE
8
Black
10
163.209
20
-108.542
11
162.923
21
-108.685
0
LINE
8
Black
10
162.923
20
-108.685
11
162.78
21
-108.828
0
LINE
8
Black
10
165.923
20
-110.542
11
165.637
21
-110.399
0
LINE
8
Black
10
165.637
20
-110.399
11
165.494
21
-110.256
0
LINE
8
Black
10
165.494
20
-110.256
11
165.351
21
-109.971
0
LINE
8
Black
10
165.351
20
-109.971
11
165.351
21
-109.114
0
LINE
8
Black
10
165.351
20
-109.114
11
165.494
21
-108.828
0
LINE
8
Black
10
165.494
20
-108.828
11
165.637
21
-108.685
0
LINE
8
Black
10
165.637
20
-108.685
11
165.923
21
-108.542
0
LINE
8
Black
10
165.923
20
-108.542
11
166.351
21
-108.542
0
LINE
8
Black
10
166.351
20
-108.542
11
166.637
21
-108.685
0
LINE
8
Black
10
166.637
20
-108.685
11
166.78
21
-108.828
0
LINE
8
Black
10
166.78
20
-108.828
11
166.923
21
-109.114
0
LINE
8
Black
10
166.923
20
-109.114
11
166.923
21
-109.971
0
LINE
8
Black
10
166.923
20
-109.971
11
166.78
21
-110.256
0
LINE
8
Black
10
166.78
20
-110.256
11
166.637
21
-110.399
0
LINE
8
Black
10
166.637
20
-110.399
11
166.351
21
-110.542
0
LINE
8
Black
10
166.351
20
-110.542
11
165.923
21
-110.542
0
LINE
8
Black
10
168.637
20
-110.542
11
168.351
21
-110.399
0
LINE
8
Black
10
168.351
20
-110.399
11
168.209
21
-110.114
0
LINE
8
Black
10
168.209
20
-110.114
11
168.209
21
-107.542
0
LINE
8
Black
10
170.923
20
-110.399
11
170.637
21
-110.542
0
LINE
8
Black
10
170.637
20
-110.542
11
170.066
21
-110.542
0
LINE
8
Black
10
170.066
20
-110.542
11
169.78
21
-110.399
0
LINE
8
Black
10
169.78
20
-110.399
11
169.637
21
-110.114
0
LINE
8
Black
10
169.637
20
-110.114
11
169.637
21
-108.971
0
LINE
8
Black
10
169.637
20
-108.971
11
169.78
21
-108.685
0
LINE
8
Black
10
169.78
20
-108.685
11
170.066
21
-108.542
0
LINE
8
Black
10
170.066
20
-108.542
11
170.637
21
-108.542
0
LINE
8
Black
10
170.637
20
-108.542
11
170.923
21
-108.685
0
LINE
8
Black
10
170.923
20
-108.685
11
171.066
21
-108.971
0
LINE
8
Black
10
171.066
20
-108.971
11
171.066
21
-109.256
0
LINE
8
Black
10
171.066
20
-109.256
11
169.637
21
-109.542
0
LINE
8
Black
10
172.209
20
-110.399
11
172.494
21
-110.542
0
LINE
8
Black
10
172.494
20
-110.542
11
173.066
21
-110.542
0
LINE
8
Black
10
173.066
20
-110.542
11
173.351
21
-110.399
0
LINE
8
Black
10
173.351
20
-110.399
11
173.494
21
-110.114
0
LINE
8
Black
10
173.494
20
-110.114
11
173.494
21
-109.971
0
LINE
8
Black
10
173.494
20
-109.971
11
173.351
21
-109.685
0
LINE
8
Black
10
173.351
20
-109.685
11
173.066
21
-109.542
0
LINE
8
Black
10
173.066
20
-109.542
11
172.637
21
-109.542
0
LINE
8
Black
10
172.637
20
-109.542
11
172.351
21
-109.399
0
LINE
8
Black
10
172.351
20
-109.399
11
172.209
21
-109.114
0
LINE
8
Black
10
172.209
20
-109.114
11
172.209
21
-108.971
0
LINE
8
Black
10
172.209
20
-108.971
11
172.351
21
-108.685
0
LINE
8
Black
10
172.351
20
-108.685
11
172.637
21
-108.542
0
LINE
8
Black
10
172.637
20
-108.542
11
173.066
21
-108.542
0
LINE
8
Black
10
173.066
20
-108.542
11
173.351
21
-108.685
0
LINE
8
Black
10
177.066
20
-109.399
11
179.351
21
-109.399
0
LINE
8
Black
10
178.209
20
-110.542
11
178.209
21
-108.256
0
LINE
8
Black
10
182.923
20
-107.828
11
183.066
21
-107.685
0
LINE
8
Black
10
183.066
20
-107.685
11
183.351
21
-107.542
0
LINE
8
Black
10
183.351
20
-107.542
11
184.066
21
-107.542
0
LINE
8
Black
10
184.066
20
-107.542
11
184.351
21
-107.685
0
LINE
8
Black
10
184.351
20
-107.685
11
184.494
21
-107.828
0
LINE
8
Black
10
184.494
20
-107.828
11
184.637
21
-108.114
0
LINE
8
Black
10
184.637
20
-108.114
11
184.637
21
-108.399
0
LINE
8
Black
10
184.637
20
-108.399
11
184.494
21
-108.828
0
LINE
8
Black
10
184.494
20
-108.828
11
182.78
21
-110.542
0
LINE
8
Black
10
182.78
20
-110.542
11
184.637
21
-110.542
0
LINE
8
Black
10
188.066
20
-110.399
11
188.351
21
-110.542
0
LINE
8
Black
10
188.351
20
-110.542
11
188.923
21
-110.542
0
LINE
8
Black
10
188.923
20
-110.542
11
189.209
21
-110.399
0
LINE
8
Black
10
189.209
20
-110.399
11
189.351
21
-110.114
0
LINE
8
Black
10
189.351
20
-110.114
11
189.351
21
-109.971
0
LINE
8
Black
10
189.351
20
-109.971
11
189.209
21
-109.685
0
LINE
8
Black
10
189.209
20
-109.685
11
188.923
21
-109.542
0
LINE
8
Black
10
188.923
20
-109.542
11
188.494
21
-109.542
0
LINE
8
Black
10
188.494
20
-109.542
11
188.209
21
-109.399
0
LINE
8
Black
10
188.209
20
-109.399
11
188.066
21
-109.114
0
LINE
8
Black
10
188.066
20
-109.114
11
188.066
21
-108.971
0
LINE
8
Black
10
188.066
20
-108.971
11
188.209
21
-108.685
0
LINE
8
Black
10
188.209
20
-108.685
11
188.494
21
-108.542
0
LINE
8
Black
10
188.494
20
-108.542
11
188.923
21
-108.542
0
LINE
8
Black
10
188.923
20
-108.542
11
189.209
21
-108.685
0
LINE
8
Black
10
191.066
20
-110.542
11
190.78
21
-110.399
0
LINE
8
Black
10
190.78
20
-110.399
11
190.637
21
-110.114
0
LINE
8
Black
10
190.637
20
-110.114
11
190.637
21
-107.542
0
LINE
8
Black
10
192.637
20
-110.542
11
192.351
21
-110.399
0
LINE
8
Black
10
192.351
20
-110.399
11
192.209
21
-110.256
0
LINE
8
Black
10
192.209
20
-110.256
11
192.066
21
-109.971
0
LINE
8
Black
10
192.066
20
-109.971
11
192.066
21
-109.114
0
LINE
8
Black
10
192.066
20
-109.114
11
192.209
21
-108.828
0
LINE
8
Black
10
192.209
20
-108.828
11
192.351
21
-108.685
0
LINE
8
Black
10
192.351
20
-108.685
11
192.637
21
-108.542
0
LINE
8
Black
10
192.637
20
-108.542
11
193.066
21
-108.542
0
LINE
8
Black
10
193.066
20
-108.542
11
193.351
21
-108.685
0
LINE
8
Black
10
193.351
20
-108.685
11
193.494
21
-108.828
0
LINE
8
Black
10
193.494
20
-108.828
11
193.637
21
-109.114
0
LINE
8
Black
10
193.637
20
-109.114
11
193.637
21
-109.971
0
LINE
8
Black
10
193.637
20
-109.971
11
193.494
21
-110.256
0
LINE
8
Black
10
193.494
20
-110.256
11
193.351
21
-110.399
0
LINE
8
Black
10
193.351
20
-110.399
11
193.066
21
-110.542
0
LINE
8
Black
10
193.066
20
-110.542
11
192.637
21
-110.542
0
LINE
8
Black
10
194.494
20
-108.542
11
195.637
21
-108.542
0
LINE
8
Black
10
194.923
20
-107.542
11
194.923
21
-110.114
0
LINE
8
Black
10
194.923
20
-110.114
11
195.066
21
-110.399
0
LINE
8
Black
10
195.066
20
-110.399
11
195.351
21
-110.542
0
LINE
8
Black
10
195.351
20
-110.542
11
195.637
21
-110.542
0
LINE
8
Black
10
196.494
20
-110.399
11
196.78
21
-110.542
0
LINE
8
Black
10
196.78
20
-110.542
11
197.351
21
-110.542
0
LINE
8
Black
10
197.351
20
-110.542
11
197.637
21
-110.399
0
LINE
8
Black
10
197.637
20
-110.399
11
197.78
21
-110.114
0
LINE
8
Black
10
197.78
20
-110.114
11
197.78
21
-109.971
0
LINE
8
Black
10
197.78
20
-109.971
11
197.637
21
-109.685
0
LINE
8
Black
10
197.637
20
-109.685
11
197.351
21
-109.542
0
LINE
8
Black
10
197.351
20
-109.542
11
196.923
21
-109.542
0
LINE
8
Black
10
196.923
20
-109.542
11
196.637
21
-109.399
0
LINE
8
Black
10
196.637
20
-109.399
11
196.494
21
-109.114
0
LINE
8
Black
10
196.494
20
-109.114
11
196.494
21
-108.971
0
LINE
8
Black
10
196.494
20
-108.971
11
196.637
21
-108.685
0
LINE
8
Black
10
196.637
20
-108.685
11
196.923
21
-108.542
0
LINE
8
Black
10
196.923
20
-108.542
11
197.351
21
-108.542
0
LINE
8
Black
10
197.351
20
-108.542
11
197.637
21
-108.685
0
LINE
8
Black
10
198.78
20
-111.685
11
198.923
21
-111.542
0
LINE
8
Black
10
198.923
20
-111.542
11
199.209
21
-111.114
0
LINE
8
Black
10
199.209
20
-111.114
11
199.351
21
-110.828
0
LINE
8
Black
10
199.351
20
-110.828
11
199.494
21
-110.399
0
LINE
8
Black
10
199.494
20
-110.399
11
199.637
21
-109.685
0
LINE
8
Black
10
199.637
20
-109.685
11
199.637
21
-109.114
0
LINE
8
Black
10
199.637
20
-109.114
11
199.494
21
-108.399
0
LINE
8
Black
10
199.494
20
-108.399
11
199.351
21
-107.971
0
LINE
8
Black
10
199.351
20
-107.971
11
199.209
21
-107.685
0
LINE
8
Black
10
199.209
20
-107.685
11
198.923
21
-107.256
0
LINE
8
Black
10
198.923
20
-107.256
11
198.78
21
-107.114
0
LINE
8
Black
10
204.209
20
-111.685
11
204.066
21
-111.542
0
LINE
8
Black
10
204.066
20
-111.542
11
203.78
21
-111.114
0
LINE
8
Black
10
203.78
20
-111.114
11
203.637
21
-110.828
0
LINE
8
Black
10
203.637
20
-110.828
11
203.494
21
-110.399
0
LINE
8
Black
10
203.494
20
-110.399
11
203.351
21
-109.685
0
LINE
8
Black
10
203.351
20
-109.685
11
203.351
21
-109.114
0
LINE
8
Black
10
203.351
20
-109.114
11
203.494
21
-108.399
0
LINE
8
Black
10
203.494
20
-108.399
11
203.637
21
-107.971
0
LINE
8
Black
10
203.637
20
-107.971
11
203.78
21
-107.685
0
LINE
8
Black
10
203.78
20
-107.685
11
204.066
21
-107.256
0
LINE
8
Black
10
204.066
20
-107.256
11
204.209
21
-107.114
0
LINE
8
Black
10
205.351
20
-108.542
11
205.351
21
-110.542
0
LINE
8
Black
10
205.351
20
-108.828
11
205.494
21
-108.685
0
LINE
8
Black
10
205.494
20
-108.685
11
205.78
21
-108.542
0
LINE
8
Black
10
205.78
20
-108.542
11
206.209
21
-108.542
0
LINE
8
Black
10
206.209
20
-108.542
11
206.494
21
-108.685
0
LINE
8
Black
10
206.494
20
-108.685
11
206.637
21
-108.971
0
LINE
8
Black
10
206.637
20
-108.971
11
206.637
21
-110.542
0
LINE
8
Black
10
208.494
20
-110.542
11
208.209
21
-110.399
0
LINE
8
Black
10
208.209
20
-110.399
11
208.066
21
-110.256
0
LINE
8
Black
10
208.066
20
-110.256
11
207.923
21
-109.971
0
LINE
8
Black
10
207.923
20
-109.971
11
207.923
21
-109.114
0
LINE
8
Black
10
207.923
20
-109.114
11
208.066
21
-108.828
0
LINE
8
Black
10
208.066
20
-108.828
11
208.209
21
-108.685
0
LINE
8
Black
10
208.209
20
-108.685
11
208.494
21
-108.542
0
LINE
8
Black
10
208.494
20
-108.542
11
208.923
21
-108.542
0
LINE
8
Black
10
208.923
20
-108.542
11
209.209
21
-108.685
0
LINE
8
Black
10
209.209
20
-108.685
11
209.351
21
-108.828
0
LINE
8
Black
10
209.351
20
-108.828
11
209.494
21
-109.114
0
LINE
8
Black
10
209.494
20
-109.114
11
209.494
21
-109.971
0
LINE
8
Black
10
209.494
20
-109.971
11
209.351
21
-110.256
0
LINE
8
Black
10
209.351
20
-110.256
11
209.209
21
-110.399
0
LINE
8
Black
10
209.209
20
-110.399
11
208.923
21
-110.542
0
LINE
8
Black
10
208.923
20
-110.542
11
208.494
21
-110.542
0
LINE
8
Black
10
210.351
20
-108.542
11
211.494
21
-108.542
0
LINE
8
Black
10
210.78
20
-107.542
11
210.78
21
-110.114
0
LINE
8
Black
10
210.78
20
-110.114
11
210.923
21
-110.399
0
LINE
8
Black
10
210.923
20
-110.399
11
211.209
21
-110.542
0
LINE
8
Black
10
211.209
20
-110.542
11
211.494
21
-110.542
0
LINE
8
Black
10
214.78
20
-108.542
11
214.78
21
-111.542
0
LINE
8
Black
10
214.78
20
-108.685
11
215.066
21
-108.542
0
LINE
8
Black
10
215.066
20
-108.542
11
215.637
21
-108.542
0
LINE
8
Black
10
215.637
20
-108.542
11
215.923
21
-108.685
0
LINE
8
Black
10
215.923
20
-108.685
11
216.066
21
-108.828
0
LINE
8
Black
10
216.066
20
-108.828
11
216.209
21
-109.114
0
LINE
8
Black
10
216.209
20
-109.114
11
216.209
21
-109.971
0
LINE
8
Black
10
216.209
20
-109.971
11
216.066
21
-110.256
0
LINE
8
Black
10
216.066
20
-110.256
11
215.923
21
-110.399
0
LINE
8
Black
10
215.923
20
-110.399
11
215.637
21
-110.542
0
LINE
8
Black
10
215.637
20
-110.542
11
215.066
21
-110.542
0
LINE
8
Black
10
215.066
20
-110.542
11
214.78
21
-110.399
0
LINE
8
Black
10
217.923
20
-110.542
11
217.637
21
-110.399
0
LINE
8
Black
10
217.637
20
-110.399
11
217.494
21
-110.114
0
LINE
8
Black
10
217.494
20
-110.114
11
217.494
21
-107.542
0
LINE
8
Black
10
220.351
20
-110.542
11
220.351
21
-108.971
0
LINE
8
Black
10
220.351
20
-108.971
11
220.209
21
-108.685
0
LINE
8
Black
10
220.209
20
-108.685
11
219.923
21
-108.542
0
LINE
8
Black
10
219.923
20
-108.542
11
219.351
21
-108.542
0
LINE
8
Black
10
219.351
20
-108.542
11
219.066
21
-108.685
0
LINE
8
Black
10
220.351
20
-110.399
11
220.066
21
-110.542
0
LINE
8
Black
10
220.066
20
-110.542
11
219.351
21
-110.542
0
LINE
8
Black
10
219.351
20
-110.542
11
219.066
21
-110.399
0
LINE
8
Black
10
219.066
20
-110.399
11
218.923
21
-110.114
0
LINE
8
Black
10
218.923
20
-110.114
11
218.923
21
-109.828
0
LINE
8
Black
10
218.923
20
-109.828
11
219.066
21
-109.542
0
LINE
8
Black
10
219.066
20
-109.542
11
219.351
21
-109.399
0
LINE
8
Black
10
219.351
20
-109.399
11
220.066
21
-109.399
0
LINE
8
Black
10
220.066
20
-109.399
11
220.351
21
-109.256
0
LINE
8
Black
10
221.351
20
-108.542
11
222.494
21
-108.542
0
LINE
8
Black
10
221.78
20
-107.542
11
221.78
21
-110.114
0
LINE
8
Black
10
221.78
20
-110.114
11
221.923
21
-110.399
0
LINE
8
Black
10
221.923
20
-110.399
11
222.209
21
-110.542
0
LINE
8
Black
10
222.209
20
-110.542
11
222.494
21
-110.542
0
LINE
8
Black
10
224.637
20
-110.399
11
224.351
21
-110.542
0
LINE
8
Black
10
224.351
20
-110.542
11
223.78
21
-110.542
0
LINE
8
Black
10
223.78
20
-110.542
11
223.494
21
-110.399
0
LINE
8
Black
10
223.494
20
-110.399
11
223.351
21
-110.114
0
LINE
8
Black
10
223.351
20
-110.114
11
223.351
21
-108.971
0
LINE
8
Black
10
223.351
20
-108.971
11
223.494
21
-108.685
0
LINE
8
Black
10
223.494
20
-108.685
11
223.78
21
-108.542
0
LINE
8
Black
10
223.78
20
-108.542
11
224.351
21
-108.542
0
LINE
8
Black
10
224.351
20
-108.542
11
224.637
21
-108.685
0
LINE
8
Black
10
224.637
20
-108.685
11
224.78
21
-108.971
0
LINE
8
Black
10
224.78
20
-108.971
11
224.78
21
-109.256
0
LINE
8
Black
10
224.78
20
-109.256
11
223.351
21
-109.542
0
LINE
8
Black
10
227.351
20
-110.542
11
227.351
21
-107.542
0
LINE
8
Black
10
227.351
20
-110.399
11
227.066
21
-110.542
0
LINE
8
Black
10
227.066
20
-110.542
11
226.494
21
-110.542
0
LINE
8
Black
10
226.494
20
-110.542
11
226.209
21
-110.399
0
LINE
8
Black
10
226.209
20
-110.399
11
226.066
21
-110.256
0
LINE
8
Black
10
226.066
20
-110.256
11
225.923
21
-109.971
0
LINE
8
Black
10
225.923
20
-109.971
11
225.923
21
-109.114
0
LINE
8
Black
10
225.923
20
-109.114
11
226.066
21
-108.828
0
LINE
8
Black
10
226.066
20
-108.828
11
226.209
21
-108.685
0
LINE
8
Black
10
226.209
20
-108.685
11
226.494
21
-108.542
0
LINE
8
Black
10
226.494
20
-108.542
11
227.066
21
-108.542
0
LINE
8
Black
10
227.066
20
-108.542
11
227.351
21
-108.685
0
LINE
8
Black
10
228.494
20
-111.685
11
228.637
21
-111.542
0
LINE
8
Black
10
228.637
20
-111.542
11
228.923
21
-111.114
0
LINE
8
Black
10
228.923
20
-111.114
11
229.066
21
-110.828
0
LINE
8
Black
10
229.066
20
-110.828
11
229.209
21
-110.399
0
LINE
8
Black
10
229.209
20
-110.399
11
229.351
21
-109.685
0
LINE
8
Black
10
229.351
20
-109.685
11
229.351
21
-109.114
0
LINE
8
Black
10
229.351
20
-109.114
11
229.209
21
-108.399
0
LINE
8
Black
10
229.209
20
-108.399
11
229.066
21
-107.971
0
LINE
8
Black
10
229.066
20
-107.971
11
228.923
21
-107.685
0
LINE
8
Black
10
228.923
20
-107.685
11
228.637
21
-107.256
0
LINE
8
Black
10
228.637
20
-107.256
11
228.494
21
-107.114
  0
ENDSEC
  0
EOF
