G04 #@! TF.FileFunction,Soldermask,Top*
%FSLAX46Y46*%
G04 Gerber Fmt 4.6, Leading zero omitted, Abs format (unit mm)*
G04 Created by KiCad (PCBNEW 4.0.7) date Thursday, December 07, 2017 'PMt' 10:45:11 PM*
%MOMM*%
%LPD*%
G01*
G04 APERTURE LIST*
%ADD10C,0.100000*%
%ADD11R,1.650000X1.900000*%
%ADD12R,1.900000X1.700000*%
%ADD13R,1.700000X1.900000*%
%ADD14R,1.000000X1.950000*%
%ADD15C,1.924000*%
%ADD16C,2.050000*%
%ADD17R,2.400000X2.500000*%
%ADD18R,2.100000X2.100000*%
%ADD19O,2.100000X2.100000*%
G04 APERTURE END LIST*
D10*
D11*
X118110000Y-71775000D03*
X118110000Y-74275000D03*
X118110000Y-78125000D03*
X118110000Y-80625000D03*
D12*
X134540000Y-63500000D03*
X137240000Y-63500000D03*
D13*
X121920000Y-74375000D03*
X121920000Y-71675000D03*
X121920000Y-80725000D03*
X121920000Y-78025000D03*
D12*
X137240000Y-84455000D03*
X134540000Y-84455000D03*
X126920000Y-84455000D03*
X129620000Y-84455000D03*
D14*
X127000000Y-63660000D03*
X128270000Y-63660000D03*
X129540000Y-63660000D03*
X130810000Y-63660000D03*
X130810000Y-58260000D03*
X129540000Y-58260000D03*
X128270000Y-58260000D03*
X127000000Y-58260000D03*
D11*
X121920000Y-60305000D03*
X121920000Y-57805000D03*
X118110000Y-65425000D03*
X118110000Y-67925000D03*
D13*
X118110000Y-60405000D03*
X118110000Y-57705000D03*
D12*
X134540000Y-59055000D03*
X137240000Y-59055000D03*
D13*
X121920000Y-68025000D03*
X121920000Y-65325000D03*
D15*
X132080000Y-67295000D03*
X130080000Y-67295000D03*
X128080000Y-67295000D03*
X134080000Y-67295000D03*
X136080000Y-67295000D03*
D16*
X132080000Y-81795000D03*
X129580000Y-81795000D03*
X134580000Y-81795000D03*
D17*
X126480000Y-74295000D03*
X137680000Y-74295000D03*
D18*
X137160000Y-55245000D03*
D19*
X134620000Y-55245000D03*
X132080000Y-55245000D03*
X129540000Y-55245000D03*
X127000000Y-55245000D03*
D18*
X113665000Y-75565000D03*
D19*
X113665000Y-73025000D03*
X113665000Y-70485000D03*
X113665000Y-67945000D03*
D18*
X113665000Y-62865000D03*
D19*
X113665000Y-60325000D03*
X113665000Y-57785000D03*
X113665000Y-55245000D03*
M02*
