G04 #@! TF.FileFunction,Legend,Top*
%FSLAX46Y46*%
G04 Gerber Fmt 4.6, Leading zero omitted, Abs format (unit mm)*
G04 Created by KiCad (PCBNEW 4.0.7) date Thursday, December 07, 2017 'PMt' 10:45:11 PM*
%MOMM*%
%LPD*%
G01*
G04 APERTURE LIST*
%ADD10C,0.100000*%
%ADD11C,0.190500*%
%ADD12C,0.127000*%
%ADD13C,0.150000*%
%ADD14C,0.120000*%
G04 APERTURE END LIST*
D10*
D11*
X139885964Y-82531857D02*
X140430250Y-82531857D01*
X140539107Y-82568143D01*
X140611679Y-82640714D01*
X140647964Y-82749571D01*
X140647964Y-82822143D01*
X139885964Y-82241572D02*
X139885964Y-81769858D01*
X140176250Y-82023858D01*
X140176250Y-81915000D01*
X140212536Y-81842429D01*
X140248821Y-81806143D01*
X140321393Y-81769858D01*
X140502821Y-81769858D01*
X140575393Y-81806143D01*
X140611679Y-81842429D01*
X140647964Y-81915000D01*
X140647964Y-82132715D01*
X140611679Y-82205286D01*
X140575393Y-82241572D01*
X140575393Y-81443286D02*
X140611679Y-81407001D01*
X140647964Y-81443286D01*
X140611679Y-81479572D01*
X140575393Y-81443286D01*
X140647964Y-81443286D01*
X140176250Y-81443286D02*
X140212536Y-81407001D01*
X140248821Y-81443286D01*
X140212536Y-81479572D01*
X140176250Y-81443286D01*
X140248821Y-81443286D01*
X140647964Y-80499858D02*
X139885964Y-80499858D01*
X139885964Y-80318430D01*
X139922250Y-80209573D01*
X139994821Y-80137001D01*
X140067393Y-80100716D01*
X140212536Y-80064430D01*
X140321393Y-80064430D01*
X140466536Y-80100716D01*
X140539107Y-80137001D01*
X140611679Y-80209573D01*
X140647964Y-80318430D01*
X140647964Y-80499858D01*
X140647964Y-79737858D02*
X140139964Y-79737858D01*
X139885964Y-79737858D02*
X139922250Y-79774144D01*
X139958536Y-79737858D01*
X139922250Y-79701573D01*
X139885964Y-79737858D01*
X139958536Y-79737858D01*
X140139964Y-79375001D02*
X140647964Y-79375001D01*
X140212536Y-79375001D02*
X140176250Y-79338716D01*
X140139964Y-79266144D01*
X140139964Y-79157287D01*
X140176250Y-79084716D01*
X140248821Y-79048430D01*
X140647964Y-79048430D01*
X140248821Y-78685572D02*
X140248821Y-78105001D01*
X140466536Y-78105001D02*
X140466536Y-78685572D01*
X139958536Y-77778429D02*
X139922250Y-77742143D01*
X139885964Y-77669572D01*
X139885964Y-77488143D01*
X139922250Y-77415572D01*
X139958536Y-77379286D01*
X140031107Y-77343001D01*
X140103679Y-77343001D01*
X140212536Y-77379286D01*
X140647964Y-77814715D01*
X140647964Y-77343001D01*
X140647964Y-76435858D02*
X139885964Y-76435858D01*
X139885964Y-76254430D01*
X139922250Y-76145573D01*
X139994821Y-76073001D01*
X140067393Y-76036716D01*
X140212536Y-76000430D01*
X140321393Y-76000430D01*
X140466536Y-76036716D01*
X140539107Y-76073001D01*
X140611679Y-76145573D01*
X140647964Y-76254430D01*
X140647964Y-76435858D01*
X140647964Y-75565001D02*
X140611679Y-75637573D01*
X140575393Y-75673858D01*
X140502821Y-75710144D01*
X140285107Y-75710144D01*
X140212536Y-75673858D01*
X140176250Y-75637573D01*
X140139964Y-75565001D01*
X140139964Y-75456144D01*
X140176250Y-75383573D01*
X140212536Y-75347287D01*
X140285107Y-75311001D01*
X140502821Y-75311001D01*
X140575393Y-75347287D01*
X140611679Y-75383573D01*
X140647964Y-75456144D01*
X140647964Y-75565001D01*
X140139964Y-74657858D02*
X140647964Y-74657858D01*
X140139964Y-74984429D02*
X140539107Y-74984429D01*
X140611679Y-74948144D01*
X140647964Y-74875572D01*
X140647964Y-74766715D01*
X140611679Y-74694144D01*
X140575393Y-74657858D01*
X140139964Y-74403858D02*
X140139964Y-74113572D01*
X139885964Y-74295000D02*
X140539107Y-74295000D01*
X140611679Y-74258715D01*
X140647964Y-74186143D01*
X140647964Y-74113572D01*
X140248821Y-73859571D02*
X140248821Y-73279000D01*
X140466536Y-73279000D02*
X140466536Y-73859571D01*
X139885964Y-72988714D02*
X139885964Y-72517000D01*
X140176250Y-72771000D01*
X140176250Y-72662142D01*
X140212536Y-72589571D01*
X140248821Y-72553285D01*
X140321393Y-72517000D01*
X140502821Y-72517000D01*
X140575393Y-72553285D01*
X140611679Y-72589571D01*
X140647964Y-72662142D01*
X140647964Y-72879857D01*
X140611679Y-72952428D01*
X140575393Y-72988714D01*
X140611679Y-71646143D02*
X140647964Y-71537286D01*
X140647964Y-71355857D01*
X140611679Y-71283286D01*
X140575393Y-71247000D01*
X140502821Y-71210715D01*
X140430250Y-71210715D01*
X140357679Y-71247000D01*
X140321393Y-71283286D01*
X140285107Y-71355857D01*
X140248821Y-71501000D01*
X140212536Y-71573572D01*
X140176250Y-71609857D01*
X140103679Y-71646143D01*
X140031107Y-71646143D01*
X139958536Y-71609857D01*
X139922250Y-71573572D01*
X139885964Y-71501000D01*
X139885964Y-71319572D01*
X139922250Y-71210715D01*
X140647964Y-70884143D02*
X139885964Y-70884143D01*
X140647964Y-70557572D02*
X140248821Y-70557572D01*
X140176250Y-70593858D01*
X140139964Y-70666429D01*
X140139964Y-70775286D01*
X140176250Y-70847858D01*
X140212536Y-70884143D01*
X140647964Y-70085857D02*
X140611679Y-70158429D01*
X140575393Y-70194714D01*
X140502821Y-70231000D01*
X140285107Y-70231000D01*
X140212536Y-70194714D01*
X140176250Y-70158429D01*
X140139964Y-70085857D01*
X140139964Y-69977000D01*
X140176250Y-69904429D01*
X140212536Y-69868143D01*
X140285107Y-69831857D01*
X140502821Y-69831857D01*
X140575393Y-69868143D01*
X140611679Y-69904429D01*
X140647964Y-69977000D01*
X140647964Y-70085857D01*
X140647964Y-69505285D02*
X140139964Y-69505285D01*
X140285107Y-69505285D02*
X140212536Y-69469000D01*
X140176250Y-69432714D01*
X140139964Y-69360143D01*
X140139964Y-69287571D01*
X140139964Y-69142429D02*
X140139964Y-68852143D01*
X139885964Y-69033571D02*
X140539107Y-69033571D01*
X140611679Y-68997286D01*
X140647964Y-68924714D01*
X140647964Y-68852143D01*
X140647964Y-67618429D02*
X140647964Y-68053857D01*
X140647964Y-67836143D02*
X139885964Y-67836143D01*
X139994821Y-67908714D01*
X140067393Y-67981286D01*
X140103679Y-68053857D01*
X140357679Y-67291857D02*
X140357679Y-66711286D01*
X139958536Y-66384714D02*
X139922250Y-66348428D01*
X139885964Y-66275857D01*
X139885964Y-66094428D01*
X139922250Y-66021857D01*
X139958536Y-65985571D01*
X140031107Y-65949286D01*
X140103679Y-65949286D01*
X140212536Y-65985571D01*
X140647964Y-66421000D01*
X140647964Y-65949286D01*
X140139964Y-65151001D02*
X140139964Y-64860715D01*
X140647964Y-65042143D02*
X139994821Y-65042143D01*
X139922250Y-65005858D01*
X139885964Y-64933286D01*
X139885964Y-64860715D01*
X140647964Y-64497857D02*
X140611679Y-64570429D01*
X140575393Y-64606714D01*
X140502821Y-64643000D01*
X140285107Y-64643000D01*
X140212536Y-64606714D01*
X140176250Y-64570429D01*
X140139964Y-64497857D01*
X140139964Y-64389000D01*
X140176250Y-64316429D01*
X140212536Y-64280143D01*
X140285107Y-64243857D01*
X140502821Y-64243857D01*
X140575393Y-64280143D01*
X140611679Y-64316429D01*
X140647964Y-64389000D01*
X140647964Y-64497857D01*
X140647964Y-63917285D02*
X140139964Y-63917285D01*
X140285107Y-63917285D02*
X140212536Y-63881000D01*
X140176250Y-63844714D01*
X140139964Y-63772143D01*
X140139964Y-63699571D01*
X140647964Y-62865000D02*
X139885964Y-62865000D01*
X139885964Y-62683572D01*
X139922250Y-62574715D01*
X139994821Y-62502143D01*
X140067393Y-62465858D01*
X140212536Y-62429572D01*
X140321393Y-62429572D01*
X140466536Y-62465858D01*
X140539107Y-62502143D01*
X140611679Y-62574715D01*
X140647964Y-62683572D01*
X140647964Y-62865000D01*
X140647964Y-62103000D02*
X140139964Y-62103000D01*
X139885964Y-62103000D02*
X139922250Y-62139286D01*
X139958536Y-62103000D01*
X139922250Y-62066715D01*
X139885964Y-62103000D01*
X139958536Y-62103000D01*
X140139964Y-61740143D02*
X140647964Y-61740143D01*
X140212536Y-61740143D02*
X140176250Y-61703858D01*
X140139964Y-61631286D01*
X140139964Y-61522429D01*
X140176250Y-61449858D01*
X140248821Y-61413572D01*
X140647964Y-61413572D01*
X140248821Y-61050714D02*
X140248821Y-60470143D01*
X140466536Y-60470143D02*
X140466536Y-61050714D01*
X140647964Y-60107285D02*
X139885964Y-60107285D01*
X139885964Y-59817000D01*
X139922250Y-59744428D01*
X139958536Y-59708143D01*
X140031107Y-59671857D01*
X140139964Y-59671857D01*
X140212536Y-59708143D01*
X140248821Y-59744428D01*
X140285107Y-59817000D01*
X140285107Y-60107285D01*
X140575393Y-58909857D02*
X140611679Y-58946143D01*
X140647964Y-59055000D01*
X140647964Y-59127571D01*
X140611679Y-59236428D01*
X140539107Y-59309000D01*
X140466536Y-59345285D01*
X140321393Y-59381571D01*
X140212536Y-59381571D01*
X140067393Y-59345285D01*
X139994821Y-59309000D01*
X139922250Y-59236428D01*
X139885964Y-59127571D01*
X139885964Y-59055000D01*
X139922250Y-58946143D01*
X139958536Y-58909857D01*
X139885964Y-58655857D02*
X139885964Y-58184143D01*
X140176250Y-58438143D01*
X140176250Y-58329285D01*
X140212536Y-58256714D01*
X140248821Y-58220428D01*
X140321393Y-58184143D01*
X140502821Y-58184143D01*
X140575393Y-58220428D01*
X140611679Y-58256714D01*
X140647964Y-58329285D01*
X140647964Y-58547000D01*
X140611679Y-58619571D01*
X140575393Y-58655857D01*
X141945179Y-82840285D02*
X141981464Y-82731428D01*
X141981464Y-82549999D01*
X141945179Y-82477428D01*
X141908893Y-82441142D01*
X141836321Y-82404857D01*
X141763750Y-82404857D01*
X141691179Y-82441142D01*
X141654893Y-82477428D01*
X141618607Y-82549999D01*
X141582321Y-82695142D01*
X141546036Y-82767714D01*
X141509750Y-82803999D01*
X141437179Y-82840285D01*
X141364607Y-82840285D01*
X141292036Y-82803999D01*
X141255750Y-82767714D01*
X141219464Y-82695142D01*
X141219464Y-82513714D01*
X141255750Y-82404857D01*
X141981464Y-82078285D02*
X141219464Y-82078285D01*
X141981464Y-81751714D02*
X141582321Y-81751714D01*
X141509750Y-81788000D01*
X141473464Y-81860571D01*
X141473464Y-81969428D01*
X141509750Y-82042000D01*
X141546036Y-82078285D01*
X141981464Y-81279999D02*
X141945179Y-81352571D01*
X141908893Y-81388856D01*
X141836321Y-81425142D01*
X141618607Y-81425142D01*
X141546036Y-81388856D01*
X141509750Y-81352571D01*
X141473464Y-81279999D01*
X141473464Y-81171142D01*
X141509750Y-81098571D01*
X141546036Y-81062285D01*
X141618607Y-81025999D01*
X141836321Y-81025999D01*
X141908893Y-81062285D01*
X141945179Y-81098571D01*
X141981464Y-81171142D01*
X141981464Y-81279999D01*
X141981464Y-80699427D02*
X141473464Y-80699427D01*
X141618607Y-80699427D02*
X141546036Y-80663142D01*
X141509750Y-80626856D01*
X141473464Y-80554285D01*
X141473464Y-80481713D01*
X141473464Y-80336571D02*
X141473464Y-80046285D01*
X141219464Y-80227713D02*
X141872607Y-80227713D01*
X141945179Y-80191428D01*
X141981464Y-80118856D01*
X141981464Y-80046285D01*
X141473464Y-78885142D02*
X141981464Y-78885142D01*
X141183179Y-79066571D02*
X141727464Y-79247999D01*
X141727464Y-78776285D01*
X141691179Y-78485999D02*
X141691179Y-77905428D01*
X141219464Y-77179713D02*
X141219464Y-77542570D01*
X141582321Y-77578856D01*
X141546036Y-77542570D01*
X141509750Y-77469999D01*
X141509750Y-77288570D01*
X141546036Y-77215999D01*
X141582321Y-77179713D01*
X141654893Y-77143428D01*
X141836321Y-77143428D01*
X141908893Y-77179713D01*
X141945179Y-77215999D01*
X141981464Y-77288570D01*
X141981464Y-77469999D01*
X141945179Y-77542570D01*
X141908893Y-77578856D01*
X141473464Y-76345143D02*
X141473464Y-76054857D01*
X141981464Y-76236285D02*
X141328321Y-76236285D01*
X141255750Y-76200000D01*
X141219464Y-76127428D01*
X141219464Y-76054857D01*
X141981464Y-75691999D02*
X141945179Y-75764571D01*
X141908893Y-75800856D01*
X141836321Y-75837142D01*
X141618607Y-75837142D01*
X141546036Y-75800856D01*
X141509750Y-75764571D01*
X141473464Y-75691999D01*
X141473464Y-75583142D01*
X141509750Y-75510571D01*
X141546036Y-75474285D01*
X141618607Y-75437999D01*
X141836321Y-75437999D01*
X141908893Y-75474285D01*
X141945179Y-75510571D01*
X141981464Y-75583142D01*
X141981464Y-75691999D01*
X141981464Y-75111427D02*
X141473464Y-75111427D01*
X141618607Y-75111427D02*
X141546036Y-75075142D01*
X141509750Y-75038856D01*
X141473464Y-74966285D01*
X141473464Y-74893713D01*
X141473464Y-73732571D02*
X141981464Y-73732571D01*
X141183179Y-73914000D02*
X141727464Y-74095428D01*
X141727464Y-73623714D01*
X141219464Y-73188286D02*
X141219464Y-73115714D01*
X141255750Y-73043143D01*
X141292036Y-73006857D01*
X141364607Y-72970571D01*
X141509750Y-72934286D01*
X141691179Y-72934286D01*
X141836321Y-72970571D01*
X141908893Y-73006857D01*
X141945179Y-73043143D01*
X141981464Y-73115714D01*
X141981464Y-73188286D01*
X141945179Y-73260857D01*
X141908893Y-73297143D01*
X141836321Y-73333428D01*
X141691179Y-73369714D01*
X141509750Y-73369714D01*
X141364607Y-73333428D01*
X141292036Y-73297143D01*
X141255750Y-73260857D01*
X141219464Y-73188286D01*
X141219464Y-72462572D02*
X141219464Y-72390000D01*
X141255750Y-72317429D01*
X141292036Y-72281143D01*
X141364607Y-72244857D01*
X141509750Y-72208572D01*
X141691179Y-72208572D01*
X141836321Y-72244857D01*
X141908893Y-72281143D01*
X141945179Y-72317429D01*
X141981464Y-72390000D01*
X141981464Y-72462572D01*
X141945179Y-72535143D01*
X141908893Y-72571429D01*
X141836321Y-72607714D01*
X141691179Y-72644000D01*
X141509750Y-72644000D01*
X141364607Y-72607714D01*
X141292036Y-72571429D01*
X141255750Y-72535143D01*
X141219464Y-72462572D01*
X141981464Y-71882000D02*
X141219464Y-71882000D01*
X141981464Y-71446572D02*
X141546036Y-71773143D01*
X141219464Y-71446572D02*
X141654893Y-71882000D01*
X141981464Y-71120000D02*
X141219464Y-71120000D01*
X141582321Y-71120000D02*
X141582321Y-70684572D01*
X141981464Y-70684572D02*
X141219464Y-70684572D01*
X141473464Y-70394286D02*
X141473464Y-69995143D01*
X141981464Y-70394286D01*
X141981464Y-69995143D01*
X141183179Y-68580001D02*
X142162893Y-69233144D01*
X141219464Y-67600287D02*
X141219464Y-67455144D01*
X141255750Y-67382572D01*
X141328321Y-67310001D01*
X141473464Y-67273715D01*
X141727464Y-67273715D01*
X141872607Y-67310001D01*
X141945179Y-67382572D01*
X141981464Y-67455144D01*
X141981464Y-67600287D01*
X141945179Y-67672858D01*
X141872607Y-67745429D01*
X141727464Y-67781715D01*
X141473464Y-67781715D01*
X141328321Y-67745429D01*
X141255750Y-67672858D01*
X141219464Y-67600287D01*
X141473464Y-66947143D02*
X142235464Y-66947143D01*
X141509750Y-66947143D02*
X141473464Y-66874572D01*
X141473464Y-66729429D01*
X141509750Y-66656858D01*
X141546036Y-66620572D01*
X141618607Y-66584286D01*
X141836321Y-66584286D01*
X141908893Y-66620572D01*
X141945179Y-66656858D01*
X141981464Y-66729429D01*
X141981464Y-66874572D01*
X141945179Y-66947143D01*
X141945179Y-65967429D02*
X141981464Y-66040000D01*
X141981464Y-66185143D01*
X141945179Y-66257714D01*
X141872607Y-66294000D01*
X141582321Y-66294000D01*
X141509750Y-66257714D01*
X141473464Y-66185143D01*
X141473464Y-66040000D01*
X141509750Y-65967429D01*
X141582321Y-65931143D01*
X141654893Y-65931143D01*
X141727464Y-66294000D01*
X141473464Y-65604571D02*
X141981464Y-65604571D01*
X141546036Y-65604571D02*
X141509750Y-65568286D01*
X141473464Y-65495714D01*
X141473464Y-65386857D01*
X141509750Y-65314286D01*
X141582321Y-65278000D01*
X141981464Y-65278000D01*
X141473464Y-64443429D02*
X141473464Y-64153143D01*
X141981464Y-64334571D02*
X141328321Y-64334571D01*
X141255750Y-64298286D01*
X141219464Y-64225714D01*
X141219464Y-64153143D01*
X141981464Y-63790285D02*
X141945179Y-63862857D01*
X141908893Y-63899142D01*
X141836321Y-63935428D01*
X141618607Y-63935428D01*
X141546036Y-63899142D01*
X141509750Y-63862857D01*
X141473464Y-63790285D01*
X141473464Y-63681428D01*
X141509750Y-63608857D01*
X141546036Y-63572571D01*
X141618607Y-63536285D01*
X141836321Y-63536285D01*
X141908893Y-63572571D01*
X141945179Y-63608857D01*
X141981464Y-63681428D01*
X141981464Y-63790285D01*
X141981464Y-63209713D02*
X141473464Y-63209713D01*
X141618607Y-63209713D02*
X141546036Y-63173428D01*
X141509750Y-63137142D01*
X141473464Y-63064571D01*
X141473464Y-62991999D01*
X141546036Y-62048571D02*
X141509750Y-62121143D01*
X141473464Y-62157428D01*
X141400893Y-62193714D01*
X141364607Y-62193714D01*
X141292036Y-62157428D01*
X141255750Y-62121143D01*
X141219464Y-62048571D01*
X141219464Y-61903428D01*
X141255750Y-61830857D01*
X141292036Y-61794571D01*
X141364607Y-61758286D01*
X141400893Y-61758286D01*
X141473464Y-61794571D01*
X141509750Y-61830857D01*
X141546036Y-61903428D01*
X141546036Y-62048571D01*
X141582321Y-62121143D01*
X141618607Y-62157428D01*
X141691179Y-62193714D01*
X141836321Y-62193714D01*
X141908893Y-62157428D01*
X141945179Y-62121143D01*
X141981464Y-62048571D01*
X141981464Y-61903428D01*
X141945179Y-61830857D01*
X141908893Y-61794571D01*
X141836321Y-61758286D01*
X141691179Y-61758286D01*
X141618607Y-61794571D01*
X141582321Y-61830857D01*
X141546036Y-61903428D01*
X141219464Y-61286572D02*
X141219464Y-61214000D01*
X141255750Y-61141429D01*
X141292036Y-61105143D01*
X141364607Y-61068857D01*
X141509750Y-61032572D01*
X141691179Y-61032572D01*
X141836321Y-61068857D01*
X141908893Y-61105143D01*
X141945179Y-61141429D01*
X141981464Y-61214000D01*
X141981464Y-61286572D01*
X141945179Y-61359143D01*
X141908893Y-61395429D01*
X141836321Y-61431714D01*
X141691179Y-61468000D01*
X141509750Y-61468000D01*
X141364607Y-61431714D01*
X141292036Y-61395429D01*
X141255750Y-61359143D01*
X141219464Y-61286572D01*
X141219464Y-60560858D02*
X141219464Y-60488286D01*
X141255750Y-60415715D01*
X141292036Y-60379429D01*
X141364607Y-60343143D01*
X141509750Y-60306858D01*
X141691179Y-60306858D01*
X141836321Y-60343143D01*
X141908893Y-60379429D01*
X141945179Y-60415715D01*
X141981464Y-60488286D01*
X141981464Y-60560858D01*
X141945179Y-60633429D01*
X141908893Y-60669715D01*
X141836321Y-60706000D01*
X141691179Y-60742286D01*
X141509750Y-60742286D01*
X141364607Y-60706000D01*
X141292036Y-60669715D01*
X141255750Y-60633429D01*
X141219464Y-60560858D01*
X141981464Y-59980286D02*
X141219464Y-59980286D01*
X141981464Y-59544858D02*
X141546036Y-59871429D01*
X141219464Y-59544858D02*
X141654893Y-59980286D01*
X141981464Y-59218286D02*
X141219464Y-59218286D01*
X141582321Y-59218286D02*
X141582321Y-58782858D01*
X141981464Y-58782858D02*
X141219464Y-58782858D01*
X141473464Y-58492572D02*
X141473464Y-58093429D01*
X141981464Y-58492572D01*
X141981464Y-58093429D01*
D12*
X114783809Y-68613262D02*
X114783809Y-67978262D01*
X115025714Y-67978262D01*
X115086190Y-68008500D01*
X115116429Y-68038738D01*
X115146667Y-68099214D01*
X115146667Y-68189929D01*
X115116429Y-68250405D01*
X115086190Y-68280643D01*
X115025714Y-68310881D01*
X114783809Y-68310881D01*
X115781667Y-68552786D02*
X115751429Y-68583024D01*
X115660714Y-68613262D01*
X115600238Y-68613262D01*
X115509524Y-68583024D01*
X115449048Y-68522548D01*
X115418809Y-68462071D01*
X115388571Y-68341119D01*
X115388571Y-68250405D01*
X115418809Y-68129452D01*
X115449048Y-68068976D01*
X115509524Y-68008500D01*
X115600238Y-67978262D01*
X115660714Y-67978262D01*
X115751429Y-68008500D01*
X115781667Y-68038738D01*
X116174762Y-67978262D02*
X116235238Y-67978262D01*
X116295714Y-68008500D01*
X116325952Y-68038738D01*
X116356190Y-68099214D01*
X116386429Y-68220167D01*
X116386429Y-68371357D01*
X116356190Y-68492310D01*
X116325952Y-68552786D01*
X116295714Y-68583024D01*
X116235238Y-68613262D01*
X116174762Y-68613262D01*
X116114286Y-68583024D01*
X116084048Y-68552786D01*
X116053809Y-68492310D01*
X116023571Y-68371357D01*
X116023571Y-68220167D01*
X116053809Y-68099214D01*
X116084048Y-68038738D01*
X116114286Y-68008500D01*
X116174762Y-67978262D01*
X114783809Y-71153262D02*
X114783809Y-70518262D01*
X115025714Y-70518262D01*
X115086190Y-70548500D01*
X115116429Y-70578738D01*
X115146667Y-70639214D01*
X115146667Y-70729929D01*
X115116429Y-70790405D01*
X115086190Y-70820643D01*
X115025714Y-70850881D01*
X114783809Y-70850881D01*
X115781667Y-71092786D02*
X115751429Y-71123024D01*
X115660714Y-71153262D01*
X115600238Y-71153262D01*
X115509524Y-71123024D01*
X115449048Y-71062548D01*
X115418809Y-71002071D01*
X115388571Y-70881119D01*
X115388571Y-70790405D01*
X115418809Y-70669452D01*
X115449048Y-70608976D01*
X115509524Y-70548500D01*
X115600238Y-70518262D01*
X115660714Y-70518262D01*
X115751429Y-70548500D01*
X115781667Y-70578738D01*
X116386429Y-71153262D02*
X116023571Y-71153262D01*
X116205000Y-71153262D02*
X116205000Y-70518262D01*
X116144524Y-70608976D01*
X116084048Y-70669452D01*
X116023571Y-70699690D01*
X114783809Y-73693262D02*
X114783809Y-73058262D01*
X115025714Y-73058262D01*
X115086190Y-73088500D01*
X115116429Y-73118738D01*
X115146667Y-73179214D01*
X115146667Y-73269929D01*
X115116429Y-73330405D01*
X115086190Y-73360643D01*
X115025714Y-73390881D01*
X114783809Y-73390881D01*
X115781667Y-73632786D02*
X115751429Y-73663024D01*
X115660714Y-73693262D01*
X115600238Y-73693262D01*
X115509524Y-73663024D01*
X115449048Y-73602548D01*
X115418809Y-73542071D01*
X115388571Y-73421119D01*
X115388571Y-73330405D01*
X115418809Y-73209452D01*
X115449048Y-73148976D01*
X115509524Y-73088500D01*
X115600238Y-73058262D01*
X115660714Y-73058262D01*
X115751429Y-73088500D01*
X115781667Y-73118738D01*
X116023571Y-73118738D02*
X116053809Y-73088500D01*
X116114286Y-73058262D01*
X116265476Y-73058262D01*
X116325952Y-73088500D01*
X116356190Y-73118738D01*
X116386429Y-73179214D01*
X116386429Y-73239690D01*
X116356190Y-73330405D01*
X115993333Y-73693262D01*
X116386429Y-73693262D01*
X115449047Y-54897262D02*
X115146666Y-54897262D01*
X115116428Y-55199643D01*
X115146666Y-55169405D01*
X115207143Y-55139167D01*
X115358333Y-55139167D01*
X115418809Y-55169405D01*
X115449047Y-55199643D01*
X115479286Y-55260119D01*
X115479286Y-55411310D01*
X115449047Y-55471786D01*
X115418809Y-55502024D01*
X115358333Y-55532262D01*
X115207143Y-55532262D01*
X115146666Y-55502024D01*
X115116428Y-55471786D01*
X115660714Y-54897262D02*
X115872381Y-55532262D01*
X116084048Y-54897262D01*
X115086191Y-57467500D02*
X115025714Y-57437262D01*
X114935000Y-57437262D01*
X114844286Y-57467500D01*
X114783810Y-57527976D01*
X114753571Y-57588452D01*
X114723333Y-57709405D01*
X114723333Y-57800119D01*
X114753571Y-57921071D01*
X114783810Y-57981548D01*
X114844286Y-58042024D01*
X114935000Y-58072262D01*
X114995476Y-58072262D01*
X115086191Y-58042024D01*
X115116429Y-58011786D01*
X115116429Y-57800119D01*
X114995476Y-57800119D01*
X115388571Y-58072262D02*
X115388571Y-57437262D01*
X115751429Y-58072262D01*
X115751429Y-57437262D01*
X116053809Y-58072262D02*
X116053809Y-57437262D01*
X116205000Y-57437262D01*
X116295714Y-57467500D01*
X116356190Y-57527976D01*
X116386429Y-57588452D01*
X116416667Y-57709405D01*
X116416667Y-57800119D01*
X116386429Y-57921071D01*
X116356190Y-57981548D01*
X116295714Y-58042024D01*
X116205000Y-58072262D01*
X116053809Y-58072262D01*
X115086191Y-60007500D02*
X115025714Y-59977262D01*
X114935000Y-59977262D01*
X114844286Y-60007500D01*
X114783810Y-60067976D01*
X114753571Y-60128452D01*
X114723333Y-60249405D01*
X114723333Y-60340119D01*
X114753571Y-60461071D01*
X114783810Y-60521548D01*
X114844286Y-60582024D01*
X114935000Y-60612262D01*
X114995476Y-60612262D01*
X115086191Y-60582024D01*
X115116429Y-60551786D01*
X115116429Y-60340119D01*
X114995476Y-60340119D01*
X115388571Y-60612262D02*
X115388571Y-59977262D01*
X115751429Y-60612262D01*
X115751429Y-59977262D01*
X116053809Y-60612262D02*
X116053809Y-59977262D01*
X116205000Y-59977262D01*
X116295714Y-60007500D01*
X116356190Y-60067976D01*
X116386429Y-60128452D01*
X116416667Y-60249405D01*
X116416667Y-60340119D01*
X116386429Y-60461071D01*
X116356190Y-60521548D01*
X116295714Y-60582024D01*
X116205000Y-60612262D01*
X116053809Y-60612262D01*
X114783809Y-76233262D02*
X114783809Y-75598262D01*
X115025714Y-75598262D01*
X115086190Y-75628500D01*
X115116429Y-75658738D01*
X115146667Y-75719214D01*
X115146667Y-75809929D01*
X115116429Y-75870405D01*
X115086190Y-75900643D01*
X115025714Y-75930881D01*
X114783809Y-75930881D01*
X115781667Y-76172786D02*
X115751429Y-76203024D01*
X115660714Y-76233262D01*
X115600238Y-76233262D01*
X115509524Y-76203024D01*
X115449048Y-76142548D01*
X115418809Y-76082071D01*
X115388571Y-75961119D01*
X115388571Y-75870405D01*
X115418809Y-75749452D01*
X115449048Y-75688976D01*
X115509524Y-75628500D01*
X115600238Y-75598262D01*
X115660714Y-75598262D01*
X115751429Y-75628500D01*
X115781667Y-75658738D01*
X115993333Y-75598262D02*
X116386429Y-75598262D01*
X116174762Y-75840167D01*
X116265476Y-75840167D01*
X116325952Y-75870405D01*
X116356190Y-75900643D01*
X116386429Y-75961119D01*
X116386429Y-76112310D01*
X116356190Y-76172786D01*
X116325952Y-76203024D01*
X116265476Y-76233262D01*
X116084048Y-76233262D01*
X116023571Y-76203024D01*
X115993333Y-76172786D01*
X114919881Y-62517262D02*
X115131548Y-63152262D01*
X115343215Y-62517262D01*
X115554881Y-63152262D02*
X115554881Y-62728929D01*
X115554881Y-62517262D02*
X115524643Y-62547500D01*
X115554881Y-62577738D01*
X115585120Y-62547500D01*
X115554881Y-62517262D01*
X115554881Y-62577738D01*
X115857262Y-62728929D02*
X115857262Y-63152262D01*
X115857262Y-62789405D02*
X115887501Y-62759167D01*
X115947977Y-62728929D01*
X116038691Y-62728929D01*
X116099167Y-62759167D01*
X116129405Y-62819643D01*
X116129405Y-63152262D01*
D13*
X118960000Y-73525000D02*
X118960000Y-72525000D01*
X117260000Y-72525000D02*
X117260000Y-73525000D01*
X118960000Y-79875000D02*
X118960000Y-78875000D01*
X117260000Y-78875000D02*
X117260000Y-79875000D01*
X136490000Y-64375000D02*
X135290000Y-64375000D01*
X135290000Y-62625000D02*
X136490000Y-62625000D01*
X122795000Y-72425000D02*
X122795000Y-73625000D01*
X121045000Y-73625000D02*
X121045000Y-72425000D01*
X122795000Y-78775000D02*
X122795000Y-79975000D01*
X121045000Y-79975000D02*
X121045000Y-78775000D01*
X135290000Y-83580000D02*
X136490000Y-83580000D01*
X136490000Y-85330000D02*
X135290000Y-85330000D01*
X128870000Y-85330000D02*
X127670000Y-85330000D01*
X127670000Y-83580000D02*
X128870000Y-83580000D01*
X126330000Y-63035000D02*
X126380000Y-63035000D01*
X126330000Y-58885000D02*
X126475000Y-58885000D01*
X131480000Y-58885000D02*
X131335000Y-58885000D01*
X131480000Y-63035000D02*
X131335000Y-63035000D01*
X126330000Y-63035000D02*
X126330000Y-58885000D01*
X131480000Y-63035000D02*
X131480000Y-58885000D01*
X126380000Y-63035000D02*
X126380000Y-64435000D01*
X121070000Y-58555000D02*
X121070000Y-59555000D01*
X122770000Y-59555000D02*
X122770000Y-58555000D01*
X118960000Y-67175000D02*
X118960000Y-66175000D01*
X117260000Y-66175000D02*
X117260000Y-67175000D01*
X118985000Y-58455000D02*
X118985000Y-59655000D01*
X117235000Y-59655000D02*
X117235000Y-58455000D01*
X136490000Y-59930000D02*
X135290000Y-59930000D01*
X135290000Y-58180000D02*
X136490000Y-58180000D01*
X122795000Y-66075000D02*
X122795000Y-67275000D01*
X121045000Y-67275000D02*
X121045000Y-66075000D01*
D14*
X125670000Y-53915000D02*
X125670000Y-56575000D01*
X135890000Y-53915000D02*
X125670000Y-53915000D01*
X135890000Y-56575000D02*
X125670000Y-56575000D01*
X135890000Y-53915000D02*
X135890000Y-56575000D01*
X137160000Y-53915000D02*
X138490000Y-53915000D01*
X138490000Y-53915000D02*
X138490000Y-55245000D01*
D13*
X120372143Y-75096666D02*
X120419762Y-75144285D01*
X120467381Y-75287142D01*
X120467381Y-75382380D01*
X120419762Y-75525238D01*
X120324524Y-75620476D01*
X120229286Y-75668095D01*
X120038810Y-75715714D01*
X119895952Y-75715714D01*
X119705476Y-75668095D01*
X119610238Y-75620476D01*
X119515000Y-75525238D01*
X119467381Y-75382380D01*
X119467381Y-75287142D01*
X119515000Y-75144285D01*
X119562619Y-75096666D01*
X120467381Y-74144285D02*
X120467381Y-74715714D01*
X120467381Y-74430000D02*
X119467381Y-74430000D01*
X119610238Y-74525238D01*
X119705476Y-74620476D01*
X119753095Y-74715714D01*
X120241786Y-72919167D02*
X120272024Y-72888928D01*
X120302262Y-72919167D01*
X120272024Y-72949405D01*
X120241786Y-72919167D01*
X120302262Y-72919167D01*
X119667262Y-72495833D02*
X119667262Y-72435357D01*
X119697500Y-72374881D01*
X119727738Y-72344643D01*
X119788214Y-72314405D01*
X119909167Y-72284166D01*
X120060357Y-72284166D01*
X120181310Y-72314405D01*
X120241786Y-72344643D01*
X120272024Y-72374881D01*
X120302262Y-72435357D01*
X120302262Y-72495833D01*
X120272024Y-72556309D01*
X120241786Y-72586547D01*
X120181310Y-72616786D01*
X120060357Y-72647024D01*
X119909167Y-72647024D01*
X119788214Y-72616786D01*
X119727738Y-72586547D01*
X119697500Y-72556309D01*
X119667262Y-72495833D01*
X120302262Y-71679404D02*
X120302262Y-72042262D01*
X120302262Y-71860833D02*
X119667262Y-71860833D01*
X119757976Y-71921309D01*
X119818452Y-71981785D01*
X119848690Y-72042262D01*
X119878929Y-71135119D02*
X120302262Y-71135119D01*
X119878929Y-71407262D02*
X120211548Y-71407262D01*
X120272024Y-71377023D01*
X120302262Y-71316547D01*
X120302262Y-71225833D01*
X120272024Y-71165357D01*
X120241786Y-71135119D01*
X119969643Y-70621071D02*
X119969643Y-70832738D01*
X120302262Y-70832738D02*
X119667262Y-70832738D01*
X119667262Y-70530357D01*
X120372143Y-81446666D02*
X120419762Y-81494285D01*
X120467381Y-81637142D01*
X120467381Y-81732380D01*
X120419762Y-81875238D01*
X120324524Y-81970476D01*
X120229286Y-82018095D01*
X120038810Y-82065714D01*
X119895952Y-82065714D01*
X119705476Y-82018095D01*
X119610238Y-81970476D01*
X119515000Y-81875238D01*
X119467381Y-81732380D01*
X119467381Y-81637142D01*
X119515000Y-81494285D01*
X119562619Y-81446666D01*
X119562619Y-81065714D02*
X119515000Y-81018095D01*
X119467381Y-80922857D01*
X119467381Y-80684761D01*
X119515000Y-80589523D01*
X119562619Y-80541904D01*
X119657857Y-80494285D01*
X119753095Y-80494285D01*
X119895952Y-80541904D01*
X120467381Y-81113333D01*
X120467381Y-80494285D01*
X120241786Y-79269167D02*
X120272024Y-79238928D01*
X120302262Y-79269167D01*
X120272024Y-79299405D01*
X120241786Y-79269167D01*
X120302262Y-79269167D01*
X119667262Y-78845833D02*
X119667262Y-78785357D01*
X119697500Y-78724881D01*
X119727738Y-78694643D01*
X119788214Y-78664405D01*
X119909167Y-78634166D01*
X120060357Y-78634166D01*
X120181310Y-78664405D01*
X120241786Y-78694643D01*
X120272024Y-78724881D01*
X120302262Y-78785357D01*
X120302262Y-78845833D01*
X120272024Y-78906309D01*
X120241786Y-78936547D01*
X120181310Y-78966786D01*
X120060357Y-78997024D01*
X119909167Y-78997024D01*
X119788214Y-78966786D01*
X119727738Y-78936547D01*
X119697500Y-78906309D01*
X119667262Y-78845833D01*
X120302262Y-78029404D02*
X120302262Y-78392262D01*
X120302262Y-78210833D02*
X119667262Y-78210833D01*
X119757976Y-78271309D01*
X119818452Y-78331785D01*
X119848690Y-78392262D01*
X119878929Y-77485119D02*
X120302262Y-77485119D01*
X119878929Y-77757262D02*
X120211548Y-77757262D01*
X120272024Y-77727023D01*
X120302262Y-77666547D01*
X120302262Y-77575833D01*
X120272024Y-77515357D01*
X120241786Y-77485119D01*
X119969643Y-76971071D02*
X119969643Y-77182738D01*
X120302262Y-77182738D02*
X119667262Y-77182738D01*
X119667262Y-76880357D01*
X134453334Y-65857381D02*
X134120000Y-65381190D01*
X133881905Y-65857381D02*
X133881905Y-64857381D01*
X134262858Y-64857381D01*
X134358096Y-64905000D01*
X134405715Y-64952619D01*
X134453334Y-65047857D01*
X134453334Y-65190714D01*
X134405715Y-65285952D01*
X134358096Y-65333571D01*
X134262858Y-65381190D01*
X133881905Y-65381190D01*
X135405715Y-65857381D02*
X134834286Y-65857381D01*
X135120000Y-65857381D02*
X135120000Y-64857381D01*
X135024762Y-65000238D01*
X134929524Y-65095476D01*
X134834286Y-65143095D01*
X137356548Y-65692262D02*
X136993690Y-65692262D01*
X137175119Y-65692262D02*
X137175119Y-65057262D01*
X137114643Y-65147976D01*
X137054167Y-65208452D01*
X136993690Y-65238690D01*
X137749643Y-65057262D02*
X137810119Y-65057262D01*
X137870595Y-65087500D01*
X137900833Y-65117738D01*
X137931071Y-65178214D01*
X137961310Y-65299167D01*
X137961310Y-65450357D01*
X137931071Y-65571310D01*
X137900833Y-65631786D01*
X137870595Y-65662024D01*
X137810119Y-65692262D01*
X137749643Y-65692262D01*
X137689167Y-65662024D01*
X137658929Y-65631786D01*
X137628690Y-65571310D01*
X137598452Y-65450357D01*
X137598452Y-65299167D01*
X137628690Y-65178214D01*
X137658929Y-65117738D01*
X137689167Y-65087500D01*
X137749643Y-65057262D01*
X138233452Y-65692262D02*
X138233452Y-65057262D01*
X138596310Y-65692262D02*
X138324167Y-65329405D01*
X138596310Y-65057262D02*
X138233452Y-65420119D01*
X124277381Y-75096666D02*
X123801190Y-75430000D01*
X124277381Y-75668095D02*
X123277381Y-75668095D01*
X123277381Y-75287142D01*
X123325000Y-75191904D01*
X123372619Y-75144285D01*
X123467857Y-75096666D01*
X123610714Y-75096666D01*
X123705952Y-75144285D01*
X123753571Y-75191904D01*
X123801190Y-75287142D01*
X123801190Y-75668095D01*
X123372619Y-74715714D02*
X123325000Y-74668095D01*
X123277381Y-74572857D01*
X123277381Y-74334761D01*
X123325000Y-74239523D01*
X123372619Y-74191904D01*
X123467857Y-74144285D01*
X123563095Y-74144285D01*
X123705952Y-74191904D01*
X124277381Y-74763333D01*
X124277381Y-74144285D01*
X124112262Y-72193452D02*
X124112262Y-72556310D01*
X124112262Y-72374881D02*
X123477262Y-72374881D01*
X123567976Y-72435357D01*
X123628452Y-72495833D01*
X123658690Y-72556310D01*
X123477262Y-71800357D02*
X123477262Y-71739881D01*
X123507500Y-71679405D01*
X123537738Y-71649167D01*
X123598214Y-71618929D01*
X123719167Y-71588690D01*
X123870357Y-71588690D01*
X123991310Y-71618929D01*
X124051786Y-71649167D01*
X124082024Y-71679405D01*
X124112262Y-71739881D01*
X124112262Y-71800357D01*
X124082024Y-71860833D01*
X124051786Y-71891071D01*
X123991310Y-71921310D01*
X123870357Y-71951548D01*
X123719167Y-71951548D01*
X123598214Y-71921310D01*
X123537738Y-71891071D01*
X123507500Y-71860833D01*
X123477262Y-71800357D01*
X124112262Y-71316548D02*
X123477262Y-71316548D01*
X124112262Y-70953690D02*
X123749405Y-71225833D01*
X123477262Y-70953690D02*
X123840119Y-71316548D01*
X124277381Y-81446666D02*
X123801190Y-81780000D01*
X124277381Y-82018095D02*
X123277381Y-82018095D01*
X123277381Y-81637142D01*
X123325000Y-81541904D01*
X123372619Y-81494285D01*
X123467857Y-81446666D01*
X123610714Y-81446666D01*
X123705952Y-81494285D01*
X123753571Y-81541904D01*
X123801190Y-81637142D01*
X123801190Y-82018095D01*
X123277381Y-81113333D02*
X123277381Y-80494285D01*
X123658333Y-80827619D01*
X123658333Y-80684761D01*
X123705952Y-80589523D01*
X123753571Y-80541904D01*
X123848810Y-80494285D01*
X124086905Y-80494285D01*
X124182143Y-80541904D01*
X124229762Y-80589523D01*
X124277381Y-80684761D01*
X124277381Y-80970476D01*
X124229762Y-81065714D01*
X124182143Y-81113333D01*
X124112262Y-78543452D02*
X124112262Y-78906310D01*
X124112262Y-78724881D02*
X123477262Y-78724881D01*
X123567976Y-78785357D01*
X123628452Y-78845833D01*
X123658690Y-78906310D01*
X123477262Y-78150357D02*
X123477262Y-78089881D01*
X123507500Y-78029405D01*
X123537738Y-77999167D01*
X123598214Y-77968929D01*
X123719167Y-77938690D01*
X123870357Y-77938690D01*
X123991310Y-77968929D01*
X124051786Y-77999167D01*
X124082024Y-78029405D01*
X124112262Y-78089881D01*
X124112262Y-78150357D01*
X124082024Y-78210833D01*
X124051786Y-78241071D01*
X123991310Y-78271310D01*
X123870357Y-78301548D01*
X123719167Y-78301548D01*
X123598214Y-78271310D01*
X123537738Y-78241071D01*
X123507500Y-78210833D01*
X123477262Y-78150357D01*
X124112262Y-77666548D02*
X123477262Y-77666548D01*
X124112262Y-77303690D02*
X123749405Y-77575833D01*
X123477262Y-77303690D02*
X123840119Y-77666548D01*
X134453334Y-87007381D02*
X134120000Y-86531190D01*
X133881905Y-87007381D02*
X133881905Y-86007381D01*
X134262858Y-86007381D01*
X134358096Y-86055000D01*
X134405715Y-86102619D01*
X134453334Y-86197857D01*
X134453334Y-86340714D01*
X134405715Y-86435952D01*
X134358096Y-86483571D01*
X134262858Y-86531190D01*
X133881905Y-86531190D01*
X135310477Y-86340714D02*
X135310477Y-87007381D01*
X135072381Y-85959762D02*
X134834286Y-86674048D01*
X135453334Y-86674048D01*
X137356548Y-86647262D02*
X136993690Y-86647262D01*
X137175119Y-86647262D02*
X137175119Y-86012262D01*
X137114643Y-86102976D01*
X137054167Y-86163452D01*
X136993690Y-86193690D01*
X137749643Y-86012262D02*
X137810119Y-86012262D01*
X137870595Y-86042500D01*
X137900833Y-86072738D01*
X137931071Y-86133214D01*
X137961310Y-86254167D01*
X137961310Y-86405357D01*
X137931071Y-86526310D01*
X137900833Y-86586786D01*
X137870595Y-86617024D01*
X137810119Y-86647262D01*
X137749643Y-86647262D01*
X137689167Y-86617024D01*
X137658929Y-86586786D01*
X137628690Y-86526310D01*
X137598452Y-86405357D01*
X137598452Y-86254167D01*
X137628690Y-86133214D01*
X137658929Y-86072738D01*
X137689167Y-86042500D01*
X137749643Y-86012262D01*
X138233452Y-86647262D02*
X138233452Y-86012262D01*
X138596310Y-86647262D02*
X138324167Y-86284405D01*
X138596310Y-86012262D02*
X138233452Y-86375119D01*
X126833334Y-86812381D02*
X126500000Y-86336190D01*
X126261905Y-86812381D02*
X126261905Y-85812381D01*
X126642858Y-85812381D01*
X126738096Y-85860000D01*
X126785715Y-85907619D01*
X126833334Y-86002857D01*
X126833334Y-86145714D01*
X126785715Y-86240952D01*
X126738096Y-86288571D01*
X126642858Y-86336190D01*
X126261905Y-86336190D01*
X127738096Y-85812381D02*
X127261905Y-85812381D01*
X127214286Y-86288571D01*
X127261905Y-86240952D01*
X127357143Y-86193333D01*
X127595239Y-86193333D01*
X127690477Y-86240952D01*
X127738096Y-86288571D01*
X127785715Y-86383810D01*
X127785715Y-86621905D01*
X127738096Y-86717143D01*
X127690477Y-86764762D01*
X127595239Y-86812381D01*
X127357143Y-86812381D01*
X127261905Y-86764762D01*
X127214286Y-86717143D01*
X129736548Y-86647262D02*
X129373690Y-86647262D01*
X129555119Y-86647262D02*
X129555119Y-86012262D01*
X129494643Y-86102976D01*
X129434167Y-86163452D01*
X129373690Y-86193690D01*
X130129643Y-86012262D02*
X130190119Y-86012262D01*
X130250595Y-86042500D01*
X130280833Y-86072738D01*
X130311071Y-86133214D01*
X130341310Y-86254167D01*
X130341310Y-86405357D01*
X130311071Y-86526310D01*
X130280833Y-86586786D01*
X130250595Y-86617024D01*
X130190119Y-86647262D01*
X130129643Y-86647262D01*
X130069167Y-86617024D01*
X130038929Y-86586786D01*
X130008690Y-86526310D01*
X129978452Y-86405357D01*
X129978452Y-86254167D01*
X130008690Y-86133214D01*
X130038929Y-86072738D01*
X130069167Y-86042500D01*
X130129643Y-86012262D01*
X130613452Y-86647262D02*
X130613452Y-86012262D01*
X130976310Y-86647262D02*
X130704167Y-86284405D01*
X130976310Y-86012262D02*
X130613452Y-86375119D01*
X132167381Y-61721905D02*
X132976905Y-61721905D01*
X133072143Y-61674286D01*
X133119762Y-61626667D01*
X133167381Y-61531429D01*
X133167381Y-61340952D01*
X133119762Y-61245714D01*
X133072143Y-61198095D01*
X132976905Y-61150476D01*
X132167381Y-61150476D01*
X133167381Y-60150476D02*
X133167381Y-60721905D01*
X133167381Y-60436191D02*
X132167381Y-60436191D01*
X132310238Y-60531429D01*
X132405476Y-60626667D01*
X132453095Y-60721905D01*
X124182143Y-61126666D02*
X124229762Y-61174285D01*
X124277381Y-61317142D01*
X124277381Y-61412380D01*
X124229762Y-61555238D01*
X124134524Y-61650476D01*
X124039286Y-61698095D01*
X123848810Y-61745714D01*
X123705952Y-61745714D01*
X123515476Y-61698095D01*
X123420238Y-61650476D01*
X123325000Y-61555238D01*
X123277381Y-61412380D01*
X123277381Y-61317142D01*
X123325000Y-61174285D01*
X123372619Y-61126666D01*
X123277381Y-60793333D02*
X123277381Y-60174285D01*
X123658333Y-60507619D01*
X123658333Y-60364761D01*
X123705952Y-60269523D01*
X123753571Y-60221904D01*
X123848810Y-60174285D01*
X124086905Y-60174285D01*
X124182143Y-60221904D01*
X124229762Y-60269523D01*
X124277381Y-60364761D01*
X124277381Y-60650476D01*
X124229762Y-60745714D01*
X124182143Y-60793333D01*
X124051786Y-58646786D02*
X124082024Y-58616547D01*
X124112262Y-58646786D01*
X124082024Y-58677024D01*
X124051786Y-58646786D01*
X124112262Y-58646786D01*
X124112262Y-58011785D02*
X124112262Y-58374643D01*
X124112262Y-58193214D02*
X123477262Y-58193214D01*
X123567976Y-58253690D01*
X123628452Y-58314166D01*
X123658690Y-58374643D01*
X123688929Y-57467500D02*
X124112262Y-57467500D01*
X123688929Y-57739643D02*
X124021548Y-57739643D01*
X124082024Y-57709404D01*
X124112262Y-57648928D01*
X124112262Y-57558214D01*
X124082024Y-57497738D01*
X124051786Y-57467500D01*
X123779643Y-56953452D02*
X123779643Y-57165119D01*
X124112262Y-57165119D02*
X123477262Y-57165119D01*
X123477262Y-56862738D01*
X120372143Y-68746666D02*
X120419762Y-68794285D01*
X120467381Y-68937142D01*
X120467381Y-69032380D01*
X120419762Y-69175238D01*
X120324524Y-69270476D01*
X120229286Y-69318095D01*
X120038810Y-69365714D01*
X119895952Y-69365714D01*
X119705476Y-69318095D01*
X119610238Y-69270476D01*
X119515000Y-69175238D01*
X119467381Y-69032380D01*
X119467381Y-68937142D01*
X119515000Y-68794285D01*
X119562619Y-68746666D01*
X119800714Y-67889523D02*
X120467381Y-67889523D01*
X119419762Y-68127619D02*
X120134048Y-68365714D01*
X120134048Y-67746666D01*
X120241786Y-66569167D02*
X120272024Y-66538928D01*
X120302262Y-66569167D01*
X120272024Y-66599405D01*
X120241786Y-66569167D01*
X120302262Y-66569167D01*
X119667262Y-66145833D02*
X119667262Y-66085357D01*
X119697500Y-66024881D01*
X119727738Y-65994643D01*
X119788214Y-65964405D01*
X119909167Y-65934166D01*
X120060357Y-65934166D01*
X120181310Y-65964405D01*
X120241786Y-65994643D01*
X120272024Y-66024881D01*
X120302262Y-66085357D01*
X120302262Y-66145833D01*
X120272024Y-66206309D01*
X120241786Y-66236547D01*
X120181310Y-66266786D01*
X120060357Y-66297024D01*
X119909167Y-66297024D01*
X119788214Y-66266786D01*
X119727738Y-66236547D01*
X119697500Y-66206309D01*
X119667262Y-66145833D01*
X120302262Y-65329404D02*
X120302262Y-65692262D01*
X120302262Y-65510833D02*
X119667262Y-65510833D01*
X119757976Y-65571309D01*
X119818452Y-65631785D01*
X119848690Y-65692262D01*
X119878929Y-64785119D02*
X120302262Y-64785119D01*
X119878929Y-65057262D02*
X120211548Y-65057262D01*
X120272024Y-65027023D01*
X120302262Y-64966547D01*
X120302262Y-64875833D01*
X120272024Y-64815357D01*
X120241786Y-64785119D01*
X119969643Y-64271071D02*
X119969643Y-64482738D01*
X120302262Y-64482738D02*
X119667262Y-64482738D01*
X119667262Y-64180357D01*
X120467381Y-61126666D02*
X119991190Y-61460000D01*
X120467381Y-61698095D02*
X119467381Y-61698095D01*
X119467381Y-61317142D01*
X119515000Y-61221904D01*
X119562619Y-61174285D01*
X119657857Y-61126666D01*
X119800714Y-61126666D01*
X119895952Y-61174285D01*
X119943571Y-61221904D01*
X119991190Y-61317142D01*
X119991190Y-61698095D01*
X119467381Y-60269523D02*
X119467381Y-60460000D01*
X119515000Y-60555238D01*
X119562619Y-60602857D01*
X119705476Y-60698095D01*
X119895952Y-60745714D01*
X120276905Y-60745714D01*
X120372143Y-60698095D01*
X120419762Y-60650476D01*
X120467381Y-60555238D01*
X120467381Y-60364761D01*
X120419762Y-60269523D01*
X120372143Y-60221904D01*
X120276905Y-60174285D01*
X120038810Y-60174285D01*
X119943571Y-60221904D01*
X119895952Y-60269523D01*
X119848333Y-60364761D01*
X119848333Y-60555238D01*
X119895952Y-60650476D01*
X119943571Y-60698095D01*
X120038810Y-60745714D01*
X120302262Y-58208333D02*
X120302262Y-58571191D01*
X120302262Y-58389762D02*
X119667262Y-58389762D01*
X119757976Y-58450238D01*
X119818452Y-58510714D01*
X119848690Y-58571191D01*
X119667262Y-57815238D02*
X119667262Y-57754762D01*
X119697500Y-57694286D01*
X119727738Y-57664048D01*
X119788214Y-57633810D01*
X119909167Y-57603571D01*
X120060357Y-57603571D01*
X120181310Y-57633810D01*
X120241786Y-57664048D01*
X120272024Y-57694286D01*
X120302262Y-57754762D01*
X120302262Y-57815238D01*
X120272024Y-57875714D01*
X120241786Y-57905952D01*
X120181310Y-57936191D01*
X120060357Y-57966429D01*
X119909167Y-57966429D01*
X119788214Y-57936191D01*
X119727738Y-57905952D01*
X119697500Y-57875714D01*
X119667262Y-57815238D01*
X119667262Y-57210476D02*
X119667262Y-57150000D01*
X119697500Y-57089524D01*
X119727738Y-57059286D01*
X119788214Y-57029048D01*
X119909167Y-56998809D01*
X120060357Y-56998809D01*
X120181310Y-57029048D01*
X120241786Y-57059286D01*
X120272024Y-57089524D01*
X120302262Y-57150000D01*
X120302262Y-57210476D01*
X120272024Y-57270952D01*
X120241786Y-57301190D01*
X120181310Y-57331429D01*
X120060357Y-57361667D01*
X119909167Y-57361667D01*
X119788214Y-57331429D01*
X119727738Y-57301190D01*
X119697500Y-57270952D01*
X119667262Y-57210476D01*
X134453334Y-61412381D02*
X134120000Y-60936190D01*
X133881905Y-61412381D02*
X133881905Y-60412381D01*
X134262858Y-60412381D01*
X134358096Y-60460000D01*
X134405715Y-60507619D01*
X134453334Y-60602857D01*
X134453334Y-60745714D01*
X134405715Y-60840952D01*
X134358096Y-60888571D01*
X134262858Y-60936190D01*
X133881905Y-60936190D01*
X134786667Y-60412381D02*
X135453334Y-60412381D01*
X135024762Y-61412381D01*
X136645952Y-60612262D02*
X137039048Y-60612262D01*
X136827381Y-60854167D01*
X136918095Y-60854167D01*
X136978571Y-60884405D01*
X137008809Y-60914643D01*
X137039048Y-60975119D01*
X137039048Y-61126310D01*
X137008809Y-61186786D01*
X136978571Y-61217024D01*
X136918095Y-61247262D01*
X136736667Y-61247262D01*
X136676190Y-61217024D01*
X136645952Y-61186786D01*
X137250714Y-60612262D02*
X137643810Y-60612262D01*
X137432143Y-60854167D01*
X137522857Y-60854167D01*
X137583333Y-60884405D01*
X137613571Y-60914643D01*
X137643810Y-60975119D01*
X137643810Y-61126310D01*
X137613571Y-61186786D01*
X137583333Y-61217024D01*
X137522857Y-61247262D01*
X137341429Y-61247262D01*
X137280952Y-61217024D01*
X137250714Y-61186786D01*
X124277381Y-68746666D02*
X123801190Y-69080000D01*
X124277381Y-69318095D02*
X123277381Y-69318095D01*
X123277381Y-68937142D01*
X123325000Y-68841904D01*
X123372619Y-68794285D01*
X123467857Y-68746666D01*
X123610714Y-68746666D01*
X123705952Y-68794285D01*
X123753571Y-68841904D01*
X123801190Y-68937142D01*
X123801190Y-69318095D01*
X123705952Y-68175238D02*
X123658333Y-68270476D01*
X123610714Y-68318095D01*
X123515476Y-68365714D01*
X123467857Y-68365714D01*
X123372619Y-68318095D01*
X123325000Y-68270476D01*
X123277381Y-68175238D01*
X123277381Y-67984761D01*
X123325000Y-67889523D01*
X123372619Y-67841904D01*
X123467857Y-67794285D01*
X123515476Y-67794285D01*
X123610714Y-67841904D01*
X123658333Y-67889523D01*
X123705952Y-67984761D01*
X123705952Y-68175238D01*
X123753571Y-68270476D01*
X123801190Y-68318095D01*
X123896429Y-68365714D01*
X124086905Y-68365714D01*
X124182143Y-68318095D01*
X124229762Y-68270476D01*
X124277381Y-68175238D01*
X124277381Y-67984761D01*
X124229762Y-67889523D01*
X124182143Y-67841904D01*
X124086905Y-67794285D01*
X123896429Y-67794285D01*
X123801190Y-67841904D01*
X123753571Y-67889523D01*
X123705952Y-67984761D01*
X124112262Y-65843452D02*
X124112262Y-66206310D01*
X124112262Y-66024881D02*
X123477262Y-66024881D01*
X123567976Y-66085357D01*
X123628452Y-66145833D01*
X123658690Y-66206310D01*
X123477262Y-65450357D02*
X123477262Y-65389881D01*
X123507500Y-65329405D01*
X123537738Y-65299167D01*
X123598214Y-65268929D01*
X123719167Y-65238690D01*
X123870357Y-65238690D01*
X123991310Y-65268929D01*
X124051786Y-65299167D01*
X124082024Y-65329405D01*
X124112262Y-65389881D01*
X124112262Y-65450357D01*
X124082024Y-65510833D01*
X124051786Y-65541071D01*
X123991310Y-65571310D01*
X123870357Y-65601548D01*
X123719167Y-65601548D01*
X123598214Y-65571310D01*
X123537738Y-65541071D01*
X123507500Y-65510833D01*
X123477262Y-65450357D01*
X124112262Y-64966548D02*
X123477262Y-64966548D01*
X124112262Y-64603690D02*
X123749405Y-64875833D01*
X123477262Y-64603690D02*
X123840119Y-64966548D01*
X140001667Y-54697381D02*
X140001667Y-55411667D01*
X139954047Y-55554524D01*
X139858809Y-55649762D01*
X139715952Y-55697381D01*
X139620714Y-55697381D01*
X140382619Y-54697381D02*
X141001667Y-54697381D01*
X140668333Y-55078333D01*
X140811191Y-55078333D01*
X140906429Y-55125952D01*
X140954048Y-55173571D01*
X141001667Y-55268810D01*
X141001667Y-55506905D01*
X140954048Y-55602143D01*
X140906429Y-55649762D01*
X140811191Y-55697381D01*
X140525476Y-55697381D01*
X140430238Y-55649762D01*
X140382619Y-55602143D01*
M02*
