  0
SECTION
  2
HEADER
  9
$ANGBASE
  50
0.0
  9
$ANGDIR
  70
  1
  9
$MEASUREMENT
  70
0
  0
ENDSEC
  0
SECTION
  2
TABLES
  0
TABLE
  2
LTYPE
  70
1
  0
LTYPE
  2
CONTINUOUS
  70
0
  3
Solid line
  72
65
  73
0
  40
0.0
  0
ENDTAB
  0
TABLE
  2
STYLE
  70
4
  0
STYLE
  2
KICAD
  70
0
  40
0
  41
1
  42
1
  50
0
  71
0
  3
isocp.shx
  0
STYLE
  2
KICADB
  70
0
  40
0
  41
1
  42
1
  50
0
  71
0
  3
isocp.shx
  0
STYLE
  2
KICADI
  70
0
  40
0
  41
1
  42
1
  50
15
  71
0
  3
isocp.shx
  0
STYLE
  2
KICADBI
  70
0
  40
0
  41
1
  42
1
  50
15
  71
0
  3
isocp.shx
  0
ENDTAB
  0
TABLE
  2
LAYER
  70
30
  0
LAYER
  2
BLACK
  70
0
  62
7
  6
CONTINUOUS
  0
LAYER
  2
GRAY1
  70
0
  62
251
  6
CONTINUOUS
  0
LAYER
  2
GRAY2
  70
0
  62
8
  6
CONTINUOUS
  0
LAYER
  2
GRAY3
  70
0
  62
9
  6
CONTINUOUS
  0
LAYER
  2
WHITE
  70
0
  62
7
  6
CONTINUOUS
  0
LAYER
  2
LYELLOW
  70
0
  62
51
  6
CONTINUOUS
  0
LAYER
  2
BLUE1
  70
0
  62
178
  6
CONTINUOUS
  0
LAYER
  2
GREEN1
  70
0
  62
98
  6
CONTINUOUS
  0
LAYER
  2
CYAN1
  70
0
  62
138
  6
CONTINUOUS
  0
LAYER
  2
RED1
  70
0
  62
18
  6
CONTINUOUS
  0
LAYER
  2
MAGENTA1
  70
0
  62
228
  6
CONTINUOUS
  0
LAYER
  2
BROWN1
  70
0
  62
58
  6
CONTINUOUS
  0
LAYER
  2
BLUE2
  70
0
  62
5
  6
CONTINUOUS
  0
LAYER
  2
GREEN2
  70
0
  62
3
  6
CONTINUOUS
  0
LAYER
  2
CYAN2
  70
0
  62
4
  6
CONTINUOUS
  0
LAYER
  2
RED2
  70
0
  62
1
  6
CONTINUOUS
  0
LAYER
  2
MAGENTA2
  70
0
  62
6
  6
CONTINUOUS
  0
LAYER
  2
BROWN2
  70
0
  62
54
  6
CONTINUOUS
  0
LAYER
  2
BLUE3
  70
0
  62
171
  6
CONTINUOUS
  0
LAYER
  2
GREEN3
  70
0
  62
91
  6
CONTINUOUS
  0
LAYER
  2
CYAN3
  70
0
  62
131
  6
CONTINUOUS
  0
LAYER
  2
RED3
  70
0
  62
11
  6
CONTINUOUS
  0
LAYER
  2
MAGENTA3
  70
0
  62
221
  6
CONTINUOUS
  0
LAYER
  2
YELLOW3
  70
0
  62
2
  6
CONTINUOUS
  0
LAYER
  2
BLUE4
  70
0
  62
5
  6
CONTINUOUS
  0
LAYER
  2
GREEN4
  70
0
  62
3
  6
CONTINUOUS
  0
LAYER
  2
CYAN4
  70
0
  62
4
  6
CONTINUOUS
  0
LAYER
  2
RED4
  70
0
  62
1
  6
CONTINUOUS
  0
LAYER
  2
MAGENTA4
  70
0
  62
6
  6
CONTINUOUS
  0
LAYER
  2
YELLOW4
  70
0
  62
2
  6
CONTINUOUS
  0
ENDTAB
  0
ENDSEC
  0
SECTION
  2
ENTITIES
0
LINE
8
Black
10
138.218
20
-58.6643
11
137.795
21
-58.6643
0
LINE
8
Black
10
137.614
20
-59.3295
11
138.218
21
-59.3295
0
LINE
8
Black
10
138.218
20
-59.3295
11
138.218
21
-58.0595
0
LINE
8
Black
10
138.218
20
-58.0595
11
137.614
21
-58.0595
0
LINE
8
Black
10
136.344
20
-59.2086
11
136.404
21
-59.269
0
LINE
8
Black
10
136.404
20
-59.269
11
136.585
21
-59.3295
0
LINE
8
Black
10
136.585
20
-59.3295
11
136.706
21
-59.3295
0
LINE
8
Black
10
136.706
20
-59.3295
11
136.888
21
-59.269
0
LINE
8
Black
10
136.888
20
-59.269
11
137.009
21
-59.1481
0
LINE
8
Black
10
137.009
20
-59.1481
11
137.069
21
-59.0271
0
LINE
8
Black
10
137.069
20
-59.0271
11
137.13
21
-58.7852
0
LINE
8
Black
10
137.13
20
-58.7852
11
137.13
21
-58.6038
0
LINE
8
Black
10
137.13
20
-58.6038
11
137.069
21
-58.3619
0
LINE
8
Black
10
137.069
20
-58.3619
11
137.009
21
-58.241
0
LINE
8
Black
10
137.009
20
-58.241
11
136.888
21
-58.12
0
LINE
8
Black
10
136.888
20
-58.12
11
136.706
21
-58.0595
0
LINE
8
Black
10
136.706
20
-58.0595
11
136.585
21
-58.0595
0
LINE
8
Black
10
136.585
20
-58.0595
11
136.404
21
-58.12
0
LINE
8
Black
10
136.404
20
-58.12
11
136.344
21
-58.1805
0
LINE
8
Black
10
135.134
20
-59.3295
11
135.86
21
-59.3295
0
LINE
8
Black
10
135.497
20
-59.3295
11
135.497
21
-58.0595
0
LINE
8
Black
10
135.497
20
-58.0595
11
135.618
21
-58.241
0
LINE
8
Black
10
135.618
20
-58.241
11
135.739
21
-58.3619
0
LINE
8
Black
10
135.739
20
-58.3619
11
135.86
21
-58.4224
0
LINE
8
Black
10
134.65
20
-58.1805
11
134.59
21
-58.12
0
LINE
8
Black
10
134.59
20
-58.12
11
134.469
21
-58.0595
0
LINE
8
Black
10
134.469
20
-58.0595
11
134.166
21
-58.0595
0
LINE
8
Black
10
134.166
20
-58.0595
11
134.045
21
-58.12
0
LINE
8
Black
10
134.045
20
-58.12
11
133.985
21
-58.1805
0
LINE
8
Black
10
133.985
20
-58.1805
11
133.925
21
-58.3014
0
LINE
8
Black
10
133.925
20
-58.3014
11
133.925
21
-58.4224
0
LINE
8
Black
10
133.925
20
-58.4224
11
133.985
21
-58.6038
0
LINE
8
Black
10
133.985
20
-58.6038
11
134.711
21
-59.3295
0
LINE
8
Black
10
134.711
20
-59.3295
11
133.925
21
-59.3295
0
LINE
8
Black
10
133.38
20
-59.3295
11
133.38
21
-58.0595
0
LINE
8
Black
10
133.38
20
-58.0595
11
132.896
21
-58.0595
0
LINE
8
Black
10
132.896
20
-58.0595
11
132.775
21
-58.12
0
LINE
8
Black
10
132.775
20
-58.12
11
132.715
21
-58.1805
0
LINE
8
Black
10
132.715
20
-58.1805
11
132.655
21
-58.3014
0
LINE
8
Black
10
132.655
20
-58.3014
11
132.655
21
-58.4829
0
LINE
8
Black
10
132.655
20
-58.4829
11
132.715
21
-58.6038
0
LINE
8
Black
10
132.715
20
-58.6038
11
132.775
21
-58.6643
0
LINE
8
Black
10
132.775
20
-58.6643
11
132.896
21
-58.7248
0
LINE
8
Black
10
132.896
20
-58.7248
11
133.38
21
-58.7248
0
LINE
8
Black
10
131.505
20
-59.3295
11
132.11
21
-59.3295
0
LINE
8
Black
10
132.11
20
-59.3295
11
132.11
21
-58.0595
0
LINE
8
Black
10
130.356
20
-59.3295
11
130.78
21
-58.7248
0
LINE
8
Black
10
131.082
20
-59.3295
11
131.082
21
-58.0595
0
LINE
8
Black
10
131.082
20
-58.0595
11
130.598
21
-58.0595
0
LINE
8
Black
10
130.598
20
-58.0595
11
130.477
21
-58.12
0
LINE
8
Black
10
130.477
20
-58.12
11
130.417
21
-58.1805
0
LINE
8
Black
10
130.417
20
-58.1805
11
130.356
21
-58.3014
0
LINE
8
Black
10
130.356
20
-58.3014
11
130.356
21
-58.4829
0
LINE
8
Black
10
130.356
20
-58.4829
11
130.417
21
-58.6038
0
LINE
8
Black
10
130.417
20
-58.6038
11
130.477
21
-58.6643
0
LINE
8
Black
10
130.477
20
-58.6643
11
130.598
21
-58.7248
0
LINE
8
Black
10
130.598
20
-58.7248
11
131.082
21
-58.7248
0
LINE
8
Black
10
129.147
20
-58.12
11
129.268
21
-58.0595
0
LINE
8
Black
10
129.268
20
-58.0595
11
129.449
21
-58.0595
0
LINE
8
Black
10
129.449
20
-58.0595
11
129.631
21
-58.12
0
LINE
8
Black
10
129.631
20
-58.12
11
129.752
21
-58.241
0
LINE
8
Black
10
129.752
20
-58.241
11
129.812
21
-58.3619
0
LINE
8
Black
10
129.812
20
-58.3619
11
129.873
21
-58.6038
0
LINE
8
Black
10
129.873
20
-58.6038
11
129.873
21
-58.7852
0
LINE
8
Black
10
129.873
20
-58.7852
11
129.812
21
-59.0271
0
LINE
8
Black
10
129.812
20
-59.0271
11
129.752
21
-59.1481
0
LINE
8
Black
10
129.752
20
-59.1481
11
129.631
21
-59.269
0
LINE
8
Black
10
129.631
20
-59.269
11
129.449
21
-59.3295
0
LINE
8
Black
10
129.449
20
-59.3295
11
129.328
21
-59.3295
0
LINE
8
Black
10
129.328
20
-59.3295
11
129.147
21
-59.269
0
LINE
8
Black
10
129.147
20
-59.269
11
129.086
21
-59.2086
0
LINE
8
Black
10
129.086
20
-59.2086
11
129.086
21
-58.7852
0
LINE
8
Black
10
129.086
20
-58.7852
11
129.328
21
-58.7852
0
LINE
8
Black
10
128.119
20
-58.6643
11
127.937
21
-58.7248
0
LINE
8
Black
10
127.937
20
-58.7248
11
127.877
21
-58.7852
0
LINE
8
Black
10
127.877
20
-58.7852
11
127.816
21
-58.9062
0
LINE
8
Black
10
127.816
20
-58.9062
11
127.816
21
-59.0876
0
LINE
8
Black
10
127.816
20
-59.0876
11
127.877
21
-59.2086
0
LINE
8
Black
10
127.877
20
-59.2086
11
127.937
21
-59.269
0
LINE
8
Black
10
127.937
20
-59.269
11
128.058
21
-59.3295
0
LINE
8
Black
10
128.058
20
-59.3295
11
128.542
21
-59.3295
0
LINE
8
Black
10
128.542
20
-59.3295
11
128.542
21
-58.0595
0
LINE
8
Black
10
128.542
20
-58.0595
11
128.119
21
-58.0595
0
LINE
8
Black
10
128.119
20
-58.0595
11
127.998
21
-58.12
0
LINE
8
Black
10
127.998
20
-58.12
11
127.937
21
-58.1805
0
LINE
8
Black
10
127.937
20
-58.1805
11
127.877
21
-58.3014
0
LINE
8
Black
10
127.877
20
-58.3014
11
127.877
21
-58.4224
0
LINE
8
Black
10
127.877
20
-58.4224
11
127.937
21
-58.5433
0
LINE
8
Black
10
127.937
20
-58.5433
11
127.998
21
-58.6038
0
LINE
8
Black
10
127.998
20
-58.6038
11
128.119
21
-58.6643
0
LINE
8
Black
10
128.119
20
-58.6643
11
128.542
21
-58.6643
0
LINE
8
Black
10
125.579
20
-59.3295
11
126.002
21
-58.7248
0
LINE
8
Black
10
126.305
20
-59.3295
11
126.305
21
-58.0595
0
LINE
8
Black
10
126.305
20
-58.0595
11
125.821
21
-58.0595
0
LINE
8
Black
10
125.821
20
-58.0595
11
125.7
21
-58.12
0
LINE
8
Black
10
125.7
20
-58.12
11
125.639
21
-58.1805
0
LINE
8
Black
10
125.639
20
-58.1805
11
125.579
21
-58.3014
0
LINE
8
Black
10
125.579
20
-58.3014
11
125.579
21
-58.4829
0
LINE
8
Black
10
125.579
20
-58.4829
11
125.639
21
-58.6038
0
LINE
8
Black
10
125.639
20
-58.6038
11
125.7
21
-58.6643
0
LINE
8
Black
10
125.7
20
-58.6643
11
125.821
21
-58.7248
0
LINE
8
Black
10
125.821
20
-58.7248
11
126.305
21
-58.7248
0
LINE
8
Black
10
124.853
20
-59.3295
11
124.974
21
-59.269
0
LINE
8
Black
10
124.974
20
-59.269
11
125.035
21
-59.2086
0
LINE
8
Black
10
125.035
20
-59.2086
11
125.095
21
-59.0876
0
LINE
8
Black
10
125.095
20
-59.0876
11
125.095
21
-58.7248
0
LINE
8
Black
10
125.095
20
-58.7248
11
125.035
21
-58.6038
0
LINE
8
Black
10
125.035
20
-58.6038
11
124.974
21
-58.5433
0
LINE
8
Black
10
124.974
20
-58.5433
11
124.853
21
-58.4829
0
LINE
8
Black
10
124.853
20
-58.4829
11
124.672
21
-58.4829
0
LINE
8
Black
10
124.672
20
-58.4829
11
124.551
21
-58.5433
0
LINE
8
Black
10
124.551
20
-58.5433
11
124.49
21
-58.6038
0
LINE
8
Black
10
124.49
20
-58.6038
11
124.43
21
-58.7248
0
LINE
8
Black
10
124.43
20
-58.7248
11
124.43
21
-59.0876
0
LINE
8
Black
10
124.43
20
-59.0876
11
124.49
21
-59.2086
0
LINE
8
Black
10
124.49
20
-59.2086
11
124.551
21
-59.269
0
LINE
8
Black
10
124.551
20
-59.269
11
124.672
21
-59.3295
0
LINE
8
Black
10
124.672
20
-59.3295
11
124.853
21
-59.3295
0
LINE
8
Black
10
124.067
20
-58.4829
11
123.583
21
-58.4829
0
LINE
8
Black
10
123.885
20
-58.0595
11
123.885
21
-59.1481
0
LINE
8
Black
10
123.885
20
-59.1481
11
123.825
21
-59.269
0
LINE
8
Black
10
123.825
20
-59.269
11
123.704
21
-59.3295
0
LINE
8
Black
10
123.704
20
-59.3295
11
123.583
21
-59.3295
0
LINE
8
Black
10
122.615
20
-59.3295
11
122.615
21
-58.6643
0
LINE
8
Black
10
122.615
20
-58.6643
11
122.676
21
-58.5433
0
LINE
8
Black
10
122.676
20
-58.5433
11
122.797
21
-58.4829
0
LINE
8
Black
10
122.797
20
-58.4829
11
123.039
21
-58.4829
0
LINE
8
Black
10
123.039
20
-58.4829
11
123.16
21
-58.5433
0
LINE
8
Black
10
122.615
20
-59.269
11
122.736
21
-59.3295
0
LINE
8
Black
10
122.736
20
-59.3295
11
123.039
21
-59.3295
0
LINE
8
Black
10
123.039
20
-59.3295
11
123.16
21
-59.269
0
LINE
8
Black
10
123.16
20
-59.269
11
123.22
21
-59.1481
0
LINE
8
Black
10
123.22
20
-59.1481
11
123.22
21
-59.0271
0
LINE
8
Black
10
123.22
20
-59.0271
11
123.16
21
-58.9062
0
LINE
8
Black
10
123.16
20
-58.9062
11
123.039
21
-58.8457
0
LINE
8
Black
10
123.039
20
-58.8457
11
122.736
21
-58.8457
0
LINE
8
Black
10
122.736
20
-58.8457
11
122.615
21
-58.7852
0
LINE
8
Black
10
122.011
20
-59.3295
11
122.011
21
-58.4829
0
LINE
8
Black
10
122.011
20
-58.7248
11
121.95
21
-58.6038
0
LINE
8
Black
10
121.95
20
-58.6038
11
121.89
21
-58.5433
0
LINE
8
Black
10
121.89
20
-58.5433
11
121.769
21
-58.4829
0
LINE
8
Black
10
121.769
20
-58.4829
11
121.648
21
-58.4829
0
LINE
8
Black
10
121.345
20
-58.4829
11
121.043
21
-59.3295
0
LINE
8
Black
10
120.741
20
-58.4829
11
121.043
21
-59.3295
0
LINE
8
Black
10
121.043
20
-59.3295
11
121.164
21
-59.6319
0
LINE
8
Black
10
121.164
20
-59.6319
11
121.225
21
-59.6924
0
LINE
8
Black
10
121.225
20
-59.6924
11
121.345
21
-59.7529
0
LINE
8
Black
10
137.674
20
-60.8693
11
137.251
21
-60.8693
0
LINE
8
Black
10
137.069
20
-61.5345
11
137.674
21
-61.5345
0
LINE
8
Black
10
137.674
20
-61.5345
11
137.674
21
-60.2645
0
LINE
8
Black
10
137.674
20
-60.2645
11
137.069
21
-60.2645
0
LINE
8
Black
10
136.525
20
-60.6879
11
136.525
21
-61.5345
0
LINE
8
Black
10
136.525
20
-60.8088
11
136.465
21
-60.7483
0
LINE
8
Black
10
136.465
20
-60.7483
11
136.344
21
-60.6879
0
LINE
8
Black
10
136.344
20
-60.6879
11
136.162
21
-60.6879
0
LINE
8
Black
10
136.162
20
-60.6879
11
136.041
21
-60.7483
0
LINE
8
Black
10
136.041
20
-60.7483
11
135.981
21
-60.8693
0
LINE
8
Black
10
135.981
20
-60.8693
11
135.981
21
-61.5345
0
LINE
8
Black
10
134.832
20
-61.474
11
134.953
21
-61.5345
0
LINE
8
Black
10
134.953
20
-61.5345
11
135.195
21
-61.5345
0
LINE
8
Black
10
135.195
20
-61.5345
11
135.315
21
-61.474
0
LINE
8
Black
10
135.315
20
-61.474
11
135.376
21
-61.4136
0
LINE
8
Black
10
135.376
20
-61.4136
11
135.436
21
-61.2926
0
LINE
8
Black
10
135.436
20
-61.2926
11
135.436
21
-60.9298
0
LINE
8
Black
10
135.436
20
-60.9298
11
135.376
21
-60.8088
0
LINE
8
Black
10
135.376
20
-60.8088
11
135.315
21
-60.7483
0
LINE
8
Black
10
135.315
20
-60.7483
11
135.195
21
-60.6879
0
LINE
8
Black
10
135.195
20
-60.6879
11
134.953
21
-60.6879
0
LINE
8
Black
10
134.953
20
-60.6879
11
134.832
21
-60.7483
0
LINE
8
Black
10
134.106
20
-61.5345
11
134.227
21
-61.474
0
LINE
8
Black
10
134.227
20
-61.474
11
134.287
21
-61.4136
0
LINE
8
Black
10
134.287
20
-61.4136
11
134.348
21
-61.2926
0
LINE
8
Black
10
134.348
20
-61.2926
11
134.348
21
-60.9298
0
LINE
8
Black
10
134.348
20
-60.9298
11
134.287
21
-60.8088
0
LINE
8
Black
10
134.287
20
-60.8088
11
134.227
21
-60.7483
0
LINE
8
Black
10
134.227
20
-60.7483
11
134.106
21
-60.6879
0
LINE
8
Black
10
134.106
20
-60.6879
11
133.925
21
-60.6879
0
LINE
8
Black
10
133.925
20
-60.6879
11
133.804
21
-60.7483
0
LINE
8
Black
10
133.804
20
-60.7483
11
133.743
21
-60.8088
0
LINE
8
Black
10
133.743
20
-60.8088
11
133.683
21
-60.9298
0
LINE
8
Black
10
133.683
20
-60.9298
11
133.683
21
-61.2926
0
LINE
8
Black
10
133.683
20
-61.2926
11
133.743
21
-61.4136
0
LINE
8
Black
10
133.743
20
-61.4136
11
133.804
21
-61.474
0
LINE
8
Black
10
133.804
20
-61.474
11
133.925
21
-61.5345
0
LINE
8
Black
10
133.925
20
-61.5345
11
134.106
21
-61.5345
0
LINE
8
Black
10
132.594
20
-61.5345
11
132.594
21
-60.2645
0
LINE
8
Black
10
132.594
20
-61.474
11
132.715
21
-61.5345
0
LINE
8
Black
10
132.715
20
-61.5345
11
132.957
21
-61.5345
0
LINE
8
Black
10
132.957
20
-61.5345
11
133.078
21
-61.474
0
LINE
8
Black
10
133.078
20
-61.474
11
133.138
21
-61.4136
0
LINE
8
Black
10
133.138
20
-61.4136
11
133.199
21
-61.2926
0
LINE
8
Black
10
133.199
20
-61.2926
11
133.199
21
-60.9298
0
LINE
8
Black
10
133.199
20
-60.9298
11
133.138
21
-60.8088
0
LINE
8
Black
10
133.138
20
-60.8088
11
133.078
21
-60.7483
0
LINE
8
Black
10
133.078
20
-60.7483
11
132.957
21
-60.6879
0
LINE
8
Black
10
132.957
20
-60.6879
11
132.715
21
-60.6879
0
LINE
8
Black
10
132.715
20
-60.6879
11
132.594
21
-60.7483
0
LINE
8
Black
10
131.505
20
-61.474
11
131.626
21
-61.5345
0
LINE
8
Black
10
131.626
20
-61.5345
11
131.868
21
-61.5345
0
LINE
8
Black
10
131.868
20
-61.5345
11
131.989
21
-61.474
0
LINE
8
Black
10
131.989
20
-61.474
11
132.05
21
-61.3531
0
LINE
8
Black
10
132.05
20
-61.3531
11
132.05
21
-60.8693
0
LINE
8
Black
10
132.05
20
-60.8693
11
131.989
21
-60.7483
0
LINE
8
Black
10
131.989
20
-60.7483
11
131.868
21
-60.6879
0
LINE
8
Black
10
131.868
20
-60.6879
11
131.626
21
-60.6879
0
LINE
8
Black
10
131.626
20
-60.6879
11
131.505
21
-60.7483
0
LINE
8
Black
10
131.505
20
-60.7483
11
131.445
21
-60.8693
0
LINE
8
Black
10
131.445
20
-60.8693
11
131.445
21
-60.9902
0
LINE
8
Black
10
131.445
20
-60.9902
11
132.05
21
-61.1112
0
LINE
8
Black
10
130.901
20
-61.5345
11
130.901
21
-60.6879
0
LINE
8
Black
10
130.901
20
-60.9298
11
130.84
21
-60.8088
0
LINE
8
Black
10
130.84
20
-60.8088
11
130.78
21
-60.7483
0
LINE
8
Black
10
130.78
20
-60.7483
11
130.659
21
-60.6879
0
LINE
8
Black
10
130.659
20
-60.6879
11
130.538
21
-60.6879
0
LINE
8
Black
10
128.724
20
-60.8693
11
128.542
21
-60.9298
0
LINE
8
Black
10
128.542
20
-60.9298
11
128.482
21
-60.9902
0
LINE
8
Black
10
128.482
20
-60.9902
11
128.421
21
-61.1112
0
LINE
8
Black
10
128.421
20
-61.1112
11
128.421
21
-61.2926
0
LINE
8
Black
10
128.421
20
-61.2926
11
128.482
21
-61.4136
0
LINE
8
Black
10
128.482
20
-61.4136
11
128.542
21
-61.474
0
LINE
8
Black
10
128.542
20
-61.474
11
128.663
21
-61.5345
0
LINE
8
Black
10
128.663
20
-61.5345
11
129.147
21
-61.5345
0
LINE
8
Black
10
129.147
20
-61.5345
11
129.147
21
-60.2645
0
LINE
8
Black
10
129.147
20
-60.2645
11
128.724
21
-60.2645
0
LINE
8
Black
10
128.724
20
-60.2645
11
128.603
21
-60.325
0
LINE
8
Black
10
128.603
20
-60.325
11
128.542
21
-60.3855
0
LINE
8
Black
10
128.542
20
-60.3855
11
128.482
21
-60.5064
0
LINE
8
Black
10
128.482
20
-60.5064
11
128.482
21
-60.6274
0
LINE
8
Black
10
128.482
20
-60.6274
11
128.542
21
-60.7483
0
LINE
8
Black
10
128.542
20
-60.7483
11
128.603
21
-60.8088
0
LINE
8
Black
10
128.603
20
-60.8088
11
128.724
21
-60.8693
0
LINE
8
Black
10
128.724
20
-60.8693
11
129.147
21
-60.8693
0
LINE
8
Black
10
127.877
20
-61.5345
11
127.877
21
-60.6879
0
LINE
8
Black
10
127.877
20
-60.9298
11
127.816
21
-60.8088
0
LINE
8
Black
10
127.816
20
-60.8088
11
127.756
21
-60.7483
0
LINE
8
Black
10
127.756
20
-60.7483
11
127.635
21
-60.6879
0
LINE
8
Black
10
127.635
20
-60.6879
11
127.514
21
-60.6879
0
LINE
8
Black
10
126.607
20
-61.474
11
126.728
21
-61.5345
0
LINE
8
Black
10
126.728
20
-61.5345
11
126.97
21
-61.5345
0
LINE
8
Black
10
126.97
20
-61.5345
11
127.091
21
-61.474
0
LINE
8
Black
10
127.091
20
-61.474
11
127.151
21
-61.3531
0
LINE
8
Black
10
127.151
20
-61.3531
11
127.151
21
-60.8693
0
LINE
8
Black
10
127.151
20
-60.8693
11
127.091
21
-60.7483
0
LINE
8
Black
10
127.091
20
-60.7483
11
126.97
21
-60.6879
0
LINE
8
Black
10
126.97
20
-60.6879
11
126.728
21
-60.6879
0
LINE
8
Black
10
126.728
20
-60.6879
11
126.607
21
-60.7483
0
LINE
8
Black
10
126.607
20
-60.7483
11
126.546
21
-60.8693
0
LINE
8
Black
10
126.546
20
-60.8693
11
126.546
21
-60.9902
0
LINE
8
Black
10
126.546
20
-60.9902
11
127.151
21
-61.1112
0
LINE
8
Black
10
125.458
20
-61.5345
11
125.458
21
-60.8693
0
LINE
8
Black
10
125.458
20
-60.8693
11
125.518
21
-60.7483
0
LINE
8
Black
10
125.518
20
-60.7483
11
125.639
21
-60.6879
0
LINE
8
Black
10
125.639
20
-60.6879
11
125.881
21
-60.6879
0
LINE
8
Black
10
125.881
20
-60.6879
11
126.002
21
-60.7483
0
LINE
8
Black
10
125.458
20
-61.474
11
125.579
21
-61.5345
0
LINE
8
Black
10
125.579
20
-61.5345
11
125.881
21
-61.5345
0
LINE
8
Black
10
125.881
20
-61.5345
11
126.002
21
-61.474
0
LINE
8
Black
10
126.002
20
-61.474
11
126.063
21
-61.3531
0
LINE
8
Black
10
126.063
20
-61.3531
11
126.063
21
-61.2321
0
LINE
8
Black
10
126.063
20
-61.2321
11
126.002
21
-61.1112
0
LINE
8
Black
10
126.002
20
-61.1112
11
125.881
21
-61.0507
0
LINE
8
Black
10
125.881
20
-61.0507
11
125.579
21
-61.0507
0
LINE
8
Black
10
125.579
20
-61.0507
11
125.458
21
-60.9902
0
LINE
8
Black
10
124.853
20
-61.5345
11
124.853
21
-60.2645
0
LINE
8
Black
10
124.732
20
-61.0507
11
124.369
21
-61.5345
0
LINE
8
Black
10
124.369
20
-60.6879
11
124.853
21
-61.1717
0
LINE
8
Black
10
123.644
20
-61.5345
11
123.765
21
-61.474
0
LINE
8
Black
10
123.765
20
-61.474
11
123.825
21
-61.4136
0
LINE
8
Black
10
123.825
20
-61.4136
11
123.885
21
-61.2926
0
LINE
8
Black
10
123.885
20
-61.2926
11
123.885
21
-60.9298
0
LINE
8
Black
10
123.885
20
-60.9298
11
123.825
21
-60.8088
0
LINE
8
Black
10
123.825
20
-60.8088
11
123.765
21
-60.7483
0
LINE
8
Black
10
123.765
20
-60.7483
11
123.644
21
-60.6879
0
LINE
8
Black
10
123.644
20
-60.6879
11
123.462
21
-60.6879
0
LINE
8
Black
10
123.462
20
-60.6879
11
123.341
21
-60.7483
0
LINE
8
Black
10
123.341
20
-60.7483
11
123.281
21
-60.8088
0
LINE
8
Black
10
123.281
20
-60.8088
11
123.22
21
-60.9298
0
LINE
8
Black
10
123.22
20
-60.9298
11
123.22
21
-61.2926
0
LINE
8
Black
10
123.22
20
-61.2926
11
123.281
21
-61.4136
0
LINE
8
Black
10
123.281
20
-61.4136
11
123.341
21
-61.474
0
LINE
8
Black
10
123.341
20
-61.474
11
123.462
21
-61.5345
0
LINE
8
Black
10
123.462
20
-61.5345
11
123.644
21
-61.5345
0
LINE
8
Black
10
122.132
20
-60.6879
11
122.132
21
-61.5345
0
LINE
8
Black
10
122.676
20
-60.6879
11
122.676
21
-61.3531
0
LINE
8
Black
10
122.676
20
-61.3531
11
122.615
21
-61.474
0
LINE
8
Black
10
122.615
20
-61.474
11
122.495
21
-61.5345
0
LINE
8
Black
10
122.495
20
-61.5345
11
122.313
21
-61.5345
0
LINE
8
Black
10
122.313
20
-61.5345
11
122.192
21
-61.474
0
LINE
8
Black
10
122.192
20
-61.474
11
122.132
21
-61.4136
0
LINE
8
Black
10
121.708
20
-60.6879
11
121.225
21
-60.6879
0
LINE
8
Black
10
121.527
20
-60.2645
11
121.527
21
-61.3531
0
LINE
8
Black
10
121.527
20
-61.3531
11
121.466
21
-61.474
0
LINE
8
Black
10
121.466
20
-61.474
11
121.345
21
-61.5345
0
LINE
8
Black
10
121.345
20
-61.5345
11
121.225
21
-61.5345
0
LINE
8
Black
10
140.607
20
-63.6186
11
140.668
21
-63.679
0
LINE
8
Black
10
140.668
20
-63.679
11
140.849
21
-63.7395
0
LINE
8
Black
10
140.849
20
-63.7395
11
140.97
21
-63.7395
0
LINE
8
Black
10
140.97
20
-63.7395
11
141.151
21
-63.679
0
LINE
8
Black
10
141.151
20
-63.679
11
141.272
21
-63.5581
0
LINE
8
Black
10
141.272
20
-63.5581
11
141.333
21
-63.4371
0
LINE
8
Black
10
141.333
20
-63.4371
11
141.393
21
-63.1952
0
LINE
8
Black
10
141.393
20
-63.1952
11
141.393
21
-63.0138
0
LINE
8
Black
10
141.393
20
-63.0138
11
141.333
21
-62.7719
0
LINE
8
Black
10
141.333
20
-62.7719
11
141.272
21
-62.651
0
LINE
8
Black
10
141.272
20
-62.651
11
141.151
21
-62.53
0
LINE
8
Black
10
141.151
20
-62.53
11
140.97
21
-62.4695
0
LINE
8
Black
10
140.97
20
-62.4695
11
140.849
21
-62.4695
0
LINE
8
Black
10
140.849
20
-62.4695
11
140.668
21
-62.53
0
LINE
8
Black
10
140.668
20
-62.53
11
140.607
21
-62.5905
0
LINE
8
Black
10
139.519
20
-63.7395
11
139.519
21
-63.0743
0
LINE
8
Black
10
139.519
20
-63.0743
11
139.579
21
-62.9533
0
LINE
8
Black
10
139.579
20
-62.9533
11
139.7
21
-62.8929
0
LINE
8
Black
10
139.7
20
-62.8929
11
139.942
21
-62.8929
0
LINE
8
Black
10
139.942
20
-62.8929
11
140.063
21
-62.9533
0
LINE
8
Black
10
139.519
20
-63.679
11
139.64
21
-63.7395
0
LINE
8
Black
10
139.64
20
-63.7395
11
139.942
21
-63.7395
0
LINE
8
Black
10
139.942
20
-63.7395
11
140.063
21
-63.679
0
LINE
8
Black
10
140.063
20
-63.679
11
140.123
21
-63.5581
0
LINE
8
Black
10
140.123
20
-63.5581
11
140.123
21
-63.4371
0
LINE
8
Black
10
140.123
20
-63.4371
11
140.063
21
-63.3162
0
LINE
8
Black
10
140.063
20
-63.3162
11
139.942
21
-63.2557
0
LINE
8
Black
10
139.942
20
-63.2557
11
139.64
21
-63.2557
0
LINE
8
Black
10
139.64
20
-63.2557
11
139.519
21
-63.1952
0
LINE
8
Black
10
138.914
20
-63.7395
11
138.914
21
-62.8929
0
LINE
8
Black
10
138.914
20
-63.1348
11
138.853
21
-63.0138
0
LINE
8
Black
10
138.853
20
-63.0138
11
138.793
21
-62.9533
0
LINE
8
Black
10
138.793
20
-62.9533
11
138.672
21
-62.8929
0
LINE
8
Black
10
138.672
20
-62.8929
11
138.551
21
-62.8929
0
LINE
8
Black
10
137.946
20
-63.7395
11
138.067
21
-63.679
0
LINE
8
Black
10
138.067
20
-63.679
11
138.128
21
-63.5581
0
LINE
8
Black
10
138.128
20
-63.5581
11
138.128
21
-62.4695
0
LINE
8
Black
10
135.769
20
-63.7395
11
136.192
21
-63.1348
0
LINE
8
Black
10
136.495
20
-63.7395
11
136.495
21
-62.4695
0
LINE
8
Black
10
136.495
20
-62.4695
11
136.011
21
-62.4695
0
LINE
8
Black
10
136.011
20
-62.4695
11
135.89
21
-62.53
0
LINE
8
Black
10
135.89
20
-62.53
11
135.83
21
-62.5905
0
LINE
8
Black
10
135.83
20
-62.5905
11
135.769
21
-62.7114
0
LINE
8
Black
10
135.769
20
-62.7114
11
135.769
21
-62.8929
0
LINE
8
Black
10
135.769
20
-62.8929
11
135.83
21
-63.0138
0
LINE
8
Black
10
135.83
20
-63.0138
11
135.89
21
-63.0743
0
LINE
8
Black
10
135.89
20
-63.0743
11
136.011
21
-63.1348
0
LINE
8
Black
10
136.011
20
-63.1348
11
136.495
21
-63.1348
0
LINE
8
Black
10
134.68
20
-63.7395
11
134.68
21
-63.0743
0
LINE
8
Black
10
134.68
20
-63.0743
11
134.741
21
-62.9533
0
LINE
8
Black
10
134.741
20
-62.9533
11
134.862
21
-62.8929
0
LINE
8
Black
10
134.862
20
-62.8929
11
135.104
21
-62.8929
0
LINE
8
Black
10
135.104
20
-62.8929
11
135.225
21
-62.9533
0
LINE
8
Black
10
134.68
20
-63.679
11
134.801
21
-63.7395
0
LINE
8
Black
10
134.801
20
-63.7395
11
135.104
21
-63.7395
0
LINE
8
Black
10
135.104
20
-63.7395
11
135.225
21
-63.679
0
LINE
8
Black
10
135.225
20
-63.679
11
135.285
21
-63.5581
0
LINE
8
Black
10
135.285
20
-63.5581
11
135.285
21
-63.4371
0
LINE
8
Black
10
135.285
20
-63.4371
11
135.225
21
-63.3162
0
LINE
8
Black
10
135.225
20
-63.3162
11
135.104
21
-63.2557
0
LINE
8
Black
10
135.104
20
-63.2557
11
134.801
21
-63.2557
0
LINE
8
Black
10
134.801
20
-63.2557
11
134.68
21
-63.1952
0
LINE
8
Black
10
134.197
20
-62.8929
11
133.894
21
-63.7395
0
LINE
8
Black
10
133.592
20
-62.8929
11
133.894
21
-63.7395
0
LINE
8
Black
10
133.894
20
-63.7395
11
134.015
21
-64.0419
0
LINE
8
Black
10
134.015
20
-64.0419
11
134.076
21
-64.1024
0
LINE
8
Black
10
134.076
20
-64.1024
11
134.197
21
-64.1629
0
LINE
8
Black
10
133.108
20
-63.7395
11
133.108
21
-62.8929
0
LINE
8
Black
10
133.108
20
-63.0138
11
133.048
21
-62.9533
0
LINE
8
Black
10
133.048
20
-62.9533
11
132.927
21
-62.8929
0
LINE
8
Black
10
132.927
20
-62.8929
11
132.745
21
-62.8929
0
LINE
8
Black
10
132.745
20
-62.8929
11
132.624
21
-62.9533
0
LINE
8
Black
10
132.624
20
-62.9533
11
132.564
21
-63.0743
0
LINE
8
Black
10
132.564
20
-63.0743
11
132.564
21
-63.7395
0
LINE
8
Black
10
132.564
20
-63.0743
11
132.503
21
-62.9533
0
LINE
8
Black
10
132.503
20
-62.9533
11
132.382
21
-62.8929
0
LINE
8
Black
10
132.382
20
-62.8929
11
132.201
21
-62.8929
0
LINE
8
Black
10
132.201
20
-62.8929
11
132.08
21
-62.9533
0
LINE
8
Black
10
132.08
20
-62.9533
11
132.02
21
-63.0743
0
LINE
8
Black
10
132.02
20
-63.0743
11
132.02
21
-63.7395
0
LINE
8
Black
10
131.233
20
-63.7395
11
131.354
21
-63.679
0
LINE
8
Black
10
131.354
20
-63.679
11
131.415
21
-63.6186
0
LINE
8
Black
10
131.415
20
-63.6186
11
131.475
21
-63.4976
0
LINE
8
Black
10
131.475
20
-63.4976
11
131.475
21
-63.1348
0
LINE
8
Black
10
131.475
20
-63.1348
11
131.415
21
-63.0138
0
LINE
8
Black
10
131.415
20
-63.0138
11
131.354
21
-62.9533
0
LINE
8
Black
10
131.354
20
-62.9533
11
131.233
21
-62.8929
0
LINE
8
Black
10
131.233
20
-62.8929
11
131.052
21
-62.8929
0
LINE
8
Black
10
131.052
20
-62.8929
11
130.931
21
-62.9533
0
LINE
8
Black
10
130.931
20
-62.9533
11
130.87
21
-63.0138
0
LINE
8
Black
10
130.87
20
-63.0138
11
130.81
21
-63.1348
0
LINE
8
Black
10
130.81
20
-63.1348
11
130.81
21
-63.4976
0
LINE
8
Black
10
130.81
20
-63.4976
11
130.87
21
-63.6186
0
LINE
8
Black
10
130.87
20
-63.6186
11
130.931
21
-63.679
0
LINE
8
Black
10
130.931
20
-63.679
11
131.052
21
-63.7395
0
LINE
8
Black
10
131.052
20
-63.7395
11
131.233
21
-63.7395
0
LINE
8
Black
10
130.266
20
-62.8929
11
130.266
21
-63.7395
0
LINE
8
Black
10
130.266
20
-63.0138
11
130.205
21
-62.9533
0
LINE
8
Black
10
130.205
20
-62.9533
11
130.084
21
-62.8929
0
LINE
8
Black
10
130.084
20
-62.8929
11
129.903
21
-62.8929
0
LINE
8
Black
10
129.903
20
-62.8929
11
129.782
21
-62.9533
0
LINE
8
Black
10
129.782
20
-62.9533
11
129.721
21
-63.0743
0
LINE
8
Black
10
129.721
20
-63.0743
11
129.721
21
-63.7395
0
LINE
8
Black
10
128.572
20
-63.7395
11
128.572
21
-62.4695
0
LINE
8
Black
10
128.572
20
-63.679
11
128.693
21
-63.7395
0
LINE
8
Black
10
128.693
20
-63.7395
11
128.935
21
-63.7395
0
LINE
8
Black
10
128.935
20
-63.7395
11
129.056
21
-63.679
0
LINE
8
Black
10
129.056
20
-63.679
11
129.117
21
-63.6186
0
LINE
8
Black
10
129.117
20
-63.6186
11
129.177
21
-63.4976
0
LINE
8
Black
10
129.177
20
-63.4976
11
129.177
21
-63.1348
0
LINE
8
Black
10
129.177
20
-63.1348
11
129.117
21
-63.0138
0
LINE
8
Black
10
129.117
20
-63.0138
11
129.056
21
-62.9533
0
LINE
8
Black
10
129.056
20
-62.9533
11
128.935
21
-62.8929
0
LINE
8
Black
10
128.935
20
-62.8929
11
128.693
21
-62.8929
0
LINE
8
Black
10
128.693
20
-62.8929
11
128.572
21
-62.9533
0
LINE
8
Black
10
127
20
-63.7395
11
127
21
-62.4695
0
LINE
8
Black
10
127
20
-62.4695
11
126.698
21
-62.4695
0
LINE
8
Black
10
126.698
20
-62.4695
11
126.516
21
-62.53
0
LINE
8
Black
10
126.516
20
-62.53
11
126.395
21
-62.651
0
LINE
8
Black
10
126.395
20
-62.651
11
126.335
21
-62.7719
0
LINE
8
Black
10
126.335
20
-62.7719
11
126.274
21
-63.0138
0
LINE
8
Black
10
126.274
20
-63.0138
11
126.274
21
-63.1952
0
LINE
8
Black
10
126.274
20
-63.1952
11
126.335
21
-63.4371
0
LINE
8
Black
10
126.335
20
-63.4371
11
126.395
21
-63.5581
0
LINE
8
Black
10
126.395
20
-63.5581
11
126.516
21
-63.679
0
LINE
8
Black
10
126.516
20
-63.679
11
126.698
21
-63.7395
0
LINE
8
Black
10
126.698
20
-63.7395
11
127
21
-63.7395
0
LINE
8
Black
10
125.246
20
-63.679
11
125.367
21
-63.7395
0
LINE
8
Black
10
125.367
20
-63.7395
11
125.609
21
-63.7395
0
LINE
8
Black
10
125.609
20
-63.7395
11
125.73
21
-63.679
0
LINE
8
Black
10
125.73
20
-63.679
11
125.79
21
-63.5581
0
LINE
8
Black
10
125.79
20
-63.5581
11
125.79
21
-63.0743
0
LINE
8
Black
10
125.79
20
-63.0743
11
125.73
21
-62.9533
0
LINE
8
Black
10
125.73
20
-62.9533
11
125.609
21
-62.8929
0
LINE
8
Black
10
125.609
20
-62.8929
11
125.367
21
-62.8929
0
LINE
8
Black
10
125.367
20
-62.8929
11
125.246
21
-62.9533
0
LINE
8
Black
10
125.246
20
-62.9533
11
125.186
21
-63.0743
0
LINE
8
Black
10
125.186
20
-63.0743
11
125.186
21
-63.1952
0
LINE
8
Black
10
125.186
20
-63.1952
11
125.79
21
-63.3162
0
LINE
8
Black
10
124.097
20
-63.679
11
124.218
21
-63.7395
0
LINE
8
Black
10
124.218
20
-63.7395
11
124.46
21
-63.7395
0
LINE
8
Black
10
124.46
20
-63.7395
11
124.581
21
-63.679
0
LINE
8
Black
10
124.581
20
-63.679
11
124.641
21
-63.6186
0
LINE
8
Black
10
124.641
20
-63.6186
11
124.702
21
-63.4976
0
LINE
8
Black
10
124.702
20
-63.4976
11
124.702
21
-63.1348
0
LINE
8
Black
10
124.702
20
-63.1348
11
124.641
21
-63.0138
0
LINE
8
Black
10
124.641
20
-63.0138
11
124.581
21
-62.9533
0
LINE
8
Black
10
124.581
20
-62.9533
11
124.46
21
-62.8929
0
LINE
8
Black
10
124.46
20
-62.8929
11
124.218
21
-62.8929
0
LINE
8
Black
10
124.218
20
-62.8929
11
124.097
21
-62.9533
0
LINE
8
Black
10
123.553
20
-63.6186
11
123.492
21
-63.679
0
LINE
8
Black
10
123.492
20
-63.679
11
123.553
21
-63.7395
0
LINE
8
Black
10
123.553
20
-63.7395
11
123.613
21
-63.679
0
LINE
8
Black
10
123.613
20
-63.679
11
123.553
21
-63.6186
0
LINE
8
Black
10
123.553
20
-63.6186
11
123.553
21
-63.7395
0
LINE
8
Black
10
122.041
20
-62.5905
11
121.98
21
-62.53
0
LINE
8
Black
10
121.98
20
-62.53
11
121.86
21
-62.4695
0
LINE
8
Black
10
121.86
20
-62.4695
11
121.557
21
-62.4695
0
LINE
8
Black
10
121.557
20
-62.4695
11
121.436
21
-62.53
0
LINE
8
Black
10
121.436
20
-62.53
11
121.376
21
-62.5905
0
LINE
8
Black
10
121.376
20
-62.5905
11
121.315
21
-62.7114
0
LINE
8
Black
10
121.315
20
-62.7114
11
121.315
21
-62.8324
0
LINE
8
Black
10
121.315
20
-62.8324
11
121.376
21
-63.0138
0
LINE
8
Black
10
121.376
20
-63.0138
11
122.101
21
-63.7395
0
LINE
8
Black
10
122.101
20
-63.7395
11
121.315
21
-63.7395
0
LINE
8
Black
10
120.529
20
-62.4695
11
120.408
21
-62.4695
0
LINE
8
Black
10
120.408
20
-62.4695
11
120.287
21
-62.53
0
LINE
8
Black
10
120.287
20
-62.53
11
120.227
21
-62.5905
0
LINE
8
Black
10
120.227
20
-62.5905
11
120.166
21
-62.7114
0
LINE
8
Black
10
120.166
20
-62.7114
11
120.106
21
-62.9533
0
LINE
8
Black
10
120.106
20
-62.9533
11
120.106
21
-63.2557
0
LINE
8
Black
10
120.106
20
-63.2557
11
120.166
21
-63.4976
0
LINE
8
Black
10
120.166
20
-63.4976
11
120.227
21
-63.6186
0
LINE
8
Black
10
120.227
20
-63.6186
11
120.287
21
-63.679
0
LINE
8
Black
10
120.287
20
-63.679
11
120.408
21
-63.7395
0
LINE
8
Black
10
120.408
20
-63.7395
11
120.529
21
-63.7395
0
LINE
8
Black
10
120.529
20
-63.7395
11
120.65
21
-63.679
0
LINE
8
Black
10
120.65
20
-63.679
11
120.71
21
-63.6186
0
LINE
8
Black
10
120.71
20
-63.6186
11
120.771
21
-63.4976
0
LINE
8
Black
10
120.771
20
-63.4976
11
120.831
21
-63.2557
0
LINE
8
Black
10
120.831
20
-63.2557
11
120.831
21
-62.9533
0
LINE
8
Black
10
120.831
20
-62.9533
11
120.771
21
-62.7114
0
LINE
8
Black
10
120.771
20
-62.7114
11
120.71
21
-62.5905
0
LINE
8
Black
10
120.71
20
-62.5905
11
120.65
21
-62.53
0
LINE
8
Black
10
120.65
20
-62.53
11
120.529
21
-62.4695
0
LINE
8
Black
10
118.896
20
-63.7395
11
119.622
21
-63.7395
0
LINE
8
Black
10
119.259
20
-63.7395
11
119.259
21
-62.4695
0
LINE
8
Black
10
119.259
20
-62.4695
11
119.38
21
-62.651
0
LINE
8
Black
10
119.38
20
-62.651
11
119.501
21
-62.7719
0
LINE
8
Black
10
119.501
20
-62.7719
11
119.622
21
-62.8324
0
LINE
8
Black
10
118.473
20
-62.4695
11
117.626
21
-62.4695
0
LINE
8
Black
10
117.626
20
-62.4695
11
118.17
21
-63.7395
0
ARC
8
Black
10
114.935
20
-78.867
40
1.27
50
-0
51
90
0
LINE
8
Black
10
116.205
20
-78.867
11
116.205
21
-87.63
0
LINE
8
Black
10
109.855
20
-77.597
11
114.935
21
-77.597
0
LINE
8
Black
10
109.855
20
-77.597
11
109.855
21
-53.34
0
LINE
8
Black
10
142.875
20
-87.63
11
116.205
21
-87.63
0
LINE
8
Black
10
142.875
20
-53.34
11
142.875
21
-87.63
0
LINE
8
Black
10
109.855
20
-53.34
11
142.875
21
-53.34
0
LINE
8
Black
10
112.335
20
-66.615
11
114.995
21
-66.615
0
LINE
8
Black
10
112.335
20
-74.295
11
112.335
21
-66.615
0
LINE
8
Black
10
114.995
20
-74.295
11
114.995
21
-66.615
0
LINE
8
Black
10
112.335
20
-74.295
11
114.995
21
-74.295
0
LINE
8
Black
10
112.335
20
-75.565
11
112.335
21
-76.895
0
LINE
8
Black
10
112.335
20
-76.895
11
113.665
21
-76.895
0
LINE
8
Black
10
112.335
20
-53.915
11
114.995
21
-53.915
0
LINE
8
Black
10
112.335
20
-61.595
11
112.335
21
-53.915
0
LINE
8
Black
10
114.995
20
-61.595
11
114.995
21
-53.915
0
LINE
8
Black
10
112.335
20
-61.595
11
114.995
21
-61.595
0
LINE
8
Black
10
112.335
20
-62.865
11
112.335
21
-64.195
0
LINE
8
Black
10
112.335
20
-64.195
11
113.665
21
-64.195
0
LINE
8
Black
10
111.458
20
-75.0174
11
111.458
21
-75.7317
0
LINE
8
Black
10
111.458
20
-75.7317
11
111.506
21
-75.8745
0
LINE
8
Black
10
111.506
20
-75.8745
11
111.601
21
-75.9698
0
LINE
8
Black
10
111.601
20
-75.9698
11
111.744
21
-76.0174
0
LINE
8
Black
10
111.744
20
-76.0174
11
111.839
21
-76.0174
0
LINE
8
Black
10
110.458
20
-76.0174
11
111.03
21
-76.0174
0
LINE
8
Black
10
110.744
20
-76.0174
11
110.744
21
-75.0174
0
LINE
8
Black
10
110.744
20
-75.0174
11
110.839
21
-75.1602
0
LINE
8
Black
10
110.839
20
-75.1602
11
110.935
21
-75.2555
0
LINE
8
Black
10
110.935
20
-75.2555
11
111.03
21
-75.3031
0
LINE
8
Black
10
111.458
20
-62.3174
11
111.458
21
-63.0317
0
LINE
8
Black
10
111.458
20
-63.0317
11
111.506
21
-63.1745
0
LINE
8
Black
10
111.506
20
-63.1745
11
111.601
21
-63.2698
0
LINE
8
Black
10
111.601
20
-63.2698
11
111.744
21
-63.3174
0
LINE
8
Black
10
111.744
20
-63.3174
11
111.839
21
-63.3174
0
LINE
8
Black
10
111.03
20
-62.4126
11
110.982
21
-62.365
0
LINE
8
Black
10
110.982
20
-62.365
11
110.887
21
-62.3174
0
LINE
8
Black
10
110.887
20
-62.3174
11
110.649
21
-62.3174
0
LINE
8
Black
10
110.649
20
-62.3174
11
110.554
21
-62.365
0
LINE
8
Black
10
110.554
20
-62.365
11
110.506
21
-62.4126
0
LINE
8
Black
10
110.506
20
-62.4126
11
110.458
21
-62.5079
0
LINE
8
Black
10
110.458
20
-62.5079
11
110.458
21
-62.6031
0
LINE
8
Black
10
110.458
20
-62.6031
11
110.506
21
-62.746
0
LINE
8
Black
10
110.506
20
-62.746
11
111.077
21
-63.3174
0
LINE
8
Black
10
111.077
20
-63.3174
11
110.458
21
-63.3174
  0
ENDSEC
  0
EOF
