  0
SECTION
  2
HEADER
  9
$ANGBASE
  50
0.0
  9
$ANGDIR
  70
  1
  9
$MEASUREMENT
  70
0
  0
ENDSEC
  0
SECTION
  2
TABLES
  0
TABLE
  2
LTYPE
  70
1
  0
LTYPE
  2
CONTINUOUS
  70
0
  3
Solid line
  72
65
  73
0
  40
0.0
  0
ENDTAB
  0
TABLE
  2
STYLE
  70
4
  0
STYLE
  2
KICAD
  70
0
  40
0
  41
1
  42
1
  50
0
  71
0
  3
isocp.shx
  0
STYLE
  2
KICADB
  70
0
  40
0
  41
1
  42
1
  50
0
  71
0
  3
isocp.shx
  0
STYLE
  2
KICADI
  70
0
  40
0
  41
1
  42
1
  50
15
  71
0
  3
isocp.shx
  0
STYLE
  2
KICADBI
  70
0
  40
0
  41
1
  42
1
  50
15
  71
0
  3
isocp.shx
  0
ENDTAB
  0
TABLE
  2
LAYER
  70
30
  0
LAYER
  2
BLACK
  70
0
  62
7
  6
CONTINUOUS
  0
LAYER
  2
GRAY1
  70
0
  62
251
  6
CONTINUOUS
  0
LAYER
  2
GRAY2
  70
0
  62
8
  6
CONTINUOUS
  0
LAYER
  2
GRAY3
  70
0
  62
9
  6
CONTINUOUS
  0
LAYER
  2
WHITE
  70
0
  62
7
  6
CONTINUOUS
  0
LAYER
  2
LYELLOW
  70
0
  62
51
  6
CONTINUOUS
  0
LAYER
  2
BLUE1
  70
0
  62
178
  6
CONTINUOUS
  0
LAYER
  2
GREEN1
  70
0
  62
98
  6
CONTINUOUS
  0
LAYER
  2
CYAN1
  70
0
  62
138
  6
CONTINUOUS
  0
LAYER
  2
RED1
  70
0
  62
18
  6
CONTINUOUS
  0
LAYER
  2
MAGENTA1
  70
0
  62
228
  6
CONTINUOUS
  0
LAYER
  2
BROWN1
  70
0
  62
58
  6
CONTINUOUS
  0
LAYER
  2
BLUE2
  70
0
  62
5
  6
CONTINUOUS
  0
LAYER
  2
GREEN2
  70
0
  62
3
  6
CONTINUOUS
  0
LAYER
  2
CYAN2
  70
0
  62
4
  6
CONTINUOUS
  0
LAYER
  2
RED2
  70
0
  62
1
  6
CONTINUOUS
  0
LAYER
  2
MAGENTA2
  70
0
  62
6
  6
CONTINUOUS
  0
LAYER
  2
BROWN2
  70
0
  62
54
  6
CONTINUOUS
  0
LAYER
  2
BLUE3
  70
0
  62
171
  6
CONTINUOUS
  0
LAYER
  2
GREEN3
  70
0
  62
91
  6
CONTINUOUS
  0
LAYER
  2
CYAN3
  70
0
  62
131
  6
CONTINUOUS
  0
LAYER
  2
RED3
  70
0
  62
11
  6
CONTINUOUS
  0
LAYER
  2
MAGENTA3
  70
0
  62
221
  6
CONTINUOUS
  0
LAYER
  2
YELLOW3
  70
0
  62
2
  6
CONTINUOUS
  0
LAYER
  2
BLUE4
  70
0
  62
5
  6
CONTINUOUS
  0
LAYER
  2
GREEN4
  70
0
  62
3
  6
CONTINUOUS
  0
LAYER
  2
CYAN4
  70
0
  62
4
  6
CONTINUOUS
  0
LAYER
  2
RED4
  70
0
  62
1
  6
CONTINUOUS
  0
LAYER
  2
MAGENTA4
  70
0
  62
6
  6
CONTINUOUS
  0
LAYER
  2
YELLOW4
  70
0
  62
2
  6
CONTINUOUS
  0
ENDTAB
  0
ENDSEC
  0
SECTION
  2
ENTITIES
0
LINE
8
Black
10
132.432
20
-80.8281
11
132.741
21
-81.0068
0
LINE
8
Black
10
132.741
20
-81.0068
11
132.971
21
-81.2805
0
LINE
8
Black
10
132.971
20
-81.2805
11
133.093
21
-81.6163
0
LINE
8
Black
10
133.093
20
-81.6163
11
133.093
21
-81.9737
0
LINE
8
Black
10
133.093
20
-81.9737
11
132.971
21
-82.3095
0
LINE
8
Black
10
132.971
20
-82.3095
11
132.741
21
-82.5832
0
LINE
8
Black
10
132.741
20
-82.5832
11
132.432
21
-82.7619
0
LINE
8
Black
10
132.432
20
-82.7619
11
132.08
21
-82.8239
0
LINE
8
Black
10
132.08
20
-82.8239
11
131.728
21
-82.7619
0
LINE
8
Black
10
131.728
20
-82.7619
11
131.419
21
-82.5832
0
LINE
8
Black
10
131.419
20
-82.5832
11
131.189
21
-82.3095
0
LINE
8
Black
10
131.189
20
-82.3095
11
131.067
21
-81.9737
0
LINE
8
Black
10
131.067
20
-81.9737
11
131.067
21
-81.6163
0
LINE
8
Black
10
131.067
20
-81.6163
11
131.189
21
-81.2805
0
LINE
8
Black
10
131.189
20
-81.2805
11
131.419
21
-81.0068
0
LINE
8
Black
10
131.419
20
-81.0068
11
131.728
21
-80.8281
0
LINE
8
Black
10
131.728
20
-80.8281
11
132.08
21
-80.7661
0
LINE
8
Black
10
132.08
20
-80.7661
11
132.432
21
-80.8281
0
LINE
8
Black
10
129.932
20
-80.8281
11
130.241
21
-81.0068
0
LINE
8
Black
10
130.241
20
-81.0068
11
130.471
21
-81.2805
0
LINE
8
Black
10
130.471
20
-81.2805
11
130.593
21
-81.6163
0
LINE
8
Black
10
130.593
20
-81.6163
11
130.593
21
-81.9737
0
LINE
8
Black
10
130.593
20
-81.9737
11
130.471
21
-82.3095
0
LINE
8
Black
10
130.471
20
-82.3095
11
130.241
21
-82.5832
0
LINE
8
Black
10
130.241
20
-82.5832
11
129.932
21
-82.7619
0
LINE
8
Black
10
129.932
20
-82.7619
11
129.58
21
-82.8239
0
LINE
8
Black
10
129.58
20
-82.8239
11
129.228
21
-82.7619
0
LINE
8
Black
10
129.228
20
-82.7619
11
128.919
21
-82.5832
0
LINE
8
Black
10
128.919
20
-82.5832
11
128.689
21
-82.3095
0
LINE
8
Black
10
128.689
20
-82.3095
11
128.567
21
-81.9737
0
LINE
8
Black
10
128.567
20
-81.9737
11
128.567
21
-81.6163
0
LINE
8
Black
10
128.567
20
-81.6163
11
128.689
21
-81.2805
0
LINE
8
Black
10
128.689
20
-81.2805
11
128.919
21
-81.0068
0
LINE
8
Black
10
128.919
20
-81.0068
11
129.228
21
-80.8281
0
LINE
8
Black
10
129.228
20
-80.8281
11
129.58
21
-80.7661
0
LINE
8
Black
10
129.58
20
-80.7661
11
129.932
21
-80.8281
0
LINE
8
Black
10
134.932
20
-80.8281
11
135.241
21
-81.0068
0
LINE
8
Black
10
135.241
20
-81.0068
11
135.471
21
-81.2805
0
LINE
8
Black
10
135.471
20
-81.2805
11
135.593
21
-81.6163
0
LINE
8
Black
10
135.593
20
-81.6163
11
135.593
21
-81.9737
0
LINE
8
Black
10
135.593
20
-81.9737
11
135.471
21
-82.3095
0
LINE
8
Black
10
135.471
20
-82.3095
11
135.241
21
-82.5832
0
LINE
8
Black
10
135.241
20
-82.5832
11
134.932
21
-82.7619
0
LINE
8
Black
10
134.932
20
-82.7619
11
134.58
21
-82.8239
0
LINE
8
Black
10
134.58
20
-82.8239
11
134.228
21
-82.7619
0
LINE
8
Black
10
134.228
20
-82.7619
11
133.919
21
-82.5832
0
LINE
8
Black
10
133.919
20
-82.5832
11
133.689
21
-82.3095
0
LINE
8
Black
10
133.689
20
-82.3095
11
133.567
21
-81.9737
0
LINE
8
Black
10
133.567
20
-81.9737
11
133.567
21
-81.6163
0
LINE
8
Black
10
133.567
20
-81.6163
11
133.689
21
-81.2805
0
LINE
8
Black
10
133.689
20
-81.2805
11
133.919
21
-81.0068
0
LINE
8
Black
10
133.919
20
-81.0068
11
134.228
21
-80.8281
0
LINE
8
Black
10
134.228
20
-80.8281
11
134.58
21
-80.7661
0
LINE
8
Black
10
134.58
20
-80.7661
11
134.932
21
-80.8281
0
LINE
8
Black
10
114.715
20
-76.615
11
112.615
21
-76.615
0
LINE
8
Black
10
112.615
20
-76.615
11
112.615
21
-74.515
0
LINE
8
Black
10
112.615
20
-74.515
11
114.715
21
-74.515
0
LINE
8
Black
10
114.715
20
-74.515
11
114.715
21
-76.615
0
LINE
8
Black
10
138.88
20
-75.545
11
136.48
21
-75.545
0
LINE
8
Black
10
136.48
20
-75.545
11
136.48
21
-73.045
0
LINE
8
Black
10
136.48
20
-73.045
11
138.88
21
-73.045
0
LINE
8
Black
10
138.88
20
-73.045
11
138.88
21
-75.545
0
LINE
8
Black
10
127.68
20
-75.545
11
125.28
21
-75.545
0
LINE
8
Black
10
125.28
20
-75.545
11
125.28
21
-73.045
0
LINE
8
Black
10
125.28
20
-73.045
11
127.68
21
-73.045
0
LINE
8
Black
10
127.68
20
-73.045
11
127.68
21
-75.545
0
LINE
8
Black
10
114.028
20
-72.0383
11
114.344
21
-72.2207
0
LINE
8
Black
10
114.344
20
-72.2207
11
114.578
21
-72.5
0
LINE
8
Black
10
114.578
20
-72.5
11
114.703
21
-72.8427
0
LINE
8
Black
10
114.703
20
-72.8427
11
114.703
21
-73.2073
0
LINE
8
Black
10
114.703
20
-73.2073
11
114.578
21
-73.55
0
LINE
8
Black
10
114.578
20
-73.55
11
114.344
21
-73.8293
0
LINE
8
Black
10
114.344
20
-73.8293
11
114.028
21
-74.0117
0
LINE
8
Black
10
114.028
20
-74.0117
11
113.669
21
-74.075
0
LINE
8
Black
10
113.669
20
-74.075
11
113.661
21
-74.075
0
LINE
8
Black
10
113.661
20
-74.075
11
113.302
21
-74.0117
0
LINE
8
Black
10
113.302
20
-74.0117
11
112.986
21
-73.8293
0
LINE
8
Black
10
112.986
20
-73.8293
11
112.752
21
-73.55
0
LINE
8
Black
10
112.752
20
-73.55
11
112.627
21
-73.2073
0
LINE
8
Black
10
112.627
20
-73.2073
11
112.627
21
-72.8427
0
LINE
8
Black
10
112.627
20
-72.8427
11
112.752
21
-72.5
0
LINE
8
Black
10
112.752
20
-72.5
11
112.986
21
-72.2207
0
LINE
8
Black
10
112.986
20
-72.2207
11
113.302
21
-72.0383
0
LINE
8
Black
10
113.302
20
-72.0383
11
113.661
21
-71.975
0
LINE
8
Black
10
113.661
20
-71.975
11
113.669
21
-71.975
0
LINE
8
Black
10
113.669
20
-71.975
11
114.028
21
-72.0383
0
LINE
8
Black
10
114.028
20
-69.4983
11
114.344
21
-69.6807
0
LINE
8
Black
10
114.344
20
-69.6807
11
114.578
21
-69.96
0
LINE
8
Black
10
114.578
20
-69.96
11
114.703
21
-70.3027
0
LINE
8
Black
10
114.703
20
-70.3027
11
114.703
21
-70.6673
0
LINE
8
Black
10
114.703
20
-70.6673
11
114.578
21
-71.01
0
LINE
8
Black
10
114.578
20
-71.01
11
114.344
21
-71.2893
0
LINE
8
Black
10
114.344
20
-71.2893
11
114.028
21
-71.4717
0
LINE
8
Black
10
114.028
20
-71.4717
11
113.669
21
-71.535
0
LINE
8
Black
10
113.669
20
-71.535
11
113.661
21
-71.535
0
LINE
8
Black
10
113.661
20
-71.535
11
113.302
21
-71.4717
0
LINE
8
Black
10
113.302
20
-71.4717
11
112.986
21
-71.2893
0
LINE
8
Black
10
112.986
20
-71.2893
11
112.752
21
-71.01
0
LINE
8
Black
10
112.752
20
-71.01
11
112.627
21
-70.6673
0
LINE
8
Black
10
112.627
20
-70.6673
11
112.627
21
-70.3027
0
LINE
8
Black
10
112.627
20
-70.3027
11
112.752
21
-69.96
0
LINE
8
Black
10
112.752
20
-69.96
11
112.986
21
-69.6807
0
LINE
8
Black
10
112.986
20
-69.6807
11
113.302
21
-69.4983
0
LINE
8
Black
10
113.302
20
-69.4983
11
113.661
21
-69.435
0
LINE
8
Black
10
113.661
20
-69.435
11
113.669
21
-69.435
0
LINE
8
Black
10
113.669
20
-69.435
11
114.028
21
-69.4983
0
LINE
8
Black
10
114.028
20
-66.9583
11
114.344
21
-67.1407
0
LINE
8
Black
10
114.344
20
-67.1407
11
114.578
21
-67.42
0
LINE
8
Black
10
114.578
20
-67.42
11
114.703
21
-67.7627
0
LINE
8
Black
10
114.703
20
-67.7627
11
114.703
21
-68.1273
0
LINE
8
Black
10
114.703
20
-68.1273
11
114.578
21
-68.47
0
LINE
8
Black
10
114.578
20
-68.47
11
114.344
21
-68.7493
0
LINE
8
Black
10
114.344
20
-68.7493
11
114.028
21
-68.9317
0
LINE
8
Black
10
114.028
20
-68.9317
11
113.669
21
-68.995
0
LINE
8
Black
10
113.669
20
-68.995
11
113.661
21
-68.995
0
LINE
8
Black
10
113.661
20
-68.995
11
113.302
21
-68.9317
0
LINE
8
Black
10
113.302
20
-68.9317
11
112.986
21
-68.7493
0
LINE
8
Black
10
112.986
20
-68.7493
11
112.752
21
-68.47
0
LINE
8
Black
10
112.752
20
-68.47
11
112.627
21
-68.1273
0
LINE
8
Black
10
112.627
20
-68.1273
11
112.627
21
-67.7627
0
LINE
8
Black
10
112.627
20
-67.7627
11
112.752
21
-67.42
0
LINE
8
Black
10
112.752
20
-67.42
11
112.986
21
-67.1407
0
LINE
8
Black
10
112.986
20
-67.1407
11
113.302
21
-66.9583
0
LINE
8
Black
10
113.302
20
-66.9583
11
113.661
21
-66.895
0
LINE
8
Black
10
113.661
20
-66.895
11
113.669
21
-66.895
0
LINE
8
Black
10
113.669
20
-66.895
11
114.028
21
-66.9583
0
LINE
8
Black
10
136.41
20
-66.3876
11
136.701
21
-66.5553
0
LINE
8
Black
10
136.701
20
-66.5553
11
136.916
21
-66.8122
0
LINE
8
Black
10
136.916
20
-66.8122
11
137.031
21
-67.1273
0
LINE
8
Black
10
137.031
20
-67.1273
11
137.031
21
-67.4627
0
LINE
8
Black
10
137.031
20
-67.4627
11
136.916
21
-67.7778
0
LINE
8
Black
10
136.916
20
-67.7778
11
136.701
21
-68.0348
0
LINE
8
Black
10
136.701
20
-68.0348
11
136.41
21
-68.2024
0
LINE
8
Black
10
136.41
20
-68.2024
11
136.08
21
-68.2607
0
LINE
8
Black
10
136.08
20
-68.2607
11
135.75
21
-68.2024
0
LINE
8
Black
10
135.75
20
-68.2024
11
135.459
21
-68.0348
0
LINE
8
Black
10
135.459
20
-68.0348
11
135.244
21
-67.7778
0
LINE
8
Black
10
135.244
20
-67.7778
11
135.129
21
-67.4627
0
LINE
8
Black
10
135.129
20
-67.4627
11
135.129
21
-67.1273
0
LINE
8
Black
10
135.129
20
-67.1273
11
135.244
21
-66.8122
0
LINE
8
Black
10
135.244
20
-66.8122
11
135.459
21
-66.5553
0
LINE
8
Black
10
135.459
20
-66.5553
11
135.75
21
-66.3876
0
LINE
8
Black
10
135.75
20
-66.3876
11
136.08
21
-66.3293
0
LINE
8
Black
10
136.08
20
-66.3293
11
136.41
21
-66.3876
0
LINE
8
Black
10
134.41
20
-66.3876
11
134.701
21
-66.5553
0
LINE
8
Black
10
134.701
20
-66.5553
11
134.916
21
-66.8122
0
LINE
8
Black
10
134.916
20
-66.8122
11
135.031
21
-67.1273
0
LINE
8
Black
10
135.031
20
-67.1273
11
135.031
21
-67.4627
0
LINE
8
Black
10
135.031
20
-67.4627
11
134.916
21
-67.7778
0
LINE
8
Black
10
134.916
20
-67.7778
11
134.701
21
-68.0348
0
LINE
8
Black
10
134.701
20
-68.0348
11
134.41
21
-68.2024
0
LINE
8
Black
10
134.41
20
-68.2024
11
134.08
21
-68.2607
0
LINE
8
Black
10
134.08
20
-68.2607
11
133.75
21
-68.2024
0
LINE
8
Black
10
133.75
20
-68.2024
11
133.459
21
-68.0348
0
LINE
8
Black
10
133.459
20
-68.0348
11
133.244
21
-67.7778
0
LINE
8
Black
10
133.244
20
-67.7778
11
133.129
21
-67.4627
0
LINE
8
Black
10
133.129
20
-67.4627
11
133.129
21
-67.1273
0
LINE
8
Black
10
133.129
20
-67.1273
11
133.244
21
-66.8122
0
LINE
8
Black
10
133.244
20
-66.8122
11
133.459
21
-66.5553
0
LINE
8
Black
10
133.459
20
-66.5553
11
133.75
21
-66.3876
0
LINE
8
Black
10
133.75
20
-66.3876
11
134.08
21
-66.3293
0
LINE
8
Black
10
134.08
20
-66.3293
11
134.41
21
-66.3876
0
LINE
8
Black
10
128.41
20
-66.3876
11
128.701
21
-66.5553
0
LINE
8
Black
10
128.701
20
-66.5553
11
128.916
21
-66.8122
0
LINE
8
Black
10
128.916
20
-66.8122
11
129.031
21
-67.1273
0
LINE
8
Black
10
129.031
20
-67.1273
11
129.031
21
-67.4627
0
LINE
8
Black
10
129.031
20
-67.4627
11
128.916
21
-67.7778
0
LINE
8
Black
10
128.916
20
-67.7778
11
128.701
21
-68.0348
0
LINE
8
Black
10
128.701
20
-68.0348
11
128.41
21
-68.2024
0
LINE
8
Black
10
128.41
20
-68.2024
11
128.08
21
-68.2607
0
LINE
8
Black
10
128.08
20
-68.2607
11
127.75
21
-68.2024
0
LINE
8
Black
10
127.75
20
-68.2024
11
127.459
21
-68.0348
0
LINE
8
Black
10
127.459
20
-68.0348
11
127.244
21
-67.7778
0
LINE
8
Black
10
127.244
20
-67.7778
11
127.129
21
-67.4627
0
LINE
8
Black
10
127.129
20
-67.4627
11
127.129
21
-67.1273
0
LINE
8
Black
10
127.129
20
-67.1273
11
127.244
21
-66.8122
0
LINE
8
Black
10
127.244
20
-66.8122
11
127.459
21
-66.5553
0
LINE
8
Black
10
127.459
20
-66.5553
11
127.75
21
-66.3876
0
LINE
8
Black
10
127.75
20
-66.3876
11
128.08
21
-66.3293
0
LINE
8
Black
10
128.08
20
-66.3293
11
128.41
21
-66.3876
0
LINE
8
Black
10
130.41
20
-66.3876
11
130.701
21
-66.5553
0
LINE
8
Black
10
130.701
20
-66.5553
11
130.916
21
-66.8122
0
LINE
8
Black
10
130.916
20
-66.8122
11
131.031
21
-67.1273
0
LINE
8
Black
10
131.031
20
-67.1273
11
131.031
21
-67.4627
0
LINE
8
Black
10
131.031
20
-67.4627
11
130.916
21
-67.7778
0
LINE
8
Black
10
130.916
20
-67.7778
11
130.701
21
-68.0348
0
LINE
8
Black
10
130.701
20
-68.0348
11
130.41
21
-68.2024
0
LINE
8
Black
10
130.41
20
-68.2024
11
130.08
21
-68.2607
0
LINE
8
Black
10
130.08
20
-68.2607
11
129.75
21
-68.2024
0
LINE
8
Black
10
129.75
20
-68.2024
11
129.459
21
-68.0348
0
LINE
8
Black
10
129.459
20
-68.0348
11
129.244
21
-67.7778
0
LINE
8
Black
10
129.244
20
-67.7778
11
129.129
21
-67.4627
0
LINE
8
Black
10
129.129
20
-67.4627
11
129.129
21
-67.1273
0
LINE
8
Black
10
129.129
20
-67.1273
11
129.244
21
-66.8122
0
LINE
8
Black
10
129.244
20
-66.8122
11
129.459
21
-66.5553
0
LINE
8
Black
10
129.459
20
-66.5553
11
129.75
21
-66.3876
0
LINE
8
Black
10
129.75
20
-66.3876
11
130.08
21
-66.3293
0
LINE
8
Black
10
130.08
20
-66.3293
11
130.41
21
-66.3876
0
LINE
8
Black
10
132.41
20
-66.3876
11
132.701
21
-66.5553
0
LINE
8
Black
10
132.701
20
-66.5553
11
132.916
21
-66.8122
0
LINE
8
Black
10
132.916
20
-66.8122
11
133.031
21
-67.1273
0
LINE
8
Black
10
133.031
20
-67.1273
11
133.031
21
-67.4627
0
LINE
8
Black
10
133.031
20
-67.4627
11
132.916
21
-67.7778
0
LINE
8
Black
10
132.916
20
-67.7778
11
132.701
21
-68.0348
0
LINE
8
Black
10
132.701
20
-68.0348
11
132.41
21
-68.2024
0
LINE
8
Black
10
132.41
20
-68.2024
11
132.08
21
-68.2607
0
LINE
8
Black
10
132.08
20
-68.2607
11
131.75
21
-68.2024
0
LINE
8
Black
10
131.75
20
-68.2024
11
131.459
21
-68.0348
0
LINE
8
Black
10
131.459
20
-68.0348
11
131.244
21
-67.7778
0
LINE
8
Black
10
131.244
20
-67.7778
11
131.129
21
-67.4627
0
LINE
8
Black
10
131.129
20
-67.4627
11
131.129
21
-67.1273
0
LINE
8
Black
10
131.129
20
-67.1273
11
131.244
21
-66.8122
0
LINE
8
Black
10
131.244
20
-66.8122
11
131.459
21
-66.5553
0
LINE
8
Black
10
131.459
20
-66.5553
11
131.75
21
-66.3876
0
LINE
8
Black
10
131.75
20
-66.3876
11
132.08
21
-66.3293
0
LINE
8
Black
10
132.08
20
-66.3293
11
132.41
21
-66.3876
0
LINE
8
Black
10
114.715
20
-63.915
11
112.615
21
-63.915
0
LINE
8
Black
10
112.615
20
-63.915
11
112.615
21
-61.815
0
LINE
8
Black
10
112.615
20
-61.815
11
114.715
21
-61.815
0
LINE
8
Black
10
114.715
20
-61.815
11
114.715
21
-63.915
0
LINE
8
Black
10
114.028
20
-59.3383
11
114.344
21
-59.5207
0
LINE
8
Black
10
114.344
20
-59.5207
11
114.578
21
-59.8
0
LINE
8
Black
10
114.578
20
-59.8
11
114.703
21
-60.1427
0
LINE
8
Black
10
114.703
20
-60.1427
11
114.703
21
-60.5073
0
LINE
8
Black
10
114.703
20
-60.5073
11
114.578
21
-60.85
0
LINE
8
Black
10
114.578
20
-60.85
11
114.344
21
-61.1293
0
LINE
8
Black
10
114.344
20
-61.1293
11
114.028
21
-61.3117
0
LINE
8
Black
10
114.028
20
-61.3117
11
113.669
21
-61.375
0
LINE
8
Black
10
113.669
20
-61.375
11
113.661
21
-61.375
0
LINE
8
Black
10
113.661
20
-61.375
11
113.302
21
-61.3117
0
LINE
8
Black
10
113.302
20
-61.3117
11
112.986
21
-61.1293
0
LINE
8
Black
10
112.986
20
-61.1293
11
112.752
21
-60.85
0
LINE
8
Black
10
112.752
20
-60.85
11
112.627
21
-60.5073
0
LINE
8
Black
10
112.627
20
-60.5073
11
112.627
21
-60.1427
0
LINE
8
Black
10
112.627
20
-60.1427
11
112.752
21
-59.8
0
LINE
8
Black
10
112.752
20
-59.8
11
112.986
21
-59.5207
0
LINE
8
Black
10
112.986
20
-59.5207
11
113.302
21
-59.3383
0
LINE
8
Black
10
113.302
20
-59.3383
11
113.661
21
-59.275
0
LINE
8
Black
10
113.661
20
-59.275
11
113.669
21
-59.275
0
LINE
8
Black
10
113.669
20
-59.275
11
114.028
21
-59.3383
0
LINE
8
Black
10
114.028
20
-56.7983
11
114.344
21
-56.9807
0
LINE
8
Black
10
114.344
20
-56.9807
11
114.578
21
-57.26
0
LINE
8
Black
10
114.578
20
-57.26
11
114.703
21
-57.6027
0
LINE
8
Black
10
114.703
20
-57.6027
11
114.703
21
-57.9673
0
LINE
8
Black
10
114.703
20
-57.9673
11
114.578
21
-58.31
0
LINE
8
Black
10
114.578
20
-58.31
11
114.344
21
-58.5893
0
LINE
8
Black
10
114.344
20
-58.5893
11
114.028
21
-58.7717
0
LINE
8
Black
10
114.028
20
-58.7717
11
113.669
21
-58.835
0
LINE
8
Black
10
113.669
20
-58.835
11
113.661
21
-58.835
0
LINE
8
Black
10
113.661
20
-58.835
11
113.302
21
-58.7717
0
LINE
8
Black
10
113.302
20
-58.7717
11
112.986
21
-58.5893
0
LINE
8
Black
10
112.986
20
-58.5893
11
112.752
21
-58.31
0
LINE
8
Black
10
112.752
20
-58.31
11
112.627
21
-57.9673
0
LINE
8
Black
10
112.627
20
-57.9673
11
112.627
21
-57.6027
0
LINE
8
Black
10
112.627
20
-57.6027
11
112.752
21
-57.26
0
LINE
8
Black
10
112.752
20
-57.26
11
112.986
21
-56.9807
0
LINE
8
Black
10
112.986
20
-56.9807
11
113.302
21
-56.7983
0
LINE
8
Black
10
113.302
20
-56.7983
11
113.661
21
-56.735
0
LINE
8
Black
10
113.661
20
-56.735
11
113.669
21
-56.735
0
LINE
8
Black
10
113.669
20
-56.735
11
114.028
21
-56.7983
0
LINE
8
Black
10
114.028
20
-54.2583
11
114.344
21
-54.4407
0
LINE
8
Black
10
114.344
20
-54.4407
11
114.578
21
-54.72
0
LINE
8
Black
10
114.578
20
-54.72
11
114.703
21
-55.0627
0
LINE
8
Black
10
114.703
20
-55.0627
11
114.703
21
-55.4273
0
LINE
8
Black
10
114.703
20
-55.4273
11
114.578
21
-55.77
0
LINE
8
Black
10
114.578
20
-55.77
11
114.344
21
-56.0493
0
LINE
8
Black
10
114.344
20
-56.0493
11
114.028
21
-56.2317
0
LINE
8
Black
10
114.028
20
-56.2317
11
113.669
21
-56.295
0
LINE
8
Black
10
113.669
20
-56.295
11
113.661
21
-56.295
0
LINE
8
Black
10
113.661
20
-56.295
11
113.302
21
-56.2317
0
LINE
8
Black
10
113.302
20
-56.2317
11
112.986
21
-56.0493
0
LINE
8
Black
10
112.986
20
-56.0493
11
112.752
21
-55.77
0
LINE
8
Black
10
112.752
20
-55.77
11
112.627
21
-55.4273
0
LINE
8
Black
10
112.627
20
-55.4273
11
112.627
21
-55.0627
0
LINE
8
Black
10
112.627
20
-55.0627
11
112.752
21
-54.72
0
LINE
8
Black
10
112.752
20
-54.72
11
112.986
21
-54.4407
0
LINE
8
Black
10
112.986
20
-54.4407
11
113.302
21
-54.2583
0
LINE
8
Black
10
113.302
20
-54.2583
11
113.661
21
-54.195
0
LINE
8
Black
10
113.661
20
-54.195
11
113.669
21
-54.195
0
LINE
8
Black
10
113.669
20
-54.195
11
114.028
21
-54.2583
0
LINE
8
Black
10
138.21
20
-56.295
11
136.11
21
-56.295
0
LINE
8
Black
10
136.11
20
-56.295
11
136.11
21
-54.195
0
LINE
8
Black
10
136.11
20
-54.195
11
138.21
21
-54.195
0
LINE
8
Black
10
138.21
20
-54.195
11
138.21
21
-56.295
0
LINE
8
Black
10
135.145
20
-54.3317
11
135.424
21
-54.5661
0
LINE
8
Black
10
135.424
20
-54.5661
11
135.607
21
-54.8819
0
LINE
8
Black
10
135.607
20
-54.8819
11
135.67
21
-55.241
0
LINE
8
Black
10
135.67
20
-55.241
11
135.67
21
-55.249
0
LINE
8
Black
10
135.67
20
-55.249
11
135.607
21
-55.6081
0
LINE
8
Black
10
135.607
20
-55.6081
11
135.424
21
-55.9239
0
LINE
8
Black
10
135.424
20
-55.9239
11
135.145
21
-56.1583
0
LINE
8
Black
10
135.145
20
-56.1583
11
134.802
21
-56.2831
0
LINE
8
Black
10
134.802
20
-56.2831
11
134.438
21
-56.2831
0
LINE
8
Black
10
134.438
20
-56.2831
11
134.095
21
-56.1583
0
LINE
8
Black
10
134.095
20
-56.1583
11
133.816
21
-55.9239
0
LINE
8
Black
10
133.816
20
-55.9239
11
133.633
21
-55.6081
0
LINE
8
Black
10
133.633
20
-55.6081
11
133.57
21
-55.249
0
LINE
8
Black
10
133.57
20
-55.249
11
133.57
21
-55.241
0
LINE
8
Black
10
133.57
20
-55.241
11
133.633
21
-54.8819
0
LINE
8
Black
10
133.633
20
-54.8819
11
133.816
21
-54.5661
0
LINE
8
Black
10
133.816
20
-54.5661
11
134.095
21
-54.3317
0
LINE
8
Black
10
134.095
20
-54.3317
11
134.438
21
-54.2069
0
LINE
8
Black
10
134.438
20
-54.2069
11
134.802
21
-54.2069
0
LINE
8
Black
10
134.802
20
-54.2069
11
135.145
21
-54.3317
0
LINE
8
Black
10
132.605
20
-54.3317
11
132.884
21
-54.5661
0
LINE
8
Black
10
132.884
20
-54.5661
11
133.067
21
-54.8819
0
LINE
8
Black
10
133.067
20
-54.8819
11
133.13
21
-55.241
0
LINE
8
Black
10
133.13
20
-55.241
11
133.13
21
-55.249
0
LINE
8
Black
10
133.13
20
-55.249
11
133.067
21
-55.6081
0
LINE
8
Black
10
133.067
20
-55.6081
11
132.884
21
-55.9239
0
LINE
8
Black
10
132.884
20
-55.9239
11
132.605
21
-56.1583
0
LINE
8
Black
10
132.605
20
-56.1583
11
132.262
21
-56.2831
0
LINE
8
Black
10
132.262
20
-56.2831
11
131.898
21
-56.2831
0
LINE
8
Black
10
131.898
20
-56.2831
11
131.555
21
-56.1583
0
LINE
8
Black
10
131.555
20
-56.1583
11
131.276
21
-55.9239
0
LINE
8
Black
10
131.276
20
-55.9239
11
131.093
21
-55.6081
0
LINE
8
Black
10
131.093
20
-55.6081
11
131.03
21
-55.249
0
LINE
8
Black
10
131.03
20
-55.249
11
131.03
21
-55.241
0
LINE
8
Black
10
131.03
20
-55.241
11
131.093
21
-54.8819
0
LINE
8
Black
10
131.093
20
-54.8819
11
131.276
21
-54.5661
0
LINE
8
Black
10
131.276
20
-54.5661
11
131.555
21
-54.3317
0
LINE
8
Black
10
131.555
20
-54.3317
11
131.898
21
-54.2069
0
LINE
8
Black
10
131.898
20
-54.2069
11
132.262
21
-54.2069
0
LINE
8
Black
10
132.262
20
-54.2069
11
132.605
21
-54.3317
0
LINE
8
Black
10
130.065
20
-54.3317
11
130.344
21
-54.5661
0
LINE
8
Black
10
130.344
20
-54.5661
11
130.527
21
-54.8819
0
LINE
8
Black
10
130.527
20
-54.8819
11
130.59
21
-55.241
0
LINE
8
Black
10
130.59
20
-55.241
11
130.59
21
-55.249
0
LINE
8
Black
10
130.59
20
-55.249
11
130.527
21
-55.6081
0
LINE
8
Black
10
130.527
20
-55.6081
11
130.344
21
-55.9239
0
LINE
8
Black
10
130.344
20
-55.9239
11
130.065
21
-56.1583
0
LINE
8
Black
10
130.065
20
-56.1583
11
129.722
21
-56.2831
0
LINE
8
Black
10
129.722
20
-56.2831
11
129.358
21
-56.2831
0
LINE
8
Black
10
129.358
20
-56.2831
11
129.015
21
-56.1583
0
LINE
8
Black
10
129.015
20
-56.1583
11
128.736
21
-55.9239
0
LINE
8
Black
10
128.736
20
-55.9239
11
128.553
21
-55.6081
0
LINE
8
Black
10
128.553
20
-55.6081
11
128.49
21
-55.249
0
LINE
8
Black
10
128.49
20
-55.249
11
128.49
21
-55.241
0
LINE
8
Black
10
128.49
20
-55.241
11
128.553
21
-54.8819
0
LINE
8
Black
10
128.553
20
-54.8819
11
128.736
21
-54.5661
0
LINE
8
Black
10
128.736
20
-54.5661
11
129.015
21
-54.3317
0
LINE
8
Black
10
129.015
20
-54.3317
11
129.358
21
-54.2069
0
LINE
8
Black
10
129.358
20
-54.2069
11
129.722
21
-54.2069
0
LINE
8
Black
10
129.722
20
-54.2069
11
130.065
21
-54.3317
0
LINE
8
Black
10
127.525
20
-54.3317
11
127.804
21
-54.5661
0
LINE
8
Black
10
127.804
20
-54.5661
11
127.987
21
-54.8819
0
LINE
8
Black
10
127.987
20
-54.8819
11
128.05
21
-55.241
0
LINE
8
Black
10
128.05
20
-55.241
11
128.05
21
-55.249
0
LINE
8
Black
10
128.05
20
-55.249
11
127.987
21
-55.6081
0
LINE
8
Black
10
127.987
20
-55.6081
11
127.804
21
-55.9239
0
LINE
8
Black
10
127.804
20
-55.9239
11
127.525
21
-56.1583
0
LINE
8
Black
10
127.525
20
-56.1583
11
127.182
21
-56.2831
0
LINE
8
Black
10
127.182
20
-56.2831
11
126.818
21
-56.2831
0
LINE
8
Black
10
126.818
20
-56.2831
11
126.475
21
-56.1583
0
LINE
8
Black
10
126.475
20
-56.1583
11
126.196
21
-55.9239
0
LINE
8
Black
10
126.196
20
-55.9239
11
126.013
21
-55.6081
0
LINE
8
Black
10
126.013
20
-55.6081
11
125.95
21
-55.249
0
LINE
8
Black
10
125.95
20
-55.249
11
125.95
21
-55.241
0
LINE
8
Black
10
125.95
20
-55.241
11
126.013
21
-54.8819
0
LINE
8
Black
10
126.013
20
-54.8819
11
126.196
21
-54.5661
0
LINE
8
Black
10
126.196
20
-54.5661
11
126.475
21
-54.3317
0
LINE
8
Black
10
126.475
20
-54.3317
11
126.818
21
-54.2069
0
LINE
8
Black
10
126.818
20
-54.2069
11
127.182
21
-54.2069
0
LINE
8
Black
10
127.182
20
-54.2069
11
127.525
21
-54.3317
0
LINE
8
Black
10
142.881
20
-53.2661
11
142.888
21
-53.2661
0
LINE
8
Black
10
142.888
20
-53.2661
11
142.894
21
-53.2684
0
LINE
8
Black
10
142.894
20
-53.2684
11
142.901
21
-53.2695
0
LINE
8
Black
10
142.901
20
-53.2695
11
142.906
21
-53.2728
0
LINE
8
Black
10
142.906
20
-53.2728
11
142.912
21
-53.275
0
LINE
8
Black
10
142.912
20
-53.275
11
142.918
21
-53.2793
0
LINE
8
Black
10
142.918
20
-53.2793
11
142.923
21
-53.2825
0
LINE
8
Black
10
142.923
20
-53.2825
11
142.927
21
-53.2876
0
LINE
8
Black
10
142.927
20
-53.2876
11
142.932
21
-53.2918
0
LINE
8
Black
10
142.932
20
-53.2918
11
142.936
21
-53.2975
0
LINE
8
Black
10
142.936
20
-53.2975
11
142.94
21
-53.3025
0
LINE
8
Black
10
142.94
20
-53.3025
11
142.942
21
-53.3087
0
LINE
8
Black
10
142.942
20
-53.3087
11
142.945
21
-53.3143
0
LINE
8
Black
10
142.945
20
-53.3143
11
142.947
21
-53.3208
0
LINE
8
Black
10
142.947
20
-53.3208
11
142.949
21
-53.327
0
LINE
8
Black
10
142.949
20
-53.327
11
142.949
21
-53.3335
0
LINE
8
Black
10
142.949
20
-53.3335
11
142.95
21
-53.34
0
LINE
8
Black
10
142.95
20
-53.34
11
142.95
21
-87.63
0
LINE
8
Black
10
142.95
20
-87.63
11
142.949
21
-87.6365
0
LINE
8
Black
10
142.949
20
-87.6365
11
142.949
21
-87.643
0
LINE
8
Black
10
142.949
20
-87.643
11
142.947
21
-87.6492
0
LINE
8
Black
10
142.947
20
-87.6492
11
142.945
21
-87.6557
0
LINE
8
Black
10
142.945
20
-87.6557
11
142.942
21
-87.6613
0
LINE
8
Black
10
142.942
20
-87.6613
11
142.94
21
-87.6675
0
LINE
8
Black
10
142.94
20
-87.6675
11
142.936
21
-87.6725
0
LINE
8
Black
10
142.936
20
-87.6725
11
142.932
21
-87.6782
0
LINE
8
Black
10
142.932
20
-87.6782
11
142.927
21
-87.6824
0
LINE
8
Black
10
142.927
20
-87.6824
11
142.923
21
-87.6875
0
LINE
8
Black
10
142.923
20
-87.6875
11
142.918
21
-87.6907
0
LINE
8
Black
10
142.918
20
-87.6907
11
142.912
21
-87.695
0
LINE
8
Black
10
142.912
20
-87.695
11
142.906
21
-87.6972
0
LINE
8
Black
10
142.906
20
-87.6972
11
142.901
21
-87.7005
0
LINE
8
Black
10
142.901
20
-87.7005
11
142.894
21
-87.7016
0
LINE
8
Black
10
142.894
20
-87.7016
11
142.888
21
-87.7039
0
LINE
8
Black
10
142.888
20
-87.7039
11
142.881
21
-87.7039
0
LINE
8
Black
10
142.881
20
-87.7039
11
142.875
21
-87.705
0
LINE
8
Black
10
142.875
20
-87.705
11
116.205
21
-87.705
0
LINE
8
Black
10
116.205
20
-87.705
11
116.199
21
-87.7039
0
LINE
8
Black
10
116.199
20
-87.7039
11
116.192
21
-87.7039
0
LINE
8
Black
10
116.192
20
-87.7039
11
116.186
21
-87.7016
0
LINE
8
Black
10
116.186
20
-87.7016
11
116.179
21
-87.7005
0
LINE
8
Black
10
116.179
20
-87.7005
11
116.174
21
-87.6972
0
LINE
8
Black
10
116.174
20
-87.6972
11
116.167
21
-87.695
0
LINE
8
Black
10
116.167
20
-87.695
11
116.162
21
-87.6907
0
LINE
8
Black
10
116.162
20
-87.6907
11
116.157
21
-87.6875
0
LINE
8
Black
10
116.157
20
-87.6875
11
116.153
21
-87.6824
0
LINE
8
Black
10
116.153
20
-87.6824
11
116.148
21
-87.6782
0
LINE
8
Black
10
116.148
20
-87.6782
11
116.144
21
-87.6725
0
LINE
8
Black
10
116.144
20
-87.6725
11
116.14
21
-87.6675
0
LINE
8
Black
10
116.14
20
-87.6675
11
116.138
21
-87.6613
0
LINE
8
Black
10
116.138
20
-87.6613
11
116.135
21
-87.6557
0
LINE
8
Black
10
116.135
20
-87.6557
11
116.133
21
-87.6492
0
LINE
8
Black
10
116.133
20
-87.6492
11
116.131
21
-87.643
0
LINE
8
Black
10
116.131
20
-87.643
11
116.131
21
-87.6365
0
LINE
8
Black
10
116.131
20
-87.6365
11
116.13
21
-87.63
0
LINE
8
Black
10
116.13
20
-87.63
11
116.13
21
-78.8703
0
LINE
8
Black
10
116.13
20
-78.8703
11
116.112
21
-78.6628
0
LINE
8
Black
10
116.112
20
-78.6628
11
115.969
21
-78.2701
0
LINE
8
Black
10
115.969
20
-78.2701
11
115.702
21
-77.9525
0
LINE
8
Black
10
115.702
20
-77.9525
11
115.343
21
-77.7452
0
LINE
8
Black
10
115.343
20
-77.7452
11
114.928
21
-77.672
0
LINE
8
Black
10
114.928
20
-77.672
11
109.855
21
-77.672
0
LINE
8
Black
10
109.855
20
-77.672
11
109.849
21
-77.6709
0
LINE
8
Black
10
109.849
20
-77.6709
11
109.842
21
-77.6709
0
LINE
8
Black
10
109.842
20
-77.6709
11
109.836
21
-77.6686
0
LINE
8
Black
10
109.836
20
-77.6686
11
109.829
21
-77.6675
0
LINE
8
Black
10
109.829
20
-77.6675
11
109.824
21
-77.6642
0
LINE
8
Black
10
109.824
20
-77.6642
11
109.817
21
-77.662
0
LINE
8
Black
10
109.817
20
-77.662
11
109.812
21
-77.6577
0
LINE
8
Black
10
109.812
20
-77.6577
11
109.807
21
-77.6545
0
LINE
8
Black
10
109.807
20
-77.6545
11
109.803
21
-77.6494
0
LINE
8
Black
10
109.803
20
-77.6494
11
109.798
21
-77.6452
0
LINE
8
Black
10
109.798
20
-77.6452
11
109.794
21
-77.6395
0
LINE
8
Black
10
109.794
20
-77.6395
11
109.79
21
-77.6345
0
LINE
8
Black
10
109.79
20
-77.6345
11
109.788
21
-77.6283
0
LINE
8
Black
10
109.788
20
-77.6283
11
109.785
21
-77.6227
0
LINE
8
Black
10
109.785
20
-77.6227
11
109.783
21
-77.6162
0
LINE
8
Black
10
109.783
20
-77.6162
11
109.781
21
-77.61
0
LINE
8
Black
10
109.781
20
-77.61
11
109.781
21
-77.6035
0
LINE
8
Black
10
109.781
20
-77.6035
11
109.78
21
-77.597
0
LINE
8
Black
10
109.78
20
-77.597
11
109.78
21
-53.34
0
LINE
8
Black
10
109.78
20
-53.34
11
109.781
21
-53.3335
0
LINE
8
Black
10
109.781
20
-53.3335
11
109.781
21
-53.327
0
LINE
8
Black
10
109.781
20
-53.327
11
109.783
21
-53.3208
0
LINE
8
Black
10
109.783
20
-53.3208
11
109.785
21
-53.3143
0
LINE
8
Black
10
109.785
20
-53.3143
11
109.788
21
-53.3087
0
LINE
8
Black
10
109.788
20
-53.3087
11
109.79
21
-53.3025
0
LINE
8
Black
10
109.79
20
-53.3025
11
109.794
21
-53.2975
0
LINE
8
Black
10
109.794
20
-53.2975
11
109.798
21
-53.2918
0
LINE
8
Black
10
109.798
20
-53.2918
11
109.803
21
-53.2876
0
LINE
8
Black
10
109.803
20
-53.2876
11
109.807
21
-53.2825
0
LINE
8
Black
10
109.807
20
-53.2825
11
109.812
21
-53.2793
0
LINE
8
Black
10
109.812
20
-53.2793
11
109.817
21
-53.275
0
LINE
8
Black
10
109.817
20
-53.275
11
109.824
21
-53.2728
0
LINE
8
Black
10
109.824
20
-53.2728
11
109.829
21
-53.2695
0
LINE
8
Black
10
109.829
20
-53.2695
11
109.836
21
-53.2684
0
LINE
8
Black
10
109.836
20
-53.2684
11
109.842
21
-53.2661
0
LINE
8
Black
10
109.842
20
-53.2661
11
109.849
21
-53.2661
0
LINE
8
Black
10
109.849
20
-53.2661
11
109.855
21
-53.265
0
LINE
8
Black
10
109.855
20
-53.265
11
142.875
21
-53.265
0
LINE
8
Black
10
142.875
20
-53.265
11
142.881
21
-53.2661
0
LINE
8
Black
10
109.93
20
-53.415
11
109.93
21
-77.522
0
LINE
8
Black
10
109.93
20
-77.522
11
114.935
21
-77.522
0
LINE
8
Black
10
114.935
20
-77.522
11
114.941
21
-77.5231
0
LINE
8
Black
10
114.941
20
-77.5231
11
114.948
21
-77.5231
0
LINE
8
Black
10
114.948
20
-77.5231
11
115.382
21
-77.5997
0
LINE
8
Black
10
115.382
20
-77.5997
11
115.407
21
-77.6086
0
LINE
8
Black
10
115.407
20
-77.6086
11
115.407
21
-77.6086
0
LINE
8
Black
10
115.407
20
-77.6086
11
115.789
21
-77.8292
0
LINE
8
Black
10
115.789
20
-77.8292
11
115.809
21
-77.8459
0
LINE
8
Black
10
115.809
20
-77.8459
11
115.809
21
-77.8459
0
LINE
8
Black
10
115.809
20
-77.8459
11
116.092
21
-78.1838
0
LINE
8
Black
10
116.092
20
-78.1838
11
116.092
21
-78.1838
0
LINE
8
Black
10
116.092
20
-78.1838
11
116.105
21
-78.2063
0
LINE
8
Black
10
116.105
20
-78.2063
11
116.256
21
-78.6208
0
LINE
8
Black
10
116.256
20
-78.6208
11
116.258
21
-78.6305
0
LINE
8
Black
10
116.258
20
-78.6305
11
116.26
21
-78.6399
0
LINE
8
Black
10
116.26
20
-78.6399
11
116.28
21
-78.8605
0
LINE
8
Black
10
116.28
20
-78.8605
11
116.279
21
-78.8638
0
LINE
8
Black
10
116.279
20
-78.8638
11
116.28
21
-78.867
0
LINE
8
Black
10
116.28
20
-78.867
11
116.28
21
-87.555
0
LINE
8
Black
10
116.28
20
-87.555
11
142.8
21
-87.555
0
LINE
8
Black
10
142.8
20
-87.555
11
142.8
21
-53.415
0
LINE
8
Black
10
142.8
20
-53.415
11
109.93
21
-53.415
  0
ENDSEC
  0
EOF
