  0
SECTION
  2
HEADER
  9
$ANGBASE
  50
0.0
  9
$ANGDIR
  70
  1
  9
$MEASUREMENT
  70
0
  0
ENDSEC
  0
SECTION
  2
TABLES
  0
TABLE
  2
LTYPE
  70
1
  0
LTYPE
  2
CONTINUOUS
  70
0
  3
Solid line
  72
65
  73
0
  40
0.0
  0
ENDTAB
  0
TABLE
  2
STYLE
  70
4
  0
STYLE
  2
KICAD
  70
0
  40
0
  41
1
  42
1
  50
0
  71
0
  3
isocp.shx
  0
STYLE
  2
KICADB
  70
0
  40
0
  41
1
  42
1
  50
0
  71
0
  3
isocp.shx
  0
STYLE
  2
KICADI
  70
0
  40
0
  41
1
  42
1
  50
15
  71
0
  3
isocp.shx
  0
STYLE
  2
KICADBI
  70
0
  40
0
  41
1
  42
1
  50
15
  71
0
  3
isocp.shx
  0
ENDTAB
  0
TABLE
  2
LAYER
  70
30
  0
LAYER
  2
BLACK
  70
0
  62
7
  6
CONTINUOUS
  0
LAYER
  2
GRAY1
  70
0
  62
251
  6
CONTINUOUS
  0
LAYER
  2
GRAY2
  70
0
  62
8
  6
CONTINUOUS
  0
LAYER
  2
GRAY3
  70
0
  62
9
  6
CONTINUOUS
  0
LAYER
  2
WHITE
  70
0
  62
7
  6
CONTINUOUS
  0
LAYER
  2
LYELLOW
  70
0
  62
51
  6
CONTINUOUS
  0
LAYER
  2
BLUE1
  70
0
  62
178
  6
CONTINUOUS
  0
LAYER
  2
GREEN1
  70
0
  62
98
  6
CONTINUOUS
  0
LAYER
  2
CYAN1
  70
0
  62
138
  6
CONTINUOUS
  0
LAYER
  2
RED1
  70
0
  62
18
  6
CONTINUOUS
  0
LAYER
  2
MAGENTA1
  70
0
  62
228
  6
CONTINUOUS
  0
LAYER
  2
BROWN1
  70
0
  62
58
  6
CONTINUOUS
  0
LAYER
  2
BLUE2
  70
0
  62
5
  6
CONTINUOUS
  0
LAYER
  2
GREEN2
  70
0
  62
3
  6
CONTINUOUS
  0
LAYER
  2
CYAN2
  70
0
  62
4
  6
CONTINUOUS
  0
LAYER
  2
RED2
  70
0
  62
1
  6
CONTINUOUS
  0
LAYER
  2
MAGENTA2
  70
0
  62
6
  6
CONTINUOUS
  0
LAYER
  2
BROWN2
  70
0
  62
54
  6
CONTINUOUS
  0
LAYER
  2
BLUE3
  70
0
  62
171
  6
CONTINUOUS
  0
LAYER
  2
GREEN3
  70
0
  62
91
  6
CONTINUOUS
  0
LAYER
  2
CYAN3
  70
0
  62
131
  6
CONTINUOUS
  0
LAYER
  2
RED3
  70
0
  62
11
  6
CONTINUOUS
  0
LAYER
  2
MAGENTA3
  70
0
  62
221
  6
CONTINUOUS
  0
LAYER
  2
YELLOW3
  70
0
  62
2
  6
CONTINUOUS
  0
LAYER
  2
BLUE4
  70
0
  62
5
  6
CONTINUOUS
  0
LAYER
  2
GREEN4
  70
0
  62
3
  6
CONTINUOUS
  0
LAYER
  2
CYAN4
  70
0
  62
4
  6
CONTINUOUS
  0
LAYER
  2
RED4
  70
0
  62
1
  6
CONTINUOUS
  0
LAYER
  2
MAGENTA4
  70
0
  62
6
  6
CONTINUOUS
  0
LAYER
  2
YELLOW4
  70
0
  62
2
  6
CONTINUOUS
  0
ENDTAB
  0
ENDSEC
  0
SECTION
  2
ENTITIES
0
LINE
8
Black
10
140.067
20
-81.915
11
140.52
21
-81.915
0
LINE
8
Black
10
140.52
20
-81.915
11
140.611
21
-81.9452
0
LINE
8
Black
10
140.611
20
-81.9452
11
140.671
21
-82.0057
0
LINE
8
Black
10
140.671
20
-82.0057
11
140.702
21
-82.0964
0
LINE
8
Black
10
140.702
20
-82.0964
11
140.702
21
-82.1569
0
LINE
8
Black
10
140.067
20
-81.6731
11
140.067
21
-81.28
0
LINE
8
Black
10
140.067
20
-81.28
11
140.309
21
-81.4917
0
LINE
8
Black
10
140.309
20
-81.4917
11
140.309
21
-81.401
0
LINE
8
Black
10
140.309
20
-81.401
11
140.339
21
-81.3405
0
LINE
8
Black
10
140.339
20
-81.3405
11
140.369
21
-81.3102
0
LINE
8
Black
10
140.369
20
-81.3102
11
140.429
21
-81.28
0
LINE
8
Black
10
140.429
20
-81.28
11
140.581
21
-81.28
0
LINE
8
Black
10
140.581
20
-81.28
11
140.641
21
-81.3102
0
LINE
8
Black
10
140.641
20
-81.3102
11
140.671
21
-81.3405
0
LINE
8
Black
10
140.671
20
-81.3405
11
140.702
21
-81.401
0
LINE
8
Black
10
140.702
20
-81.401
11
140.702
21
-81.5824
0
LINE
8
Black
10
140.702
20
-81.5824
11
140.671
21
-81.6429
0
LINE
8
Black
10
140.671
20
-81.6429
11
140.641
21
-81.6731
0
LINE
8
Black
10
140.641
20
-81.0079
11
140.671
21
-80.9776
0
LINE
8
Black
10
140.671
20
-80.9776
11
140.702
21
-81.0079
0
LINE
8
Black
10
140.702
20
-81.0079
11
140.671
21
-81.0381
0
LINE
8
Black
10
140.671
20
-81.0381
11
140.641
21
-81.0079
0
LINE
8
Black
10
140.641
20
-81.0079
11
140.702
21
-81.0079
0
LINE
8
Black
10
140.309
20
-81.0079
11
140.339
21
-80.9776
0
LINE
8
Black
10
140.339
20
-80.9776
11
140.369
21
-81.0079
0
LINE
8
Black
10
140.369
20
-81.0079
11
140.339
21
-81.0381
0
LINE
8
Black
10
140.339
20
-81.0381
11
140.309
21
-81.0079
0
LINE
8
Black
10
140.309
20
-81.0079
11
140.369
21
-81.0079
0
LINE
8
Black
10
140.702
20
-79.889
11
140.702
21
-80.2519
0
LINE
8
Black
10
140.702
20
-80.0705
11
140.067
21
-80.0705
0
LINE
8
Black
10
140.067
20
-80.0705
11
140.157
21
-80.131
0
LINE
8
Black
10
140.157
20
-80.131
11
140.218
21
-80.1914
0
LINE
8
Black
10
140.218
20
-80.1914
11
140.248
21
-80.2519
0
LINE
8
Black
10
140.369
20
-79.6169
11
140.369
21
-79.1331
0
LINE
8
Black
10
140.55
20
-79.1331
11
140.55
21
-79.6169
0
LINE
8
Black
10
140.702
20
-78.8307
11
140.067
21
-78.8307
0
LINE
8
Black
10
140.067
20
-78.8307
11
140.067
21
-78.5888
0
LINE
8
Black
10
140.067
20
-78.5888
11
140.097
21
-78.5283
0
LINE
8
Black
10
140.097
20
-78.5283
11
140.127
21
-78.4981
0
LINE
8
Black
10
140.127
20
-78.4981
11
140.188
21
-78.4679
0
LINE
8
Black
10
140.188
20
-78.4679
11
140.278
21
-78.4679
0
LINE
8
Black
10
140.278
20
-78.4679
11
140.339
21
-78.4981
0
LINE
8
Black
10
140.339
20
-78.4981
11
140.369
21
-78.5283
0
LINE
8
Black
10
140.369
20
-78.5283
11
140.399
21
-78.5888
0
LINE
8
Black
10
140.399
20
-78.5888
11
140.399
21
-78.8307
0
LINE
8
Black
10
140.641
20
-77.8329
11
140.671
21
-77.8631
0
LINE
8
Black
10
140.671
20
-77.8631
11
140.702
21
-77.9538
0
LINE
8
Black
10
140.702
20
-77.9538
11
140.702
21
-78.0143
0
LINE
8
Black
10
140.702
20
-78.0143
11
140.671
21
-78.105
0
LINE
8
Black
10
140.671
20
-78.105
11
140.611
21
-78.1655
0
LINE
8
Black
10
140.611
20
-78.1655
11
140.55
21
-78.1957
0
LINE
8
Black
10
140.55
20
-78.1957
11
140.429
21
-78.226
0
LINE
8
Black
10
140.429
20
-78.226
11
140.339
21
-78.226
0
LINE
8
Black
10
140.339
20
-78.226
11
140.218
21
-78.1957
0
LINE
8
Black
10
140.218
20
-78.1957
11
140.157
21
-78.1655
0
LINE
8
Black
10
140.157
20
-78.1655
11
140.097
21
-78.105
0
LINE
8
Black
10
140.097
20
-78.105
11
140.067
21
-78.0143
0
LINE
8
Black
10
140.067
20
-78.0143
11
140.067
21
-77.9538
0
LINE
8
Black
10
140.067
20
-77.9538
11
140.097
21
-77.8631
0
LINE
8
Black
10
140.097
20
-77.8631
11
140.127
21
-77.8329
0
LINE
8
Black
10
140.067
20
-77.6212
11
140.067
21
-77.2281
0
LINE
8
Black
10
140.067
20
-77.2281
11
140.309
21
-77.4398
0
LINE
8
Black
10
140.309
20
-77.4398
11
140.309
21
-77.349
0
LINE
8
Black
10
140.309
20
-77.349
11
140.339
21
-77.2886
0
LINE
8
Black
10
140.339
20
-77.2886
11
140.369
21
-77.2583
0
LINE
8
Black
10
140.369
20
-77.2583
11
140.429
21
-77.2281
0
LINE
8
Black
10
140.429
20
-77.2281
11
140.581
21
-77.2281
0
LINE
8
Black
10
140.581
20
-77.2281
11
140.641
21
-77.2583
0
LINE
8
Black
10
140.641
20
-77.2583
11
140.671
21
-77.2886
0
LINE
8
Black
10
140.671
20
-77.2886
11
140.702
21
-77.349
0
LINE
8
Black
10
140.702
20
-77.349
11
140.702
21
-77.5305
0
LINE
8
Black
10
140.702
20
-77.5305
11
140.671
21
-77.591
0
LINE
8
Black
10
140.671
20
-77.591
11
140.641
21
-77.6212
0
LINE
8
Black
10
140.127
20
-76.5024
11
140.097
21
-76.4721
0
LINE
8
Black
10
140.097
20
-76.4721
11
140.067
21
-76.4117
0
LINE
8
Black
10
140.067
20
-76.4117
11
140.067
21
-76.2605
0
LINE
8
Black
10
140.067
20
-76.2605
11
140.097
21
-76.2
0
LINE
8
Black
10
140.097
20
-76.2
11
140.127
21
-76.1698
0
LINE
8
Black
10
140.127
20
-76.1698
11
140.188
21
-76.1395
0
LINE
8
Black
10
140.188
20
-76.1395
11
140.248
21
-76.1395
0
LINE
8
Black
10
140.248
20
-76.1395
11
140.339
21
-76.1698
0
LINE
8
Black
10
140.339
20
-76.1698
11
140.702
21
-76.5326
0
LINE
8
Black
10
140.702
20
-76.5326
11
140.702
21
-76.1395
0
LINE
8
Black
10
140.369
20
-75.8674
11
140.369
21
-75.3836
0
LINE
8
Black
10
140.55
20
-75.3836
11
140.55
21
-75.8674
0
LINE
8
Black
10
140.702
20
-75.0812
11
140.067
21
-75.0812
0
LINE
8
Black
10
140.067
20
-75.0812
11
140.067
21
-74.93
0
LINE
8
Black
10
140.067
20
-74.93
11
140.097
21
-74.8393
0
LINE
8
Black
10
140.097
20
-74.8393
11
140.157
21
-74.7788
0
LINE
8
Black
10
140.157
20
-74.7788
11
140.218
21
-74.7486
0
LINE
8
Black
10
140.218
20
-74.7486
11
140.339
21
-74.7183
0
LINE
8
Black
10
140.339
20
-74.7183
11
140.429
21
-74.7183
0
LINE
8
Black
10
140.429
20
-74.7183
11
140.55
21
-74.7486
0
LINE
8
Black
10
140.55
20
-74.7486
11
140.611
21
-74.7788
0
LINE
8
Black
10
140.611
20
-74.7788
11
140.671
21
-74.8393
0
LINE
8
Black
10
140.671
20
-74.8393
11
140.702
21
-74.93
0
LINE
8
Black
10
140.702
20
-74.93
11
140.702
21
-75.0812
0
LINE
8
Black
10
140.702
20
-74.4462
11
140.278
21
-74.4462
0
LINE
8
Black
10
140.067
20
-74.4462
11
140.097
21
-74.4764
0
LINE
8
Black
10
140.097
20
-74.4764
11
140.127
21
-74.4462
0
LINE
8
Black
10
140.127
20
-74.4462
11
140.097
21
-74.416
0
LINE
8
Black
10
140.097
20
-74.416
11
140.067
21
-74.4462
0
LINE
8
Black
10
140.067
20
-74.4462
11
140.127
21
-74.4462
0
LINE
8
Black
10
140.278
20
-74.1438
11
140.702
21
-74.1438
0
LINE
8
Black
10
140.339
20
-74.1438
11
140.309
21
-74.1136
0
LINE
8
Black
10
140.309
20
-74.1136
11
140.278
21
-74.0531
0
LINE
8
Black
10
140.278
20
-74.0531
11
140.278
21
-73.9624
0
LINE
8
Black
10
140.278
20
-73.9624
11
140.309
21
-73.9019
0
LINE
8
Black
10
140.309
20
-73.9019
11
140.369
21
-73.8717
0
LINE
8
Black
10
140.369
20
-73.8717
11
140.702
21
-73.8717
0
LINE
8
Black
10
140.067
20
-73.146
11
140.067
21
-72.7529
0
LINE
8
Black
10
140.067
20
-72.7529
11
140.309
21
-72.9645
0
LINE
8
Black
10
140.309
20
-72.9645
11
140.309
21
-72.8738
0
LINE
8
Black
10
140.309
20
-72.8738
11
140.339
21
-72.8133
0
LINE
8
Black
10
140.339
20
-72.8133
11
140.369
21
-72.7831
0
LINE
8
Black
10
140.369
20
-72.7831
11
140.429
21
-72.7529
0
LINE
8
Black
10
140.429
20
-72.7529
11
140.581
21
-72.7529
0
LINE
8
Black
10
140.581
20
-72.7529
11
140.641
21
-72.7831
0
LINE
8
Black
10
140.641
20
-72.7831
11
140.671
21
-72.8133
0
LINE
8
Black
10
140.671
20
-72.8133
11
140.702
21
-72.8738
0
LINE
8
Black
10
140.702
20
-72.8738
11
140.702
21
-73.0552
0
LINE
8
Black
10
140.702
20
-73.0552
11
140.671
21
-73.1157
0
LINE
8
Black
10
140.671
20
-73.1157
11
140.641
21
-73.146
0
LINE
8
Black
10
140.369
20
-72.4807
11
140.369
21
-71.9969
0
LINE
8
Black
10
140.55
20
-71.9969
11
140.55
21
-72.4807
0
LINE
8
Black
10
140.702
20
-71.6945
11
140.067
21
-71.6945
0
LINE
8
Black
10
140.067
20
-71.6945
11
140.067
21
-71.5433
0
LINE
8
Black
10
140.067
20
-71.5433
11
140.097
21
-71.4526
0
LINE
8
Black
10
140.097
20
-71.4526
11
140.157
21
-71.3921
0
LINE
8
Black
10
140.157
20
-71.3921
11
140.218
21
-71.3619
0
LINE
8
Black
10
140.218
20
-71.3619
11
140.339
21
-71.3317
0
LINE
8
Black
10
140.339
20
-71.3317
11
140.429
21
-71.3317
0
LINE
8
Black
10
140.429
20
-71.3317
11
140.55
21
-71.3619
0
LINE
8
Black
10
140.55
20
-71.3619
11
140.611
21
-71.3921
0
LINE
8
Black
10
140.611
20
-71.3921
11
140.671
21
-71.4526
0
LINE
8
Black
10
140.671
20
-71.4526
11
140.702
21
-71.5433
0
LINE
8
Black
10
140.702
20
-71.5433
11
140.702
21
-71.6945
0
LINE
8
Black
10
140.702
20
-70.9688
11
140.671
21
-71.0293
0
LINE
8
Black
10
140.671
20
-71.0293
11
140.641
21
-71.0595
0
LINE
8
Black
10
140.641
20
-71.0595
11
140.581
21
-71.0898
0
LINE
8
Black
10
140.581
20
-71.0898
11
140.399
21
-71.0898
0
LINE
8
Black
10
140.399
20
-71.0898
11
140.339
21
-71.0595
0
LINE
8
Black
10
140.339
20
-71.0595
11
140.309
21
-71.0293
0
LINE
8
Black
10
140.309
20
-71.0293
11
140.278
21
-70.9688
0
LINE
8
Black
10
140.278
20
-70.9688
11
140.278
21
-70.8781
0
LINE
8
Black
10
140.278
20
-70.8781
11
140.309
21
-70.8176
0
LINE
8
Black
10
140.309
20
-70.8176
11
140.339
21
-70.7874
0
LINE
8
Black
10
140.339
20
-70.7874
11
140.399
21
-70.7571
0
LINE
8
Black
10
140.399
20
-70.7571
11
140.581
21
-70.7571
0
LINE
8
Black
10
140.581
20
-70.7571
11
140.641
21
-70.7874
0
LINE
8
Black
10
140.641
20
-70.7874
11
140.671
21
-70.8176
0
LINE
8
Black
10
140.671
20
-70.8176
11
140.702
21
-70.8781
0
LINE
8
Black
10
140.702
20
-70.8781
11
140.702
21
-70.9688
0
LINE
8
Black
10
140.278
20
-70.2129
11
140.702
21
-70.2129
0
LINE
8
Black
10
140.278
20
-70.485
11
140.611
21
-70.485
0
LINE
8
Black
10
140.611
20
-70.485
11
140.671
21
-70.4548
0
LINE
8
Black
10
140.671
20
-70.4548
11
140.702
21
-70.3943
0
LINE
8
Black
10
140.702
20
-70.3943
11
140.702
21
-70.3036
0
LINE
8
Black
10
140.702
20
-70.3036
11
140.671
21
-70.2431
0
LINE
8
Black
10
140.671
20
-70.2431
11
140.641
21
-70.2129
0
LINE
8
Black
10
140.278
20
-70.0012
11
140.278
21
-69.7593
0
LINE
8
Black
10
140.067
20
-69.9105
11
140.611
21
-69.9105
0
LINE
8
Black
10
140.611
20
-69.9105
11
140.671
21
-69.8802
0
LINE
8
Black
10
140.671
20
-69.8802
11
140.702
21
-69.8198
0
LINE
8
Black
10
140.702
20
-69.8198
11
140.702
21
-69.7593
0
LINE
8
Black
10
140.641
20
-69.5476
11
140.671
21
-69.5174
0
LINE
8
Black
10
140.671
20
-69.5174
11
140.702
21
-69.5476
0
LINE
8
Black
10
140.702
20
-69.5476
11
140.671
21
-69.5779
0
LINE
8
Black
10
140.671
20
-69.5779
11
140.641
21
-69.5476
0
LINE
8
Black
10
140.641
20
-69.5476
11
140.702
21
-69.5476
0
LINE
8
Black
10
140.671
20
-68.7917
11
140.702
21
-68.701
0
LINE
8
Black
10
140.702
20
-68.701
11
140.702
21
-68.5498
0
LINE
8
Black
10
140.702
20
-68.5498
11
140.671
21
-68.4893
0
LINE
8
Black
10
140.671
20
-68.4893
11
140.641
21
-68.459
0
LINE
8
Black
10
140.641
20
-68.459
11
140.581
21
-68.4288
0
LINE
8
Black
10
140.581
20
-68.4288
11
140.52
21
-68.4288
0
LINE
8
Black
10
140.52
20
-68.4288
11
140.46
21
-68.459
0
LINE
8
Black
10
140.46
20
-68.459
11
140.429
21
-68.4893
0
LINE
8
Black
10
140.429
20
-68.4893
11
140.399
21
-68.5498
0
LINE
8
Black
10
140.399
20
-68.5498
11
140.369
21
-68.6707
0
LINE
8
Black
10
140.369
20
-68.6707
11
140.339
21
-68.7312
0
LINE
8
Black
10
140.339
20
-68.7312
11
140.309
21
-68.7614
0
LINE
8
Black
10
140.309
20
-68.7614
11
140.248
21
-68.7917
0
LINE
8
Black
10
140.248
20
-68.7917
11
140.188
21
-68.7917
0
LINE
8
Black
10
140.188
20
-68.7917
11
140.127
21
-68.7614
0
LINE
8
Black
10
140.127
20
-68.7614
11
140.097
21
-68.7312
0
LINE
8
Black
10
140.097
20
-68.7312
11
140.067
21
-68.6707
0
LINE
8
Black
10
140.067
20
-68.6707
11
140.067
21
-68.5195
0
LINE
8
Black
10
140.067
20
-68.5195
11
140.097
21
-68.4288
0
LINE
8
Black
10
140.702
20
-68.1567
11
140.067
21
-68.1567
0
LINE
8
Black
10
140.702
20
-67.8845
11
140.369
21
-67.8845
0
LINE
8
Black
10
140.369
20
-67.8845
11
140.309
21
-67.9148
0
LINE
8
Black
10
140.309
20
-67.9148
11
140.278
21
-67.9752
0
LINE
8
Black
10
140.278
20
-67.9752
11
140.278
21
-68.066
0
LINE
8
Black
10
140.278
20
-68.066
11
140.309
21
-68.1264
0
LINE
8
Black
10
140.309
20
-68.1264
11
140.339
21
-68.1567
0
LINE
8
Black
10
140.702
20
-67.4914
11
140.671
21
-67.5519
0
LINE
8
Black
10
140.671
20
-67.5519
11
140.641
21
-67.5821
0
LINE
8
Black
10
140.641
20
-67.5821
11
140.581
21
-67.6124
0
LINE
8
Black
10
140.581
20
-67.6124
11
140.399
21
-67.6124
0
LINE
8
Black
10
140.399
20
-67.6124
11
140.339
21
-67.5821
0
LINE
8
Black
10
140.339
20
-67.5821
11
140.309
21
-67.5519
0
LINE
8
Black
10
140.309
20
-67.5519
11
140.278
21
-67.4914
0
LINE
8
Black
10
140.278
20
-67.4914
11
140.278
21
-67.4007
0
LINE
8
Black
10
140.278
20
-67.4007
11
140.309
21
-67.3402
0
LINE
8
Black
10
140.309
20
-67.3402
11
140.339
21
-67.31
0
LINE
8
Black
10
140.339
20
-67.31
11
140.399
21
-67.2798
0
LINE
8
Black
10
140.399
20
-67.2798
11
140.581
21
-67.2798
0
LINE
8
Black
10
140.581
20
-67.2798
11
140.641
21
-67.31
0
LINE
8
Black
10
140.641
20
-67.31
11
140.671
21
-67.3402
0
LINE
8
Black
10
140.671
20
-67.3402
11
140.702
21
-67.4007
0
LINE
8
Black
10
140.702
20
-67.4007
11
140.702
21
-67.4914
0
LINE
8
Black
10
140.702
20
-67.0076
11
140.278
21
-67.0076
0
LINE
8
Black
10
140.399
20
-67.0076
11
140.339
21
-66.9774
0
LINE
8
Black
10
140.339
20
-66.9774
11
140.309
21
-66.9471
0
LINE
8
Black
10
140.309
20
-66.9471
11
140.278
21
-66.8867
0
LINE
8
Black
10
140.278
20
-66.8867
11
140.278
21
-66.8262
0
LINE
8
Black
10
140.278
20
-66.7052
11
140.278
21
-66.4633
0
LINE
8
Black
10
140.067
20
-66.6145
11
140.611
21
-66.6145
0
LINE
8
Black
10
140.611
20
-66.6145
11
140.671
21
-66.5843
0
LINE
8
Black
10
140.671
20
-66.5843
11
140.702
21
-66.5238
0
LINE
8
Black
10
140.702
20
-66.5238
11
140.702
21
-66.4633
0
LINE
8
Black
10
140.702
20
-65.4352
11
140.702
21
-65.7981
0
LINE
8
Black
10
140.702
20
-65.6167
11
140.067
21
-65.6167
0
LINE
8
Black
10
140.067
20
-65.6167
11
140.157
21
-65.6771
0
LINE
8
Black
10
140.157
20
-65.6771
11
140.218
21
-65.7376
0
LINE
8
Black
10
140.218
20
-65.7376
11
140.248
21
-65.7981
0
LINE
8
Black
10
140.46
20
-65.1631
11
140.46
21
-64.6793
0
LINE
8
Black
10
140.127
20
-64.4071
11
140.097
21
-64.3769
0
LINE
8
Black
10
140.097
20
-64.3769
11
140.067
21
-64.3164
0
LINE
8
Black
10
140.067
20
-64.3164
11
140.067
21
-64.1652
0
LINE
8
Black
10
140.067
20
-64.1652
11
140.097
21
-64.1048
0
LINE
8
Black
10
140.097
20
-64.1048
11
140.127
21
-64.0745
0
LINE
8
Black
10
140.127
20
-64.0745
11
140.188
21
-64.0443
0
LINE
8
Black
10
140.188
20
-64.0443
11
140.248
21
-64.0443
0
LINE
8
Black
10
140.248
20
-64.0443
11
140.339
21
-64.0745
0
LINE
8
Black
10
140.339
20
-64.0745
11
140.702
21
-64.4374
0
LINE
8
Black
10
140.702
20
-64.4374
11
140.702
21
-64.0443
0
LINE
8
Black
10
140.278
20
-63.379
11
140.278
21
-63.1371
0
LINE
8
Black
10
140.702
20
-63.2883
11
140.157
21
-63.2883
0
LINE
8
Black
10
140.157
20
-63.2883
11
140.097
21
-63.2581
0
LINE
8
Black
10
140.097
20
-63.2581
11
140.067
21
-63.1976
0
LINE
8
Black
10
140.067
20
-63.1976
11
140.067
21
-63.1371
0
LINE
8
Black
10
140.702
20
-62.8348
11
140.671
21
-62.8952
0
LINE
8
Black
10
140.671
20
-62.8952
11
140.641
21
-62.9255
0
LINE
8
Black
10
140.641
20
-62.9255
11
140.581
21
-62.9557
0
LINE
8
Black
10
140.581
20
-62.9557
11
140.399
21
-62.9557
0
LINE
8
Black
10
140.399
20
-62.9557
11
140.339
21
-62.9255
0
LINE
8
Black
10
140.339
20
-62.9255
11
140.309
21
-62.8952
0
LINE
8
Black
10
140.309
20
-62.8952
11
140.278
21
-62.8348
0
LINE
8
Black
10
140.278
20
-62.8348
11
140.278
21
-62.744
0
LINE
8
Black
10
140.278
20
-62.744
11
140.309
21
-62.6836
0
LINE
8
Black
10
140.309
20
-62.6836
11
140.339
21
-62.6533
0
LINE
8
Black
10
140.339
20
-62.6533
11
140.399
21
-62.6231
0
LINE
8
Black
10
140.399
20
-62.6231
11
140.581
21
-62.6231
0
LINE
8
Black
10
140.581
20
-62.6231
11
140.641
21
-62.6533
0
LINE
8
Black
10
140.641
20
-62.6533
11
140.671
21
-62.6836
0
LINE
8
Black
10
140.671
20
-62.6836
11
140.702
21
-62.744
0
LINE
8
Black
10
140.702
20
-62.744
11
140.702
21
-62.8348
0
LINE
8
Black
10
140.702
20
-62.351
11
140.278
21
-62.351
0
LINE
8
Black
10
140.399
20
-62.351
11
140.339
21
-62.3207
0
LINE
8
Black
10
140.339
20
-62.3207
11
140.309
21
-62.2905
0
LINE
8
Black
10
140.309
20
-62.2905
11
140.278
21
-62.23
0
LINE
8
Black
10
140.278
20
-62.23
11
140.278
21
-62.1695
0
LINE
8
Black
10
140.702
20
-61.474
11
140.067
21
-61.474
0
LINE
8
Black
10
140.067
20
-61.474
11
140.067
21
-61.3229
0
LINE
8
Black
10
140.067
20
-61.3229
11
140.097
21
-61.2321
0
LINE
8
Black
10
140.097
20
-61.2321
11
140.157
21
-61.1717
0
LINE
8
Black
10
140.157
20
-61.1717
11
140.218
21
-61.1414
0
LINE
8
Black
10
140.218
20
-61.1414
11
140.339
21
-61.1112
0
LINE
8
Black
10
140.339
20
-61.1112
11
140.429
21
-61.1112
0
LINE
8
Black
10
140.429
20
-61.1112
11
140.55
21
-61.1414
0
LINE
8
Black
10
140.55
20
-61.1414
11
140.611
21
-61.1717
0
LINE
8
Black
10
140.611
20
-61.1717
11
140.671
21
-61.2321
0
LINE
8
Black
10
140.671
20
-61.2321
11
140.702
21
-61.3229
0
LINE
8
Black
10
140.702
20
-61.3229
11
140.702
21
-61.474
0
LINE
8
Black
10
140.702
20
-60.839
11
140.278
21
-60.839
0
LINE
8
Black
10
140.067
20
-60.839
11
140.097
21
-60.8693
0
LINE
8
Black
10
140.097
20
-60.8693
11
140.127
21
-60.839
0
LINE
8
Black
10
140.127
20
-60.839
11
140.097
21
-60.8088
0
LINE
8
Black
10
140.097
20
-60.8088
11
140.067
21
-60.839
0
LINE
8
Black
10
140.067
20
-60.839
11
140.127
21
-60.839
0
LINE
8
Black
10
140.278
20
-60.5367
11
140.702
21
-60.5367
0
LINE
8
Black
10
140.339
20
-60.5367
11
140.309
21
-60.5064
0
LINE
8
Black
10
140.309
20
-60.5064
11
140.278
21
-60.4459
0
LINE
8
Black
10
140.278
20
-60.4459
11
140.278
21
-60.3552
0
LINE
8
Black
10
140.278
20
-60.3552
11
140.309
21
-60.2948
0
LINE
8
Black
10
140.309
20
-60.2948
11
140.369
21
-60.2645
0
LINE
8
Black
10
140.369
20
-60.2645
11
140.702
21
-60.2645
0
LINE
8
Black
10
140.369
20
-59.9621
11
140.369
21
-59.4783
0
LINE
8
Black
10
140.55
20
-59.4783
11
140.55
21
-59.9621
0
LINE
8
Black
10
140.702
20
-59.176
11
140.067
21
-59.176
0
LINE
8
Black
10
140.067
20
-59.176
11
140.067
21
-58.934
0
LINE
8
Black
10
140.067
20
-58.934
11
140.097
21
-58.8736
0
LINE
8
Black
10
140.097
20
-58.8736
11
140.127
21
-58.8433
0
LINE
8
Black
10
140.127
20
-58.8433
11
140.188
21
-58.8131
0
LINE
8
Black
10
140.188
20
-58.8131
11
140.278
21
-58.8131
0
LINE
8
Black
10
140.278
20
-58.8131
11
140.339
21
-58.8433
0
LINE
8
Black
10
140.339
20
-58.8433
11
140.369
21
-58.8736
0
LINE
8
Black
10
140.369
20
-58.8736
11
140.399
21
-58.934
0
LINE
8
Black
10
140.399
20
-58.934
11
140.399
21
-59.176
0
LINE
8
Black
10
140.641
20
-58.1781
11
140.671
21
-58.2083
0
LINE
8
Black
10
140.671
20
-58.2083
11
140.702
21
-58.299
0
LINE
8
Black
10
140.702
20
-58.299
11
140.702
21
-58.3595
0
LINE
8
Black
10
140.702
20
-58.3595
11
140.671
21
-58.4502
0
LINE
8
Black
10
140.671
20
-58.4502
11
140.611
21
-58.5107
0
LINE
8
Black
10
140.611
20
-58.5107
11
140.55
21
-58.541
0
LINE
8
Black
10
140.55
20
-58.541
11
140.429
21
-58.5712
0
LINE
8
Black
10
140.429
20
-58.5712
11
140.339
21
-58.5712
0
LINE
8
Black
10
140.339
20
-58.5712
11
140.218
21
-58.541
0
LINE
8
Black
10
140.218
20
-58.541
11
140.157
21
-58.5107
0
LINE
8
Black
10
140.157
20
-58.5107
11
140.097
21
-58.4502
0
LINE
8
Black
10
140.097
20
-58.4502
11
140.067
21
-58.3595
0
LINE
8
Black
10
140.067
20
-58.3595
11
140.067
21
-58.299
0
LINE
8
Black
10
140.067
20
-58.299
11
140.097
21
-58.2083
0
LINE
8
Black
10
140.097
20
-58.2083
11
140.127
21
-58.1781
0
LINE
8
Black
10
140.067
20
-57.9664
11
140.067
21
-57.5733
0
LINE
8
Black
10
140.067
20
-57.5733
11
140.309
21
-57.785
0
LINE
8
Black
10
140.309
20
-57.785
11
140.309
21
-57.6943
0
LINE
8
Black
10
140.309
20
-57.6943
11
140.339
21
-57.6338
0
LINE
8
Black
10
140.339
20
-57.6338
11
140.369
21
-57.6036
0
LINE
8
Black
10
140.369
20
-57.6036
11
140.429
21
-57.5733
0
LINE
8
Black
10
140.429
20
-57.5733
11
140.581
21
-57.5733
0
LINE
8
Black
10
140.581
20
-57.5733
11
140.641
21
-57.6036
0
LINE
8
Black
10
140.641
20
-57.6036
11
140.671
21
-57.6338
0
LINE
8
Black
10
140.671
20
-57.6338
11
140.702
21
-57.6943
0
LINE
8
Black
10
140.702
20
-57.6943
11
140.702
21
-57.8757
0
LINE
8
Black
10
140.702
20
-57.8757
11
140.671
21
-57.9362
0
LINE
8
Black
10
140.671
20
-57.9362
11
140.641
21
-57.9664
0
LINE
8
Black
10
141.783
20
-80.1461
11
141.813
21
-80.0554
0
LINE
8
Black
10
141.813
20
-80.0554
11
141.813
21
-79.9042
0
LINE
8
Black
10
141.813
20
-79.9042
11
141.783
21
-79.8437
0
LINE
8
Black
10
141.783
20
-79.8437
11
141.752
21
-79.8135
0
LINE
8
Black
10
141.752
20
-79.8135
11
141.692
21
-79.7832
0
LINE
8
Black
10
141.692
20
-79.7832
11
141.631
21
-79.7832
0
LINE
8
Black
10
141.631
20
-79.7832
11
141.571
21
-79.8135
0
LINE
8
Black
10
141.571
20
-79.8135
11
141.541
21
-79.8437
0
LINE
8
Black
10
141.541
20
-79.8437
11
141.511
21
-79.9042
0
LINE
8
Black
10
141.511
20
-79.9042
11
141.48
21
-80.0251
0
LINE
8
Black
10
141.48
20
-80.0251
11
141.45
21
-80.0856
0
LINE
8
Black
10
141.45
20
-80.0856
11
141.42
21
-80.1158
0
LINE
8
Black
10
141.42
20
-80.1158
11
141.359
21
-80.1461
0
LINE
8
Black
10
141.359
20
-80.1461
11
141.299
21
-80.1461
0
LINE
8
Black
10
141.299
20
-80.1461
11
141.238
21
-80.1158
0
LINE
8
Black
10
141.238
20
-80.1158
11
141.208
21
-80.0856
0
LINE
8
Black
10
141.208
20
-80.0856
11
141.178
21
-80.0251
0
LINE
8
Black
10
141.178
20
-80.0251
11
141.178
21
-79.8739
0
LINE
8
Black
10
141.178
20
-79.8739
11
141.208
21
-79.7832
0
LINE
8
Black
10
141.813
20
-79.5111
11
141.178
21
-79.5111
0
LINE
8
Black
10
141.813
20
-79.2389
11
141.48
21
-79.2389
0
LINE
8
Black
10
141.48
20
-79.2389
11
141.42
21
-79.2692
0
LINE
8
Black
10
141.42
20
-79.2692
11
141.39
21
-79.3296
0
LINE
8
Black
10
141.39
20
-79.3296
11
141.39
21
-79.4204
0
LINE
8
Black
10
141.39
20
-79.4204
11
141.42
21
-79.4808
0
LINE
8
Black
10
141.42
20
-79.4808
11
141.45
21
-79.5111
0
LINE
8
Black
10
141.813
20
-78.8458
11
141.783
21
-78.9063
0
LINE
8
Black
10
141.783
20
-78.9063
11
141.752
21
-78.9365
0
LINE
8
Black
10
141.752
20
-78.9365
11
141.692
21
-78.9668
0
LINE
8
Black
10
141.692
20
-78.9668
11
141.511
21
-78.9668
0
LINE
8
Black
10
141.511
20
-78.9668
11
141.45
21
-78.9365
0
LINE
8
Black
10
141.45
20
-78.9365
11
141.42
21
-78.9063
0
LINE
8
Black
10
141.42
20
-78.9063
11
141.39
21
-78.8458
0
LINE
8
Black
10
141.39
20
-78.8458
11
141.39
21
-78.7551
0
LINE
8
Black
10
141.39
20
-78.7551
11
141.42
21
-78.6946
0
LINE
8
Black
10
141.42
20
-78.6946
11
141.45
21
-78.6644
0
LINE
8
Black
10
141.45
20
-78.6644
11
141.511
21
-78.6342
0
LINE
8
Black
10
141.511
20
-78.6342
11
141.692
21
-78.6342
0
LINE
8
Black
10
141.692
20
-78.6342
11
141.752
21
-78.6644
0
LINE
8
Black
10
141.752
20
-78.6644
11
141.783
21
-78.6946
0
LINE
8
Black
10
141.783
20
-78.6946
11
141.813
21
-78.7551
0
LINE
8
Black
10
141.813
20
-78.7551
11
141.813
21
-78.8458
0
LINE
8
Black
10
141.813
20
-78.362
11
141.39
21
-78.362
0
LINE
8
Black
10
141.511
20
-78.362
11
141.45
21
-78.3318
0
LINE
8
Black
10
141.45
20
-78.3318
11
141.42
21
-78.3015
0
LINE
8
Black
10
141.42
20
-78.3015
11
141.39
21
-78.2411
0
LINE
8
Black
10
141.39
20
-78.2411
11
141.39
21
-78.1806
0
LINE
8
Black
10
141.39
20
-78.0596
11
141.39
21
-77.8177
0
LINE
8
Black
10
141.178
20
-77.9689
11
141.722
21
-77.9689
0
LINE
8
Black
10
141.722
20
-77.9689
11
141.783
21
-77.9387
0
LINE
8
Black
10
141.783
20
-77.9387
11
141.813
21
-77.8782
0
LINE
8
Black
10
141.813
20
-77.8782
11
141.813
21
-77.8177
0
LINE
8
Black
10
141.39
20
-76.8501
11
141.813
21
-76.8501
0
LINE
8
Black
10
141.148
20
-77.0013
11
141.601
21
-77.1525
0
LINE
8
Black
10
141.601
20
-77.1525
11
141.601
21
-76.7594
0
LINE
8
Black
10
141.571
20
-76.5175
11
141.571
21
-76.0337
0
LINE
8
Black
10
141.178
20
-75.4289
11
141.178
21
-75.7313
0
LINE
8
Black
10
141.178
20
-75.7313
11
141.48
21
-75.7615
0
LINE
8
Black
10
141.48
20
-75.7615
11
141.45
21
-75.7313
0
LINE
8
Black
10
141.45
20
-75.7313
11
141.42
21
-75.6708
0
LINE
8
Black
10
141.42
20
-75.6708
11
141.42
21
-75.5196
0
LINE
8
Black
10
141.42
20
-75.5196
11
141.45
21
-75.4592
0
LINE
8
Black
10
141.45
20
-75.4592
11
141.48
21
-75.4289
0
LINE
8
Black
10
141.48
20
-75.4289
11
141.541
21
-75.3987
0
LINE
8
Black
10
141.541
20
-75.3987
11
141.692
21
-75.3987
0
LINE
8
Black
10
141.692
20
-75.3987
11
141.752
21
-75.4289
0
LINE
8
Black
10
141.752
20
-75.4289
11
141.783
21
-75.4592
0
LINE
8
Black
10
141.783
20
-75.4592
11
141.813
21
-75.5196
0
LINE
8
Black
10
141.813
20
-75.5196
11
141.813
21
-75.6708
0
LINE
8
Black
10
141.813
20
-75.6708
11
141.783
21
-75.7313
0
LINE
8
Black
10
141.783
20
-75.7313
11
141.752
21
-75.7615
0
LINE
8
Black
10
141.39
20
-74.7335
11
141.39
21
-74.4915
0
LINE
8
Black
10
141.813
20
-74.6427
11
141.269
21
-74.6427
0
LINE
8
Black
10
141.269
20
-74.6427
11
141.208
21
-74.6125
0
LINE
8
Black
10
141.208
20
-74.6125
11
141.178
21
-74.552
0
LINE
8
Black
10
141.178
20
-74.552
11
141.178
21
-74.4915
0
LINE
8
Black
10
141.813
20
-74.1892
11
141.783
21
-74.2496
0
LINE
8
Black
10
141.783
20
-74.2496
11
141.752
21
-74.2799
0
LINE
8
Black
10
141.752
20
-74.2799
11
141.692
21
-74.3101
0
LINE
8
Black
10
141.692
20
-74.3101
11
141.511
21
-74.3101
0
LINE
8
Black
10
141.511
20
-74.3101
11
141.45
21
-74.2799
0
LINE
8
Black
10
141.45
20
-74.2799
11
141.42
21
-74.2496
0
LINE
8
Black
10
141.42
20
-74.2496
11
141.39
21
-74.1892
0
LINE
8
Black
10
141.39
20
-74.1892
11
141.39
21
-74.0985
0
LINE
8
Black
10
141.39
20
-74.0985
11
141.42
21
-74.038
0
LINE
8
Black
10
141.42
20
-74.038
11
141.45
21
-74.0077
0
LINE
8
Black
10
141.45
20
-74.0077
11
141.511
21
-73.9775
0
LINE
8
Black
10
141.511
20
-73.9775
11
141.692
21
-73.9775
0
LINE
8
Black
10
141.692
20
-73.9775
11
141.752
21
-74.0077
0
LINE
8
Black
10
141.752
20
-74.0077
11
141.783
21
-74.038
0
LINE
8
Black
10
141.783
20
-74.038
11
141.813
21
-74.0985
0
LINE
8
Black
10
141.813
20
-74.0985
11
141.813
21
-74.1892
0
LINE
8
Black
10
141.813
20
-73.7054
11
141.39
21
-73.7054
0
LINE
8
Black
10
141.511
20
-73.7054
11
141.45
21
-73.6751
0
LINE
8
Black
10
141.45
20
-73.6751
11
141.42
21
-73.6449
0
LINE
8
Black
10
141.42
20
-73.6449
11
141.39
21
-73.5844
0
LINE
8
Black
10
141.39
20
-73.5844
11
141.39
21
-73.5239
0
LINE
8
Black
10
141.39
20
-72.5563
11
141.813
21
-72.5563
0
LINE
8
Black
10
141.148
20
-72.7075
11
141.601
21
-72.8587
0
LINE
8
Black
10
141.601
20
-72.8587
11
141.601
21
-72.4656
0
LINE
8
Black
10
141.178
20
-72.1027
11
141.178
21
-72.0423
0
LINE
8
Black
10
141.178
20
-72.0423
11
141.208
21
-71.9818
0
LINE
8
Black
10
141.208
20
-71.9818
11
141.238
21
-71.9515
0
LINE
8
Black
10
141.238
20
-71.9515
11
141.299
21
-71.9213
0
LINE
8
Black
10
141.299
20
-71.9213
11
141.42
21
-71.8911
0
LINE
8
Black
10
141.42
20
-71.8911
11
141.571
21
-71.8911
0
LINE
8
Black
10
141.571
20
-71.8911
11
141.692
21
-71.9213
0
LINE
8
Black
10
141.692
20
-71.9213
11
141.752
21
-71.9515
0
LINE
8
Black
10
141.752
20
-71.9515
11
141.783
21
-71.9818
0
LINE
8
Black
10
141.783
20
-71.9818
11
141.813
21
-72.0423
0
LINE
8
Black
10
141.813
20
-72.0423
11
141.813
21
-72.1027
0
LINE
8
Black
10
141.813
20
-72.1027
11
141.783
21
-72.1632
0
LINE
8
Black
10
141.783
20
-72.1632
11
141.752
21
-72.1935
0
LINE
8
Black
10
141.752
20
-72.1935
11
141.692
21
-72.2237
0
LINE
8
Black
10
141.692
20
-72.2237
11
141.571
21
-72.2539
0
LINE
8
Black
10
141.571
20
-72.2539
11
141.42
21
-72.2539
0
LINE
8
Black
10
141.42
20
-72.2539
11
141.299
21
-72.2237
0
LINE
8
Black
10
141.299
20
-72.2237
11
141.238
21
-72.1935
0
LINE
8
Black
10
141.238
20
-72.1935
11
141.208
21
-72.1632
0
LINE
8
Black
10
141.208
20
-72.1632
11
141.178
21
-72.1027
0
LINE
8
Black
10
141.178
20
-71.498
11
141.178
21
-71.4375
0
LINE
8
Black
10
141.178
20
-71.4375
11
141.208
21
-71.377
0
LINE
8
Black
10
141.208
20
-71.377
11
141.238
21
-71.3468
0
LINE
8
Black
10
141.238
20
-71.3468
11
141.299
21
-71.3165
0
LINE
8
Black
10
141.299
20
-71.3165
11
141.42
21
-71.2863
0
LINE
8
Black
10
141.42
20
-71.2863
11
141.571
21
-71.2863
0
LINE
8
Black
10
141.571
20
-71.2863
11
141.692
21
-71.3165
0
LINE
8
Black
10
141.692
20
-71.3165
11
141.752
21
-71.3468
0
LINE
8
Black
10
141.752
20
-71.3468
11
141.783
21
-71.377
0
LINE
8
Black
10
141.783
20
-71.377
11
141.813
21
-71.4375
0
LINE
8
Black
10
141.813
20
-71.4375
11
141.813
21
-71.498
0
LINE
8
Black
10
141.813
20
-71.498
11
141.783
21
-71.5585
0
LINE
8
Black
10
141.783
20
-71.5585
11
141.752
21
-71.5887
0
LINE
8
Black
10
141.752
20
-71.5887
11
141.692
21
-71.6189
0
LINE
8
Black
10
141.692
20
-71.6189
11
141.571
21
-71.6492
0
LINE
8
Black
10
141.571
20
-71.6492
11
141.42
21
-71.6492
0
LINE
8
Black
10
141.42
20
-71.6492
11
141.299
21
-71.6189
0
LINE
8
Black
10
141.299
20
-71.6189
11
141.238
21
-71.5887
0
LINE
8
Black
10
141.238
20
-71.5887
11
141.208
21
-71.5585
0
LINE
8
Black
10
141.208
20
-71.5585
11
141.178
21
-71.498
0
LINE
8
Black
10
141.813
20
-71.0142
11
141.178
21
-71.0142
0
LINE
8
Black
10
141.813
20
-70.6513
11
141.45
21
-70.9235
0
LINE
8
Black
10
141.178
20
-70.6513
11
141.541
21
-71.0142
0
LINE
8
Black
10
141.813
20
-70.3792
11
141.178
21
-70.3792
0
LINE
8
Black
10
141.48
20
-70.3792
11
141.48
21
-70.0163
0
LINE
8
Black
10
141.813
20
-70.0163
11
141.178
21
-70.0163
0
LINE
8
Black
10
141.39
20
-69.7744
11
141.39
21
-69.4418
0
LINE
8
Black
10
141.39
20
-69.4418
11
141.813
21
-69.7744
0
LINE
8
Black
10
141.813
20
-69.7744
11
141.813
21
-69.4418
0
LINE
8
Black
10
141.148
20
-68.2625
11
141.964
21
-68.8068
0
LINE
8
Black
10
141.178
20
-67.4461
11
141.178
21
-67.3251
0
LINE
8
Black
10
141.178
20
-67.3251
11
141.208
21
-67.2646
0
LINE
8
Black
10
141.208
20
-67.2646
11
141.269
21
-67.2042
0
LINE
8
Black
10
141.269
20
-67.2042
11
141.39
21
-67.1739
0
LINE
8
Black
10
141.39
20
-67.1739
11
141.601
21
-67.1739
0
LINE
8
Black
10
141.601
20
-67.1739
11
141.722
21
-67.2042
0
LINE
8
Black
10
141.722
20
-67.2042
11
141.783
21
-67.2646
0
LINE
8
Black
10
141.783
20
-67.2646
11
141.813
21
-67.3251
0
LINE
8
Black
10
141.813
20
-67.3251
11
141.813
21
-67.4461
0
LINE
8
Black
10
141.813
20
-67.4461
11
141.783
21
-67.5065
0
LINE
8
Black
10
141.783
20
-67.5065
11
141.722
21
-67.567
0
LINE
8
Black
10
141.722
20
-67.567
11
141.601
21
-67.5973
0
LINE
8
Black
10
141.601
20
-67.5973
11
141.39
21
-67.5973
0
LINE
8
Black
10
141.39
20
-67.5973
11
141.269
21
-67.567
0
LINE
8
Black
10
141.269
20
-67.567
11
141.208
21
-67.5065
0
LINE
8
Black
10
141.208
20
-67.5065
11
141.178
21
-67.4461
0
LINE
8
Black
10
141.39
20
-66.9018
11
142.025
21
-66.9018
0
LINE
8
Black
10
141.42
20
-66.9018
11
141.39
21
-66.8413
0
LINE
8
Black
10
141.39
20
-66.8413
11
141.39
21
-66.7204
0
LINE
8
Black
10
141.39
20
-66.7204
11
141.42
21
-66.6599
0
LINE
8
Black
10
141.42
20
-66.6599
11
141.45
21
-66.6296
0
LINE
8
Black
10
141.45
20
-66.6296
11
141.511
21
-66.5994
0
LINE
8
Black
10
141.511
20
-66.5994
11
141.692
21
-66.5994
0
LINE
8
Black
10
141.692
20
-66.5994
11
141.752
21
-66.6296
0
LINE
8
Black
10
141.752
20
-66.6296
11
141.783
21
-66.6599
0
LINE
8
Black
10
141.783
20
-66.6599
11
141.813
21
-66.7204
0
LINE
8
Black
10
141.813
20
-66.7204
11
141.813
21
-66.8413
0
LINE
8
Black
10
141.813
20
-66.8413
11
141.783
21
-66.9018
0
LINE
8
Black
10
141.783
20
-66.0854
11
141.813
21
-66.1458
0
LINE
8
Black
10
141.813
20
-66.1458
11
141.813
21
-66.2668
0
LINE
8
Black
10
141.813
20
-66.2668
11
141.783
21
-66.3273
0
LINE
8
Black
10
141.783
20
-66.3273
11
141.722
21
-66.3575
0
LINE
8
Black
10
141.722
20
-66.3575
11
141.48
21
-66.3575
0
LINE
8
Black
10
141.48
20
-66.3575
11
141.42
21
-66.3273
0
LINE
8
Black
10
141.42
20
-66.3273
11
141.39
21
-66.2668
0
LINE
8
Black
10
141.39
20
-66.2668
11
141.39
21
-66.1458
0
LINE
8
Black
10
141.39
20
-66.1458
11
141.42
21
-66.0854
0
LINE
8
Black
10
141.42
20
-66.0854
11
141.48
21
-66.0551
0
LINE
8
Black
10
141.48
20
-66.0551
11
141.541
21
-66.0551
0
LINE
8
Black
10
141.541
20
-66.0551
11
141.601
21
-66.3575
0
LINE
8
Black
10
141.39
20
-65.783
11
141.813
21
-65.783
0
LINE
8
Black
10
141.45
20
-65.783
11
141.42
21
-65.7527
0
LINE
8
Black
10
141.42
20
-65.7527
11
141.39
21
-65.6923
0
LINE
8
Black
10
141.39
20
-65.6923
11
141.39
21
-65.6015
0
LINE
8
Black
10
141.39
20
-65.6015
11
141.42
21
-65.5411
0
LINE
8
Black
10
141.42
20
-65.5411
11
141.48
21
-65.5108
0
LINE
8
Black
10
141.48
20
-65.5108
11
141.813
21
-65.5108
0
LINE
8
Black
10
141.39
20
-64.8154
11
141.39
21
-64.5735
0
LINE
8
Black
10
141.813
20
-64.7246
11
141.269
21
-64.7246
0
LINE
8
Black
10
141.269
20
-64.7246
11
141.208
21
-64.6944
0
LINE
8
Black
10
141.208
20
-64.6944
11
141.178
21
-64.6339
0
LINE
8
Black
10
141.178
20
-64.6339
11
141.178
21
-64.5735
0
LINE
8
Black
10
141.813
20
-64.2711
11
141.783
21
-64.3315
0
LINE
8
Black
10
141.783
20
-64.3315
11
141.752
21
-64.3618
0
LINE
8
Black
10
141.752
20
-64.3618
11
141.692
21
-64.392
0
LINE
8
Black
10
141.692
20
-64.392
11
141.511
21
-64.392
0
LINE
8
Black
10
141.511
20
-64.392
11
141.45
21
-64.3618
0
LINE
8
Black
10
141.45
20
-64.3618
11
141.42
21
-64.3315
0
LINE
8
Black
10
141.42
20
-64.3315
11
141.39
21
-64.2711
0
LINE
8
Black
10
141.39
20
-64.2711
11
141.39
21
-64.1804
0
LINE
8
Black
10
141.39
20
-64.1804
11
141.42
21
-64.1199
0
LINE
8
Black
10
141.42
20
-64.1199
11
141.45
21
-64.0896
0
LINE
8
Black
10
141.45
20
-64.0896
11
141.511
21
-64.0594
0
LINE
8
Black
10
141.511
20
-64.0594
11
141.692
21
-64.0594
0
LINE
8
Black
10
141.692
20
-64.0594
11
141.752
21
-64.0896
0
LINE
8
Black
10
141.752
20
-64.0896
11
141.783
21
-64.1199
0
LINE
8
Black
10
141.783
20
-64.1199
11
141.813
21
-64.1804
0
LINE
8
Black
10
141.813
20
-64.1804
11
141.813
21
-64.2711
0
LINE
8
Black
10
141.813
20
-63.7873
11
141.39
21
-63.7873
0
LINE
8
Black
10
141.511
20
-63.7873
11
141.45
21
-63.757
0
LINE
8
Black
10
141.45
20
-63.757
11
141.42
21
-63.7268
0
LINE
8
Black
10
141.42
20
-63.7268
11
141.39
21
-63.6663
0
LINE
8
Black
10
141.39
20
-63.6663
11
141.39
21
-63.6058
0
LINE
8
Black
10
141.45
20
-62.8196
11
141.42
21
-62.8801
0
LINE
8
Black
10
141.42
20
-62.8801
11
141.39
21
-62.9104
0
LINE
8
Black
10
141.39
20
-62.9104
11
141.329
21
-62.9406
0
LINE
8
Black
10
141.329
20
-62.9406
11
141.299
21
-62.9406
0
LINE
8
Black
10
141.299
20
-62.9406
11
141.238
21
-62.9104
0
LINE
8
Black
10
141.238
20
-62.9104
11
141.208
21
-62.8801
0
LINE
8
Black
10
141.208
20
-62.8801
11
141.178
21
-62.8196
0
LINE
8
Black
10
141.178
20
-62.8196
11
141.178
21
-62.6987
0
LINE
8
Black
10
141.178
20
-62.6987
11
141.208
21
-62.6382
0
LINE
8
Black
10
141.208
20
-62.6382
11
141.238
21
-62.608
0
LINE
8
Black
10
141.238
20
-62.608
11
141.299
21
-62.5777
0
LINE
8
Black
10
141.299
20
-62.5777
11
141.329
21
-62.5777
0
LINE
8
Black
10
141.329
20
-62.5777
11
141.39
21
-62.608
0
LINE
8
Black
10
141.39
20
-62.608
11
141.42
21
-62.6382
0
LINE
8
Black
10
141.42
20
-62.6382
11
141.45
21
-62.6987
0
LINE
8
Black
10
141.45
20
-62.6987
11
141.45
21
-62.8196
0
LINE
8
Black
10
141.45
20
-62.8196
11
141.48
21
-62.8801
0
LINE
8
Black
10
141.48
20
-62.8801
11
141.511
21
-62.9104
0
LINE
8
Black
10
141.511
20
-62.9104
11
141.571
21
-62.9406
0
LINE
8
Black
10
141.571
20
-62.9406
11
141.692
21
-62.9406
0
LINE
8
Black
10
141.692
20
-62.9406
11
141.752
21
-62.9104
0
LINE
8
Black
10
141.752
20
-62.9104
11
141.783
21
-62.8801
0
LINE
8
Black
10
141.783
20
-62.8801
11
141.813
21
-62.8196
0
LINE
8
Black
10
141.813
20
-62.8196
11
141.813
21
-62.6987
0
LINE
8
Black
10
141.813
20
-62.6987
11
141.783
21
-62.6382
0
LINE
8
Black
10
141.783
20
-62.6382
11
141.752
21
-62.608
0
LINE
8
Black
10
141.752
20
-62.608
11
141.692
21
-62.5777
0
LINE
8
Black
10
141.692
20
-62.5777
11
141.571
21
-62.5777
0
LINE
8
Black
10
141.571
20
-62.5777
11
141.511
21
-62.608
0
LINE
8
Black
10
141.511
20
-62.608
11
141.48
21
-62.6382
0
LINE
8
Black
10
141.48
20
-62.6382
11
141.45
21
-62.6987
0
LINE
8
Black
10
141.178
20
-62.1846
11
141.178
21
-62.1242
0
LINE
8
Black
10
141.178
20
-62.1242
11
141.208
21
-62.0637
0
LINE
8
Black
10
141.208
20
-62.0637
11
141.238
21
-62.0335
0
LINE
8
Black
10
141.238
20
-62.0335
11
141.299
21
-62.0032
0
LINE
8
Black
10
141.299
20
-62.0032
11
141.42
21
-61.973
0
LINE
8
Black
10
141.42
20
-61.973
11
141.571
21
-61.973
0
LINE
8
Black
10
141.571
20
-61.973
11
141.692
21
-62.0032
0
LINE
8
Black
10
141.692
20
-62.0032
11
141.752
21
-62.0335
0
LINE
8
Black
10
141.752
20
-62.0335
11
141.783
21
-62.0637
0
LINE
8
Black
10
141.783
20
-62.0637
11
141.813
21
-62.1242
0
LINE
8
Black
10
141.813
20
-62.1242
11
141.813
21
-62.1846
0
LINE
8
Black
10
141.813
20
-62.1846
11
141.783
21
-62.2451
0
LINE
8
Black
10
141.783
20
-62.2451
11
141.752
21
-62.2754
0
LINE
8
Black
10
141.752
20
-62.2754
11
141.692
21
-62.3056
0
LINE
8
Black
10
141.692
20
-62.3056
11
141.571
21
-62.3358
0
LINE
8
Black
10
141.571
20
-62.3358
11
141.42
21
-62.3358
0
LINE
8
Black
10
141.42
20
-62.3358
11
141.299
21
-62.3056
0
LINE
8
Black
10
141.299
20
-62.3056
11
141.238
21
-62.2754
0
LINE
8
Black
10
141.238
20
-62.2754
11
141.208
21
-62.2451
0
LINE
8
Black
10
141.208
20
-62.2451
11
141.178
21
-62.1846
0
LINE
8
Black
10
141.178
20
-61.5799
11
141.178
21
-61.5194
0
LINE
8
Black
10
141.178
20
-61.5194
11
141.208
21
-61.4589
0
LINE
8
Black
10
141.208
20
-61.4589
11
141.238
21
-61.4287
0
LINE
8
Black
10
141.238
20
-61.4287
11
141.299
21
-61.3985
0
LINE
8
Black
10
141.299
20
-61.3985
11
141.42
21
-61.3682
0
LINE
8
Black
10
141.42
20
-61.3682
11
141.571
21
-61.3682
0
LINE
8
Black
10
141.571
20
-61.3682
11
141.692
21
-61.3985
0
LINE
8
Black
10
141.692
20
-61.3985
11
141.752
21
-61.4287
0
LINE
8
Black
10
141.752
20
-61.4287
11
141.783
21
-61.4589
0
LINE
8
Black
10
141.783
20
-61.4589
11
141.813
21
-61.5194
0
LINE
8
Black
10
141.813
20
-61.5194
11
141.813
21
-61.5799
0
LINE
8
Black
10
141.813
20
-61.5799
11
141.783
21
-61.6404
0
LINE
8
Black
10
141.783
20
-61.6404
11
141.752
21
-61.6706
0
LINE
8
Black
10
141.752
20
-61.6706
11
141.692
21
-61.7008
0
LINE
8
Black
10
141.692
20
-61.7008
11
141.571
21
-61.7311
0
LINE
8
Black
10
141.571
20
-61.7311
11
141.42
21
-61.7311
0
LINE
8
Black
10
141.42
20
-61.7311
11
141.299
21
-61.7008
0
LINE
8
Black
10
141.299
20
-61.7008
11
141.238
21
-61.6706
0
LINE
8
Black
10
141.238
20
-61.6706
11
141.208
21
-61.6404
0
LINE
8
Black
10
141.208
20
-61.6404
11
141.178
21
-61.5799
0
LINE
8
Black
10
141.813
20
-61.0961
11
141.178
21
-61.0961
0
LINE
8
Black
10
141.813
20
-60.7332
11
141.45
21
-61.0054
0
LINE
8
Black
10
141.178
20
-60.7332
11
141.541
21
-61.0961
0
LINE
8
Black
10
141.813
20
-60.4611
11
141.178
21
-60.4611
0
LINE
8
Black
10
141.48
20
-60.4611
11
141.48
21
-60.0982
0
LINE
8
Black
10
141.813
20
-60.0982
11
141.178
21
-60.0982
0
LINE
8
Black
10
141.39
20
-59.8563
11
141.39
21
-59.5237
0
LINE
8
Black
10
141.39
20
-59.5237
11
141.813
21
-59.8563
0
LINE
8
Black
10
141.813
20
-59.8563
11
141.813
21
-59.5237
0
ARC
8
Black
10
114.935
20
-78.867
40
1.27
50
-0
51
90
0
LINE
8
Black
10
116.205
20
-78.867
11
116.205
21
-87.63
0
LINE
8
Black
10
109.855
20
-77.597
11
114.935
21
-77.597
0
LINE
8
Black
10
115.038
20
-68.3593
11
115.038
21
-67.7243
0
LINE
8
Black
10
115.038
20
-67.7243
11
115.28
21
-67.7243
0
LINE
8
Black
10
115.28
20
-67.7243
11
115.34
21
-67.7545
0
LINE
8
Black
10
115.34
20
-67.7545
11
115.37
21
-67.7847
0
LINE
8
Black
10
115.37
20
-67.7847
11
115.401
21
-67.8452
0
LINE
8
Black
10
115.401
20
-67.8452
11
115.401
21
-67.9359
0
LINE
8
Black
10
115.401
20
-67.9359
11
115.37
21
-67.9964
0
LINE
8
Black
10
115.37
20
-67.9964
11
115.34
21
-68.0266
0
LINE
8
Black
10
115.34
20
-68.0266
11
115.28
21
-68.0569
0
LINE
8
Black
10
115.28
20
-68.0569
11
115.038
21
-68.0569
0
LINE
8
Black
10
116.036
20
-68.2988
11
116.005
21
-68.329
0
LINE
8
Black
10
116.005
20
-68.329
11
115.915
21
-68.3593
0
LINE
8
Black
10
115.915
20
-68.3593
11
115.854
21
-68.3593
0
LINE
8
Black
10
115.854
20
-68.3593
11
115.764
21
-68.329
0
LINE
8
Black
10
115.764
20
-68.329
11
115.703
21
-68.2685
0
LINE
8
Black
10
115.703
20
-68.2685
11
115.673
21
-68.2081
0
LINE
8
Black
10
115.673
20
-68.2081
11
115.643
21
-68.0871
0
LINE
8
Black
10
115.643
20
-68.0871
11
115.643
21
-67.9964
0
LINE
8
Black
10
115.643
20
-67.9964
11
115.673
21
-67.8755
0
LINE
8
Black
10
115.673
20
-67.8755
11
115.703
21
-67.815
0
LINE
8
Black
10
115.703
20
-67.815
11
115.764
21
-67.7545
0
LINE
8
Black
10
115.764
20
-67.7545
11
115.854
21
-67.7243
0
LINE
8
Black
10
115.854
20
-67.7243
11
115.915
21
-67.7243
0
LINE
8
Black
10
115.915
20
-67.7243
11
116.005
21
-67.7545
0
LINE
8
Black
10
116.005
20
-67.7545
11
116.036
21
-67.7847
0
LINE
8
Black
10
116.429
20
-67.7243
11
116.489
21
-67.7243
0
LINE
8
Black
10
116.489
20
-67.7243
11
116.55
21
-67.7545
0
LINE
8
Black
10
116.55
20
-67.7545
11
116.58
21
-67.7847
0
LINE
8
Black
10
116.58
20
-67.7847
11
116.61
21
-67.8452
0
LINE
8
Black
10
116.61
20
-67.8452
11
116.64
21
-67.9662
0
LINE
8
Black
10
116.64
20
-67.9662
11
116.64
21
-68.1174
0
LINE
8
Black
10
116.64
20
-68.1174
11
116.61
21
-68.2383
0
LINE
8
Black
10
116.61
20
-68.2383
11
116.58
21
-68.2988
0
LINE
8
Black
10
116.58
20
-68.2988
11
116.55
21
-68.329
0
LINE
8
Black
10
116.55
20
-68.329
11
116.489
21
-68.3593
0
LINE
8
Black
10
116.489
20
-68.3593
11
116.429
21
-68.3593
0
LINE
8
Black
10
116.429
20
-68.3593
11
116.368
21
-68.329
0
LINE
8
Black
10
116.368
20
-68.329
11
116.338
21
-68.2988
0
LINE
8
Black
10
116.338
20
-68.2988
11
116.308
21
-68.2383
0
LINE
8
Black
10
116.308
20
-68.2383
11
116.278
21
-68.1174
0
LINE
8
Black
10
116.278
20
-68.1174
11
116.278
21
-67.9662
0
LINE
8
Black
10
116.278
20
-67.9662
11
116.308
21
-67.8452
0
LINE
8
Black
10
116.308
20
-67.8452
11
116.338
21
-67.7847
0
LINE
8
Black
10
116.338
20
-67.7847
11
116.368
21
-67.7545
0
LINE
8
Black
10
116.368
20
-67.7545
11
116.429
21
-67.7243
0
LINE
8
Black
10
115.038
20
-70.8993
11
115.038
21
-70.2643
0
LINE
8
Black
10
115.038
20
-70.2643
11
115.28
21
-70.2643
0
LINE
8
Black
10
115.28
20
-70.2643
11
115.34
21
-70.2945
0
LINE
8
Black
10
115.34
20
-70.2945
11
115.37
21
-70.3247
0
LINE
8
Black
10
115.37
20
-70.3247
11
115.401
21
-70.3852
0
LINE
8
Black
10
115.401
20
-70.3852
11
115.401
21
-70.4759
0
LINE
8
Black
10
115.401
20
-70.4759
11
115.37
21
-70.5364
0
LINE
8
Black
10
115.37
20
-70.5364
11
115.34
21
-70.5666
0
LINE
8
Black
10
115.34
20
-70.5666
11
115.28
21
-70.5969
0
LINE
8
Black
10
115.28
20
-70.5969
11
115.038
21
-70.5969
0
LINE
8
Black
10
116.036
20
-70.8388
11
116.005
21
-70.869
0
LINE
8
Black
10
116.005
20
-70.869
11
115.915
21
-70.8993
0
LINE
8
Black
10
115.915
20
-70.8993
11
115.854
21
-70.8993
0
LINE
8
Black
10
115.854
20
-70.8993
11
115.764
21
-70.869
0
LINE
8
Black
10
115.764
20
-70.869
11
115.703
21
-70.8085
0
LINE
8
Black
10
115.703
20
-70.8085
11
115.673
21
-70.7481
0
LINE
8
Black
10
115.673
20
-70.7481
11
115.643
21
-70.6271
0
LINE
8
Black
10
115.643
20
-70.6271
11
115.643
21
-70.5364
0
LINE
8
Black
10
115.643
20
-70.5364
11
115.673
21
-70.4155
0
LINE
8
Black
10
115.673
20
-70.4155
11
115.703
21
-70.355
0
LINE
8
Black
10
115.703
20
-70.355
11
115.764
21
-70.2945
0
LINE
8
Black
10
115.764
20
-70.2945
11
115.854
21
-70.2643
0
LINE
8
Black
10
115.854
20
-70.2643
11
115.915
21
-70.2643
0
LINE
8
Black
10
115.915
20
-70.2643
11
116.005
21
-70.2945
0
LINE
8
Black
10
116.005
20
-70.2945
11
116.036
21
-70.3247
0
LINE
8
Black
10
116.64
20
-70.8993
11
116.278
21
-70.8993
0
LINE
8
Black
10
116.459
20
-70.8993
11
116.459
21
-70.2643
0
LINE
8
Black
10
116.459
20
-70.2643
11
116.399
21
-70.355
0
LINE
8
Black
10
116.399
20
-70.355
11
116.338
21
-70.4155
0
LINE
8
Black
10
116.338
20
-70.4155
11
116.278
21
-70.4457
0
LINE
8
Black
10
115.038
20
-73.4393
11
115.038
21
-72.8043
0
LINE
8
Black
10
115.038
20
-72.8043
11
115.28
21
-72.8043
0
LINE
8
Black
10
115.28
20
-72.8043
11
115.34
21
-72.8345
0
LINE
8
Black
10
115.34
20
-72.8345
11
115.37
21
-72.8647
0
LINE
8
Black
10
115.37
20
-72.8647
11
115.401
21
-72.9252
0
LINE
8
Black
10
115.401
20
-72.9252
11
115.401
21
-73.0159
0
LINE
8
Black
10
115.401
20
-73.0159
11
115.37
21
-73.0764
0
LINE
8
Black
10
115.37
20
-73.0764
11
115.34
21
-73.1066
0
LINE
8
Black
10
115.34
20
-73.1066
11
115.28
21
-73.1369
0
LINE
8
Black
10
115.28
20
-73.1369
11
115.038
21
-73.1369
0
LINE
8
Black
10
116.036
20
-73.3788
11
116.005
21
-73.409
0
LINE
8
Black
10
116.005
20
-73.409
11
115.915
21
-73.4393
0
LINE
8
Black
10
115.915
20
-73.4393
11
115.854
21
-73.4393
0
LINE
8
Black
10
115.854
20
-73.4393
11
115.764
21
-73.409
0
LINE
8
Black
10
115.764
20
-73.409
11
115.703
21
-73.3485
0
LINE
8
Black
10
115.703
20
-73.3485
11
115.673
21
-73.2881
0
LINE
8
Black
10
115.673
20
-73.2881
11
115.643
21
-73.1671
0
LINE
8
Black
10
115.643
20
-73.1671
11
115.643
21
-73.0764
0
LINE
8
Black
10
115.643
20
-73.0764
11
115.673
21
-72.9555
0
LINE
8
Black
10
115.673
20
-72.9555
11
115.703
21
-72.895
0
LINE
8
Black
10
115.703
20
-72.895
11
115.764
21
-72.8345
0
LINE
8
Black
10
115.764
20
-72.8345
11
115.854
21
-72.8043
0
LINE
8
Black
10
115.854
20
-72.8043
11
115.915
21
-72.8043
0
LINE
8
Black
10
115.915
20
-72.8043
11
116.005
21
-72.8345
0
LINE
8
Black
10
116.005
20
-72.8345
11
116.036
21
-72.8647
0
LINE
8
Black
10
116.278
20
-72.8647
11
116.308
21
-72.8345
0
LINE
8
Black
10
116.308
20
-72.8345
11
116.368
21
-72.8043
0
LINE
8
Black
10
116.368
20
-72.8043
11
116.519
21
-72.8043
0
LINE
8
Black
10
116.519
20
-72.8043
11
116.58
21
-72.8345
0
LINE
8
Black
10
116.58
20
-72.8345
11
116.61
21
-72.8647
0
LINE
8
Black
10
116.61
20
-72.8647
11
116.64
21
-72.9252
0
LINE
8
Black
10
116.64
20
-72.9252
11
116.64
21
-72.9857
0
LINE
8
Black
10
116.64
20
-72.9857
11
116.61
21
-73.0764
0
LINE
8
Black
10
116.61
20
-73.0764
11
116.247
21
-73.4393
0
LINE
8
Black
10
116.247
20
-73.4393
11
116.64
21
-73.4393
0
LINE
8
Black
10
115.703
20
-54.8973
11
115.401
21
-54.8973
0
LINE
8
Black
10
115.401
20
-54.8973
11
115.37
21
-55.1996
0
LINE
8
Black
10
115.37
20
-55.1996
11
115.401
21
-55.1694
0
LINE
8
Black
10
115.401
20
-55.1694
11
115.461
21
-55.1392
0
LINE
8
Black
10
115.461
20
-55.1392
11
115.612
21
-55.1392
0
LINE
8
Black
10
115.612
20
-55.1392
11
115.673
21
-55.1694
0
LINE
8
Black
10
115.673
20
-55.1694
11
115.703
21
-55.1996
0
LINE
8
Black
10
115.703
20
-55.1996
11
115.733
21
-55.2601
0
LINE
8
Black
10
115.733
20
-55.2601
11
115.733
21
-55.4113
0
LINE
8
Black
10
115.733
20
-55.4113
11
115.703
21
-55.4718
0
LINE
8
Black
10
115.703
20
-55.4718
11
115.673
21
-55.502
0
LINE
8
Black
10
115.673
20
-55.502
11
115.612
21
-55.5323
0
LINE
8
Black
10
115.612
20
-55.5323
11
115.461
21
-55.5323
0
LINE
8
Black
10
115.461
20
-55.5323
11
115.401
21
-55.502
0
LINE
8
Black
10
115.401
20
-55.502
11
115.37
21
-55.4718
0
LINE
8
Black
10
115.915
20
-54.8973
11
116.126
21
-55.5323
0
LINE
8
Black
10
116.126
20
-55.5323
11
116.338
21
-54.8973
0
LINE
8
Black
10
115.34
20
-57.4675
11
115.28
21
-57.4373
0
LINE
8
Black
10
115.28
20
-57.4373
11
115.189
21
-57.4373
0
LINE
8
Black
10
115.189
20
-57.4373
11
115.098
21
-57.4675
0
LINE
8
Black
10
115.098
20
-57.4675
11
115.038
21
-57.528
0
LINE
8
Black
10
115.038
20
-57.528
11
115.008
21
-57.5885
0
LINE
8
Black
10
115.008
20
-57.5885
11
114.977
21
-57.7094
0
LINE
8
Black
10
114.977
20
-57.7094
11
114.977
21
-57.8001
0
LINE
8
Black
10
114.977
20
-57.8001
11
115.008
21
-57.9211
0
LINE
8
Black
10
115.008
20
-57.9211
11
115.038
21
-57.9815
0
LINE
8
Black
10
115.038
20
-57.9815
11
115.098
21
-58.042
0
LINE
8
Black
10
115.098
20
-58.042
11
115.189
21
-58.0723
0
LINE
8
Black
10
115.189
20
-58.0723
11
115.249
21
-58.0723
0
LINE
8
Black
10
115.249
20
-58.0723
11
115.34
21
-58.042
0
LINE
8
Black
10
115.34
20
-58.042
11
115.37
21
-58.0118
0
LINE
8
Black
10
115.37
20
-58.0118
11
115.37
21
-57.8001
0
LINE
8
Black
10
115.37
20
-57.8001
11
115.249
21
-57.8001
0
LINE
8
Black
10
115.643
20
-58.0723
11
115.643
21
-57.4373
0
LINE
8
Black
10
115.643
20
-57.4373
11
116.005
21
-58.0723
0
LINE
8
Black
10
116.005
20
-58.0723
11
116.005
21
-57.4373
0
LINE
8
Black
10
116.308
20
-58.0723
11
116.308
21
-57.4373
0
LINE
8
Black
10
116.308
20
-57.4373
11
116.459
21
-57.4373
0
LINE
8
Black
10
116.459
20
-57.4373
11
116.55
21
-57.4675
0
LINE
8
Black
10
116.55
20
-57.4675
11
116.61
21
-57.528
0
LINE
8
Black
10
116.61
20
-57.528
11
116.64
21
-57.5885
0
LINE
8
Black
10
116.64
20
-57.5885
11
116.671
21
-57.7094
0
LINE
8
Black
10
116.671
20
-57.7094
11
116.671
21
-57.8001
0
LINE
8
Black
10
116.671
20
-57.8001
11
116.64
21
-57.9211
0
LINE
8
Black
10
116.64
20
-57.9211
11
116.61
21
-57.9815
0
LINE
8
Black
10
116.61
20
-57.9815
11
116.55
21
-58.042
0
LINE
8
Black
10
116.55
20
-58.042
11
116.459
21
-58.0723
0
LINE
8
Black
10
116.459
20
-58.0723
11
116.308
21
-58.0723
0
LINE
8
Black
10
115.34
20
-60.0075
11
115.28
21
-59.9773
0
LINE
8
Black
10
115.28
20
-59.9773
11
115.189
21
-59.9773
0
LINE
8
Black
10
115.189
20
-59.9773
11
115.098
21
-60.0075
0
LINE
8
Black
10
115.098
20
-60.0075
11
115.038
21
-60.068
0
LINE
8
Black
10
115.038
20
-60.068
11
115.008
21
-60.1285
0
LINE
8
Black
10
115.008
20
-60.1285
11
114.977
21
-60.2494
0
LINE
8
Black
10
114.977
20
-60.2494
11
114.977
21
-60.3401
0
LINE
8
Black
10
114.977
20
-60.3401
11
115.008
21
-60.4611
0
LINE
8
Black
10
115.008
20
-60.4611
11
115.038
21
-60.5215
0
LINE
8
Black
10
115.038
20
-60.5215
11
115.098
21
-60.582
0
LINE
8
Black
10
115.098
20
-60.582
11
115.189
21
-60.6123
0
LINE
8
Black
10
115.189
20
-60.6123
11
115.249
21
-60.6123
0
LINE
8
Black
10
115.249
20
-60.6123
11
115.34
21
-60.582
0
LINE
8
Black
10
115.34
20
-60.582
11
115.37
21
-60.5518
0
LINE
8
Black
10
115.37
20
-60.5518
11
115.37
21
-60.3401
0
LINE
8
Black
10
115.37
20
-60.3401
11
115.249
21
-60.3401
0
LINE
8
Black
10
115.643
20
-60.6123
11
115.643
21
-59.9773
0
LINE
8
Black
10
115.643
20
-59.9773
11
116.005
21
-60.6123
0
LINE
8
Black
10
116.005
20
-60.6123
11
116.005
21
-59.9773
0
LINE
8
Black
10
116.308
20
-60.6123
11
116.308
21
-59.9773
0
LINE
8
Black
10
116.308
20
-59.9773
11
116.459
21
-59.9773
0
LINE
8
Black
10
116.459
20
-59.9773
11
116.55
21
-60.0075
0
LINE
8
Black
10
116.55
20
-60.0075
11
116.61
21
-60.068
0
LINE
8
Black
10
116.61
20
-60.068
11
116.64
21
-60.1285
0
LINE
8
Black
10
116.64
20
-60.1285
11
116.671
21
-60.2494
0
LINE
8
Black
10
116.671
20
-60.2494
11
116.671
21
-60.3401
0
LINE
8
Black
10
116.671
20
-60.3401
11
116.64
21
-60.4611
0
LINE
8
Black
10
116.64
20
-60.4611
11
116.61
21
-60.5215
0
LINE
8
Black
10
116.61
20
-60.5215
11
116.55
21
-60.582
0
LINE
8
Black
10
116.55
20
-60.582
11
116.459
21
-60.6123
0
LINE
8
Black
10
116.459
20
-60.6123
11
116.308
21
-60.6123
0
LINE
8
Black
10
115.038
20
-75.9793
11
115.038
21
-75.3443
0
LINE
8
Black
10
115.038
20
-75.3443
11
115.28
21
-75.3443
0
LINE
8
Black
10
115.28
20
-75.3443
11
115.34
21
-75.3745
0
LINE
8
Black
10
115.34
20
-75.3745
11
115.37
21
-75.4047
0
LINE
8
Black
10
115.37
20
-75.4047
11
115.401
21
-75.4652
0
LINE
8
Black
10
115.401
20
-75.4652
11
115.401
21
-75.5559
0
LINE
8
Black
10
115.401
20
-75.5559
11
115.37
21
-75.6164
0
LINE
8
Black
10
115.37
20
-75.6164
11
115.34
21
-75.6466
0
LINE
8
Black
10
115.34
20
-75.6466
11
115.28
21
-75.6769
0
LINE
8
Black
10
115.28
20
-75.6769
11
115.038
21
-75.6769
0
LINE
8
Black
10
116.036
20
-75.9188
11
116.005
21
-75.949
0
LINE
8
Black
10
116.005
20
-75.949
11
115.915
21
-75.9793
0
LINE
8
Black
10
115.915
20
-75.9793
11
115.854
21
-75.9793
0
LINE
8
Black
10
115.854
20
-75.9793
11
115.764
21
-75.949
0
LINE
8
Black
10
115.764
20
-75.949
11
115.703
21
-75.8885
0
LINE
8
Black
10
115.703
20
-75.8885
11
115.673
21
-75.8281
0
LINE
8
Black
10
115.673
20
-75.8281
11
115.643
21
-75.7071
0
LINE
8
Black
10
115.643
20
-75.7071
11
115.643
21
-75.6164
0
LINE
8
Black
10
115.643
20
-75.6164
11
115.673
21
-75.4955
0
LINE
8
Black
10
115.673
20
-75.4955
11
115.703
21
-75.435
0
LINE
8
Black
10
115.703
20
-75.435
11
115.764
21
-75.3745
0
LINE
8
Black
10
115.764
20
-75.3745
11
115.854
21
-75.3443
0
LINE
8
Black
10
115.854
20
-75.3443
11
115.915
21
-75.3443
0
LINE
8
Black
10
115.915
20
-75.3443
11
116.005
21
-75.3745
0
LINE
8
Black
10
116.005
20
-75.3745
11
116.036
21
-75.4047
0
LINE
8
Black
10
116.247
20
-75.3443
11
116.64
21
-75.3443
0
LINE
8
Black
10
116.64
20
-75.3443
11
116.429
21
-75.5862
0
LINE
8
Black
10
116.429
20
-75.5862
11
116.519
21
-75.5862
0
LINE
8
Black
10
116.519
20
-75.5862
11
116.58
21
-75.6164
0
LINE
8
Black
10
116.58
20
-75.6164
11
116.61
21
-75.6466
0
LINE
8
Black
10
116.61
20
-75.6466
11
116.64
21
-75.7071
0
LINE
8
Black
10
116.64
20
-75.7071
11
116.64
21
-75.8583
0
LINE
8
Black
10
116.64
20
-75.8583
11
116.61
21
-75.9188
0
LINE
8
Black
10
116.61
20
-75.9188
11
116.58
21
-75.949
0
LINE
8
Black
10
116.58
20
-75.949
11
116.519
21
-75.9793
0
LINE
8
Black
10
116.519
20
-75.9793
11
116.338
21
-75.9793
0
LINE
8
Black
10
116.338
20
-75.9793
11
116.278
21
-75.949
0
LINE
8
Black
10
116.278
20
-75.949
11
116.247
21
-75.9188
0
LINE
8
Black
10
115.174
20
-62.5173
11
115.386
21
-63.1523
0
LINE
8
Black
10
115.386
20
-63.1523
11
115.597
21
-62.5173
0
LINE
8
Black
10
115.809
20
-63.1523
11
115.809
21
-62.7289
0
LINE
8
Black
10
115.809
20
-62.5173
11
115.779
21
-62.5475
0
LINE
8
Black
10
115.779
20
-62.5475
11
115.809
21
-62.5777
0
LINE
8
Black
10
115.809
20
-62.5777
11
115.839
21
-62.5475
0
LINE
8
Black
10
115.839
20
-62.5475
11
115.809
21
-62.5173
0
LINE
8
Black
10
115.809
20
-62.5173
11
115.809
21
-62.5777
0
LINE
8
Black
10
116.111
20
-62.7289
11
116.111
21
-63.1523
0
LINE
8
Black
10
116.111
20
-62.7894
11
116.142
21
-62.7592
0
LINE
8
Black
10
116.142
20
-62.7592
11
116.202
21
-62.7289
0
LINE
8
Black
10
116.202
20
-62.7289
11
116.293
21
-62.7289
0
LINE
8
Black
10
116.293
20
-62.7289
11
116.353
21
-62.7592
0
LINE
8
Black
10
116.353
20
-62.7592
11
116.383
21
-62.8196
0
LINE
8
Black
10
116.383
20
-62.8196
11
116.383
21
-63.1523
0
LINE
8
Black
10
109.855
20
-77.597
11
109.855
21
-53.34
0
LINE
8
Black
10
142.875
20
-87.63
11
116.205
21
-87.63
0
LINE
8
Black
10
142.875
20
-53.34
11
142.875
21
-87.63
0
LINE
8
Black
10
109.855
20
-53.34
11
142.875
21
-53.34
0
LINE
8
Black
10
118.96
20
-73.525
11
118.96
21
-72.525
0
LINE
8
Black
10
117.26
20
-72.525
11
117.26
21
-73.525
0
LINE
8
Black
10
118.96
20
-79.875
11
118.96
21
-78.875
0
LINE
8
Black
10
117.26
20
-78.875
11
117.26
21
-79.875
0
LINE
8
Black
10
121.07
20
-58.555
11
121.07
21
-59.555
0
LINE
8
Black
10
122.77
20
-59.555
11
122.77
21
-58.555
0
LINE
8
Black
10
118.96
20
-67.175
11
118.96
21
-66.175
0
LINE
8
Black
10
117.26
20
-66.175
11
117.26
21
-67.175
0
LINE
8
Black
10
125.67
20
-53.915
11
125.67
21
-56.575
0
LINE
8
Black
10
135.89
20
-53.915
11
125.67
21
-53.915
0
LINE
8
Black
10
135.89
20
-56.575
11
125.67
21
-56.575
0
LINE
8
Black
10
135.89
20
-53.915
11
135.89
21
-56.575
0
LINE
8
Black
10
137.16
20
-53.915
11
138.49
21
-53.915
0
LINE
8
Black
10
138.49
20
-53.915
11
138.49
21
-55.245
0
LINE
8
Black
10
136.49
20
-64.375
11
135.29
21
-64.375
0
LINE
8
Black
10
135.29
20
-62.625
11
136.49
21
-62.625
0
LINE
8
Black
10
122.795
20
-72.425
11
122.795
21
-73.625
0
LINE
8
Black
10
121.045
20
-73.625
11
121.045
21
-72.425
0
LINE
8
Black
10
122.795
20
-78.775
11
122.795
21
-79.975
0
LINE
8
Black
10
121.045
20
-79.975
11
121.045
21
-78.775
0
LINE
8
Black
10
135.29
20
-83.58
11
136.49
21
-83.58
0
LINE
8
Black
10
136.49
20
-85.33
11
135.29
21
-85.33
0
LINE
8
Black
10
128.87
20
-85.33
11
127.67
21
-85.33
0
LINE
8
Black
10
127.67
20
-83.58
11
128.87
21
-83.58
0
LINE
8
Black
10
118.985
20
-58.455
11
118.985
21
-59.655
0
LINE
8
Black
10
117.235
20
-59.655
11
117.235
21
-58.455
0
LINE
8
Black
10
136.49
20
-59.93
11
135.29
21
-59.93
0
LINE
8
Black
10
135.29
20
-58.18
11
136.49
21
-58.18
0
LINE
8
Black
10
122.795
20
-66.075
11
122.795
21
-67.275
0
LINE
8
Black
10
121.045
20
-67.275
11
121.045
21
-66.075
0
LINE
8
Black
10
126.33
20
-63.035
11
126.38
21
-63.035
0
LINE
8
Black
10
126.33
20
-58.885
11
126.475
21
-58.885
0
LINE
8
Black
10
131.48
20
-58.885
11
131.335
21
-58.885
0
LINE
8
Black
10
131.48
20
-63.035
11
131.335
21
-63.035
0
LINE
8
Black
10
126.33
20
-63.035
11
126.33
21
-58.885
0
LINE
8
Black
10
131.48
20
-63.035
11
131.48
21
-58.885
0
LINE
8
Black
10
126.38
20
-63.035
11
126.38
21
-64.435
0
LINE
8
Black
10
125.177
20
-72.6894
11
125.177
21
-72.4777
0
LINE
8
Black
10
125.509
20
-72.387
11
125.509
21
-72.6894
0
LINE
8
Black
10
125.509
20
-72.6894
11
124.874
21
-72.6894
0
LINE
8
Black
10
124.874
20
-72.6894
11
124.874
21
-72.387
0
LINE
8
Black
10
125.449
20
-71.752
11
125.479
21
-71.7822
0
LINE
8
Black
10
125.479
20
-71.7822
11
125.509
21
-71.8729
0
LINE
8
Black
10
125.509
20
-71.8729
11
125.509
21
-71.9334
0
LINE
8
Black
10
125.509
20
-71.9334
11
125.479
21
-72.0241
0
LINE
8
Black
10
125.479
20
-72.0241
11
125.419
21
-72.0846
0
LINE
8
Black
10
125.419
20
-72.0846
11
125.358
21
-72.1148
0
LINE
8
Black
10
125.358
20
-72.1148
11
125.237
21
-72.1451
0
LINE
8
Black
10
125.237
20
-72.1451
11
125.146
21
-72.1451
0
LINE
8
Black
10
125.146
20
-72.1451
11
125.025
21
-72.1148
0
LINE
8
Black
10
125.025
20
-72.1148
11
124.965
21
-72.0846
0
LINE
8
Black
10
124.965
20
-72.0846
11
124.904
21
-72.0241
0
LINE
8
Black
10
124.904
20
-72.0241
11
124.874
21
-71.9334
0
LINE
8
Black
10
124.874
20
-71.9334
11
124.874
21
-71.8729
0
LINE
8
Black
10
124.874
20
-71.8729
11
124.904
21
-71.7822
0
LINE
8
Black
10
124.904
20
-71.7822
11
124.935
21
-71.752
0
LINE
8
Black
10
125.509
20
-71.1472
11
125.509
21
-71.5101
0
LINE
8
Black
10
125.509
20
-71.3286
11
124.874
21
-71.3286
0
LINE
8
Black
10
124.874
20
-71.3286
11
124.965
21
-71.3891
0
LINE
8
Black
10
124.965
20
-71.3891
11
125.025
21
-71.4496
0
LINE
8
Black
10
125.025
20
-71.4496
11
125.056
21
-71.5101
0
LINE
8
Black
10
124.935
20
-70.9053
11
124.904
21
-70.8751
0
LINE
8
Black
10
124.904
20
-70.8751
11
124.874
21
-70.8146
0
LINE
8
Black
10
124.874
20
-70.8146
11
124.874
21
-70.6634
0
LINE
8
Black
10
124.874
20
-70.6634
11
124.904
21
-70.6029
0
LINE
8
Black
10
124.904
20
-70.6029
11
124.935
21
-70.5727
0
LINE
8
Black
10
124.935
20
-70.5727
11
124.995
21
-70.5425
0
LINE
8
Black
10
124.995
20
-70.5425
11
125.056
21
-70.5425
0
LINE
8
Black
10
125.056
20
-70.5425
11
125.146
21
-70.5727
0
LINE
8
Black
10
125.146
20
-70.5727
11
125.509
21
-70.9355
0
LINE
8
Black
10
125.509
20
-70.9355
11
125.509
21
-70.5425
0
LINE
8
Black
10
125.509
20
-70.2703
11
124.874
21
-70.2703
0
LINE
8
Black
10
124.874
20
-70.2703
11
124.874
21
-70.0284
0
LINE
8
Black
10
124.874
20
-70.0284
11
124.904
21
-69.9679
0
LINE
8
Black
10
124.904
20
-69.9679
11
124.935
21
-69.9377
0
LINE
8
Black
10
124.935
20
-69.9377
11
124.995
21
-69.9075
0
LINE
8
Black
10
124.995
20
-69.9075
11
125.086
21
-69.9075
0
LINE
8
Black
10
125.086
20
-69.9075
11
125.146
21
-69.9377
0
LINE
8
Black
10
125.146
20
-69.9377
11
125.177
21
-69.9679
0
LINE
8
Black
10
125.177
20
-69.9679
11
125.207
21
-70.0284
0
LINE
8
Black
10
125.207
20
-70.0284
11
125.207
21
-70.2703
0
LINE
8
Black
10
125.509
20
-69.3329
11
125.509
21
-69.6353
0
LINE
8
Black
10
125.509
20
-69.6353
11
124.874
21
-69.6353
0
LINE
8
Black
10
125.509
20
-68.7584
11
125.207
21
-68.9701
0
LINE
8
Black
10
125.509
20
-69.1213
11
124.874
21
-69.1213
0
LINE
8
Black
10
124.874
20
-69.1213
11
124.874
21
-68.8794
0
LINE
8
Black
10
124.874
20
-68.8794
11
124.904
21
-68.8189
0
LINE
8
Black
10
124.904
20
-68.8189
11
124.935
21
-68.7886
0
LINE
8
Black
10
124.935
20
-68.7886
11
124.995
21
-68.7584
0
LINE
8
Black
10
124.995
20
-68.7584
11
125.086
21
-68.7584
0
LINE
8
Black
10
125.086
20
-68.7584
11
125.146
21
-68.7886
0
LINE
8
Black
10
125.146
20
-68.7886
11
125.177
21
-68.8189
0
LINE
8
Black
10
125.177
20
-68.8189
11
125.207
21
-68.8794
0
LINE
8
Black
10
125.207
20
-68.8794
11
125.207
21
-69.1213
0
LINE
8
Black
10
125.177
20
-68.2746
11
125.207
21
-68.1839
0
LINE
8
Black
10
125.207
20
-68.1839
11
125.237
21
-68.1536
0
LINE
8
Black
10
125.237
20
-68.1536
11
125.298
21
-68.1234
0
LINE
8
Black
10
125.298
20
-68.1234
11
125.388
21
-68.1234
0
LINE
8
Black
10
125.388
20
-68.1234
11
125.449
21
-68.1536
0
LINE
8
Black
10
125.449
20
-68.1536
11
125.479
21
-68.1839
0
LINE
8
Black
10
125.479
20
-68.1839
11
125.509
21
-68.2444
0
LINE
8
Black
10
125.509
20
-68.2444
11
125.509
21
-68.4863
0
LINE
8
Black
10
125.509
20
-68.4863
11
124.874
21
-68.4863
0
LINE
8
Black
10
124.874
20
-68.4863
11
124.874
21
-68.2746
0
LINE
8
Black
10
124.874
20
-68.2746
11
124.904
21
-68.2141
0
LINE
8
Black
10
124.904
20
-68.2141
11
124.935
21
-68.1839
0
LINE
8
Black
10
124.935
20
-68.1839
11
124.995
21
-68.1536
0
LINE
8
Black
10
124.995
20
-68.1536
11
125.056
21
-68.1536
0
LINE
8
Black
10
125.056
20
-68.1536
11
125.116
21
-68.1839
0
LINE
8
Black
10
125.116
20
-68.1839
11
125.146
21
-68.2141
0
LINE
8
Black
10
125.146
20
-68.2141
11
125.177
21
-68.2746
0
LINE
8
Black
10
125.177
20
-68.2746
11
125.177
21
-68.4863
0
LINE
8
Black
10
124.904
20
-67.5186
11
124.874
21
-67.5791
0
LINE
8
Black
10
124.874
20
-67.5791
11
124.874
21
-67.6698
0
LINE
8
Black
10
124.874
20
-67.6698
11
124.904
21
-67.7605
0
LINE
8
Black
10
124.904
20
-67.7605
11
124.965
21
-67.821
0
LINE
8
Black
10
124.965
20
-67.821
11
125.025
21
-67.8513
0
LINE
8
Black
10
125.025
20
-67.8513
11
125.146
21
-67.8815
0
LINE
8
Black
10
125.146
20
-67.8815
11
125.237
21
-67.8815
0
LINE
8
Black
10
125.237
20
-67.8815
11
125.358
21
-67.8513
0
LINE
8
Black
10
125.358
20
-67.8513
11
125.419
21
-67.821
0
LINE
8
Black
10
125.419
20
-67.821
11
125.479
21
-67.7605
0
LINE
8
Black
10
125.479
20
-67.7605
11
125.509
21
-67.6698
0
LINE
8
Black
10
125.509
20
-67.6698
11
125.509
21
-67.6094
0
LINE
8
Black
10
125.509
20
-67.6094
11
125.479
21
-67.5186
0
LINE
8
Black
10
125.479
20
-67.5186
11
125.449
21
-67.4884
0
LINE
8
Black
10
125.449
20
-67.4884
11
125.237
21
-67.4884
0
LINE
8
Black
10
125.237
20
-67.4884
11
125.237
21
-67.6094
0
LINE
8
Black
10
120.372
20
-75.0967
11
120.42
21
-75.1443
0
LINE
8
Black
10
120.42
20
-75.1443
11
120.467
21
-75.2871
0
LINE
8
Black
10
120.467
20
-75.2871
11
120.467
21
-75.3824
0
LINE
8
Black
10
120.467
20
-75.3824
11
120.42
21
-75.5252
0
LINE
8
Black
10
120.42
20
-75.5252
11
120.325
21
-75.6205
0
LINE
8
Black
10
120.325
20
-75.6205
11
120.229
21
-75.6681
0
LINE
8
Black
10
120.229
20
-75.6681
11
120.039
21
-75.7157
0
LINE
8
Black
10
120.039
20
-75.7157
11
119.896
21
-75.7157
0
LINE
8
Black
10
119.896
20
-75.7157
11
119.705
21
-75.6681
0
LINE
8
Black
10
119.705
20
-75.6681
11
119.61
21
-75.6205
0
LINE
8
Black
10
119.61
20
-75.6205
11
119.515
21
-75.5252
0
LINE
8
Black
10
119.515
20
-75.5252
11
119.467
21
-75.3824
0
LINE
8
Black
10
119.467
20
-75.3824
11
119.467
21
-75.2871
0
LINE
8
Black
10
119.467
20
-75.2871
11
119.515
21
-75.1443
0
LINE
8
Black
10
119.515
20
-75.1443
11
119.563
21
-75.0967
0
LINE
8
Black
10
120.467
20
-74.1443
11
120.467
21
-74.7157
0
LINE
8
Black
10
120.467
20
-74.43
11
119.467
21
-74.43
0
LINE
8
Black
10
119.467
20
-74.43
11
119.61
21
-74.5252
0
LINE
8
Black
10
119.61
20
-74.5252
11
119.705
21
-74.6205
0
LINE
8
Black
10
119.705
20
-74.6205
11
119.753
21
-74.7157
0
LINE
8
Black
10
120.242
20
-72.9978
11
120.272
21
-72.9675
0
LINE
8
Black
10
120.272
20
-72.9675
11
120.302
21
-72.9978
0
LINE
8
Black
10
120.302
20
-72.9978
11
120.272
21
-73.028
0
LINE
8
Black
10
120.272
20
-73.028
11
120.242
21
-72.9978
0
LINE
8
Black
10
120.242
20
-72.9978
11
120.302
21
-72.9978
0
LINE
8
Black
10
120.302
20
-72.3628
11
120.302
21
-72.7256
0
LINE
8
Black
10
120.302
20
-72.5442
11
119.667
21
-72.5442
0
LINE
8
Black
10
119.667
20
-72.5442
11
119.758
21
-72.6047
0
LINE
8
Black
10
119.758
20
-72.6047
11
119.818
21
-72.6652
0
LINE
8
Black
10
119.818
20
-72.6652
11
119.849
21
-72.7256
0
LINE
8
Black
10
119.879
20
-71.8185
11
120.302
21
-71.8185
0
LINE
8
Black
10
119.879
20
-72.0906
11
120.212
21
-72.0906
0
LINE
8
Black
10
120.212
20
-72.0906
11
120.272
21
-72.0604
0
LINE
8
Black
10
120.272
20
-72.0604
11
120.302
21
-71.9999
0
LINE
8
Black
10
120.302
20
-71.9999
11
120.302
21
-71.9092
0
LINE
8
Black
10
120.302
20
-71.9092
11
120.272
21
-71.8487
0
LINE
8
Black
10
120.272
20
-71.8487
11
120.242
21
-71.8185
0
LINE
8
Black
10
119.97
20
-71.3045
11
119.97
21
-71.5161
0
LINE
8
Black
10
120.302
20
-71.5161
11
119.667
21
-71.5161
0
LINE
8
Black
10
119.667
20
-71.5161
11
119.667
21
-71.2137
0
LINE
8
Black
10
120.372
20
-81.4467
11
120.42
21
-81.4943
0
LINE
8
Black
10
120.42
20
-81.4943
11
120.467
21
-81.6371
0
LINE
8
Black
10
120.467
20
-81.6371
11
120.467
21
-81.7324
0
LINE
8
Black
10
120.467
20
-81.7324
11
120.42
21
-81.8752
0
LINE
8
Black
10
120.42
20
-81.8752
11
120.325
21
-81.9705
0
LINE
8
Black
10
120.325
20
-81.9705
11
120.229
21
-82.0181
0
LINE
8
Black
10
120.229
20
-82.0181
11
120.039
21
-82.0657
0
LINE
8
Black
10
120.039
20
-82.0657
11
119.896
21
-82.0657
0
LINE
8
Black
10
119.896
20
-82.0657
11
119.705
21
-82.0181
0
LINE
8
Black
10
119.705
20
-82.0181
11
119.61
21
-81.9705
0
LINE
8
Black
10
119.61
20
-81.9705
11
119.515
21
-81.8752
0
LINE
8
Black
10
119.515
20
-81.8752
11
119.467
21
-81.7324
0
LINE
8
Black
10
119.467
20
-81.7324
11
119.467
21
-81.6371
0
LINE
8
Black
10
119.467
20
-81.6371
11
119.515
21
-81.4943
0
LINE
8
Black
10
119.515
20
-81.4943
11
119.563
21
-81.4467
0
LINE
8
Black
10
119.563
20
-81.0657
11
119.515
21
-81.0181
0
LINE
8
Black
10
119.515
20
-81.0181
11
119.467
21
-80.9229
0
LINE
8
Black
10
119.467
20
-80.9229
11
119.467
21
-80.6848
0
LINE
8
Black
10
119.467
20
-80.6848
11
119.515
21
-80.5895
0
LINE
8
Black
10
119.515
20
-80.5895
11
119.563
21
-80.5419
0
LINE
8
Black
10
119.563
20
-80.5419
11
119.658
21
-80.4943
0
LINE
8
Black
10
119.658
20
-80.4943
11
119.753
21
-80.4943
0
LINE
8
Black
10
119.753
20
-80.4943
11
119.896
21
-80.5419
0
LINE
8
Black
10
119.896
20
-80.5419
11
120.467
21
-81.1133
0
LINE
8
Black
10
120.467
20
-81.1133
11
120.467
21
-80.4943
0
LINE
8
Black
10
120.242
20
-79.3478
11
120.272
21
-79.3175
0
LINE
8
Black
10
120.272
20
-79.3175
11
120.302
21
-79.3478
0
LINE
8
Black
10
120.302
20
-79.3478
11
120.272
21
-79.378
0
LINE
8
Black
10
120.272
20
-79.378
11
120.242
21
-79.3478
0
LINE
8
Black
10
120.242
20
-79.3478
11
120.302
21
-79.3478
0
LINE
8
Black
10
120.302
20
-78.7128
11
120.302
21
-79.0756
0
LINE
8
Black
10
120.302
20
-78.8942
11
119.667
21
-78.8942
0
LINE
8
Black
10
119.667
20
-78.8942
11
119.758
21
-78.9547
0
LINE
8
Black
10
119.758
20
-78.9547
11
119.818
21
-79.0152
0
LINE
8
Black
10
119.818
20
-79.0152
11
119.849
21
-79.0756
0
LINE
8
Black
10
119.879
20
-78.1685
11
120.302
21
-78.1685
0
LINE
8
Black
10
119.879
20
-78.4406
11
120.212
21
-78.4406
0
LINE
8
Black
10
120.212
20
-78.4406
11
120.272
21
-78.4104
0
LINE
8
Black
10
120.272
20
-78.4104
11
120.302
21
-78.3499
0
LINE
8
Black
10
120.302
20
-78.3499
11
120.302
21
-78.2592
0
LINE
8
Black
10
120.302
20
-78.2592
11
120.272
21
-78.1987
0
LINE
8
Black
10
120.272
20
-78.1987
11
120.242
21
-78.1685
0
LINE
8
Black
10
119.97
20
-77.6545
11
119.97
21
-77.8661
0
LINE
8
Black
10
120.302
20
-77.8661
11
119.667
21
-77.8661
0
LINE
8
Black
10
119.667
20
-77.8661
11
119.667
21
-77.5637
0
LINE
8
Black
10
124.182
20
-60.4917
11
124.23
21
-60.5393
0
LINE
8
Black
10
124.23
20
-60.5393
11
124.277
21
-60.6821
0
LINE
8
Black
10
124.277
20
-60.6821
11
124.277
21
-60.7774
0
LINE
8
Black
10
124.277
20
-60.7774
11
124.23
21
-60.9202
0
LINE
8
Black
10
124.23
20
-60.9202
11
124.135
21
-61.0155
0
LINE
8
Black
10
124.135
20
-61.0155
11
124.039
21
-61.0631
0
LINE
8
Black
10
124.039
20
-61.0631
11
123.849
21
-61.1107
0
LINE
8
Black
10
123.849
20
-61.1107
11
123.706
21
-61.1107
0
LINE
8
Black
10
123.706
20
-61.1107
11
123.515
21
-61.0631
0
LINE
8
Black
10
123.515
20
-61.0631
11
123.42
21
-61.0155
0
LINE
8
Black
10
123.42
20
-61.0155
11
123.325
21
-60.9202
0
LINE
8
Black
10
123.325
20
-60.9202
11
123.277
21
-60.7774
0
LINE
8
Black
10
123.277
20
-60.7774
11
123.277
21
-60.6821
0
LINE
8
Black
10
123.277
20
-60.6821
11
123.325
21
-60.5393
0
LINE
8
Black
10
123.325
20
-60.5393
11
123.373
21
-60.4917
0
LINE
8
Black
10
123.277
20
-60.1583
11
123.277
21
-59.5393
0
LINE
8
Black
10
123.277
20
-59.5393
11
123.658
21
-59.8726
0
LINE
8
Black
10
123.658
20
-59.8726
11
123.658
21
-59.7298
0
LINE
8
Black
10
123.658
20
-59.7298
11
123.706
21
-59.6345
0
LINE
8
Black
10
123.706
20
-59.6345
11
123.754
21
-59.5869
0
LINE
8
Black
10
123.754
20
-59.5869
11
123.849
21
-59.5393
0
LINE
8
Black
10
123.849
20
-59.5393
11
124.087
21
-59.5393
0
LINE
8
Black
10
124.087
20
-59.5393
11
124.182
21
-59.5869
0
LINE
8
Black
10
124.182
20
-59.5869
11
124.23
21
-59.6345
0
LINE
8
Black
10
124.23
20
-59.6345
11
124.277
21
-59.7298
0
LINE
8
Black
10
124.277
20
-59.7298
11
124.277
21
-60.0155
0
LINE
8
Black
10
124.277
20
-60.0155
11
124.23
21
-60.1107
0
LINE
8
Black
10
124.23
20
-60.1107
11
124.182
21
-60.1583
0
LINE
8
Black
10
124.052
20
-58.6468
11
124.082
21
-58.6165
0
LINE
8
Black
10
124.082
20
-58.6165
11
124.112
21
-58.6468
0
LINE
8
Black
10
124.112
20
-58.6468
11
124.082
21
-58.677
0
LINE
8
Black
10
124.082
20
-58.677
11
124.052
21
-58.6468
0
LINE
8
Black
10
124.052
20
-58.6468
11
124.112
21
-58.6468
0
LINE
8
Black
10
124.112
20
-58.0118
11
124.112
21
-58.3746
0
LINE
8
Black
10
124.112
20
-58.1932
11
123.477
21
-58.1932
0
LINE
8
Black
10
123.477
20
-58.1932
11
123.568
21
-58.2537
0
LINE
8
Black
10
123.568
20
-58.2537
11
123.628
21
-58.3142
0
LINE
8
Black
10
123.628
20
-58.3142
11
123.659
21
-58.3746
0
LINE
8
Black
10
123.689
20
-57.4675
11
124.112
21
-57.4675
0
LINE
8
Black
10
123.689
20
-57.7396
11
124.022
21
-57.7396
0
LINE
8
Black
10
124.022
20
-57.7396
11
124.082
21
-57.7094
0
LINE
8
Black
10
124.082
20
-57.7094
11
124.112
21
-57.6489
0
LINE
8
Black
10
124.112
20
-57.6489
11
124.112
21
-57.5582
0
LINE
8
Black
10
124.112
20
-57.5582
11
124.082
21
-57.4977
0
LINE
8
Black
10
124.082
20
-57.4977
11
124.052
21
-57.4675
0
LINE
8
Black
10
123.78
20
-56.9535
11
123.78
21
-57.1651
0
LINE
8
Black
10
124.112
20
-57.1651
11
123.477
21
-57.1651
0
LINE
8
Black
10
123.477
20
-57.1651
11
123.477
21
-56.8627
0
LINE
8
Black
10
120.372
20
-68.7467
11
120.42
21
-68.7943
0
LINE
8
Black
10
120.42
20
-68.7943
11
120.467
21
-68.9371
0
LINE
8
Black
10
120.467
20
-68.9371
11
120.467
21
-69.0324
0
LINE
8
Black
10
120.467
20
-69.0324
11
120.42
21
-69.1752
0
LINE
8
Black
10
120.42
20
-69.1752
11
120.325
21
-69.2705
0
LINE
8
Black
10
120.325
20
-69.2705
11
120.229
21
-69.3181
0
LINE
8
Black
10
120.229
20
-69.3181
11
120.039
21
-69.3657
0
LINE
8
Black
10
120.039
20
-69.3657
11
119.896
21
-69.3657
0
LINE
8
Black
10
119.896
20
-69.3657
11
119.705
21
-69.3181
0
LINE
8
Black
10
119.705
20
-69.3181
11
119.61
21
-69.2705
0
LINE
8
Black
10
119.61
20
-69.2705
11
119.515
21
-69.1752
0
LINE
8
Black
10
119.515
20
-69.1752
11
119.467
21
-69.0324
0
LINE
8
Black
10
119.467
20
-69.0324
11
119.467
21
-68.9371
0
LINE
8
Black
10
119.467
20
-68.9371
11
119.515
21
-68.7943
0
LINE
8
Black
10
119.515
20
-68.7943
11
119.563
21
-68.7467
0
LINE
8
Black
10
119.801
20
-67.8895
11
120.467
21
-67.8895
0
LINE
8
Black
10
119.42
20
-68.1276
11
120.134
21
-68.3657
0
LINE
8
Black
10
120.134
20
-68.3657
11
120.134
21
-67.7467
0
LINE
8
Black
10
120.242
20
-66.6478
11
120.272
21
-66.6175
0
LINE
8
Black
10
120.272
20
-66.6175
11
120.302
21
-66.6478
0
LINE
8
Black
10
120.302
20
-66.6478
11
120.272
21
-66.678
0
LINE
8
Black
10
120.272
20
-66.678
11
120.242
21
-66.6478
0
LINE
8
Black
10
120.242
20
-66.6478
11
120.302
21
-66.6478
0
LINE
8
Black
10
120.302
20
-66.0128
11
120.302
21
-66.3756
0
LINE
8
Black
10
120.302
20
-66.1942
11
119.667
21
-66.1942
0
LINE
8
Black
10
119.667
20
-66.1942
11
119.758
21
-66.2547
0
LINE
8
Black
10
119.758
20
-66.2547
11
119.818
21
-66.3152
0
LINE
8
Black
10
119.818
20
-66.3152
11
119.849
21
-66.3756
0
LINE
8
Black
10
119.879
20
-65.4685
11
120.302
21
-65.4685
0
LINE
8
Black
10
119.879
20
-65.7406
11
120.212
21
-65.7406
0
LINE
8
Black
10
120.212
20
-65.7406
11
120.272
21
-65.7104
0
LINE
8
Black
10
120.272
20
-65.7104
11
120.302
21
-65.6499
0
LINE
8
Black
10
120.302
20
-65.6499
11
120.302
21
-65.5592
0
LINE
8
Black
10
120.302
20
-65.5592
11
120.272
21
-65.4987
0
LINE
8
Black
10
120.272
20
-65.4987
11
120.242
21
-65.4685
0
LINE
8
Black
10
119.97
20
-64.9545
11
119.97
21
-65.1661
0
LINE
8
Black
10
120.302
20
-65.1661
11
119.667
21
-65.1661
0
LINE
8
Black
10
119.667
20
-65.1661
11
119.667
21
-64.8637
0
LINE
8
Black
10
139.787
20
-55.5783
11
140.502
21
-55.5783
0
LINE
8
Black
10
140.502
20
-55.5783
11
140.645
21
-55.626
0
LINE
8
Black
10
140.645
20
-55.626
11
140.74
21
-55.7212
0
LINE
8
Black
10
140.74
20
-55.7212
11
140.787
21
-55.864
0
LINE
8
Black
10
140.787
20
-55.864
11
140.787
21
-55.9593
0
LINE
8
Black
10
139.787
20
-55.1974
11
139.787
21
-54.5783
0
LINE
8
Black
10
139.787
20
-54.5783
11
140.168
21
-54.9117
0
LINE
8
Black
10
140.168
20
-54.9117
11
140.168
21
-54.7688
0
LINE
8
Black
10
140.168
20
-54.7688
11
140.216
21
-54.6736
0
LINE
8
Black
10
140.216
20
-54.6736
11
140.264
21
-54.626
0
LINE
8
Black
10
140.264
20
-54.626
11
140.359
21
-54.5783
0
LINE
8
Black
10
140.359
20
-54.5783
11
140.597
21
-54.5783
0
LINE
8
Black
10
140.597
20
-54.5783
11
140.692
21
-54.626
0
LINE
8
Black
10
140.692
20
-54.626
11
140.74
21
-54.6736
0
LINE
8
Black
10
140.74
20
-54.6736
11
140.787
21
-54.7688
0
LINE
8
Black
10
140.787
20
-54.7688
11
140.787
21
-55.0545
0
LINE
8
Black
10
140.787
20
-55.0545
11
140.74
21
-55.1498
0
LINE
8
Black
10
140.74
20
-55.1498
11
140.692
21
-55.1974
0
LINE
8
Black
10
134.453
20
-65.8574
11
134.12
21
-65.3812
0
LINE
8
Black
10
133.882
20
-65.8574
11
133.882
21
-64.8574
0
LINE
8
Black
10
133.882
20
-64.8574
11
134.263
21
-64.8574
0
LINE
8
Black
10
134.263
20
-64.8574
11
134.358
21
-64.905
0
LINE
8
Black
10
134.358
20
-64.905
11
134.406
21
-64.9526
0
LINE
8
Black
10
134.406
20
-64.9526
11
134.453
21
-65.0479
0
LINE
8
Black
10
134.453
20
-65.0479
11
134.453
21
-65.1907
0
LINE
8
Black
10
134.453
20
-65.1907
11
134.406
21
-65.286
0
LINE
8
Black
10
134.406
20
-65.286
11
134.358
21
-65.3336
0
LINE
8
Black
10
134.358
20
-65.3336
11
134.263
21
-65.3812
0
LINE
8
Black
10
134.263
20
-65.3812
11
133.882
21
-65.3812
0
LINE
8
Black
10
135.406
20
-65.8574
11
134.834
21
-65.8574
0
LINE
8
Black
10
135.12
20
-65.8574
11
135.12
21
-64.8574
0
LINE
8
Black
10
135.12
20
-64.8574
11
135.025
21
-65.0002
0
LINE
8
Black
10
135.025
20
-65.0002
11
134.93
21
-65.0955
0
LINE
8
Black
10
134.93
20
-65.0955
11
134.834
21
-65.1431
0
LINE
8
Black
10
136.722
20
-65.6923
11
136.359
21
-65.6923
0
LINE
8
Black
10
136.54
20
-65.6923
11
136.54
21
-65.0573
0
LINE
8
Black
10
136.54
20
-65.0573
11
136.48
21
-65.148
0
LINE
8
Black
10
136.48
20
-65.148
11
136.419
21
-65.2085
0
LINE
8
Black
10
136.419
20
-65.2085
11
136.359
21
-65.2387
0
LINE
8
Black
10
137.115
20
-65.0573
11
137.175
21
-65.0573
0
LINE
8
Black
10
137.175
20
-65.0573
11
137.236
21
-65.0875
0
LINE
8
Black
10
137.236
20
-65.0875
11
137.266
21
-65.1177
0
LINE
8
Black
10
137.266
20
-65.1177
11
137.296
21
-65.1782
0
LINE
8
Black
10
137.296
20
-65.1782
11
137.326
21
-65.2992
0
LINE
8
Black
10
137.326
20
-65.2992
11
137.326
21
-65.4504
0
LINE
8
Black
10
137.326
20
-65.4504
11
137.296
21
-65.5713
0
LINE
8
Black
10
137.296
20
-65.5713
11
137.266
21
-65.6318
0
LINE
8
Black
10
137.266
20
-65.6318
11
137.236
21
-65.662
0
LINE
8
Black
10
137.236
20
-65.662
11
137.175
21
-65.6923
0
LINE
8
Black
10
137.175
20
-65.6923
11
137.115
21
-65.6923
0
LINE
8
Black
10
137.115
20
-65.6923
11
137.054
21
-65.662
0
LINE
8
Black
10
137.054
20
-65.662
11
137.024
21
-65.6318
0
LINE
8
Black
10
137.024
20
-65.6318
11
136.994
21
-65.5713
0
LINE
8
Black
10
136.994
20
-65.5713
11
136.963
21
-65.4504
0
LINE
8
Black
10
136.963
20
-65.4504
11
136.963
21
-65.2992
0
LINE
8
Black
10
136.963
20
-65.2992
11
136.994
21
-65.1782
0
LINE
8
Black
10
136.994
20
-65.1782
11
137.024
21
-65.1177
0
LINE
8
Black
10
137.024
20
-65.1177
11
137.054
21
-65.0875
0
LINE
8
Black
10
137.054
20
-65.0875
11
137.115
21
-65.0573
0
LINE
8
Black
10
137.598
20
-65.6923
11
137.598
21
-65.0573
0
LINE
8
Black
10
137.961
20
-65.6923
11
137.689
21
-65.3294
0
LINE
8
Black
10
137.961
20
-65.0573
11
137.598
21
-65.4201
0
LINE
8
Black
10
124.277
20
-74.4617
11
123.801
21
-74.795
0
LINE
8
Black
10
124.277
20
-75.0331
11
123.277
21
-75.0331
0
LINE
8
Black
10
123.277
20
-75.0331
11
123.277
21
-74.6521
0
LINE
8
Black
10
123.277
20
-74.6521
11
123.325
21
-74.5569
0
LINE
8
Black
10
123.325
20
-74.5569
11
123.373
21
-74.5093
0
LINE
8
Black
10
123.373
20
-74.5093
11
123.468
21
-74.4617
0
LINE
8
Black
10
123.468
20
-74.4617
11
123.611
21
-74.4617
0
LINE
8
Black
10
123.611
20
-74.4617
11
123.706
21
-74.5093
0
LINE
8
Black
10
123.706
20
-74.5093
11
123.754
21
-74.5569
0
LINE
8
Black
10
123.754
20
-74.5569
11
123.801
21
-74.6521
0
LINE
8
Black
10
123.801
20
-74.6521
11
123.801
21
-75.0331
0
LINE
8
Black
10
123.373
20
-74.0807
11
123.325
21
-74.0331
0
LINE
8
Black
10
123.325
20
-74.0331
11
123.277
21
-73.9379
0
LINE
8
Black
10
123.277
20
-73.9379
11
123.277
21
-73.6998
0
LINE
8
Black
10
123.277
20
-73.6998
11
123.325
21
-73.6045
0
LINE
8
Black
10
123.325
20
-73.6045
11
123.373
21
-73.5569
0
LINE
8
Black
10
123.373
20
-73.5569
11
123.468
21
-73.5093
0
LINE
8
Black
10
123.468
20
-73.5093
11
123.563
21
-73.5093
0
LINE
8
Black
10
123.563
20
-73.5093
11
123.706
21
-73.5569
0
LINE
8
Black
10
123.706
20
-73.5569
11
124.277
21
-74.1283
0
LINE
8
Black
10
124.277
20
-74.1283
11
124.277
21
-73.5093
0
LINE
8
Black
10
123.538
20
-72.4293
11
123.507
21
-72.3991
0
LINE
8
Black
10
123.507
20
-72.3991
11
123.477
21
-72.3386
0
LINE
8
Black
10
123.477
20
-72.3386
11
123.477
21
-72.1874
0
LINE
8
Black
10
123.477
20
-72.1874
11
123.507
21
-72.1269
0
LINE
8
Black
10
123.507
20
-72.1269
11
123.538
21
-72.0967
0
LINE
8
Black
10
123.538
20
-72.0967
11
123.598
21
-72.0665
0
LINE
8
Black
10
123.598
20
-72.0665
11
123.659
21
-72.0665
0
LINE
8
Black
10
123.659
20
-72.0665
11
123.749
21
-72.0967
0
LINE
8
Black
10
123.749
20
-72.0967
11
124.112
21
-72.4595
0
LINE
8
Black
10
124.112
20
-72.4595
11
124.112
21
-72.0665
0
LINE
8
Black
10
123.538
20
-71.8245
11
123.507
21
-71.7943
0
LINE
8
Black
10
123.507
20
-71.7943
11
123.477
21
-71.7338
0
LINE
8
Black
10
123.477
20
-71.7338
11
123.477
21
-71.5826
0
LINE
8
Black
10
123.477
20
-71.5826
11
123.507
21
-71.5222
0
LINE
8
Black
10
123.507
20
-71.5222
11
123.538
21
-71.4919
0
LINE
8
Black
10
123.538
20
-71.4919
11
123.598
21
-71.4617
0
LINE
8
Black
10
123.598
20
-71.4617
11
123.659
21
-71.4617
0
LINE
8
Black
10
123.659
20
-71.4617
11
123.749
21
-71.4919
0
LINE
8
Black
10
123.749
20
-71.4919
11
124.112
21
-71.8548
0
LINE
8
Black
10
124.112
20
-71.8548
11
124.112
21
-71.4617
0
LINE
8
Black
10
124.112
20
-71.1895
11
123.477
21
-71.1895
0
LINE
8
Black
10
124.112
20
-70.8267
11
123.749
21
-71.0988
0
LINE
8
Black
10
123.477
20
-70.8267
11
123.84
21
-71.1895
0
LINE
8
Black
10
124.277
20
-80.8117
11
123.801
21
-81.145
0
LINE
8
Black
10
124.277
20
-81.3831
11
123.277
21
-81.3831
0
LINE
8
Black
10
123.277
20
-81.3831
11
123.277
21
-81.0021
0
LINE
8
Black
10
123.277
20
-81.0021
11
123.325
21
-80.9069
0
LINE
8
Black
10
123.325
20
-80.9069
11
123.373
21
-80.8593
0
LINE
8
Black
10
123.373
20
-80.8593
11
123.468
21
-80.8117
0
LINE
8
Black
10
123.468
20
-80.8117
11
123.611
21
-80.8117
0
LINE
8
Black
10
123.611
20
-80.8117
11
123.706
21
-80.8593
0
LINE
8
Black
10
123.706
20
-80.8593
11
123.754
21
-80.9069
0
LINE
8
Black
10
123.754
20
-80.9069
11
123.801
21
-81.0021
0
LINE
8
Black
10
123.801
20
-81.0021
11
123.801
21
-81.3831
0
LINE
8
Black
10
123.277
20
-80.4783
11
123.277
21
-79.8593
0
LINE
8
Black
10
123.277
20
-79.8593
11
123.658
21
-80.1926
0
LINE
8
Black
10
123.658
20
-80.1926
11
123.658
21
-80.0498
0
LINE
8
Black
10
123.658
20
-80.0498
11
123.706
21
-79.9545
0
LINE
8
Black
10
123.706
20
-79.9545
11
123.754
21
-79.9069
0
LINE
8
Black
10
123.754
20
-79.9069
11
123.849
21
-79.8593
0
LINE
8
Black
10
123.849
20
-79.8593
11
124.087
21
-79.8593
0
LINE
8
Black
10
124.087
20
-79.8593
11
124.182
21
-79.9069
0
LINE
8
Black
10
124.182
20
-79.9069
11
124.23
21
-79.9545
0
LINE
8
Black
10
124.23
20
-79.9545
11
124.277
21
-80.0498
0
LINE
8
Black
10
124.277
20
-80.0498
11
124.277
21
-80.3355
0
LINE
8
Black
10
124.277
20
-80.3355
11
124.23
21
-80.4307
0
LINE
8
Black
10
124.23
20
-80.4307
11
124.182
21
-80.4783
0
LINE
8
Black
10
123.538
20
-78.7793
11
123.507
21
-78.7491
0
LINE
8
Black
10
123.507
20
-78.7491
11
123.477
21
-78.6886
0
LINE
8
Black
10
123.477
20
-78.6886
11
123.477
21
-78.5374
0
LINE
8
Black
10
123.477
20
-78.5374
11
123.507
21
-78.4769
0
LINE
8
Black
10
123.507
20
-78.4769
11
123.538
21
-78.4467
0
LINE
8
Black
10
123.538
20
-78.4467
11
123.598
21
-78.4165
0
LINE
8
Black
10
123.598
20
-78.4165
11
123.659
21
-78.4165
0
LINE
8
Black
10
123.659
20
-78.4165
11
123.749
21
-78.4467
0
LINE
8
Black
10
123.749
20
-78.4467
11
124.112
21
-78.8095
0
LINE
8
Black
10
124.112
20
-78.8095
11
124.112
21
-78.4165
0
LINE
8
Black
10
123.538
20
-78.1745
11
123.507
21
-78.1443
0
LINE
8
Black
10
123.507
20
-78.1443
11
123.477
21
-78.0838
0
LINE
8
Black
10
123.477
20
-78.0838
11
123.477
21
-77.9326
0
LINE
8
Black
10
123.477
20
-77.9326
11
123.507
21
-77.8722
0
LINE
8
Black
10
123.507
20
-77.8722
11
123.538
21
-77.8419
0
LINE
8
Black
10
123.538
20
-77.8419
11
123.598
21
-77.8117
0
LINE
8
Black
10
123.598
20
-77.8117
11
123.659
21
-77.8117
0
LINE
8
Black
10
123.659
20
-77.8117
11
123.749
21
-77.8419
0
LINE
8
Black
10
123.749
20
-77.8419
11
124.112
21
-78.2048
0
LINE
8
Black
10
124.112
20
-78.2048
11
124.112
21
-77.8117
0
LINE
8
Black
10
124.112
20
-77.5395
11
123.477
21
-77.5395
0
LINE
8
Black
10
124.112
20
-77.1767
11
123.749
21
-77.4488
0
LINE
8
Black
10
123.477
20
-77.1767
11
123.84
21
-77.5395
0
LINE
8
Black
10
134.453
20
-86.8124
11
134.12
21
-86.3362
0
LINE
8
Black
10
133.882
20
-86.8124
11
133.882
21
-85.8124
0
LINE
8
Black
10
133.882
20
-85.8124
11
134.263
21
-85.8124
0
LINE
8
Black
10
134.263
20
-85.8124
11
134.358
21
-85.86
0
LINE
8
Black
10
134.358
20
-85.86
11
134.406
21
-85.9076
0
LINE
8
Black
10
134.406
20
-85.9076
11
134.453
21
-86.0029
0
LINE
8
Black
10
134.453
20
-86.0029
11
134.453
21
-86.1457
0
LINE
8
Black
10
134.453
20
-86.1457
11
134.406
21
-86.241
0
LINE
8
Black
10
134.406
20
-86.241
11
134.358
21
-86.2886
0
LINE
8
Black
10
134.358
20
-86.2886
11
134.263
21
-86.3362
0
LINE
8
Black
10
134.263
20
-86.3362
11
133.882
21
-86.3362
0
LINE
8
Black
10
135.31
20
-86.1457
11
135.31
21
-86.8124
0
LINE
8
Black
10
135.072
20
-85.7648
11
134.834
21
-86.479
0
LINE
8
Black
10
134.834
20
-86.479
11
135.453
21
-86.479
0
LINE
8
Black
10
136.722
20
-86.6473
11
136.359
21
-86.6473
0
LINE
8
Black
10
136.54
20
-86.6473
11
136.54
21
-86.0123
0
LINE
8
Black
10
136.54
20
-86.0123
11
136.48
21
-86.103
0
LINE
8
Black
10
136.48
20
-86.103
11
136.419
21
-86.1635
0
LINE
8
Black
10
136.419
20
-86.1635
11
136.359
21
-86.1937
0
LINE
8
Black
10
137.115
20
-86.0123
11
137.175
21
-86.0123
0
LINE
8
Black
10
137.175
20
-86.0123
11
137.236
21
-86.0425
0
LINE
8
Black
10
137.236
20
-86.0425
11
137.266
21
-86.0727
0
LINE
8
Black
10
137.266
20
-86.0727
11
137.296
21
-86.1332
0
LINE
8
Black
10
137.296
20
-86.1332
11
137.326
21
-86.2542
0
LINE
8
Black
10
137.326
20
-86.2542
11
137.326
21
-86.4054
0
LINE
8
Black
10
137.326
20
-86.4054
11
137.296
21
-86.5263
0
LINE
8
Black
10
137.296
20
-86.5263
11
137.266
21
-86.5868
0
LINE
8
Black
10
137.266
20
-86.5868
11
137.236
21
-86.617
0
LINE
8
Black
10
137.236
20
-86.617
11
137.175
21
-86.6473
0
LINE
8
Black
10
137.175
20
-86.6473
11
137.115
21
-86.6473
0
LINE
8
Black
10
137.115
20
-86.6473
11
137.054
21
-86.617
0
LINE
8
Black
10
137.054
20
-86.617
11
137.024
21
-86.5868
0
LINE
8
Black
10
137.024
20
-86.5868
11
136.994
21
-86.5263
0
LINE
8
Black
10
136.994
20
-86.5263
11
136.963
21
-86.4054
0
LINE
8
Black
10
136.963
20
-86.4054
11
136.963
21
-86.2542
0
LINE
8
Black
10
136.963
20
-86.2542
11
136.994
21
-86.1332
0
LINE
8
Black
10
136.994
20
-86.1332
11
137.024
21
-86.0727
0
LINE
8
Black
10
137.024
20
-86.0727
11
137.054
21
-86.0425
0
LINE
8
Black
10
137.054
20
-86.0425
11
137.115
21
-86.0123
0
LINE
8
Black
10
137.598
20
-86.6473
11
137.598
21
-86.0123
0
LINE
8
Black
10
137.961
20
-86.6473
11
137.689
21
-86.2844
0
LINE
8
Black
10
137.961
20
-86.0123
11
137.598
21
-86.3751
0
LINE
8
Black
10
126.833
20
-86.8124
11
126.5
21
-86.3362
0
LINE
8
Black
10
126.262
20
-86.8124
11
126.262
21
-85.8124
0
LINE
8
Black
10
126.262
20
-85.8124
11
126.643
21
-85.8124
0
LINE
8
Black
10
126.643
20
-85.8124
11
126.738
21
-85.86
0
LINE
8
Black
10
126.738
20
-85.86
11
126.786
21
-85.9076
0
LINE
8
Black
10
126.786
20
-85.9076
11
126.833
21
-86.0029
0
LINE
8
Black
10
126.833
20
-86.0029
11
126.833
21
-86.1457
0
LINE
8
Black
10
126.833
20
-86.1457
11
126.786
21
-86.241
0
LINE
8
Black
10
126.786
20
-86.241
11
126.738
21
-86.2886
0
LINE
8
Black
10
126.738
20
-86.2886
11
126.643
21
-86.3362
0
LINE
8
Black
10
126.643
20
-86.3362
11
126.262
21
-86.3362
0
LINE
8
Black
10
127.738
20
-85.8124
11
127.262
21
-85.8124
0
LINE
8
Black
10
127.262
20
-85.8124
11
127.214
21
-86.2886
0
LINE
8
Black
10
127.214
20
-86.2886
11
127.262
21
-86.241
0
LINE
8
Black
10
127.262
20
-86.241
11
127.357
21
-86.1933
0
LINE
8
Black
10
127.357
20
-86.1933
11
127.595
21
-86.1933
0
LINE
8
Black
10
127.595
20
-86.1933
11
127.69
21
-86.241
0
LINE
8
Black
10
127.69
20
-86.241
11
127.738
21
-86.2886
0
LINE
8
Black
10
127.738
20
-86.2886
11
127.786
21
-86.3838
0
LINE
8
Black
10
127.786
20
-86.3838
11
127.786
21
-86.6219
0
LINE
8
Black
10
127.786
20
-86.6219
11
127.738
21
-86.7171
0
LINE
8
Black
10
127.738
20
-86.7171
11
127.69
21
-86.7648
0
LINE
8
Black
10
127.69
20
-86.7648
11
127.595
21
-86.8124
0
LINE
8
Black
10
127.595
20
-86.8124
11
127.357
21
-86.8124
0
LINE
8
Black
10
127.357
20
-86.8124
11
127.262
21
-86.7648
0
LINE
8
Black
10
127.262
20
-86.7648
11
127.214
21
-86.7171
0
LINE
8
Black
10
129.162
20
-86.6473
11
128.799
21
-86.6473
0
LINE
8
Black
10
128.98
20
-86.6473
11
128.98
21
-86.0123
0
LINE
8
Black
10
128.98
20
-86.0123
11
128.92
21
-86.103
0
LINE
8
Black
10
128.92
20
-86.103
11
128.859
21
-86.1635
0
LINE
8
Black
10
128.859
20
-86.1635
11
128.799
21
-86.1937
0
LINE
8
Black
10
129.555
20
-86.0123
11
129.615
21
-86.0123
0
LINE
8
Black
10
129.615
20
-86.0123
11
129.676
21
-86.0425
0
LINE
8
Black
10
129.676
20
-86.0425
11
129.706
21
-86.0727
0
LINE
8
Black
10
129.706
20
-86.0727
11
129.736
21
-86.1332
0
LINE
8
Black
10
129.736
20
-86.1332
11
129.766
21
-86.2542
0
LINE
8
Black
10
129.766
20
-86.2542
11
129.766
21
-86.4054
0
LINE
8
Black
10
129.766
20
-86.4054
11
129.736
21
-86.5263
0
LINE
8
Black
10
129.736
20
-86.5263
11
129.706
21
-86.5868
0
LINE
8
Black
10
129.706
20
-86.5868
11
129.676
21
-86.617
0
LINE
8
Black
10
129.676
20
-86.617
11
129.615
21
-86.6473
0
LINE
8
Black
10
129.615
20
-86.6473
11
129.555
21
-86.6473
0
LINE
8
Black
10
129.555
20
-86.6473
11
129.494
21
-86.617
0
LINE
8
Black
10
129.494
20
-86.617
11
129.464
21
-86.5868
0
LINE
8
Black
10
129.464
20
-86.5868
11
129.434
21
-86.5263
0
LINE
8
Black
10
129.434
20
-86.5263
11
129.403
21
-86.4054
0
LINE
8
Black
10
129.403
20
-86.4054
11
129.403
21
-86.2542
0
LINE
8
Black
10
129.403
20
-86.2542
11
129.434
21
-86.1332
0
LINE
8
Black
10
129.434
20
-86.1332
11
129.464
21
-86.0727
0
LINE
8
Black
10
129.464
20
-86.0727
11
129.494
21
-86.0425
0
LINE
8
Black
10
129.494
20
-86.0425
11
129.555
21
-86.0123
0
LINE
8
Black
10
130.038
20
-86.6473
11
130.038
21
-86.0123
0
LINE
8
Black
10
130.401
20
-86.6473
11
130.129
21
-86.2844
0
LINE
8
Black
10
130.401
20
-86.0123
11
130.038
21
-86.3751
0
LINE
8
Black
10
120.467
20
-60.4917
11
119.991
21
-60.825
0
LINE
8
Black
10
120.467
20
-61.0631
11
119.467
21
-61.0631
0
LINE
8
Black
10
119.467
20
-61.0631
11
119.467
21
-60.6821
0
LINE
8
Black
10
119.467
20
-60.6821
11
119.515
21
-60.5869
0
LINE
8
Black
10
119.515
20
-60.5869
11
119.563
21
-60.5393
0
LINE
8
Black
10
119.563
20
-60.5393
11
119.658
21
-60.4917
0
LINE
8
Black
10
119.658
20
-60.4917
11
119.801
21
-60.4917
0
LINE
8
Black
10
119.801
20
-60.4917
11
119.896
21
-60.5393
0
LINE
8
Black
10
119.896
20
-60.5393
11
119.944
21
-60.5869
0
LINE
8
Black
10
119.944
20
-60.5869
11
119.991
21
-60.6821
0
LINE
8
Black
10
119.991
20
-60.6821
11
119.991
21
-61.0631
0
LINE
8
Black
10
119.467
20
-59.6345
11
119.467
21
-59.825
0
LINE
8
Black
10
119.467
20
-59.825
11
119.515
21
-59.9202
0
LINE
8
Black
10
119.515
20
-59.9202
11
119.563
21
-59.9679
0
LINE
8
Black
10
119.563
20
-59.9679
11
119.705
21
-60.0631
0
LINE
8
Black
10
119.705
20
-60.0631
11
119.896
21
-60.1107
0
LINE
8
Black
10
119.896
20
-60.1107
11
120.277
21
-60.1107
0
LINE
8
Black
10
120.277
20
-60.1107
11
120.372
21
-60.0631
0
LINE
8
Black
10
120.372
20
-60.0631
11
120.42
21
-60.0155
0
LINE
8
Black
10
120.42
20
-60.0155
11
120.467
21
-59.9202
0
LINE
8
Black
10
120.467
20
-59.9202
11
120.467
21
-59.7298
0
LINE
8
Black
10
120.467
20
-59.7298
11
120.42
21
-59.6345
0
LINE
8
Black
10
120.42
20
-59.6345
11
120.372
21
-59.5869
0
LINE
8
Black
10
120.372
20
-59.5869
11
120.277
21
-59.5393
0
LINE
8
Black
10
120.277
20
-59.5393
11
120.039
21
-59.5393
0
LINE
8
Black
10
120.039
20
-59.5393
11
119.944
21
-59.5869
0
LINE
8
Black
10
119.944
20
-59.5869
11
119.896
21
-59.6345
0
LINE
8
Black
10
119.896
20
-59.6345
11
119.848
21
-59.7298
0
LINE
8
Black
10
119.848
20
-59.7298
11
119.848
21
-59.9202
0
LINE
8
Black
10
119.848
20
-59.9202
11
119.896
21
-60.0155
0
LINE
8
Black
10
119.896
20
-60.0155
11
119.944
21
-60.0631
0
LINE
8
Black
10
119.944
20
-60.0631
11
120.039
21
-60.1107
0
LINE
8
Black
10
120.302
20
-58.0813
11
120.302
21
-58.4442
0
LINE
8
Black
10
120.302
20
-58.2628
11
119.667
21
-58.2628
0
LINE
8
Black
10
119.667
20
-58.2628
11
119.758
21
-58.3232
0
LINE
8
Black
10
119.758
20
-58.3232
11
119.818
21
-58.3837
0
LINE
8
Black
10
119.818
20
-58.3837
11
119.849
21
-58.4442
0
LINE
8
Black
10
119.667
20
-57.6882
11
119.667
21
-57.6278
0
LINE
8
Black
10
119.667
20
-57.6278
11
119.697
21
-57.5673
0
LINE
8
Black
10
119.697
20
-57.5673
11
119.728
21
-57.537
0
LINE
8
Black
10
119.728
20
-57.537
11
119.788
21
-57.5068
0
LINE
8
Black
10
119.788
20
-57.5068
11
119.909
21
-57.4766
0
LINE
8
Black
10
119.909
20
-57.4766
11
120.06
21
-57.4766
0
LINE
8
Black
10
120.06
20
-57.4766
11
120.181
21
-57.5068
0
LINE
8
Black
10
120.181
20
-57.5068
11
120.242
21
-57.537
0
LINE
8
Black
10
120.242
20
-57.537
11
120.272
21
-57.5673
0
LINE
8
Black
10
120.272
20
-57.5673
11
120.302
21
-57.6278
0
LINE
8
Black
10
120.302
20
-57.6278
11
120.302
21
-57.6882
0
LINE
8
Black
10
120.302
20
-57.6882
11
120.272
21
-57.7487
0
LINE
8
Black
10
120.272
20
-57.7487
11
120.242
21
-57.779
0
LINE
8
Black
10
120.242
20
-57.779
11
120.181
21
-57.8092
0
LINE
8
Black
10
120.181
20
-57.8092
11
120.06
21
-57.8394
0
LINE
8
Black
10
120.06
20
-57.8394
11
119.909
21
-57.8394
0
LINE
8
Black
10
119.909
20
-57.8394
11
119.788
21
-57.8092
0
LINE
8
Black
10
119.788
20
-57.8092
11
119.728
21
-57.779
0
LINE
8
Black
10
119.728
20
-57.779
11
119.697
21
-57.7487
0
LINE
8
Black
10
119.697
20
-57.7487
11
119.667
21
-57.6882
0
LINE
8
Black
10
119.667
20
-57.0835
11
119.667
21
-57.023
0
LINE
8
Black
10
119.667
20
-57.023
11
119.697
21
-56.9625
0
LINE
8
Black
10
119.697
20
-56.9625
11
119.728
21
-56.9323
0
LINE
8
Black
10
119.728
20
-56.9323
11
119.788
21
-56.902
0
LINE
8
Black
10
119.788
20
-56.902
11
119.909
21
-56.8718
0
LINE
8
Black
10
119.909
20
-56.8718
11
120.06
21
-56.8718
0
LINE
8
Black
10
120.06
20
-56.8718
11
120.181
21
-56.902
0
LINE
8
Black
10
120.181
20
-56.902
11
120.242
21
-56.9323
0
LINE
8
Black
10
120.242
20
-56.9323
11
120.272
21
-56.9625
0
LINE
8
Black
10
120.272
20
-56.9625
11
120.302
21
-57.023
0
LINE
8
Black
10
120.302
20
-57.023
11
120.302
21
-57.0835
0
LINE
8
Black
10
120.302
20
-57.0835
11
120.272
21
-57.144
0
LINE
8
Black
10
120.272
20
-57.144
11
120.242
21
-57.1742
0
LINE
8
Black
10
120.242
20
-57.1742
11
120.181
21
-57.2044
0
LINE
8
Black
10
120.181
20
-57.2044
11
120.06
21
-57.2347
0
LINE
8
Black
10
120.06
20
-57.2347
11
119.909
21
-57.2347
0
LINE
8
Black
10
119.909
20
-57.2347
11
119.788
21
-57.2044
0
LINE
8
Black
10
119.788
20
-57.2044
11
119.728
21
-57.1742
0
LINE
8
Black
10
119.728
20
-57.1742
11
119.697
21
-57.144
0
LINE
8
Black
10
119.697
20
-57.144
11
119.667
21
-57.0835
0
LINE
8
Black
10
134.453
20
-61.4124
11
134.12
21
-60.9362
0
LINE
8
Black
10
133.882
20
-61.4124
11
133.882
21
-60.4124
0
LINE
8
Black
10
133.882
20
-60.4124
11
134.263
21
-60.4124
0
LINE
8
Black
10
134.263
20
-60.4124
11
134.358
21
-60.46
0
LINE
8
Black
10
134.358
20
-60.46
11
134.406
21
-60.5076
0
LINE
8
Black
10
134.406
20
-60.5076
11
134.453
21
-60.6029
0
LINE
8
Black
10
134.453
20
-60.6029
11
134.453
21
-60.7457
0
LINE
8
Black
10
134.453
20
-60.7457
11
134.406
21
-60.841
0
LINE
8
Black
10
134.406
20
-60.841
11
134.358
21
-60.8886
0
LINE
8
Black
10
134.358
20
-60.8886
11
134.263
21
-60.9362
0
LINE
8
Black
10
134.263
20
-60.9362
11
133.882
21
-60.9362
0
LINE
8
Black
10
134.787
20
-60.4124
11
135.453
21
-60.4124
0
LINE
8
Black
10
135.453
20
-60.4124
11
135.025
21
-61.4124
0
LINE
8
Black
10
136.646
20
-60.6123
11
137.039
21
-60.6123
0
LINE
8
Black
10
137.039
20
-60.6123
11
136.827
21
-60.8542
0
LINE
8
Black
10
136.827
20
-60.8542
11
136.918
21
-60.8542
0
LINE
8
Black
10
136.918
20
-60.8542
11
136.979
21
-60.8844
0
LINE
8
Black
10
136.979
20
-60.8844
11
137.009
21
-60.9146
0
LINE
8
Black
10
137.009
20
-60.9146
11
137.039
21
-60.9751
0
LINE
8
Black
10
137.039
20
-60.9751
11
137.039
21
-61.1263
0
LINE
8
Black
10
137.039
20
-61.1263
11
137.009
21
-61.1868
0
LINE
8
Black
10
137.009
20
-61.1868
11
136.979
21
-61.217
0
LINE
8
Black
10
136.979
20
-61.217
11
136.918
21
-61.2473
0
LINE
8
Black
10
136.918
20
-61.2473
11
136.737
21
-61.2473
0
LINE
8
Black
10
136.737
20
-61.2473
11
136.676
21
-61.217
0
LINE
8
Black
10
136.676
20
-61.217
11
136.646
21
-61.1868
0
LINE
8
Black
10
137.251
20
-60.6123
11
137.644
21
-60.6123
0
LINE
8
Black
10
137.644
20
-60.6123
11
137.432
21
-60.8542
0
LINE
8
Black
10
137.432
20
-60.8542
11
137.523
21
-60.8542
0
LINE
8
Black
10
137.523
20
-60.8542
11
137.583
21
-60.8844
0
LINE
8
Black
10
137.583
20
-60.8844
11
137.614
21
-60.9146
0
LINE
8
Black
10
137.614
20
-60.9146
11
137.644
21
-60.9751
0
LINE
8
Black
10
137.644
20
-60.9751
11
137.644
21
-61.1263
0
LINE
8
Black
10
137.644
20
-61.1263
11
137.614
21
-61.1868
0
LINE
8
Black
10
137.614
20
-61.1868
11
137.583
21
-61.217
0
LINE
8
Black
10
137.583
20
-61.217
11
137.523
21
-61.2473
0
LINE
8
Black
10
137.523
20
-61.2473
11
137.341
21
-61.2473
0
LINE
8
Black
10
137.341
20
-61.2473
11
137.281
21
-61.217
0
LINE
8
Black
10
137.281
20
-61.217
11
137.251
21
-61.1868
0
LINE
8
Black
10
124.277
20
-68.1117
11
123.801
21
-68.445
0
LINE
8
Black
10
124.277
20
-68.6831
11
123.277
21
-68.6831
0
LINE
8
Black
10
123.277
20
-68.6831
11
123.277
21
-68.3021
0
LINE
8
Black
10
123.277
20
-68.3021
11
123.325
21
-68.2069
0
LINE
8
Black
10
123.325
20
-68.2069
11
123.373
21
-68.1593
0
LINE
8
Black
10
123.373
20
-68.1593
11
123.468
21
-68.1117
0
LINE
8
Black
10
123.468
20
-68.1117
11
123.611
21
-68.1117
0
LINE
8
Black
10
123.611
20
-68.1117
11
123.706
21
-68.1593
0
LINE
8
Black
10
123.706
20
-68.1593
11
123.754
21
-68.2069
0
LINE
8
Black
10
123.754
20
-68.2069
11
123.801
21
-68.3021
0
LINE
8
Black
10
123.801
20
-68.3021
11
123.801
21
-68.6831
0
LINE
8
Black
10
123.706
20
-67.5402
11
123.658
21
-67.6355
0
LINE
8
Black
10
123.658
20
-67.6355
11
123.611
21
-67.6831
0
LINE
8
Black
10
123.611
20
-67.6831
11
123.515
21
-67.7307
0
LINE
8
Black
10
123.515
20
-67.7307
11
123.468
21
-67.7307
0
LINE
8
Black
10
123.468
20
-67.7307
11
123.373
21
-67.6831
0
LINE
8
Black
10
123.373
20
-67.6831
11
123.325
21
-67.6355
0
LINE
8
Black
10
123.325
20
-67.6355
11
123.277
21
-67.5402
0
LINE
8
Black
10
123.277
20
-67.5402
11
123.277
21
-67.3498
0
LINE
8
Black
10
123.277
20
-67.3498
11
123.325
21
-67.2545
0
LINE
8
Black
10
123.325
20
-67.2545
11
123.373
21
-67.2069
0
LINE
8
Black
10
123.373
20
-67.2069
11
123.468
21
-67.1593
0
LINE
8
Black
10
123.468
20
-67.1593
11
123.515
21
-67.1593
0
LINE
8
Black
10
123.515
20
-67.1593
11
123.611
21
-67.2069
0
LINE
8
Black
10
123.611
20
-67.2069
11
123.658
21
-67.2545
0
LINE
8
Black
10
123.658
20
-67.2545
11
123.706
21
-67.3498
0
LINE
8
Black
10
123.706
20
-67.3498
11
123.706
21
-67.5402
0
LINE
8
Black
10
123.706
20
-67.5402
11
123.754
21
-67.6355
0
LINE
8
Black
10
123.754
20
-67.6355
11
123.801
21
-67.6831
0
LINE
8
Black
10
123.801
20
-67.6831
11
123.896
21
-67.7307
0
LINE
8
Black
10
123.896
20
-67.7307
11
124.087
21
-67.7307
0
LINE
8
Black
10
124.087
20
-67.7307
11
124.182
21
-67.6831
0
LINE
8
Black
10
124.182
20
-67.6831
11
124.23
21
-67.6355
0
LINE
8
Black
10
124.23
20
-67.6355
11
124.277
21
-67.5402
0
LINE
8
Black
10
124.277
20
-67.5402
11
124.277
21
-67.3498
0
LINE
8
Black
10
124.277
20
-67.3498
11
124.23
21
-67.2545
0
LINE
8
Black
10
124.23
20
-67.2545
11
124.182
21
-67.2069
0
LINE
8
Black
10
124.182
20
-67.2069
11
124.087
21
-67.1593
0
LINE
8
Black
10
124.087
20
-67.1593
11
123.896
21
-67.1593
0
LINE
8
Black
10
123.896
20
-67.1593
11
123.801
21
-67.2069
0
LINE
8
Black
10
123.801
20
-67.2069
11
123.754
21
-67.2545
0
LINE
8
Black
10
123.754
20
-67.2545
11
123.706
21
-67.3498
0
LINE
8
Black
10
123.538
20
-66.0793
11
123.507
21
-66.0491
0
LINE
8
Black
10
123.507
20
-66.0491
11
123.477
21
-65.9886
0
LINE
8
Black
10
123.477
20
-65.9886
11
123.477
21
-65.8374
0
LINE
8
Black
10
123.477
20
-65.8374
11
123.507
21
-65.7769
0
LINE
8
Black
10
123.507
20
-65.7769
11
123.538
21
-65.7467
0
LINE
8
Black
10
123.538
20
-65.7467
11
123.598
21
-65.7165
0
LINE
8
Black
10
123.598
20
-65.7165
11
123.659
21
-65.7165
0
LINE
8
Black
10
123.659
20
-65.7165
11
123.749
21
-65.7467
0
LINE
8
Black
10
123.749
20
-65.7467
11
124.112
21
-66.1095
0
LINE
8
Black
10
124.112
20
-66.1095
11
124.112
21
-65.7165
0
LINE
8
Black
10
123.538
20
-65.4745
11
123.507
21
-65.4443
0
LINE
8
Black
10
123.507
20
-65.4443
11
123.477
21
-65.3838
0
LINE
8
Black
10
123.477
20
-65.3838
11
123.477
21
-65.2326
0
LINE
8
Black
10
123.477
20
-65.2326
11
123.507
21
-65.1722
0
LINE
8
Black
10
123.507
20
-65.1722
11
123.538
21
-65.1419
0
LINE
8
Black
10
123.538
20
-65.1419
11
123.598
21
-65.1117
0
LINE
8
Black
10
123.598
20
-65.1117
11
123.659
21
-65.1117
0
LINE
8
Black
10
123.659
20
-65.1117
11
123.749
21
-65.1419
0
LINE
8
Black
10
123.749
20
-65.1419
11
124.112
21
-65.5048
0
LINE
8
Black
10
124.112
20
-65.5048
11
124.112
21
-65.1117
0
LINE
8
Black
10
124.112
20
-64.8395
11
123.477
21
-64.8395
0
LINE
8
Black
10
124.112
20
-64.4767
11
123.749
21
-64.7488
0
LINE
8
Black
10
123.477
20
-64.4767
11
123.84
21
-64.8395
0
LINE
8
Black
10
132.167
20
-61.7219
11
132.977
21
-61.7219
0
LINE
8
Black
10
132.977
20
-61.7219
11
133.072
21
-61.6743
0
LINE
8
Black
10
133.072
20
-61.6743
11
133.12
21
-61.6267
0
LINE
8
Black
10
133.12
20
-61.6267
11
133.167
21
-61.5314
0
LINE
8
Black
10
133.167
20
-61.5314
11
133.167
21
-61.341
0
LINE
8
Black
10
133.167
20
-61.341
11
133.12
21
-61.2457
0
LINE
8
Black
10
133.12
20
-61.2457
11
133.072
21
-61.1981
0
LINE
8
Black
10
133.072
20
-61.1981
11
132.977
21
-61.1505
0
LINE
8
Black
10
132.977
20
-61.1505
11
132.167
21
-61.1505
0
LINE
8
Black
10
133.167
20
-60.1505
11
133.167
21
-60.7219
0
LINE
8
Black
10
133.167
20
-60.4362
11
132.167
21
-60.4362
0
LINE
8
Black
10
132.167
20
-60.4362
11
132.31
21
-60.5314
0
LINE
8
Black
10
132.31
20
-60.5314
11
132.405
21
-60.6267
0
LINE
8
Black
10
132.405
20
-60.6267
11
132.453
21
-60.7219
0
LINE
8
Black
10
125.382
20
-62.744
11
126.017
21
-62.5929
0
LINE
8
Black
10
126.017
20
-62.5929
11
125.564
21
-62.4719
0
LINE
8
Black
10
125.564
20
-62.4719
11
126.017
21
-62.351
0
LINE
8
Black
10
126.017
20
-62.351
11
125.382
21
-62.1998
0
LINE
8
Black
10
125.987
20
-61.9881
11
126.017
21
-61.8974
0
LINE
8
Black
10
126.017
20
-61.8974
11
126.017
21
-61.7462
0
LINE
8
Black
10
126.017
20
-61.7462
11
125.987
21
-61.6857
0
LINE
8
Black
10
125.987
20
-61.6857
11
125.957
21
-61.6555
0
LINE
8
Black
10
125.957
20
-61.6555
11
125.896
21
-61.6252
0
LINE
8
Black
10
125.896
20
-61.6252
11
125.836
21
-61.6252
0
LINE
8
Black
10
125.836
20
-61.6252
11
125.775
21
-61.6555
0
LINE
8
Black
10
125.775
20
-61.6555
11
125.745
21
-61.6857
0
LINE
8
Black
10
125.745
20
-61.6857
11
125.715
21
-61.7462
0
LINE
8
Black
10
125.715
20
-61.7462
11
125.685
21
-61.8671
0
LINE
8
Black
10
125.685
20
-61.8671
11
125.654
21
-61.9276
0
LINE
8
Black
10
125.654
20
-61.9276
11
125.624
21
-61.9579
0
LINE
8
Black
10
125.624
20
-61.9579
11
125.564
21
-61.9881
0
LINE
8
Black
10
125.564
20
-61.9881
11
125.503
21
-61.9881
0
LINE
8
Black
10
125.503
20
-61.9881
11
125.443
21
-61.9579
0
LINE
8
Black
10
125.443
20
-61.9579
11
125.412
21
-61.9276
0
LINE
8
Black
10
125.412
20
-61.9276
11
125.382
21
-61.8671
0
LINE
8
Black
10
125.382
20
-61.8671
11
125.382
21
-61.716
0
LINE
8
Black
10
125.382
20
-61.716
11
125.412
21
-61.6252
0
LINE
8
Black
10
125.443
20
-61.3833
11
125.412
21
-61.3531
0
LINE
8
Black
10
125.412
20
-61.3531
11
125.382
21
-61.2926
0
LINE
8
Black
10
125.382
20
-61.2926
11
125.382
21
-61.1414
0
LINE
8
Black
10
125.382
20
-61.1414
11
125.412
21
-61.081
0
LINE
8
Black
10
125.412
20
-61.081
11
125.443
21
-61.0507
0
LINE
8
Black
10
125.443
20
-61.0507
11
125.503
21
-61.0205
0
LINE
8
Black
10
125.503
20
-61.0205
11
125.564
21
-61.0205
0
LINE
8
Black
10
125.564
20
-61.0205
11
125.654
21
-61.0507
0
LINE
8
Black
10
125.654
20
-61.0507
11
126.017
21
-61.4136
0
LINE
8
Black
10
126.017
20
-61.4136
11
126.017
21
-61.0205
0
LINE
8
Black
10
125.654
20
-60.6576
11
125.624
21
-60.7181
0
LINE
8
Black
10
125.624
20
-60.7181
11
125.594
21
-60.7483
0
LINE
8
Black
10
125.594
20
-60.7483
11
125.533
21
-60.7786
0
LINE
8
Black
10
125.533
20
-60.7786
11
125.503
21
-60.7786
0
LINE
8
Black
10
125.503
20
-60.7786
11
125.443
21
-60.7483
0
LINE
8
Black
10
125.443
20
-60.7483
11
125.412
21
-60.7181
0
LINE
8
Black
10
125.412
20
-60.7181
11
125.382
21
-60.6576
0
LINE
8
Black
10
125.382
20
-60.6576
11
125.382
21
-60.5367
0
LINE
8
Black
10
125.382
20
-60.5367
11
125.412
21
-60.4762
0
LINE
8
Black
10
125.412
20
-60.4762
11
125.443
21
-60.446
0
LINE
8
Black
10
125.443
20
-60.446
11
125.503
21
-60.4157
0
LINE
8
Black
10
125.503
20
-60.4157
11
125.533
21
-60.4157
0
LINE
8
Black
10
125.533
20
-60.4157
11
125.594
21
-60.446
0
LINE
8
Black
10
125.594
20
-60.446
11
125.624
21
-60.4762
0
LINE
8
Black
10
125.624
20
-60.4762
11
125.654
21
-60.5367
0
LINE
8
Black
10
125.654
20
-60.5367
11
125.654
21
-60.6576
0
LINE
8
Black
10
125.654
20
-60.6576
11
125.685
21
-60.7181
0
LINE
8
Black
10
125.685
20
-60.7181
11
125.715
21
-60.7483
0
LINE
8
Black
10
125.715
20
-60.7483
11
125.775
21
-60.7786
0
LINE
8
Black
10
125.775
20
-60.7786
11
125.896
21
-60.7786
0
LINE
8
Black
10
125.896
20
-60.7786
11
125.957
21
-60.7483
0
LINE
8
Black
10
125.957
20
-60.7483
11
125.987
21
-60.7181
0
LINE
8
Black
10
125.987
20
-60.7181
11
126.017
21
-60.6576
0
LINE
8
Black
10
126.017
20
-60.6576
11
126.017
21
-60.5367
0
LINE
8
Black
10
126.017
20
-60.5367
11
125.987
21
-60.4762
0
LINE
8
Black
10
125.987
20
-60.4762
11
125.957
21
-60.446
0
LINE
8
Black
10
125.957
20
-60.446
11
125.896
21
-60.4157
0
LINE
8
Black
10
125.896
20
-60.4157
11
125.775
21
-60.4157
0
LINE
8
Black
10
125.775
20
-60.4157
11
125.715
21
-60.446
0
LINE
8
Black
10
125.715
20
-60.446
11
125.685
21
-60.4762
0
LINE
8
Black
10
125.685
20
-60.4762
11
125.654
21
-60.5367
0
LINE
8
Black
10
126.017
20
-59.811
11
126.017
21
-60.1738
0
LINE
8
Black
10
126.017
20
-59.9924
11
125.382
21
-59.9924
0
LINE
8
Black
10
125.382
20
-59.9924
11
125.473
21
-60.0529
0
LINE
8
Black
10
125.473
20
-60.0529
11
125.533
21
-60.1133
0
LINE
8
Black
10
125.533
20
-60.1133
11
125.564
21
-60.1738
0
LINE
8
Black
10
126.017
20
-59.2062
11
126.017
21
-59.569
0
LINE
8
Black
10
126.017
20
-59.3876
11
125.382
21
-59.3876
0
LINE
8
Black
10
125.382
20
-59.3876
11
125.473
21
-59.4481
0
LINE
8
Black
10
125.473
20
-59.4481
11
125.533
21
-59.5086
0
LINE
8
Black
10
125.533
20
-59.5086
11
125.564
21
-59.569
  0
ENDSEC
  0
EOF
