  0
SECTION
  2
HEADER
  9
$ANGBASE
  50
0.0
  9
$ANGDIR
  70
  1
  9
$MEASUREMENT
  70
0
  0
ENDSEC
  0
SECTION
  2
TABLES
  0
TABLE
  2
LTYPE
  70
1
  0
LTYPE
  2
CONTINUOUS
  70
0
  3
Solid line
  72
65
  73
0
  40
0.0
  0
ENDTAB
  0
TABLE
  2
STYLE
  70
4
  0
STYLE
  2
KICAD
  70
0
  40
0
  41
1
  42
1
  50
0
  71
0
  3
isocp.shx
  0
STYLE
  2
KICADB
  70
0
  40
0
  41
1
  42
1
  50
0
  71
0
  3
isocp.shx
  0
STYLE
  2
KICADI
  70
0
  40
0
  41
1
  42
1
  50
15
  71
0
  3
isocp.shx
  0
STYLE
  2
KICADBI
  70
0
  40
0
  41
1
  42
1
  50
15
  71
0
  3
isocp.shx
  0
ENDTAB
  0
TABLE
  2
LAYER
  70
30
  0
LAYER
  2
BLACK
  70
0
  62
7
  6
CONTINUOUS
  0
LAYER
  2
GRAY1
  70
0
  62
251
  6
CONTINUOUS
  0
LAYER
  2
GRAY2
  70
0
  62
8
  6
CONTINUOUS
  0
LAYER
  2
GRAY3
  70
0
  62
9
  6
CONTINUOUS
  0
LAYER
  2
WHITE
  70
0
  62
7
  6
CONTINUOUS
  0
LAYER
  2
LYELLOW
  70
0
  62
51
  6
CONTINUOUS
  0
LAYER
  2
BLUE1
  70
0
  62
178
  6
CONTINUOUS
  0
LAYER
  2
GREEN1
  70
0
  62
98
  6
CONTINUOUS
  0
LAYER
  2
CYAN1
  70
0
  62
138
  6
CONTINUOUS
  0
LAYER
  2
RED1
  70
0
  62
18
  6
CONTINUOUS
  0
LAYER
  2
MAGENTA1
  70
0
  62
228
  6
CONTINUOUS
  0
LAYER
  2
BROWN1
  70
0
  62
58
  6
CONTINUOUS
  0
LAYER
  2
BLUE2
  70
0
  62
5
  6
CONTINUOUS
  0
LAYER
  2
GREEN2
  70
0
  62
3
  6
CONTINUOUS
  0
LAYER
  2
CYAN2
  70
0
  62
4
  6
CONTINUOUS
  0
LAYER
  2
RED2
  70
0
  62
1
  6
CONTINUOUS
  0
LAYER
  2
MAGENTA2
  70
0
  62
6
  6
CONTINUOUS
  0
LAYER
  2
BROWN2
  70
0
  62
54
  6
CONTINUOUS
  0
LAYER
  2
BLUE3
  70
0
  62
171
  6
CONTINUOUS
  0
LAYER
  2
GREEN3
  70
0
  62
91
  6
CONTINUOUS
  0
LAYER
  2
CYAN3
  70
0
  62
131
  6
CONTINUOUS
  0
LAYER
  2
RED3
  70
0
  62
11
  6
CONTINUOUS
  0
LAYER
  2
MAGENTA3
  70
0
  62
221
  6
CONTINUOUS
  0
LAYER
  2
YELLOW3
  70
0
  62
2
  6
CONTINUOUS
  0
LAYER
  2
BLUE4
  70
0
  62
5
  6
CONTINUOUS
  0
LAYER
  2
GREEN4
  70
0
  62
3
  6
CONTINUOUS
  0
LAYER
  2
CYAN4
  70
0
  62
4
  6
CONTINUOUS
  0
LAYER
  2
RED4
  70
0
  62
1
  6
CONTINUOUS
  0
LAYER
  2
MAGENTA4
  70
0
  62
6
  6
CONTINUOUS
  0
LAYER
  2
YELLOW4
  70
0
  62
2
  6
CONTINUOUS
  0
ENDTAB
  0
ENDSEC
  0
SECTION
  2
ENTITIES
  0
TEXT
  7
KICADB
  8
Black
  10
115.57
  11
115.57
  20
-68.326
  21
-68.326
  40
0.635
  41
1
  50
0
  51
0
  71
0
  72
1
  73
2
  1
PC0
  0
TEXT
  7
KICADB
  8
Black
  10
115.57
  11
115.57
  20
-70.866
  21
-70.866
  40
0.635
  41
1
  50
0
  51
0
  71
0
  72
1
  73
2
  1
PC1
  0
TEXT
  7
KICADB
  8
Black
  10
115.57
  11
115.57
  20
-73.406
  21
-73.406
  40
0.635
  41
1
  50
0
  51
0
  71
0
  72
1
  73
2
  1
PC2
  0
TEXT
  7
KICADB
  8
Black
  10
115.57
  11
115.57
  20
-55.245
  21
-55.245
  40
0.635
  41
1
  50
0
  51
0
  71
0
  72
1
  73
2
  1
5V
  0
TEXT
  7
KICADB
  8
Black
  10
115.57
  11
115.57
  20
-57.785
  21
-57.785
  40
0.635
  41
1
  50
0
  51
0
  71
0
  72
1
  73
2
  1
GND
  0
TEXT
  7
KICADB
  8
Black
  10
115.57
  11
115.57
  20
-60.325
  21
-60.325
  40
0.635
  41
1
  50
0
  51
0
  71
0
  72
1
  73
2
  1
GND
  0
TEXT
  7
KICADB
  8
Black
  10
115.57
  11
115.57
  20
-75.946
  21
-75.946
  40
0.635
  41
1
  50
0
  51
0
  71
0
  72
1
  73
2
  1
PC3
  0
TEXT
  7
KICADB
  8
Black
  10
115.57
  11
115.57
  20
-62.865
  21
-62.865
  40
0.635
  41
1
  50
0
  51
0
  71
0
  72
1
  73
2
  1
Vin
0
LINE
8
Black
10
118.96
20
-73.525
11
118.96
21
-72.525
0
LINE
8
Black
10
117.26
20
-72.525
11
117.26
21
-73.525
0
LINE
8
Black
10
118.96
20
-79.875
11
118.96
21
-78.875
0
LINE
8
Black
10
117.26
20
-78.875
11
117.26
21
-79.875
0
LINE
8
Black
10
136.49
20
-64.375
11
135.29
21
-64.375
0
LINE
8
Black
10
135.29
20
-62.625
11
136.49
21
-62.625
0
LINE
8
Black
10
122.795
20
-72.425
11
122.795
21
-73.625
0
LINE
8
Black
10
121.045
20
-73.625
11
121.045
21
-72.425
0
LINE
8
Black
10
122.795
20
-78.775
11
122.795
21
-79.975
0
LINE
8
Black
10
121.045
20
-79.975
11
121.045
21
-78.775
0
LINE
8
Black
10
135.29
20
-83.58
11
136.49
21
-83.58
0
LINE
8
Black
10
136.49
20
-85.33
11
135.29
21
-85.33
0
LINE
8
Black
10
128.87
20
-85.33
11
127.67
21
-85.33
0
LINE
8
Black
10
127.67
20
-83.58
11
128.87
21
-83.58
0
LINE
8
Black
10
126.33
20
-63.035
11
126.38
21
-63.035
0
LINE
8
Black
10
126.33
20
-58.885
11
126.475
21
-58.885
0
LINE
8
Black
10
131.48
20
-58.885
11
131.335
21
-58.885
0
LINE
8
Black
10
131.48
20
-63.035
11
131.335
21
-63.035
0
LINE
8
Black
10
126.33
20
-63.035
11
126.33
21
-58.885
0
LINE
8
Black
10
131.48
20
-63.035
11
131.48
21
-58.885
0
LINE
8
Black
10
126.38
20
-63.035
11
126.38
21
-64.435
0
LINE
8
Black
10
121.07
20
-58.555
11
121.07
21
-59.555
0
LINE
8
Black
10
122.77
20
-59.555
11
122.77
21
-58.555
0
LINE
8
Black
10
118.96
20
-67.175
11
118.96
21
-66.175
0
LINE
8
Black
10
117.26
20
-66.175
11
117.26
21
-67.175
0
LINE
8
Black
10
118.985
20
-58.455
11
118.985
21
-59.655
0
LINE
8
Black
10
117.235
20
-59.655
11
117.235
21
-58.455
0
LINE
8
Black
10
136.49
20
-59.93
11
135.29
21
-59.93
0
LINE
8
Black
10
135.29
20
-58.18
11
136.49
21
-58.18
0
LINE
8
Black
10
122.795
20
-66.075
11
122.795
21
-67.275
0
LINE
8
Black
10
121.045
20
-67.275
11
121.045
21
-66.075
0
LINE
8
Black
10
125.67
20
-53.915
11
125.67
21
-56.575
0
LINE
8
Black
10
135.89
20
-53.915
11
125.67
21
-53.915
0
LINE
8
Black
10
135.89
20
-56.575
11
125.67
21
-56.575
0
LINE
8
Black
10
135.89
20
-53.915
11
135.89
21
-56.575
0
LINE
8
Black
10
137.16
20
-53.915
11
138.49
21
-53.915
0
LINE
8
Black
10
138.49
20
-53.915
11
138.49
21
-55.245
  0
TEXT
  7
KICADB
  8
Black
  10
120.015
  11
120.015
  20
-74.93
  21
-74.93
  40
1
  41
1
  50
90
  51
0
  71
0
  72
1
  73
2
  1
C1
  0
TEXT
  7
KICADB
  8
Black
  10
120.015
  11
120.015
  20
-71.755
  21
-71.755
  40
0.635
  41
1
  50
90
  51
0
  71
0
  72
1
  73
2
  1
.01uF
  0
TEXT
  7
KICADB
  8
Black
  10
120.015
  11
120.015
  20
-81.28
  21
-81.28
  40
1
  41
1
  50
90
  51
0
  71
0
  72
1
  73
2
  1
C2
  0
TEXT
  7
KICADB
  8
Black
  10
120.015
  11
120.015
  20
-78.105
  21
-78.105
  40
0.635
  41
1
  50
90
  51
0
  71
0
  72
1
  73
2
  1
.01uF
  0
TEXT
  7
KICADB
  8
Black
  10
134.62
  11
134.62
  20
-65.405
  21
-65.405
  40
1
  41
1
  50
0
  51
0
  71
0
  72
1
  73
2
  1
R1
  0
TEXT
  7
KICADB
  8
Black
  10
137.795
  11
137.795
  20
-65.405
  21
-65.405
  40
0.635
  41
1
  50
0
  51
0
  71
0
  72
1
  73
2
  1
10K
  0
TEXT
  7
KICADB
  8
Black
  10
123.825
  11
123.825
  20
-74.93
  21
-74.93
  40
1
  41
1
  50
90
  51
0
  71
0
  72
1
  73
2
  1
R2
  0
TEXT
  7
KICADB
  8
Black
  10
123.825
  11
123.825
  20
-71.755
  21
-71.755
  40
0.635
  41
1
  50
90
  51
0
  71
0
  72
1
  73
2
  1
10K
  0
TEXT
  7
KICADB
  8
Black
  10
123.825
  11
123.825
  20
-81.28
  21
-81.28
  40
1
  41
1
  50
90
  51
0
  71
0
  72
1
  73
2
  1
R3
  0
TEXT
  7
KICADB
  8
Black
  10
123.825
  11
123.825
  20
-78.105
  21
-78.105
  40
0.635
  41
1
  50
90
  51
0
  71
0
  72
1
  73
2
  1
10K
  0
TEXT
  7
KICADB
  8
Black
  10
134.62
  11
134.62
  20
-86.555
  21
-86.555
  40
1
  41
1
  50
0
  51
0
  71
0
  72
1
  73
2
  1
R4
  0
TEXT
  7
KICADB
  8
Black
  10
137.795
  11
137.795
  20
-86.36
  21
-86.36
  40
0.635
  41
1
  50
0
  51
0
  71
0
  72
1
  73
2
  1
10K
  0
TEXT
  7
KICADB
  8
Black
  10
127
  11
127
  20
-86.36
  21
-86.36
  40
1
  41
1
  50
0
  51
0
  71
0
  72
1
  73
2
  1
R5
  0
TEXT
  7
KICADB
  8
Black
  10
130.175
  11
130.175
  20
-86.36
  21
-86.36
  40
0.635
  41
1
  50
0
  51
0
  71
0
  72
1
  73
2
  1
10K
  0
TEXT
  7
KICADB
  8
Black
  10
132.715
  11
132.715
  20
-60.96
  21
-60.96
  40
1
  41
1
  50
90
  51
0
  71
0
  72
1
  73
2
  1
U1
  0
TEXT
  7
KICADB
  8
Black
  10
123.825
  11
123.825
  20
-60.96
  21
-60.96
  40
1
  41
1
  50
90
  51
0
  71
0
  72
1
  73
2
  1
C3
  0
TEXT
  7
KICADB
  8
Black
  10
123.825
  11
123.825
  20
-57.785
  21
-57.785
  40
0.635
  41
1
  50
90
  51
0
  71
0
  72
1
  73
2
  1
.1uF
  0
TEXT
  7
KICADB
  8
Black
  10
120.015
  11
120.015
  20
-68.58
  21
-68.58
  40
1
  41
1
  50
90
  51
0
  71
0
  72
1
  73
2
  1
C4
  0
TEXT
  7
KICADB
  8
Black
  10
120.015
  11
120.015
  20
-65.405
  21
-65.405
  40
0.635
  41
1
  50
90
  51
0
  71
0
  72
1
  73
2
  1
.01uF
  0
TEXT
  7
KICADB
  8
Black
  10
120.015
  11
120.015
  20
-60.96
  21
-60.96
  40
1
  41
1
  50
90
  51
0
  71
0
  72
1
  73
2
  1
R6
  0
TEXT
  7
KICADB
  8
Black
  10
120.015
  11
120.015
  20
-57.785
  21
-57.785
  40
0.635
  41
1
  50
90
  51
0
  71
0
  72
1
  73
2
  1
100
  0
TEXT
  7
KICADB
  8
Black
  10
134.62
  11
134.62
  20
-60.96
  21
-60.96
  40
1
  41
1
  50
0
  51
0
  71
0
  72
1
  73
2
  1
R7
  0
TEXT
  7
KICADB
  8
Black
  10
137.16
  11
137.16
  20
-60.96
  21
-60.96
  40
0.635
  41
1
  50
0
  51
0
  71
0
  72
1
  73
2
  1
33
  0
TEXT
  7
KICADB
  8
Black
  10
123.825
  11
123.825
  20
-68.58
  21
-68.58
  40
1
  41
1
  50
90
  51
0
  71
0
  72
1
  73
2
  1
R8
  0
TEXT
  7
KICADB
  8
Black
  10
123.825
  11
123.825
  20
-65.405
  21
-65.405
  40
0.635
  41
1
  50
90
  51
0
  71
0
  72
1
  73
2
  1
10K
  0
TEXT
  7
KICADB
  8
Black
  10
140.575
  11
140.575
  20
-74.295
  21
-74.295
  40
1
  41
1
  50
90
  51
0
  71
0
  72
1
  73
2
  1
SW1
  0
TEXT
  7
KICADB
  8
Black
  10
140.335
  11
140.335
  20
-55.245
  21
-55.245
  40
1
  41
1
  50
0
  51
0
  71
0
  72
1
  73
2
  1
J3
  0
ENDSEC
  0
EOF
