  0
SECTION
  2
HEADER
  9
$ANGBASE
  50
0.0
  9
$ANGDIR
  70
  1
  9
$MEASUREMENT
  70
0
  0
ENDSEC
  0
SECTION
  2
TABLES
  0
TABLE
  2
LTYPE
  70
1
  0
LTYPE
  2
CONTINUOUS
  70
0
  3
Solid line
  72
65
  73
0
  40
0.0
  0
ENDTAB
  0
TABLE
  2
STYLE
  70
4
  0
STYLE
  2
KICAD
  70
0
  40
0
  41
1
  42
1
  50
0
  71
0
  3
isocp.shx
  0
STYLE
  2
KICADB
  70
0
  40
0
  41
1
  42
1
  50
0
  71
0
  3
isocp.shx
  0
STYLE
  2
KICADI
  70
0
  40
0
  41
1
  42
1
  50
15
  71
0
  3
isocp.shx
  0
STYLE
  2
KICADBI
  70
0
  40
0
  41
1
  42
1
  50
15
  71
0
  3
isocp.shx
  0
ENDTAB
  0
TABLE
  2
LAYER
  70
30
  0
LAYER
  2
BLACK
  70
0
  62
7
  6
CONTINUOUS
  0
LAYER
  2
GRAY1
  70
0
  62
251
  6
CONTINUOUS
  0
LAYER
  2
GRAY2
  70
0
  62
8
  6
CONTINUOUS
  0
LAYER
  2
GRAY3
  70
0
  62
9
  6
CONTINUOUS
  0
LAYER
  2
WHITE
  70
0
  62
7
  6
CONTINUOUS
  0
LAYER
  2
LYELLOW
  70
0
  62
51
  6
CONTINUOUS
  0
LAYER
  2
BLUE1
  70
0
  62
178
  6
CONTINUOUS
  0
LAYER
  2
GREEN1
  70
0
  62
98
  6
CONTINUOUS
  0
LAYER
  2
CYAN1
  70
0
  62
138
  6
CONTINUOUS
  0
LAYER
  2
RED1
  70
0
  62
18
  6
CONTINUOUS
  0
LAYER
  2
MAGENTA1
  70
0
  62
228
  6
CONTINUOUS
  0
LAYER
  2
BROWN1
  70
0
  62
58
  6
CONTINUOUS
  0
LAYER
  2
BLUE2
  70
0
  62
5
  6
CONTINUOUS
  0
LAYER
  2
GREEN2
  70
0
  62
3
  6
CONTINUOUS
  0
LAYER
  2
CYAN2
  70
0
  62
4
  6
CONTINUOUS
  0
LAYER
  2
RED2
  70
0
  62
1
  6
CONTINUOUS
  0
LAYER
  2
MAGENTA2
  70
0
  62
6
  6
CONTINUOUS
  0
LAYER
  2
BROWN2
  70
0
  62
54
  6
CONTINUOUS
  0
LAYER
  2
BLUE3
  70
0
  62
171
  6
CONTINUOUS
  0
LAYER
  2
GREEN3
  70
0
  62
91
  6
CONTINUOUS
  0
LAYER
  2
CYAN3
  70
0
  62
131
  6
CONTINUOUS
  0
LAYER
  2
RED3
  70
0
  62
11
  6
CONTINUOUS
  0
LAYER
  2
MAGENTA3
  70
0
  62
221
  6
CONTINUOUS
  0
LAYER
  2
YELLOW3
  70
0
  62
2
  6
CONTINUOUS
  0
LAYER
  2
BLUE4
  70
0
  62
5
  6
CONTINUOUS
  0
LAYER
  2
GREEN4
  70
0
  62
3
  6
CONTINUOUS
  0
LAYER
  2
CYAN4
  70
0
  62
4
  6
CONTINUOUS
  0
LAYER
  2
RED4
  70
0
  62
1
  6
CONTINUOUS
  0
LAYER
  2
MAGENTA4
  70
0
  62
6
  6
CONTINUOUS
  0
LAYER
  2
YELLOW4
  70
0
  62
2
  6
CONTINUOUS
  0
ENDTAB
  0
ENDSEC
  0
SECTION
  2
ENTITIES
0
LINE
8
Black
10
136.342
20
-66.5762
11
136.572
21
-66.709
0
LINE
8
Black
10
136.572
20
-66.709
11
136.742
21
-66.9125
0
LINE
8
Black
10
136.742
20
-66.9125
11
136.833
21
-67.1622
0
LINE
8
Black
10
136.833
20
-67.1622
11
136.833
21
-67.4278
0
LINE
8
Black
10
136.833
20
-67.4278
11
136.742
21
-67.6775
0
LINE
8
Black
10
136.742
20
-67.6775
11
136.572
21
-67.881
0
LINE
8
Black
10
136.572
20
-67.881
11
136.342
21
-68.0138
0
LINE
8
Black
10
136.342
20
-68.0138
11
136.144
21
-68.0486
0
LINE
8
Black
10
136.144
20
-68.0486
11
136.144
21
-69.215
0
LINE
8
Black
10
136.144
20
-69.215
11
136.142
21
-69.226
0
LINE
8
Black
10
136.142
20
-69.226
11
136.143
21
-69.2371
0
LINE
8
Black
10
136.143
20
-69.2371
11
136.134
21
-69.2692
0
LINE
8
Black
10
136.134
20
-69.2692
11
136.129
21
-69.3019
0
LINE
8
Black
10
136.129
20
-69.3019
11
136.123
21
-69.3116
0
LINE
8
Black
10
136.123
20
-69.3116
11
136.12
21
-69.3223
0
LINE
8
Black
10
136.12
20
-69.3223
11
136.101
21
-69.3495
0
LINE
8
Black
10
136.101
20
-69.3495
11
136.085
21
-69.3783
0
LINE
8
Black
10
136.085
20
-69.3783
11
136.076
21
-69.3855
0
LINE
8
Black
10
136.076
20
-69.3855
11
136.07
21
-69.3946
0
LINE
8
Black
10
136.07
20
-69.3946
11
134.874
21
-70.5902
0
LINE
8
Black
10
134.874
20
-70.5902
11
134.874
21
-77.3648
0
LINE
8
Black
10
134.874
20
-77.3648
11
137.42
21
-79.9104
0
LINE
8
Black
10
137.42
20
-79.9104
11
137.426
21
-79.9195
0
LINE
8
Black
10
137.426
20
-79.9195
11
137.435
21
-79.9267
0
LINE
8
Black
10
137.435
20
-79.9267
11
137.451
21
-79.9555
0
LINE
8
Black
10
137.451
20
-79.9555
11
137.47
21
-79.9827
0
LINE
8
Black
10
137.47
20
-79.9827
11
137.473
21
-79.9934
0
LINE
8
Black
10
137.473
20
-79.9934
11
137.479
21
-80.0031
0
LINE
8
Black
10
137.479
20
-80.0031
11
137.484
21
-80.0358
0
LINE
8
Black
10
137.484
20
-80.0358
11
137.493
21
-80.0679
0
LINE
8
Black
10
137.493
20
-80.0679
11
137.492
21
-80.079
0
LINE
8
Black
10
137.492
20
-80.079
11
137.494
21
-80.09
0
LINE
8
Black
10
137.494
20
-80.09
11
137.494
21
-83.805
0
LINE
8
Black
10
137.494
20
-83.805
11
137.99
21
-83.805
0
LINE
8
Black
10
137.99
20
-83.805
11
137.99
21
-85.105
0
LINE
8
Black
10
137.99
20
-85.105
11
137.494
21
-85.105
0
LINE
8
Black
10
137.494
20
-85.105
11
137.494
21
-85.613
0
LINE
8
Black
10
137.494
20
-85.613
11
137.494
21
-85.645
0
LINE
8
Black
10
137.494
20
-85.645
11
137.492
21
-85.656
0
LINE
8
Black
10
137.492
20
-85.656
11
137.493
21
-85.6671
0
LINE
8
Black
10
137.493
20
-85.6671
11
137.484
21
-85.6992
0
LINE
8
Black
10
137.484
20
-85.6992
11
137.479
21
-85.7319
0
LINE
8
Black
10
137.479
20
-85.7319
11
137.473
21
-85.7416
0
LINE
8
Black
10
137.473
20
-85.7416
11
137.47
21
-85.7523
0
LINE
8
Black
10
137.47
20
-85.7523
11
137.451
21
-85.7795
0
LINE
8
Black
10
137.451
20
-85.7795
11
137.435
21
-85.8083
0
LINE
8
Black
10
137.435
20
-85.8083
11
137.426
21
-85.8155
0
LINE
8
Black
10
137.426
20
-85.8155
11
137.42
21
-85.8246
0
LINE
8
Black
10
137.42
20
-85.8246
11
136.705
21
-86.5396
0
LINE
8
Black
10
136.705
20
-86.5396
11
136.695
21
-86.546
0
LINE
8
Black
10
136.695
20
-86.546
11
136.688
21
-86.5546
0
LINE
8
Black
10
136.688
20
-86.5546
11
136.66
21
-86.5712
0
LINE
8
Black
10
136.66
20
-86.5712
11
136.632
21
-86.5902
0
LINE
8
Black
10
136.632
20
-86.5902
11
136.622
21
-86.5931
0
LINE
8
Black
10
136.622
20
-86.5931
11
136.612
21
-86.5987
0
LINE
8
Black
10
136.612
20
-86.5987
11
136.579
21
-86.6044
0
LINE
8
Black
10
136.579
20
-86.6044
11
136.547
21
-86.613
0
LINE
8
Black
10
136.547
20
-86.613
11
136.536
21
-86.6121
0
LINE
8
Black
10
136.536
20
-86.6121
11
136.525
21
-86.614
0
LINE
8
Black
10
136.525
20
-86.614
11
136.078
21
-86.614
0
LINE
8
Black
10
136.078
20
-86.614
11
135.999
21
-86.6595
0
LINE
8
Black
10
135.999
20
-86.6595
11
135.89
21
-86.6787
0
LINE
8
Black
10
135.89
20
-86.6787
11
135.781
21
-86.6595
0
LINE
8
Black
10
135.781
20
-86.6595
11
135.685
21
-86.6041
0
LINE
8
Black
10
135.685
20
-86.6041
11
135.614
21
-86.5194
0
LINE
8
Black
10
135.614
20
-86.5194
11
135.576
21
-86.4153
0
LINE
8
Black
10
135.576
20
-86.4153
11
135.576
21
-86.3047
0
LINE
8
Black
10
135.576
20
-86.3047
11
135.614
21
-86.2006
0
LINE
8
Black
10
135.614
20
-86.2006
11
135.685
21
-86.1159
0
LINE
8
Black
10
135.685
20
-86.1159
11
135.781
21
-86.0605
0
LINE
8
Black
10
135.781
20
-86.0605
11
135.89
21
-86.0413
0
LINE
8
Black
10
135.89
20
-86.0413
11
135.999
21
-86.0605
0
LINE
8
Black
10
135.999
20
-86.0605
11
136.078
21
-86.106
0
LINE
8
Black
10
136.078
20
-86.106
11
136.42
21
-86.106
0
LINE
8
Black
10
136.42
20
-86.106
11
136.986
21
-85.5398
0
LINE
8
Black
10
136.986
20
-85.5398
11
136.986
21
-85.105
0
LINE
8
Black
10
136.986
20
-85.105
11
136.49
21
-85.105
0
LINE
8
Black
10
136.49
20
-85.105
11
136.49
21
-83.805
0
LINE
8
Black
10
136.49
20
-83.805
11
136.986
21
-83.805
0
LINE
8
Black
10
136.986
20
-83.805
11
136.986
21
-80.1952
0
LINE
8
Black
10
136.986
20
-80.1952
11
134.44
21
-77.6496
0
LINE
8
Black
10
134.44
20
-77.6496
11
134.434
21
-77.6405
0
LINE
8
Black
10
134.434
20
-77.6405
11
134.425
21
-77.6333
0
LINE
8
Black
10
134.425
20
-77.6333
11
134.409
21
-77.6045
0
LINE
8
Black
10
134.409
20
-77.6045
11
134.39
21
-77.5773
0
LINE
8
Black
10
134.39
20
-77.5773
11
134.387
21
-77.5666
0
LINE
8
Black
10
134.387
20
-77.5666
11
134.381
21
-77.5569
0
LINE
8
Black
10
134.381
20
-77.5569
11
134.376
21
-77.5242
0
LINE
8
Black
10
134.376
20
-77.5242
11
134.367
21
-77.4921
0
LINE
8
Black
10
134.367
20
-77.4921
11
134.368
21
-77.481
0
LINE
8
Black
10
134.368
20
-77.481
11
134.366
21
-77.47
0
LINE
8
Black
10
134.366
20
-77.47
11
134.366
21
-70.485
0
LINE
8
Black
10
134.366
20
-70.485
11
134.368
21
-70.474
0
LINE
8
Black
10
134.368
20
-70.474
11
134.367
21
-70.4629
0
LINE
8
Black
10
134.367
20
-70.4629
11
134.376
21
-70.4308
0
LINE
8
Black
10
134.376
20
-70.4308
11
134.381
21
-70.3981
0
LINE
8
Black
10
134.381
20
-70.3981
11
134.387
21
-70.3884
0
LINE
8
Black
10
134.387
20
-70.3884
11
134.39
21
-70.3777
0
LINE
8
Black
10
134.39
20
-70.3777
11
134.409
21
-70.3505
0
LINE
8
Black
10
134.409
20
-70.3505
11
134.425
21
-70.3217
0
LINE
8
Black
10
134.425
20
-70.3217
11
134.434
21
-70.3145
0
LINE
8
Black
10
134.434
20
-70.3145
11
134.44
21
-70.3054
0
LINE
8
Black
10
134.44
20
-70.3054
11
135.636
21
-69.1098
0
LINE
8
Black
10
135.636
20
-69.1098
11
135.636
21
-67.9085
0
LINE
8
Black
10
135.636
20
-67.9085
11
135.588
21
-67.881
0
LINE
8
Black
10
135.588
20
-67.881
11
135.418
21
-67.6775
0
LINE
8
Black
10
135.418
20
-67.6775
11
135.327
21
-67.4278
0
LINE
8
Black
10
135.327
20
-67.4278
11
135.327
21
-67.1622
0
LINE
8
Black
10
135.327
20
-67.1622
11
135.418
21
-66.9125
0
LINE
8
Black
10
135.418
20
-66.9125
11
135.588
21
-66.709
0
LINE
8
Black
10
135.588
20
-66.709
11
135.818
21
-66.5762
0
LINE
8
Black
10
135.818
20
-66.5762
11
136.08
21
-66.5301
0
LINE
8
Black
10
136.08
20
-66.5301
11
136.342
21
-66.5762
0
LINE
8
Black
10
122.57
20
-81.475
11
122.174
21
-81.475
0
LINE
8
Black
10
122.174
20
-81.475
11
122.174
21
-81.983
0
LINE
8
Black
10
122.174
20
-81.983
11
122.174
21
-84.9848
0
LINE
8
Black
10
122.174
20
-84.9848
11
123.295
21
-86.106
0
LINE
8
Black
10
123.295
20
-86.106
11
133.688
21
-86.106
0
LINE
8
Black
10
133.688
20
-86.106
11
134.286
21
-85.5078
0
LINE
8
Black
10
134.286
20
-85.5078
11
134.286
21
-85.105
0
LINE
8
Black
10
134.286
20
-85.105
11
133.79
21
-85.105
0
LINE
8
Black
10
133.79
20
-85.105
11
133.79
21
-83.805
0
LINE
8
Black
10
133.79
20
-83.805
11
134.326
21
-83.805
0
LINE
8
Black
10
134.326
20
-83.805
11
134.326
21
-82.5784
0
LINE
8
Black
10
134.326
20
-82.5784
11
134.297
21
-82.5732
0
LINE
8
Black
10
134.297
20
-82.5732
11
134.048
21
-82.4294
0
LINE
8
Black
10
134.048
20
-82.4294
11
133.863
21
-82.2091
0
LINE
8
Black
10
133.863
20
-82.2091
11
133.764
21
-81.9388
0
LINE
8
Black
10
133.764
20
-81.9388
11
133.764
21
-81.6512
0
LINE
8
Black
10
133.764
20
-81.6512
11
133.863
21
-81.3809
0
LINE
8
Black
10
133.863
20
-81.3809
11
134.048
21
-81.1606
0
LINE
8
Black
10
134.048
20
-81.1606
11
134.297
21
-81.0168
0
LINE
8
Black
10
134.297
20
-81.0168
11
134.58
21
-80.9668
0
LINE
8
Black
10
134.58
20
-80.9668
11
134.863
21
-81.0168
0
LINE
8
Black
10
134.863
20
-81.0168
11
135.112
21
-81.1606
0
LINE
8
Black
10
135.112
20
-81.1606
11
135.297
21
-81.3809
0
LINE
8
Black
10
135.297
20
-81.3809
11
135.396
21
-81.6512
0
LINE
8
Black
10
135.396
20
-81.6512
11
135.396
21
-81.9388
0
LINE
8
Black
10
135.396
20
-81.9388
11
135.297
21
-82.2091
0
LINE
8
Black
10
135.297
20
-82.2091
11
135.112
21
-82.4294
0
LINE
8
Black
10
135.112
20
-82.4294
11
134.863
21
-82.5732
0
LINE
8
Black
10
134.863
20
-82.5732
11
134.834
21
-82.5784
0
LINE
8
Black
10
134.834
20
-82.5784
11
134.834
21
-83.805
0
LINE
8
Black
10
134.834
20
-83.805
11
135.29
21
-83.805
0
LINE
8
Black
10
135.29
20
-83.805
11
135.29
21
-85.105
0
LINE
8
Black
10
135.29
20
-85.105
11
134.794
21
-85.105
0
LINE
8
Black
10
134.794
20
-85.105
11
134.794
21
-85.613
0
LINE
8
Black
10
134.794
20
-85.613
11
134.792
21
-85.624
0
LINE
8
Black
10
134.792
20
-85.624
11
134.793
21
-85.6351
0
LINE
8
Black
10
134.793
20
-85.6351
11
134.784
21
-85.6672
0
LINE
8
Black
10
134.784
20
-85.6672
11
134.779
21
-85.6999
0
LINE
8
Black
10
134.779
20
-85.6999
11
134.773
21
-85.7096
0
LINE
8
Black
10
134.773
20
-85.7096
11
134.77
21
-85.7203
0
LINE
8
Black
10
134.77
20
-85.7203
11
134.751
21
-85.7475
0
LINE
8
Black
10
134.751
20
-85.7475
11
134.735
21
-85.7763
0
LINE
8
Black
10
134.735
20
-85.7763
11
134.726
21
-85.7835
0
LINE
8
Black
10
134.726
20
-85.7835
11
134.72
21
-85.7926
0
LINE
8
Black
10
134.72
20
-85.7926
11
133.973
21
-86.5396
0
LINE
8
Black
10
133.973
20
-86.5396
11
133.963
21
-86.546
0
LINE
8
Black
10
133.963
20
-86.546
11
133.956
21
-86.5546
0
LINE
8
Black
10
133.956
20
-86.5546
11
133.928
21
-86.5712
0
LINE
8
Black
10
133.928
20
-86.5712
11
133.9
21
-86.5902
0
LINE
8
Black
10
133.9
20
-86.5902
11
133.89
21
-86.5931
0
LINE
8
Black
10
133.89
20
-86.5931
11
133.88
21
-86.5987
0
LINE
8
Black
10
133.88
20
-86.5987
11
133.847
21
-86.6044
0
LINE
8
Black
10
133.847
20
-86.6044
11
133.815
21
-86.613
0
LINE
8
Black
10
133.815
20
-86.613
11
133.804
21
-86.6121
0
LINE
8
Black
10
133.804
20
-86.6121
11
133.793
21
-86.614
0
LINE
8
Black
10
133.793
20
-86.614
11
123.19
21
-86.614
0
LINE
8
Black
10
123.19
20
-86.614
11
123.179
21
-86.6121
0
LINE
8
Black
10
123.179
20
-86.6121
11
123.168
21
-86.613
0
LINE
8
Black
10
123.168
20
-86.613
11
123.136
21
-86.6044
0
LINE
8
Black
10
123.136
20
-86.6044
11
123.103
21
-86.5987
0
LINE
8
Black
10
123.103
20
-86.5987
11
123.093
21
-86.5931
0
LINE
8
Black
10
123.093
20
-86.5931
11
123.083
21
-86.5902
0
LINE
8
Black
10
123.083
20
-86.5902
11
123.055
21
-86.5712
0
LINE
8
Black
10
123.055
20
-86.5712
11
123.027
21
-86.5546
0
LINE
8
Black
10
123.027
20
-86.5546
11
123.02
21
-86.546
0
LINE
8
Black
10
123.02
20
-86.546
11
123.01
21
-86.5396
0
LINE
8
Black
10
123.01
20
-86.5396
11
121.74
21
-85.2696
0
LINE
8
Black
10
121.74
20
-85.2696
11
121.734
21
-85.2605
0
LINE
8
Black
10
121.734
20
-85.2605
11
121.725
21
-85.2533
0
LINE
8
Black
10
121.725
20
-85.2533
11
121.709
21
-85.2245
0
LINE
8
Black
10
121.709
20
-85.2245
11
121.69
21
-85.1973
0
LINE
8
Black
10
121.69
20
-85.1973
11
121.687
21
-85.1866
0
LINE
8
Black
10
121.687
20
-85.1866
11
121.681
21
-85.1769
0
LINE
8
Black
10
121.681
20
-85.1769
11
121.676
21
-85.1442
0
LINE
8
Black
10
121.676
20
-85.1442
11
121.667
21
-85.1121
0
LINE
8
Black
10
121.667
20
-85.1121
11
121.668
21
-85.101
0
LINE
8
Black
10
121.668
20
-85.101
11
121.666
21
-85.09
0
LINE
8
Black
10
121.666
20
-85.09
11
121.666
21
-81.983
0
LINE
8
Black
10
121.666
20
-81.983
11
121.666
21
-81.475
0
LINE
8
Black
10
121.666
20
-81.475
11
121.27
21
-81.475
0
LINE
8
Black
10
121.27
20
-81.475
11
121.27
21
-79.975
0
LINE
8
Black
10
121.27
20
-79.975
11
122.57
21
-79.975
0
LINE
8
Black
10
122.57
20
-79.975
11
122.57
21
-81.475
0
LINE
8
Black
10
127.67
20
-85.105
11
126.17
21
-85.105
0
LINE
8
Black
10
126.17
20
-85.105
11
126.17
21
-84.709
0
LINE
8
Black
10
126.17
20
-84.709
11
125.2
21
-84.709
0
LINE
8
Black
10
125.2
20
-84.709
11
124.774
21
-85.1353
0
LINE
8
Black
10
124.774
20
-85.1353
11
124.774
21
-85.1453
0
LINE
8
Black
10
124.774
20
-85.1453
11
124.736
21
-85.2494
0
LINE
8
Black
10
124.736
20
-85.2494
11
124.665
21
-85.3341
0
LINE
8
Black
10
124.665
20
-85.3341
11
124.569
21
-85.3895
0
LINE
8
Black
10
124.569
20
-85.3895
11
124.46
21
-85.4087
0
LINE
8
Black
10
124.46
20
-85.4087
11
124.351
21
-85.3895
0
LINE
8
Black
10
124.351
20
-85.3895
11
124.255
21
-85.3341
0
LINE
8
Black
10
124.255
20
-85.3341
11
124.184
21
-85.2494
0
LINE
8
Black
10
124.184
20
-85.2494
11
124.146
21
-85.1453
0
LINE
8
Black
10
124.146
20
-85.1453
11
124.146
21
-85.0347
0
LINE
8
Black
10
124.146
20
-85.0347
11
124.184
21
-84.9306
0
LINE
8
Black
10
124.184
20
-84.9306
11
124.255
21
-84.8459
0
LINE
8
Black
10
124.255
20
-84.8459
11
124.351
21
-84.7905
0
LINE
8
Black
10
124.351
20
-84.7905
11
124.411
21
-84.78
0
LINE
8
Black
10
124.411
20
-84.78
11
124.915
21
-84.2754
0
LINE
8
Black
10
124.915
20
-84.2754
11
124.925
21
-84.269
0
LINE
8
Black
10
124.925
20
-84.269
11
124.932
21
-84.2604
0
LINE
8
Black
10
124.932
20
-84.2604
11
124.96
21
-84.2438
0
LINE
8
Black
10
124.96
20
-84.2438
11
124.988
21
-84.2248
0
LINE
8
Black
10
124.988
20
-84.2248
11
124.998
21
-84.2219
0
LINE
8
Black
10
124.998
20
-84.2219
11
125.008
21
-84.2163
0
LINE
8
Black
10
125.008
20
-84.2163
11
125.041
21
-84.2106
0
LINE
8
Black
10
125.041
20
-84.2106
11
125.073
21
-84.202
0
LINE
8
Black
10
125.073
20
-84.202
11
125.084
21
-84.2029
0
LINE
8
Black
10
125.084
20
-84.2029
11
125.095
21
-84.201
0
LINE
8
Black
10
125.095
20
-84.201
11
126.17
21
-84.201
0
LINE
8
Black
10
126.17
20
-84.201
11
126.17
21
-83.805
0
LINE
8
Black
10
126.17
20
-83.805
11
127.67
21
-83.805
0
LINE
8
Black
10
127.67
20
-83.805
11
127.67
21
-85.105
0
LINE
8
Black
10
122.57
20
-74.7658
11
129.01
21
-81.2057
0
LINE
8
Black
10
129.01
20
-81.2057
11
129.048
21
-81.1606
0
LINE
8
Black
10
129.048
20
-81.1606
11
129.297
21
-81.0168
0
LINE
8
Black
10
129.297
20
-81.0168
11
129.58
21
-80.9668
0
LINE
8
Black
10
129.58
20
-80.9668
11
129.863
21
-81.0168
0
LINE
8
Black
10
129.863
20
-81.0168
11
130.112
21
-81.1606
0
LINE
8
Black
10
130.112
20
-81.1606
11
130.297
21
-81.3809
0
LINE
8
Black
10
130.297
20
-81.3809
11
130.396
21
-81.6512
0
LINE
8
Black
10
130.396
20
-81.6512
11
130.396
21
-81.9388
0
LINE
8
Black
10
130.396
20
-81.9388
11
130.297
21
-82.2091
0
LINE
8
Black
10
130.297
20
-82.2091
11
130.112
21
-82.4294
0
LINE
8
Black
10
130.112
20
-82.4294
11
129.863
21
-82.5732
0
LINE
8
Black
10
129.863
20
-82.5732
11
129.834
21
-82.5784
0
LINE
8
Black
10
129.834
20
-82.5784
11
129.834
21
-83.805
0
LINE
8
Black
10
129.834
20
-83.805
11
130.37
21
-83.805
0
LINE
8
Black
10
130.37
20
-83.805
11
130.37
21
-85.105
0
LINE
8
Black
10
130.37
20
-85.105
11
128.87
21
-85.105
0
LINE
8
Black
10
128.87
20
-85.105
11
128.87
21
-83.805
0
LINE
8
Black
10
128.87
20
-83.805
11
129.326
21
-83.805
0
LINE
8
Black
10
129.326
20
-83.805
11
129.326
21
-82.5784
0
LINE
8
Black
10
129.326
20
-82.5784
11
129.297
21
-82.5732
0
LINE
8
Black
10
129.297
20
-82.5732
11
129.048
21
-82.4294
0
LINE
8
Black
10
129.048
20
-82.4294
11
128.863
21
-82.2091
0
LINE
8
Black
10
128.863
20
-82.2091
11
128.764
21
-81.9388
0
LINE
8
Black
10
128.764
20
-81.9388
11
128.764
21
-81.6786
0
LINE
8
Black
10
128.764
20
-81.6786
11
122.211
21
-75.125
0
LINE
8
Black
10
122.211
20
-75.125
11
121.27
21
-75.125
0
LINE
8
Black
10
121.27
20
-75.125
11
121.27
21
-73.625
0
LINE
8
Black
10
121.27
20
-73.625
11
122.57
21
-73.625
0
LINE
8
Black
10
122.57
20
-73.625
11
122.57
21
-74.7658
0
LINE
8
Black
10
132.363
20
-81.0168
11
132.612
21
-81.1606
0
LINE
8
Black
10
132.612
20
-81.1606
11
132.797
21
-81.3809
0
LINE
8
Black
10
132.797
20
-81.3809
11
132.896
21
-81.6512
0
LINE
8
Black
10
132.896
20
-81.6512
11
132.896
21
-81.9388
0
LINE
8
Black
10
132.896
20
-81.9388
11
132.797
21
-82.2091
0
LINE
8
Black
10
132.797
20
-82.2091
11
132.612
21
-82.4294
0
LINE
8
Black
10
132.612
20
-82.4294
11
132.588
21
-82.4434
0
LINE
8
Black
10
132.588
20
-82.4434
11
132.588
21
-83.82
0
LINE
8
Black
10
132.588
20
-83.82
11
132.557
21
-83.9937
0
LINE
8
Black
10
132.557
20
-83.9937
11
132.469
21
-84.1465
0
LINE
8
Black
10
132.469
20
-84.1465
11
132.334
21
-84.2599
0
LINE
8
Black
10
132.334
20
-84.2599
11
132.168
21
-84.3203
0
LINE
8
Black
10
132.168
20
-84.3203
11
131.992
21
-84.3203
0
LINE
8
Black
10
131.992
20
-84.3203
11
131.826
21
-84.2599
0
LINE
8
Black
10
131.826
20
-84.2599
11
131.691
21
-84.1465
0
LINE
8
Black
10
131.691
20
-84.1465
11
131.603
21
-83.9937
0
LINE
8
Black
10
131.603
20
-83.9937
11
131.572
21
-83.82
0
LINE
8
Black
10
131.572
20
-83.82
11
131.572
21
-82.4434
0
LINE
8
Black
10
131.572
20
-82.4434
11
131.548
21
-82.4294
0
LINE
8
Black
10
131.548
20
-82.4294
11
131.363
21
-82.2091
0
LINE
8
Black
10
131.363
20
-82.2091
11
131.264
21
-81.9388
0
LINE
8
Black
10
131.264
20
-81.9388
11
131.264
21
-81.6512
0
LINE
8
Black
10
131.264
20
-81.6512
11
131.363
21
-81.3809
0
LINE
8
Black
10
131.363
20
-81.3809
11
131.548
21
-81.1606
0
LINE
8
Black
10
131.548
20
-81.1606
11
131.797
21
-81.0168
0
LINE
8
Black
10
131.797
20
-81.0168
11
132.08
21
-80.9668
0
LINE
8
Black
10
132.08
20
-80.9668
11
132.363
21
-81.0168
0
LINE
8
Black
10
118.735
20
-81.375
11
118.618
21
-81.375
0
LINE
8
Black
10
118.618
20
-81.375
11
118.618
21
-82.55
0
LINE
8
Black
10
118.618
20
-82.55
11
118.587
21
-82.7237
0
LINE
8
Black
10
118.587
20
-82.7237
11
118.499
21
-82.8765
0
LINE
8
Black
10
118.499
20
-82.8765
11
118.364
21
-82.9899
0
LINE
8
Black
10
118.364
20
-82.9899
11
118.198
21
-83.0503
0
LINE
8
Black
10
118.198
20
-83.0503
11
118.022
21
-83.0503
0
LINE
8
Black
10
118.022
20
-83.0503
11
117.856
21
-82.9899
0
LINE
8
Black
10
117.856
20
-82.9899
11
117.721
21
-82.8765
0
LINE
8
Black
10
117.721
20
-82.8765
11
117.633
21
-82.7237
0
LINE
8
Black
10
117.633
20
-82.7237
11
117.602
21
-82.55
0
LINE
8
Black
10
117.602
20
-82.55
11
117.602
21
-81.375
0
LINE
8
Black
10
117.602
20
-81.375
11
117.485
21
-81.375
0
LINE
8
Black
10
117.485
20
-81.375
11
117.485
21
-79.875
0
LINE
8
Black
10
117.485
20
-79.875
11
118.735
21
-79.875
0
LINE
8
Black
10
118.735
20
-79.875
11
118.735
21
-81.375
0
LINE
8
Black
10
115.581
20
-72.7729
11
115.592
21
-72.772
0
LINE
8
Black
10
115.592
20
-72.772
11
115.624
21
-72.7806
0
LINE
8
Black
10
115.624
20
-72.7806
11
115.657
21
-72.7863
0
LINE
8
Black
10
115.657
20
-72.7863
11
115.667
21
-72.7919
0
LINE
8
Black
10
115.667
20
-72.7919
11
115.677
21
-72.7948
0
LINE
8
Black
10
115.677
20
-72.7948
11
115.705
21
-72.8138
0
LINE
8
Black
10
115.705
20
-72.8138
11
115.733
21
-72.8304
0
LINE
8
Black
10
115.733
20
-72.8304
11
115.74
21
-72.839
0
LINE
8
Black
10
115.74
20
-72.839
11
115.75
21
-72.8454
0
LINE
8
Black
10
115.75
20
-72.8454
11
116.385
21
-73.4804
0
LINE
8
Black
10
116.385
20
-73.4804
11
116.391
21
-73.4895
0
LINE
8
Black
10
116.391
20
-73.4895
11
116.4
21
-73.4967
0
LINE
8
Black
10
116.4
20
-73.4967
11
116.416
21
-73.5255
0
LINE
8
Black
10
116.416
20
-73.5255
11
116.435
21
-73.5527
0
LINE
8
Black
10
116.435
20
-73.5527
11
116.438
21
-73.5634
0
LINE
8
Black
10
116.438
20
-73.5634
11
116.444
21
-73.5731
0
LINE
8
Black
10
116.444
20
-73.5731
11
116.449
21
-73.6058
0
LINE
8
Black
10
116.449
20
-73.6058
11
116.458
21
-73.6379
0
LINE
8
Black
10
116.458
20
-73.6379
11
116.457
21
-73.649
0
LINE
8
Black
10
116.457
20
-73.649
11
116.459
21
-73.66
0
LINE
8
Black
10
116.459
20
-73.66
11
116.459
21
-75.9898
0
LINE
8
Black
10
116.459
20
-75.9898
11
117.844
21
-77.375
0
LINE
8
Black
10
117.844
20
-77.375
11
118.735
21
-77.375
0
LINE
8
Black
10
118.735
20
-77.375
11
118.735
21
-77.871
0
LINE
8
Black
10
118.735
20
-77.871
11
121.27
21
-77.871
0
LINE
8
Black
10
121.27
20
-77.871
11
121.27
21
-77.275
0
LINE
8
Black
10
121.27
20
-77.275
11
122.57
21
-77.275
0
LINE
8
Black
10
122.57
20
-77.275
11
122.57
21
-78.775
0
LINE
8
Black
10
122.57
20
-78.775
11
121.27
21
-78.775
0
LINE
8
Black
10
121.27
20
-78.775
11
121.27
21
-78.379
0
LINE
8
Black
10
121.27
20
-78.379
11
118.735
21
-78.379
0
LINE
8
Black
10
118.735
20
-78.379
11
118.735
21
-78.875
0
LINE
8
Black
10
118.735
20
-78.875
11
117.485
21
-78.875
0
LINE
8
Black
10
117.485
20
-78.875
11
117.485
21
-77.7342
0
LINE
8
Black
10
117.485
20
-77.7342
11
116.025
21
-76.2746
0
LINE
8
Black
10
116.025
20
-76.2746
11
116.019
21
-76.2655
0
LINE
8
Black
10
116.019
20
-76.2655
11
116.01
21
-76.2583
0
LINE
8
Black
10
116.01
20
-76.2583
11
115.994
21
-76.2295
0
LINE
8
Black
10
115.994
20
-76.2295
11
115.975
21
-76.2023
0
LINE
8
Black
10
115.975
20
-76.2023
11
115.972
21
-76.1916
0
LINE
8
Black
10
115.972
20
-76.1916
11
115.966
21
-76.1819
0
LINE
8
Black
10
115.966
20
-76.1819
11
115.961
21
-76.1492
0
LINE
8
Black
10
115.961
20
-76.1492
11
115.952
21
-76.1171
0
LINE
8
Black
10
115.952
20
-76.1171
11
115.953
21
-76.106
0
LINE
8
Black
10
115.953
20
-76.106
11
115.951
21
-76.095
0
LINE
8
Black
10
115.951
20
-76.095
11
115.951
21
-73.7652
0
LINE
8
Black
10
115.951
20
-73.7652
11
115.465
21
-73.279
0
LINE
8
Black
10
115.465
20
-73.279
11
114.867
21
-73.279
0
LINE
8
Black
10
114.867
20
-73.279
11
114.467
21
-73.279
0
LINE
8
Black
10
114.467
20
-73.279
11
114.404
21
-73.45
0
LINE
8
Black
10
114.404
20
-73.45
11
114.215
21
-73.6761
0
LINE
8
Black
10
114.215
20
-73.6761
11
113.959
21
-73.8237
0
LINE
8
Black
10
113.959
20
-73.8237
11
113.668
21
-73.875
0
LINE
8
Black
10
113.668
20
-73.875
11
113.662
21
-73.875
0
LINE
8
Black
10
113.662
20
-73.875
11
113.371
21
-73.8237
0
LINE
8
Black
10
113.371
20
-73.8237
11
113.115
21
-73.6761
0
LINE
8
Black
10
113.115
20
-73.6761
11
112.926
21
-73.45
0
LINE
8
Black
10
112.926
20
-73.45
11
112.825
21
-73.1726
0
LINE
8
Black
10
112.825
20
-73.1726
11
112.825
21
-72.8774
0
LINE
8
Black
10
112.825
20
-72.8774
11
112.926
21
-72.6
0
LINE
8
Black
10
112.926
20
-72.6
11
113.115
21
-72.3739
0
LINE
8
Black
10
113.115
20
-72.3739
11
113.371
21
-72.2263
0
LINE
8
Black
10
113.371
20
-72.2263
11
113.662
21
-72.175
0
LINE
8
Black
10
113.662
20
-72.175
11
113.668
21
-72.175
0
LINE
8
Black
10
113.668
20
-72.175
11
113.959
21
-72.2263
0
LINE
8
Black
10
113.959
20
-72.2263
11
114.215
21
-72.3739
0
LINE
8
Black
10
114.215
20
-72.3739
11
114.404
21
-72.6
0
LINE
8
Black
10
114.404
20
-72.6
11
114.467
21
-72.771
0
LINE
8
Black
10
114.467
20
-72.771
11
114.867
21
-72.771
0
LINE
8
Black
10
114.867
20
-72.771
11
115.57
21
-72.771
0
LINE
8
Black
10
115.57
20
-72.771
11
115.581
21
-72.7729
0
LINE
8
Black
10
118.735
20
-75.025
11
118.618
21
-75.025
0
LINE
8
Black
10
118.618
20
-75.025
11
118.618
21
-76.2
0
LINE
8
Black
10
118.618
20
-76.2
11
118.587
21
-76.3737
0
LINE
8
Black
10
118.587
20
-76.3737
11
118.499
21
-76.5265
0
LINE
8
Black
10
118.499
20
-76.5265
11
118.364
21
-76.6399
0
LINE
8
Black
10
118.364
20
-76.6399
11
118.198
21
-76.7003
0
LINE
8
Black
10
118.198
20
-76.7003
11
118.022
21
-76.7003
0
LINE
8
Black
10
118.022
20
-76.7003
11
117.856
21
-76.6399
0
LINE
8
Black
10
117.856
20
-76.6399
11
117.721
21
-76.5265
0
LINE
8
Black
10
117.721
20
-76.5265
11
117.633
21
-76.3737
0
LINE
8
Black
10
117.633
20
-76.3737
11
117.602
21
-76.2
0
LINE
8
Black
10
117.602
20
-76.2
11
117.602
21
-75.025
0
LINE
8
Black
10
117.602
20
-75.025
11
117.485
21
-75.025
0
LINE
8
Black
10
117.485
20
-75.025
11
117.485
21
-73.525
0
LINE
8
Black
10
117.485
20
-73.525
11
118.735
21
-73.525
0
LINE
8
Black
10
118.735
20
-73.525
11
118.735
21
-75.025
0
LINE
8
Black
10
138.01
20
-54.991
11
139.7
21
-54.991
0
LINE
8
Black
10
139.7
20
-54.991
11
139.711
21
-54.9929
0
LINE
8
Black
10
139.711
20
-54.9929
11
139.722
21
-54.992
0
LINE
8
Black
10
139.722
20
-54.992
11
139.754
21
-55.0006
0
LINE
8
Black
10
139.754
20
-55.0006
11
139.787
21
-55.0063
0
LINE
8
Black
10
139.787
20
-55.0063
11
139.797
21
-55.0119
0
LINE
8
Black
10
139.797
20
-55.0119
11
139.807
21
-55.0148
0
LINE
8
Black
10
139.807
20
-55.0148
11
139.835
21
-55.0338
0
LINE
8
Black
10
139.835
20
-55.0338
11
139.863
21
-55.0504
0
LINE
8
Black
10
139.863
20
-55.0504
11
139.87
21
-55.059
0
LINE
8
Black
10
139.87
20
-55.059
11
139.88
21
-55.0654
0
LINE
8
Black
10
139.88
20
-55.0654
11
141.15
21
-56.3354
0
LINE
8
Black
10
141.15
20
-56.3354
11
141.156
21
-56.3445
0
LINE
8
Black
10
141.156
20
-56.3445
11
141.165
21
-56.3517
0
LINE
8
Black
10
141.165
20
-56.3517
11
141.181
21
-56.3805
0
LINE
8
Black
10
141.181
20
-56.3805
11
141.2
21
-56.4077
0
LINE
8
Black
10
141.2
20
-56.4077
11
141.203
21
-56.4184
0
LINE
8
Black
10
141.203
20
-56.4184
11
141.209
21
-56.4281
0
LINE
8
Black
10
141.209
20
-56.4281
11
141.214
21
-56.4608
0
LINE
8
Black
10
141.214
20
-56.4608
11
141.223
21
-56.4929
0
LINE
8
Black
10
141.223
20
-56.4929
11
141.222
21
-56.504
0
LINE
8
Black
10
141.222
20
-56.504
11
141.224
21
-56.515
0
LINE
8
Black
10
141.224
20
-56.515
11
141.224
21
-60.325
0
LINE
8
Black
10
141.224
20
-60.325
11
141.222
21
-60.336
0
LINE
8
Black
10
141.222
20
-60.336
11
141.223
21
-60.3471
0
LINE
8
Black
10
141.223
20
-60.3471
11
141.214
21
-60.3792
0
LINE
8
Black
10
141.214
20
-60.3792
11
141.209
21
-60.4119
0
LINE
8
Black
10
141.209
20
-60.4119
11
141.203
21
-60.4216
0
LINE
8
Black
10
141.203
20
-60.4216
11
141.2
21
-60.4323
0
LINE
8
Black
10
141.2
20
-60.4323
11
141.181
21
-60.4595
0
LINE
8
Black
10
141.181
20
-60.4595
11
141.165
21
-60.4883
0
LINE
8
Black
10
141.165
20
-60.4883
11
141.156
21
-60.4955
0
LINE
8
Black
10
141.156
20
-60.4955
11
141.15
21
-60.5046
0
LINE
8
Black
10
141.15
20
-60.5046
11
139.88
21
-61.7746
0
LINE
8
Black
10
139.88
20
-61.7746
11
139.87
21
-61.781
0
LINE
8
Black
10
139.87
20
-61.781
11
139.863
21
-61.7896
0
LINE
8
Black
10
139.863
20
-61.7896
11
139.835
21
-61.8062
0
LINE
8
Black
10
139.835
20
-61.8062
11
139.807
21
-61.8252
0
LINE
8
Black
10
139.807
20
-61.8252
11
139.797
21
-61.8281
0
LINE
8
Black
10
139.797
20
-61.8281
11
139.787
21
-61.8337
0
LINE
8
Black
10
139.787
20
-61.8337
11
139.754
21
-61.8394
0
LINE
8
Black
10
139.754
20
-61.8394
11
139.722
21
-61.848
0
LINE
8
Black
10
139.722
20
-61.848
11
139.711
21
-61.8471
0
LINE
8
Black
10
139.711
20
-61.8471
11
139.7
21
-61.849
0
LINE
8
Black
10
139.7
20
-61.849
11
125.835
21
-61.849
0
LINE
8
Black
10
125.835
20
-61.849
11
124.005
21
-63.6796
0
LINE
8
Black
10
124.005
20
-63.6796
11
123.995
21
-63.686
0
LINE
8
Black
10
123.995
20
-63.686
11
123.988
21
-63.6946
0
LINE
8
Black
10
123.988
20
-63.6946
11
123.96
21
-63.7112
0
LINE
8
Black
10
123.96
20
-63.7112
11
123.932
21
-63.7302
0
LINE
8
Black
10
123.932
20
-63.7302
11
123.922
21
-63.7331
0
LINE
8
Black
10
123.922
20
-63.7331
11
123.912
21
-63.7387
0
LINE
8
Black
10
123.912
20
-63.7387
11
123.879
21
-63.7444
0
LINE
8
Black
10
123.879
20
-63.7444
11
123.847
21
-63.753
0
LINE
8
Black
10
123.847
20
-63.753
11
123.836
21
-63.7521
0
LINE
8
Black
10
123.836
20
-63.7521
11
123.825
21
-63.754
0
LINE
8
Black
10
123.825
20
-63.754
11
116.945
21
-63.754
0
LINE
8
Black
10
116.945
20
-63.754
11
115.115
21
-65.5846
0
LINE
8
Black
10
115.115
20
-65.5846
11
115.105
21
-65.591
0
LINE
8
Black
10
115.105
20
-65.591
11
115.098
21
-65.5996
0
LINE
8
Black
10
115.098
20
-65.5996
11
115.07
21
-65.6162
0
LINE
8
Black
10
115.07
20
-65.6162
11
115.042
21
-65.6352
0
LINE
8
Black
10
115.042
20
-65.6352
11
115.032
21
-65.6381
0
LINE
8
Black
10
115.032
20
-65.6381
11
115.022
21
-65.6437
0
LINE
8
Black
10
115.022
20
-65.6437
11
114.989
21
-65.6494
0
LINE
8
Black
10
114.989
20
-65.6494
11
114.957
21
-65.658
0
LINE
8
Black
10
114.957
20
-65.658
11
114.946
21
-65.6571
0
LINE
8
Black
10
114.946
20
-65.6571
11
114.935
21
-65.659
0
LINE
8
Black
10
114.935
20
-65.659
11
111.865
21
-65.659
0
LINE
8
Black
10
111.865
20
-65.659
11
111.379
21
-66.1452
0
LINE
8
Black
10
111.379
20
-66.1452
11
111.379
21
-74.2778
0
LINE
8
Black
10
111.379
20
-74.2778
11
112.412
21
-75.311
0
LINE
8
Black
10
112.412
20
-75.311
11
112.815
21
-75.311
0
LINE
8
Black
10
112.815
20
-75.311
11
112.815
21
-74.715
0
LINE
8
Black
10
112.815
20
-74.715
11
114.515
21
-74.715
0
LINE
8
Black
10
114.515
20
-74.715
11
114.515
21
-76.415
0
LINE
8
Black
10
114.515
20
-76.415
11
112.815
21
-76.415
0
LINE
8
Black
10
112.815
20
-76.415
11
112.815
21
-75.819
0
LINE
8
Black
10
112.815
20
-75.819
11
112.307
21
-75.819
0
LINE
8
Black
10
112.307
20
-75.819
11
112.296
21
-75.8171
0
LINE
8
Black
10
112.296
20
-75.8171
11
112.285
21
-75.818
0
LINE
8
Black
10
112.285
20
-75.818
11
112.253
21
-75.8094
0
LINE
8
Black
10
112.253
20
-75.8094
11
112.22
21
-75.8037
0
LINE
8
Black
10
112.22
20
-75.8037
11
112.21
21
-75.7981
0
LINE
8
Black
10
112.21
20
-75.7981
11
112.2
21
-75.7952
0
LINE
8
Black
10
112.2
20
-75.7952
11
112.172
21
-75.7762
0
LINE
8
Black
10
112.172
20
-75.7762
11
112.144
21
-75.7596
0
LINE
8
Black
10
112.144
20
-75.7596
11
112.137
21
-75.751
0
LINE
8
Black
10
112.137
20
-75.751
11
112.127
21
-75.7446
0
LINE
8
Black
10
112.127
20
-75.7446
11
110.945
21
-74.5626
0
LINE
8
Black
10
110.945
20
-74.5626
11
110.939
21
-74.5535
0
LINE
8
Black
10
110.939
20
-74.5535
11
110.93
21
-74.5463
0
LINE
8
Black
10
110.93
20
-74.5463
11
110.914
21
-74.5175
0
LINE
8
Black
10
110.914
20
-74.5175
11
110.895
21
-74.4903
0
LINE
8
Black
10
110.895
20
-74.4903
11
110.892
21
-74.4796
0
LINE
8
Black
10
110.892
20
-74.4796
11
110.886
21
-74.4699
0
LINE
8
Black
10
110.886
20
-74.4699
11
110.881
21
-74.4372
0
LINE
8
Black
10
110.881
20
-74.4372
11
110.872
21
-74.4051
0
LINE
8
Black
10
110.872
20
-74.4051
11
110.873
21
-74.394
0
LINE
8
Black
10
110.873
20
-74.394
11
110.871
21
-74.383
0
LINE
8
Black
10
110.871
20
-74.383
11
110.871
21
-66.04
0
LINE
8
Black
10
110.871
20
-66.04
11
110.873
21
-66.029
0
LINE
8
Black
10
110.873
20
-66.029
11
110.872
21
-66.0179
0
LINE
8
Black
10
110.872
20
-66.0179
11
110.881
21
-65.9858
0
LINE
8
Black
10
110.881
20
-65.9858
11
110.886
21
-65.9531
0
LINE
8
Black
10
110.886
20
-65.9531
11
110.892
21
-65.9434
0
LINE
8
Black
10
110.892
20
-65.9434
11
110.895
21
-65.9327
0
LINE
8
Black
10
110.895
20
-65.9327
11
110.914
21
-65.9055
0
LINE
8
Black
10
110.914
20
-65.9055
11
110.93
21
-65.8767
0
LINE
8
Black
10
110.93
20
-65.8767
11
110.939
21
-65.8695
0
LINE
8
Black
10
110.939
20
-65.8695
11
110.945
21
-65.8604
0
LINE
8
Black
10
110.945
20
-65.8604
11
111.58
21
-65.2254
0
LINE
8
Black
10
111.58
20
-65.2254
11
111.59
21
-65.219
0
LINE
8
Black
10
111.59
20
-65.219
11
111.597
21
-65.2104
0
LINE
8
Black
10
111.597
20
-65.2104
11
111.625
21
-65.1938
0
LINE
8
Black
10
111.625
20
-65.1938
11
111.653
21
-65.1748
0
LINE
8
Black
10
111.653
20
-65.1748
11
111.663
21
-65.1719
0
LINE
8
Black
10
111.663
20
-65.1719
11
111.673
21
-65.1663
0
LINE
8
Black
10
111.673
20
-65.1663
11
111.706
21
-65.1606
0
LINE
8
Black
10
111.706
20
-65.1606
11
111.738
21
-65.152
0
LINE
8
Black
10
111.738
20
-65.152
11
111.749
21
-65.1529
0
LINE
8
Black
10
111.749
20
-65.1529
11
111.76
21
-65.151
0
LINE
8
Black
10
111.76
20
-65.151
11
114.83
21
-65.151
0
LINE
8
Black
10
114.83
20
-65.151
11
116.66
21
-63.3204
0
LINE
8
Black
10
116.66
20
-63.3204
11
116.67
21
-63.314
0
LINE
8
Black
10
116.67
20
-63.314
11
116.677
21
-63.3054
0
LINE
8
Black
10
116.677
20
-63.3054
11
116.705
21
-63.2888
0
LINE
8
Black
10
116.705
20
-63.2888
11
116.733
21
-63.2698
0
LINE
8
Black
10
116.733
20
-63.2698
11
116.743
21
-63.2669
0
LINE
8
Black
10
116.743
20
-63.2669
11
116.753
21
-63.2613
0
LINE
8
Black
10
116.753
20
-63.2613
11
116.786
21
-63.2556
0
LINE
8
Black
10
116.786
20
-63.2556
11
116.818
21
-63.247
0
LINE
8
Black
10
116.818
20
-63.247
11
116.829
21
-63.2479
0
LINE
8
Black
10
116.829
20
-63.2479
11
116.84
21
-63.246
0
LINE
8
Black
10
116.84
20
-63.246
11
123.72
21
-63.246
0
LINE
8
Black
10
123.72
20
-63.246
11
125.55
21
-61.4154
0
LINE
8
Black
10
125.55
20
-61.4154
11
125.56
21
-61.409
0
LINE
8
Black
10
125.56
20
-61.409
11
125.567
21
-61.4004
0
LINE
8
Black
10
125.567
20
-61.4004
11
125.595
21
-61.3838
0
LINE
8
Black
10
125.595
20
-61.3838
11
125.623
21
-61.3648
0
LINE
8
Black
10
125.623
20
-61.3648
11
125.633
21
-61.3619
0
LINE
8
Black
10
125.633
20
-61.3619
11
125.643
21
-61.3563
0
LINE
8
Black
10
125.643
20
-61.3563
11
125.676
21
-61.3506
0
LINE
8
Black
10
125.676
20
-61.3506
11
125.708
21
-61.342
0
LINE
8
Black
10
125.708
20
-61.342
11
125.719
21
-61.3429
0
LINE
8
Black
10
125.719
20
-61.3429
11
125.73
21
-61.341
0
LINE
8
Black
10
125.73
20
-61.341
11
139.595
21
-61.341
0
LINE
8
Black
10
139.595
20
-61.341
11
140.716
21
-60.2198
0
LINE
8
Black
10
140.716
20
-60.2198
11
140.716
21
-56.6202
0
LINE
8
Black
10
140.716
20
-56.6202
11
139.595
21
-55.499
0
LINE
8
Black
10
139.595
20
-55.499
11
138.01
21
-55.499
0
LINE
8
Black
10
138.01
20
-55.499
11
138.01
21
-56.095
0
LINE
8
Black
10
138.01
20
-56.095
11
136.31
21
-56.095
0
LINE
8
Black
10
136.31
20
-56.095
11
136.31
21
-54.395
0
LINE
8
Black
10
136.31
20
-54.395
11
138.01
21
-54.395
0
LINE
8
Black
10
138.01
20
-54.395
11
138.01
21
-54.991
0
LINE
8
Black
10
138.68
20
-75.345
11
136.68
21
-75.345
0
LINE
8
Black
10
136.68
20
-75.345
11
136.68
21
-73.245
0
LINE
8
Black
10
136.68
20
-73.245
11
138.68
21
-73.245
0
LINE
8
Black
10
138.68
20
-73.245
11
138.68
21
-75.345
0
LINE
8
Black
10
127.48
20
-75.345
11
125.48
21
-75.345
0
LINE
8
Black
10
125.48
20
-75.345
11
125.48
21
-73.245
0
LINE
8
Black
10
125.48
20
-73.245
11
127.48
21
-73.245
0
LINE
8
Black
10
127.48
20
-73.245
11
127.48
21
-75.345
0
LINE
8
Black
10
113.959
20
-69.6863
11
114.215
21
-69.8339
0
LINE
8
Black
10
114.215
20
-69.8339
11
114.404
21
-70.06
0
LINE
8
Black
10
114.404
20
-70.06
11
114.467
21
-70.231
0
LINE
8
Black
10
114.467
20
-70.231
11
115.57
21
-70.231
0
LINE
8
Black
10
115.57
20
-70.231
11
115.581
21
-70.2329
0
LINE
8
Black
10
115.581
20
-70.2329
11
115.592
21
-70.232
0
LINE
8
Black
10
115.592
20
-70.232
11
115.624
21
-70.2406
0
LINE
8
Black
10
115.624
20
-70.2406
11
115.657
21
-70.2463
0
LINE
8
Black
10
115.657
20
-70.2463
11
115.667
21
-70.2519
0
LINE
8
Black
10
115.667
20
-70.2519
11
115.677
21
-70.2548
0
LINE
8
Black
10
115.677
20
-70.2548
11
115.705
21
-70.2738
0
LINE
8
Black
10
115.705
20
-70.2738
11
115.733
21
-70.2904
0
LINE
8
Black
10
115.733
20
-70.2904
11
115.74
21
-70.299
0
LINE
8
Black
10
115.74
20
-70.299
11
115.75
21
-70.3054
0
LINE
8
Black
10
115.75
20
-70.3054
11
116.965
21
-71.521
0
LINE
8
Black
10
116.965
20
-71.521
11
117.485
21
-71.521
0
LINE
8
Black
10
117.485
20
-71.521
11
117.485
21
-71.025
0
LINE
8
Black
10
117.485
20
-71.025
11
118.735
21
-71.025
0
LINE
8
Black
10
118.735
20
-71.025
11
118.735
21
-71.521
0
LINE
8
Black
10
118.735
20
-71.521
11
121.27
21
-71.521
0
LINE
8
Black
10
121.27
20
-71.521
11
121.27
21
-70.925
0
LINE
8
Black
10
121.27
20
-70.925
11
122.57
21
-70.925
0
LINE
8
Black
10
122.57
20
-70.925
11
122.57
21
-72.425
0
LINE
8
Black
10
122.57
20
-72.425
11
121.27
21
-72.425
0
LINE
8
Black
10
121.27
20
-72.425
11
121.27
21
-72.029
0
LINE
8
Black
10
121.27
20
-72.029
11
118.735
21
-72.029
0
LINE
8
Black
10
118.735
20
-72.029
11
118.735
21
-72.525
0
LINE
8
Black
10
118.735
20
-72.525
11
117.485
21
-72.525
0
LINE
8
Black
10
117.485
20
-72.525
11
117.485
21
-72.029
0
LINE
8
Black
10
117.485
20
-72.029
11
116.86
21
-72.029
0
LINE
8
Black
10
116.86
20
-72.029
11
116.849
21
-72.0271
0
LINE
8
Black
10
116.849
20
-72.0271
11
116.838
21
-72.028
0
LINE
8
Black
10
116.838
20
-72.028
11
116.806
21
-72.0194
0
LINE
8
Black
10
116.806
20
-72.0194
11
116.773
21
-72.0137
0
LINE
8
Black
10
116.773
20
-72.0137
11
116.763
21
-72.0081
0
LINE
8
Black
10
116.763
20
-72.0081
11
116.753
21
-72.0052
0
LINE
8
Black
10
116.753
20
-72.0052
11
116.725
21
-71.9862
0
LINE
8
Black
10
116.725
20
-71.9862
11
116.697
21
-71.9696
0
LINE
8
Black
10
116.697
20
-71.9696
11
116.69
21
-71.961
0
LINE
8
Black
10
116.69
20
-71.961
11
116.68
21
-71.9546
0
LINE
8
Black
10
116.68
20
-71.9546
11
115.465
21
-70.739
0
LINE
8
Black
10
115.465
20
-70.739
11
114.467
21
-70.739
0
LINE
8
Black
10
114.467
20
-70.739
11
114.404
21
-70.91
0
LINE
8
Black
10
114.404
20
-70.91
11
114.215
21
-71.1361
0
LINE
8
Black
10
114.215
20
-71.1361
11
113.959
21
-71.2837
0
LINE
8
Black
10
113.959
20
-71.2837
11
113.668
21
-71.335
0
LINE
8
Black
10
113.668
20
-71.335
11
113.662
21
-71.335
0
LINE
8
Black
10
113.662
20
-71.335
11
113.371
21
-71.2837
0
LINE
8
Black
10
113.371
20
-71.2837
11
113.115
21
-71.1361
0
LINE
8
Black
10
113.115
20
-71.1361
11
112.926
21
-70.91
0
LINE
8
Black
10
112.926
20
-70.91
11
112.825
21
-70.6326
0
LINE
8
Black
10
112.825
20
-70.6326
11
112.825
21
-70.3374
0
LINE
8
Black
10
112.825
20
-70.3374
11
112.926
21
-70.06
0
LINE
8
Black
10
112.926
20
-70.06
11
113.115
21
-69.8339
0
LINE
8
Black
10
113.115
20
-69.8339
11
113.371
21
-69.6863
0
LINE
8
Black
10
113.371
20
-69.6863
11
113.662
21
-69.635
0
LINE
8
Black
10
113.662
20
-69.635
11
113.668
21
-69.635
0
LINE
8
Black
10
113.668
20
-69.635
11
113.959
21
-69.6863
0
LINE
8
Black
10
118.735
20
-68.675
11
118.618
21
-68.675
0
LINE
8
Black
10
118.618
20
-68.675
11
118.618
21
-69.85
0
LINE
8
Black
10
118.618
20
-69.85
11
118.587
21
-70.0237
0
LINE
8
Black
10
118.587
20
-70.0237
11
118.499
21
-70.1765
0
LINE
8
Black
10
118.499
20
-70.1765
11
118.364
21
-70.2899
0
LINE
8
Black
10
118.364
20
-70.2899
11
118.198
21
-70.3503
0
LINE
8
Black
10
118.198
20
-70.3503
11
118.022
21
-70.3503
0
LINE
8
Black
10
118.022
20
-70.3503
11
117.856
21
-70.2899
0
LINE
8
Black
10
117.856
20
-70.2899
11
117.721
21
-70.1765
0
LINE
8
Black
10
117.721
20
-70.1765
11
117.633
21
-70.0237
0
LINE
8
Black
10
117.633
20
-70.0237
11
117.602
21
-69.85
0
LINE
8
Black
10
117.602
20
-69.85
11
117.602
21
-68.675
0
LINE
8
Black
10
117.602
20
-68.675
11
117.485
21
-68.675
0
LINE
8
Black
10
117.485
20
-68.675
11
117.485
21
-67.175
0
LINE
8
Black
10
117.485
20
-67.175
11
118.735
21
-67.175
0
LINE
8
Black
10
118.735
20
-67.175
11
118.735
21
-68.675
0
LINE
8
Black
10
132.342
20
-66.5762
11
132.572
21
-66.709
0
LINE
8
Black
10
132.572
20
-66.709
11
132.742
21
-66.9125
0
LINE
8
Black
10
132.742
20
-66.9125
11
132.833
21
-67.1622
0
LINE
8
Black
10
132.833
20
-67.1622
11
132.833
21
-67.4278
0
LINE
8
Black
10
132.833
20
-67.4278
11
132.742
21
-67.6775
0
LINE
8
Black
10
132.742
20
-67.6775
11
132.572
21
-67.881
0
LINE
8
Black
10
132.572
20
-67.881
11
132.342
21
-68.0138
0
LINE
8
Black
10
132.342
20
-68.0138
11
132.334
21
-68.0151
0
LINE
8
Black
10
132.334
20
-68.0151
11
132.334
21
-68.58
0
LINE
8
Black
10
132.334
20
-68.58
11
132.332
21
-68.591
0
LINE
8
Black
10
132.332
20
-68.591
11
132.333
21
-68.6021
0
LINE
8
Black
10
132.333
20
-68.6021
11
132.324
21
-68.6342
0
LINE
8
Black
10
132.324
20
-68.6342
11
132.319
21
-68.6669
0
LINE
8
Black
10
132.319
20
-68.6669
11
132.313
21
-68.6766
0
LINE
8
Black
10
132.313
20
-68.6766
11
132.31
21
-68.6873
0
LINE
8
Black
10
132.31
20
-68.6873
11
132.291
21
-68.7145
0
LINE
8
Black
10
132.291
20
-68.7145
11
132.275
21
-68.7433
0
LINE
8
Black
10
132.275
20
-68.7433
11
132.266
21
-68.7505
0
LINE
8
Black
10
132.266
20
-68.7505
11
132.26
21
-68.7596
0
LINE
8
Black
10
132.26
20
-68.7596
11
130.99
21
-70.0296
0
LINE
8
Black
10
130.99
20
-70.0296
11
130.98
21
-70.036
0
LINE
8
Black
10
130.98
20
-70.036
11
130.973
21
-70.0446
0
LINE
8
Black
10
130.973
20
-70.0446
11
130.945
21
-70.0612
0
LINE
8
Black
10
130.945
20
-70.0612
11
130.917
21
-70.0802
0
LINE
8
Black
10
130.917
20
-70.0802
11
130.907
21
-70.0831
0
LINE
8
Black
10
130.907
20
-70.0831
11
130.897
21
-70.0887
0
LINE
8
Black
10
130.897
20
-70.0887
11
130.864
21
-70.0944
0
LINE
8
Black
10
130.864
20
-70.0944
11
130.832
21
-70.103
0
LINE
8
Black
10
130.832
20
-70.103
11
130.821
21
-70.1021
0
LINE
8
Black
10
130.821
20
-70.1021
11
130.81
21
-70.104
0
LINE
8
Black
10
130.81
20
-70.104
11
127
21
-70.104
0
LINE
8
Black
10
127
20
-70.104
11
126.989
21
-70.1021
0
LINE
8
Black
10
126.989
20
-70.1021
11
126.978
21
-70.103
0
LINE
8
Black
10
126.978
20
-70.103
11
126.946
21
-70.0944
0
LINE
8
Black
10
126.946
20
-70.0944
11
126.913
21
-70.0887
0
LINE
8
Black
10
126.913
20
-70.0887
11
126.903
21
-70.0831
0
LINE
8
Black
10
126.903
20
-70.0831
11
126.893
21
-70.0802
0
LINE
8
Black
10
126.893
20
-70.0802
11
126.865
21
-70.0612
0
LINE
8
Black
10
126.865
20
-70.0612
11
126.837
21
-70.0446
0
LINE
8
Black
10
126.837
20
-70.0446
11
126.83
21
-70.036
0
LINE
8
Black
10
126.83
20
-70.036
11
126.82
21
-70.0296
0
LINE
8
Black
10
126.82
20
-70.0296
11
125.07
21
-68.279
0
LINE
8
Black
10
125.07
20
-68.279
11
122.57
21
-68.279
0
LINE
8
Black
10
122.57
20
-68.279
11
122.57
21
-68.775
0
LINE
8
Black
10
122.57
20
-68.775
11
121.27
21
-68.775
0
LINE
8
Black
10
121.27
20
-68.775
11
121.27
21
-67.275
0
LINE
8
Black
10
121.27
20
-67.275
11
122.57
21
-67.275
0
LINE
8
Black
10
122.57
20
-67.275
11
122.57
21
-67.771
0
LINE
8
Black
10
122.57
20
-67.771
11
125.175
21
-67.771
0
LINE
8
Black
10
125.175
20
-67.771
11
125.186
21
-67.7729
0
LINE
8
Black
10
125.186
20
-67.7729
11
125.197
21
-67.772
0
LINE
8
Black
10
125.197
20
-67.772
11
125.229
21
-67.7806
0
LINE
8
Black
10
125.229
20
-67.7806
11
125.262
21
-67.7863
0
LINE
8
Black
10
125.262
20
-67.7863
11
125.272
21
-67.7919
0
LINE
8
Black
10
125.272
20
-67.7919
11
125.282
21
-67.7948
0
LINE
8
Black
10
125.282
20
-67.7948
11
125.31
21
-67.8138
0
LINE
8
Black
10
125.31
20
-67.8138
11
125.338
21
-67.8304
0
LINE
8
Black
10
125.338
20
-67.8304
11
125.345
21
-67.839
0
LINE
8
Black
10
125.345
20
-67.839
11
125.355
21
-67.8454
0
LINE
8
Black
10
125.355
20
-67.8454
11
127.105
21
-69.596
0
LINE
8
Black
10
127.105
20
-69.596
11
130.705
21
-69.596
0
LINE
8
Black
10
130.705
20
-69.596
11
131.826
21
-68.4748
0
LINE
8
Black
10
131.826
20
-68.4748
11
131.826
21
-68.0151
0
LINE
8
Black
10
131.826
20
-68.0151
11
131.818
21
-68.0138
0
LINE
8
Black
10
131.818
20
-68.0138
11
131.588
21
-67.881
0
LINE
8
Black
10
131.588
20
-67.881
11
131.418
21
-67.6775
0
LINE
8
Black
10
131.418
20
-67.6775
11
131.327
21
-67.4278
0
LINE
8
Black
10
131.327
20
-67.4278
11
131.327
21
-67.1622
0
LINE
8
Black
10
131.327
20
-67.1622
11
131.418
21
-66.9125
0
LINE
8
Black
10
131.418
20
-66.9125
11
131.588
21
-66.709
0
LINE
8
Black
10
131.588
20
-66.709
11
131.818
21
-66.5762
0
LINE
8
Black
10
131.818
20
-66.5762
11
132.08
21
-66.5301
0
LINE
8
Black
10
132.08
20
-66.5301
11
132.342
21
-66.5762
0
LINE
8
Black
10
122.57
20
-66.075
11
121.27
21
-66.075
0
LINE
8
Black
10
121.27
20
-66.075
11
121.27
21
-65.679
0
LINE
8
Black
10
121.27
20
-65.679
11
118.735
21
-65.679
0
LINE
8
Black
10
118.735
20
-65.679
11
118.735
21
-66.175
0
LINE
8
Black
10
118.735
20
-66.175
11
117.485
21
-66.175
0
LINE
8
Black
10
117.485
20
-66.175
11
117.485
21
-65.7542
0
LINE
8
Black
10
117.485
20
-65.7542
11
115.115
21
-68.1246
0
LINE
8
Black
10
115.115
20
-68.1246
11
115.105
21
-68.131
0
LINE
8
Black
10
115.105
20
-68.131
11
115.098
21
-68.1396
0
LINE
8
Black
10
115.098
20
-68.1396
11
115.07
21
-68.1562
0
LINE
8
Black
10
115.07
20
-68.1562
11
115.042
21
-68.1752
0
LINE
8
Black
10
115.042
20
-68.1752
11
115.032
21
-68.1781
0
LINE
8
Black
10
115.032
20
-68.1781
11
115.022
21
-68.1837
0
LINE
8
Black
10
115.022
20
-68.1837
11
114.989
21
-68.1894
0
LINE
8
Black
10
114.989
20
-68.1894
11
114.957
21
-68.198
0
LINE
8
Black
10
114.957
20
-68.198
11
114.946
21
-68.1971
0
LINE
8
Black
10
114.946
20
-68.1971
11
114.935
21
-68.199
0
LINE
8
Black
10
114.935
20
-68.199
11
114.467
21
-68.199
0
LINE
8
Black
10
114.467
20
-68.199
11
114.404
21
-68.37
0
LINE
8
Black
10
114.404
20
-68.37
11
114.215
21
-68.5961
0
LINE
8
Black
10
114.215
20
-68.5961
11
113.959
21
-68.7437
0
LINE
8
Black
10
113.959
20
-68.7437
11
113.668
21
-68.795
0
LINE
8
Black
10
113.668
20
-68.795
11
113.662
21
-68.795
0
LINE
8
Black
10
113.662
20
-68.795
11
113.371
21
-68.7437
0
LINE
8
Black
10
113.371
20
-68.7437
11
113.115
21
-68.5961
0
LINE
8
Black
10
113.115
20
-68.5961
11
112.926
21
-68.37
0
LINE
8
Black
10
112.926
20
-68.37
11
112.825
21
-68.0926
0
LINE
8
Black
10
112.825
20
-68.0926
11
112.825
21
-67.7974
0
LINE
8
Black
10
112.825
20
-67.7974
11
112.926
21
-67.52
0
LINE
8
Black
10
112.926
20
-67.52
11
113.115
21
-67.2939
0
LINE
8
Black
10
113.115
20
-67.2939
11
113.371
21
-67.1463
0
LINE
8
Black
10
113.371
20
-67.1463
11
113.662
21
-67.095
0
LINE
8
Black
10
113.662
20
-67.095
11
113.668
21
-67.095
0
LINE
8
Black
10
113.668
20
-67.095
11
113.959
21
-67.1463
0
LINE
8
Black
10
113.959
20
-67.1463
11
114.215
21
-67.2939
0
LINE
8
Black
10
114.215
20
-67.2939
11
114.404
21
-67.52
0
LINE
8
Black
10
114.404
20
-67.52
11
114.467
21
-67.691
0
LINE
8
Black
10
114.467
20
-67.691
11
114.83
21
-67.691
0
LINE
8
Black
10
114.83
20
-67.691
11
117.275
21
-65.2454
0
LINE
8
Black
10
117.275
20
-65.2454
11
117.285
21
-65.239
0
LINE
8
Black
10
117.285
20
-65.239
11
117.292
21
-65.2304
0
LINE
8
Black
10
117.292
20
-65.2304
11
117.32
21
-65.2138
0
LINE
8
Black
10
117.32
20
-65.2138
11
117.348
21
-65.1948
0
LINE
8
Black
10
117.348
20
-65.1948
11
117.358
21
-65.1919
0
LINE
8
Black
10
117.358
20
-65.1919
11
117.368
21
-65.1863
0
LINE
8
Black
10
117.368
20
-65.1863
11
117.401
21
-65.1806
0
LINE
8
Black
10
117.401
20
-65.1806
11
117.433
21
-65.172
0
LINE
8
Black
10
117.433
20
-65.172
11
117.444
21
-65.1729
0
LINE
8
Black
10
117.444
20
-65.1729
11
117.455
21
-65.171
0
LINE
8
Black
10
117.455
20
-65.171
11
117.485
21
-65.171
0
LINE
8
Black
10
117.485
20
-65.171
11
117.485
21
-64.675
0
LINE
8
Black
10
117.485
20
-64.675
11
118.735
21
-64.675
0
LINE
8
Black
10
118.735
20
-64.675
11
118.735
21
-65.171
0
LINE
8
Black
10
118.735
20
-65.171
11
121.27
21
-65.171
0
LINE
8
Black
10
121.27
20
-65.171
11
121.27
21
-64.575
0
LINE
8
Black
10
121.27
20
-64.575
11
122.57
21
-64.575
0
LINE
8
Black
10
122.57
20
-64.575
11
122.57
21
-66.075
0
LINE
8
Black
10
128.57
20
-64.435
11
128.524
21
-64.435
0
LINE
8
Black
10
128.524
20
-64.435
11
128.524
21
-64.6648
0
LINE
8
Black
10
128.524
20
-64.6648
11
130.26
21
-66.4004
0
LINE
8
Black
10
130.26
20
-66.4004
11
130.266
21
-66.4095
0
LINE
8
Black
10
130.266
20
-66.4095
11
130.275
21
-66.4167
0
LINE
8
Black
10
130.275
20
-66.4167
11
130.291
21
-66.4455
0
LINE
8
Black
10
130.291
20
-66.4455
11
130.31
21
-66.4727
0
LINE
8
Black
10
130.31
20
-66.4727
11
130.313
21
-66.4834
0
LINE
8
Black
10
130.313
20
-66.4834
11
130.319
21
-66.4931
0
LINE
8
Black
10
130.319
20
-66.4931
11
130.324
21
-66.5258
0
LINE
8
Black
10
130.324
20
-66.5258
11
130.333
21
-66.5579
0
LINE
8
Black
10
130.333
20
-66.5579
11
130.332
21
-66.569
0
LINE
8
Black
10
130.332
20
-66.569
11
130.333
21
-66.5747
0
LINE
8
Black
10
130.333
20
-66.5747
11
130.342
21
-66.5762
0
LINE
8
Black
10
130.342
20
-66.5762
11
130.572
21
-66.709
0
LINE
8
Black
10
130.572
20
-66.709
11
130.742
21
-66.9125
0
LINE
8
Black
10
130.742
20
-66.9125
11
130.833
21
-67.1622
0
LINE
8
Black
10
130.833
20
-67.1622
11
130.833
21
-67.4278
0
LINE
8
Black
10
130.833
20
-67.4278
11
130.742
21
-67.6775
0
LINE
8
Black
10
130.742
20
-67.6775
11
130.572
21
-67.881
0
LINE
8
Black
10
130.572
20
-67.881
11
130.342
21
-68.0138
0
LINE
8
Black
10
130.342
20
-68.0138
11
130.08
21
-68.0599
0
LINE
8
Black
10
130.08
20
-68.0599
11
129.818
21
-68.0138
0
LINE
8
Black
10
129.818
20
-68.0138
11
129.588
21
-67.881
0
LINE
8
Black
10
129.588
20
-67.881
11
129.418
21
-67.6775
0
LINE
8
Black
10
129.418
20
-67.6775
11
129.327
21
-67.4278
0
LINE
8
Black
10
129.327
20
-67.4278
11
129.327
21
-67.1622
0
LINE
8
Black
10
129.327
20
-67.1622
11
129.418
21
-66.9125
0
LINE
8
Black
10
129.418
20
-66.9125
11
129.588
21
-66.709
0
LINE
8
Black
10
129.588
20
-66.709
11
129.754
21
-66.6133
0
LINE
8
Black
10
129.754
20
-66.6133
11
128.09
21
-64.9496
0
LINE
8
Black
10
128.09
20
-64.9496
11
128.084
21
-64.9405
0
LINE
8
Black
10
128.084
20
-64.9405
11
128.075
21
-64.9333
0
LINE
8
Black
10
128.075
20
-64.9333
11
128.059
21
-64.9045
0
LINE
8
Black
10
128.059
20
-64.9045
11
128.04
21
-64.8773
0
LINE
8
Black
10
128.04
20
-64.8773
11
128.037
21
-64.8666
0
LINE
8
Black
10
128.037
20
-64.8666
11
128.031
21
-64.8569
0
LINE
8
Black
10
128.031
20
-64.8569
11
128.026
21
-64.8242
0
LINE
8
Black
10
128.026
20
-64.8242
11
128.017
21
-64.7921
0
LINE
8
Black
10
128.017
20
-64.7921
11
128.018
21
-64.781
0
LINE
8
Black
10
128.018
20
-64.781
11
128.016
21
-64.77
0
LINE
8
Black
10
128.016
20
-64.77
11
128.016
21
-64.435
0
LINE
8
Black
10
128.016
20
-64.435
11
127.97
21
-64.435
0
LINE
8
Black
10
127.97
20
-64.435
11
127.97
21
-62.885
0
LINE
8
Black
10
127.97
20
-62.885
11
128.57
21
-62.885
0
LINE
8
Black
10
128.57
20
-62.885
11
128.57
21
-64.435
0
LINE
8
Black
10
127.3
20
-64.435
11
127.254
21
-64.435
0
LINE
8
Black
10
127.254
20
-64.435
11
127.254
21
-66.1098
0
LINE
8
Black
10
127.254
20
-66.1098
11
127.756
21
-66.6121
0
LINE
8
Black
10
127.756
20
-66.6121
11
127.818
21
-66.5762
0
LINE
8
Black
10
127.818
20
-66.5762
11
128.08
21
-66.5301
0
LINE
8
Black
10
128.08
20
-66.5301
11
128.342
21
-66.5762
0
LINE
8
Black
10
128.342
20
-66.5762
11
128.572
21
-66.709
0
LINE
8
Black
10
128.572
20
-66.709
11
128.742
21
-66.9125
0
LINE
8
Black
10
128.742
20
-66.9125
11
128.833
21
-67.1622
0
LINE
8
Black
10
128.833
20
-67.1622
11
128.833
21
-67.4278
0
LINE
8
Black
10
128.833
20
-67.4278
11
128.742
21
-67.6775
0
LINE
8
Black
10
128.742
20
-67.6775
11
128.572
21
-67.881
0
LINE
8
Black
10
128.572
20
-67.881
11
128.342
21
-68.0138
0
LINE
8
Black
10
128.342
20
-68.0138
11
128.08
21
-68.0599
0
LINE
8
Black
10
128.08
20
-68.0599
11
127.818
21
-68.0138
0
LINE
8
Black
10
127.818
20
-68.0138
11
127.588
21
-67.881
0
LINE
8
Black
10
127.588
20
-67.881
11
127.418
21
-67.6775
0
LINE
8
Black
10
127.418
20
-67.6775
11
127.327
21
-67.4278
0
LINE
8
Black
10
127.327
20
-67.4278
11
127.327
21
-67.1622
0
LINE
8
Black
10
127.327
20
-67.1622
11
127.396
21
-66.9706
0
LINE
8
Black
10
127.396
20
-66.9706
11
126.82
21
-66.3946
0
LINE
8
Black
10
126.82
20
-66.3946
11
126.814
21
-66.3855
0
LINE
8
Black
10
126.814
20
-66.3855
11
126.805
21
-66.3783
0
LINE
8
Black
10
126.805
20
-66.3783
11
126.789
21
-66.3495
0
LINE
8
Black
10
126.789
20
-66.3495
11
126.77
21
-66.3223
0
LINE
8
Black
10
126.77
20
-66.3223
11
126.767
21
-66.3116
0
LINE
8
Black
10
126.767
20
-66.3116
11
126.761
21
-66.3019
0
LINE
8
Black
10
126.761
20
-66.3019
11
126.756
21
-66.2692
0
LINE
8
Black
10
126.756
20
-66.2692
11
126.747
21
-66.2371
0
LINE
8
Black
10
126.747
20
-66.2371
11
126.748
21
-66.226
0
LINE
8
Black
10
126.748
20
-66.226
11
126.746
21
-66.215
0
LINE
8
Black
10
126.746
20
-66.215
11
126.746
21
-64.435
0
LINE
8
Black
10
126.746
20
-64.435
11
126.7
21
-64.435
0
LINE
8
Black
10
126.7
20
-64.435
11
126.7
21
-62.885
0
LINE
8
Black
10
126.7
20
-62.885
11
127.3
21
-62.885
0
LINE
8
Black
10
127.3
20
-62.885
11
127.3
21
-64.435
0
LINE
8
Black
10
129.84
20
-64.435
11
129.794
21
-64.435
0
LINE
8
Black
10
129.794
20
-64.435
11
129.794
21
-64.6648
0
LINE
8
Black
10
129.794
20
-64.6648
11
130.471
21
-65.3415
0
LINE
8
Black
10
130.471
20
-65.3415
11
132.906
21
-65.3415
0
LINE
8
Black
10
132.906
20
-65.3415
11
132.917
21
-65.3434
0
LINE
8
Black
10
132.917
20
-65.3434
11
132.928
21
-65.3425
0
LINE
8
Black
10
132.928
20
-65.3425
11
132.96
21
-65.3511
0
LINE
8
Black
10
132.96
20
-65.3511
11
132.992
21
-65.3568
0
LINE
8
Black
10
132.992
20
-65.3568
11
133.002
21
-65.3624
0
LINE
8
Black
10
133.002
20
-65.3624
11
133.013
21
-65.3653
0
LINE
8
Black
10
133.013
20
-65.3653
11
133.04
21
-65.3843
0
LINE
8
Black
10
133.04
20
-65.3843
11
133.069
21
-65.4009
0
LINE
8
Black
10
133.069
20
-65.4009
11
133.076
21
-65.4095
0
LINE
8
Black
10
133.076
20
-65.4095
11
133.085
21
-65.4159
0
LINE
8
Black
10
133.085
20
-65.4159
11
133.455
21
-65.786
0
LINE
8
Black
10
133.455
20
-65.786
11
133.985
21
-65.786
0
LINE
8
Black
10
133.985
20
-65.786
11
134.007
21
-65.7899
0
LINE
8
Black
10
134.007
20
-65.7899
11
134.029
21
-65.7899
0
LINE
8
Black
10
134.029
20
-65.7899
11
134.05
21
-65.7975
0
LINE
8
Black
10
134.05
20
-65.7975
11
134.072
21
-65.8013
0
LINE
8
Black
10
134.072
20
-65.8013
11
134.091
21
-65.8124
0
LINE
8
Black
10
134.091
20
-65.8124
11
134.112
21
-65.82
0
LINE
8
Black
10
134.112
20
-65.82
11
134.129
21
-65.8343
0
LINE
8
Black
10
134.129
20
-65.8343
11
134.148
21
-65.8454
0
LINE
8
Black
10
134.148
20
-65.8454
11
134.163
21
-65.8624
0
LINE
8
Black
10
134.163
20
-65.8624
11
134.18
21
-65.8767
0
LINE
8
Black
10
134.18
20
-65.8767
11
134.191
21
-65.896
0
LINE
8
Black
10
134.191
20
-65.896
11
134.205
21
-65.913
0
LINE
8
Black
10
134.205
20
-65.913
11
134.213
21
-65.9339
0
LINE
8
Black
10
134.213
20
-65.9339
11
134.224
21
-65.9531
0
LINE
8
Black
10
134.224
20
-65.9531
11
134.228
21
-65.975
0
LINE
8
Black
10
134.228
20
-65.975
11
134.235
21
-65.9959
0
LINE
8
Black
10
134.235
20
-65.9959
11
134.235
21
-66.0181
0
LINE
8
Black
10
134.235
20
-66.0181
11
134.239
21
-66.04
0
LINE
8
Black
10
134.239
20
-66.04
11
134.239
21
-66.5581
0
LINE
8
Black
10
134.239
20
-66.5581
11
134.342
21
-66.5762
0
LINE
8
Black
10
134.342
20
-66.5762
11
134.572
21
-66.709
0
LINE
8
Black
10
134.572
20
-66.709
11
134.742
21
-66.9125
0
LINE
8
Black
10
134.742
20
-66.9125
11
134.833
21
-67.1622
0
LINE
8
Black
10
134.833
20
-67.1622
11
134.833
21
-67.4278
0
LINE
8
Black
10
134.833
20
-67.4278
11
134.742
21
-67.6775
0
LINE
8
Black
10
134.742
20
-67.6775
11
134.572
21
-67.881
0
LINE
8
Black
10
134.572
20
-67.881
11
134.342
21
-68.0138
0
LINE
8
Black
10
134.342
20
-68.0138
11
134.08
21
-68.0599
0
LINE
8
Black
10
134.08
20
-68.0599
11
133.818
21
-68.0138
0
LINE
8
Black
10
133.818
20
-68.0138
11
133.588
21
-67.881
0
LINE
8
Black
10
133.588
20
-67.881
11
133.418
21
-67.6775
0
LINE
8
Black
10
133.418
20
-67.6775
11
133.327
21
-67.4278
0
LINE
8
Black
10
133.327
20
-67.4278
11
133.327
21
-67.1622
0
LINE
8
Black
10
133.327
20
-67.1622
11
133.418
21
-66.9125
0
LINE
8
Black
10
133.418
20
-66.9125
11
133.588
21
-66.709
0
LINE
8
Black
10
133.588
20
-66.709
11
133.731
21
-66.6267
0
LINE
8
Black
10
133.731
20
-66.6267
11
133.731
21
-66.294
0
LINE
8
Black
10
133.731
20
-66.294
11
133.35
21
-66.294
0
LINE
8
Black
10
133.35
20
-66.294
11
133.339
21
-66.2921
0
LINE
8
Black
10
133.339
20
-66.2921
11
133.328
21
-66.293
0
LINE
8
Black
10
133.328
20
-66.293
11
133.296
21
-66.2844
0
LINE
8
Black
10
133.296
20
-66.2844
11
133.263
21
-66.2787
0
LINE
8
Black
10
133.263
20
-66.2787
11
133.253
21
-66.2731
0
LINE
8
Black
10
133.253
20
-66.2731
11
133.243
21
-66.2702
0
LINE
8
Black
10
133.243
20
-66.2702
11
133.215
21
-66.2512
0
LINE
8
Black
10
133.215
20
-66.2512
11
133.187
21
-66.2346
0
LINE
8
Black
10
133.187
20
-66.2346
11
133.18
21
-66.226
0
LINE
8
Black
10
133.18
20
-66.226
11
133.17
21
-66.2196
0
LINE
8
Black
10
133.17
20
-66.2196
11
132.8
21
-65.8495
0
LINE
8
Black
10
132.8
20
-65.8495
11
130.366
21
-65.8495
0
LINE
8
Black
10
130.366
20
-65.8495
11
130.354
21
-65.8476
0
LINE
8
Black
10
130.354
20
-65.8476
11
130.343
21
-65.8485
0
LINE
8
Black
10
130.343
20
-65.8485
11
130.311
21
-65.8399
0
LINE
8
Black
10
130.311
20
-65.8399
11
130.279
21
-65.8342
0
LINE
8
Black
10
130.279
20
-65.8342
11
130.269
21
-65.8286
0
LINE
8
Black
10
130.269
20
-65.8286
11
130.258
21
-65.8257
0
LINE
8
Black
10
130.258
20
-65.8257
11
130.231
21
-65.8067
0
LINE
8
Black
10
130.231
20
-65.8067
11
130.202
21
-65.7901
0
LINE
8
Black
10
130.202
20
-65.7901
11
130.195
21
-65.7815
0
LINE
8
Black
10
130.195
20
-65.7815
11
130.186
21
-65.7751
0
LINE
8
Black
10
130.186
20
-65.7751
11
129.36
21
-64.9496
0
LINE
8
Black
10
129.36
20
-64.9496
11
129.354
21
-64.9405
0
LINE
8
Black
10
129.354
20
-64.9405
11
129.345
21
-64.9333
0
LINE
8
Black
10
129.345
20
-64.9333
11
129.329
21
-64.9045
0
LINE
8
Black
10
129.329
20
-64.9045
11
129.31
21
-64.8773
0
LINE
8
Black
10
129.31
20
-64.8773
11
129.307
21
-64.8666
0
LINE
8
Black
10
129.307
20
-64.8666
11
129.301
21
-64.8569
0
LINE
8
Black
10
129.301
20
-64.8569
11
129.296
21
-64.8242
0
LINE
8
Black
10
129.296
20
-64.8242
11
129.287
21
-64.7921
0
LINE
8
Black
10
129.287
20
-64.7921
11
129.288
21
-64.781
0
LINE
8
Black
10
129.288
20
-64.781
11
129.286
21
-64.77
0
LINE
8
Black
10
129.286
20
-64.77
11
129.286
21
-64.435
0
LINE
8
Black
10
129.286
20
-64.435
11
129.24
21
-64.435
0
LINE
8
Black
10
129.24
20
-64.435
11
129.24
21
-62.885
0
LINE
8
Black
10
129.24
20
-62.885
11
129.84
21
-62.885
0
LINE
8
Black
10
129.84
20
-62.885
11
129.84
21
-64.435
0
LINE
8
Black
10
137.99
20
-64.15
11
137.748
21
-64.15
0
LINE
8
Black
10
137.748
20
-64.15
11
137.748
21
-65.325
0
LINE
8
Black
10
137.748
20
-65.325
11
137.744
21
-65.347
0
LINE
8
Black
10
137.744
20
-65.347
11
137.746
21
-65.3693
0
LINE
8
Black
10
137.746
20
-65.3693
11
137.729
21
-65.4334
0
LINE
8
Black
10
137.729
20
-65.4334
11
137.717
21
-65.4987
0
LINE
8
Black
10
137.717
20
-65.4987
11
137.706
21
-65.5181
0
LINE
8
Black
10
137.706
20
-65.5181
11
137.7
21
-65.5397
0
LINE
8
Black
10
137.7
20
-65.5397
11
137.662
21
-65.5941
0
LINE
8
Black
10
137.662
20
-65.5941
11
137.629
21
-65.6515
0
LINE
8
Black
10
137.629
20
-65.6515
11
137.612
21
-65.6659
0
LINE
8
Black
10
137.612
20
-65.6659
11
137.599
21
-65.6842
0
LINE
8
Black
10
137.599
20
-65.6842
11
137.519
21
-65.7642
0
LINE
8
Black
10
137.519
20
-65.7642
11
137.375
21
-65.8654
0
LINE
8
Black
10
137.375
20
-65.8654
11
137.204
21
-65.9111
0
LINE
8
Black
10
137.204
20
-65.9111
11
137.029
21
-65.8957
0
LINE
8
Black
10
137.029
20
-65.8957
11
136.869
21
-65.8211
0
LINE
8
Black
10
136.869
20
-65.8211
11
136.744
21
-65.6964
0
LINE
8
Black
10
136.744
20
-65.6964
11
136.669
21
-65.5365
0
LINE
8
Black
10
136.669
20
-65.5365
11
136.654
21
-65.3607
0
LINE
8
Black
10
136.654
20
-65.3607
11
136.7
21
-65.1903
0
LINE
8
Black
10
136.7
20
-65.1903
11
136.732
21
-65.144
0
LINE
8
Black
10
136.732
20
-65.144
11
136.732
21
-64.15
0
LINE
8
Black
10
136.732
20
-64.15
11
136.49
21
-64.15
0
LINE
8
Black
10
136.49
20
-64.15
11
136.49
21
-62.85
0
LINE
8
Black
10
136.49
20
-62.85
11
137.99
21
-62.85
0
LINE
8
Black
10
137.99
20
-62.85
11
137.99
21
-64.15
0
LINE
8
Black
10
133.459
20
-65.0695
11
133.35
21
-65.0887
0
LINE
8
Black
10
133.35
20
-65.0887
11
133.241
21
-65.0695
0
LINE
8
Black
10
133.241
20
-65.0695
11
133.145
21
-65.0141
0
LINE
8
Black
10
133.145
20
-65.0141
11
133.074
21
-64.9294
0
LINE
8
Black
10
133.074
20
-64.9294
11
133.036
21
-64.8253
0
LINE
8
Black
10
133.036
20
-64.8253
11
133.036
21
-64.7147
0
LINE
8
Black
10
133.036
20
-64.7147
11
133.074
21
-64.6106
0
LINE
8
Black
10
133.074
20
-64.6106
11
133.145
21
-64.5259
0
LINE
8
Black
10
133.145
20
-64.5259
11
133.241
21
-64.4705
0
LINE
8
Black
10
133.241
20
-64.4705
11
133.35
21
-64.4513
0
LINE
8
Black
10
133.35
20
-64.4513
11
133.459
21
-64.4705
0
LINE
8
Black
10
133.459
20
-64.4705
11
133.538
21
-64.516
0
LINE
8
Black
10
133.538
20
-64.516
11
133.799
21
-64.516
0
LINE
8
Black
10
133.799
20
-64.516
11
134.286
21
-64.516
0
LINE
8
Black
10
134.286
20
-64.516
11
134.286
21
-64.15
0
LINE
8
Black
10
134.286
20
-64.15
11
133.79
21
-64.15
0
LINE
8
Black
10
133.79
20
-64.15
11
133.79
21
-62.85
0
LINE
8
Black
10
133.79
20
-62.85
11
135.29
21
-62.85
0
LINE
8
Black
10
135.29
20
-62.85
11
135.29
21
-64.15
0
LINE
8
Black
10
135.29
20
-64.15
11
134.794
21
-64.15
0
LINE
8
Black
10
134.794
20
-64.15
11
134.794
21
-64.658
0
LINE
8
Black
10
134.794
20
-64.658
11
134.792
21
-64.669
0
LINE
8
Black
10
134.792
20
-64.669
11
134.793
21
-64.6801
0
LINE
8
Black
10
134.793
20
-64.6801
11
134.784
21
-64.7122
0
LINE
8
Black
10
134.784
20
-64.7122
11
134.779
21
-64.7449
0
LINE
8
Black
10
134.779
20
-64.7449
11
134.773
21
-64.7546
0
LINE
8
Black
10
134.773
20
-64.7546
11
134.77
21
-64.7653
0
LINE
8
Black
10
134.77
20
-64.7653
11
134.751
21
-64.7925
0
LINE
8
Black
10
134.751
20
-64.7925
11
134.735
21
-64.8213
0
LINE
8
Black
10
134.735
20
-64.8213
11
134.726
21
-64.8285
0
LINE
8
Black
10
134.726
20
-64.8285
11
134.72
21
-64.8376
0
LINE
8
Black
10
134.72
20
-64.8376
11
134.608
21
-64.9496
0
LINE
8
Black
10
134.608
20
-64.9496
11
134.598
21
-64.956
0
LINE
8
Black
10
134.598
20
-64.956
11
134.591
21
-64.9646
0
LINE
8
Black
10
134.591
20
-64.9646
11
134.563
21
-64.9812
0
LINE
8
Black
10
134.563
20
-64.9812
11
134.535
21
-65.0002
0
LINE
8
Black
10
134.535
20
-65.0002
11
134.525
21
-65.0031
0
LINE
8
Black
10
134.525
20
-65.0031
11
134.515
21
-65.0087
0
LINE
8
Black
10
134.515
20
-65.0087
11
134.482
21
-65.0144
0
LINE
8
Black
10
134.482
20
-65.0144
11
134.45
21
-65.023
0
LINE
8
Black
10
134.45
20
-65.023
11
134.439
21
-65.0221
0
LINE
8
Black
10
134.439
20
-65.0221
11
134.428
21
-65.024
0
LINE
8
Black
10
134.428
20
-65.024
11
133.799
21
-65.024
0
LINE
8
Black
10
133.799
20
-65.024
11
133.538
21
-65.024
0
LINE
8
Black
10
133.538
20
-65.024
11
133.459
21
-65.0695
0
LINE
8
Black
10
131.11
20
-63.152
11
131.71
21
-63.152
0
LINE
8
Black
10
131.71
20
-63.152
11
131.721
21
-63.1408
0
LINE
8
Black
10
131.721
20
-63.1408
11
131.865
21
-63.0396
0
LINE
8
Black
10
131.865
20
-63.0396
11
132.036
21
-62.9939
0
LINE
8
Black
10
132.036
20
-62.9939
11
132.211
21
-63.0093
0
LINE
8
Black
10
132.211
20
-63.0093
11
132.371
21
-63.0839
0
LINE
8
Black
10
132.371
20
-63.0839
11
132.496
21
-63.2086
0
LINE
8
Black
10
132.496
20
-63.2086
11
132.571
21
-63.3685
0
LINE
8
Black
10
132.571
20
-63.3685
11
132.586
21
-63.5443
0
LINE
8
Black
10
132.586
20
-63.5443
11
132.54
21
-63.7147
0
LINE
8
Black
10
132.54
20
-63.7147
11
132.439
21
-63.8592
0
LINE
8
Black
10
132.439
20
-63.8592
11
132.279
21
-64.0192
0
LINE
8
Black
10
132.279
20
-64.0192
11
132.261
21
-64.032
0
LINE
8
Black
10
132.261
20
-64.032
11
132.247
21
-64.0492
0
LINE
8
Black
10
132.247
20
-64.0492
11
132.189
21
-64.0823
0
LINE
8
Black
10
132.189
20
-64.0823
11
132.135
21
-64.1204
0
LINE
8
Black
10
132.135
20
-64.1204
11
132.113
21
-64.1262
0
LINE
8
Black
10
132.113
20
-64.1262
11
132.094
21
-64.1374
0
LINE
8
Black
10
132.094
20
-64.1374
11
132.028
21
-64.1489
0
LINE
8
Black
10
132.028
20
-64.1489
11
131.964
21
-64.1661
0
LINE
8
Black
10
131.964
20
-64.1661
11
131.942
21
-64.1641
0
LINE
8
Black
10
131.942
20
-64.1641
11
131.92
21
-64.168
0
LINE
8
Black
10
131.92
20
-64.168
11
131.11
21
-64.168
0
LINE
8
Black
10
131.11
20
-64.168
11
131.11
21
-64.435
0
LINE
8
Black
10
131.11
20
-64.435
11
130.51
21
-64.435
0
LINE
8
Black
10
130.51
20
-64.435
11
130.51
21
-64.0645
0
LINE
8
Black
10
130.51
20
-64.0645
11
130.483
21
-64.0492
0
LINE
8
Black
10
130.483
20
-64.0492
11
130.37
21
-63.914
0
LINE
8
Black
10
130.37
20
-63.914
11
130.31
21
-63.7482
0
LINE
8
Black
10
130.31
20
-63.7482
11
130.31
21
-63.5718
0
LINE
8
Black
10
130.31
20
-63.5718
11
130.37
21
-63.406
0
LINE
8
Black
10
130.37
20
-63.406
11
130.483
21
-63.2708
0
LINE
8
Black
10
130.483
20
-63.2708
11
130.51
21
-63.2555
0
LINE
8
Black
10
130.51
20
-63.2555
11
130.51
21
-62.885
0
LINE
8
Black
10
130.51
20
-62.885
11
131.11
21
-62.885
0
LINE
8
Black
10
131.11
20
-62.885
11
131.11
21
-63.152
0
LINE
8
Black
10
114.515
20
-63.715
11
112.815
21
-63.715
0
LINE
8
Black
10
112.815
20
-63.715
11
112.815
21
-62.015
0
LINE
8
Black
10
112.815
20
-62.015
11
114.515
21
-62.015
0
LINE
8
Black
10
114.515
20
-62.015
11
114.515
21
-63.715
0
LINE
8
Black
10
122.545
20
-61.055
11
122.428
21
-61.055
0
LINE
8
Black
10
122.428
20
-61.055
11
122.428
21
-62.23
0
LINE
8
Black
10
122.428
20
-62.23
11
122.397
21
-62.4037
0
LINE
8
Black
10
122.397
20
-62.4037
11
122.309
21
-62.5565
0
LINE
8
Black
10
122.309
20
-62.5565
11
122.174
21
-62.6699
0
LINE
8
Black
10
122.174
20
-62.6699
11
122.008
21
-62.7303
0
LINE
8
Black
10
122.008
20
-62.7303
11
121.832
21
-62.7303
0
LINE
8
Black
10
121.832
20
-62.7303
11
121.666
21
-62.6699
0
LINE
8
Black
10
121.666
20
-62.6699
11
121.531
21
-62.5565
0
LINE
8
Black
10
121.531
20
-62.5565
11
121.443
21
-62.4037
0
LINE
8
Black
10
121.443
20
-62.4037
11
121.412
21
-62.23
0
LINE
8
Black
10
121.412
20
-62.23
11
121.412
21
-61.055
0
LINE
8
Black
10
121.412
20
-61.055
11
121.295
21
-61.055
0
LINE
8
Black
10
121.295
20
-61.055
11
121.295
21
-59.555
0
LINE
8
Black
10
121.295
20
-59.555
11
122.545
21
-59.555
0
LINE
8
Black
10
122.545
20
-59.555
11
122.545
21
-61.055
0
LINE
8
Black
10
113.959
20
-59.5263
11
114.215
21
-59.6739
0
LINE
8
Black
10
114.215
20
-59.6739
11
114.404
21
-59.9
0
LINE
8
Black
10
114.404
20
-59.9
11
114.505
21
-60.1774
0
LINE
8
Black
10
114.505
20
-60.1774
11
114.505
21
-60.4726
0
LINE
8
Black
10
114.505
20
-60.4726
11
114.404
21
-60.75
0
LINE
8
Black
10
114.404
20
-60.75
11
114.215
21
-60.9761
0
LINE
8
Black
10
114.215
20
-60.9761
11
113.959
21
-61.1237
0
LINE
8
Black
10
113.959
20
-61.1237
11
113.668
21
-61.175
0
LINE
8
Black
10
113.668
20
-61.175
11
113.662
21
-61.175
0
LINE
8
Black
10
113.662
20
-61.175
11
113.371
21
-61.1237
0
LINE
8
Black
10
113.371
20
-61.1237
11
113.115
21
-60.9761
0
LINE
8
Black
10
113.115
20
-60.9761
11
112.926
21
-60.75
0
LINE
8
Black
10
112.926
20
-60.75
11
112.825
21
-60.4726
0
LINE
8
Black
10
112.825
20
-60.4726
11
112.825
21
-60.1774
0
LINE
8
Black
10
112.825
20
-60.1774
11
112.926
21
-59.9
0
LINE
8
Black
10
112.926
20
-59.9
11
113.115
21
-59.6739
0
LINE
8
Black
10
113.115
20
-59.6739
11
113.371
21
-59.5263
0
LINE
8
Black
10
113.371
20
-59.5263
11
113.662
21
-59.475
0
LINE
8
Black
10
113.662
20
-59.475
11
113.668
21
-59.475
0
LINE
8
Black
10
113.668
20
-59.475
11
113.959
21
-59.5263
0
LINE
8
Black
10
113.959
20
-54.4463
11
114.215
21
-54.5939
0
LINE
8
Black
10
114.215
20
-54.5939
11
114.404
21
-54.82
0
LINE
8
Black
10
114.404
20
-54.82
11
114.505
21
-55.0974
0
LINE
8
Black
10
114.505
20
-55.0974
11
114.505
21
-55.3669
0
LINE
8
Black
10
114.505
20
-55.3669
11
114.51
21
-55.372
0
LINE
8
Black
10
114.51
20
-55.372
11
114.935
21
-55.372
0
LINE
8
Black
10
114.935
20
-55.372
11
114.957
21
-55.3759
0
LINE
8
Black
10
114.957
20
-55.3759
11
114.979
21
-55.3739
0
LINE
8
Black
10
114.979
20
-55.3739
11
115.043
21
-55.3911
0
LINE
8
Black
10
115.043
20
-55.3911
11
115.061
21
-55.3943
0
LINE
8
Black
10
115.061
20
-55.3943
11
115.39
21
-55.0654
0
LINE
8
Black
10
115.39
20
-55.0654
11
115.4
21
-55.059
0
LINE
8
Black
10
115.4
20
-55.059
11
115.407
21
-55.0504
0
LINE
8
Black
10
115.407
20
-55.0504
11
115.435
21
-55.0338
0
LINE
8
Black
10
115.435
20
-55.0338
11
115.463
21
-55.0148
0
LINE
8
Black
10
115.463
20
-55.0148
11
115.473
21
-55.0119
0
LINE
8
Black
10
115.473
20
-55.0119
11
115.483
21
-55.0063
0
LINE
8
Black
10
115.483
20
-55.0063
11
115.516
21
-55.0006
0
LINE
8
Black
10
115.516
20
-55.0006
11
115.548
21
-54.992
0
LINE
8
Black
10
115.548
20
-54.992
11
115.559
21
-54.9929
0
LINE
8
Black
10
115.559
20
-54.9929
11
115.57
21
-54.991
0
LINE
8
Black
10
115.57
20
-54.991
11
126.194
21
-54.991
0
LINE
8
Black
10
126.194
20
-54.991
11
126.201
21
-54.951
0
LINE
8
Black
10
126.201
20
-54.951
11
126.349
21
-54.6954
0
LINE
8
Black
10
126.349
20
-54.6954
11
126.575
21
-54.5056
0
LINE
8
Black
10
126.575
20
-54.5056
11
126.852
21
-54.4047
0
LINE
8
Black
10
126.852
20
-54.4047
11
127.148
21
-54.4047
0
LINE
8
Black
10
127.148
20
-54.4047
11
127.425
21
-54.5056
0
LINE
8
Black
10
127.425
20
-54.5056
11
127.651
21
-54.6954
0
LINE
8
Black
10
127.651
20
-54.6954
11
127.799
21
-54.951
0
LINE
8
Black
10
127.799
20
-54.951
11
127.85
21
-55.2418
0
LINE
8
Black
10
127.85
20
-55.2418
11
127.85
21
-55.2482
0
LINE
8
Black
10
127.85
20
-55.2482
11
127.799
21
-55.539
0
LINE
8
Black
10
127.799
20
-55.539
11
127.651
21
-55.7946
0
LINE
8
Black
10
127.651
20
-55.7946
11
127.425
21
-55.9844
0
LINE
8
Black
10
127.425
20
-55.9844
11
127.148
21
-56.0853
0
LINE
8
Black
10
127.148
20
-56.0853
11
126.852
21
-56.0853
0
LINE
8
Black
10
126.852
20
-56.0853
11
126.575
21
-55.9844
0
LINE
8
Black
10
126.575
20
-55.9844
11
126.349
21
-55.7946
0
LINE
8
Black
10
126.349
20
-55.7946
11
126.201
21
-55.539
0
LINE
8
Black
10
126.201
20
-55.539
11
126.194
21
-55.499
0
LINE
8
Black
10
126.194
20
-55.499
11
115.675
21
-55.499
0
LINE
8
Black
10
115.675
20
-55.499
11
115.474
21
-55.7004
0
LINE
8
Black
10
115.474
20
-55.7004
11
115.929
21
-56.1558
0
LINE
8
Black
10
115.929
20
-56.1558
11
115.942
21
-56.1741
0
LINE
8
Black
10
115.942
20
-56.1741
11
115.959
21
-56.1885
0
LINE
8
Black
10
115.959
20
-56.1885
11
115.992
21
-56.2459
0
LINE
8
Black
10
115.992
20
-56.2459
11
116.03
21
-56.3003
0
LINE
8
Black
10
116.03
20
-56.3003
11
116.036
21
-56.3219
0
LINE
8
Black
10
116.036
20
-56.3219
11
116.047
21
-56.3413
0
LINE
8
Black
10
116.047
20
-56.3413
11
116.059
21
-56.4066
0
LINE
8
Black
10
116.059
20
-56.4066
11
116.076
21
-56.4707
0
LINE
8
Black
10
116.076
20
-56.4707
11
116.074
21
-56.493
0
LINE
8
Black
10
116.074
20
-56.493
11
116.078
21
-56.515
0
LINE
8
Black
10
116.078
20
-56.515
11
116.078
21
-59.3206
0
LINE
8
Black
10
116.078
20
-59.3206
11
116.654
21
-59.897
0
LINE
8
Black
10
116.654
20
-59.897
11
117.46
21
-59.897
0
LINE
8
Black
10
117.46
20
-59.897
11
117.46
21
-59.655
0
LINE
8
Black
10
117.46
20
-59.655
11
118.76
21
-59.655
0
LINE
8
Black
10
118.76
20
-59.655
11
118.76
21
-61.155
0
LINE
8
Black
10
118.76
20
-61.155
11
117.46
21
-61.155
0
LINE
8
Black
10
117.46
20
-61.155
11
117.46
21
-60.913
0
LINE
8
Black
10
117.46
20
-60.913
11
116.444
21
-60.913
0
LINE
8
Black
10
116.444
20
-60.913
11
116.422
21
-60.9091
0
LINE
8
Black
10
116.422
20
-60.9091
11
116.4
21
-60.9111
0
LINE
8
Black
10
116.4
20
-60.9111
11
116.336
21
-60.8939
0
LINE
8
Black
10
116.336
20
-60.8939
11
116.27
21
-60.8824
0
LINE
8
Black
10
116.27
20
-60.8824
11
116.251
21
-60.8712
0
LINE
8
Black
10
116.251
20
-60.8712
11
116.229
21
-60.8654
0
LINE
8
Black
10
116.229
20
-60.8654
11
116.175
21
-60.8273
0
LINE
8
Black
10
116.175
20
-60.8273
11
116.117
21
-60.7942
0
LINE
8
Black
10
116.117
20
-60.7942
11
116.103
21
-60.777
0
LINE
8
Black
10
116.103
20
-60.777
11
116.085
21
-60.7642
0
LINE
8
Black
10
116.085
20
-60.7642
11
115.211
21
-59.8902
0
LINE
8
Black
10
115.211
20
-59.8902
11
115.198
21
-59.8719
0
LINE
8
Black
10
115.198
20
-59.8719
11
115.181
21
-59.8575
0
LINE
8
Black
10
115.181
20
-59.8575
11
115.148
21
-59.8001
0
LINE
8
Black
10
115.148
20
-59.8001
11
115.11
21
-59.7457
0
LINE
8
Black
10
115.11
20
-59.7457
11
115.104
21
-59.7241
0
LINE
8
Black
10
115.104
20
-59.7241
11
115.093
21
-59.7047
0
LINE
8
Black
10
115.093
20
-59.7047
11
115.081
21
-59.6394
0
LINE
8
Black
10
115.081
20
-59.6394
11
115.064
21
-59.5753
0
LINE
8
Black
10
115.064
20
-59.5753
11
115.066
21
-59.553
0
LINE
8
Black
10
115.066
20
-59.553
11
115.062
21
-59.531
0
LINE
8
Black
10
115.062
20
-59.531
11
115.062
21
-56.7254
0
LINE
8
Black
10
115.062
20
-56.7254
11
114.725
21
-56.388
0
LINE
8
Black
10
114.725
20
-56.388
11
114.3
21
-56.388
0
LINE
8
Black
10
114.3
20
-56.388
11
114.278
21
-56.3841
0
LINE
8
Black
10
114.278
20
-56.3841
11
114.256
21
-56.3861
0
LINE
8
Black
10
114.256
20
-56.3861
11
114.192
21
-56.3689
0
LINE
8
Black
10
114.192
20
-56.3689
11
114.126
21
-56.3574
0
LINE
8
Black
10
114.126
20
-56.3574
11
114.107
21
-56.3462
0
LINE
8
Black
10
114.107
20
-56.3462
11
114.085
21
-56.3404
0
LINE
8
Black
10
114.085
20
-56.3404
11
114.031
21
-56.3023
0
LINE
8
Black
10
114.031
20
-56.3023
11
113.973
21
-56.2692
0
LINE
8
Black
10
113.973
20
-56.2692
11
113.959
21
-56.252
0
LINE
8
Black
10
113.959
20
-56.252
11
113.941
21
-56.2392
0
LINE
8
Black
10
113.941
20
-56.2392
11
113.777
21
-56.0758
0
LINE
8
Black
10
113.777
20
-56.0758
11
113.668
21
-56.095
0
LINE
8
Black
10
113.668
20
-56.095
11
113.662
21
-56.095
0
LINE
8
Black
10
113.662
20
-56.095
11
113.371
21
-56.0437
0
LINE
8
Black
10
113.371
20
-56.0437
11
113.115
21
-55.8961
0
LINE
8
Black
10
113.115
20
-55.8961
11
112.926
21
-55.67
0
LINE
8
Black
10
112.926
20
-55.67
11
112.825
21
-55.3926
0
LINE
8
Black
10
112.825
20
-55.3926
11
112.825
21
-55.0974
0
LINE
8
Black
10
112.825
20
-55.0974
11
112.926
21
-54.82
0
LINE
8
Black
10
112.926
20
-54.82
11
113.115
21
-54.5939
0
LINE
8
Black
10
113.115
20
-54.5939
11
113.371
21
-54.4463
0
LINE
8
Black
10
113.371
20
-54.4463
11
113.662
21
-54.395
0
LINE
8
Black
10
113.662
20
-54.395
11
113.668
21
-54.395
0
LINE
8
Black
10
113.668
20
-54.395
11
113.959
21
-54.4463
0
LINE
8
Black
10
129.84
20
-59.035
11
129.794
21
-59.035
0
LINE
8
Black
10
129.794
20
-59.035
11
129.794
21
-59.4378
0
LINE
8
Black
10
129.794
20
-59.4378
11
130.28
21
-59.924
0
LINE
8
Black
10
130.28
20
-59.924
11
132.054
21
-59.924
0
LINE
8
Black
10
132.054
20
-59.924
11
133.102
21
-58.8754
0
LINE
8
Black
10
133.102
20
-58.8754
11
133.112
21
-58.869
0
LINE
8
Black
10
133.112
20
-58.869
11
133.119
21
-58.8604
0
LINE
8
Black
10
133.119
20
-58.8604
11
133.147
21
-58.8438
0
LINE
8
Black
10
133.147
20
-58.8438
11
133.175
21
-58.8248
0
LINE
8
Black
10
133.175
20
-58.8248
11
133.185
21
-58.8219
0
LINE
8
Black
10
133.185
20
-58.8219
11
133.195
21
-58.8163
0
LINE
8
Black
10
133.195
20
-58.8163
11
133.228
21
-58.8106
0
LINE
8
Black
10
133.228
20
-58.8106
11
133.26
21
-58.802
0
LINE
8
Black
10
133.26
20
-58.802
11
133.271
21
-58.8029
0
LINE
8
Black
10
133.271
20
-58.8029
11
133.282
21
-58.801
0
LINE
8
Black
10
133.282
20
-58.801
11
133.79
21
-58.801
0
LINE
8
Black
10
133.79
20
-58.801
11
133.79
21
-58.405
0
LINE
8
Black
10
133.79
20
-58.405
11
135.29
21
-58.405
0
LINE
8
Black
10
135.29
20
-58.405
11
135.29
21
-59.705
0
LINE
8
Black
10
135.29
20
-59.705
11
133.79
21
-59.705
0
LINE
8
Black
10
133.79
20
-59.705
11
133.79
21
-59.309
0
LINE
8
Black
10
133.79
20
-59.309
11
133.387
21
-59.309
0
LINE
8
Black
10
133.387
20
-59.309
11
132.339
21
-60.3576
0
LINE
8
Black
10
132.339
20
-60.3576
11
132.329
21
-60.364
0
LINE
8
Black
10
132.329
20
-60.364
11
132.322
21
-60.3726
0
LINE
8
Black
10
132.322
20
-60.3726
11
132.294
21
-60.3892
0
LINE
8
Black
10
132.294
20
-60.3892
11
132.266
21
-60.4082
0
LINE
8
Black
10
132.266
20
-60.4082
11
132.256
21
-60.4111
0
LINE
8
Black
10
132.256
20
-60.4111
11
132.246
21
-60.4167
0
LINE
8
Black
10
132.246
20
-60.4167
11
132.213
21
-60.4224
0
LINE
8
Black
10
132.213
20
-60.4224
11
132.181
21
-60.431
0
LINE
8
Black
10
132.181
20
-60.431
11
132.17
21
-60.4301
0
LINE
8
Black
10
132.17
20
-60.4301
11
132.159
21
-60.432
0
LINE
8
Black
10
132.159
20
-60.432
11
130.175
21
-60.432
0
LINE
8
Black
10
130.175
20
-60.432
11
130.164
21
-60.4301
0
LINE
8
Black
10
130.164
20
-60.4301
11
130.153
21
-60.431
0
LINE
8
Black
10
130.153
20
-60.431
11
130.121
21
-60.4224
0
LINE
8
Black
10
130.121
20
-60.4224
11
130.088
21
-60.4167
0
LINE
8
Black
10
130.088
20
-60.4167
11
130.078
21
-60.4111
0
LINE
8
Black
10
130.078
20
-60.4111
11
130.068
21
-60.4082
0
LINE
8
Black
10
130.068
20
-60.4082
11
130.04
21
-60.3892
0
LINE
8
Black
10
130.04
20
-60.3892
11
130.012
21
-60.3726
0
LINE
8
Black
10
130.012
20
-60.3726
11
130.005
21
-60.364
0
LINE
8
Black
10
130.005
20
-60.364
11
129.995
21
-60.3576
0
LINE
8
Black
10
129.995
20
-60.3576
11
129.36
21
-59.7226
0
LINE
8
Black
10
129.36
20
-59.7226
11
129.354
21
-59.7135
0
LINE
8
Black
10
129.354
20
-59.7135
11
129.345
21
-59.7063
0
LINE
8
Black
10
129.345
20
-59.7063
11
129.329
21
-59.6775
0
LINE
8
Black
10
129.329
20
-59.6775
11
129.31
21
-59.6503
0
LINE
8
Black
10
129.31
20
-59.6503
11
129.307
21
-59.6396
0
LINE
8
Black
10
129.307
20
-59.6396
11
129.301
21
-59.6299
0
LINE
8
Black
10
129.301
20
-59.6299
11
129.296
21
-59.5972
0
LINE
8
Black
10
129.296
20
-59.5972
11
129.287
21
-59.5651
0
LINE
8
Black
10
129.287
20
-59.5651
11
129.288
21
-59.554
0
LINE
8
Black
10
129.288
20
-59.554
11
129.286
21
-59.543
0
LINE
8
Black
10
129.286
20
-59.543
11
129.286
21
-59.035
0
LINE
8
Black
10
129.286
20
-59.035
11
129.24
21
-59.035
0
LINE
8
Black
10
129.24
20
-59.035
11
129.24
21
-57.485
0
LINE
8
Black
10
129.24
20
-57.485
11
129.84
21
-57.485
0
LINE
8
Black
10
129.84
20
-57.485
11
129.84
21
-59.035
0
LINE
8
Black
10
135.045
20
-54.5056
11
135.271
21
-54.6954
0
LINE
8
Black
10
135.271
20
-54.6954
11
135.419
21
-54.951
0
LINE
8
Black
10
135.419
20
-54.951
11
135.47
21
-55.2418
0
LINE
8
Black
10
135.47
20
-55.2418
11
135.47
21
-55.2482
0
LINE
8
Black
10
135.47
20
-55.2482
11
135.419
21
-55.539
0
LINE
8
Black
10
135.419
20
-55.539
11
135.271
21
-55.7946
0
LINE
8
Black
10
135.271
20
-55.7946
11
135.066
21
-55.9668
0
LINE
8
Black
10
135.066
20
-55.9668
11
137.42
21
-58.3204
0
LINE
8
Black
10
137.42
20
-58.3204
11
137.426
21
-58.3295
0
LINE
8
Black
10
137.426
20
-58.3295
11
137.435
21
-58.3367
0
LINE
8
Black
10
137.435
20
-58.3367
11
137.451
21
-58.3655
0
LINE
8
Black
10
137.451
20
-58.3655
11
137.47
21
-58.3927
0
LINE
8
Black
10
137.47
20
-58.3927
11
137.473
21
-58.4034
0
LINE
8
Black
10
137.473
20
-58.4034
11
137.474
21
-58.405
0
LINE
8
Black
10
137.474
20
-58.405
11
137.99
21
-58.405
0
LINE
8
Black
10
137.99
20
-58.405
11
137.99
21
-59.705
0
LINE
8
Black
10
137.99
20
-59.705
11
136.49
21
-59.705
0
LINE
8
Black
10
136.49
20
-59.705
11
136.49
21
-58.405
0
LINE
8
Black
10
136.49
20
-58.405
11
136.786
21
-58.405
0
LINE
8
Black
10
136.786
20
-58.405
11
134.463
21
-56.0817
0
LINE
8
Black
10
134.463
20
-56.0817
11
134.195
21
-55.9844
0
LINE
8
Black
10
134.195
20
-55.9844
11
133.969
21
-55.7946
0
LINE
8
Black
10
133.969
20
-55.7946
11
133.821
21
-55.539
0
LINE
8
Black
10
133.821
20
-55.539
11
133.77
21
-55.2482
0
LINE
8
Black
10
133.77
20
-55.2482
11
133.77
21
-55.2418
0
LINE
8
Black
10
133.77
20
-55.2418
11
133.821
21
-54.951
0
LINE
8
Black
10
133.821
20
-54.951
11
133.969
21
-54.6954
0
LINE
8
Black
10
133.969
20
-54.6954
11
134.195
21
-54.5056
0
LINE
8
Black
10
134.195
20
-54.5056
11
134.472
21
-54.4047
0
LINE
8
Black
10
134.472
20
-54.4047
11
134.768
21
-54.4047
0
LINE
8
Black
10
134.768
20
-54.4047
11
135.045
21
-54.5056
0
LINE
8
Black
10
118.76
20
-57.197
11
121.295
21
-57.197
0
LINE
8
Black
10
121.295
20
-57.197
11
121.295
21
-57.055
0
LINE
8
Black
10
121.295
20
-57.055
11
122.545
21
-57.055
0
LINE
8
Black
10
122.545
20
-57.055
11
122.545
21
-57.297
0
LINE
8
Black
10
122.545
20
-57.297
11
123.561
21
-57.297
0
LINE
8
Black
10
123.561
20
-57.297
11
123.583
21
-57.3009
0
LINE
8
Black
10
123.583
20
-57.3009
11
123.605
21
-57.2989
0
LINE
8
Black
10
123.605
20
-57.2989
11
123.669
21
-57.3161
0
LINE
8
Black
10
123.669
20
-57.3161
11
123.735
21
-57.3276
0
LINE
8
Black
10
123.735
20
-57.3276
11
123.754
21
-57.3388
0
LINE
8
Black
10
123.754
20
-57.3388
11
123.776
21
-57.3446
0
LINE
8
Black
10
123.776
20
-57.3446
11
123.83
21
-57.3827
0
LINE
8
Black
10
123.83
20
-57.3827
11
123.888
21
-57.4158
0
LINE
8
Black
10
123.888
20
-57.4158
11
123.902
21
-57.433
0
LINE
8
Black
10
123.902
20
-57.433
11
123.92
21
-57.4458
0
LINE
8
Black
10
123.92
20
-57.4458
11
124.024
21
-57.5498
0
LINE
8
Black
10
124.024
20
-57.5498
11
124.037
21
-57.5681
0
LINE
8
Black
10
124.037
20
-57.5681
11
124.054
21
-57.5825
0
LINE
8
Black
10
124.054
20
-57.5825
11
124.087
21
-57.6399
0
LINE
8
Black
10
124.087
20
-57.6399
11
124.125
21
-57.6943
0
LINE
8
Black
10
124.125
20
-57.6943
11
124.131
21
-57.7159
0
LINE
8
Black
10
124.131
20
-57.7159
11
124.142
21
-57.7353
0
LINE
8
Black
10
124.142
20
-57.7353
11
124.145
21
-57.752
0
LINE
8
Black
10
124.145
20
-57.752
11
126.7
21
-57.752
0
LINE
8
Black
10
126.7
20
-57.752
11
126.7
21
-57.485
0
LINE
8
Black
10
126.7
20
-57.485
11
127.3
21
-57.485
0
LINE
8
Black
10
127.3
20
-57.485
11
127.3
21
-57.8555
0
LINE
8
Black
10
127.3
20
-57.8555
11
127.327
21
-57.8708
0
LINE
8
Black
10
127.327
20
-57.8708
11
127.44
21
-58.006
0
LINE
8
Black
10
127.44
20
-58.006
11
127.5
21
-58.1718
0
LINE
8
Black
10
127.5
20
-58.1718
11
127.5
21
-58.3482
0
LINE
8
Black
10
127.5
20
-58.3482
11
127.44
21
-58.514
0
LINE
8
Black
10
127.44
20
-58.514
11
127.327
21
-58.6492
0
LINE
8
Black
10
127.327
20
-58.6492
11
127.3
21
-58.6645
0
LINE
8
Black
10
127.3
20
-58.6645
11
127.3
21
-59.035
0
LINE
8
Black
10
127.3
20
-59.035
11
126.7
21
-59.035
0
LINE
8
Black
10
126.7
20
-59.035
11
126.7
21
-58.768
0
LINE
8
Black
10
126.7
20
-58.768
11
123.665
21
-58.768
0
LINE
8
Black
10
123.665
20
-58.768
11
123.621
21
-58.7603
0
LINE
8
Black
10
123.621
20
-58.7603
11
123.577
21
-58.7603
0
LINE
8
Black
10
123.577
20
-58.7603
11
123.535
21
-58.7451
0
LINE
8
Black
10
123.535
20
-58.7451
11
123.491
21
-58.7374
0
LINE
8
Black
10
123.491
20
-58.7374
11
123.453
21
-58.7151
0
LINE
8
Black
10
123.453
20
-58.7151
11
123.411
21
-58.6999
0
LINE
8
Black
10
123.411
20
-58.6999
11
123.377
21
-58.6714
0
LINE
8
Black
10
123.377
20
-58.6714
11
123.338
21
-58.6492
0
LINE
8
Black
10
123.338
20
-58.6492
11
123.31
21
-58.6151
0
LINE
8
Black
10
123.31
20
-58.6151
11
123.276
21
-58.5865
0
LINE
8
Black
10
123.276
20
-58.5865
11
123.254
21
-58.548
0
LINE
8
Black
10
123.254
20
-58.548
11
123.225
21
-58.514
0
LINE
8
Black
10
123.225
20
-58.514
11
123.21
21
-58.4722
0
LINE
8
Black
10
123.21
20
-58.4722
11
123.188
21
-58.4337
0
LINE
8
Black
10
123.188
20
-58.4337
11
123.18
21
-58.39
0
LINE
8
Black
10
123.18
20
-58.39
11
123.165
21
-58.3482
0
LINE
8
Black
10
123.165
20
-58.3482
11
123.165
21
-58.313
0
LINE
8
Black
10
123.165
20
-58.313
11
122.545
21
-58.313
0
LINE
8
Black
10
122.545
20
-58.313
11
122.545
21
-58.555
0
LINE
8
Black
10
122.545
20
-58.555
11
121.295
21
-58.555
0
LINE
8
Black
10
121.295
20
-58.555
11
121.295
21
-58.213
0
LINE
8
Black
10
121.295
20
-58.213
11
118.76
21
-58.213
0
LINE
8
Black
10
118.76
20
-58.213
11
118.76
21
-58.455
0
LINE
8
Black
10
118.76
20
-58.455
11
117.46
21
-58.455
0
LINE
8
Black
10
117.46
20
-58.455
11
117.46
21
-56.955
0
LINE
8
Black
10
117.46
20
-56.955
11
118.76
21
-56.955
0
LINE
8
Black
10
118.76
20
-56.955
11
118.76
21
-57.197
0
LINE
8
Black
10
132.505
20
-54.5056
11
132.731
21
-54.6954
0
LINE
8
Black
10
132.731
20
-54.6954
11
132.879
21
-54.951
0
LINE
8
Black
10
132.879
20
-54.951
11
132.93
21
-55.2418
0
LINE
8
Black
10
132.93
20
-55.2418
11
132.93
21
-55.2482
0
LINE
8
Black
10
132.93
20
-55.2482
11
132.879
21
-55.539
0
LINE
8
Black
10
132.879
20
-55.539
11
132.731
21
-55.7946
0
LINE
8
Black
10
132.731
20
-55.7946
11
132.505
21
-55.9844
0
LINE
8
Black
10
132.505
20
-55.9844
11
132.334
21
-56.0466
0
LINE
8
Black
10
132.334
20
-56.0466
11
132.334
21
-56.99
0
LINE
8
Black
10
132.334
20
-56.99
11
132.332
21
-57.001
0
LINE
8
Black
10
132.332
20
-57.001
11
132.333
21
-57.0121
0
LINE
8
Black
10
132.333
20
-57.0121
11
132.324
21
-57.0442
0
LINE
8
Black
10
132.324
20
-57.0442
11
132.319
21
-57.0769
0
LINE
8
Black
10
132.319
20
-57.0769
11
132.313
21
-57.0866
0
LINE
8
Black
10
132.313
20
-57.0866
11
132.31
21
-57.0973
0
LINE
8
Black
10
132.31
20
-57.0973
11
132.291
21
-57.1245
0
LINE
8
Black
10
132.291
20
-57.1245
11
132.275
21
-57.1533
0
LINE
8
Black
10
132.275
20
-57.1533
11
132.266
21
-57.1605
0
LINE
8
Black
10
132.266
20
-57.1605
11
132.26
21
-57.1696
0
LINE
8
Black
10
132.26
20
-57.1696
11
131.11
21
-58.3192
0
LINE
8
Black
10
131.11
20
-58.3192
11
131.11
21
-59.035
0
LINE
8
Black
10
131.11
20
-59.035
11
130.51
21
-59.035
0
LINE
8
Black
10
130.51
20
-59.035
11
130.51
21
-57.485
0
LINE
8
Black
10
130.51
20
-57.485
11
131.11
21
-57.485
0
LINE
8
Black
10
131.11
20
-57.485
11
131.11
21
-57.6008
0
LINE
8
Black
10
131.11
20
-57.6008
11
131.826
21
-56.8848
0
LINE
8
Black
10
131.826
20
-56.8848
11
131.826
21
-56.0466
0
LINE
8
Black
10
131.826
20
-56.0466
11
131.655
21
-55.9844
0
LINE
8
Black
10
131.655
20
-55.9844
11
131.429
21
-55.7946
0
LINE
8
Black
10
131.429
20
-55.7946
11
131.281
21
-55.539
0
LINE
8
Black
10
131.281
20
-55.539
11
131.23
21
-55.2482
0
LINE
8
Black
10
131.23
20
-55.2482
11
131.23
21
-55.2418
0
LINE
8
Black
10
131.23
20
-55.2418
11
131.281
21
-54.951
0
LINE
8
Black
10
131.281
20
-54.951
11
131.429
21
-54.6954
0
LINE
8
Black
10
131.429
20
-54.6954
11
131.655
21
-54.5056
0
LINE
8
Black
10
131.655
20
-54.5056
11
131.932
21
-54.4047
0
LINE
8
Black
10
131.932
20
-54.4047
11
132.228
21
-54.4047
0
LINE
8
Black
10
132.228
20
-54.4047
11
132.505
21
-54.5056
0
LINE
8
Black
10
129.965
20
-54.5056
11
130.191
21
-54.6954
0
LINE
8
Black
10
130.191
20
-54.6954
11
130.339
21
-54.951
0
LINE
8
Black
10
130.339
20
-54.951
11
130.39
21
-55.2418
0
LINE
8
Black
10
130.39
20
-55.2418
11
130.39
21
-55.2482
0
LINE
8
Black
10
130.39
20
-55.2482
11
130.339
21
-55.539
0
LINE
8
Black
10
130.339
20
-55.539
11
130.191
21
-55.7946
0
LINE
8
Black
10
130.191
20
-55.7946
11
129.965
21
-55.9844
0
LINE
8
Black
10
129.965
20
-55.9844
11
129.688
21
-56.0853
0
LINE
8
Black
10
129.688
20
-56.0853
11
129.392
21
-56.0853
0
LINE
8
Black
10
129.392
20
-56.0853
11
129.148
21
-55.9963
0
LINE
8
Black
10
129.148
20
-55.9963
11
128.524
21
-56.6202
0
LINE
8
Black
10
128.524
20
-56.6202
11
128.524
21
-57.485
0
LINE
8
Black
10
128.524
20
-57.485
11
128.57
21
-57.485
0
LINE
8
Black
10
128.57
20
-57.485
11
128.57
21
-59.035
0
LINE
8
Black
10
128.57
20
-59.035
11
127.97
21
-59.035
0
LINE
8
Black
10
127.97
20
-59.035
11
127.97
21
-57.485
0
LINE
8
Black
10
127.97
20
-57.485
11
128.016
21
-57.485
0
LINE
8
Black
10
128.016
20
-57.485
11
128.016
21
-56.515
0
LINE
8
Black
10
128.016
20
-56.515
11
128.018
21
-56.504
0
LINE
8
Black
10
128.018
20
-56.504
11
128.017
21
-56.4929
0
LINE
8
Black
10
128.017
20
-56.4929
11
128.026
21
-56.4608
0
LINE
8
Black
10
128.026
20
-56.4608
11
128.031
21
-56.4281
0
LINE
8
Black
10
128.031
20
-56.4281
11
128.037
21
-56.4184
0
LINE
8
Black
10
128.037
20
-56.4184
11
128.04
21
-56.4077
0
LINE
8
Black
10
128.04
20
-56.4077
11
128.059
21
-56.3805
0
LINE
8
Black
10
128.059
20
-56.3805
11
128.075
21
-56.3517
0
LINE
8
Black
10
128.075
20
-56.3517
11
128.084
21
-56.3445
0
LINE
8
Black
10
128.084
20
-56.3445
11
128.09
21
-56.3354
0
LINE
8
Black
10
128.09
20
-56.3354
11
128.795
21
-55.6312
0
LINE
8
Black
10
128.795
20
-55.6312
11
128.741
21
-55.539
0
LINE
8
Black
10
128.741
20
-55.539
11
128.69
21
-55.2482
0
LINE
8
Black
10
128.69
20
-55.2482
11
128.69
21
-55.2418
0
LINE
8
Black
10
128.69
20
-55.2418
11
128.741
21
-54.951
0
LINE
8
Black
10
128.741
20
-54.951
11
128.889
21
-54.6954
0
LINE
8
Black
10
128.889
20
-54.6954
11
129.115
21
-54.5056
0
LINE
8
Black
10
129.115
20
-54.5056
11
129.392
21
-54.4047
0
LINE
8
Black
10
129.392
20
-54.4047
11
129.688
21
-54.4047
0
LINE
8
Black
10
129.688
20
-54.4047
11
129.965
21
-54.5056
0
LINE
8
Black
10
113.959
20
-56.9863
11
114.215
21
-57.1339
0
LINE
8
Black
10
114.215
20
-57.1339
11
114.404
21
-57.36
0
LINE
8
Black
10
114.404
20
-57.36
11
114.505
21
-57.6374
0
LINE
8
Black
10
114.505
20
-57.6374
11
114.505
21
-57.9326
0
LINE
8
Black
10
114.505
20
-57.9326
11
114.404
21
-58.21
0
LINE
8
Black
10
114.404
20
-58.21
11
114.215
21
-58.4361
0
LINE
8
Black
10
114.215
20
-58.4361
11
113.959
21
-58.5837
0
LINE
8
Black
10
113.959
20
-58.5837
11
113.668
21
-58.635
0
LINE
8
Black
10
113.668
20
-58.635
11
113.662
21
-58.635
0
LINE
8
Black
10
113.662
20
-58.635
11
113.371
21
-58.5837
0
LINE
8
Black
10
113.371
20
-58.5837
11
113.115
21
-58.4361
0
LINE
8
Black
10
113.115
20
-58.4361
11
112.926
21
-58.21
0
LINE
8
Black
10
112.926
20
-58.21
11
112.825
21
-57.9326
0
LINE
8
Black
10
112.825
20
-57.9326
11
112.825
21
-57.6374
0
LINE
8
Black
10
112.825
20
-57.6374
11
112.926
21
-57.36
0
LINE
8
Black
10
112.926
20
-57.36
11
113.115
21
-57.1339
0
LINE
8
Black
10
113.115
20
-57.1339
11
113.371
21
-56.9863
0
LINE
8
Black
10
113.371
20
-56.9863
11
113.662
21
-56.935
0
LINE
8
Black
10
113.662
20
-56.935
11
113.668
21
-56.935
0
LINE
8
Black
10
113.668
20
-56.935
11
113.959
21
-56.9863
0
CIRCLE
8
Black
10
121.92
20
-62.23
40
0.1905
0
CIRCLE
8
Black
10
132.08
20
-83.82
40
0.1905
0
CIRCLE
8
Black
10
137.16
20
-65.405
40
0.1905
0
CIRCLE
8
Black
10
132.08
20
-63.5
40
0.1905
0
CIRCLE
8
Black
10
118.11
20
-82.55
40
0.1905
0
CIRCLE
8
Black
10
118.11
20
-76.2
40
0.1905
0
CIRCLE
8
Black
10
118.11
20
-69.85
40
0.1905
0
CIRCLE
8
Black
10
135.89
20
-86.36
40
0.1905
0
CIRCLE
8
Black
10
124.46
20
-85.09
40
0.1905
0
CIRCLE
8
Black
10
133.35
20
-64.77
40
0.1905
  0
ENDSEC
  0
EOF
