%FSLAX45Y45*%
G04 Gerber Fmt 4.5, Leading zero omitted, Abs format (unit mm)*
G04 Created by KiCad (PCBNEW 4.0.7) date Sunday, December 31, 2017 'PMt' 04:59:53 PM*
%MOMM*%
%LPD*%
G01*
G04 APERTURE LIST*
%ADD10C,0.127000*%
%ADD11C,0.150000*%
%ADD12C,0.200000*%
%ADD13C,0.300000*%
G04 APERTURE END LIST*
D10*
D11*
X11620500Y-7886700D02*
G75*
G03X11493500Y-7759700I-127000J0D01*
G01*
X11620500Y-7886700D02*
X11620500Y-8763000D01*
X10985500Y-7759700D02*
X11493500Y-7759700D01*
X10985500Y-7759700D02*
X10985500Y-5334000D01*
X14287500Y-8763000D02*
X11620500Y-8763000D01*
X14287500Y-5334000D02*
X14287500Y-8763000D01*
X10985500Y-5334000D02*
X14287500Y-5334000D01*
D12*
X11791950Y-6965950D02*
X11830050Y-7004050D01*
X11830050Y-6965950D02*
X11791950Y-7004050D01*
X11791950Y-7600950D02*
X11830050Y-7639050D01*
X11830050Y-7600950D02*
X11791950Y-7639050D01*
X11791950Y-8235950D02*
X11830050Y-8274050D01*
X11830050Y-8235950D02*
X11791950Y-8274050D01*
X12172950Y-6203950D02*
X12211050Y-6242050D01*
X12211050Y-6203950D02*
X12172950Y-6242050D01*
X12426950Y-8489950D02*
X12465050Y-8528050D01*
X12465050Y-8489950D02*
X12426950Y-8528050D01*
X13188950Y-6330950D02*
X13227050Y-6369050D01*
X13227050Y-6330950D02*
X13188950Y-6369050D01*
X13188950Y-8362950D02*
X13227050Y-8401050D01*
X13227050Y-8362950D02*
X13188950Y-8401050D01*
X13315950Y-6457950D02*
X13354050Y-6496050D01*
X13354050Y-6457950D02*
X13315950Y-6496050D01*
X13569950Y-8616950D02*
X13608050Y-8655050D01*
X13608050Y-8616950D02*
X13569950Y-8655050D01*
X13696950Y-6521450D02*
X13735050Y-6559550D01*
X13735050Y-6521450D02*
X13696950Y-6559550D01*
X11416500Y-5524500D02*
G75*
G03X11416500Y-5524500I-50000J0D01*
G01*
X11416500Y-5778500D02*
G75*
G03X11416500Y-5778500I-50000J0D01*
G01*
X11416500Y-6032500D02*
G75*
G03X11416500Y-6032500I-50000J0D01*
G01*
X11416500Y-6286500D02*
G75*
G03X11416500Y-6286500I-50000J0D01*
G01*
X11416500Y-6794500D02*
G75*
G03X11416500Y-6794500I-50000J0D01*
G01*
X11416500Y-7048500D02*
G75*
G03X11416500Y-7048500I-50000J0D01*
G01*
X11416500Y-7302500D02*
G75*
G03X11416500Y-7302500I-50000J0D01*
G01*
X11416500Y-7556500D02*
G75*
G03X11416500Y-7556500I-50000J0D01*
G01*
X12750000Y-5524500D02*
G75*
G03X12750000Y-5524500I-50000J0D01*
G01*
X12858000Y-6729500D02*
G75*
G03X12858000Y-6729500I-50000J0D01*
G01*
X13004000Y-5524500D02*
G75*
G03X13004000Y-5524500I-50000J0D01*
G01*
X13058000Y-6729500D02*
G75*
G03X13058000Y-6729500I-50000J0D01*
G01*
X13258000Y-5524500D02*
G75*
G03X13258000Y-5524500I-50000J0D01*
G01*
X13258000Y-6729500D02*
G75*
G03X13258000Y-6729500I-50000J0D01*
G01*
X13458000Y-6729500D02*
G75*
G03X13458000Y-6729500I-50000J0D01*
G01*
X13512000Y-5524500D02*
G75*
G03X13512000Y-5524500I-50000J0D01*
G01*
X13658000Y-6729500D02*
G75*
G03X13658000Y-6729500I-50000J0D01*
G01*
X13766000Y-5524500D02*
G75*
G03X13766000Y-5524500I-50000J0D01*
G01*
X12958000Y-8124500D02*
X12958000Y-8234500D01*
X12903000Y-8179500D02*
X13013000Y-8179500D01*
X13208000Y-8124500D02*
X13208000Y-8234500D01*
X13153000Y-8179500D02*
X13263000Y-8179500D01*
X13458000Y-8124500D02*
X13458000Y-8234500D01*
X13403000Y-8179500D02*
X13513000Y-8179500D01*
X12718711Y-7500211D02*
X12718711Y-7358789D01*
X12577289Y-7358789D01*
X12577289Y-7500211D01*
X12718711Y-7500211D01*
X12558000Y-7424500D02*
X12558000Y-7434500D01*
X12738000Y-7424500D02*
X12738000Y-7434500D01*
X12558000Y-7434500D02*
G75*
G03X12738000Y-7434500I90000J0D01*
G01*
X12738000Y-7424500D02*
G75*
G03X12558000Y-7424500I-90000J0D01*
G01*
X13838711Y-7500211D02*
X13838711Y-7358789D01*
X13697289Y-7358789D01*
X13697289Y-7500211D01*
X13838711Y-7500211D01*
X13678000Y-7424500D02*
X13678000Y-7434500D01*
X13858000Y-7424500D02*
X13858000Y-7434500D01*
X13678000Y-7434500D02*
G75*
G03X13858000Y-7434500I90000J0D01*
G01*
X13858000Y-7424500D02*
G75*
G03X13678000Y-7424500I-90000J0D01*
G01*
D13*
X11249428Y-9236214D02*
X11249428Y-8936214D01*
X11320857Y-8936214D01*
X11363714Y-8950500D01*
X11392286Y-8979072D01*
X11406571Y-9007643D01*
X11420857Y-9064786D01*
X11420857Y-9107643D01*
X11406571Y-9164786D01*
X11392286Y-9193357D01*
X11363714Y-9221929D01*
X11320857Y-9236214D01*
X11249428Y-9236214D01*
X11549428Y-9236214D02*
X11549428Y-9036214D01*
X11549428Y-9093357D02*
X11563714Y-9064786D01*
X11578000Y-9050500D01*
X11606571Y-9036214D01*
X11635143Y-9036214D01*
X11735143Y-9236214D02*
X11735143Y-9036214D01*
X11735143Y-8936214D02*
X11720857Y-8950500D01*
X11735143Y-8964786D01*
X11749428Y-8950500D01*
X11735143Y-8936214D01*
X11735143Y-8964786D01*
X11920857Y-9236214D02*
X11892286Y-9221929D01*
X11878000Y-9193357D01*
X11878000Y-8936214D01*
X12078000Y-9236214D02*
X12049428Y-9221929D01*
X12035143Y-9193357D01*
X12035143Y-8936214D01*
X12420857Y-9236214D02*
X12420857Y-8936214D01*
X12520857Y-9150500D01*
X12620857Y-8936214D01*
X12620857Y-9236214D01*
X12892286Y-9236214D02*
X12892286Y-9079072D01*
X12878000Y-9050500D01*
X12849428Y-9036214D01*
X12792286Y-9036214D01*
X12763714Y-9050500D01*
X12892286Y-9221929D02*
X12863714Y-9236214D01*
X12792286Y-9236214D01*
X12763714Y-9221929D01*
X12749428Y-9193357D01*
X12749428Y-9164786D01*
X12763714Y-9136214D01*
X12792286Y-9121929D01*
X12863714Y-9121929D01*
X12892286Y-9107643D01*
X13035143Y-9036214D02*
X13035143Y-9336214D01*
X13035143Y-9050500D02*
X13063714Y-9036214D01*
X13120857Y-9036214D01*
X13149428Y-9050500D01*
X13163714Y-9064786D01*
X13178000Y-9093357D01*
X13178000Y-9179072D01*
X13163714Y-9207643D01*
X13149428Y-9221929D01*
X13120857Y-9236214D01*
X13063714Y-9236214D01*
X13035143Y-9221929D01*
X13306571Y-9207643D02*
X13320857Y-9221929D01*
X13306571Y-9236214D01*
X13292286Y-9221929D01*
X13306571Y-9207643D01*
X13306571Y-9236214D01*
X13306571Y-9050500D02*
X13320857Y-9064786D01*
X13306571Y-9079072D01*
X13292286Y-9064786D01*
X13306571Y-9050500D01*
X13306571Y-9079072D01*
X10939900Y-9711450D02*
X10978000Y-9749550D01*
X10978000Y-9711450D02*
X10939900Y-9749550D01*
X11306571Y-9566214D02*
X11335143Y-9566214D01*
X11363714Y-9580500D01*
X11378000Y-9594786D01*
X11392286Y-9623357D01*
X11406571Y-9680500D01*
X11406571Y-9751929D01*
X11392286Y-9809072D01*
X11378000Y-9837643D01*
X11363714Y-9851929D01*
X11335143Y-9866214D01*
X11306571Y-9866214D01*
X11278000Y-9851929D01*
X11263714Y-9837643D01*
X11249428Y-9809072D01*
X11235143Y-9751929D01*
X11235143Y-9680500D01*
X11249428Y-9623357D01*
X11263714Y-9594786D01*
X11278000Y-9580500D01*
X11306571Y-9566214D01*
X11535143Y-9837643D02*
X11549428Y-9851929D01*
X11535143Y-9866214D01*
X11520857Y-9851929D01*
X11535143Y-9837643D01*
X11535143Y-9866214D01*
X11649428Y-9566214D02*
X11835143Y-9566214D01*
X11735143Y-9680500D01*
X11778000Y-9680500D01*
X11806571Y-9694786D01*
X11820857Y-9709072D01*
X11835143Y-9737643D01*
X11835143Y-9809072D01*
X11820857Y-9837643D01*
X11806571Y-9851929D01*
X11778000Y-9866214D01*
X11692286Y-9866214D01*
X11663714Y-9851929D01*
X11649428Y-9837643D01*
X12006571Y-9694786D02*
X11978000Y-9680500D01*
X11963714Y-9666214D01*
X11949428Y-9637643D01*
X11949428Y-9623357D01*
X11963714Y-9594786D01*
X11978000Y-9580500D01*
X12006571Y-9566214D01*
X12063714Y-9566214D01*
X12092286Y-9580500D01*
X12106571Y-9594786D01*
X12120857Y-9623357D01*
X12120857Y-9637643D01*
X12106571Y-9666214D01*
X12092286Y-9680500D01*
X12063714Y-9694786D01*
X12006571Y-9694786D01*
X11978000Y-9709072D01*
X11963714Y-9723357D01*
X11949428Y-9751929D01*
X11949428Y-9809072D01*
X11963714Y-9837643D01*
X11978000Y-9851929D01*
X12006571Y-9866214D01*
X12063714Y-9866214D01*
X12092286Y-9851929D01*
X12106571Y-9837643D01*
X12120857Y-9809072D01*
X12120857Y-9751929D01*
X12106571Y-9723357D01*
X12092286Y-9709072D01*
X12063714Y-9694786D01*
X12249428Y-9866214D02*
X12249428Y-9666214D01*
X12249428Y-9694786D02*
X12263714Y-9680500D01*
X12292286Y-9666214D01*
X12335143Y-9666214D01*
X12363714Y-9680500D01*
X12378000Y-9709072D01*
X12378000Y-9866214D01*
X12378000Y-9709072D02*
X12392286Y-9680500D01*
X12420857Y-9666214D01*
X12463714Y-9666214D01*
X12492286Y-9680500D01*
X12506571Y-9709072D01*
X12506571Y-9866214D01*
X12649428Y-9866214D02*
X12649428Y-9666214D01*
X12649428Y-9694786D02*
X12663714Y-9680500D01*
X12692286Y-9666214D01*
X12735143Y-9666214D01*
X12763714Y-9680500D01*
X12778000Y-9709072D01*
X12778000Y-9866214D01*
X12778000Y-9709072D02*
X12792286Y-9680500D01*
X12820857Y-9666214D01*
X12863714Y-9666214D01*
X12892286Y-9680500D01*
X12906571Y-9709072D01*
X12906571Y-9866214D01*
X13492286Y-9551929D02*
X13235143Y-9937643D01*
X13878000Y-9566214D02*
X13906571Y-9566214D01*
X13935143Y-9580500D01*
X13949428Y-9594786D01*
X13963714Y-9623357D01*
X13978000Y-9680500D01*
X13978000Y-9751929D01*
X13963714Y-9809072D01*
X13949428Y-9837643D01*
X13935143Y-9851929D01*
X13906571Y-9866214D01*
X13878000Y-9866214D01*
X13849428Y-9851929D01*
X13835143Y-9837643D01*
X13820857Y-9809072D01*
X13806571Y-9751929D01*
X13806571Y-9680500D01*
X13820857Y-9623357D01*
X13835143Y-9594786D01*
X13849428Y-9580500D01*
X13878000Y-9566214D01*
X14106571Y-9837643D02*
X14120857Y-9851929D01*
X14106571Y-9866214D01*
X14092286Y-9851929D01*
X14106571Y-9837643D01*
X14106571Y-9866214D01*
X14306571Y-9566214D02*
X14335143Y-9566214D01*
X14363714Y-9580500D01*
X14378000Y-9594786D01*
X14392285Y-9623357D01*
X14406571Y-9680500D01*
X14406571Y-9751929D01*
X14392285Y-9809072D01*
X14378000Y-9837643D01*
X14363714Y-9851929D01*
X14335143Y-9866214D01*
X14306571Y-9866214D01*
X14278000Y-9851929D01*
X14263714Y-9837643D01*
X14249428Y-9809072D01*
X14235143Y-9751929D01*
X14235143Y-9680500D01*
X14249428Y-9623357D01*
X14263714Y-9594786D01*
X14278000Y-9580500D01*
X14306571Y-9566214D01*
X14692285Y-9866214D02*
X14520857Y-9866214D01*
X14606571Y-9866214D02*
X14606571Y-9566214D01*
X14578000Y-9609072D01*
X14549428Y-9637643D01*
X14520857Y-9651929D01*
X14963714Y-9566214D02*
X14820857Y-9566214D01*
X14806571Y-9709072D01*
X14820857Y-9694786D01*
X14849428Y-9680500D01*
X14920857Y-9680500D01*
X14949428Y-9694786D01*
X14963714Y-9709072D01*
X14978000Y-9737643D01*
X14978000Y-9809072D01*
X14963714Y-9837643D01*
X14949428Y-9851929D01*
X14920857Y-9866214D01*
X14849428Y-9866214D01*
X14820857Y-9851929D01*
X14806571Y-9837643D01*
X15092286Y-9566214D02*
X15092286Y-9623357D01*
X15206571Y-9566214D02*
X15206571Y-9623357D01*
X15649428Y-9980500D02*
X15635143Y-9966214D01*
X15606571Y-9923357D01*
X15592285Y-9894786D01*
X15578000Y-9851929D01*
X15563714Y-9780500D01*
X15563714Y-9723357D01*
X15578000Y-9651929D01*
X15592285Y-9609072D01*
X15606571Y-9580500D01*
X15635143Y-9537643D01*
X15649428Y-9523357D01*
X15920857Y-9866214D02*
X15749428Y-9866214D01*
X15835143Y-9866214D02*
X15835143Y-9566214D01*
X15806571Y-9609072D01*
X15778000Y-9637643D01*
X15749428Y-9651929D01*
X16106571Y-9566214D02*
X16135143Y-9566214D01*
X16163714Y-9580500D01*
X16178000Y-9594786D01*
X16192285Y-9623357D01*
X16206571Y-9680500D01*
X16206571Y-9751929D01*
X16192285Y-9809072D01*
X16178000Y-9837643D01*
X16163714Y-9851929D01*
X16135143Y-9866214D01*
X16106571Y-9866214D01*
X16078000Y-9851929D01*
X16063714Y-9837643D01*
X16049428Y-9809072D01*
X16035143Y-9751929D01*
X16035143Y-9680500D01*
X16049428Y-9623357D01*
X16063714Y-9594786D01*
X16078000Y-9580500D01*
X16106571Y-9566214D01*
X16563714Y-9866214D02*
X16563714Y-9566214D01*
X16692285Y-9866214D02*
X16692285Y-9709072D01*
X16678000Y-9680500D01*
X16649428Y-9666214D01*
X16606571Y-9666214D01*
X16578000Y-9680500D01*
X16563714Y-9694786D01*
X16878000Y-9866214D02*
X16849428Y-9851929D01*
X16835143Y-9837643D01*
X16820857Y-9809072D01*
X16820857Y-9723357D01*
X16835143Y-9694786D01*
X16849428Y-9680500D01*
X16878000Y-9666214D01*
X16920857Y-9666214D01*
X16949428Y-9680500D01*
X16963714Y-9694786D01*
X16978000Y-9723357D01*
X16978000Y-9809072D01*
X16963714Y-9837643D01*
X16949428Y-9851929D01*
X16920857Y-9866214D01*
X16878000Y-9866214D01*
X17149428Y-9866214D02*
X17120857Y-9851929D01*
X17106571Y-9823357D01*
X17106571Y-9566214D01*
X17378000Y-9851929D02*
X17349429Y-9866214D01*
X17292286Y-9866214D01*
X17263714Y-9851929D01*
X17249429Y-9823357D01*
X17249429Y-9709072D01*
X17263714Y-9680500D01*
X17292286Y-9666214D01*
X17349429Y-9666214D01*
X17378000Y-9680500D01*
X17392286Y-9709072D01*
X17392286Y-9737643D01*
X17249429Y-9766214D01*
X17506571Y-9851929D02*
X17535143Y-9866214D01*
X17592286Y-9866214D01*
X17620857Y-9851929D01*
X17635143Y-9823357D01*
X17635143Y-9809072D01*
X17620857Y-9780500D01*
X17592286Y-9766214D01*
X17549429Y-9766214D01*
X17520857Y-9751929D01*
X17506571Y-9723357D01*
X17506571Y-9709072D01*
X17520857Y-9680500D01*
X17549429Y-9666214D01*
X17592286Y-9666214D01*
X17620857Y-9680500D01*
X17735143Y-9980500D02*
X17749429Y-9966214D01*
X17778000Y-9923357D01*
X17792286Y-9894786D01*
X17806571Y-9851929D01*
X17820857Y-9780500D01*
X17820857Y-9723357D01*
X17806571Y-9651929D01*
X17792286Y-9609072D01*
X17778000Y-9580500D01*
X17749429Y-9537643D01*
X17735143Y-9523357D01*
X10978000Y-10126500D02*
G75*
G03X10978000Y-10126500I-50000J0D01*
G01*
X11406571Y-10262214D02*
X11235143Y-10262214D01*
X11320857Y-10262214D02*
X11320857Y-9962214D01*
X11292286Y-10005072D01*
X11263714Y-10033643D01*
X11235143Y-10047929D01*
X11535143Y-10233643D02*
X11549428Y-10247929D01*
X11535143Y-10262214D01*
X11520857Y-10247929D01*
X11535143Y-10233643D01*
X11535143Y-10262214D01*
X11735143Y-9962214D02*
X11763714Y-9962214D01*
X11792286Y-9976500D01*
X11806571Y-9990786D01*
X11820857Y-10019357D01*
X11835143Y-10076500D01*
X11835143Y-10147929D01*
X11820857Y-10205072D01*
X11806571Y-10233643D01*
X11792286Y-10247929D01*
X11763714Y-10262214D01*
X11735143Y-10262214D01*
X11706571Y-10247929D01*
X11692286Y-10233643D01*
X11678000Y-10205072D01*
X11663714Y-10147929D01*
X11663714Y-10076500D01*
X11678000Y-10019357D01*
X11692286Y-9990786D01*
X11706571Y-9976500D01*
X11735143Y-9962214D01*
X12020857Y-9962214D02*
X12049428Y-9962214D01*
X12078000Y-9976500D01*
X12092286Y-9990786D01*
X12106571Y-10019357D01*
X12120857Y-10076500D01*
X12120857Y-10147929D01*
X12106571Y-10205072D01*
X12092286Y-10233643D01*
X12078000Y-10247929D01*
X12049428Y-10262214D01*
X12020857Y-10262214D01*
X11992286Y-10247929D01*
X11978000Y-10233643D01*
X11963714Y-10205072D01*
X11949428Y-10147929D01*
X11949428Y-10076500D01*
X11963714Y-10019357D01*
X11978000Y-9990786D01*
X11992286Y-9976500D01*
X12020857Y-9962214D01*
X12249428Y-10262214D02*
X12249428Y-10062214D01*
X12249428Y-10090786D02*
X12263714Y-10076500D01*
X12292286Y-10062214D01*
X12335143Y-10062214D01*
X12363714Y-10076500D01*
X12378000Y-10105072D01*
X12378000Y-10262214D01*
X12378000Y-10105072D02*
X12392286Y-10076500D01*
X12420857Y-10062214D01*
X12463714Y-10062214D01*
X12492286Y-10076500D01*
X12506571Y-10105072D01*
X12506571Y-10262214D01*
X12649428Y-10262214D02*
X12649428Y-10062214D01*
X12649428Y-10090786D02*
X12663714Y-10076500D01*
X12692286Y-10062214D01*
X12735143Y-10062214D01*
X12763714Y-10076500D01*
X12778000Y-10105072D01*
X12778000Y-10262214D01*
X12778000Y-10105072D02*
X12792286Y-10076500D01*
X12820857Y-10062214D01*
X12863714Y-10062214D01*
X12892286Y-10076500D01*
X12906571Y-10105072D01*
X12906571Y-10262214D01*
X13492286Y-9947929D02*
X13235143Y-10333643D01*
X13878000Y-9962214D02*
X13906571Y-9962214D01*
X13935143Y-9976500D01*
X13949428Y-9990786D01*
X13963714Y-10019357D01*
X13978000Y-10076500D01*
X13978000Y-10147929D01*
X13963714Y-10205072D01*
X13949428Y-10233643D01*
X13935143Y-10247929D01*
X13906571Y-10262214D01*
X13878000Y-10262214D01*
X13849428Y-10247929D01*
X13835143Y-10233643D01*
X13820857Y-10205072D01*
X13806571Y-10147929D01*
X13806571Y-10076500D01*
X13820857Y-10019357D01*
X13835143Y-9990786D01*
X13849428Y-9976500D01*
X13878000Y-9962214D01*
X14106571Y-10233643D02*
X14120857Y-10247929D01*
X14106571Y-10262214D01*
X14092286Y-10247929D01*
X14106571Y-10233643D01*
X14106571Y-10262214D01*
X14306571Y-9962214D02*
X14335143Y-9962214D01*
X14363714Y-9976500D01*
X14378000Y-9990786D01*
X14392285Y-10019357D01*
X14406571Y-10076500D01*
X14406571Y-10147929D01*
X14392285Y-10205072D01*
X14378000Y-10233643D01*
X14363714Y-10247929D01*
X14335143Y-10262214D01*
X14306571Y-10262214D01*
X14278000Y-10247929D01*
X14263714Y-10233643D01*
X14249428Y-10205072D01*
X14235143Y-10147929D01*
X14235143Y-10076500D01*
X14249428Y-10019357D01*
X14263714Y-9990786D01*
X14278000Y-9976500D01*
X14306571Y-9962214D01*
X14506571Y-9962214D02*
X14692285Y-9962214D01*
X14592285Y-10076500D01*
X14635143Y-10076500D01*
X14663714Y-10090786D01*
X14678000Y-10105072D01*
X14692285Y-10133643D01*
X14692285Y-10205072D01*
X14678000Y-10233643D01*
X14663714Y-10247929D01*
X14635143Y-10262214D01*
X14549428Y-10262214D01*
X14520857Y-10247929D01*
X14506571Y-10233643D01*
X14835143Y-10262214D02*
X14892285Y-10262214D01*
X14920857Y-10247929D01*
X14935143Y-10233643D01*
X14963714Y-10190786D01*
X14978000Y-10133643D01*
X14978000Y-10019357D01*
X14963714Y-9990786D01*
X14949428Y-9976500D01*
X14920857Y-9962214D01*
X14863714Y-9962214D01*
X14835143Y-9976500D01*
X14820857Y-9990786D01*
X14806571Y-10019357D01*
X14806571Y-10090786D01*
X14820857Y-10119357D01*
X14835143Y-10133643D01*
X14863714Y-10147929D01*
X14920857Y-10147929D01*
X14949428Y-10133643D01*
X14963714Y-10119357D01*
X14978000Y-10090786D01*
X15092286Y-9962214D02*
X15092286Y-10019357D01*
X15206571Y-9962214D02*
X15206571Y-10019357D01*
X15649428Y-10376500D02*
X15635143Y-10362214D01*
X15606571Y-10319357D01*
X15592285Y-10290786D01*
X15578000Y-10247929D01*
X15563714Y-10176500D01*
X15563714Y-10119357D01*
X15578000Y-10047929D01*
X15592285Y-10005072D01*
X15606571Y-9976500D01*
X15635143Y-9933643D01*
X15649428Y-9919357D01*
X15920857Y-10262214D02*
X15749428Y-10262214D01*
X15835143Y-10262214D02*
X15835143Y-9962214D01*
X15806571Y-10005072D01*
X15778000Y-10033643D01*
X15749428Y-10047929D01*
X16092285Y-10090786D02*
X16063714Y-10076500D01*
X16049428Y-10062214D01*
X16035143Y-10033643D01*
X16035143Y-10019357D01*
X16049428Y-9990786D01*
X16063714Y-9976500D01*
X16092285Y-9962214D01*
X16149428Y-9962214D01*
X16178000Y-9976500D01*
X16192285Y-9990786D01*
X16206571Y-10019357D01*
X16206571Y-10033643D01*
X16192285Y-10062214D01*
X16178000Y-10076500D01*
X16149428Y-10090786D01*
X16092285Y-10090786D01*
X16063714Y-10105072D01*
X16049428Y-10119357D01*
X16035143Y-10147929D01*
X16035143Y-10205072D01*
X16049428Y-10233643D01*
X16063714Y-10247929D01*
X16092285Y-10262214D01*
X16149428Y-10262214D01*
X16178000Y-10247929D01*
X16192285Y-10233643D01*
X16206571Y-10205072D01*
X16206571Y-10147929D01*
X16192285Y-10119357D01*
X16178000Y-10105072D01*
X16149428Y-10090786D01*
X16563714Y-10262214D02*
X16563714Y-9962214D01*
X16692285Y-10262214D02*
X16692285Y-10105072D01*
X16678000Y-10076500D01*
X16649428Y-10062214D01*
X16606571Y-10062214D01*
X16578000Y-10076500D01*
X16563714Y-10090786D01*
X16878000Y-10262214D02*
X16849428Y-10247929D01*
X16835143Y-10233643D01*
X16820857Y-10205072D01*
X16820857Y-10119357D01*
X16835143Y-10090786D01*
X16849428Y-10076500D01*
X16878000Y-10062214D01*
X16920857Y-10062214D01*
X16949428Y-10076500D01*
X16963714Y-10090786D01*
X16978000Y-10119357D01*
X16978000Y-10205072D01*
X16963714Y-10233643D01*
X16949428Y-10247929D01*
X16920857Y-10262214D01*
X16878000Y-10262214D01*
X17149428Y-10262214D02*
X17120857Y-10247929D01*
X17106571Y-10219357D01*
X17106571Y-9962214D01*
X17378000Y-10247929D02*
X17349429Y-10262214D01*
X17292286Y-10262214D01*
X17263714Y-10247929D01*
X17249429Y-10219357D01*
X17249429Y-10105072D01*
X17263714Y-10076500D01*
X17292286Y-10062214D01*
X17349429Y-10062214D01*
X17378000Y-10076500D01*
X17392286Y-10105072D01*
X17392286Y-10133643D01*
X17249429Y-10162214D01*
X17506571Y-10247929D02*
X17535143Y-10262214D01*
X17592286Y-10262214D01*
X17620857Y-10247929D01*
X17635143Y-10219357D01*
X17635143Y-10205072D01*
X17620857Y-10176500D01*
X17592286Y-10162214D01*
X17549429Y-10162214D01*
X17520857Y-10147929D01*
X17506571Y-10119357D01*
X17506571Y-10105072D01*
X17520857Y-10076500D01*
X17549429Y-10062214D01*
X17592286Y-10062214D01*
X17620857Y-10076500D01*
X17735143Y-10376500D02*
X17749429Y-10362214D01*
X17778000Y-10319357D01*
X17792286Y-10290786D01*
X17806571Y-10247929D01*
X17820857Y-10176500D01*
X17820857Y-10119357D01*
X17806571Y-10047929D01*
X17792286Y-10005072D01*
X17778000Y-9976500D01*
X17749429Y-9933643D01*
X17735143Y-9919357D01*
X10923000Y-10467500D02*
X10923000Y-10577500D01*
X10868000Y-10522500D02*
X10978000Y-10522500D01*
X11406571Y-10658214D02*
X11235143Y-10658214D01*
X11320857Y-10658214D02*
X11320857Y-10358214D01*
X11292286Y-10401072D01*
X11263714Y-10429643D01*
X11235143Y-10443929D01*
X11535143Y-10629643D02*
X11549428Y-10643929D01*
X11535143Y-10658214D01*
X11520857Y-10643929D01*
X11535143Y-10629643D01*
X11535143Y-10658214D01*
X11835143Y-10658214D02*
X11663714Y-10658214D01*
X11749428Y-10658214D02*
X11749428Y-10358214D01*
X11720857Y-10401072D01*
X11692286Y-10429643D01*
X11663714Y-10443929D01*
X12020857Y-10358214D02*
X12049428Y-10358214D01*
X12078000Y-10372500D01*
X12092286Y-10386786D01*
X12106571Y-10415357D01*
X12120857Y-10472500D01*
X12120857Y-10543929D01*
X12106571Y-10601072D01*
X12092286Y-10629643D01*
X12078000Y-10643929D01*
X12049428Y-10658214D01*
X12020857Y-10658214D01*
X11992286Y-10643929D01*
X11978000Y-10629643D01*
X11963714Y-10601072D01*
X11949428Y-10543929D01*
X11949428Y-10472500D01*
X11963714Y-10415357D01*
X11978000Y-10386786D01*
X11992286Y-10372500D01*
X12020857Y-10358214D01*
X12249428Y-10658214D02*
X12249428Y-10458214D01*
X12249428Y-10486786D02*
X12263714Y-10472500D01*
X12292286Y-10458214D01*
X12335143Y-10458214D01*
X12363714Y-10472500D01*
X12378000Y-10501072D01*
X12378000Y-10658214D01*
X12378000Y-10501072D02*
X12392286Y-10472500D01*
X12420857Y-10458214D01*
X12463714Y-10458214D01*
X12492286Y-10472500D01*
X12506571Y-10501072D01*
X12506571Y-10658214D01*
X12649428Y-10658214D02*
X12649428Y-10458214D01*
X12649428Y-10486786D02*
X12663714Y-10472500D01*
X12692286Y-10458214D01*
X12735143Y-10458214D01*
X12763714Y-10472500D01*
X12778000Y-10501072D01*
X12778000Y-10658214D01*
X12778000Y-10501072D02*
X12792286Y-10472500D01*
X12820857Y-10458214D01*
X12863714Y-10458214D01*
X12892286Y-10472500D01*
X12906571Y-10501072D01*
X12906571Y-10658214D01*
X13492286Y-10343929D02*
X13235143Y-10729643D01*
X13878000Y-10358214D02*
X13906571Y-10358214D01*
X13935143Y-10372500D01*
X13949428Y-10386786D01*
X13963714Y-10415357D01*
X13978000Y-10472500D01*
X13978000Y-10543929D01*
X13963714Y-10601072D01*
X13949428Y-10629643D01*
X13935143Y-10643929D01*
X13906571Y-10658214D01*
X13878000Y-10658214D01*
X13849428Y-10643929D01*
X13835143Y-10629643D01*
X13820857Y-10601072D01*
X13806571Y-10543929D01*
X13806571Y-10472500D01*
X13820857Y-10415357D01*
X13835143Y-10386786D01*
X13849428Y-10372500D01*
X13878000Y-10358214D01*
X14106571Y-10629643D02*
X14120857Y-10643929D01*
X14106571Y-10658214D01*
X14092286Y-10643929D01*
X14106571Y-10629643D01*
X14106571Y-10658214D01*
X14306571Y-10358214D02*
X14335143Y-10358214D01*
X14363714Y-10372500D01*
X14378000Y-10386786D01*
X14392285Y-10415357D01*
X14406571Y-10472500D01*
X14406571Y-10543929D01*
X14392285Y-10601072D01*
X14378000Y-10629643D01*
X14363714Y-10643929D01*
X14335143Y-10658214D01*
X14306571Y-10658214D01*
X14278000Y-10643929D01*
X14263714Y-10629643D01*
X14249428Y-10601072D01*
X14235143Y-10543929D01*
X14235143Y-10472500D01*
X14249428Y-10415357D01*
X14263714Y-10386786D01*
X14278000Y-10372500D01*
X14306571Y-10358214D01*
X14663714Y-10458214D02*
X14663714Y-10658214D01*
X14592285Y-10343929D02*
X14520857Y-10558214D01*
X14706571Y-10558214D01*
X14792285Y-10358214D02*
X14978000Y-10358214D01*
X14878000Y-10472500D01*
X14920857Y-10472500D01*
X14949428Y-10486786D01*
X14963714Y-10501072D01*
X14978000Y-10529643D01*
X14978000Y-10601072D01*
X14963714Y-10629643D01*
X14949428Y-10643929D01*
X14920857Y-10658214D01*
X14835143Y-10658214D01*
X14806571Y-10643929D01*
X14792285Y-10629643D01*
X15092286Y-10358214D02*
X15092286Y-10415357D01*
X15206571Y-10358214D02*
X15206571Y-10415357D01*
X15649428Y-10772500D02*
X15635143Y-10758214D01*
X15606571Y-10715357D01*
X15592285Y-10686786D01*
X15578000Y-10643929D01*
X15563714Y-10572500D01*
X15563714Y-10515357D01*
X15578000Y-10443929D01*
X15592285Y-10401072D01*
X15606571Y-10372500D01*
X15635143Y-10329643D01*
X15649428Y-10315357D01*
X15735143Y-10358214D02*
X15920857Y-10358214D01*
X15820857Y-10472500D01*
X15863714Y-10472500D01*
X15892285Y-10486786D01*
X15906571Y-10501072D01*
X15920857Y-10529643D01*
X15920857Y-10601072D01*
X15906571Y-10629643D01*
X15892285Y-10643929D01*
X15863714Y-10658214D01*
X15778000Y-10658214D01*
X15749428Y-10643929D01*
X15735143Y-10629643D01*
X16278000Y-10658214D02*
X16278000Y-10358214D01*
X16406571Y-10658214D02*
X16406571Y-10501072D01*
X16392285Y-10472500D01*
X16363714Y-10458214D01*
X16320857Y-10458214D01*
X16292285Y-10472500D01*
X16278000Y-10486786D01*
X16592285Y-10658214D02*
X16563714Y-10643929D01*
X16549428Y-10629643D01*
X16535143Y-10601072D01*
X16535143Y-10515357D01*
X16549428Y-10486786D01*
X16563714Y-10472500D01*
X16592285Y-10458214D01*
X16635143Y-10458214D01*
X16663714Y-10472500D01*
X16678000Y-10486786D01*
X16692285Y-10515357D01*
X16692285Y-10601072D01*
X16678000Y-10629643D01*
X16663714Y-10643929D01*
X16635143Y-10658214D01*
X16592285Y-10658214D01*
X16863714Y-10658214D02*
X16835143Y-10643929D01*
X16820857Y-10615357D01*
X16820857Y-10358214D01*
X17092286Y-10643929D02*
X17063714Y-10658214D01*
X17006571Y-10658214D01*
X16978000Y-10643929D01*
X16963714Y-10615357D01*
X16963714Y-10501072D01*
X16978000Y-10472500D01*
X17006571Y-10458214D01*
X17063714Y-10458214D01*
X17092286Y-10472500D01*
X17106571Y-10501072D01*
X17106571Y-10529643D01*
X16963714Y-10558214D01*
X17220857Y-10643929D02*
X17249429Y-10658214D01*
X17306571Y-10658214D01*
X17335143Y-10643929D01*
X17349429Y-10615357D01*
X17349429Y-10601072D01*
X17335143Y-10572500D01*
X17306571Y-10558214D01*
X17263714Y-10558214D01*
X17235143Y-10543929D01*
X17220857Y-10515357D01*
X17220857Y-10501072D01*
X17235143Y-10472500D01*
X17263714Y-10458214D01*
X17306571Y-10458214D01*
X17335143Y-10472500D01*
X17449428Y-10772500D02*
X17463714Y-10758214D01*
X17492286Y-10715357D01*
X17506571Y-10686786D01*
X17520857Y-10643929D01*
X17535143Y-10572500D01*
X17535143Y-10515357D01*
X17520857Y-10443929D01*
X17506571Y-10401072D01*
X17492286Y-10372500D01*
X17463714Y-10329643D01*
X17449428Y-10315357D01*
X10948711Y-10989212D02*
X10948711Y-10847789D01*
X10807289Y-10847789D01*
X10807289Y-10989212D01*
X10948711Y-10989212D01*
X11235143Y-10782786D02*
X11249428Y-10768500D01*
X11278000Y-10754214D01*
X11349428Y-10754214D01*
X11378000Y-10768500D01*
X11392286Y-10782786D01*
X11406571Y-10811357D01*
X11406571Y-10839929D01*
X11392286Y-10882786D01*
X11220857Y-11054214D01*
X11406571Y-11054214D01*
X11535143Y-11025643D02*
X11549428Y-11039929D01*
X11535143Y-11054214D01*
X11520857Y-11039929D01*
X11535143Y-11025643D01*
X11535143Y-11054214D01*
X11735143Y-10754214D02*
X11763714Y-10754214D01*
X11792286Y-10768500D01*
X11806571Y-10782786D01*
X11820857Y-10811357D01*
X11835143Y-10868500D01*
X11835143Y-10939929D01*
X11820857Y-10997072D01*
X11806571Y-11025643D01*
X11792286Y-11039929D01*
X11763714Y-11054214D01*
X11735143Y-11054214D01*
X11706571Y-11039929D01*
X11692286Y-11025643D01*
X11678000Y-10997072D01*
X11663714Y-10939929D01*
X11663714Y-10868500D01*
X11678000Y-10811357D01*
X11692286Y-10782786D01*
X11706571Y-10768500D01*
X11735143Y-10754214D01*
X12020857Y-10754214D02*
X12049428Y-10754214D01*
X12078000Y-10768500D01*
X12092286Y-10782786D01*
X12106571Y-10811357D01*
X12120857Y-10868500D01*
X12120857Y-10939929D01*
X12106571Y-10997072D01*
X12092286Y-11025643D01*
X12078000Y-11039929D01*
X12049428Y-11054214D01*
X12020857Y-11054214D01*
X11992286Y-11039929D01*
X11978000Y-11025643D01*
X11963714Y-10997072D01*
X11949428Y-10939929D01*
X11949428Y-10868500D01*
X11963714Y-10811357D01*
X11978000Y-10782786D01*
X11992286Y-10768500D01*
X12020857Y-10754214D01*
X12249428Y-11054214D02*
X12249428Y-10854214D01*
X12249428Y-10882786D02*
X12263714Y-10868500D01*
X12292286Y-10854214D01*
X12335143Y-10854214D01*
X12363714Y-10868500D01*
X12378000Y-10897072D01*
X12378000Y-11054214D01*
X12378000Y-10897072D02*
X12392286Y-10868500D01*
X12420857Y-10854214D01*
X12463714Y-10854214D01*
X12492286Y-10868500D01*
X12506571Y-10897072D01*
X12506571Y-11054214D01*
X12649428Y-11054214D02*
X12649428Y-10854214D01*
X12649428Y-10882786D02*
X12663714Y-10868500D01*
X12692286Y-10854214D01*
X12735143Y-10854214D01*
X12763714Y-10868500D01*
X12778000Y-10897072D01*
X12778000Y-11054214D01*
X12778000Y-10897072D02*
X12792286Y-10868500D01*
X12820857Y-10854214D01*
X12863714Y-10854214D01*
X12892286Y-10868500D01*
X12906571Y-10897072D01*
X12906571Y-11054214D01*
X13492286Y-10739929D02*
X13235143Y-11125643D01*
X13878000Y-10754214D02*
X13906571Y-10754214D01*
X13935143Y-10768500D01*
X13949428Y-10782786D01*
X13963714Y-10811357D01*
X13978000Y-10868500D01*
X13978000Y-10939929D01*
X13963714Y-10997072D01*
X13949428Y-11025643D01*
X13935143Y-11039929D01*
X13906571Y-11054214D01*
X13878000Y-11054214D01*
X13849428Y-11039929D01*
X13835143Y-11025643D01*
X13820857Y-10997072D01*
X13806571Y-10939929D01*
X13806571Y-10868500D01*
X13820857Y-10811357D01*
X13835143Y-10782786D01*
X13849428Y-10768500D01*
X13878000Y-10754214D01*
X14106571Y-11025643D02*
X14120857Y-11039929D01*
X14106571Y-11054214D01*
X14092286Y-11039929D01*
X14106571Y-11025643D01*
X14106571Y-11054214D01*
X14306571Y-10754214D02*
X14335143Y-10754214D01*
X14363714Y-10768500D01*
X14378000Y-10782786D01*
X14392285Y-10811357D01*
X14406571Y-10868500D01*
X14406571Y-10939929D01*
X14392285Y-10997072D01*
X14378000Y-11025643D01*
X14363714Y-11039929D01*
X14335143Y-11054214D01*
X14306571Y-11054214D01*
X14278000Y-11039929D01*
X14263714Y-11025643D01*
X14249428Y-10997072D01*
X14235143Y-10939929D01*
X14235143Y-10868500D01*
X14249428Y-10811357D01*
X14263714Y-10782786D01*
X14278000Y-10768500D01*
X14306571Y-10754214D01*
X14506571Y-10754214D02*
X14706571Y-10754214D01*
X14578000Y-11054214D01*
X14835143Y-11054214D02*
X14892285Y-11054214D01*
X14920857Y-11039929D01*
X14935143Y-11025643D01*
X14963714Y-10982786D01*
X14978000Y-10925643D01*
X14978000Y-10811357D01*
X14963714Y-10782786D01*
X14949428Y-10768500D01*
X14920857Y-10754214D01*
X14863714Y-10754214D01*
X14835143Y-10768500D01*
X14820857Y-10782786D01*
X14806571Y-10811357D01*
X14806571Y-10882786D01*
X14820857Y-10911357D01*
X14835143Y-10925643D01*
X14863714Y-10939929D01*
X14920857Y-10939929D01*
X14949428Y-10925643D01*
X14963714Y-10911357D01*
X14978000Y-10882786D01*
X15092286Y-10754214D02*
X15092286Y-10811357D01*
X15206571Y-10754214D02*
X15206571Y-10811357D01*
X15649428Y-11168500D02*
X15635143Y-11154214D01*
X15606571Y-11111357D01*
X15592285Y-11082786D01*
X15578000Y-11039929D01*
X15563714Y-10968500D01*
X15563714Y-10911357D01*
X15578000Y-10839929D01*
X15592285Y-10797072D01*
X15606571Y-10768500D01*
X15635143Y-10725643D01*
X15649428Y-10711357D01*
X15820857Y-10754214D02*
X15849428Y-10754214D01*
X15878000Y-10768500D01*
X15892285Y-10782786D01*
X15906571Y-10811357D01*
X15920857Y-10868500D01*
X15920857Y-10939929D01*
X15906571Y-10997072D01*
X15892285Y-11025643D01*
X15878000Y-11039929D01*
X15849428Y-11054214D01*
X15820857Y-11054214D01*
X15792285Y-11039929D01*
X15778000Y-11025643D01*
X15763714Y-10997072D01*
X15749428Y-10939929D01*
X15749428Y-10868500D01*
X15763714Y-10811357D01*
X15778000Y-10782786D01*
X15792285Y-10768500D01*
X15820857Y-10754214D01*
X16278000Y-11054214D02*
X16278000Y-10754214D01*
X16406571Y-11054214D02*
X16406571Y-10897072D01*
X16392285Y-10868500D01*
X16363714Y-10854214D01*
X16320857Y-10854214D01*
X16292285Y-10868500D01*
X16278000Y-10882786D01*
X16592285Y-11054214D02*
X16563714Y-11039929D01*
X16549428Y-11025643D01*
X16535143Y-10997072D01*
X16535143Y-10911357D01*
X16549428Y-10882786D01*
X16563714Y-10868500D01*
X16592285Y-10854214D01*
X16635143Y-10854214D01*
X16663714Y-10868500D01*
X16678000Y-10882786D01*
X16692285Y-10911357D01*
X16692285Y-10997072D01*
X16678000Y-11025643D01*
X16663714Y-11039929D01*
X16635143Y-11054214D01*
X16592285Y-11054214D01*
X16863714Y-11054214D02*
X16835143Y-11039929D01*
X16820857Y-11011357D01*
X16820857Y-10754214D01*
X17092286Y-11039929D02*
X17063714Y-11054214D01*
X17006571Y-11054214D01*
X16978000Y-11039929D01*
X16963714Y-11011357D01*
X16963714Y-10897072D01*
X16978000Y-10868500D01*
X17006571Y-10854214D01*
X17063714Y-10854214D01*
X17092286Y-10868500D01*
X17106571Y-10897072D01*
X17106571Y-10925643D01*
X16963714Y-10954214D01*
X17220857Y-11039929D02*
X17249429Y-11054214D01*
X17306571Y-11054214D01*
X17335143Y-11039929D01*
X17349429Y-11011357D01*
X17349429Y-10997072D01*
X17335143Y-10968500D01*
X17306571Y-10954214D01*
X17263714Y-10954214D01*
X17235143Y-10939929D01*
X17220857Y-10911357D01*
X17220857Y-10897072D01*
X17235143Y-10868500D01*
X17263714Y-10854214D01*
X17306571Y-10854214D01*
X17335143Y-10868500D01*
X17706571Y-10939929D02*
X17935143Y-10939929D01*
X17820857Y-11054214D02*
X17820857Y-10825643D01*
X18292286Y-10782786D02*
X18306571Y-10768500D01*
X18335143Y-10754214D01*
X18406571Y-10754214D01*
X18435143Y-10768500D01*
X18449428Y-10782786D01*
X18463714Y-10811357D01*
X18463714Y-10839929D01*
X18449428Y-10882786D01*
X18278000Y-11054214D01*
X18463714Y-11054214D01*
X18806571Y-11039929D02*
X18835143Y-11054214D01*
X18892286Y-11054214D01*
X18920857Y-11039929D01*
X18935143Y-11011357D01*
X18935143Y-10997072D01*
X18920857Y-10968500D01*
X18892286Y-10954214D01*
X18849428Y-10954214D01*
X18820857Y-10939929D01*
X18806571Y-10911357D01*
X18806571Y-10897072D01*
X18820857Y-10868500D01*
X18849428Y-10854214D01*
X18892286Y-10854214D01*
X18920857Y-10868500D01*
X19106571Y-11054214D02*
X19078000Y-11039929D01*
X19063714Y-11011357D01*
X19063714Y-10754214D01*
X19263714Y-11054214D02*
X19235143Y-11039929D01*
X19220857Y-11025643D01*
X19206571Y-10997072D01*
X19206571Y-10911357D01*
X19220857Y-10882786D01*
X19235143Y-10868500D01*
X19263714Y-10854214D01*
X19306571Y-10854214D01*
X19335143Y-10868500D01*
X19349428Y-10882786D01*
X19363714Y-10911357D01*
X19363714Y-10997072D01*
X19349428Y-11025643D01*
X19335143Y-11039929D01*
X19306571Y-11054214D01*
X19263714Y-11054214D01*
X19449428Y-10854214D02*
X19563714Y-10854214D01*
X19492286Y-10754214D02*
X19492286Y-11011357D01*
X19506571Y-11039929D01*
X19535143Y-11054214D01*
X19563714Y-11054214D01*
X19649429Y-11039929D02*
X19678000Y-11054214D01*
X19735143Y-11054214D01*
X19763714Y-11039929D01*
X19778000Y-11011357D01*
X19778000Y-10997072D01*
X19763714Y-10968500D01*
X19735143Y-10954214D01*
X19692286Y-10954214D01*
X19663714Y-10939929D01*
X19649429Y-10911357D01*
X19649429Y-10897072D01*
X19663714Y-10868500D01*
X19692286Y-10854214D01*
X19735143Y-10854214D01*
X19763714Y-10868500D01*
X19878000Y-11168500D02*
X19892286Y-11154214D01*
X19920857Y-11111357D01*
X19935143Y-11082786D01*
X19949428Y-11039929D01*
X19963714Y-10968500D01*
X19963714Y-10911357D01*
X19949428Y-10839929D01*
X19935143Y-10797072D01*
X19920857Y-10768500D01*
X19892286Y-10725643D01*
X19878000Y-10711357D01*
X20420857Y-11168500D02*
X20406571Y-11154214D01*
X20378000Y-11111357D01*
X20363714Y-11082786D01*
X20349428Y-11039929D01*
X20335143Y-10968500D01*
X20335143Y-10911357D01*
X20349428Y-10839929D01*
X20363714Y-10797072D01*
X20378000Y-10768500D01*
X20406571Y-10725643D01*
X20420857Y-10711357D01*
X20535143Y-10854214D02*
X20535143Y-11054214D01*
X20535143Y-10882786D02*
X20549428Y-10868500D01*
X20578000Y-10854214D01*
X20620857Y-10854214D01*
X20649428Y-10868500D01*
X20663714Y-10897072D01*
X20663714Y-11054214D01*
X20849428Y-11054214D02*
X20820857Y-11039929D01*
X20806571Y-11025643D01*
X20792286Y-10997072D01*
X20792286Y-10911357D01*
X20806571Y-10882786D01*
X20820857Y-10868500D01*
X20849428Y-10854214D01*
X20892286Y-10854214D01*
X20920857Y-10868500D01*
X20935143Y-10882786D01*
X20949428Y-10911357D01*
X20949428Y-10997072D01*
X20935143Y-11025643D01*
X20920857Y-11039929D01*
X20892286Y-11054214D01*
X20849428Y-11054214D01*
X21035143Y-10854214D02*
X21149428Y-10854214D01*
X21078000Y-10754214D02*
X21078000Y-11011357D01*
X21092286Y-11039929D01*
X21120857Y-11054214D01*
X21149428Y-11054214D01*
X21478000Y-10854214D02*
X21478000Y-11154214D01*
X21478000Y-10868500D02*
X21506571Y-10854214D01*
X21563714Y-10854214D01*
X21592286Y-10868500D01*
X21606571Y-10882786D01*
X21620857Y-10911357D01*
X21620857Y-10997072D01*
X21606571Y-11025643D01*
X21592286Y-11039929D01*
X21563714Y-11054214D01*
X21506571Y-11054214D01*
X21478000Y-11039929D01*
X21792286Y-11054214D02*
X21763714Y-11039929D01*
X21749429Y-11011357D01*
X21749429Y-10754214D01*
X22035143Y-11054214D02*
X22035143Y-10897072D01*
X22020857Y-10868500D01*
X21992286Y-10854214D01*
X21935143Y-10854214D01*
X21906571Y-10868500D01*
X22035143Y-11039929D02*
X22006571Y-11054214D01*
X21935143Y-11054214D01*
X21906571Y-11039929D01*
X21892286Y-11011357D01*
X21892286Y-10982786D01*
X21906571Y-10954214D01*
X21935143Y-10939929D01*
X22006571Y-10939929D01*
X22035143Y-10925643D01*
X22135143Y-10854214D02*
X22249429Y-10854214D01*
X22178000Y-10754214D02*
X22178000Y-11011357D01*
X22192286Y-11039929D01*
X22220857Y-11054214D01*
X22249429Y-11054214D01*
X22463714Y-11039929D02*
X22435143Y-11054214D01*
X22378000Y-11054214D01*
X22349429Y-11039929D01*
X22335143Y-11011357D01*
X22335143Y-10897072D01*
X22349429Y-10868500D01*
X22378000Y-10854214D01*
X22435143Y-10854214D01*
X22463714Y-10868500D01*
X22478000Y-10897072D01*
X22478000Y-10925643D01*
X22335143Y-10954214D01*
X22735143Y-11054214D02*
X22735143Y-10754214D01*
X22735143Y-11039929D02*
X22706571Y-11054214D01*
X22649429Y-11054214D01*
X22620857Y-11039929D01*
X22606571Y-11025643D01*
X22592286Y-10997072D01*
X22592286Y-10911357D01*
X22606571Y-10882786D01*
X22620857Y-10868500D01*
X22649429Y-10854214D01*
X22706571Y-10854214D01*
X22735143Y-10868500D01*
X22849429Y-11168500D02*
X22863714Y-11154214D01*
X22892286Y-11111357D01*
X22906571Y-11082786D01*
X22920857Y-11039929D01*
X22935143Y-10968500D01*
X22935143Y-10911357D01*
X22920857Y-10839929D01*
X22906571Y-10797072D01*
X22892286Y-10768500D01*
X22863714Y-10725643D01*
X22849429Y-10711357D01*
M02*
