G04 #@! TF.FileFunction,Legend,Bot*
%FSLAX46Y46*%
G04 Gerber Fmt 4.6, Leading zero omitted, Abs format (unit mm)*
G04 Created by KiCad (PCBNEW 4.0.7) date Sunday, December 31, 2017 'PMt' 04:59:37 PM*
%MOMM*%
%LPD*%
G01*
G04 APERTURE LIST*
%ADD10C,0.100000*%
%ADD11C,0.300000*%
%ADD12C,0.120000*%
%ADD13C,0.150000*%
G04 APERTURE END LIST*
D10*
D11*
X138218333Y-58664286D02*
X137795000Y-58664286D01*
X137613571Y-59329524D02*
X138218333Y-59329524D01*
X138218333Y-58059524D01*
X137613571Y-58059524D01*
X136343571Y-59208571D02*
X136404047Y-59269048D01*
X136585476Y-59329524D01*
X136706428Y-59329524D01*
X136887856Y-59269048D01*
X137008809Y-59148095D01*
X137069285Y-59027143D01*
X137129761Y-58785238D01*
X137129761Y-58603810D01*
X137069285Y-58361905D01*
X137008809Y-58240952D01*
X136887856Y-58120000D01*
X136706428Y-58059524D01*
X136585476Y-58059524D01*
X136404047Y-58120000D01*
X136343571Y-58180476D01*
X135134047Y-59329524D02*
X135859761Y-59329524D01*
X135496904Y-59329524D02*
X135496904Y-58059524D01*
X135617856Y-58240952D01*
X135738809Y-58361905D01*
X135859761Y-58422381D01*
X134650237Y-58180476D02*
X134589761Y-58120000D01*
X134468809Y-58059524D01*
X134166428Y-58059524D01*
X134045475Y-58120000D01*
X133984999Y-58180476D01*
X133924523Y-58301429D01*
X133924523Y-58422381D01*
X133984999Y-58603810D01*
X134710713Y-59329524D01*
X133924523Y-59329524D01*
X133380237Y-59329524D02*
X133380237Y-58059524D01*
X132896428Y-58059524D01*
X132775475Y-58120000D01*
X132714999Y-58180476D01*
X132654523Y-58301429D01*
X132654523Y-58482857D01*
X132714999Y-58603810D01*
X132775475Y-58664286D01*
X132896428Y-58724762D01*
X133380237Y-58724762D01*
X131505475Y-59329524D02*
X132110237Y-59329524D01*
X132110237Y-58059524D01*
X130356428Y-59329524D02*
X130779761Y-58724762D01*
X131082142Y-59329524D02*
X131082142Y-58059524D01*
X130598333Y-58059524D01*
X130477380Y-58120000D01*
X130416904Y-58180476D01*
X130356428Y-58301429D01*
X130356428Y-58482857D01*
X130416904Y-58603810D01*
X130477380Y-58664286D01*
X130598333Y-58724762D01*
X131082142Y-58724762D01*
X129146904Y-58120000D02*
X129267856Y-58059524D01*
X129449285Y-58059524D01*
X129630713Y-58120000D01*
X129751666Y-58240952D01*
X129812142Y-58361905D01*
X129872618Y-58603810D01*
X129872618Y-58785238D01*
X129812142Y-59027143D01*
X129751666Y-59148095D01*
X129630713Y-59269048D01*
X129449285Y-59329524D01*
X129328333Y-59329524D01*
X129146904Y-59269048D01*
X129086428Y-59208571D01*
X129086428Y-58785238D01*
X129328333Y-58785238D01*
X128118809Y-58664286D02*
X127937380Y-58724762D01*
X127876904Y-58785238D01*
X127816428Y-58906190D01*
X127816428Y-59087619D01*
X127876904Y-59208571D01*
X127937380Y-59269048D01*
X128058333Y-59329524D01*
X128542142Y-59329524D01*
X128542142Y-58059524D01*
X128118809Y-58059524D01*
X127997856Y-58120000D01*
X127937380Y-58180476D01*
X127876904Y-58301429D01*
X127876904Y-58422381D01*
X127937380Y-58543333D01*
X127997856Y-58603810D01*
X128118809Y-58664286D01*
X128542142Y-58664286D01*
X125578809Y-59329524D02*
X126002142Y-58724762D01*
X126304523Y-59329524D02*
X126304523Y-58059524D01*
X125820714Y-58059524D01*
X125699761Y-58120000D01*
X125639285Y-58180476D01*
X125578809Y-58301429D01*
X125578809Y-58482857D01*
X125639285Y-58603810D01*
X125699761Y-58664286D01*
X125820714Y-58724762D01*
X126304523Y-58724762D01*
X124853094Y-59329524D02*
X124974047Y-59269048D01*
X125034523Y-59208571D01*
X125094999Y-59087619D01*
X125094999Y-58724762D01*
X125034523Y-58603810D01*
X124974047Y-58543333D01*
X124853094Y-58482857D01*
X124671666Y-58482857D01*
X124550714Y-58543333D01*
X124490237Y-58603810D01*
X124429761Y-58724762D01*
X124429761Y-59087619D01*
X124490237Y-59208571D01*
X124550714Y-59269048D01*
X124671666Y-59329524D01*
X124853094Y-59329524D01*
X124066904Y-58482857D02*
X123583094Y-58482857D01*
X123885475Y-58059524D02*
X123885475Y-59148095D01*
X123824999Y-59269048D01*
X123704046Y-59329524D01*
X123583094Y-59329524D01*
X122615475Y-59329524D02*
X122615475Y-58664286D01*
X122675952Y-58543333D01*
X122796904Y-58482857D01*
X123038809Y-58482857D01*
X123159761Y-58543333D01*
X122615475Y-59269048D02*
X122736428Y-59329524D01*
X123038809Y-59329524D01*
X123159761Y-59269048D01*
X123220237Y-59148095D01*
X123220237Y-59027143D01*
X123159761Y-58906190D01*
X123038809Y-58845714D01*
X122736428Y-58845714D01*
X122615475Y-58785238D01*
X122010713Y-59329524D02*
X122010713Y-58482857D01*
X122010713Y-58724762D02*
X121950237Y-58603810D01*
X121889761Y-58543333D01*
X121768808Y-58482857D01*
X121647856Y-58482857D01*
X121345475Y-58482857D02*
X121043094Y-59329524D01*
X120740714Y-58482857D02*
X121043094Y-59329524D01*
X121164047Y-59631905D01*
X121224523Y-59692381D01*
X121345475Y-59752857D01*
X137674047Y-60869286D02*
X137250714Y-60869286D01*
X137069285Y-61534524D02*
X137674047Y-61534524D01*
X137674047Y-60264524D01*
X137069285Y-60264524D01*
X136524999Y-60687857D02*
X136524999Y-61534524D01*
X136524999Y-60808810D02*
X136464523Y-60748333D01*
X136343570Y-60687857D01*
X136162142Y-60687857D01*
X136041190Y-60748333D01*
X135980713Y-60869286D01*
X135980713Y-61534524D01*
X134831665Y-61474048D02*
X134952618Y-61534524D01*
X135194522Y-61534524D01*
X135315475Y-61474048D01*
X135375951Y-61413571D01*
X135436427Y-61292619D01*
X135436427Y-60929762D01*
X135375951Y-60808810D01*
X135315475Y-60748333D01*
X135194522Y-60687857D01*
X134952618Y-60687857D01*
X134831665Y-60748333D01*
X134105951Y-61534524D02*
X134226904Y-61474048D01*
X134287380Y-61413571D01*
X134347856Y-61292619D01*
X134347856Y-60929762D01*
X134287380Y-60808810D01*
X134226904Y-60748333D01*
X134105951Y-60687857D01*
X133924523Y-60687857D01*
X133803571Y-60748333D01*
X133743094Y-60808810D01*
X133682618Y-60929762D01*
X133682618Y-61292619D01*
X133743094Y-61413571D01*
X133803571Y-61474048D01*
X133924523Y-61534524D01*
X134105951Y-61534524D01*
X132594046Y-61534524D02*
X132594046Y-60264524D01*
X132594046Y-61474048D02*
X132714999Y-61534524D01*
X132956903Y-61534524D01*
X133077856Y-61474048D01*
X133138332Y-61413571D01*
X133198808Y-61292619D01*
X133198808Y-60929762D01*
X133138332Y-60808810D01*
X133077856Y-60748333D01*
X132956903Y-60687857D01*
X132714999Y-60687857D01*
X132594046Y-60748333D01*
X131505475Y-61474048D02*
X131626427Y-61534524D01*
X131868332Y-61534524D01*
X131989284Y-61474048D01*
X132049760Y-61353095D01*
X132049760Y-60869286D01*
X131989284Y-60748333D01*
X131868332Y-60687857D01*
X131626427Y-60687857D01*
X131505475Y-60748333D01*
X131444998Y-60869286D01*
X131444998Y-60990238D01*
X132049760Y-61111190D01*
X130900713Y-61534524D02*
X130900713Y-60687857D01*
X130900713Y-60929762D02*
X130840237Y-60808810D01*
X130779761Y-60748333D01*
X130658808Y-60687857D01*
X130537856Y-60687857D01*
X128723571Y-60869286D02*
X128542142Y-60929762D01*
X128481666Y-60990238D01*
X128421190Y-61111190D01*
X128421190Y-61292619D01*
X128481666Y-61413571D01*
X128542142Y-61474048D01*
X128663095Y-61534524D01*
X129146904Y-61534524D01*
X129146904Y-60264524D01*
X128723571Y-60264524D01*
X128602618Y-60325000D01*
X128542142Y-60385476D01*
X128481666Y-60506429D01*
X128481666Y-60627381D01*
X128542142Y-60748333D01*
X128602618Y-60808810D01*
X128723571Y-60869286D01*
X129146904Y-60869286D01*
X127876904Y-61534524D02*
X127876904Y-60687857D01*
X127876904Y-60929762D02*
X127816428Y-60808810D01*
X127755952Y-60748333D01*
X127634999Y-60687857D01*
X127514047Y-60687857D01*
X126606905Y-61474048D02*
X126727857Y-61534524D01*
X126969762Y-61534524D01*
X127090714Y-61474048D01*
X127151190Y-61353095D01*
X127151190Y-60869286D01*
X127090714Y-60748333D01*
X126969762Y-60687857D01*
X126727857Y-60687857D01*
X126606905Y-60748333D01*
X126546428Y-60869286D01*
X126546428Y-60990238D01*
X127151190Y-61111190D01*
X125457857Y-61534524D02*
X125457857Y-60869286D01*
X125518334Y-60748333D01*
X125639286Y-60687857D01*
X125881191Y-60687857D01*
X126002143Y-60748333D01*
X125457857Y-61474048D02*
X125578810Y-61534524D01*
X125881191Y-61534524D01*
X126002143Y-61474048D01*
X126062619Y-61353095D01*
X126062619Y-61232143D01*
X126002143Y-61111190D01*
X125881191Y-61050714D01*
X125578810Y-61050714D01*
X125457857Y-60990238D01*
X124853095Y-61534524D02*
X124853095Y-60264524D01*
X124732143Y-61050714D02*
X124369286Y-61534524D01*
X124369286Y-60687857D02*
X124853095Y-61171667D01*
X123643571Y-61534524D02*
X123764524Y-61474048D01*
X123825000Y-61413571D01*
X123885476Y-61292619D01*
X123885476Y-60929762D01*
X123825000Y-60808810D01*
X123764524Y-60748333D01*
X123643571Y-60687857D01*
X123462143Y-60687857D01*
X123341191Y-60748333D01*
X123280714Y-60808810D01*
X123220238Y-60929762D01*
X123220238Y-61292619D01*
X123280714Y-61413571D01*
X123341191Y-61474048D01*
X123462143Y-61534524D01*
X123643571Y-61534524D01*
X122131666Y-60687857D02*
X122131666Y-61534524D01*
X122675952Y-60687857D02*
X122675952Y-61353095D01*
X122615476Y-61474048D01*
X122494523Y-61534524D01*
X122313095Y-61534524D01*
X122192143Y-61474048D01*
X122131666Y-61413571D01*
X121708333Y-60687857D02*
X121224523Y-60687857D01*
X121526904Y-60264524D02*
X121526904Y-61353095D01*
X121466428Y-61474048D01*
X121345475Y-61534524D01*
X121224523Y-61534524D01*
X140607143Y-63618571D02*
X140667619Y-63679048D01*
X140849048Y-63739524D01*
X140970000Y-63739524D01*
X141151428Y-63679048D01*
X141272381Y-63558095D01*
X141332857Y-63437143D01*
X141393333Y-63195238D01*
X141393333Y-63013810D01*
X141332857Y-62771905D01*
X141272381Y-62650952D01*
X141151428Y-62530000D01*
X140970000Y-62469524D01*
X140849048Y-62469524D01*
X140667619Y-62530000D01*
X140607143Y-62590476D01*
X139518571Y-63739524D02*
X139518571Y-63074286D01*
X139579048Y-62953333D01*
X139700000Y-62892857D01*
X139941905Y-62892857D01*
X140062857Y-62953333D01*
X139518571Y-63679048D02*
X139639524Y-63739524D01*
X139941905Y-63739524D01*
X140062857Y-63679048D01*
X140123333Y-63558095D01*
X140123333Y-63437143D01*
X140062857Y-63316190D01*
X139941905Y-63255714D01*
X139639524Y-63255714D01*
X139518571Y-63195238D01*
X138913809Y-63739524D02*
X138913809Y-62892857D01*
X138913809Y-63134762D02*
X138853333Y-63013810D01*
X138792857Y-62953333D01*
X138671904Y-62892857D01*
X138550952Y-62892857D01*
X137946190Y-63739524D02*
X138067143Y-63679048D01*
X138127619Y-63558095D01*
X138127619Y-62469524D01*
X135769048Y-63739524D02*
X136192381Y-63134762D01*
X136494762Y-63739524D02*
X136494762Y-62469524D01*
X136010953Y-62469524D01*
X135890000Y-62530000D01*
X135829524Y-62590476D01*
X135769048Y-62711429D01*
X135769048Y-62892857D01*
X135829524Y-63013810D01*
X135890000Y-63074286D01*
X136010953Y-63134762D01*
X136494762Y-63134762D01*
X134680476Y-63739524D02*
X134680476Y-63074286D01*
X134740953Y-62953333D01*
X134861905Y-62892857D01*
X135103810Y-62892857D01*
X135224762Y-62953333D01*
X134680476Y-63679048D02*
X134801429Y-63739524D01*
X135103810Y-63739524D01*
X135224762Y-63679048D01*
X135285238Y-63558095D01*
X135285238Y-63437143D01*
X135224762Y-63316190D01*
X135103810Y-63255714D01*
X134801429Y-63255714D01*
X134680476Y-63195238D01*
X134196666Y-62892857D02*
X133894285Y-63739524D01*
X133591905Y-62892857D02*
X133894285Y-63739524D01*
X134015238Y-64041905D01*
X134075714Y-64102381D01*
X134196666Y-64162857D01*
X133108095Y-63739524D02*
X133108095Y-62892857D01*
X133108095Y-63013810D02*
X133047619Y-62953333D01*
X132926666Y-62892857D01*
X132745238Y-62892857D01*
X132624286Y-62953333D01*
X132563809Y-63074286D01*
X132563809Y-63739524D01*
X132563809Y-63074286D02*
X132503333Y-62953333D01*
X132382381Y-62892857D01*
X132200952Y-62892857D01*
X132080000Y-62953333D01*
X132019524Y-63074286D01*
X132019524Y-63739524D01*
X131233333Y-63739524D02*
X131354286Y-63679048D01*
X131414762Y-63618571D01*
X131475238Y-63497619D01*
X131475238Y-63134762D01*
X131414762Y-63013810D01*
X131354286Y-62953333D01*
X131233333Y-62892857D01*
X131051905Y-62892857D01*
X130930953Y-62953333D01*
X130870476Y-63013810D01*
X130810000Y-63134762D01*
X130810000Y-63497619D01*
X130870476Y-63618571D01*
X130930953Y-63679048D01*
X131051905Y-63739524D01*
X131233333Y-63739524D01*
X130265714Y-62892857D02*
X130265714Y-63739524D01*
X130265714Y-63013810D02*
X130205238Y-62953333D01*
X130084285Y-62892857D01*
X129902857Y-62892857D01*
X129781905Y-62953333D01*
X129721428Y-63074286D01*
X129721428Y-63739524D01*
X128572380Y-63739524D02*
X128572380Y-62469524D01*
X128572380Y-63679048D02*
X128693333Y-63739524D01*
X128935237Y-63739524D01*
X129056190Y-63679048D01*
X129116666Y-63618571D01*
X129177142Y-63497619D01*
X129177142Y-63134762D01*
X129116666Y-63013810D01*
X129056190Y-62953333D01*
X128935237Y-62892857D01*
X128693333Y-62892857D01*
X128572380Y-62953333D01*
X126999999Y-63739524D02*
X126999999Y-62469524D01*
X126697618Y-62469524D01*
X126516190Y-62530000D01*
X126395237Y-62650952D01*
X126334761Y-62771905D01*
X126274285Y-63013810D01*
X126274285Y-63195238D01*
X126334761Y-63437143D01*
X126395237Y-63558095D01*
X126516190Y-63679048D01*
X126697618Y-63739524D01*
X126999999Y-63739524D01*
X125246190Y-63679048D02*
X125367142Y-63739524D01*
X125609047Y-63739524D01*
X125729999Y-63679048D01*
X125790475Y-63558095D01*
X125790475Y-63074286D01*
X125729999Y-62953333D01*
X125609047Y-62892857D01*
X125367142Y-62892857D01*
X125246190Y-62953333D01*
X125185713Y-63074286D01*
X125185713Y-63195238D01*
X125790475Y-63316190D01*
X124097142Y-63679048D02*
X124218095Y-63739524D01*
X124459999Y-63739524D01*
X124580952Y-63679048D01*
X124641428Y-63618571D01*
X124701904Y-63497619D01*
X124701904Y-63134762D01*
X124641428Y-63013810D01*
X124580952Y-62953333D01*
X124459999Y-62892857D01*
X124218095Y-62892857D01*
X124097142Y-62953333D01*
X123552857Y-63618571D02*
X123492381Y-63679048D01*
X123552857Y-63739524D01*
X123613333Y-63679048D01*
X123552857Y-63618571D01*
X123552857Y-63739524D01*
X122040952Y-62590476D02*
X121980476Y-62530000D01*
X121859524Y-62469524D01*
X121557143Y-62469524D01*
X121436190Y-62530000D01*
X121375714Y-62590476D01*
X121315238Y-62711429D01*
X121315238Y-62832381D01*
X121375714Y-63013810D01*
X122101428Y-63739524D01*
X121315238Y-63739524D01*
X120529047Y-62469524D02*
X120408095Y-62469524D01*
X120287143Y-62530000D01*
X120226666Y-62590476D01*
X120166190Y-62711429D01*
X120105714Y-62953333D01*
X120105714Y-63255714D01*
X120166190Y-63497619D01*
X120226666Y-63618571D01*
X120287143Y-63679048D01*
X120408095Y-63739524D01*
X120529047Y-63739524D01*
X120650000Y-63679048D01*
X120710476Y-63618571D01*
X120770952Y-63497619D01*
X120831428Y-63255714D01*
X120831428Y-62953333D01*
X120770952Y-62711429D01*
X120710476Y-62590476D01*
X120650000Y-62530000D01*
X120529047Y-62469524D01*
X118896190Y-63739524D02*
X119621904Y-63739524D01*
X119259047Y-63739524D02*
X119259047Y-62469524D01*
X119379999Y-62650952D01*
X119500952Y-62771905D01*
X119621904Y-62832381D01*
X118472856Y-62469524D02*
X117626190Y-62469524D01*
X118170475Y-63739524D01*
D12*
X112335000Y-66615000D02*
X114995000Y-66615000D01*
X112335000Y-74295000D02*
X112335000Y-66615000D01*
X114995000Y-74295000D02*
X114995000Y-66615000D01*
X112335000Y-74295000D02*
X114995000Y-74295000D01*
X112335000Y-75565000D02*
X112335000Y-76895000D01*
X112335000Y-76895000D02*
X113665000Y-76895000D01*
X112335000Y-53915000D02*
X114995000Y-53915000D01*
X112335000Y-61595000D02*
X112335000Y-53915000D01*
X114995000Y-61595000D02*
X114995000Y-53915000D01*
X112335000Y-61595000D02*
X114995000Y-61595000D01*
X112335000Y-62865000D02*
X112335000Y-64195000D01*
X112335000Y-64195000D02*
X113665000Y-64195000D01*
D13*
X111458333Y-75017381D02*
X111458333Y-75731667D01*
X111505953Y-75874524D01*
X111601191Y-75969762D01*
X111744048Y-76017381D01*
X111839286Y-76017381D01*
X110458333Y-76017381D02*
X111029762Y-76017381D01*
X110744048Y-76017381D02*
X110744048Y-75017381D01*
X110839286Y-75160238D01*
X110934524Y-75255476D01*
X111029762Y-75303095D01*
X111458333Y-62317381D02*
X111458333Y-63031667D01*
X111505953Y-63174524D01*
X111601191Y-63269762D01*
X111744048Y-63317381D01*
X111839286Y-63317381D01*
X111029762Y-62412619D02*
X110982143Y-62365000D01*
X110886905Y-62317381D01*
X110648809Y-62317381D01*
X110553571Y-62365000D01*
X110505952Y-62412619D01*
X110458333Y-62507857D01*
X110458333Y-62603095D01*
X110505952Y-62745952D01*
X111077381Y-63317381D01*
X110458333Y-63317381D01*
M02*
