M48
;DRILL file {KiCad 4.0.7} date Sunday, December 31, 2017 'PMt' 05:06:52 PM
;FORMAT={-:-/ absolute / inch / decimal}
FMAT,2
INCH,TZ
T1C0.015
T2C0.039
T3C0.043
T4C0.079
%
G90
G05
M72
T1
X4.65Y-2.75
X4.65Y-3.
X4.65Y-3.25
X4.8Y-2.45
X4.9Y-3.35
X5.2Y-2.5
X5.2Y-3.3
X5.25Y-2.55
X5.35Y-3.4
X5.4Y-2.575
T2
X4.475Y-2.175
X4.475Y-2.275
X4.475Y-2.375
X4.475Y-2.475
X4.475Y-2.675
X4.475Y-2.775
X4.475Y-2.875
X4.475Y-2.975
X5.Y-2.175
X5.0425Y-2.6494
X5.1Y-2.175
X5.1213Y-2.6494
X5.2Y-2.175
X5.2Y-2.6494
X5.2787Y-2.6494
X5.3Y-2.175
X5.3575Y-2.6494
X5.4Y-2.175
T3
X5.1016Y-3.2203
X5.2Y-3.2203
X5.2984Y-3.2203
T4
X4.9795Y-2.923G85X4.9795Y-2.927
G05
X5.4205Y-2.923G85X5.4205Y-2.927
G05
T0
M30
